<svg width="18" height="18" viewBox="0 0 18 18" fill="none" xmlns="http://www.w3.org/2000/svg">
<path d="M8.89988 17.3993C11.1337 17.3993 13.276 16.512 14.8556 14.9324C16.4351 13.3529 17.3225 11.2106 17.3225 8.97676C17.3225 6.74295 16.4351 4.60063 14.8556 3.02109C13.276 1.44155 11.1337 0.554169 8.89988 0.554169C6.66607 0.554169 4.52376 1.44155 2.94421 3.02109C1.36467 4.60063 0.477295 6.74295 0.477295 8.97676C0.477295 11.2106 1.36467 13.3529 2.94421 14.9324C4.52376 16.512 6.66607 17.3993 8.89988 17.3993ZM7.58385 11.6088H8.37347V9.50317H7.58385C7.14627 9.50317 6.79424 9.15113 6.79424 8.71355C6.79424 8.27597 7.14627 7.92393 7.58385 7.92393H9.16309C9.60067 7.92393 9.95271 8.27597 9.95271 8.71355V11.6088H10.2159C10.6535 11.6088 11.0055 11.9609 11.0055 12.3984C11.0055 12.836 10.6535 13.1881 10.2159 13.1881H7.58385C7.14627 13.1881 6.79424 12.836 6.79424 12.3984C6.79424 11.9609 7.14627 11.6088 7.58385 11.6088ZM8.89988 4.76546C9.17911 4.76546 9.4469 4.87639 9.64434 5.07383C9.84179 5.27127 9.95271 5.53906 9.95271 5.81829C9.95271 6.09751 9.84179 6.3653 9.64434 6.56275C9.4469 6.76019 9.17911 6.87111 8.89988 6.87111C8.62066 6.87111 8.35287 6.76019 8.15543 6.56275C7.95798 6.3653 7.84706 6.09751 7.84706 5.81829C7.84706 5.53906 7.95798 5.27127 8.15543 5.07383C8.35287 4.87639 8.62066 4.76546 8.89988 4.76546Z" fill="white"/>
</svg>
