<svg width="18" height="18" viewBox="0 0 18 18" fill="none" xmlns="http://www.w3.org/2000/svg">
<path d="M8.90001 17.3993C11.1338 17.3993 13.2761 16.512 14.8557 14.9324C16.4352 13.3529 17.3226 11.2106 17.3226 8.97676C17.3226 6.74295 16.4352 4.60063 14.8557 3.02109C13.2761 1.44155 11.1338 0.554169 8.90001 0.554169C6.6662 0.554169 4.52388 1.44155 2.94434 3.02109C1.36479 4.60063 0.477417 6.74295 0.477417 8.97676C0.477417 11.2106 1.36479 13.3529 2.94434 14.9324C4.52388 16.512 6.6662 17.3993 8.90001 17.3993ZM7.58398 11.6088H8.37359V9.50317H7.58398C7.1464 9.50317 6.79436 9.15113 6.79436 8.71355C6.79436 8.27597 7.1464 7.92393 7.58398 7.92393H9.16321C9.60079 7.92393 9.95283 8.27597 9.95283 8.71355V11.6088H10.216C10.6536 11.6088 11.0057 11.9609 11.0057 12.3984C11.0057 12.836 10.6536 13.1881 10.216 13.1881H7.58398C7.1464 13.1881 6.79436 12.836 6.79436 12.3984C6.79436 11.9609 7.1464 11.6088 7.58398 11.6088ZM8.90001 4.76546C9.17923 4.76546 9.44702 4.87639 9.64446 5.07383C9.84191 5.27127 9.95283 5.53906 9.95283 5.81829C9.95283 6.09751 9.84191 6.3653 9.64446 6.56275C9.44702 6.76019 9.17923 6.87111 8.90001 6.87111C8.62078 6.87111 8.35299 6.76019 8.15555 6.56275C7.95811 6.3653 7.84718 6.09751 7.84718 5.81829C7.84718 5.53906 7.95811 5.27127 8.15555 5.07383C8.35299 4.87639 8.62078 4.76546 8.90001 4.76546Z" fill="#0D7167"/>
</svg>
