<svg width="50" height="50" viewBox="0 0 50 50" fill="none" xmlns="http://www.w3.org/2000/svg">
<circle cx="25" cy="25" r="24.5" fill="white" stroke="#046E62"/>
<path d="M29.6635 16.5678L29.6644 16.5687C29.6859 16.5901 29.7029 16.6155 29.7146 16.6436C29.7262 16.6716 29.7322 16.7016 29.7322 16.732C29.7322 16.7623 29.7262 16.7924 29.7146 16.8204C29.7029 16.8484 29.6859 16.8739 29.6644 16.8953L29.664 16.8957L21.4117 25.1466L21.058 25.5002L21.4117 25.8538L29.664 34.1046C29.664 34.1046 29.664 34.1046 29.664 34.1046C29.7074 34.1481 29.7318 34.207 29.7318 34.2684C29.7318 34.3298 29.7074 34.3887 29.664 34.4322C29.6205 34.4756 29.5616 34.5 29.5002 34.5C29.4388 34.5 29.3799 34.4756 29.3364 34.4322L20.5682 25.664L20.5678 25.6635C20.5463 25.6421 20.5292 25.6166 20.5176 25.5886C20.506 25.5606 20.5 25.5305 20.5 25.5002C20.5 25.4698 20.506 25.4398 20.5176 25.4118C20.5292 25.3838 20.5463 25.3583 20.5678 25.3369L20.5682 25.3364L29.3364 16.5682L29.3369 16.5678C29.3583 16.5463 29.3838 16.5292 29.4118 16.5176L29.2204 16.0564L29.4118 16.5176C29.4398 16.506 29.4699 16.5 29.5002 16.5C29.5305 16.5 29.5606 16.506 29.5886 16.5176C29.6166 16.5292 29.6421 16.5463 29.6635 16.5678Z" fill="#1C2B38" stroke="#046E62"/>
</svg>
