<svg width="413" height="164" viewBox="0 0 413 164" fill="none" xmlns="http://www.w3.org/2000/svg">
<path d="M148.134 0.136932C128.268 2.29849 109.154 8.15276 88.8006 18.2851C46.8117 39.1353 13.4949 72.6397 3.05294 104.478C0.840663 111.188 0 116.231 0 122.761C0 131.633 1.63708 137.352 6.10587 144.152C12.5215 153.969 24.4677 160.544 40.1749 162.93C45.8383 163.786 60.4393 163.651 67.6955 162.705C76.9871 161.489 88.8006 158.652 98.2249 155.41C121.94 147.214 145.523 133.704 165.345 116.997L171.053 112.178L163.62 112.043L156.231 111.953L153.045 114.97C124.33 142.711 88.3139 160.093 59.4216 160.228C40.6173 160.318 27.211 153.293 20.9281 140.099C15.9284 129.606 15.8841 117.312 20.7954 101.821C25.8393 85.8343 37.2547 67.6861 51.8999 52.3299C61.6782 42.0624 70.483 34.4519 81.0577 27.0665C116.985 1.98328 155.832 -6.03256 177.424 7.07198C181.185 9.36864 186.362 14.5924 188.441 18.105C192.202 24.5897 193.574 30.1738 193.574 38.775C193.53 44.6743 192.512 51.9696 191.052 56.1577C190.698 57.1934 190.388 58.0941 190.388 58.1842C190.388 58.2742 194.459 58.3643 199.37 58.3643H208.396L209.104 55.7524C212.157 44.9445 212.113 34.9473 208.883 26.391C204.679 15.2679 194.68 6.71172 181.318 2.79385C173.929 0.632294 170.433 0.181961 159.859 0.0468597C154.372 -0.0431976 149.107 0.00183105 148.134 0.136932Z" fill="#613843"/>
<path d="M239.414 64.534C238.661 64.7141 238.617 65.9751 238.617 82.5021V100.245H243.263H247.909V82.2769V64.3539L244.059 64.3088C241.891 64.3088 239.812 64.3989 239.414 64.534Z" fill="#05628C"/>
<path d="M260.381 65.165C258.213 66.2908 256.531 68.3173 256.089 70.3888L255.779 71.8749H272.416H289.052L289.14 85.9251L289.273 100.02L293.388 100.155L297.459 100.291V86.0602V71.8749H313.608C329.581 71.8749 329.758 71.8749 329.758 70.9742C329.758 68.5875 327.014 65.4802 324.227 64.7146C323.032 64.3994 312.679 64.2193 292.37 64.2193C262.593 64.2193 262.283 64.2193 260.381 65.165Z" fill="#05628C"/>
<path d="M344.362 64.9384C340.38 66.6947 339.053 69.3516 339.053 75.4761C339.053 80.835 339.805 82.8614 342.46 84.5277L344.141 85.6084L374.228 85.7435L404.315 85.8336L404.448 89.6614L404.58 93.4892H372.016C349.627 93.4892 339.495 93.6243 339.495 93.9395C339.495 94.9753 340.911 97.0918 342.238 98.1726C344.937 100.244 345.867 100.289 377.104 100.154L406.527 100.019L408.518 98.6679C411.615 96.5064 412.5 94.5249 412.5 89.5263C412.5 85.2482 412.19 84.1674 410.553 82.321C408.43 79.8893 409.049 79.9343 382.767 79.9793C369.405 79.9793 355.733 79.8442 352.459 79.7091L346.53 79.3939L346.663 75.5211L346.796 71.6483L379.67 71.5132C397.722 71.4681 412.5 71.288 412.5 71.198C412.5 71.0629 412.102 70.1622 411.615 69.2165C410.553 67.0549 408.518 65.2987 406.394 64.6682C405.332 64.398 394.271 64.2179 375.334 64.2179C350.07 64.2629 345.69 64.353 344.362 64.9384Z" fill="#05628C"/>
<path d="M78.8457 65.7057C77.6953 66.3361 76.3237 67.597 75.5715 68.7679L74.2441 70.7493V85.6101V100.471H78.4475H82.6508V93.3558C82.6508 86.6009 82.695 86.2406 83.5357 86.0154C84.0224 85.9254 94.8625 85.8803 107.649 85.9254L130.834 86.0605L134.728 92.7703C136.851 96.463 138.754 99.6604 138.931 99.8405C139.285 100.156 148.355 100.651 148.355 100.336C148.355 100.246 146.453 97.1385 144.152 93.4458C141.851 89.7531 139.949 86.5558 139.949 86.2856C139.949 86.0605 140.391 85.8353 140.966 85.8353C142.603 85.8353 145.347 83.9439 146.807 81.8724C148.046 80.0261 148.134 79.6658 148.134 75.5228C148.134 71.4248 148.046 70.9745 146.807 68.948C145.922 67.507 144.816 66.4262 143.533 65.7057L141.586 64.6699H111.189H80.7925L78.8457 65.7057ZM139.418 75.3427L139.55 79.0804H111.189H82.872V75.2526V71.4248L111.101 71.5149L139.285 71.65L139.418 75.3427Z" fill="#05628C"/>
<path d="M157.427 65.2547C157.294 65.5249 157.25 73.4057 157.294 82.6824L157.427 99.5697H191.584H225.697L227.644 98.2187C228.839 97.3631 229.945 96.0571 230.653 94.6161C231.715 92.4095 231.759 92.1393 231.759 82.2321C231.759 72.46 231.715 72.0096 230.697 69.9832C229.503 67.6415 227.954 66.2905 225.255 65.2998C222.777 64.3991 157.736 64.3541 157.427 65.2547ZM223.574 74.8017V78.6295L194.504 78.5394L165.391 78.4043L165.258 75.297C165.17 73.5858 165.214 71.9196 165.347 71.5593C165.524 71.064 170.656 70.9739 194.593 70.9739H223.574V74.8017ZM223.574 88.987V92.5896H194.814C179.018 92.5896 165.922 92.6347 165.745 92.6797C165.347 92.8148 164.993 86.9155 165.347 85.9698C165.524 85.4744 170.656 85.3844 194.593 85.3844H223.574V88.987Z" fill="#05628C"/>
<path d="M66.9434 105.829V107H239.501C338.699 107 412.058 106.82 412.058 106.594C412.058 106.009 375.777 105.694 283.967 105.423C238.97 105.288 171.717 105.063 134.55 104.928L66.9434 104.613V105.829Z" fill="#05628C"/>
<path d="M192.155 118.257V124.562H197.022C201.58 124.562 201.889 124.517 201.889 123.661C201.889 122.851 201.58 122.76 198.084 122.76H194.323L194.456 120.824L194.589 118.933H197.819C200.827 118.933 201.004 118.888 201.004 117.897C201.004 116.951 200.827 116.906 197.686 116.906H194.368V115.33V113.754H197.907C201.137 113.754 201.447 113.664 201.447 112.853C201.447 111.998 201.137 111.953 196.801 111.953H192.155V118.257Z" fill="#03658D"/>
<path d="M240.826 112.853C240.826 113.529 241.136 113.754 241.932 113.754C242.729 113.754 243.038 113.529 243.038 112.853C243.038 112.178 242.729 111.953 241.932 111.953C241.136 111.953 240.826 112.178 240.826 112.853Z" fill="#04658D"/>
<path d="M307.951 112.583C307.641 113.439 307.995 113.754 309.278 113.754C309.986 113.754 310.296 113.484 310.296 112.853C310.296 112.223 309.986 111.953 309.234 111.953C308.659 111.953 308.084 112.223 307.951 112.583Z" fill="#04658D"/>
<path d="M359.408 118.257V124.562H360.514C361.488 124.562 361.576 124.382 361.709 121.95L361.842 119.383L364.629 119.248C366.974 119.113 367.372 118.978 367.372 118.257C367.372 117.537 366.974 117.402 364.629 117.266L361.842 117.131L361.709 115.42L361.576 113.754H364.895C367.948 113.754 368.257 113.664 368.257 112.853C368.257 111.998 367.948 111.953 363.833 111.953H359.408V118.257Z" fill="#03658D"/>
<path d="M375.334 112.853C375.334 113.529 375.644 113.754 376.44 113.754C377.237 113.754 377.546 113.529 377.546 112.853C377.546 112.178 377.237 111.953 376.44 111.953C375.644 111.953 375.334 112.178 375.334 112.853Z" fill="#04658D"/>
<path d="M212.157 115.827C211.626 116.187 211.184 116.277 211.184 116.052C211.184 115.782 210.697 115.557 210.078 115.557H208.972V120.06V124.563H210.078C211.14 124.563 211.184 124.473 211.184 121.591C211.184 118.124 211.715 116.908 213.175 116.908C214.635 116.908 215.166 118.124 215.166 121.591C215.166 124.518 215.21 124.563 216.316 124.563H217.467L217.29 120.465C217.157 117.088 216.936 116.232 216.272 115.737C215.166 114.926 213.396 114.926 212.157 115.827Z" fill="#03658D"/>
<path d="M225.564 116.231C224.635 117.132 224.458 117.763 224.458 119.834C224.458 121.951 224.635 122.536 225.608 123.482C226.715 124.653 228.307 124.788 230.343 123.887C230.918 123.617 231.095 123.797 231.095 124.653C231.095 125.238 230.874 125.958 230.564 126.274C229.944 126.904 227.732 126.994 227.378 126.409C227.024 125.868 224.945 125.508 224.635 125.958C224.502 126.184 224.945 126.904 225.564 127.535C226.626 128.615 226.98 128.705 229.148 128.525C232.82 128.21 233.042 127.805 233.263 121.185L233.396 115.556H232.245C231.626 115.556 231.095 115.781 231.095 116.051C231.095 116.276 230.652 116.186 230.121 115.826C228.661 114.79 226.803 114.925 225.564 116.231ZM230.387 117.627C231.847 119.113 230.697 123.211 228.794 123.211C227.068 123.211 226.007 119.879 227.113 117.763C227.688 116.727 229.458 116.637 230.387 117.627Z" fill="#03658D"/>
<path d="M253.662 115.87C252.909 116.411 252.555 116.456 252.423 116.096C252.334 115.78 251.892 115.555 251.405 115.555C250.653 115.555 250.564 115.915 250.564 120.058V124.562H251.671C252.732 124.562 252.777 124.472 252.777 121.229C252.777 117.627 253.263 116.726 255.077 116.996C256.051 117.131 256.095 117.357 256.228 120.824L256.361 124.562H257.688H259.06L258.883 120.464C258.794 117.041 258.617 116.276 257.909 115.735C256.759 114.88 254.989 114.925 253.662 115.87Z" fill="#03658D"/>
<path d="M267.683 115.601C265.781 116.727 265.029 120.374 266.267 122.716C267.551 125.238 271.842 125.688 273.302 123.481C273.922 122.491 273.922 122.401 273.037 122.176C272.55 122.04 271.842 122.221 271.488 122.581C271.134 122.941 270.471 123.211 270.028 123.211C269.143 123.211 267.728 121.5 268.082 120.87C268.214 120.689 269.586 120.509 271.179 120.509H274.01V119.113C274.01 116.231 270.205 114.115 267.683 115.601ZM271.09 117.177C271.488 117.312 271.798 117.852 271.798 118.303C271.798 119.023 271.444 119.158 269.807 119.158C267.683 119.158 267.374 118.753 268.524 117.627C269.232 116.862 269.984 116.727 271.09 117.177Z" fill="#03658D"/>
<path d="M281.887 116.547C280.692 117.853 280.56 118.214 280.737 120.42C281.002 123.302 282.02 124.518 284.453 124.878C285.781 125.058 286.444 124.878 287.418 124.113C288.081 123.572 288.612 122.987 288.612 122.762C288.612 122.041 287.152 121.861 286.4 122.537C285.471 123.392 284.453 123.392 283.568 122.492C282.064 121.006 282.684 120.51 286.002 120.51H289.188L288.922 118.799C288.347 115.106 284.365 113.845 281.887 116.547ZM286.312 117.448C287.418 118.574 286.887 119.159 284.852 119.159C283.524 119.159 282.86 118.979 282.86 118.574C282.86 117.718 283.79 116.908 284.852 116.908C285.382 116.908 286.002 117.133 286.312 117.448Z" fill="#03658D"/>
<path d="M298.967 115.872C298.392 116.457 298.127 116.502 297.994 116.097C297.906 115.827 297.463 115.557 296.976 115.557C296.224 115.557 296.136 115.917 296.136 120.06V124.563H297.242C298.304 124.563 298.348 124.473 298.348 121.681C298.348 117.989 298.613 117.358 300.118 117.358C300.958 117.358 301.401 117.088 301.578 116.502C301.711 116.007 301.666 115.512 301.534 115.377C301.047 114.836 299.72 115.106 298.967 115.872Z" fill="#03658D"/>
<path d="M320.913 115.872C320.16 116.412 319.806 116.457 319.674 116.097C319.585 115.782 319.143 115.557 318.656 115.557C317.904 115.557 317.815 115.917 317.815 120.06V124.563H318.922C319.983 124.563 320.028 124.473 320.028 121.456C320.028 118.124 320.647 116.908 322.24 116.908C323.479 116.908 324.01 118.304 324.01 121.591C324.01 124.473 324.054 124.563 325.16 124.563H326.311L326.134 120.465C326.045 117.043 325.868 116.277 325.16 115.737C324.01 114.881 322.24 114.926 320.913 115.872Z" fill="#03658D"/>
<path d="M334.583 116.051C333.654 116.861 333.521 117.402 333.521 119.834C333.521 121.995 333.743 122.896 334.362 123.616C335.38 124.742 337.548 124.877 338.964 123.842C339.893 123.166 339.937 123.211 339.937 124.427C339.937 125.148 339.716 125.958 339.406 126.273C338.787 126.904 336.574 126.994 336.22 126.408C336.088 126.183 335.468 125.913 334.849 125.823C334.008 125.643 333.743 125.778 333.743 126.408C333.743 128.525 338.787 129.471 340.866 127.759C341.884 126.949 341.928 126.544 342.061 121.23L342.238 115.556H341.087C340.468 115.556 339.937 115.781 339.937 116.051C339.937 116.276 339.495 116.186 338.964 115.826C337.592 114.835 335.866 114.925 334.583 116.051ZM339.627 118.573C340.512 121.635 338.698 123.977 336.574 122.536C335.778 122.04 335.513 121.455 335.513 120.239C335.513 117.807 336.22 116.816 337.858 116.997C339.008 117.087 339.318 117.402 339.627 118.573Z" fill="#03658D"/>
<path d="M387.898 115.872C387.323 116.457 387.057 116.502 386.925 116.097C386.836 115.827 386.394 115.557 385.907 115.557C385.155 115.557 385.066 115.917 385.066 120.06V124.563H386.173C387.234 124.563 387.279 124.473 387.279 121.591C387.279 117.989 387.81 116.818 389.225 117.178C390.022 117.358 390.332 117.223 390.509 116.502C390.597 116.007 390.597 115.512 390.464 115.377C389.978 114.836 388.65 115.106 387.898 115.872Z" fill="#03658D"/>
<path d="M399.845 115.872C399.27 116.457 399.005 116.502 398.872 116.097C398.784 115.827 398.208 115.557 397.633 115.557C396.571 115.557 396.571 115.602 396.571 120.06V124.563H397.677C398.739 124.563 398.784 124.428 398.828 121.951C398.916 117.989 399.27 117.133 400.775 117.133H402.102L402.235 120.826C402.367 124.473 402.367 124.563 403.429 124.563C404.491 124.563 404.535 124.428 404.535 121.906C404.535 118.124 405.111 116.818 406.659 116.998C407.854 117.133 407.854 117.178 407.987 120.826C408.119 124.473 408.119 124.563 409.181 124.563C410.287 124.563 410.287 124.518 410.287 120.555C410.287 116.863 410.199 116.457 409.314 115.827C408.031 114.926 406.748 114.926 405.509 115.827C404.58 116.502 404.403 116.502 403.695 115.827C402.677 114.881 400.819 114.926 399.845 115.872Z" fill="#03658D"/>
<path d="M240.826 120.06V124.563H241.932H243.038V120.06V115.557H241.932H240.826V120.06Z" fill="#03658D"/>
<path d="M308.079 119.609C308.079 121.815 308.035 123.797 307.991 123.977C307.902 124.202 308.389 124.382 309.097 124.472L310.292 124.607V120.104V115.556H309.185C308.079 115.556 308.079 115.601 308.079 119.609Z" fill="#03658D"/>
<path d="M375.334 120.058V124.562H376.44H377.546V120.058V115.555H376.44H375.334V120.058Z" fill="#03658D"/>
<path d="M196.582 136.271V138.073H198.573H200.564V136.271V134.47H198.573H196.582V136.271Z" fill="#35363A"/>
<path d="M201.894 136.271V138.073H203.885H205.876V136.271V134.47H203.885H201.894V136.271Z" fill="#35363A"/>
<path d="M256.755 136.271V138.073H258.746H260.737V136.271V134.47H258.746H256.755V136.271Z" fill="#35363A"/>
<path d="M286.848 142.8V151.132H284.414H281.981V148.159C281.981 142.08 280.255 140.594 273.131 140.549H268.486L268.441 142.891C268.397 144.917 268.22 145.412 267.026 146.538C266.229 147.304 265.565 148.475 265.388 149.465C265.079 151.132 265.035 151.132 262.911 151.132H260.787L260.654 145.818L260.521 140.549L258.663 140.414L256.761 140.279V145.683V151.132H254.327H251.894V148.925C251.894 143.926 249.46 141.179 244.46 140.504L242.16 140.189V142.035C242.16 143.926 242.602 144.377 244.593 144.377C245.168 144.377 246.186 144.827 246.805 145.412C247.735 146.223 248 146.853 248.044 148.655L248.133 150.906L243.841 151.041L239.505 151.177V152.933V154.734H269.371H299.236V144.602V134.469H297.245H295.254V142.845V151.177L292.953 151.041L290.608 150.906L290.476 142.665L290.387 134.469H288.617H286.848V142.8ZM277.733 145.097C277.866 145.502 277.998 147.034 277.998 148.475C277.998 151.177 277.998 151.177 276.804 151.041C275.786 150.951 275.521 150.636 275.299 149.24C275.034 147.349 274.326 146.358 273.087 145.953C272.645 145.773 272.247 145.367 272.247 145.007C272.247 144.061 277.379 144.106 277.733 145.097ZM271.273 148.97C271.583 149.285 271.804 149.871 271.804 150.321C271.804 150.906 271.45 151.132 270.477 151.132C269.371 151.132 269.149 150.951 269.149 150.096C269.149 148.43 270.211 147.889 271.273 148.97Z" fill="#35363A"/>
<path d="M339.492 144.602V154.734H341.262H343.032L343.076 145.592C343.076 140.594 343.165 136.046 343.209 135.46C343.297 134.559 343.12 134.469 341.395 134.469H339.492V144.602Z" fill="#35363A"/>
<path d="M356.309 144.647V154.779L358.211 154.644L360.069 154.509L360.202 144.466L360.291 134.469H358.3H356.309V144.647Z" fill="#35363A"/>
<path d="M203.353 140.774C197.778 141.9 193.398 146.718 192.38 152.798L192.07 154.734H194.017H195.964L196.76 152.167C197.689 148.925 198.928 146.898 200.61 145.683L201.893 144.782V149.735V154.734H219.149H236.449L236.316 147.619L236.183 140.549H234.413H232.643L232.511 145.818L232.378 151.132H230.21H227.998V147.034V142.981L226.139 143.116L224.281 143.251V147.079L224.237 150.906H222.024H219.812L219.679 148.294L219.547 145.728H217.821H216.051V148.43V151.132H210.963H205.875V145.728C205.875 142.755 205.742 140.324 205.565 140.369C205.344 140.414 204.371 140.594 203.353 140.774Z" fill="#35363A"/>
<path d="M318.703 142.35V144.377H320.473H322.243V142.35V140.324H320.473H318.703V142.35Z" fill="#35363A"/>
<path d="M324.006 142.351V144.423L325.908 144.288C327.767 144.153 327.767 144.153 327.767 142.351C327.767 140.55 327.767 140.55 325.908 140.415L324.006 140.28V142.351Z" fill="#35363A"/>
<path d="M332.418 145.728V151.132H324.498C320.118 151.132 316.047 150.951 315.428 150.681C314.322 150.276 314.278 150.141 314.278 146.268C314.278 144.061 314.189 142.17 314.101 142.08C313.968 141.945 313.039 141.945 312.021 142.035L310.207 142.215L310.384 146.628C310.694 154.464 311.225 154.734 325.516 154.734H335.958V147.529V140.324H334.188H332.418V145.728Z" fill="#35363A"/>
<path d="M349.538 140.594C349.361 140.774 349.228 144.286 349.228 148.429C349.228 156.355 349.051 156.986 347.149 156.986C346.264 156.986 346.131 157.211 346.131 158.787V160.588H347.945C349.405 160.588 350.024 160.318 351.219 159.102C353.077 157.211 353.299 155.725 353.122 147.078L352.989 140.549L351.44 140.414C350.555 140.324 349.715 140.414 349.538 140.594Z" fill="#35363A"/>
<path d="M366.13 142.17C366.263 144.152 366.263 144.152 368.209 144.422C370.776 144.782 371.793 146.043 371.793 148.925V151.132H367.59H363.387V152.933V154.735H378.43H393.474V156.131V157.527L397.411 157.346C400.863 157.211 401.526 157.076 402.5 156.131C404.225 154.509 404.579 152.438 404.447 146.178L404.314 140.549L400.686 140.594C395.066 140.684 393.474 142.351 393.474 148.205V151.132H384.625H375.775V149.105C375.775 146.899 374.891 144.242 373.652 142.891C372.501 141.585 370.864 140.864 368.298 140.504L365.997 140.189L366.13 142.17ZM400.553 148.25C400.553 152.618 400.11 153.834 398.562 153.834C397.456 153.834 397.456 153.834 397.456 149.421C397.456 146.989 397.588 144.827 397.765 144.692C397.898 144.512 398.606 144.377 399.314 144.377H400.553V148.25Z" fill="#35363A"/>
</svg>
