<svg width="228" height="64" viewBox="0 0 228 64" fill="none" xmlns="http://www.w3.org/2000/svg">
<path opacity="0.964" fill-rule="evenodd" clip-rule="evenodd" d="M193.512 0C198.837 2.14372 203.659 5.07155 207.979 8.78352C205.406 11.227 202.866 13.7242 200.358 16.2753C198.159 18.9551 195.963 21.6245 193.77 24.2838C191.577 21.6245 189.381 18.9551 187.183 16.2753C184.675 13.7242 182.134 11.227 179.562 8.78352C183.792 5.20361 188.442 2.27578 193.512 0Z" fill="white"/>
<path opacity="0.694" fill-rule="evenodd" clip-rule="evenodd" d="M138.744 7.75024C139.433 7.75024 140.122 7.75024 140.811 7.75024C140.811 8.09469 140.811 8.43916 140.811 8.7836C139.844 8.55071 139.328 8.89518 139.261 9.81695C139.863 9.81695 140.466 9.81695 141.069 9.81695C141.069 10.1614 141.069 10.5059 141.069 10.8503C140.122 10.8503 139.175 10.8503 138.227 10.8503C138.096 9.73607 138.268 8.70271 138.744 7.75024Z" fill="white"/>
<path opacity="0.932" fill-rule="evenodd" clip-rule="evenodd" d="M40.3169 11.6252C41.0059 11.6252 41.6946 11.6252 42.3836 11.6252C42.3836 13.003 42.3836 14.3809 42.3836 15.7587C45.5857 15.6507 48.7718 15.7798 51.9421 16.1462C52.5665 16.5758 53.0401 17.1354 53.363 17.8254C53.4919 18.8551 53.5351 19.8885 53.4922 20.9254C56.8506 20.9254 60.209 20.9254 63.5674 20.9254C63.5674 19.2031 63.5674 17.481 63.5674 15.7587C64.2564 15.7587 64.9451 15.7587 65.6341 15.7587C65.6341 17.481 65.6341 19.2031 65.6341 20.9254C69.0785 20.9254 72.5232 20.9254 75.9676 20.9254C75.9676 19.2031 75.9676 17.481 75.9676 15.7587C77.8641 15.7158 79.7585 15.7587 81.6511 15.8878C83.088 16.2146 83.9059 17.1188 84.1053 18.6004C84.2342 19.9755 84.2774 21.3533 84.2345 22.7338C56.1616 22.7338 28.0889 22.7338 0.0160373 22.7338C-0.0268469 21.2675 0.0162956 19.8035 0.145207 18.3421C0.446688 17.0072 1.26459 16.1893 2.59943 15.8878C4.40573 15.7587 6.2141 15.7158 8.02454 15.7587C8.02454 17.2227 8.02454 18.6864 8.02454 20.1504C7.33555 20.1504 6.64682 20.1504 5.95783 20.1504C5.95783 19.3754 5.95783 18.6004 5.95783 17.8254C3.28351 17.218 1.99181 18.2514 2.08275 20.9254C7.93851 20.9254 13.794 20.9254 19.6498 20.9254C19.3674 19.193 19.7981 17.6861 20.9415 16.4045C21.3515 16.1818 21.7821 16.0095 22.2332 15.8878C24.0395 15.7587 25.8479 15.7158 27.6583 15.7587C27.6583 17.481 27.6583 19.2031 27.6583 20.9254C31.8777 20.9254 36.0974 20.9254 40.3169 20.9254C40.3169 17.8254 40.3169 14.7253 40.3169 11.6252ZM23.0082 17.8254C23.8692 17.8254 24.7305 17.8254 25.5916 17.8254C25.5916 18.8587 25.5916 19.8921 25.5916 20.9254C24.2999 20.9254 23.0082 20.9254 21.7165 20.9254C21.5525 19.6007 21.9831 18.5673 23.0082 17.8254ZM42.3836 17.8254C45.0546 17.7825 47.724 17.8254 50.3921 17.9545C51.3257 18.7151 51.6701 19.7053 51.4255 20.9254C48.4114 20.9254 45.3976 20.9254 42.3836 20.9254C42.3836 19.8921 42.3836 18.8587 42.3836 17.8254ZM78.2927 17.8254C81.0011 17.1912 82.2068 18.2245 81.9094 20.9254C80.7038 20.9254 79.4984 20.9254 78.2927 20.9254C78.2927 19.8921 78.2927 18.8587 78.2927 17.8254Z" fill="white"/>
<path opacity="0.907" fill-rule="evenodd" clip-rule="evenodd" d="M116.01 11.6252C116.785 11.6252 117.56 11.6252 118.335 11.6252C118.252 14.6171 118.338 17.588 118.594 20.5379C121.76 20.9097 124.946 21.0389 128.152 20.9254C128.152 19.2031 128.152 17.481 128.152 15.7587C129.963 15.7158 131.771 15.7587 133.577 15.8878C134.8 16.1637 135.619 16.8956 136.031 18.0837C136.16 19.6314 136.204 21.1815 136.161 22.7338C129.851 22.8578 123.565 22.7286 117.302 22.3463C116.472 21.6408 116.085 20.7366 116.139 19.6337C116.01 16.9656 115.967 14.2962 116.01 11.6252ZM130.219 17.8254C132.893 17.218 134.185 18.2514 134.094 20.9254C132.802 20.9254 131.511 20.9254 130.219 20.9254C130.219 19.8921 130.219 18.8587 130.219 17.8254Z" fill="white"/>
<path opacity="0.912" fill-rule="evenodd" clip-rule="evenodd" d="M138.228 11.6252C138.917 11.6252 139.605 11.6252 140.294 11.6252C140.294 15.328 140.294 19.031 140.294 22.7338C139.605 22.7338 138.917 22.7338 138.228 22.7338C138.228 19.031 138.228 15.328 138.228 11.6252Z" fill="white"/>
<path opacity="0.778" fill-rule="evenodd" clip-rule="evenodd" d="M2.59931 11.8835C4.08812 11.9566 4.51877 12.6885 3.89101 14.0794C1.88966 14.2523 1.459 13.5204 2.59931 11.8835Z" fill="white"/>
<path opacity="0.757" fill-rule="evenodd" clip-rule="evenodd" d="M5.183 11.8835C6.86737 11.9397 7.29802 12.6717 6.47469 14.0794C4.59838 14.2915 4.16798 13.5595 5.183 11.8835Z" fill="white"/>
<path opacity="0.755" fill-rule="evenodd" clip-rule="evenodd" d="M21.975 11.8835C23.6521 11.9244 24.0825 12.6564 23.2667 14.0794C21.3904 14.2915 20.96 13.5595 21.975 11.8835Z" fill="white"/>
<path opacity="0.779" fill-rule="evenodd" clip-rule="evenodd" d="M24.8168 11.8835C26.4058 12.0393 26.7502 12.7712 25.8501 14.0794C24.4293 14.3809 23.8695 13.8211 24.1709 12.4002C24.428 12.254 24.6432 12.0818 24.8168 11.8835Z" fill="white"/>
<path opacity="0.77" fill-rule="evenodd" clip-rule="evenodd" d="M64.0836 11.8835C65.5724 11.9566 66.0031 12.6885 65.3753 14.0794C64.2799 14.477 63.591 14.1326 63.3086 13.0461C63.5191 12.6215 63.7775 12.234 64.0836 11.8835Z" fill="white"/>
<path opacity="0.766" fill-rule="evenodd" clip-rule="evenodd" d="M92.5014 11.8835C94.0904 12.0393 94.4348 12.7712 93.5347 14.0794C92.1139 14.3809 91.554 13.8211 91.8555 12.4002C92.1126 12.254 92.3278 12.0818 92.5014 11.8835Z" fill="white"/>
<path opacity="0.757" fill-rule="evenodd" clip-rule="evenodd" d="M95.0848 11.8835C96.5736 11.9566 97.0043 12.6885 96.3765 14.0794C94.2281 14.2959 93.7975 13.5638 95.0848 11.8835Z" fill="white"/>
<path opacity="0.759" fill-rule="evenodd" clip-rule="evenodd" d="M112.394 11.8835C113.901 12.0987 114.245 12.8307 113.427 14.0794C111.834 14.553 111.274 13.9934 111.748 12.4002C112.005 12.254 112.22 12.0818 112.394 11.8835Z" fill="white"/>
<path opacity="0.966" fill-rule="evenodd" clip-rule="evenodd" d="M175.686 11.8835C181.636 16.7561 186.716 22.3964 190.928 28.8047C186.892 35.7858 184.051 43.2345 182.403 51.151C178.345 41.3499 173.006 32.351 166.386 24.1546C168.844 19.5857 171.944 15.4954 175.686 11.8835Z" fill="white"/>
<path opacity="0.966" fill-rule="evenodd" clip-rule="evenodd" d="M211.595 11.8835C215.511 15.4112 218.697 19.5014 221.154 24.1546C214.534 32.351 209.194 41.3499 205.137 51.151C203.487 43.2293 200.645 35.7807 196.611 28.8047C198.346 26.0356 200.283 23.4093 202.424 20.9254C205.282 17.6794 208.339 14.6653 211.595 11.8835Z" fill="white"/>
<path opacity="0.92" fill-rule="evenodd" clip-rule="evenodd" d="M92.5011 15.7588C94.3095 15.7588 96.1178 15.7588 97.9262 15.7588C97.9262 17.2228 97.9262 18.6865 97.9262 20.1505C97.1512 20.1505 96.3762 20.1505 95.6012 20.1505C95.6012 19.3755 95.6012 18.6005 95.6012 17.8255C93.018 17.3109 91.8124 18.3442 91.9844 20.9256C98.5289 20.9256 105.074 20.9256 111.618 20.9256C111.618 19.2032 111.618 17.4811 111.618 15.7588C112.307 15.7588 112.996 15.7588 113.685 15.7588C113.685 18.0838 113.685 20.4089 113.685 22.7339C105.676 22.7339 97.6679 22.7339 89.6594 22.7339C89.6108 21.0837 89.74 19.4474 90.0469 17.8255C90.5641 16.734 91.3822 16.0453 92.5011 15.7588Z" fill="white"/>
<path opacity="0.961" fill-rule="evenodd" clip-rule="evenodd" d="M163.803 28.9338C171.775 38.2878 177.286 49.0088 180.336 61.097C180.25 61.3122 180.164 61.5277 180.078 61.7429C171.885 59.2682 165.039 54.7905 159.54 48.3092C160.021 41.6488 161.442 35.1903 163.803 28.9338Z" fill="white"/>
<path opacity="0.96" fill-rule="evenodd" clip-rule="evenodd" d="M223.221 28.9339C223.479 28.9262 223.65 29.0553 223.738 29.3214C226.161 35.4363 227.582 41.7656 228 48.3093C222.5 54.7905 215.655 59.2683 207.462 61.743C207.376 61.5278 207.29 61.3123 207.204 61.0971C209.282 52.7657 212.598 44.9724 217.15 37.7174C219.237 34.8158 221.26 31.888 223.221 28.9339Z" fill="white"/>
<path opacity="0.872" fill-rule="evenodd" clip-rule="evenodd" d="M57.884 30.2256C58.659 30.2256 59.434 30.2256 60.209 30.2256C60.209 33.9284 60.209 37.6314 60.209 41.3342C48.2394 41.3342 36.2695 41.3342 24.2999 41.3342C24.412 42.8503 23.8954 44.0989 22.7499 45.0801C21.0578 45.4469 19.3357 45.5761 17.5831 45.4676C17.5831 44.7786 17.5831 44.0899 17.5831 43.4009C18.8777 43.4437 20.1694 43.4006 21.4582 43.2717C21.9431 42.7225 22.2014 42.0766 22.2332 41.3342C20.2525 41.3342 18.2721 41.3342 16.2914 41.3342C16.2485 39.7818 16.2917 38.2318 16.4206 36.6841C16.8081 35.6076 17.54 34.8757 18.6165 34.4882C20.5091 34.359 22.4035 34.3161 24.2999 34.359C24.2999 35.9951 24.2999 37.6314 24.2999 39.2674C26.9693 39.2674 29.639 39.2674 32.3084 39.2674C32.3084 37.6314 32.3084 35.9951 32.3084 34.359C32.9974 34.359 33.6862 34.359 34.3751 34.359C34.3751 35.9951 34.3751 37.6314 34.3751 39.2674C36.8725 39.2674 39.3696 39.2674 41.867 39.2674C41.867 37.6314 41.867 35.9951 41.867 34.359C43.7634 34.3161 45.6578 34.359 47.5504 34.4882C48.6861 34.6768 49.4182 35.3226 49.7463 36.4257C49.9881 37.3594 50.1173 38.3064 50.1338 39.2674C52.7172 39.2674 55.3006 39.2674 57.884 39.2674C57.884 36.2534 57.884 33.2396 57.884 30.2256ZM19.6498 36.4257C20.5109 36.4257 21.3722 36.4257 22.2332 36.4257C22.2332 37.373 22.2332 38.3201 22.2332 39.2674C20.9415 39.2674 19.6498 39.2674 18.3581 39.2674C18.2486 38.0352 18.6793 37.0878 19.6498 36.4257ZM44.192 36.4257C46.7367 35.7941 47.9423 36.7414 47.8088 39.2674C46.6031 39.2674 45.3977 39.2674 44.192 39.2674C44.192 38.3201 44.192 37.373 44.192 36.4257Z" fill="white"/>
<path opacity="0.912" fill-rule="evenodd" clip-rule="evenodd" d="M62.5342 30.2256C63.2232 30.2256 63.9119 30.2256 64.6009 30.2256C64.6009 33.9284 64.6009 37.6314 64.6009 41.3342C63.9119 41.3342 63.2232 41.3342 62.5342 41.3342C62.5342 37.6314 62.5342 33.9284 62.5342 30.2256Z" fill="white"/>
<path opacity="0.859" fill-rule="evenodd" clip-rule="evenodd" d="M133.578 30.2256C134.353 30.2256 135.128 30.2256 135.903 30.2256C135.903 33.9284 135.903 37.6314 135.903 41.3342C124.363 41.3342 112.824 41.3342 101.285 41.3342C101.285 40.6452 101.285 39.9564 101.285 39.2674C103.438 39.2674 105.591 39.2674 107.744 39.2674C107.694 38.3671 107.436 37.5492 106.969 36.8132C105.536 36.4505 104.073 36.3213 102.577 36.4257C102.577 35.7367 102.577 35.048 102.577 34.359C104.215 34.3161 105.851 34.359 107.485 34.4882C108.373 34.7736 109.019 35.3335 109.423 36.1674C109.721 37.1796 109.851 38.2129 109.81 39.2674C112.308 39.2674 114.805 39.2674 117.302 39.2674C117.302 37.6314 117.302 35.9951 117.302 34.359C119.199 34.3161 121.093 34.359 122.986 34.4882C124.121 34.6768 124.853 35.3226 125.181 36.4257C125.468 37.3521 125.597 38.2994 125.569 39.2674C128.238 39.2674 130.908 39.2674 133.578 39.2674C133.578 36.2534 133.578 33.2396 133.578 30.2256ZM119.627 36.4257C122.172 35.7941 123.378 36.7414 123.244 39.2674C122.038 39.2674 120.833 39.2674 119.627 39.2674C119.627 38.3201 119.627 37.373 119.627 36.4257Z" fill="white"/>
<path opacity="0.912" fill-rule="evenodd" clip-rule="evenodd" d="M138.228 30.2256C138.917 30.2256 139.605 30.2256 140.294 30.2256C140.294 33.9284 140.294 37.6314 140.294 41.3342C139.605 41.3342 138.917 41.3342 138.228 41.3342C138.228 37.6314 138.228 33.9284 138.228 30.2256Z" fill="white"/>
<path opacity="0.778" fill-rule="evenodd" clip-rule="evenodd" d="M2.59901 30.4839C4.21286 30.5771 4.64351 31.309 3.89071 32.6798C2.01439 32.8919 1.584 32.16 2.59901 30.4839Z" fill="white"/>
<path opacity="0.767" fill-rule="evenodd" clip-rule="evenodd" d="M5.1827 30.4841C6.29072 30.2214 6.89342 30.652 6.99107 31.7758C6.50953 32.9145 5.77766 33.0869 4.79519 32.2925C4.58 31.6024 4.70917 30.9997 5.1827 30.4841Z" fill="white"/>
<path opacity="0.77" fill-rule="evenodd" clip-rule="evenodd" d="M32.8246 30.4839C34.4312 30.5671 34.8619 31.2989 34.1163 32.6798C32.24 32.8919 31.8096 32.16 32.8246 30.4839Z" fill="white"/>
<path opacity="0.755" fill-rule="evenodd" clip-rule="evenodd" d="M73.1261 30.4841C74.2341 30.2214 74.8368 30.652 74.9344 31.7758C74.4529 32.9145 73.721 33.0869 72.7386 32.2925C72.5234 31.6024 72.6525 30.9997 73.1261 30.4841Z" fill="white"/>
<path opacity="0.757" fill-rule="evenodd" clip-rule="evenodd" d="M75.7092 30.484C77.514 30.4404 77.9446 31.1722 77.0009 32.6799C75.1708 32.8026 74.7402 32.0707 75.7092 30.484Z" fill="white"/>
<path opacity="0.748" fill-rule="evenodd" clip-rule="evenodd" d="M87.0764 30.484C88.8812 30.4404 89.3118 31.1722 88.3681 32.6799C86.538 32.8026 86.1074 32.0707 87.0764 30.484Z" fill="white"/>
<path opacity="0.966" fill-rule="evenodd" clip-rule="evenodd" d="M193.511 33.5841C193.738 33.5502 193.91 33.6363 194.028 33.8424C198.719 43.0003 201.216 52.7308 201.52 63.0347C196.353 63.7237 191.186 63.7237 186.02 63.0347C186.415 52.6681 188.913 42.8512 193.511 33.5841Z" fill="white"/>
<path opacity="0.878" fill-rule="evenodd" clip-rule="evenodd" d="M2.34109 34.3591C4.23548 34.3591 6.13014 34.3591 8.02454 34.3591C8.02454 35.8231 8.02454 37.2869 8.02454 38.7509C7.33555 38.7509 6.64682 38.7509 5.95783 38.7509C5.95783 37.9759 5.95783 37.2009 5.95783 36.4258C3.44445 35.8234 2.15276 36.7707 2.08275 39.2676C4.06343 39.2676 6.04386 39.2676 8.02454 39.2676C8.02454 39.9566 8.02454 40.6453 8.02454 41.3343C5.35512 41.3343 2.68545 41.3343 0.0160373 41.3343C-0.0268469 39.8679 0.0162956 38.4039 0.145207 36.9425C0.470972 35.7141 1.2031 34.8531 2.34109 34.3591Z" fill="white"/>
<path opacity="0.876" fill-rule="evenodd" clip-rule="evenodd" d="M11.6415 34.3591C12.3305 34.3591 13.0193 34.3591 13.7082 34.3591C13.8214 37.4788 13.6922 40.5789 13.3207 43.6593C12.2559 45.2876 10.749 45.8903 8.7998 45.4677C8.7998 44.7787 8.7998 44.09 8.7998 43.401C10.2346 43.7621 11.1388 43.2455 11.5124 41.851C11.6415 39.3551 11.6844 36.8578 11.6415 34.3591Z" fill="white"/>
<path opacity="0.868" fill-rule="evenodd" clip-rule="evenodd" d="M73.1263 34.3591C75.0207 34.3591 76.9153 34.3591 78.8097 34.3591C78.8097 35.8231 78.8097 37.2869 78.8097 38.7509C78.0347 38.7509 77.2597 38.7509 76.4847 38.7509C76.4847 37.9759 76.4847 37.2009 76.4847 36.4258C73.94 35.7942 72.7344 36.7415 72.8679 39.2676C77.432 39.2676 81.9958 39.2676 86.5599 39.2676C86.5599 37.6315 86.5599 35.9952 86.5599 34.3591C87.2489 34.3591 87.9376 34.3591 88.6266 34.3591C88.6266 35.9952 88.6266 37.6315 88.6266 39.2676C91.5543 39.2676 94.4824 39.2676 97.4101 39.2676C97.4101 37.6315 97.4101 35.9952 97.4101 34.3591C98.0991 34.3591 98.7878 34.3591 99.4768 34.3591C99.4768 36.6842 99.4768 39.0092 99.4768 41.3343C89.8323 41.3343 80.1874 41.3343 70.5429 41.3343C70.4579 39.5928 70.5871 37.8705 70.9304 36.1675C71.4086 35.2228 72.1404 34.6201 73.1263 34.3591Z" fill="white"/>
<path opacity="0.778" fill-rule="evenodd" clip-rule="evenodd" d="M95.6016 42.3677C96.7071 42.0975 97.3958 42.485 97.6683 43.5302C97.2046 44.7328 96.4727 44.9482 95.4725 44.1761C95.2908 43.5486 95.3337 42.9458 95.6016 42.3677Z" fill="white"/>
<path opacity="0.778" fill-rule="evenodd" clip-rule="evenodd" d="M98.4429 42.3675C100.18 42.2911 100.611 42.9801 99.7346 44.4343C97.9027 44.7006 97.472 44.0116 98.4429 42.3675Z" fill="white"/>
<path opacity="0.78" fill-rule="evenodd" clip-rule="evenodd" d="M0.015625 50.8927C0.641838 50.8131 1.24454 50.8994 1.824 51.151C2.43238 52.9348 3.16426 54.6572 4.01988 56.3178C4.64041 54.5856 5.28625 52.8633 5.95742 51.151C6.53687 50.8994 7.13958 50.8131 7.76579 50.8927C7.76579 53.3037 7.76579 55.7151 7.76579 58.1261C7.42142 58.1261 7.0768 58.1261 6.73243 58.1261C6.77532 56.3157 6.73243 54.5073 6.60326 52.701C5.91427 54.4234 5.22554 56.1455 4.53655 57.8678C4.09764 58.1019 3.62384 58.1879 3.11569 58.1261C2.60005 56.2777 1.9542 54.4694 1.17815 52.701C1.04898 54.5073 1.0061 56.3157 1.04898 58.1261C0.704615 58.1261 0.359991 58.1261 0.015625 58.1261C0.015625 55.7151 0.015625 53.3037 0.015625 50.8927Z" fill="white"/>
<path opacity="0.75" fill-rule="evenodd" clip-rule="evenodd" d="M18.1 50.8928C18.4443 50.8928 18.789 50.8928 19.1333 50.8928C19.1333 53.3039 19.1333 55.7152 19.1333 58.1263C18.6781 58.1633 18.2475 58.077 17.8416 57.868C16.2188 58.6903 15.0562 58.2599 14.3541 56.5763C14.1151 55.4076 14.3303 54.3311 14.9999 53.347C16.0382 52.789 17.0286 52.8319 17.9708 53.4762C18.0995 52.6193 18.1426 51.7583 18.1 50.8928ZM16.2916 53.7345C17.4438 53.8301 18.0465 54.476 18.1 55.6721C17.7579 57.4665 16.9398 57.768 15.6458 56.5763C15.3388 55.4807 15.554 54.5333 16.2916 53.7345Z" fill="white"/>
<path opacity="0.646" fill-rule="evenodd" clip-rule="evenodd" d="M20.4248 50.8928C20.8555 50.8928 21.2858 50.8928 21.7165 50.8928C21.7165 51.2372 21.7165 51.5818 21.7165 51.9262C21.2858 51.9262 20.8555 51.9262 20.4248 51.9262C20.4248 51.5818 20.4248 51.2372 20.4248 50.8928Z" fill="white"/>
<path opacity="0.8" fill-rule="evenodd" clip-rule="evenodd" d="M34.1172 50.8928C34.4616 50.8928 34.8062 50.8928 35.1505 50.8928C35.1079 51.7583 35.1511 52.6193 35.2797 53.4762C36.3826 52.7314 37.4159 52.8174 38.3798 53.7345C38.5087 55.196 38.5518 56.66 38.5089 58.1263C38.1646 58.1263 37.82 58.1263 37.4756 58.1263C37.5185 56.9175 37.4753 55.7121 37.3464 54.5096C36.8892 54.0141 36.3293 53.8849 35.6672 54.1221C35.5055 54.3158 35.3763 54.5313 35.2797 54.7679C35.1508 55.8842 35.1077 57.0036 35.1505 58.1263C34.8062 58.1263 34.4616 58.1263 34.1172 58.1263C34.1172 55.7152 34.1172 53.3039 34.1172 50.8928Z" fill="white"/>
<path opacity="0.783" fill-rule="evenodd" clip-rule="evenodd" d="M42.9004 50.8927C44.1949 50.8499 45.4866 50.893 46.7755 51.0219C47.8236 51.5249 48.2111 52.3431 47.938 53.4761C47.8088 53.9497 47.5073 54.2512 47.0338 54.3803C47.249 54.5955 47.4645 54.811 47.6797 55.0262C47.8091 56.0621 47.9383 57.0955 48.0672 58.1262C47.6365 58.1262 47.2061 58.1262 46.7755 58.1262C46.7029 57.1735 46.5737 56.2262 46.388 55.2845C45.5982 55.0388 44.7803 54.9528 43.9337 55.0262C43.9337 56.0595 43.9337 57.0929 43.9337 58.1262C43.5894 58.1262 43.2448 58.1262 42.9004 58.1262C42.9004 55.7152 42.9004 53.3038 42.9004 50.8927ZM43.9337 51.9261C44.7134 51.8835 45.4884 51.9266 46.2588 52.0553C47.0005 52.789 46.9142 53.3919 46.0005 53.8636C45.3169 53.992 44.6279 54.0352 43.9337 53.9928C43.9337 53.3038 43.9337 52.6151 43.9337 51.9261Z" fill="white"/>
<path opacity="0.646" fill-rule="evenodd" clip-rule="evenodd" d="M60.4668 50.8928C60.8974 50.8928 61.3278 50.8928 61.7585 50.8928C61.7585 51.2372 61.7585 51.5818 61.7585 51.9262C61.3278 51.9262 60.8974 51.9262 60.4668 51.9262C60.4668 51.5818 60.4668 51.2372 60.4668 50.8928Z" fill="white"/>
<path opacity="0.826" fill-rule="evenodd" clip-rule="evenodd" d="M79.8428 50.8928C80.1871 50.8928 80.5318 50.8928 80.8761 50.8928C80.8761 53.3039 80.8761 55.7152 80.8761 58.1263C80.5318 58.1263 80.1871 58.1263 79.8428 58.1263C79.8428 55.7152 79.8428 53.3039 79.8428 50.8928Z" fill="white"/>
<path opacity="0.778" fill-rule="evenodd" clip-rule="evenodd" d="M85.2676 50.8927C85.8938 50.8131 86.4965 50.8994 87.0759 51.151C87.7848 52.8927 88.517 54.6148 89.2718 56.3178C90.0479 54.5494 90.6937 52.7411 91.2094 50.8927C91.8121 50.8927 92.415 50.8927 93.0177 50.8927C93.0177 53.3037 93.0177 55.7151 93.0177 58.1261C92.6734 58.1261 92.3288 58.1261 91.9844 58.1261C92.0273 56.3157 91.9844 54.5073 91.8552 52.701C91.1812 54.5086 90.5354 56.317 89.9177 58.1261C89.4095 58.1879 88.9357 58.1019 88.4968 57.8678C87.7572 56.0796 87.0682 54.2712 86.4301 52.4427C86.3009 54.3353 86.258 56.2297 86.3009 58.1261C85.9566 58.1261 85.6119 58.1261 85.2676 58.1261C85.2676 55.7151 85.2676 53.3037 85.2676 50.8927Z" fill="white"/>
<path opacity="0.808" fill-rule="evenodd" clip-rule="evenodd" d="M106.193 50.8928C106.538 50.8928 106.882 50.8928 107.227 50.8928C107.227 51.2372 107.227 51.5818 107.227 51.9262C106.882 51.9262 106.538 51.9262 106.193 51.9262C106.193 51.5818 106.193 51.2372 106.193 50.8928Z" fill="white"/>
<path opacity="0.646" fill-rule="evenodd" clip-rule="evenodd" d="M113.686 50.8928C114.116 50.8928 114.547 50.8928 114.977 50.8928C114.977 51.2372 114.977 51.5818 114.977 51.9262C114.547 51.9262 114.116 51.9262 113.686 51.9262C113.686 51.5818 113.686 51.2372 113.686 50.8928Z" fill="white"/>
<path opacity="0.825" fill-rule="evenodd" clip-rule="evenodd" d="M127.636 50.8928C127.98 50.8928 128.325 50.8928 128.669 50.8928C128.669 53.3039 128.669 55.7152 128.669 58.1263C128.325 58.1263 127.98 58.1263 127.636 58.1263C127.636 55.7152 127.636 53.3039 127.636 50.8928Z" fill="white"/>
<path opacity="0.646" fill-rule="evenodd" clip-rule="evenodd" d="M129.96 50.8928C130.391 50.8928 130.821 50.8928 131.252 50.8928C131.252 51.2372 131.252 51.5818 131.252 51.9262C130.821 51.9262 130.391 51.9262 129.96 51.9262C129.96 51.5818 129.96 51.2372 129.96 50.8928Z" fill="white"/>
<path opacity="0.801" fill-rule="evenodd" clip-rule="evenodd" d="M133.319 51.6677C133.772 51.9395 133.945 52.3701 133.835 52.9594C134.18 52.9594 134.524 52.9594 134.869 52.9594C134.869 53.2178 134.869 53.4761 134.869 53.7344C134.524 53.7344 134.18 53.7344 133.835 53.7344C133.792 54.8572 133.836 55.9766 133.964 57.0928C134.315 57.3202 134.702 57.4065 135.127 57.3512C135.127 57.6095 135.127 57.8679 135.127 58.1262C134.365 58.1978 133.634 58.1117 132.931 57.8679C132.802 56.4927 132.759 55.115 132.802 53.7344C132.458 53.7344 132.113 53.7344 131.769 53.7344C131.769 53.4761 131.769 53.2178 131.769 52.9594C132.113 52.9594 132.458 52.9594 132.802 52.9594C132.767 52.4288 132.939 51.9981 133.319 51.6677Z" fill="white"/>
<path opacity="0.731" fill-rule="evenodd" clip-rule="evenodd" d="M10.0914 52.9595C10.8711 52.9169 11.6461 52.96 12.4165 53.0887C12.6252 53.1682 12.7975 53.2974 12.9332 53.4762C13.1055 54.9402 13.2775 56.4039 13.4498 57.8679C12.5981 57.8183 11.7368 57.9906 10.8664 58.3846C9.18053 58.1924 8.62097 57.3314 9.18725 55.8012C10.0467 55.1156 11.0372 54.8573 12.1581 55.0262C12.3312 54.2279 12.0297 53.7973 11.254 53.7345C10.7391 54.2861 10.0932 54.5444 9.31642 54.5095C9.30634 53.8407 9.56468 53.324 10.0914 52.9595ZM10.6081 55.8012C11.1248 55.8012 11.6415 55.8012 12.1581 55.8012C12.2023 57.0914 11.5996 57.5652 10.3498 57.2221C10.025 56.6858 10.1111 56.212 10.6081 55.8012Z" fill="white"/>
<path opacity="0.807" fill-rule="evenodd" clip-rule="evenodd" d="M20.4248 52.9595C20.7692 52.9595 21.1138 52.9595 21.4582 52.9595C21.4582 54.6818 21.4582 56.4039 21.4582 58.1262C21.1138 58.1262 20.7692 58.1262 20.4248 58.1262C20.4248 56.4039 20.4248 54.6818 20.4248 52.9595Z" fill="white"/>
<path opacity="0.792" fill-rule="evenodd" clip-rule="evenodd" d="M23.0078 52.9595C23.5118 52.8889 23.8993 53.061 24.1703 53.4761C25.1177 52.7872 26.0647 52.7872 27.0121 53.4761C27.3763 54.9949 27.5055 56.545 27.3996 58.1262C27.0552 58.1262 26.7106 58.1262 26.3662 58.1262C26.4091 57.0035 26.366 55.8841 26.237 54.7678C25.8999 54.0429 25.3401 53.8275 24.5578 54.122C24.3961 54.3157 24.267 54.5312 24.1703 54.7678C24.0414 55.8841 23.9983 57.0035 24.0412 58.1262C23.6968 58.1262 23.3522 58.1262 23.0078 58.1262C23.0078 56.4039 23.0078 54.6818 23.0078 52.9595Z" fill="white"/>
<path opacity="0.726" fill-rule="evenodd" clip-rule="evenodd" d="M29.4671 52.9593C30.5222 52.8413 31.5124 53.0136 32.438 53.476C32.5674 55.0279 32.6966 56.5779 32.8255 58.1261C31.9627 57.8401 31.1016 57.9264 30.2421 58.3845C28.5937 58.2416 28.0338 57.3803 28.5629 55.8011C28.7962 55.4908 29.0974 55.2754 29.4671 55.1552C30.2421 55.0692 31.0171 54.9829 31.7922 54.8969C31.6136 54.6212 31.4845 54.3198 31.4047 53.9927C31.2174 53.8483 31.0022 53.7623 30.7588 53.7344C30.1667 54.2379 29.4777 54.4962 28.6921 54.5094C28.7218 53.8772 28.9801 53.3605 29.4671 52.9593ZM29.9838 55.8011C30.5005 55.8011 31.0171 55.8011 31.5338 55.8011C31.578 57.0912 30.9753 57.565 29.7254 57.2219C29.4007 56.6856 29.4867 56.2118 29.9838 55.8011Z" fill="white"/>
<path opacity="0.707" fill-rule="evenodd" clip-rule="evenodd" d="M50.392 52.9594C52.5367 52.522 53.6561 53.3833 53.7504 55.5427C52.5568 55.7993 51.3514 55.8856 50.1336 55.8011C50.092 56.6735 50.4795 57.1902 51.2962 57.3511C51.988 56.9044 52.7201 56.5601 53.492 56.3178C53.2758 57.9618 52.3285 58.6077 50.6503 58.2553C49.4839 57.8252 48.8812 56.9639 48.8419 55.6719C48.8135 54.4244 49.3302 53.5202 50.392 52.9594ZM50.9086 53.7344C51.6847 53.6917 52.2014 54.0361 52.4587 54.7677C51.6837 55.1121 50.9086 55.1121 50.1336 54.7677C50.3982 54.4184 50.6565 54.0741 50.9086 53.7344Z" fill="white"/>
<path opacity="0.718" fill-rule="evenodd" clip-rule="evenodd" d="M55.559 52.9596C56.465 52.8288 57.2832 53.0009 58.0132 53.4762C58.2842 53.0611 58.6717 52.889 59.1758 52.9596C59.2186 54.856 59.1758 56.7504 59.0466 58.643C58.408 60.0073 57.3315 60.4808 55.8174 60.0639C54.9248 59.8761 54.4944 59.3165 54.5257 58.3847C54.8804 58.3441 55.225 58.3873 55.559 58.5138C56.6975 59.6728 57.5586 59.4576 58.1424 57.868C55.2345 58.7879 53.986 57.6683 54.3965 54.5096C54.6042 53.826 54.9917 53.3093 55.559 52.9596ZM56.334 53.7346C58.0339 54.2086 58.4643 55.242 57.6257 56.8346C56.8915 57.5536 56.2457 57.4676 55.6882 56.5763C55.3813 55.4807 55.5965 54.5334 56.334 53.7346Z" fill="white"/>
<path opacity="0.646" fill-rule="evenodd" clip-rule="evenodd" d="M60.4668 52.9595C60.8974 52.9595 61.3278 52.9595 61.7585 52.9595C61.7585 54.6818 61.7585 56.4039 61.7585 58.1262C61.3278 58.1262 60.8974 58.1262 60.4668 58.1262C60.4668 56.4039 60.4668 54.6818 60.4668 52.9595Z" fill="white"/>
<path opacity="0.709" fill-rule="evenodd" clip-rule="evenodd" d="M64.0838 52.9594C67.0966 52.5711 68.2591 53.8628 67.5714 56.8345C66.1234 58.7464 64.5734 58.8325 62.9213 57.0928C62.1925 55.3648 62.58 53.9871 64.0838 52.9594ZM64.8588 53.7344C65.8777 53.892 66.4804 54.4947 66.6672 55.5428C66.4828 56.1398 66.2244 56.6996 65.8922 57.222C64.1915 57.3256 63.5457 56.5077 63.9546 54.7678C64.1329 54.2898 64.4341 53.9452 64.8588 53.7344Z" fill="white"/>
<path opacity="0.781" fill-rule="evenodd" clip-rule="evenodd" d="M68.7344 52.9595C69.2384 52.8889 69.6259 53.061 69.8969 53.4761C70.9997 52.7314 72.0331 52.8174 72.997 53.7345C73.1259 55.1959 73.169 56.6599 73.1261 58.1262C72.7818 58.1262 72.4371 58.1262 72.0928 58.1262C72.1357 56.9175 72.0925 55.7121 71.9636 54.5095C71.07 53.773 70.3813 53.9453 69.8969 55.0262C69.768 56.0559 69.7248 57.0893 69.7677 58.1262C69.4234 58.1262 69.0787 58.1262 68.7344 58.1262C68.7344 56.4039 68.7344 54.6818 68.7344 52.9595Z" fill="white"/>
<path opacity="0.701" fill-rule="evenodd" clip-rule="evenodd" d="M75.4514 52.9595C76.231 52.9169 77.0061 52.96 77.7764 53.0887C77.9056 53.2178 78.0348 53.347 78.1639 53.4762C78.5282 54.9949 78.6574 56.545 78.5514 58.1263C77.6886 57.8403 76.8275 57.9266 75.968 58.3846C74.1129 58.0229 73.6825 57.0325 74.6764 55.4137C75.6061 55.1518 76.5532 54.9366 77.5181 54.7679C77.3992 54.1773 77.0549 53.8329 76.4847 53.7345C76.0122 53.9838 75.5387 54.2421 75.0639 54.5095C74.8487 54.4235 74.6332 54.3372 74.418 54.2512C74.5885 53.6531 74.9329 53.2227 75.4514 52.9595ZM75.968 55.8012C77.4793 55.5801 77.824 56.0539 77.0014 57.2221C76.0029 57.5706 75.4431 57.2691 75.3222 56.3179C75.5792 56.1717 75.7944 55.9994 75.968 55.8012Z" fill="white"/>
<path opacity="0.785" fill-rule="evenodd" clip-rule="evenodd" d="M94.5681 52.9595C94.9125 52.9595 95.2571 52.9595 95.6015 52.9595C95.5586 54.1682 95.6018 55.3736 95.7307 56.5762C96.5439 57.6561 97.2327 57.57 97.7974 56.3179C97.9263 55.2016 97.9694 54.0822 97.9265 52.9595C98.2709 52.9595 98.6155 52.9595 98.9599 52.9595C98.9599 54.6818 98.9599 56.4039 98.9599 58.1262C97.7927 58.0637 96.5873 58.0208 95.3432 57.9971C95.1344 57.9175 94.9621 57.7883 94.8265 57.6096C94.5793 56.0753 94.4932 54.5253 94.5681 52.9595Z" fill="white"/>
<path opacity="0.673" fill-rule="evenodd" clip-rule="evenodd" d="M100.252 52.9595C101.169 53.1873 102.073 53.1873 102.965 52.9595C103.549 52.9437 104.065 53.116 104.515 53.4762C104.866 55.0022 104.995 56.5522 104.902 58.1263C104.471 58.1263 104.041 58.1263 103.61 58.1263C103.653 56.8317 103.61 55.54 103.481 54.2512C102.684 53.8068 102.081 53.9791 101.673 54.7679C101.544 55.8841 101.501 57.0035 101.544 58.1263C101.113 58.1263 100.683 58.1263 100.252 58.1263C100.252 56.4039 100.252 54.6818 100.252 52.9595Z" fill="white"/>
<path opacity="0.808" fill-rule="evenodd" clip-rule="evenodd" d="M106.193 52.9595C106.538 52.9595 106.882 52.9595 107.227 52.9595C107.227 54.6818 107.227 56.4039 107.227 58.1262C106.882 58.1262 106.538 58.1262 106.193 58.1262C106.193 56.4039 106.193 54.6818 106.193 52.9595Z" fill="white"/>
<path opacity="0.699" fill-rule="evenodd" clip-rule="evenodd" d="M109.552 52.9595C110.417 52.9169 111.278 52.96 112.135 53.0887C112.76 53.4785 113.019 54.0381 112.91 54.7679C112.136 54.6023 111.447 54.2576 110.844 53.7345C109.913 53.9763 109.483 54.5793 109.552 55.5429C109.414 56.964 110.017 57.5236 111.36 57.2221C111.684 56.5866 112.201 56.2851 112.91 56.3179C112.824 57.652 112.092 58.341 110.714 58.3846C108.61 57.9483 107.835 56.6566 108.389 54.5095C108.597 53.826 108.985 53.3093 109.552 52.9595Z" fill="white"/>
<path opacity="0.808" fill-rule="evenodd" clip-rule="evenodd" d="M113.943 52.9595C114.288 52.9595 114.632 52.9595 114.977 52.9595C114.977 54.6818 114.977 56.4039 114.977 58.1262C114.632 58.1262 114.288 58.1262 113.943 58.1262C113.943 56.4039 113.943 54.6818 113.943 52.9595Z" fill="white"/>
<path opacity="0.711" fill-rule="evenodd" clip-rule="evenodd" d="M116.269 52.9595C116.773 52.8889 117.16 53.061 117.431 53.4761C118.617 52.7355 119.736 52.8215 120.789 53.7345C121.449 55.3104 121.234 56.7312 120.144 57.9971C119.284 58.5481 118.466 58.505 117.689 57.8679C117.561 58.5515 117.518 59.2405 117.56 59.9346C117.13 59.9346 116.699 59.9346 116.269 59.9346C116.269 57.6096 116.269 55.2845 116.269 52.9595ZM118.335 53.7345C118.979 53.6903 119.453 53.9486 119.756 54.5095C119.996 55.4767 119.867 56.3809 119.369 57.2221C118.716 57.4535 118.156 57.3244 117.689 56.8346C117.372 55.656 117.588 54.6227 118.335 53.7345Z" fill="white"/>
<path opacity="0.725" fill-rule="evenodd" clip-rule="evenodd" d="M122.985 52.9595C123.765 52.9169 124.54 52.96 125.31 53.0887C125.519 53.1682 125.691 53.2974 125.827 53.4762C125.999 54.9402 126.171 56.4039 126.343 57.8679C125.492 57.8183 124.63 57.9906 123.76 58.3846C121.567 57.8387 121.222 56.7625 122.727 55.1554C123.497 55.0267 124.272 54.9836 125.052 55.0262C125.225 54.2279 124.923 53.7973 124.148 53.7345C123.633 54.2861 122.987 54.5444 122.21 54.5095C122.2 53.8407 122.458 53.324 122.985 52.9595ZM123.502 55.8012C124.018 55.8012 124.535 55.8012 125.052 55.8012C125.096 57.0914 124.493 57.5652 123.243 57.2221C122.919 56.6858 123.005 56.212 123.502 55.8012Z" fill="white"/>
<path opacity="0.808" fill-rule="evenodd" clip-rule="evenodd" d="M129.96 52.9595C130.304 52.9595 130.649 52.9595 130.993 52.9595C130.993 54.6818 130.993 56.4039 130.993 58.1262C130.649 58.1262 130.304 58.1262 129.96 58.1262C129.96 56.4039 129.96 54.6818 129.96 52.9595Z" fill="white"/>
<path opacity="0.71" fill-rule="evenodd" clip-rule="evenodd" d="M135.127 52.9595C135.589 52.8859 136.02 52.9719 136.419 53.2179C136.867 54.3479 137.341 55.4672 137.84 56.5763C138.27 55.4569 138.701 54.3373 139.131 53.2179C139.482 52.9905 139.869 52.9043 140.294 52.9595C139.504 55.1133 138.686 57.2661 137.84 59.418C137.454 59.9502 136.98 60.0362 136.419 59.6764C136.677 59.1597 136.935 58.643 137.194 58.1263C136.452 56.4184 135.763 54.6961 135.127 52.9595Z" fill="white"/>
</svg>
