<svg width="50" height="50" viewBox="0 0 50 50" fill="none" xmlns="http://www.w3.org/2000/svg">
<circle cx="25" cy="25" r="24.5" transform="matrix(-1 0 0 1 50 0)" fill="white" stroke="#046E62"/>
<path d="M20.3365 16.5678L20.3356 16.5687C20.3141 16.5901 20.2971 16.6155 20.2854 16.6436C20.2738 16.6716 20.2678 16.7016 20.2678 16.732C20.2678 16.7623 20.2738 16.7924 20.2854 16.8204C20.2971 16.8484 20.3141 16.8739 20.3356 16.8953L20.336 16.8957L28.5883 25.1466L28.942 25.5002L28.5883 25.8538L20.336 34.1046C20.336 34.1046 20.336 34.1046 20.336 34.1046C20.2926 34.1481 20.2682 34.207 20.2682 34.2684C20.2682 34.3298 20.2926 34.3887 20.336 34.4322C20.3795 34.4756 20.4384 34.5 20.4998 34.5C20.5612 34.5 20.6201 34.4756 20.6636 34.4322L29.4318 25.664L29.4322 25.6635C29.4537 25.6421 29.4708 25.6166 29.4824 25.5886C29.494 25.5606 29.5 25.5305 29.5 25.5002C29.5 25.4698 29.494 25.4398 29.4824 25.4118C29.4708 25.3838 29.4537 25.3583 29.4322 25.3369L29.4318 25.3364L20.6636 16.5682L20.6631 16.5678C20.6417 16.5463 20.6162 16.5292 20.5882 16.5176L20.7796 16.0564L20.5882 16.5176C20.5602 16.506 20.5301 16.5 20.4998 16.5C20.4695 16.5 20.4394 16.506 20.4114 16.5176C20.3834 16.5292 20.3579 16.5463 20.3365 16.5678Z" fill="#1C2B38" stroke="#046E62"/>
</svg>
