<svg width="15" height="17" viewBox="0 0 15 17" fill="none" xmlns="http://www.w3.org/2000/svg">
<path d="M4.25351 1.39506C4.25351 0.667956 4.82557 0.0790329 5.53186 0.0790329C6.23814 0.0790329 6.8102 0.667956 6.8102 1.39506V6.27095C7.08185 6.02091 7.43979 5.86956 7.83288 5.86956C8.49123 5.86956 9.0537 6.29727 9.27102 6.89607C9.55225 6.59009 9.94854 6.39598 10.3896 6.39598C11.1981 6.39598 11.8597 7.03754 11.9204 7.85348C12.192 7.60014 12.5532 7.4488 12.9463 7.4488C13.7932 7.4488 14.4803 8.15616 14.4803 9.02803V10.6073V11.1337V12.7129C14.4803 15.039 12.649 16.9242 10.3896 16.9242H9.87823H7.83288H7.82968H7.6635C7.5037 16.9242 7.34711 16.9143 7.19371 16.8913C5.4264 16.7071 3.7997 15.7727 2.7195 14.2922L0.418482 11.1337C-0.00656711 10.5513 0.108484 9.72882 0.674151 9.29124C1.23982 8.85366 2.03878 8.9721 2.46383 9.55445L4.25351 12.0121V1.39506ZM7.83288 10.0809C7.83288 9.79133 7.60278 9.55445 7.32154 9.55445C7.04031 9.55445 6.8102 9.79133 6.8102 10.0809V13.2393C6.8102 13.5289 7.04031 13.7657 7.32154 13.7657C7.60278 13.7657 7.83288 13.5289 7.83288 13.2393V10.0809ZM9.36689 9.55445C9.08566 9.55445 8.85555 9.79133 8.85555 10.0809V13.2393C8.85555 13.5289 9.08566 13.7657 9.36689 13.7657C9.64813 13.7657 9.87823 13.5289 9.87823 13.2393V10.0809C9.87823 9.79133 9.64813 9.55445 9.36689 9.55445ZM11.9236 10.0809C11.9236 9.79133 11.6935 9.55445 11.4122 9.55445C11.131 9.55445 10.9009 9.79133 10.9009 10.0809V13.2393C10.9009 13.5289 11.131 13.7657 11.4122 13.7657C11.6935 13.7657 11.9236 13.5289 11.9236 13.2393V10.0809Z" fill="white"/>
</svg>
