<svg width="17" height="16" viewBox="0 0 17 16" fill="none" xmlns="http://www.w3.org/2000/svg">
<path d="M8.9368 9.34637C9.8842 8.14512 12.0417 5.23037 12.0417 3.59476C12.0417 1.60865 10.4568 0 8.5 0C6.54323 0 4.95833 1.60865 4.95833 3.59476C4.95833 5.23037 7.1158 8.14512 8.06319 9.34637C8.29045 9.63395 8.7125 9.63395 8.9368 9.34637ZM12.2778 15.068L16.5543 13.3306C16.8229 13.2227 17 12.9561 17 12.6625V4.55336C17 4.0441 16.4953 3.69661 16.029 3.88533L12.6054 5.27531C12.5906 5.31125 12.5759 5.3502 12.5611 5.38614C12.4755 5.58985 12.3811 5.79655 12.2778 6.00324V15.068ZM0.44566 5.61082C0.177083 5.72166 0 5.98527 0 6.27884V14.391C0 14.9003 0.504687 15.2478 0.971007 15.059L4.72222 13.5343V6.00324C4.61892 5.79655 4.52448 5.58985 4.43889 5.38614C4.27361 4.99072 4.13194 4.56534 4.06111 4.14296L0.442708 5.61082H0.44566ZM11.3333 7.63886C10.7283 8.57649 10.0849 9.42426 9.67465 9.9455C9.06962 10.7124 7.93038 10.7124 7.32535 9.9455C6.9151 9.42426 6.2717 8.57649 5.66667 7.63886V13.4624L11.3333 15.107V7.63886Z" fill="white"/>
</svg>
