<svg width="16" height="16" viewBox="0 0 16 16" fill="none" xmlns="http://www.w3.org/2000/svg">
<path d="M15.142 8.01398C15.142 8.53527 14.7558 8.94361 14.3182 8.94361H13.4943L13.5124 13.5831C13.5124 13.6613 13.5072 13.7395 13.4995 13.8177V14.2839C13.4995 14.924 13.0387 15.4424 12.4697 15.4424H12.0578C12.0295 15.4424 12.0011 15.4424 11.9728 15.4395C11.9368 15.4424 11.9007 15.4424 11.8647 15.4424H11.028H10.4101C9.84115 15.4424 9.38031 14.924 9.38031 14.2839V13.5889V11.7354C9.38031 11.2228 9.01216 10.8087 8.55648 10.8087H6.90881C6.45312 10.8087 6.08497 11.2228 6.08497 11.7354V13.5889V14.2839C6.08497 14.924 5.62414 15.4424 5.05517 15.4424H4.4373H3.61603C3.57742 15.4424 3.5388 15.4395 3.50018 15.4366C3.46929 15.4395 3.4384 15.4424 3.4075 15.4424H2.99558C2.42662 15.4424 1.96579 14.924 1.96579 14.2839V11.0404C1.96579 11.0143 1.96579 10.9853 1.96836 10.9593V8.94361H1.14195C0.678544 8.94361 0.318115 8.53816 0.318115 8.01398C0.318115 7.75333 0.39535 7.52165 0.575564 7.31893L7.17655 0.846247C7.35677 0.643524 7.56273 0.614563 7.74294 0.614563C7.92315 0.614563 8.12911 0.672484 8.28358 0.817287L14.8588 7.31893C15.0648 7.52165 15.1678 7.75333 15.142 8.01398Z" fill="white"/>
</svg>
