<svg width="17" height="16" viewBox="0 0 17 16" fill="none" xmlns="http://www.w3.org/2000/svg">
<path d="M7.28892 0.162924C7.75463 -0.0527617 8.29223 -0.0527617 8.75794 0.162924L15.5904 3.32006C15.8561 3.44197 16.0249 3.70767 16.0249 4.0015C16.0249 4.29533 15.8561 4.56103 15.5904 4.68294L8.75794 7.84007C8.29223 8.05576 7.75463 8.05576 7.28892 7.84007L0.456427 4.68294C0.190754 4.55791 0.0219727 4.29221 0.0219727 4.0015C0.0219727 3.71079 0.190754 3.44197 0.456427 3.32006L7.28892 0.162924ZM13.9276 6.55221L15.5904 7.32118C15.8561 7.44309 16.0249 7.70879 16.0249 8.00262C16.0249 8.29645 15.8561 8.56215 15.5904 8.68406L8.75794 11.8412C8.29223 12.0569 7.75463 12.0569 7.28892 11.8412L0.456427 8.68406C0.190754 8.55902 0.0219727 8.29333 0.0219727 8.00262C0.0219727 7.71191 0.190754 7.44309 0.456427 7.32118L2.11923 6.55221L6.8701 8.74658C7.60148 9.08417 8.44538 9.08417 9.17677 8.74658L13.9276 6.55221ZM9.17677 12.7477L13.9276 10.5533L15.5904 11.3223C15.8561 11.4442 16.0249 11.7099 16.0249 12.0037C16.0249 12.2976 15.8561 12.5633 15.5904 12.6852L8.75794 15.8423C8.29223 16.058 7.75463 16.058 7.28892 15.8423L0.456427 12.6852C0.190754 12.5601 0.0219727 12.2944 0.0219727 12.0037C0.0219727 11.713 0.190754 11.4442 0.456427 11.3223L2.11923 10.5533L6.8701 12.7477C7.60148 13.0853 8.44538 13.0853 9.17677 12.7477Z" fill="white"/>
</svg>
