<svg width="4" height="14" viewBox="0 0 4 14" fill="none" xmlns="http://www.w3.org/2000/svg">
<path d="M2.24731 0.666667C1.51093 0.666667 0.913981 1.26362 0.913981 2C0.913981 2.73638 1.51093 3.33333 2.24731 3.33333C2.98369 3.33333 3.58065 2.73638 3.58065 2C3.58065 1.26362 2.98369 0.666667 2.24731 0.666667ZM2.24731 10.6667C1.51093 10.6667 0.913981 11.2636 0.913981 12C0.913981 12.7364 1.51093 13.3333 2.24731 13.3333C2.98369 13.3333 3.58065 12.7364 3.58065 12C3.58065 11.2636 2.98369 10.6667 2.24731 10.6667ZM1.99731 2L1.99731 12H2.49731L2.49731 2H1.99731Z" fill="black"/>
</svg>
