<svg width="318" height="95" viewBox="0 0 318 95" fill="none" xmlns="http://www.w3.org/2000/svg">
<g clip-path="url(#clip0_226_663)">
<path d="M90.7302 63.07C90.6602 63.07 90.6102 63.03 90.5802 62.96L88.8102 59.3H88.6902H86.5202C86.4702 59.3 86.4502 59.32 86.4502 59.37V62.95C86.4502 63.03 86.4102 63.07 86.3202 63.07H85.8502C85.7702 63.07 85.7202 63.03 85.7202 62.95V54.75C85.7202 54.67 85.7602 54.63 85.8402 54.63H88.6802C89.4802 54.63 90.1202 54.84 90.5702 55.25C91.0302 55.66 91.2502 56.24 91.2502 56.96C91.2502 57.55 91.1002 58.03 90.8002 58.42C90.5002 58.81 90.0702 59.06 89.5302 59.2L91.3702 62.94C91.3902 62.98 91.4002 63.01 91.3902 63.04C91.3802 63.06 91.3502 63.08 91.3102 63.08H90.7302V63.07ZM88.6802 58.62C89.2802 58.62 89.7402 58.48 90.0702 58.19C90.3902 57.9 90.5502 57.49 90.5502 56.95C90.5502 56.42 90.3902 56.01 90.0702 55.72C89.7502 55.43 89.2902 55.29 88.6802 55.29H86.5302C86.4802 55.29 86.4602 55.31 86.4602 55.36V58.54C86.4602 58.59 86.4802 58.61 86.5302 58.61H88.6802V58.62Z" fill="#88774F"/>
<path d="M96.0303 63.19C95.3303 63.19 94.7603 63.03 94.3003 62.71C93.8403 62.39 93.5103 61.92 93.3003 61.29C93.2603 61.18 93.2203 61.06 93.1903 60.92C93.1603 60.78 93.1403 60.62 93.1203 60.44C93.1003 60.25 93.0803 60.03 93.0703 59.78C93.0603 59.52 93.0503 59.21 93.0503 58.85C93.0503 58.49 93.0603 58.18 93.0703 57.92C93.0803 57.66 93.1003 57.44 93.1203 57.26C93.1403 57.07 93.1703 56.91 93.1903 56.78C93.2203 56.65 93.2503 56.52 93.3003 56.41C93.5103 55.79 93.8403 55.32 94.3003 54.99C94.7603 54.67 95.3403 54.51 96.0303 54.51C96.7203 54.51 97.2903 54.67 97.7503 54.99C98.2103 55.31 98.5403 55.78 98.7503 56.41C98.7803 56.53 98.8203 56.65 98.8503 56.78C98.8803 56.91 98.9103 57.07 98.9303 57.26C98.9503 57.45 98.9703 57.67 98.9803 57.92C99.0003 58.17 99.0003 58.48 99.0003 58.84C99.0003 59.2 98.9903 59.52 98.9803 59.77C98.9703 60.03 98.9503 60.25 98.9303 60.43C98.9103 60.62 98.8803 60.78 98.8503 60.91C98.8203 61.05 98.7803 61.17 98.7503 61.28C98.5403 61.9 98.2103 62.37 97.7503 62.7C97.2903 63.03 96.7203 63.19 96.0303 63.19ZM98.2803 58.84C98.2803 58.5 98.2703 58.21 98.2603 57.96C98.2503 57.71 98.2303 57.5 98.2203 57.33C98.2003 57.16 98.1803 57.01 98.1503 56.9C98.1203 56.78 98.0903 56.68 98.0703 56.6C97.7603 55.65 97.0803 55.17 96.0303 55.17C94.9803 55.17 94.3003 55.65 93.9803 56.6C93.9603 56.68 93.9303 56.78 93.9003 56.9C93.8703 57.02 93.8503 57.16 93.8303 57.33C93.8103 57.5 93.8003 57.71 93.7903 57.96C93.7803 58.21 93.7703 58.5 93.7703 58.84C93.7703 59.18 93.7803 59.47 93.7903 59.72C93.8003 59.97 93.8203 60.18 93.8303 60.35C93.8503 60.52 93.8703 60.67 93.9003 60.78C93.9303 60.9 93.9603 61 93.9803 61.08C94.2903 62.03 94.9803 62.51 96.0303 62.51C97.0703 62.51 97.7503 62.03 98.0703 61.08C98.0903 61 98.1203 60.9 98.1503 60.78C98.1803 60.66 98.2003 60.52 98.2203 60.35C98.2403 60.18 98.2503 59.97 98.2603 59.72C98.2703 59.47 98.2803 59.18 98.2803 58.84Z" fill="#88774F"/>
<path d="M102.7 63.07C102.62 63.07 102.57 63.03 102.57 62.95V59.6L100.04 54.76C100.02 54.73 100.03 54.7 100.05 54.67C100.07 54.64 100.1 54.63 100.14 54.63H100.62C100.7 54.63 100.76 54.67 100.81 54.75L102.94 58.79H102.98L105.07 54.75C105.11 54.67 105.17 54.63 105.26 54.63H105.73C105.78 54.63 105.81 54.64 105.83 54.67C105.85 54.7 105.85 54.73 105.83 54.76L103.3 59.6V62.94C103.3 63.02 103.26 63.06 103.17 63.06H102.7V63.07Z" fill="#88774F"/>
<path d="M108.78 54.74C108.8 54.66 108.85 54.62 108.93 54.62H109.38C109.45 54.62 109.5 54.66 109.53 54.74L112.46 62.94C112.48 63.02 112.46 63.06 112.37 63.06H111.89C111.8 63.06 111.74 63.02 111.73 62.94L110.98 60.87H107.3L106.55 62.94C106.52 63.02 106.46 63.06 106.39 63.06H105.91C105.83 63.06 105.8 63.02 105.82 62.94L108.78 54.74ZM110.74 60.17L109.16 55.76H109.12L107.53 60.17H110.74Z" fill="#88774F"/>
<path d="M114.18 54.74C114.18 54.66 114.22 54.62 114.31 54.62H114.78C114.86 54.62 114.91 54.66 114.91 54.74V62.32C114.91 62.37 114.93 62.39 114.98 62.39H119.15C119.23 62.39 119.27 62.43 119.27 62.51V62.93C119.27 63.01 119.23 63.05 119.15 63.05H114.31C114.23 63.05 114.18 63.01 114.18 62.93V54.74Z" fill="#88774F"/>
<path d="M124.1 61.3C124.07 61.19 124.04 61.07 124.01 60.95C123.98 60.82 123.96 60.66 123.94 60.47C123.92 60.28 123.91 60.05 123.9 59.79C123.89 59.53 123.88 59.21 123.88 58.84C123.88 58.47 123.89 58.15 123.9 57.89C123.91 57.63 123.93 57.4 123.94 57.21C123.96 57.02 123.98 56.86 124.01 56.73C124.04 56.6 124.07 56.48 124.1 56.38C124.32 55.74 124.65 55.27 125.09 54.96C125.54 54.65 126.1 54.49 126.77 54.49C127.35 54.49 127.86 54.62 128.3 54.88C128.74 55.14 129.08 55.53 129.32 56.05C129.35 56.12 129.34 56.18 129.28 56.21L128.87 56.41C128.8 56.45 128.75 56.43 128.71 56.36C128.52 56 128.27 55.7 127.96 55.48C127.65 55.26 127.25 55.15 126.77 55.15C126.25 55.15 125.83 55.27 125.51 55.5C125.19 55.74 124.95 56.09 124.78 56.55C124.76 56.63 124.73 56.73 124.71 56.85C124.69 56.97 124.66 57.11 124.65 57.28C124.64 57.45 124.62 57.66 124.61 57.91C124.6 58.16 124.6 58.46 124.6 58.82C124.6 59.18 124.6 59.48 124.61 59.73C124.62 59.98 124.63 60.19 124.65 60.36C124.67 60.53 124.69 60.68 124.71 60.79C124.73 60.91 124.76 61.01 124.78 61.09C124.95 61.55 125.19 61.9 125.51 62.14C125.83 62.38 126.25 62.49 126.77 62.49C127.25 62.49 127.65 62.38 127.96 62.16C128.27 61.94 128.52 61.65 128.71 61.28C128.75 61.21 128.8 61.19 128.87 61.23L129.28 61.43C129.34 61.46 129.35 61.52 129.32 61.59C129.08 62.11 128.74 62.5 128.3 62.76C127.86 63.02 127.35 63.15 126.77 63.15C126.1 63.15 125.54 62.99 125.09 62.68C124.65 62.41 124.32 61.94 124.1 61.3Z" fill="#88774F"/>
<path d="M133.85 63.19C133.15 63.19 132.58 63.03 132.12 62.71C131.66 62.39 131.33 61.92 131.12 61.29C131.08 61.18 131.04 61.06 131.01 60.92C130.98 60.78 130.96 60.62 130.94 60.44C130.92 60.25 130.9 60.03 130.89 59.78C130.88 59.52 130.87 59.21 130.87 58.85C130.87 58.49 130.88 58.18 130.89 57.92C130.9 57.66 130.92 57.44 130.94 57.26C130.96 57.07 130.99 56.91 131.01 56.78C131.04 56.65 131.07 56.52 131.12 56.41C131.33 55.79 131.66 55.32 132.12 54.99C132.58 54.67 133.16 54.51 133.85 54.51C134.54 54.51 135.11 54.67 135.57 54.99C136.03 55.31 136.36 55.78 136.57 56.41C136.6 56.53 136.64 56.65 136.67 56.78C136.7 56.91 136.73 57.07 136.75 57.26C136.77 57.45 136.79 57.67 136.8 57.92C136.81 58.18 136.82 58.49 136.82 58.85C136.82 59.21 136.81 59.53 136.8 59.78C136.79 60.04 136.77 60.26 136.75 60.44C136.73 60.63 136.7 60.79 136.67 60.92C136.64 61.05 136.6 61.18 136.57 61.29C136.36 61.91 136.03 62.38 135.57 62.71C135.11 63.03 134.54 63.19 133.85 63.19ZM136.1 58.84C136.1 58.5 136.09 58.21 136.08 57.96C136.07 57.71 136.05 57.5 136.04 57.33C136.02 57.16 136 57.01 135.97 56.9C135.94 56.78 135.91 56.68 135.89 56.6C135.58 55.65 134.9 55.17 133.85 55.17C132.8 55.17 132.12 55.65 131.8 56.6C131.78 56.68 131.75 56.78 131.72 56.9C131.69 57.02 131.67 57.16 131.65 57.33C131.63 57.5 131.62 57.71 131.61 57.96C131.6 58.21 131.59 58.5 131.59 58.84C131.59 59.18 131.6 59.47 131.61 59.72C131.62 59.97 131.64 60.18 131.65 60.35C131.67 60.52 131.69 60.67 131.72 60.78C131.75 60.9 131.78 61 131.8 61.08C132.11 62.03 132.8 62.51 133.85 62.51C134.89 62.51 135.57 62.03 135.89 61.08C135.91 61 135.94 60.9 135.97 60.78C136 60.66 136.02 60.52 136.04 60.35C136.06 60.18 136.07 59.97 136.08 59.72C136.09 59.48 136.1 59.18 136.1 58.84Z" fill="#88774F"/>
<path d="M138.86 54.74C138.86 54.66 138.9 54.62 138.99 54.62H139.47C139.56 54.62 139.63 54.66 139.66 54.74L142.4 60.79H142.45L145.13 54.74C145.16 54.66 145.22 54.62 145.31 54.62H145.8C145.88 54.62 145.93 54.66 145.93 54.74V62.94C145.93 63.02 145.89 63.06 145.8 63.06H145.33C145.25 63.06 145.2 63.02 145.2 62.94V56.33H145.16L142.73 61.68C142.71 61.73 142.68 61.76 142.65 61.79C142.62 61.81 142.57 61.82 142.51 61.82H142.26C142.16 61.82 142.09 61.77 142.05 61.68L139.62 56.33H139.58V62.94C139.58 63.02 139.54 63.06 139.45 63.06H138.98C138.9 63.06 138.85 63.02 138.85 62.94V54.74H138.86Z" fill="#88774F"/>
<path d="M148.22 54.74C148.22 54.66 148.26 54.62 148.35 54.62H148.83C148.92 54.62 148.99 54.66 149.02 54.74L151.76 60.79H151.81L154.49 54.74C154.52 54.66 154.58 54.62 154.67 54.62H155.16C155.24 54.62 155.29 54.66 155.29 54.74V62.94C155.29 63.02 155.25 63.06 155.16 63.06H154.69C154.61 63.06 154.56 63.02 154.56 62.94V56.33H154.52L152.09 61.68C152.07 61.73 152.04 61.76 152.01 61.79C151.98 61.81 151.93 61.82 151.87 61.82H151.62C151.52 61.82 151.45 61.77 151.41 61.68L148.98 56.33H148.94V62.94C148.94 63.02 148.9 63.06 148.81 63.06H148.34C148.26 63.06 148.21 63.02 148.21 62.94V54.74H148.22Z" fill="#88774F"/>
<path d="M157.57 54.74C157.57 54.66 157.61 54.62 157.7 54.62H158.17C158.25 54.62 158.3 54.66 158.3 54.74V62.94C158.3 63.02 158.26 63.06 158.17 63.06H157.7C157.62 63.06 157.57 63.02 157.57 62.94V54.74Z" fill="#88774F"/>
<path d="M163.05 63.19C162.78 63.19 162.5 63.16 162.23 63.11C161.96 63.06 161.7 62.98 161.45 62.89C161.21 62.8 160.98 62.69 160.78 62.57C160.58 62.45 160.4 62.33 160.25 62.2C160.18 62.14 160.18 62.08 160.24 62.03L160.54 61.66C160.6 61.59 160.66 61.59 160.71 61.65C160.99 61.87 161.34 62.06 161.76 62.25C162.18 62.43 162.64 62.52 163.13 62.52C163.81 62.52 164.34 62.36 164.73 62.05C165.12 61.74 165.31 61.32 165.31 60.8C165.31 60.59 165.28 60.4 165.21 60.22C165.14 60.04 165.03 59.88 164.88 59.74C164.73 59.6 164.52 59.48 164.26 59.38C164 59.28 163.67 59.21 163.29 59.16L162.9 59.11C162.07 59 161.46 58.76 161.06 58.38C160.66 58 160.46 57.5 160.46 56.88C160.46 56.14 160.7 55.56 161.18 55.14C161.66 54.72 162.31 54.51 163.12 54.51C163.59 54.51 164.04 54.57 164.46 54.7C164.88 54.83 165.24 55 165.53 55.22C165.6 55.26 165.61 55.32 165.55 55.39L165.3 55.77C165.25 55.83 165.19 55.84 165.13 55.79C164.79 55.58 164.46 55.43 164.13 55.32C163.8 55.22 163.45 55.16 163.09 55.16C162.49 55.16 162.02 55.31 161.68 55.61C161.35 55.91 161.18 56.31 161.18 56.81C161.18 57.24 161.33 57.59 161.63 57.87C161.93 58.14 162.44 58.33 163.16 58.42L163.54 58.47C164.4 58.59 165.03 58.84 165.42 59.22C165.81 59.61 166.01 60.11 166.01 60.74C166.01 61.1 165.95 61.42 165.82 61.72C165.69 62.02 165.5 62.28 165.25 62.5C165 62.72 164.69 62.89 164.32 63.01C163.95 63.13 163.54 63.19 163.05 63.19Z" fill="#88774F"/>
<path d="M170.49 63.19C170.22 63.19 169.94 63.16 169.67 63.11C169.4 63.06 169.14 62.98 168.89 62.89C168.65 62.8 168.42 62.69 168.22 62.57C168.02 62.45 167.84 62.33 167.69 62.2C167.62 62.14 167.62 62.08 167.68 62.03L167.98 61.66C168.04 61.59 168.1 61.59 168.15 61.65C168.43 61.87 168.78 62.06 169.2 62.25C169.62 62.43 170.08 62.52 170.57 62.52C171.25 62.52 171.78 62.36 172.17 62.05C172.56 61.74 172.75 61.32 172.75 60.8C172.75 60.59 172.72 60.4 172.65 60.22C172.58 60.04 172.47 59.88 172.32 59.74C172.17 59.6 171.96 59.48 171.7 59.38C171.44 59.28 171.11 59.21 170.73 59.16L170.34 59.11C169.51 59 168.9 58.76 168.5 58.38C168.1 58 167.9 57.5 167.9 56.88C167.9 56.14 168.14 55.56 168.62 55.14C169.1 54.72 169.75 54.51 170.56 54.51C171.03 54.51 171.48 54.57 171.9 54.7C172.32 54.83 172.68 55 172.97 55.22C173.04 55.26 173.05 55.32 172.99 55.39L172.74 55.77C172.69 55.83 172.63 55.84 172.57 55.79C172.23 55.58 171.9 55.43 171.57 55.32C171.24 55.22 170.89 55.16 170.53 55.16C169.93 55.16 169.46 55.31 169.12 55.61C168.79 55.91 168.62 56.31 168.62 56.81C168.62 57.24 168.77 57.59 169.07 57.87C169.37 58.14 169.88 58.33 170.6 58.42L170.98 58.47C171.84 58.59 172.47 58.84 172.86 59.22C173.25 59.61 173.45 60.11 173.45 60.74C173.45 61.1 173.39 61.42 173.26 61.72C173.13 62.02 172.94 62.28 172.69 62.5C172.44 62.72 172.13 62.89 171.76 63.01C171.39 63.13 170.98 63.19 170.49 63.19Z" fill="#88774F"/>
<path d="M175.4 54.74C175.4 54.66 175.44 54.62 175.53 54.62H176C176.08 54.62 176.13 54.66 176.13 54.74V62.94C176.13 63.02 176.09 63.06 176 63.06H175.53C175.45 63.06 175.4 63.02 175.4 62.94V54.74Z" fill="#88774F"/>
<path d="M181.13 63.19C180.43 63.19 179.86 63.03 179.4 62.71C178.94 62.39 178.61 61.92 178.4 61.29C178.36 61.18 178.32 61.06 178.29 60.92C178.26 60.78 178.24 60.62 178.22 60.44C178.2 60.25 178.18 60.03 178.17 59.78C178.16 59.52 178.15 59.21 178.15 58.85C178.15 58.49 178.16 58.18 178.17 57.92C178.18 57.66 178.2 57.44 178.22 57.26C178.24 57.07 178.27 56.91 178.29 56.78C178.32 56.65 178.35 56.52 178.4 56.41C178.61 55.79 178.94 55.32 179.4 54.99C179.86 54.67 180.44 54.51 181.13 54.51C181.82 54.51 182.39 54.67 182.85 54.99C183.31 55.31 183.64 55.78 183.85 56.41C183.88 56.53 183.92 56.65 183.95 56.78C183.98 56.91 184.01 57.07 184.03 57.26C184.05 57.45 184.07 57.67 184.08 57.92C184.09 58.18 184.1 58.49 184.1 58.85C184.1 59.21 184.09 59.53 184.08 59.78C184.07 60.04 184.05 60.26 184.03 60.44C184.01 60.63 183.98 60.79 183.95 60.92C183.92 61.06 183.88 61.18 183.85 61.29C183.64 61.91 183.31 62.38 182.85 62.71C182.39 63.03 181.82 63.19 181.13 63.19ZM183.38 58.84C183.38 58.5 183.37 58.21 183.36 57.96C183.35 57.71 183.33 57.5 183.32 57.33C183.3 57.16 183.28 57.01 183.25 56.9C183.22 56.78 183.19 56.68 183.17 56.6C182.86 55.65 182.18 55.17 181.13 55.17C180.08 55.17 179.39 55.65 179.08 56.6C179.06 56.68 179.03 56.78 179 56.9C178.97 57.02 178.95 57.16 178.93 57.33C178.91 57.5 178.9 57.71 178.89 57.96C178.88 58.21 178.87 58.5 178.87 58.84C178.87 59.18 178.88 59.47 178.89 59.72C178.9 59.97 178.92 60.18 178.93 60.35C178.95 60.52 178.97 60.67 179 60.78C179.03 60.9 179.06 61 179.08 61.08C179.39 62.03 180.08 62.51 181.13 62.51C182.17 62.51 182.85 62.03 183.17 61.08C183.19 61 183.22 60.9 183.25 60.78C183.28 60.66 183.3 60.52 183.32 60.35C183.34 60.18 183.35 59.97 183.36 59.72C183.37 59.48 183.38 59.18 183.38 58.84Z" fill="#88774F"/>
<path d="M186.14 54.74C186.14 54.66 186.18 54.62 186.27 54.62H186.74C186.84 54.62 186.91 54.66 186.95 54.74L191.15 61.68H191.19V54.74C191.19 54.66 191.23 54.62 191.32 54.62H191.79C191.87 54.62 191.92 54.66 191.92 54.74V62.94C191.92 63.02 191.88 63.06 191.8 63.06H191.32C191.23 63.06 191.16 63.02 191.11 62.94L186.94 55.98H186.89V62.94C186.89 63.02 186.85 63.06 186.76 63.06H186.29C186.21 63.06 186.16 63.02 186.16 62.94V54.74H186.14Z" fill="#88774F"/>
<path d="M197.7 54.74C197.7 54.66 197.74 54.62 197.83 54.62H202.67C202.75 54.62 202.79 54.66 202.79 54.74V55.16C202.79 55.24 202.75 55.28 202.67 55.28H198.5C198.45 55.28 198.43 55.3 198.43 55.35V58.44C198.43 58.49 198.45 58.51 198.5 58.51H202.09C202.17 58.51 202.21 58.55 202.21 58.63V59.05C202.21 59.13 202.17 59.17 202.09 59.17H198.5C198.45 59.17 198.43 59.19 198.43 59.24V62.9C198.43 62.98 198.39 63.02 198.3 63.02H197.83C197.75 63.02 197.7 62.98 197.7 62.9V54.74Z" fill="#88774F"/>
<path d="M207.12 63.19C206.42 63.19 205.85 63.03 205.39 62.71C204.93 62.39 204.6 61.92 204.39 61.29C204.35 61.18 204.31 61.06 204.28 60.92C204.25 60.78 204.23 60.62 204.21 60.44C204.19 60.25 204.17 60.03 204.16 59.78C204.15 59.52 204.14 59.21 204.14 58.85C204.14 58.49 204.15 58.18 204.16 57.92C204.17 57.66 204.19 57.44 204.21 57.26C204.23 57.07 204.26 56.91 204.28 56.78C204.31 56.65 204.34 56.52 204.39 56.41C204.6 55.79 204.93 55.32 205.39 54.99C205.85 54.67 206.43 54.51 207.12 54.51C207.81 54.51 208.38 54.67 208.84 54.99C209.3 55.31 209.63 55.78 209.84 56.41C209.87 56.53 209.91 56.65 209.94 56.78C209.97 56.91 210 57.07 210.02 57.26C210.04 57.45 210.06 57.67 210.07 57.92C210.08 58.18 210.09 58.49 210.09 58.85C210.09 59.21 210.08 59.53 210.07 59.78C210.06 60.04 210.04 60.26 210.02 60.44C210 60.63 209.97 60.79 209.94 60.92C209.91 61.06 209.87 61.18 209.84 61.29C209.63 61.91 209.3 62.38 208.84 62.71C208.38 63.03 207.81 63.19 207.12 63.19ZM209.37 58.84C209.37 58.5 209.36 58.21 209.35 57.96C209.34 57.71 209.32 57.5 209.31 57.33C209.29 57.16 209.27 57.01 209.24 56.9C209.21 56.78 209.18 56.68 209.16 56.6C208.85 55.65 208.17 55.17 207.12 55.17C206.07 55.17 205.38 55.65 205.07 56.6C205.05 56.68 205.02 56.78 204.99 56.9C204.96 57.02 204.94 57.16 204.92 57.33C204.9 57.5 204.89 57.71 204.88 57.96C204.87 58.21 204.86 58.5 204.86 58.84C204.86 59.18 204.87 59.47 204.88 59.72C204.89 59.97 204.91 60.18 204.92 60.35C204.94 60.52 204.96 60.67 204.99 60.78C205.02 60.9 205.05 61 205.07 61.08C205.38 62.03 206.07 62.51 207.12 62.51C208.16 62.51 208.84 62.03 209.16 61.08C209.18 61 209.21 60.9 209.24 60.78C209.27 60.66 209.29 60.52 209.31 60.35C209.33 60.18 209.34 59.97 209.35 59.72C209.36 59.48 209.37 59.18 209.37 58.84Z" fill="#88774F"/>
<path d="M217.13 63.07C217.06 63.07 217.01 63.03 216.98 62.96L215.21 59.3H215.09H212.92C212.87 59.3 212.85 59.32 212.85 59.37V62.95C212.85 63.03 212.81 63.07 212.72 63.07H212.25C212.17 63.07 212.12 63.03 212.12 62.95V54.75C212.12 54.67 212.16 54.63 212.24 54.63H215.08C215.88 54.63 216.52 54.84 216.97 55.25C217.43 55.66 217.65 56.24 217.65 56.96C217.65 57.55 217.5 58.03 217.2 58.42C216.9 58.81 216.47 59.06 215.93 59.2L217.77 62.94C217.79 62.98 217.8 63.01 217.79 63.04C217.78 63.06 217.75 63.08 217.71 63.08H217.13V63.07ZM215.07 58.62C215.67 58.62 216.13 58.48 216.46 58.19C216.78 57.9 216.94 57.49 216.94 56.95C216.94 56.42 216.78 56.01 216.46 55.72C216.14 55.43 215.68 55.29 215.07 55.29H212.92C212.87 55.29 212.85 55.31 212.85 55.36V58.54C212.85 58.59 212.87 58.61 212.92 58.61H215.07V58.62Z" fill="#88774F"/>
<path d="M50.4001 68.61C50.4001 68.53 50.4401 68.49 50.5301 68.49H51.0101C51.1001 68.49 51.1701 68.53 51.2001 68.61L53.9401 74.66H53.9901L56.6701 68.61C56.7001 68.53 56.7601 68.49 56.8501 68.49H57.3401C57.4201 68.49 57.4701 68.53 57.4701 68.61V76.81C57.4701 76.89 57.4301 76.93 57.3401 76.93H56.8701C56.7901 76.93 56.7401 76.89 56.7401 76.81V70.2H56.7001L54.2701 75.55C54.2501 75.6 54.2201 75.63 54.1901 75.66C54.1601 75.68 54.1101 75.69 54.0501 75.69H53.8001C53.7001 75.69 53.6301 75.64 53.5901 75.55L51.1601 70.2H51.1201V76.81C51.1201 76.89 51.0801 76.93 50.9901 76.93H50.5201C50.4401 76.93 50.3901 76.89 50.3901 76.81V68.61H50.4001Z" fill="#88774F"/>
<path d="M62.1403 68.61C62.1603 68.53 62.2103 68.49 62.2903 68.49H62.7403C62.8103 68.49 62.8603 68.53 62.8903 68.61L65.8203 76.81C65.8403 76.89 65.8203 76.93 65.7303 76.93H65.2503C65.1603 76.93 65.1003 76.89 65.0903 76.81L64.3403 74.74H60.6603L59.9103 76.81C59.8803 76.89 59.8203 76.93 59.7503 76.93H59.2703C59.1903 76.93 59.1603 76.89 59.1803 76.81L62.1403 68.61ZM64.1003 74.04L62.5203 69.63H62.4803L60.8903 74.04H64.1003Z" fill="#88774F"/>
<path d="M67.5303 68.61C67.5303 68.53 67.5703 68.49 67.6603 68.49H68.1302C68.2102 68.49 68.2603 68.53 68.2603 68.61V73.48L72.2803 68.6C72.3503 68.53 72.4202 68.49 72.4902 68.49H73.0703C73.1103 68.49 73.1403 68.5 73.1503 68.53C73.1603 68.56 73.1503 68.59 73.1203 68.62L70.4502 71.81L73.3303 76.79C73.3503 76.83 73.3603 76.86 73.3503 76.89C73.3403 76.91 73.3102 76.93 73.2702 76.93H72.7103C72.6403 76.93 72.5702 76.89 72.5202 76.82L69.9703 72.39L68.2402 74.45V76.81C68.2402 76.89 68.2003 76.93 68.1103 76.93H67.6403C67.5603 76.93 67.5103 76.89 67.5103 76.81V68.61H67.5303Z" fill="#88774F"/>
<path d="M75.1001 68.61C75.1001 68.53 75.1401 68.49 75.2301 68.49H75.7001C75.7801 68.49 75.8301 68.53 75.8301 68.61V73.48L79.8501 68.6C79.9201 68.53 79.9901 68.49 80.0601 68.49H80.6401C80.6801 68.49 80.7101 68.5 80.7201 68.53C80.7301 68.56 80.7201 68.59 80.6901 68.62L78.0201 71.81L80.9001 76.79C80.9201 76.83 80.9301 76.86 80.9201 76.89C80.9101 76.91 80.8801 76.93 80.8401 76.93H80.2801C80.2101 76.93 80.1401 76.89 80.0901 76.82L77.5401 72.39L75.8101 74.45V76.81C75.8101 76.89 75.7701 76.93 75.6801 76.93H75.2101C75.1301 76.93 75.0801 76.89 75.0801 76.81V68.61H75.1001Z" fill="#88774F"/>
<path d="M85.2502 68.61C85.2702 68.53 85.3202 68.49 85.4002 68.49H85.8502C85.9202 68.49 85.9702 68.53 86.0002 68.61L88.9302 76.81C88.9502 76.89 88.9302 76.93 88.8402 76.93H88.3602C88.2702 76.93 88.2102 76.89 88.2002 76.81L87.4502 74.74H83.7702L83.0202 76.81C82.9902 76.89 82.9302 76.93 82.8602 76.93H82.3802C82.3002 76.93 82.2702 76.89 82.2902 76.81L85.2502 68.61ZM87.2102 74.04L85.6302 69.63H85.5902L84.0002 74.04H87.2102Z" fill="#88774F"/>
<path d="M90.6501 68.61C90.6501 68.53 90.6901 68.49 90.7801 68.49H91.2501C91.3301 68.49 91.3801 68.53 91.3801 68.61V72.24C91.3801 72.29 91.4001 72.31 91.4501 72.31H95.6101C95.6601 72.31 95.6801 72.29 95.6801 72.24V68.61C95.6801 68.53 95.7201 68.49 95.8101 68.49H96.2801C96.3601 68.49 96.4101 68.53 96.4101 68.61V76.81C96.4101 76.89 96.3701 76.93 96.2801 76.93H95.8001C95.7201 76.93 95.6701 76.89 95.6701 76.81V73.06C95.6701 73.01 95.6501 72.99 95.6001 72.99H91.4401C91.3901 72.99 91.3701 73.01 91.3701 73.06V76.81C91.3701 76.89 91.3301 76.93 91.2401 76.93H90.7701C90.6901 76.93 90.6401 76.89 90.6401 76.81V68.61H90.6501Z" fill="#88774F"/>
<path d="M102.06 75.17C102.03 75.06 102 74.94 101.97 74.82C101.94 74.69 101.92 74.53 101.9 74.34C101.88 74.15 101.87 73.92 101.86 73.66C101.85 73.4 101.84 73.08 101.84 72.71C101.84 72.34 101.85 72.02 101.86 71.76C101.87 71.5 101.89 71.27 101.9 71.08C101.92 70.89 101.94 70.73 101.97 70.6C102 70.47 102.03 70.35 102.06 70.25C102.28 69.61 102.61 69.14 103.05 68.83C103.5 68.52 104.06 68.36 104.73 68.36C105.31 68.36 105.82 68.49 106.26 68.75C106.7 69.01 107.04 69.4 107.28 69.92C107.31 69.99 107.3 70.05 107.24 70.08L106.83 70.28C106.76 70.32 106.71 70.3 106.67 70.23C106.48 69.87 106.23 69.57 105.92 69.35C105.61 69.13 105.21 69.02 104.73 69.02C104.21 69.02 103.79 69.14 103.47 69.37C103.15 69.61 102.91 69.96 102.74 70.42C102.72 70.5 102.69 70.6 102.67 70.72C102.65 70.84 102.62 70.98 102.61 71.15C102.59 71.32 102.58 71.53 102.57 71.78C102.56 72.03 102.56 72.33 102.56 72.69C102.56 73.05 102.56 73.35 102.57 73.6C102.58 73.85 102.59 74.06 102.61 74.23C102.63 74.4 102.65 74.55 102.67 74.66C102.69 74.78 102.72 74.88 102.74 74.96C102.91 75.42 103.15 75.77 103.47 76.01C103.79 76.25 104.21 76.36 104.73 76.36C105.21 76.36 105.61 76.25 105.92 76.03C106.23 75.81 106.48 75.52 106.67 75.15C106.71 75.08 106.76 75.06 106.83 75.1L107.24 75.3C107.3 75.33 107.31 75.39 107.28 75.46C107.04 75.98 106.7 76.37 106.26 76.63C105.82 76.89 105.31 77.02 104.73 77.02C104.06 77.02 103.5 76.86 103.05 76.55C102.61 76.28 102.28 75.81 102.06 75.17Z" fill="#88774F"/>
<path d="M109.14 68.61C109.14 68.53 109.18 68.49 109.27 68.49H109.74C109.82 68.49 109.87 68.53 109.87 68.61V76.81C109.87 76.89 109.83 76.93 109.74 76.93H109.27C109.19 76.93 109.14 76.89 109.14 76.81V68.61Z" fill="#88774F"/>
<path d="M114.28 76.93C114.2 76.93 114.15 76.89 114.15 76.81V69.23C114.15 69.18 114.13 69.16 114.08 69.16H111.65C111.57 69.16 111.53 69.12 111.53 69.04V68.62C111.53 68.54 111.57 68.5 111.65 68.5H117.39C117.47 68.5 117.51 68.54 117.51 68.62V69.04C117.51 69.12 117.47 69.16 117.39 69.16H114.96C114.91 69.16 114.89 69.18 114.89 69.23V76.81C114.89 76.89 114.85 76.93 114.76 76.93H114.28Z" fill="#88774F"/>
<path d="M121.41 76.93C121.33 76.93 121.28 76.89 121.28 76.81V73.47L118.75 68.63C118.73 68.6 118.74 68.57 118.76 68.54C118.78 68.51 118.81 68.5 118.85 68.5H119.33C119.41 68.5 119.47 68.54 119.52 68.62L121.65 72.66H121.69L123.78 68.62C123.82 68.54 123.88 68.5 123.97 68.5H124.44C124.49 68.5 124.52 68.51 124.54 68.54C124.56 68.57 124.56 68.6 124.54 68.63L122.01 73.47V76.81C122.01 76.89 121.97 76.93 121.88 76.93H121.41Z" fill="#88774F"/>
<path d="M131.66 68.61C131.68 68.53 131.73 68.49 131.81 68.49H132.26C132.33 68.49 132.38 68.53 132.41 68.61L135.34 76.81C135.36 76.89 135.34 76.93 135.25 76.93H134.77C134.68 76.93 134.62 76.89 134.61 76.81L133.86 74.74H130.18L129.43 76.81C129.4 76.89 129.34 76.93 129.27 76.93H128.79C128.71 76.93 128.68 76.89 128.7 76.81L131.66 68.61ZM133.62 74.04L132.04 69.63H132L130.41 74.04H133.62Z" fill="#88774F"/>
<path d="M137.06 68.61C137.06 68.53 137.1 68.49 137.19 68.49H137.66C137.76 68.49 137.83 68.53 137.87 68.61L142.07 75.55H142.11V68.61C142.11 68.53 142.15 68.49 142.24 68.49H142.71C142.79 68.49 142.84 68.53 142.84 68.61V76.81C142.84 76.89 142.8 76.93 142.72 76.93H142.24C142.15 76.93 142.08 76.89 142.03 76.81L137.86 69.85H137.81V76.81C137.81 76.89 137.77 76.93 137.68 76.93H137.21C137.13 76.93 137.08 76.89 137.08 76.81V68.61H137.06Z" fill="#88774F"/>
<path d="M145.12 68.61C145.12 68.53 145.16 68.49 145.24 68.49H147.89C149.31 68.49 150.21 69.06 150.59 70.2C150.63 70.32 150.67 70.45 150.7 70.58C150.73 70.71 150.75 70.87 150.77 71.06C150.79 71.25 150.81 71.47 150.81 71.74C150.82 72.01 150.82 72.33 150.82 72.71C150.82 73.1 150.82 73.42 150.81 73.69C150.8 73.95 150.79 74.17 150.77 74.36C150.75 74.55 150.72 74.71 150.7 74.84C150.67 74.97 150.64 75.1 150.59 75.23C150.22 76.37 149.32 76.94 147.89 76.94H145.24C145.16 76.94 145.12 76.9 145.12 76.82V68.61ZM145.84 76.19C145.84 76.24 145.86 76.26 145.91 76.26H147.79C148.34 76.26 148.78 76.16 149.14 75.96C149.49 75.76 149.75 75.43 149.9 74.98C149.93 74.88 149.96 74.77 149.99 74.66C150.01 74.54 150.04 74.4 150.05 74.23C150.07 74.06 150.08 73.85 150.09 73.61C150.1 73.37 150.1 73.07 150.1 72.71C150.1 72.35 150.1 72.05 150.09 71.81C150.08 71.57 150.07 71.36 150.05 71.19C150.03 71.02 150.01 70.88 149.99 70.76C149.97 70.64 149.94 70.54 149.9 70.44C149.75 69.99 149.5 69.67 149.14 69.47C148.79 69.27 148.34 69.17 147.79 69.17H145.91C145.86 69.17 145.84 69.19 145.84 69.24V76.19Z" fill="#88774F"/>
<path d="M156.3 68.61C156.3 68.53 156.34 68.49 156.43 68.49H156.9C156.98 68.49 157.03 68.53 157.03 68.61V72.24C157.03 72.29 157.05 72.31 157.1 72.31H161.26C161.31 72.31 161.33 72.29 161.33 72.24V68.61C161.33 68.53 161.37 68.49 161.46 68.49H161.93C162.01 68.49 162.06 68.53 162.06 68.61V76.81C162.06 76.89 162.02 76.93 161.93 76.93H161.46C161.38 76.93 161.33 76.89 161.33 76.81V73.06C161.33 73.01 161.31 72.99 161.26 72.99H157.1C157.05 72.99 157.03 73.01 157.03 73.06V76.81C157.03 76.89 156.99 76.93 156.9 76.93H156.43C156.35 76.93 156.3 76.89 156.3 76.81V68.61Z" fill="#88774F"/>
<path d="M167.06 77.06C166.36 77.06 165.79 76.9 165.33 76.58C164.87 76.26 164.54 75.79 164.33 75.16C164.29 75.05 164.25 74.93 164.22 74.79C164.19 74.65 164.17 74.49 164.15 74.31C164.13 74.12 164.11 73.9 164.1 73.65C164.09 73.39 164.08 73.08 164.08 72.72C164.08 72.36 164.09 72.05 164.1 71.79C164.11 71.53 164.13 71.31 164.15 71.13C164.17 70.94 164.2 70.78 164.22 70.65C164.25 70.52 164.28 70.39 164.33 70.28C164.54 69.66 164.87 69.19 165.33 68.86C165.79 68.53 166.37 68.38 167.06 68.38C167.75 68.38 168.32 68.54 168.78 68.86C169.24 69.18 169.57 69.65 169.78 70.28C169.81 70.4 169.85 70.52 169.88 70.65C169.91 70.78 169.94 70.94 169.96 71.13C169.98 71.32 170 71.54 170.01 71.79C170.02 72.05 170.03 72.36 170.03 72.72C170.03 73.08 170.02 73.4 170.01 73.65C170 73.91 169.98 74.13 169.96 74.31C169.94 74.5 169.91 74.66 169.88 74.79C169.85 74.93 169.81 75.05 169.78 75.16C169.57 75.78 169.24 76.25 168.78 76.58C168.32 76.9 167.75 77.06 167.06 77.06ZM169.31 72.71C169.31 72.37 169.3 72.08 169.29 71.83C169.28 71.58 169.26 71.37 169.25 71.2C169.23 71.03 169.21 70.88 169.18 70.77C169.15 70.65 169.12 70.55 169.1 70.47C168.79 69.52 168.11 69.04 167.06 69.04C166.01 69.04 165.33 69.52 165.01 70.47C164.99 70.55 164.96 70.65 164.93 70.77C164.9 70.89 164.88 71.03 164.86 71.2C164.84 71.37 164.83 71.58 164.82 71.83C164.81 72.08 164.8 72.37 164.8 72.71C164.8 73.05 164.81 73.34 164.82 73.59C164.83 73.84 164.85 74.05 164.86 74.22C164.88 74.39 164.9 74.54 164.93 74.65C164.96 74.77 164.99 74.87 165.01 74.95C165.32 75.9 166.01 76.38 167.06 76.38C168.1 76.38 168.78 75.9 169.1 74.95C169.12 74.87 169.15 74.77 169.18 74.65C169.21 74.53 169.23 74.39 169.25 74.22C169.27 74.05 169.28 73.84 169.29 73.59C169.3 73.34 169.31 73.05 169.31 72.71Z" fill="#88774F"/>
<path d="M172.07 68.61C172.07 68.53 172.11 68.49 172.2 68.49H172.67C172.75 68.49 172.8 68.53 172.8 68.61V76.19C172.8 76.24 172.82 76.26 172.87 76.26H177.04C177.12 76.26 177.16 76.3 177.16 76.38V76.8C177.16 76.88 177.12 76.92 177.04 76.92H172.2C172.12 76.92 172.07 76.88 172.07 76.8V68.61Z" fill="#88774F"/>
<path d="M179.79 76.93C179.71 76.93 179.66 76.89 179.66 76.81V73.47L177.13 68.63C177.11 68.6 177.12 68.57 177.14 68.54C177.16 68.51 177.19 68.5 177.23 68.5H177.71C177.79 68.5 177.85 68.54 177.9 68.62L180.03 72.66H180.07L182.16 68.62C182.2 68.54 182.26 68.5 182.35 68.5H182.82C182.87 68.5 182.9 68.51 182.92 68.54C182.94 68.57 182.94 68.6 182.92 68.63L180.39 73.47V76.81C180.39 76.89 180.35 76.93 180.26 76.93H179.79Z" fill="#88774F"/>
<path d="M190.3 77.06C190.03 77.06 189.75 77.03 189.48 76.98C189.21 76.93 188.95 76.85 188.7 76.76C188.46 76.67 188.23 76.56 188.03 76.44C187.83 76.32 187.65 76.2 187.5 76.07C187.43 76.01 187.43 75.95 187.49 75.9L187.79 75.53C187.85 75.46 187.91 75.46 187.96 75.52C188.24 75.74 188.59 75.93 189.01 76.12C189.43 76.3 189.89 76.39 190.38 76.39C191.06 76.39 191.59 76.23 191.98 75.92C192.37 75.61 192.56 75.19 192.56 74.67C192.56 74.46 192.53 74.27 192.46 74.09C192.39 73.91 192.28 73.75 192.13 73.61C191.98 73.47 191.77 73.35 191.51 73.25C191.25 73.15 190.92 73.08 190.54 73.03L190.16 72.98C189.33 72.87 188.72 72.63 188.32 72.25C187.92 71.87 187.72 71.37 187.72 70.75C187.72 70.01 187.96 69.43 188.44 69.01C188.92 68.59 189.57 68.38 190.38 68.38C190.85 68.38 191.3 68.44 191.72 68.57C192.14 68.7 192.5 68.87 192.79 69.09C192.86 69.13 192.87 69.19 192.81 69.26L192.56 69.64C192.51 69.7 192.45 69.71 192.39 69.66C192.05 69.45 191.72 69.3 191.39 69.19C191.06 69.09 190.71 69.03 190.35 69.03C189.75 69.03 189.28 69.18 188.94 69.48C188.61 69.78 188.44 70.18 188.44 70.68C188.44 71.11 188.59 71.46 188.89 71.74C189.19 72.01 189.7 72.2 190.42 72.29L190.8 72.34C191.66 72.46 192.29 72.71 192.68 73.09C193.07 73.48 193.27 73.98 193.27 74.61C193.27 74.97 193.21 75.29 193.08 75.59C192.95 75.89 192.76 76.15 192.51 76.37C192.26 76.59 191.95 76.76 191.58 76.88C191.21 77 190.79 77.06 190.3 77.06Z" fill="#88774F"/>
<path d="M195.21 68.61C195.21 68.53 195.25 68.49 195.34 68.49H195.81C195.89 68.49 195.94 68.53 195.94 68.61V76.81C195.94 76.89 195.9 76.93 195.81 76.93H195.34C195.26 76.93 195.21 76.89 195.21 76.81V68.61Z" fill="#88774F"/>
<path d="M200.35 76.93C200.27 76.93 200.22 76.89 200.22 76.81V69.23C200.22 69.18 200.2 69.16 200.15 69.16H197.72C197.64 69.16 197.6 69.12 197.6 69.04V68.62C197.6 68.54 197.64 68.5 197.72 68.5H203.46C203.54 68.5 203.58 68.54 203.58 68.62V69.04C203.58 69.12 203.54 69.16 203.46 69.16H201.03C200.98 69.16 200.96 69.18 200.96 69.23V76.81C200.96 76.89 200.92 76.93 200.83 76.93H200.35Z" fill="#88774F"/>
<path d="M205.23 68.61C205.23 68.53 205.27 68.49 205.36 68.49H210.2C210.28 68.49 210.32 68.53 210.32 68.61V69.03C210.32 69.11 210.28 69.15 210.2 69.15H206.03C205.98 69.15 205.96 69.17 205.96 69.22V72.23C205.96 72.28 205.98 72.3 206.03 72.3H209.62C209.7 72.3 209.74 72.34 209.74 72.42V72.84C209.74 72.92 209.7 72.96 209.62 72.96H206.03C205.98 72.96 205.96 72.98 205.96 73.03V76.16C205.96 76.21 205.98 76.23 206.03 76.23H210.2C210.28 76.23 210.32 76.27 210.32 76.35V76.77C210.32 76.85 210.28 76.89 210.2 76.89H205.36C205.28 76.89 205.23 76.85 205.23 76.77V68.61Z" fill="#88774F"/>
<path d="M214.8 77.06C214.53 77.06 214.25 77.03 213.98 76.98C213.71 76.93 213.45 76.85 213.2 76.76C212.96 76.67 212.73 76.56 212.53 76.44C212.33 76.32 212.15 76.2 212 76.07C211.93 76.01 211.93 75.95 211.99 75.9L212.29 75.53C212.35 75.46 212.41 75.46 212.46 75.52C212.74 75.74 213.09 75.93 213.51 76.12C213.93 76.3 214.39 76.39 214.88 76.39C215.56 76.39 216.09 76.23 216.48 75.92C216.87 75.61 217.06 75.19 217.06 74.67C217.06 74.46 217.03 74.27 216.96 74.09C216.89 73.91 216.78 73.75 216.63 73.61C216.48 73.47 216.27 73.35 216.01 73.25C215.75 73.15 215.42 73.08 215.04 73.03L214.66 72.98C213.83 72.87 213.22 72.63 212.82 72.25C212.42 71.87 212.22 71.37 212.22 70.75C212.22 70.01 212.46 69.43 212.94 69.01C213.42 68.59 214.07 68.38 214.88 68.38C215.35 68.38 215.8 68.44 216.22 68.57C216.64 68.7 217 68.87 217.29 69.09C217.36 69.13 217.37 69.19 217.31 69.26L217.06 69.64C217.01 69.7 216.95 69.71 216.89 69.66C216.55 69.45 216.22 69.3 215.89 69.19C215.56 69.09 215.21 69.03 214.85 69.03C214.25 69.03 213.78 69.18 213.44 69.48C213.11 69.78 212.94 70.18 212.94 70.68C212.94 71.11 213.09 71.46 213.39 71.74C213.69 72.01 214.2 72.2 214.92 72.29L215.3 72.34C216.16 72.46 216.79 72.71 217.18 73.09C217.57 73.48 217.77 73.98 217.77 74.61C217.77 74.97 217.71 75.29 217.58 75.59C217.45 75.89 217.26 76.15 217.01 76.37C216.76 76.59 216.45 76.76 216.08 76.88C215.72 77 215.29 77.06 214.8 77.06Z" fill="#88774F"/>
<path d="M23.0599 12.37C22.4399 12.37 21.9299 12.89 21.9299 13.5C21.9299 14.11 22.4199 14.63 23.0599 14.63C23.6799 14.63 24.1899 14.11 24.1899 13.5C24.1899 12.88 23.6699 12.37 23.0599 12.37ZM20.2799 12.37C19.6599 12.37 19.1599 12.89 19.1599 13.5C19.1599 14.11 19.6199 14.63 20.2799 14.63C20.9199 14.63 21.4099 14.12 21.4099 13.5C21.4099 12.86 20.9099 12.37 20.2799 12.37Z" fill="#D3D6D8"/>
<path d="M44.4701 15.58C41.4601 15.58 39.96 17.59 39.96 19.79C39.96 21.02 40.29 21.79 40.92 22.27C40.84 22.25 40.49 22.15 39.96 22.15H37.85C37.68 18.82 36.2 17.09 34.01 16.1L38.2401 13.54V11.27L31.3701 15.58V17.26C34.1301 17.9 35.5201 19.46 35.6101 22.15H25.5201V16.18C25.5201 16.18 23.94 15.58 21.88 15.58C18.7 15.58 17.3 17.66 17.3 19.93C17.3 22.4 18.5701 23.96 21.93 23.96H48.39V19.57C48.39 17.14 47.18 15.58 44.4701 15.58ZM23.3 22.16H22.1901C20.37 22.16 19.59 21.31 19.59 19.73C19.59 18.38 20.35 17.39 21.65 17.39C22.64 17.39 23.3 17.7 23.3 17.7V22.16ZM46.1501 22.16H44.8301C43.0301 22.16 42.23 21.36 42.23 19.73C42.23 18.38 42.9901 17.39 44.2901 17.39C45.4501 17.39 46.1501 18.12 46.1501 19.86V22.16Z" fill="#D3D6D8"/>
<path d="M59.93 12.37C59.31 12.37 58.8 12.89 58.8 13.5C58.8 14.11 59.28 14.63 59.93 14.63C60.55 14.63 61.06 14.11 61.06 13.5C61.05 12.88 60.54 12.37 59.93 12.37ZM57.15 12.37C56.53 12.37 56.02 12.89 56.02 13.5C56.02 14.11 56.49 14.63 57.15 14.63C57.79 14.63 58.28 14.12 58.28 13.5C58.28 12.86 57.77 12.37 57.15 12.37Z" fill="#D3D6D8"/>
<path d="M71.2002 12.36C70.5602 12.36 70.0103 12.91 70.0103 13.55C70.0103 14.19 70.5402 14.75 71.2002 14.75C71.8402 14.75 72.4003 14.22 72.4003 13.55C72.4003 12.89 71.8402 12.36 71.2002 12.36Z" fill="#D3D6D8"/>
<path d="M78.4002 25.23C77.7802 25.23 77.2702 25.73 77.2702 26.35C77.2702 26.96 77.7502 27.48 78.4002 27.48C79.0202 27.48 79.5302 26.96 79.5302 26.35C79.5302 25.73 79.0102 25.23 78.4002 25.23ZM75.6202 25.23C75.0002 25.23 74.4902 25.73 74.4902 26.35C74.4902 26.96 74.9802 27.48 75.6202 27.48C76.2402 27.48 76.7502 26.96 76.7502 26.35C76.7502 25.73 76.2302 25.23 75.6202 25.23Z" fill="#D3D6D8"/>
<path d="M75.9199 15.81V22.16H72.3499V15.81H70.0599V22.16H62.3899V16.19C62.3899 16.19 60.8099 15.59 58.7499 15.59C55.5699 15.59 54.1699 17.67 54.1699 19.94C54.1699 22.41 55.4399 23.97 58.7999 23.97H78.2199V15.81H75.9199ZM60.1699 22.16H59.0599C57.2399 22.16 56.4599 21.31 56.4599 19.73C56.4599 18.38 57.2199 17.39 58.5199 17.39C59.5099 17.39 60.1699 17.7 60.1699 17.7V22.16Z" fill="#D3D6D8"/>
<path d="M101.92 11.73V22.16H98.7499V19.58C98.7499 17.15 97.5399 15.59 94.8299 15.59C91.8199 15.59 90.3199 17.6 90.3199 19.8C90.3199 21.59 89.6499 22.16 88.5999 22.16H87.7699C87.5599 18.29 85.5699 16.33 81.9899 15.39L81.4399 17.3C84.1799 17.99 85.4299 19.59 85.5299 22.15H80.3999V23.96H88.8499C90.3099 23.96 90.9999 23.42 91.3199 22.62C91.9299 23.42 92.7099 23.96 95.1999 23.96H104.22V11.73H101.92ZM96.5199 22.16H95.1999C93.3999 22.16 92.5999 21.36 92.5999 19.73C92.5999 18.38 93.3599 17.39 94.6599 17.39C95.8199 17.39 96.5199 18.12 96.5199 19.86V22.16Z" fill="#D3D6D8"/>
<path d="M116.03 12.37C115.41 12.37 114.91 12.89 114.91 13.5C114.91 14.11 115.39 14.63 116.03 14.63C116.66 14.63 117.16 14.11 117.16 13.5C117.16 12.88 116.64 12.37 116.03 12.37ZM113.25 12.37C112.63 12.37 112.13 12.89 112.13 13.5C112.13 14.11 112.59 14.63 113.25 14.63C113.89 14.63 114.38 14.12 114.38 13.5C114.38 12.86 113.88 12.37 113.25 12.37Z" fill="#D3D6D8"/>
<path d="M125.49 25.23C124.86 25.23 124.36 25.73 124.36 26.35C124.36 26.96 124.84 27.48 125.49 27.48C126.11 27.48 126.61 26.96 126.61 26.35C126.61 25.73 126.09 25.23 125.49 25.23ZM128.27 25.23C127.64 25.23 127.14 25.73 127.14 26.35C127.14 26.96 127.62 27.48 128.27 27.48C128.89 27.48 129.39 26.96 129.39 26.35C129.39 25.73 128.87 25.23 128.27 25.23Z" fill="#D3D6D8"/>
<path d="M156.77 11.73V22.16H153.59V19.58C153.59 17.15 152.38 15.59 149.67 15.59C146.67 15.59 145.16 17.6 145.16 19.8C145.16 21.59 144.48 22.16 143.44 22.16H141.79V11.73H139.5V22.16H136.67C136.5 18.83 135.02 17.1 132.83 16.11L137.06 13.55V11.28L130.19 15.59V17.27C132.95 17.91 134.34 19.47 134.43 22.16H128.02V15.81H125.73V22.16H118.48V16.19C118.48 16.19 116.9 15.59 114.84 15.59C111.66 15.59 110.26 17.67 110.26 19.94C110.26 22.41 111.53 23.97 114.9 23.97H143.68C145.13 23.97 145.83 23.43 146.15 22.63C146.75 23.43 147.53 23.97 150.03 23.97H159.05V11.73H156.77ZM116.27 22.16H115.16C113.34 22.16 112.56 21.31 112.56 19.73C112.56 18.38 113.32 17.39 114.62 17.39C115.61 17.39 116.27 17.7 116.27 17.7V22.16ZM151.35 22.16H150.03C148.22 22.16 147.43 21.36 147.43 19.73C147.43 18.38 148.19 17.39 149.49 17.39C150.65 17.39 151.35 18.12 151.35 19.86V22.16Z" fill="#D3D6D8"/>
<path d="M161.83 11.73H164.12V23.96H161.83V11.73Z" fill="#D3D6D8"/>
<path d="M175.96 12.37C175.34 12.37 174.83 12.89 174.83 13.5C174.83 14.11 175.31 14.63 175.96 14.63C176.58 14.63 177.09 14.11 177.09 13.5C177.08 12.88 176.56 12.37 175.96 12.37ZM173.18 12.37C172.56 12.37 172.05 12.89 172.05 13.5C172.05 14.11 172.52 14.63 173.18 14.63C173.82 14.63 174.31 14.12 174.31 13.5C174.31 12.86 173.8 12.37 173.18 12.37Z" fill="#D3D6D8"/>
<path d="M187.73 13.74C186.76 13.74 186.48 13.5 186.48 13.1C186.48 12.77 186.74 12.51 187.33 12.51C187.78 12.51 188.18 12.6 188.27 12.61L188.49 11.4C188.37 11.38 187.94 11.3 187.47 11.3C185.65 11.3 184.92 12.23 184.92 13.09C184.92 13.4 185.09 13.71 185.36 13.85C185.12 13.79 184.7 13.75 184.31 13.75V15H188.79V13.75H187.73V13.74Z" fill="#D3D6D8"/>
<path d="M194.05 25.23C193.43 25.23 192.92 25.73 192.92 26.35C192.92 26.96 193.4 27.48 194.05 27.48C194.67 27.48 195.18 26.96 195.18 26.35C195.18 25.73 194.66 25.23 194.05 25.23ZM191.27 25.23C190.65 25.23 190.14 25.73 190.14 26.35C190.14 26.96 190.62 27.48 191.27 27.48C191.89 27.48 192.4 26.96 192.4 26.35C192.4 25.73 191.88 25.23 191.27 25.23Z" fill="#D3D6D8"/>
<path d="M210.45 11.73V22.16H207.67V22.11C207.67 17.04 205.2 14.98 200.87 14.98C199.48 14.98 197.9 15.26 196.65 15.66L196.87 17.45C197.96 17.08 199.39 16.77 200.58 16.77C204.01 16.77 205.48 18.36 205.48 21.96V22.17H203.74V21.77C203.74 19.81 202.87 18.11 200.55 18.11C198.45 18.11 197.22 19.34 197.22 21.03C197.22 21.76 197.57 22.17 197.64 22.26C197.57 22.25 197.27 22.18 196.86 22.18H193.82V15.83H191.53V22.18H187.95V15.83H185.66V22.18H178.41V16.21C178.41 16.21 176.83 15.61 174.76 15.61C171.59 15.61 170.18 17.69 170.18 19.96C170.18 22.43 171.45 23.99 174.81 23.99H212.72V11.73H210.45ZM176.2 22.16H175.09C173.26 22.16 172.49 21.31 172.49 19.73C172.49 18.38 173.25 17.39 174.55 17.39C175.54 17.39 176.2 17.7 176.2 17.7V22.16ZM201.87 22.23H200.73C199.84 22.23 199.08 21.84 199.08 20.86C199.08 20.13 199.59 19.68 200.38 19.68C201.4 19.68 201.88 20.39 201.88 21.73V22.23H201.87Z" fill="#D3D6D8"/>
<path d="M215.51 11.73H217.8V23.96H215.51V11.73Z" fill="#D3D6D8"/>
<path d="M23.0401 31.42C22.4201 31.42 21.9101 31.94 21.9101 32.54C21.9101 33.15 22.4001 33.67 23.0401 33.67C23.6601 33.67 24.1701 33.15 24.1701 32.54C24.1701 31.92 23.6501 31.42 23.0401 31.42ZM20.2601 31.42C19.6401 31.42 19.1401 31.94 19.1401 32.54C19.1401 33.15 19.6001 33.67 20.2601 33.67C20.9001 33.67 21.3901 33.17 21.3901 32.54C21.3901 31.91 20.8901 31.42 20.2601 31.42Z" fill="#D3D6D8"/>
<path d="M40.68 34.16L38.44 34.47C38.74 35.79 38.95 37.39 38.95 39.12C38.95 39.66 38.92 40.5 38.85 41.2H38.38C36.78 41.2 36.32 40.92 36.32 39.55V35.2H34.12V39.12C34.12 40.8 33.61 41.34 32.71 41.34C31.69 41.34 31.51 40.66 31.51 39.1V35.89H29.22V39.05C29.22 40.75 28.78 41.2 27.66 41.2H25.5V35.23C25.5 35.23 23.92 34.62 21.86 34.62C18.68 34.62 17.28 36.7 17.28 38.98C17.28 41.45 18.55 43 21.91 43H27.64C28.91 43 29.6 42.58 29.95 41.79C30.23 42.62 31.15 43.14 32.28 43.14C33.64 43.14 34.55 42.55 34.9 41.8C35.41 42.76 36.33 43 38.15 43H41.01C41.17 41.77 41.25 40.22 41.25 38.96C41.24 37.24 41.01 35.55 40.68 34.16ZM23.28 41.21H22.17C20.35 41.21 19.57 40.36 19.57 38.78C19.57 37.42 20.33 36.44 21.63 36.44C22.62 36.44 23.28 36.75 23.28 36.75V41.21Z" fill="#D3D6D8"/>
<path d="M55.5402 31.42C54.9202 31.42 54.4102 31.94 54.4102 32.54C54.4102 33.15 54.8802 33.67 55.5402 33.67C56.1802 33.67 56.6702 33.17 56.6702 32.54C56.6602 31.91 56.1602 31.42 55.5402 31.42ZM58.3102 31.42C57.6902 31.42 57.1802 31.94 57.1802 32.54C57.1802 33.15 57.6602 33.67 58.3102 33.67C58.9302 33.67 59.4402 33.15 59.4402 32.54C59.4402 31.92 58.9202 31.42 58.3102 31.42Z" fill="#D3D6D8"/>
<path d="M75.36 30.78V41.21H72.19V38.62C72.19 36.2 70.98 34.63 68.27 34.63C65.26 34.63 63.76 36.65 63.76 38.85C63.76 40.64 63.09 41.21 62.04 41.21H61.44C60.83 41.21 60.1 41.29 60.1 41.29C60.76 40.74 61.1 39.68 61.1 38.67C61.1 35.91 59.52 34.63 57.08 34.63C54.44 34.63 52.66 36.45 52.66 38.95C52.66 39.94 52.94 40.75 53.48 41.29C53.48 41.29 52.94 41.21 52.4 41.21H50.65C50.44 37.34 48.45 35.38 44.87 34.44L44.32 36.35C47.06 37.04 48.31 38.64 48.41 41.21H43.27V43.01H62.29C63.75 43.01 64.44 42.48 64.76 41.67C65.37 42.47 66.15 43.01 68.64 43.01H77.66V30.78H75.36ZM56.87 41.21C55.6 41.21 54.96 40.39 54.96 38.76C54.96 37.13 55.92 36.44 56.91 36.44C58.21 36.44 58.81 37.27 58.81 38.79C58.81 40.4 57.97 41.21 56.87 41.21ZM69.95 41.21H68.63C66.83 41.21 66.03 40.41 66.03 38.78C66.03 37.42 66.79 36.44 68.09 36.44C69.25 36.44 69.95 37.17 69.95 38.9V41.21Z" fill="#D3D6D8"/>
<path d="M80.4302 30.78H82.7202V43.01H80.4302V30.78Z" fill="#D3D6D8"/>
<path d="M104.01 41.21V43.01H93.51V43.08C93.51 45.3 92.75 47.42 89.22 47.42C88.69 47.42 88.18 47.35 87.77 47.25L87.94 45.42C88.36 45.54 88.79 45.63 89.35 45.63C90.53 45.63 91.22 45.07 91.22 43.2V34.86H93.51V41.21H97.74C96.98 40.75 96.4 39.78 96.4 38.62C96.4 36.47 97.87 34.63 100.93 34.63C102.11 34.63 103.08 34.96 103.08 34.96L102.68 36.78C102.68 36.78 101.88 36.41 100.88 36.41C99.58 36.41 98.69 37.28 98.69 38.61C98.69 40.08 99.89 41.2 102.64 41.2H104.01V41.21Z" fill="#D3D6D8"/>
<path d="M116.41 31.5C115.79 31.5 115.28 32.02 115.28 32.63C115.28 33.25 115.79 33.76 116.41 33.76C117.02 33.76 117.54 33.24 117.54 32.63C117.54 32.01 117.02 31.5 116.41 31.5ZM117.85 29.23C117.23 29.23 116.72 29.75 116.72 30.36C116.72 30.98 117.23 31.49 117.85 31.49C118.47 31.49 118.98 30.96 118.98 30.36C118.98 29.73 118.47 29.23 117.85 29.23ZM119.28 31.5C118.67 31.5 118.15 32.02 118.15 32.63C118.15 33.25 118.67 33.76 119.28 33.76C119.9 33.76 120.4 33.24 120.4 32.63C120.4 32.01 119.9 31.5 119.28 31.5Z" fill="#D3D6D8"/>
<path d="M138.81 30.78V41.21H135.63V38.62C135.63 36.2 134.42 34.63 131.71 34.63C128.7 34.63 127.2 36.65 127.2 38.85C127.2 40.64 126.53 41.21 125.48 41.21H123.91C123.96 40.44 123.98 39.67 123.98 38.97C123.98 37.25 123.75 35.56 123.42 34.16L121.18 34.47C121.48 35.79 121.69 37.39 121.69 39.12C121.69 39.66 121.66 40.5 121.59 41.2H121.12C119.53 41.2 119.06 40.92 119.06 39.55V35.2H116.86V39.12C116.86 40.8 116.35 41.34 115.45 41.34C114.43 41.34 114.25 40.66 114.25 39.1V35.89H111.96V39.05C111.96 40.75 111.53 41.2 110.4 41.2H108.25V30.78H105.96V43.01H110.38C111.65 43.01 112.34 42.59 112.69 41.8C112.97 42.63 113.89 43.15 115.02 43.15C116.38 43.15 117.29 42.56 117.64 41.81C118.15 42.77 119.07 43.01 120.89 43.01H125.75C127.2 43.01 127.9 42.48 128.21 41.67C128.82 42.47 129.6 43.01 132.09 43.01H141.11V30.78H138.81ZM133.4 41.21H132.08C130.28 41.21 129.48 40.41 129.48 38.78C129.48 37.42 130.24 36.44 131.54 36.44C132.7 36.44 133.4 37.17 133.4 38.9V41.21Z" fill="#D3D6D8"/>
<path d="M143.87 30.78H146.16V43.01H143.87V30.78Z" fill="#D3D6D8"/>
<path d="M148.61 47.15L148.75 45.28C148.75 45.28 150.1 45.57 151.46 45.57C153.26 45.57 154.46 44.89 154.46 43.26V43H153.09C149.72 43 148.46 41.44 148.46 38.98C148.46 36.71 149.87 34.63 153.04 34.63C155.1 34.63 156.68 35.24 156.68 35.24V43.05C156.68 45.44 155.12 47.39 151.25 47.39C149.95 47.38 148.61 47.15 148.61 47.15ZM154.46 36.74C154.46 36.74 153.8 36.43 152.81 36.43C151.51 36.43 150.75 37.42 150.75 38.77C150.75 40.35 151.53 41.2 153.35 41.2H154.46V36.74Z" fill="#D3D6D8"/>
<path d="M168.49 31.42C167.87 31.42 167.36 31.94 167.36 32.54C167.36 33.15 167.85 33.67 168.49 33.67C169.12 33.67 169.62 33.15 169.62 32.54C169.62 31.92 169.1 31.42 168.49 31.42ZM165.71 31.42C165.09 31.42 164.59 31.94 164.59 32.54C164.59 33.15 165.05 33.67 165.71 33.67C166.35 33.67 166.84 33.17 166.84 32.54C166.84 31.91 166.34 31.42 165.71 31.42Z" fill="#D3D6D8"/>
<path d="M178.33 34.63C175.32 34.63 173.82 36.65 173.82 38.85C173.82 40.08 174.15 40.84 174.78 41.32C174.7 41.3 174.35 41.21 173.82 41.21H170.96V35.24C170.96 35.24 169.38 34.63 167.32 34.63C164.14 34.63 162.74 36.71 162.74 38.99C162.74 41.46 164.01 43.01 167.37 43.01H182.26V38.62C182.25 36.19 181.04 34.63 178.33 34.63ZM168.73 41.21H167.62C165.8 41.21 165.02 40.36 165.02 38.78C165.02 37.42 165.78 36.44 167.08 36.44C168.07 36.44 168.73 36.75 168.73 36.75V41.21ZM180.01 41.21H178.69C176.89 41.21 176.09 40.41 176.09 38.78C176.09 37.42 176.85 36.44 178.15 36.44C179.31 36.44 180.01 37.17 180.01 38.9V41.21Z" fill="#D3D6D8"/>
<path d="M210.44 30.78V41.21H207.27V38.62C207.27 36.2 206.06 34.63 203.35 34.63C200.34 34.63 198.84 36.65 198.84 38.85C198.84 40.64 198.17 41.21 197.12 41.21H196.22C196.05 37.88 194.57 36.14 192.38 35.15L196.62 32.6V30.33L189.74 34.63V36.31C192.5 36.95 193.89 38.51 193.98 41.21H187.99V34.86H185.7V43.2C185.7 45.07 185 45.63 183.82 45.63C183.27 45.63 182.83 45.54 182.41 45.42L182.24 47.25C182.66 47.35 183.16 47.42 183.69 47.42C187.21 47.42 187.98 45.3 187.98 43.08V43.01H197.35C198.81 43.01 199.5 42.48 199.82 41.67C200.43 42.47 201.21 43.01 203.7 43.01H212.72V30.78H210.44ZM205.03 41.21H203.71C201.91 41.21 201.11 40.41 201.11 38.78C201.11 37.42 201.88 36.44 203.18 36.44C204.34 36.44 205.04 37.17 205.04 38.9V41.21H205.03Z" fill="#D3D6D8"/>
<path d="M215.51 30.78H217.8V43.01H215.51V30.78Z" fill="#D3D6D8"/>
<path d="M286.92 66.58H283.46V70.04H286.92V66.58Z" fill="#D3D6D8"/>
<path d="M286.92 73.49H283.46V76.95H286.92V73.49Z" fill="#D3D6D8"/>
<path d="M255.81 59.66V73.48H252.35V66.57H235.07V76.94H280V66.57H262.72V73.48H259.26V63.12H286.91V59.66H255.81ZM248.9 73.49H238.53V70.04H248.9V73.49ZM266.18 70.03H276.55V73.48H266.18V70.03Z" fill="#D3D6D8"/>
<path d="M293.83 25.1H290.37V28.56H293.83V25.1Z" fill="#D3D6D8"/>
<path d="M300.75 25.1H297.29V28.56H300.75V25.1Z" fill="#D3D6D8"/>
<path d="M290.38 32.01V49.3H297.29V52.75H286.92V25.1H283.47V56.21H297.29V59.66H290.38V76.94H300.75V32.01H290.38ZM297.29 73.49H293.83V63.12H297.29V73.49ZM297.29 45.84H293.83V35.47H297.29V45.84Z" fill="#D3D6D8"/>
<path d="M252.36 18.19H248.9V21.65H252.36V18.19Z" fill="#D3D6D8"/>
<path d="M252.36 11.28H248.9V14.74H252.36V11.28Z" fill="#D3D6D8"/>
<path d="M255.81 11.28V21.65H273.09V14.74H276.55V25.1H248.9V28.56H280V14.74H283.46V21.65H300.74V11.28H255.81ZM269.64 18.19H259.27V14.74H269.64V18.19ZM297.29 18.19H286.92V14.74H297.29V18.19Z" fill="#D3D6D8"/>
<path d="M245.45 59.66H241.99V63.12H245.45V59.66Z" fill="#D3D6D8"/>
<path d="M238.54 59.66H235.08V63.12H238.54V59.66Z" fill="#D3D6D8"/>
<path d="M238.53 32.01V28.56H245.44V11.28H235.07V56.21H245.44V38.93H238.53V35.48H248.9V63.13H252.35V32.01H238.53ZM238.53 14.74H241.99V25.1H238.53V14.74ZM241.99 42.38V52.75H238.53V42.38H241.99Z" fill="#D3D6D8"/>
<path d="M272.329 40.03C272.669 40.75 272.869 41.55 272.949 42.3C272.109 41.22 271.099 40.27 270.009 39.55C270.099 39.67 270.189 39.8 270.269 39.93C271.159 41.38 271.009 43.29 270.489 44.84C270.169 43.38 269.609 41.96 268.889 40.74C268.719 40.46 268.549 40.19 268.359 39.92L268.619 46.45C268.619 46.68 268.349 47.1 267.899 47.1C267.449 47.1 267.179 46.69 267.179 46.45L267.439 39.93C267.249 40.19 267.069 40.46 266.909 40.74C266.189 41.96 265.629 43.38 265.309 44.84C264.799 43.29 264.639 41.37 265.529 39.93C265.609 39.8 265.699 39.67 265.789 39.55C264.709 40.27 263.689 41.22 262.849 42.3C263.019 40.8 263.629 39.1 264.969 38.25C265.419 37.97 265.899 37.78 266.399 37.68C266.399 37.65 266.399 37.66 266.399 37.63C266.109 37.65 265.829 37.67 265.539 37.72C264.289 37.91 263.089 38.27 261.939 38.81C262.779 37.53 264.109 36.57 265.359 36.4C265.559 36.37 265.769 36.36 265.979 36.37C265.229 35.99 264.409 35.67 263.569 35.45C264.709 35.14 265.949 35.21 267.019 35.68C267.329 34.36 267.889 33.58 267.889 33.58C267.889 33.58 268.449 34.36 268.759 35.68C269.829 35.2 271.069 35.14 272.209 35.45C271.369 35.67 270.549 35.99 269.799 36.37C270.009 36.36 270.219 36.37 270.419 36.4C271.049 36.48 271.699 36.76 272.289 37.19C272.889 37.61 273.429 38.17 273.849 38.81C272.699 38.27 271.499 37.91 270.249 37.72C269.959 37.68 269.679 37.65 269.389 37.63C269.389 37.67 269.389 37.65 269.389 37.68C269.889 37.78 270.369 37.97 270.819 38.25C271.499 38.68 271.989 39.31 272.329 40.03Z" fill="#D3D6D8"/>
<path d="M280 44.54C278.67 44.39 277.27 44.67 276.04 45.42L269.02 49.71L271.84 51.43L272.23 50.79C272.22 50.79 272.21 50.78 272.2 50.78C271.89 50.59 271.79 50.17 271.98 49.86C272.17 49.55 272.58 49.45 272.9 49.64C273.21 49.83 273.31 50.24 273.12 50.56L272.38 51.77L272.75 52L273.59 52.51C273.87 52.69 274.21 52.7 274.49 52.58C274.5 52.73 274.48 52.88 274.42 53.02C274.4 53.07 274.38 53.12 274.34 53.17C274.06 53.64 273.44 53.79 272.98 53.5L271.77 52.76L271.38 53.4C271.39 53.4 271.4 53.41 271.41 53.41C271.72 53.6 271.82 54.01 271.63 54.33C271.44 54.64 271.02 54.75 270.71 54.55C270.4 54.35 270.3 53.94 270.49 53.63L271.23 52.42L267.91 50.39L264.59 52.42L265.33 53.63C265.52 53.94 265.42 54.36 265.11 54.55C264.8 54.74 264.39 54.64 264.19 54.33C264 54.02 264.1 53.61 264.41 53.41C264.42 53.41 264.43 53.4 264.44 53.39L264.05 52.75L262.84 53.49C262.37 53.78 261.76 53.63 261.47 53.16C261.44 53.11 261.42 53.06 261.39 53.01C261.34 52.87 261.31 52.71 261.32 52.57C261.61 52.69 261.94 52.68 262.23 52.5L263.07 51.99L263.45 51.76L262.71 50.55C262.52 50.24 262.62 49.83 262.93 49.63C263.24 49.44 263.65 49.54 263.85 49.85C264.04 50.16 263.94 50.58 263.63 50.77C263.62 50.77 263.61 50.78 263.6 50.78L263.99 51.42L266.81 49.7L259.79 45.41C258.56 44.66 257.16 44.38 255.83 44.53C257.15 43.63 258.94 43.52 260.4 44.42L267.93 49.02L275.46 44.42C276.89 43.54 278.68 43.64 280 44.54Z" fill="#D3D6D8"/>
</g>
<defs>
<clipPath id="clip0_226_663">
<rect width="318.02" height="100.33" fill="white" transform="translate(0 -6)"/>
</clipPath>
</defs>
</svg>
