<svg width="319" height="96" viewBox="0 0 319 96" fill="none" xmlns="http://www.w3.org/2000/svg">
<g clip-path="url(#clip0_226_563)">
<path d="M90.7302 64.07C90.6602 64.07 90.6102 64.03 90.5802 63.96L88.8102 60.3H88.6902H86.5202C86.4702 60.3 86.4502 60.32 86.4502 60.37V63.95C86.4502 64.03 86.4102 64.07 86.3202 64.07H85.8502C85.7702 64.07 85.7202 64.03 85.7202 63.95V55.75C85.7202 55.67 85.7602 55.63 85.8402 55.63H88.6802C89.4802 55.63 90.1202 55.84 90.5702 56.25C91.0302 56.66 91.2502 57.24 91.2502 57.96C91.2502 58.55 91.1002 59.03 90.8002 59.42C90.5002 59.81 90.0702 60.06 89.5302 60.2L91.3702 63.94C91.3902 63.98 91.4002 64.01 91.3902 64.04C91.3802 64.06 91.3502 64.08 91.3102 64.08H90.7302V64.07ZM88.6802 59.62C89.2802 59.62 89.7402 59.48 90.0702 59.19C90.3902 58.9 90.5502 58.49 90.5502 57.95C90.5502 57.42 90.3902 57.01 90.0702 56.72C89.7502 56.43 89.2902 56.29 88.6802 56.29H86.5302C86.4802 56.29 86.4602 56.31 86.4602 56.36V59.54C86.4602 59.59 86.4802 59.61 86.5302 59.61H88.6802V59.62Z" fill="#88774F"/>
<path d="M96.03 64.19C95.33 64.19 94.76 64.03 94.3 63.71C93.84 63.39 93.51 62.92 93.3 62.29C93.26 62.18 93.22 62.06 93.19 61.92C93.16 61.78 93.14 61.62 93.12 61.44C93.1 61.25 93.08 61.03 93.07 60.78C93.06 60.52 93.05 60.21 93.05 59.85C93.05 59.49 93.06 59.18 93.07 58.92C93.08 58.66 93.1 58.44 93.12 58.26C93.14 58.07 93.17 57.91 93.19 57.78C93.22 57.65 93.25 57.52 93.3 57.41C93.51 56.79 93.84 56.32 94.3 55.99C94.76 55.67 95.34 55.51 96.03 55.51C96.72 55.51 97.29 55.67 97.75 55.99C98.21 56.31 98.54 56.78 98.75 57.41C98.78 57.53 98.82 57.65 98.85 57.78C98.88 57.91 98.91 58.07 98.93 58.26C98.95 58.45 98.97 58.67 98.98 58.92C99 59.17 99 59.48 99 59.84C99 60.2 98.99 60.52 98.98 60.77C98.97 61.03 98.95 61.25 98.93 61.43C98.91 61.62 98.88 61.78 98.85 61.91C98.82 62.05 98.78 62.17 98.75 62.28C98.54 62.9 98.21 63.37 97.75 63.7C97.29 64.03 96.72 64.19 96.03 64.19ZM98.28 59.84C98.28 59.5 98.27 59.21 98.26 58.96C98.25 58.71 98.23 58.5 98.22 58.33C98.2 58.16 98.18 58.01 98.15 57.9C98.12 57.78 98.09 57.68 98.07 57.6C97.76 56.65 97.08 56.17 96.03 56.17C94.98 56.17 94.3 56.65 93.98 57.6C93.96 57.68 93.93 57.78 93.9 57.9C93.87 58.02 93.85 58.16 93.83 58.33C93.81 58.5 93.8 58.71 93.79 58.96C93.78 59.21 93.77 59.5 93.77 59.84C93.77 60.18 93.78 60.47 93.79 60.72C93.8 60.97 93.82 61.18 93.83 61.35C93.85 61.52 93.87 61.67 93.9 61.78C93.93 61.9 93.96 62 93.98 62.08C94.29 63.03 94.98 63.51 96.03 63.51C97.07 63.51 97.75 63.03 98.07 62.08C98.09 62 98.12 61.9 98.15 61.78C98.18 61.66 98.2 61.52 98.22 61.35C98.24 61.18 98.25 60.97 98.26 60.72C98.27 60.47 98.28 60.18 98.28 59.84Z" fill="#88774F"/>
<path d="M102.7 64.07C102.62 64.07 102.57 64.03 102.57 63.95V60.6L100.04 55.76C100.02 55.73 100.03 55.7 100.05 55.67C100.07 55.64 100.1 55.63 100.14 55.63H100.62C100.7 55.63 100.76 55.67 100.81 55.75L102.94 59.79H102.98L105.07 55.75C105.11 55.67 105.17 55.63 105.26 55.63H105.73C105.78 55.63 105.81 55.64 105.83 55.67C105.85 55.7 105.85 55.73 105.83 55.76L103.3 60.6V63.94C103.3 64.02 103.26 64.06 103.17 64.06H102.7V64.07Z" fill="#88774F"/>
<path d="M108.78 55.74C108.8 55.66 108.85 55.62 108.93 55.62H109.38C109.45 55.62 109.5 55.66 109.53 55.74L112.46 63.94C112.48 64.02 112.46 64.06 112.37 64.06H111.89C111.8 64.06 111.74 64.02 111.73 63.94L110.98 61.87H107.3L106.55 63.94C106.52 64.02 106.46 64.06 106.39 64.06H105.91C105.83 64.06 105.8 64.02 105.82 63.94L108.78 55.74ZM110.74 61.17L109.16 56.76H109.12L107.53 61.17H110.74Z" fill="#88774F"/>
<path d="M114.18 55.74C114.18 55.66 114.22 55.62 114.31 55.62H114.78C114.86 55.62 114.91 55.66 114.91 55.74V63.32C114.91 63.37 114.93 63.39 114.98 63.39H119.15C119.23 63.39 119.27 63.43 119.27 63.51V63.93C119.27 64.01 119.23 64.05 119.15 64.05H114.31C114.23 64.05 114.18 64.01 114.18 63.93V55.74Z" fill="#88774F"/>
<path d="M124.1 62.3C124.07 62.19 124.04 62.07 124.01 61.95C123.98 61.82 123.96 61.66 123.94 61.47C123.92 61.28 123.91 61.05 123.9 60.79C123.89 60.53 123.88 60.21 123.88 59.84C123.88 59.47 123.89 59.15 123.9 58.89C123.91 58.63 123.93 58.4 123.94 58.21C123.96 58.02 123.98 57.86 124.01 57.73C124.04 57.6 124.07 57.48 124.1 57.38C124.32 56.74 124.65 56.27 125.09 55.96C125.54 55.65 126.1 55.49 126.77 55.49C127.35 55.49 127.86 55.62 128.3 55.88C128.74 56.14 129.08 56.53 129.32 57.05C129.35 57.12 129.34 57.18 129.28 57.21L128.87 57.41C128.8 57.45 128.75 57.43 128.71 57.36C128.52 57 128.27 56.7 127.96 56.48C127.65 56.26 127.25 56.15 126.77 56.15C126.25 56.15 125.83 56.27 125.51 56.5C125.19 56.74 124.95 57.09 124.78 57.55C124.76 57.63 124.73 57.73 124.71 57.85C124.69 57.97 124.66 58.11 124.65 58.28C124.64 58.45 124.62 58.66 124.61 58.91C124.6 59.16 124.6 59.46 124.6 59.82C124.6 60.18 124.6 60.48 124.61 60.73C124.62 60.98 124.63 61.19 124.65 61.36C124.67 61.53 124.69 61.68 124.71 61.79C124.73 61.91 124.76 62.01 124.78 62.09C124.95 62.55 125.19 62.9 125.51 63.14C125.83 63.38 126.25 63.49 126.77 63.49C127.25 63.49 127.65 63.38 127.96 63.16C128.27 62.94 128.52 62.65 128.71 62.28C128.75 62.21 128.8 62.19 128.87 62.23L129.28 62.43C129.34 62.46 129.35 62.52 129.32 62.59C129.08 63.11 128.74 63.5 128.3 63.76C127.86 64.02 127.35 64.15 126.77 64.15C126.1 64.15 125.54 63.99 125.09 63.68C124.65 63.41 124.32 62.94 124.1 62.3Z" fill="#88774F"/>
<path d="M133.85 64.19C133.15 64.19 132.58 64.03 132.12 63.71C131.66 63.39 131.33 62.92 131.12 62.29C131.08 62.18 131.04 62.06 131.01 61.92C130.98 61.78 130.96 61.62 130.94 61.44C130.92 61.25 130.9 61.03 130.89 60.78C130.88 60.52 130.87 60.21 130.87 59.85C130.87 59.49 130.88 59.18 130.89 58.92C130.9 58.66 130.92 58.44 130.94 58.26C130.96 58.07 130.99 57.91 131.01 57.78C131.04 57.65 131.07 57.52 131.12 57.41C131.33 56.79 131.66 56.32 132.12 55.99C132.58 55.67 133.16 55.51 133.85 55.51C134.54 55.51 135.11 55.67 135.57 55.99C136.03 56.31 136.36 56.78 136.57 57.41C136.6 57.53 136.64 57.65 136.67 57.78C136.7 57.91 136.73 58.07 136.75 58.26C136.77 58.45 136.79 58.67 136.8 58.92C136.81 59.18 136.82 59.49 136.82 59.85C136.82 60.21 136.81 60.53 136.8 60.78C136.79 61.04 136.77 61.26 136.75 61.44C136.73 61.63 136.7 61.79 136.67 61.92C136.64 62.05 136.6 62.18 136.57 62.29C136.36 62.91 136.03 63.38 135.57 63.71C135.11 64.03 134.54 64.19 133.85 64.19ZM136.1 59.84C136.1 59.5 136.09 59.21 136.08 58.96C136.07 58.71 136.05 58.5 136.04 58.33C136.02 58.16 136 58.01 135.97 57.9C135.94 57.78 135.91 57.68 135.89 57.6C135.58 56.65 134.9 56.17 133.85 56.17C132.8 56.17 132.12 56.65 131.8 57.6C131.78 57.68 131.75 57.78 131.72 57.9C131.69 58.02 131.67 58.16 131.65 58.33C131.63 58.5 131.62 58.71 131.61 58.96C131.6 59.21 131.59 59.5 131.59 59.84C131.59 60.18 131.6 60.47 131.61 60.72C131.62 60.97 131.64 61.18 131.65 61.35C131.67 61.52 131.69 61.67 131.72 61.78C131.75 61.9 131.78 62 131.8 62.08C132.11 63.03 132.8 63.51 133.85 63.51C134.89 63.51 135.57 63.03 135.89 62.08C135.91 62 135.94 61.9 135.97 61.78C136 61.66 136.02 61.52 136.04 61.35C136.06 61.18 136.07 60.97 136.08 60.72C136.09 60.48 136.1 60.18 136.1 59.84Z" fill="#88774F"/>
<path d="M138.86 55.74C138.86 55.66 138.9 55.62 138.99 55.62H139.47C139.56 55.62 139.63 55.66 139.66 55.74L142.4 61.79H142.45L145.13 55.74C145.16 55.66 145.22 55.62 145.31 55.62H145.8C145.88 55.62 145.93 55.66 145.93 55.74V63.94C145.93 64.02 145.89 64.06 145.8 64.06H145.33C145.25 64.06 145.2 64.02 145.2 63.94V57.33H145.16L142.73 62.68C142.71 62.73 142.68 62.76 142.65 62.79C142.62 62.81 142.57 62.82 142.51 62.82H142.26C142.16 62.82 142.09 62.77 142.05 62.68L139.62 57.33H139.58V63.94C139.58 64.02 139.54 64.06 139.45 64.06H138.98C138.9 64.06 138.85 64.02 138.85 63.94V55.74H138.86Z" fill="#88774F"/>
<path d="M148.22 55.74C148.22 55.66 148.26 55.62 148.35 55.62H148.83C148.92 55.62 148.99 55.66 149.02 55.74L151.76 61.79H151.81L154.49 55.74C154.52 55.66 154.58 55.62 154.67 55.62H155.16C155.24 55.62 155.29 55.66 155.29 55.74V63.94C155.29 64.02 155.25 64.06 155.16 64.06H154.69C154.61 64.06 154.56 64.02 154.56 63.94V57.33H154.52L152.09 62.68C152.07 62.73 152.04 62.76 152.01 62.79C151.98 62.81 151.93 62.82 151.87 62.82H151.62C151.52 62.82 151.45 62.77 151.41 62.68L148.98 57.33H148.94V63.94C148.94 64.02 148.9 64.06 148.81 64.06H148.34C148.26 64.06 148.21 64.02 148.21 63.94V55.74H148.22Z" fill="#88774F"/>
<path d="M157.57 55.74C157.57 55.66 157.61 55.62 157.7 55.62H158.17C158.25 55.62 158.3 55.66 158.3 55.74V63.94C158.3 64.02 158.26 64.06 158.17 64.06H157.7C157.62 64.06 157.57 64.02 157.57 63.94V55.74Z" fill="#88774F"/>
<path d="M163.05 64.19C162.78 64.19 162.5 64.16 162.23 64.11C161.96 64.06 161.7 63.98 161.45 63.89C161.21 63.8 160.98 63.69 160.78 63.57C160.58 63.45 160.4 63.33 160.25 63.2C160.18 63.14 160.18 63.08 160.24 63.03L160.54 62.66C160.6 62.59 160.66 62.59 160.71 62.65C160.99 62.87 161.34 63.06 161.76 63.25C162.18 63.43 162.64 63.52 163.13 63.52C163.81 63.52 164.34 63.36 164.73 63.05C165.12 62.74 165.31 62.32 165.31 61.8C165.31 61.59 165.28 61.4 165.21 61.22C165.14 61.04 165.03 60.88 164.88 60.74C164.73 60.6 164.52 60.48 164.26 60.38C164 60.28 163.67 60.21 163.29 60.16L162.9 60.11C162.07 60 161.46 59.76 161.06 59.38C160.66 59 160.46 58.5 160.46 57.88C160.46 57.14 160.7 56.56 161.18 56.14C161.66 55.72 162.31 55.51 163.12 55.51C163.59 55.51 164.04 55.57 164.46 55.7C164.88 55.83 165.24 56 165.53 56.22C165.6 56.26 165.61 56.32 165.55 56.39L165.3 56.77C165.25 56.83 165.19 56.84 165.13 56.79C164.79 56.58 164.46 56.43 164.13 56.32C163.8 56.22 163.45 56.16 163.09 56.16C162.49 56.16 162.02 56.31 161.68 56.61C161.35 56.91 161.18 57.31 161.18 57.81C161.18 58.24 161.33 58.59 161.63 58.87C161.93 59.14 162.44 59.33 163.16 59.42L163.54 59.47C164.4 59.59 165.03 59.84 165.42 60.22C165.81 60.61 166.01 61.11 166.01 61.74C166.01 62.1 165.95 62.42 165.82 62.72C165.69 63.02 165.5 63.28 165.25 63.5C165 63.72 164.69 63.89 164.32 64.01C163.95 64.13 163.54 64.19 163.05 64.19Z" fill="#88774F"/>
<path d="M170.49 64.19C170.22 64.19 169.94 64.16 169.67 64.11C169.4 64.06 169.14 63.98 168.89 63.89C168.65 63.8 168.42 63.69 168.22 63.57C168.02 63.45 167.84 63.33 167.69 63.2C167.62 63.14 167.62 63.08 167.68 63.03L167.98 62.66C168.04 62.59 168.1 62.59 168.15 62.65C168.43 62.87 168.78 63.06 169.2 63.25C169.62 63.43 170.08 63.52 170.57 63.52C171.25 63.52 171.78 63.36 172.17 63.05C172.56 62.74 172.75 62.32 172.75 61.8C172.75 61.59 172.72 61.4 172.65 61.22C172.58 61.04 172.47 60.88 172.32 60.74C172.17 60.6 171.96 60.48 171.7 60.38C171.44 60.28 171.11 60.21 170.73 60.16L170.34 60.11C169.51 60 168.9 59.76 168.5 59.38C168.1 59 167.9 58.5 167.9 57.88C167.9 57.14 168.14 56.56 168.62 56.14C169.1 55.72 169.75 55.51 170.56 55.51C171.03 55.51 171.48 55.57 171.9 55.7C172.32 55.83 172.68 56 172.97 56.22C173.04 56.26 173.05 56.32 172.99 56.39L172.74 56.77C172.69 56.83 172.63 56.84 172.57 56.79C172.23 56.58 171.9 56.43 171.57 56.32C171.24 56.22 170.89 56.16 170.53 56.16C169.93 56.16 169.46 56.31 169.12 56.61C168.79 56.91 168.62 57.31 168.62 57.81C168.62 58.24 168.77 58.59 169.07 58.87C169.37 59.14 169.88 59.33 170.6 59.42L170.98 59.47C171.84 59.59 172.47 59.84 172.86 60.22C173.25 60.61 173.45 61.11 173.45 61.74C173.45 62.1 173.39 62.42 173.26 62.72C173.13 63.02 172.94 63.28 172.69 63.5C172.44 63.72 172.13 63.89 171.76 64.01C171.39 64.13 170.98 64.19 170.49 64.19Z" fill="#88774F"/>
<path d="M175.4 55.74C175.4 55.66 175.44 55.62 175.53 55.62H176C176.08 55.62 176.13 55.66 176.13 55.74V63.94C176.13 64.02 176.09 64.06 176 64.06H175.53C175.45 64.06 175.4 64.02 175.4 63.94V55.74Z" fill="#88774F"/>
<path d="M181.13 64.19C180.43 64.19 179.86 64.03 179.4 63.71C178.94 63.39 178.61 62.92 178.4 62.29C178.36 62.18 178.32 62.06 178.29 61.92C178.26 61.78 178.24 61.62 178.22 61.44C178.2 61.25 178.18 61.03 178.17 60.78C178.16 60.52 178.15 60.21 178.15 59.85C178.15 59.49 178.16 59.18 178.17 58.92C178.18 58.66 178.2 58.44 178.22 58.26C178.24 58.07 178.27 57.91 178.29 57.78C178.32 57.65 178.35 57.52 178.4 57.41C178.61 56.79 178.94 56.32 179.4 55.99C179.86 55.67 180.44 55.51 181.13 55.51C181.82 55.51 182.39 55.67 182.85 55.99C183.31 56.31 183.64 56.78 183.85 57.41C183.88 57.53 183.92 57.65 183.95 57.78C183.98 57.91 184.01 58.07 184.03 58.26C184.05 58.45 184.07 58.67 184.08 58.92C184.09 59.18 184.1 59.49 184.1 59.85C184.1 60.21 184.09 60.53 184.08 60.78C184.07 61.04 184.05 61.26 184.03 61.44C184.01 61.63 183.98 61.79 183.95 61.92C183.92 62.06 183.88 62.18 183.85 62.29C183.64 62.91 183.31 63.38 182.85 63.71C182.39 64.03 181.82 64.19 181.13 64.19ZM183.38 59.84C183.38 59.5 183.37 59.21 183.36 58.96C183.35 58.71 183.33 58.5 183.32 58.33C183.3 58.16 183.28 58.01 183.25 57.9C183.22 57.78 183.19 57.68 183.17 57.6C182.86 56.65 182.18 56.17 181.13 56.17C180.08 56.17 179.39 56.65 179.08 57.6C179.06 57.68 179.03 57.78 179 57.9C178.97 58.02 178.95 58.16 178.93 58.33C178.91 58.5 178.9 58.71 178.89 58.96C178.88 59.21 178.87 59.5 178.87 59.84C178.87 60.18 178.88 60.47 178.89 60.72C178.9 60.97 178.92 61.18 178.93 61.35C178.95 61.52 178.97 61.67 179 61.78C179.03 61.9 179.06 62 179.08 62.08C179.39 63.03 180.08 63.51 181.13 63.51C182.17 63.51 182.85 63.03 183.17 62.08C183.19 62 183.22 61.9 183.25 61.78C183.28 61.66 183.3 61.52 183.32 61.35C183.34 61.18 183.35 60.97 183.36 60.72C183.37 60.48 183.38 60.18 183.38 59.84Z" fill="#88774F"/>
<path d="M186.14 55.74C186.14 55.66 186.18 55.62 186.27 55.62H186.74C186.84 55.62 186.91 55.66 186.95 55.74L191.15 62.68H191.19V55.74C191.19 55.66 191.23 55.62 191.32 55.62H191.79C191.87 55.62 191.92 55.66 191.92 55.74V63.94C191.92 64.02 191.88 64.06 191.8 64.06H191.32C191.23 64.06 191.16 64.02 191.11 63.94L186.94 56.98H186.89V63.94C186.89 64.02 186.85 64.06 186.76 64.06H186.29C186.21 64.06 186.16 64.02 186.16 63.94V55.74H186.14Z" fill="#88774F"/>
<path d="M197.7 55.74C197.7 55.66 197.74 55.62 197.83 55.62H202.67C202.75 55.62 202.79 55.66 202.79 55.74V56.16C202.79 56.24 202.75 56.28 202.67 56.28H198.5C198.45 56.28 198.43 56.3 198.43 56.35V59.44C198.43 59.49 198.45 59.51 198.5 59.51H202.09C202.17 59.51 202.21 59.55 202.21 59.63V60.05C202.21 60.13 202.17 60.17 202.09 60.17H198.5C198.45 60.17 198.43 60.19 198.43 60.24V63.9C198.43 63.98 198.39 64.02 198.3 64.02H197.83C197.75 64.02 197.7 63.98 197.7 63.9V55.74Z" fill="#88774F"/>
<path d="M207.12 64.19C206.42 64.19 205.85 64.03 205.39 63.71C204.93 63.39 204.6 62.92 204.39 62.29C204.35 62.18 204.31 62.06 204.28 61.92C204.25 61.78 204.23 61.62 204.21 61.44C204.19 61.25 204.17 61.03 204.16 60.78C204.15 60.52 204.14 60.21 204.14 59.85C204.14 59.49 204.15 59.18 204.16 58.92C204.17 58.66 204.19 58.44 204.21 58.26C204.23 58.07 204.26 57.91 204.28 57.78C204.31 57.65 204.34 57.52 204.39 57.41C204.6 56.79 204.93 56.32 205.39 55.99C205.85 55.67 206.43 55.51 207.12 55.51C207.81 55.51 208.38 55.67 208.84 55.99C209.3 56.31 209.63 56.78 209.84 57.41C209.87 57.53 209.91 57.65 209.94 57.78C209.97 57.91 210 58.07 210.02 58.26C210.04 58.45 210.06 58.67 210.07 58.92C210.08 59.18 210.09 59.49 210.09 59.85C210.09 60.21 210.08 60.53 210.07 60.78C210.06 61.04 210.04 61.26 210.02 61.44C210 61.63 209.97 61.79 209.94 61.92C209.91 62.06 209.87 62.18 209.84 62.29C209.63 62.91 209.3 63.38 208.84 63.71C208.38 64.03 207.81 64.19 207.12 64.19ZM209.37 59.84C209.37 59.5 209.36 59.21 209.35 58.96C209.34 58.71 209.32 58.5 209.31 58.33C209.29 58.16 209.27 58.01 209.24 57.9C209.21 57.78 209.18 57.68 209.16 57.6C208.85 56.65 208.17 56.17 207.12 56.17C206.07 56.17 205.38 56.65 205.07 57.6C205.05 57.68 205.02 57.78 204.99 57.9C204.96 58.02 204.94 58.16 204.92 58.33C204.9 58.5 204.89 58.71 204.88 58.96C204.87 59.21 204.86 59.5 204.86 59.84C204.86 60.18 204.87 60.47 204.88 60.72C204.89 60.97 204.91 61.18 204.92 61.35C204.94 61.52 204.96 61.67 204.99 61.78C205.02 61.9 205.05 62 205.07 62.08C205.38 63.03 206.07 63.51 207.12 63.51C208.16 63.51 208.84 63.03 209.16 62.08C209.18 62 209.21 61.9 209.24 61.78C209.27 61.66 209.29 61.52 209.31 61.35C209.33 61.18 209.34 60.97 209.35 60.72C209.36 60.48 209.37 60.18 209.37 59.84Z" fill="#88774F"/>
<path d="M217.13 64.07C217.06 64.07 217.01 64.03 216.98 63.96L215.21 60.3H215.09H212.92C212.87 60.3 212.85 60.32 212.85 60.37V63.95C212.85 64.03 212.81 64.07 212.72 64.07H212.25C212.17 64.07 212.12 64.03 212.12 63.95V55.75C212.12 55.67 212.16 55.63 212.24 55.63H215.08C215.88 55.63 216.52 55.84 216.97 56.25C217.43 56.66 217.65 57.24 217.65 57.96C217.65 58.55 217.5 59.03 217.2 59.42C216.9 59.81 216.47 60.06 215.93 60.2L217.77 63.94C217.79 63.98 217.8 64.01 217.79 64.04C217.78 64.06 217.75 64.08 217.71 64.08H217.13V64.07ZM215.07 59.62C215.67 59.62 216.13 59.48 216.46 59.19C216.78 58.9 216.94 58.49 216.94 57.95C216.94 57.42 216.78 57.01 216.46 56.72C216.14 56.43 215.68 56.29 215.07 56.29H212.92C212.87 56.29 212.85 56.31 212.85 56.36V59.54C212.85 59.59 212.87 59.61 212.92 59.61H215.07V59.62Z" fill="#88774F"/>
<path d="M50.4001 69.61C50.4001 69.53 50.4401 69.49 50.5301 69.49H51.0101C51.1001 69.49 51.1701 69.53 51.2001 69.61L53.9401 75.66H53.9901L56.6701 69.61C56.7001 69.53 56.7601 69.49 56.8501 69.49H57.3401C57.4201 69.49 57.4701 69.53 57.4701 69.61V77.81C57.4701 77.89 57.4301 77.93 57.3401 77.93H56.8701C56.7901 77.93 56.7401 77.89 56.7401 77.81V71.2H56.7001L54.2701 76.55C54.2501 76.6 54.2201 76.63 54.1901 76.66C54.1601 76.68 54.1101 76.69 54.0501 76.69H53.8001C53.7001 76.69 53.6301 76.64 53.5901 76.55L51.1601 71.2H51.1201V77.81C51.1201 77.89 51.0801 77.93 50.9901 77.93H50.5201C50.4401 77.93 50.3901 77.89 50.3901 77.81V69.61H50.4001Z" fill="#88774F"/>
<path d="M62.1401 69.61C62.1601 69.53 62.2101 69.49 62.2901 69.49H62.7401C62.8101 69.49 62.8601 69.53 62.8901 69.61L65.8201 77.81C65.8401 77.89 65.8201 77.93 65.7301 77.93H65.2501C65.1601 77.93 65.1001 77.89 65.0901 77.81L64.3401 75.74H60.6601L59.9101 77.81C59.8801 77.89 59.8201 77.93 59.7501 77.93H59.2701C59.1901 77.93 59.1601 77.89 59.1801 77.81L62.1401 69.61ZM64.1001 75.04L62.5201 70.63H62.4801L60.8901 75.04H64.1001Z" fill="#88774F"/>
<path d="M67.5303 69.61C67.5303 69.53 67.5703 69.49 67.6603 69.49H68.1302C68.2102 69.49 68.2603 69.53 68.2603 69.61V74.48L72.2803 69.6C72.3503 69.53 72.4202 69.49 72.4902 69.49H73.0703C73.1103 69.49 73.1403 69.5 73.1503 69.53C73.1603 69.56 73.1503 69.59 73.1203 69.62L70.4502 72.81L73.3303 77.79C73.3503 77.83 73.3603 77.86 73.3503 77.89C73.3403 77.91 73.3102 77.93 73.2702 77.93H72.7103C72.6403 77.93 72.5702 77.89 72.5202 77.82L69.9703 73.39L68.2402 75.45V77.81C68.2402 77.89 68.2003 77.93 68.1103 77.93H67.6403C67.5603 77.93 67.5103 77.89 67.5103 77.81V69.61H67.5303Z" fill="#88774F"/>
<path d="M75.1001 69.61C75.1001 69.53 75.1401 69.49 75.2301 69.49H75.7001C75.7801 69.49 75.8301 69.53 75.8301 69.61V74.48L79.8501 69.6C79.9201 69.53 79.9901 69.49 80.0601 69.49H80.6401C80.6801 69.49 80.7101 69.5 80.7201 69.53C80.7301 69.56 80.7201 69.59 80.6901 69.62L78.0201 72.81L80.9001 77.79C80.9201 77.83 80.9301 77.86 80.9201 77.89C80.9101 77.91 80.8801 77.93 80.8401 77.93H80.2801C80.2101 77.93 80.1401 77.89 80.0901 77.82L77.5401 73.39L75.8101 75.45V77.81C75.8101 77.89 75.7701 77.93 75.6801 77.93H75.2101C75.1301 77.93 75.0801 77.89 75.0801 77.81V69.61H75.1001Z" fill="#88774F"/>
<path d="M85.2502 69.61C85.2702 69.53 85.3202 69.49 85.4002 69.49H85.8502C85.9202 69.49 85.9702 69.53 86.0002 69.61L88.9302 77.81C88.9502 77.89 88.9302 77.93 88.8402 77.93H88.3602C88.2702 77.93 88.2102 77.89 88.2002 77.81L87.4502 75.74H83.7702L83.0202 77.81C82.9902 77.89 82.9302 77.93 82.8602 77.93H82.3802C82.3002 77.93 82.2702 77.89 82.2902 77.81L85.2502 69.61ZM87.2102 75.04L85.6302 70.63H85.5902L84.0002 75.04H87.2102Z" fill="#88774F"/>
<path d="M90.6501 69.61C90.6501 69.53 90.6901 69.49 90.7801 69.49H91.2501C91.3301 69.49 91.3801 69.53 91.3801 69.61V73.24C91.3801 73.29 91.4001 73.31 91.4501 73.31H95.6101C95.6601 73.31 95.6801 73.29 95.6801 73.24V69.61C95.6801 69.53 95.7201 69.49 95.8101 69.49H96.2801C96.3601 69.49 96.4101 69.53 96.4101 69.61V77.81C96.4101 77.89 96.3701 77.93 96.2801 77.93H95.8001C95.7201 77.93 95.6701 77.89 95.6701 77.81V74.06C95.6701 74.01 95.6501 73.99 95.6001 73.99H91.4401C91.3901 73.99 91.3701 74.01 91.3701 74.06V77.81C91.3701 77.89 91.3301 77.93 91.2401 77.93H90.7701C90.6901 77.93 90.6401 77.89 90.6401 77.81V69.61H90.6501Z" fill="#88774F"/>
<path d="M102.06 76.17C102.03 76.06 102 75.94 101.97 75.82C101.94 75.69 101.92 75.53 101.9 75.34C101.88 75.15 101.87 74.92 101.86 74.66C101.85 74.4 101.84 74.08 101.84 73.71C101.84 73.34 101.85 73.02 101.86 72.76C101.87 72.5 101.89 72.27 101.9 72.08C101.92 71.89 101.94 71.73 101.97 71.6C102 71.47 102.03 71.35 102.06 71.25C102.28 70.61 102.61 70.14 103.05 69.83C103.5 69.52 104.06 69.36 104.73 69.36C105.31 69.36 105.82 69.49 106.26 69.75C106.7 70.01 107.04 70.4 107.28 70.92C107.31 70.99 107.3 71.05 107.24 71.08L106.83 71.28C106.76 71.32 106.71 71.3 106.67 71.23C106.48 70.87 106.23 70.57 105.92 70.35C105.61 70.13 105.21 70.02 104.73 70.02C104.21 70.02 103.79 70.14 103.47 70.37C103.15 70.61 102.91 70.96 102.74 71.42C102.72 71.5 102.69 71.6 102.67 71.72C102.65 71.84 102.62 71.98 102.61 72.15C102.59 72.32 102.58 72.53 102.57 72.78C102.56 73.03 102.56 73.33 102.56 73.69C102.56 74.05 102.56 74.35 102.57 74.6C102.58 74.85 102.59 75.06 102.61 75.23C102.63 75.4 102.65 75.55 102.67 75.66C102.69 75.78 102.72 75.88 102.74 75.96C102.91 76.42 103.15 76.77 103.47 77.01C103.79 77.25 104.21 77.36 104.73 77.36C105.21 77.36 105.61 77.25 105.92 77.03C106.23 76.81 106.48 76.52 106.67 76.15C106.71 76.08 106.76 76.06 106.83 76.1L107.24 76.3C107.3 76.33 107.31 76.39 107.28 76.46C107.04 76.98 106.7 77.37 106.26 77.63C105.82 77.89 105.31 78.02 104.73 78.02C104.06 78.02 103.5 77.86 103.05 77.55C102.61 77.28 102.28 76.81 102.06 76.17Z" fill="#88774F"/>
<path d="M109.14 69.61C109.14 69.53 109.18 69.49 109.27 69.49H109.74C109.82 69.49 109.87 69.53 109.87 69.61V77.81C109.87 77.89 109.83 77.93 109.74 77.93H109.27C109.19 77.93 109.14 77.89 109.14 77.81V69.61Z" fill="#88774F"/>
<path d="M114.28 77.93C114.2 77.93 114.15 77.89 114.15 77.81V70.23C114.15 70.18 114.13 70.16 114.08 70.16H111.65C111.57 70.16 111.53 70.12 111.53 70.04V69.62C111.53 69.54 111.57 69.5 111.65 69.5H117.39C117.47 69.5 117.51 69.54 117.51 69.62V70.04C117.51 70.12 117.47 70.16 117.39 70.16H114.96C114.91 70.16 114.89 70.18 114.89 70.23V77.81C114.89 77.89 114.85 77.93 114.76 77.93H114.28Z" fill="#88774F"/>
<path d="M121.41 77.93C121.33 77.93 121.28 77.89 121.28 77.81V74.47L118.75 69.63C118.73 69.6 118.74 69.57 118.76 69.54C118.78 69.51 118.81 69.5 118.85 69.5H119.33C119.41 69.5 119.47 69.54 119.52 69.62L121.65 73.66H121.69L123.78 69.62C123.82 69.54 123.88 69.5 123.97 69.5H124.44C124.49 69.5 124.52 69.51 124.54 69.54C124.56 69.57 124.56 69.6 124.54 69.63L122.01 74.47V77.81C122.01 77.89 121.97 77.93 121.88 77.93H121.41Z" fill="#88774F"/>
<path d="M131.66 69.61C131.68 69.53 131.73 69.49 131.81 69.49H132.26C132.33 69.49 132.38 69.53 132.41 69.61L135.34 77.81C135.36 77.89 135.34 77.93 135.25 77.93H134.77C134.68 77.93 134.62 77.89 134.61 77.81L133.86 75.74H130.18L129.43 77.81C129.4 77.89 129.34 77.93 129.27 77.93H128.79C128.71 77.93 128.68 77.89 128.7 77.81L131.66 69.61ZM133.62 75.04L132.04 70.63H132L130.41 75.04H133.62Z" fill="#88774F"/>
<path d="M137.06 69.61C137.06 69.53 137.1 69.49 137.19 69.49H137.66C137.76 69.49 137.83 69.53 137.87 69.61L142.07 76.55H142.11V69.61C142.11 69.53 142.15 69.49 142.24 69.49H142.71C142.79 69.49 142.84 69.53 142.84 69.61V77.81C142.84 77.89 142.8 77.93 142.72 77.93H142.24C142.15 77.93 142.08 77.89 142.03 77.81L137.86 70.85H137.81V77.81C137.81 77.89 137.77 77.93 137.68 77.93H137.21C137.13 77.93 137.08 77.89 137.08 77.81V69.61H137.06Z" fill="#88774F"/>
<path d="M145.12 69.61C145.12 69.53 145.16 69.49 145.24 69.49H147.89C149.31 69.49 150.21 70.06 150.59 71.2C150.63 71.32 150.67 71.45 150.7 71.58C150.73 71.71 150.75 71.87 150.77 72.06C150.79 72.25 150.81 72.47 150.81 72.74C150.82 73.01 150.82 73.33 150.82 73.71C150.82 74.1 150.82 74.42 150.81 74.69C150.8 74.95 150.79 75.17 150.77 75.36C150.75 75.55 150.72 75.71 150.7 75.84C150.67 75.97 150.64 76.1 150.59 76.23C150.22 77.37 149.32 77.94 147.89 77.94H145.24C145.16 77.94 145.12 77.9 145.12 77.82V69.61ZM145.84 77.19C145.84 77.24 145.86 77.26 145.91 77.26H147.79C148.34 77.26 148.78 77.16 149.14 76.96C149.49 76.76 149.75 76.43 149.9 75.98C149.93 75.88 149.96 75.77 149.99 75.66C150.01 75.54 150.04 75.4 150.05 75.23C150.07 75.06 150.08 74.85 150.09 74.61C150.1 74.37 150.1 74.07 150.1 73.71C150.1 73.35 150.1 73.05 150.09 72.81C150.08 72.57 150.07 72.36 150.05 72.19C150.03 72.02 150.01 71.88 149.99 71.76C149.97 71.64 149.94 71.54 149.9 71.44C149.75 70.99 149.5 70.67 149.14 70.47C148.79 70.27 148.34 70.17 147.79 70.17H145.91C145.86 70.17 145.84 70.19 145.84 70.24V77.19Z" fill="#88774F"/>
<path d="M156.3 69.61C156.3 69.53 156.34 69.49 156.43 69.49H156.9C156.98 69.49 157.03 69.53 157.03 69.61V73.24C157.03 73.29 157.05 73.31 157.1 73.31H161.26C161.31 73.31 161.33 73.29 161.33 73.24V69.61C161.33 69.53 161.37 69.49 161.46 69.49H161.93C162.01 69.49 162.06 69.53 162.06 69.61V77.81C162.06 77.89 162.02 77.93 161.93 77.93H161.46C161.38 77.93 161.33 77.89 161.33 77.81V74.06C161.33 74.01 161.31 73.99 161.26 73.99H157.1C157.05 73.99 157.03 74.01 157.03 74.06V77.81C157.03 77.89 156.99 77.93 156.9 77.93H156.43C156.35 77.93 156.3 77.89 156.3 77.81V69.61Z" fill="#88774F"/>
<path d="M167.06 78.06C166.36 78.06 165.79 77.9 165.33 77.58C164.87 77.26 164.54 76.79 164.33 76.16C164.29 76.05 164.25 75.93 164.22 75.79C164.19 75.65 164.17 75.49 164.15 75.31C164.13 75.12 164.11 74.9 164.1 74.65C164.09 74.39 164.08 74.08 164.08 73.72C164.08 73.36 164.09 73.05 164.1 72.79C164.11 72.53 164.13 72.31 164.15 72.13C164.17 71.94 164.2 71.78 164.22 71.65C164.25 71.52 164.28 71.39 164.33 71.28C164.54 70.66 164.87 70.19 165.33 69.86C165.79 69.53 166.37 69.38 167.06 69.38C167.75 69.38 168.32 69.54 168.78 69.86C169.24 70.18 169.57 70.65 169.78 71.28C169.81 71.4 169.85 71.52 169.88 71.65C169.91 71.78 169.94 71.94 169.96 72.13C169.98 72.32 170 72.54 170.01 72.79C170.02 73.05 170.03 73.36 170.03 73.72C170.03 74.08 170.02 74.4 170.01 74.65C170 74.91 169.98 75.13 169.96 75.31C169.94 75.5 169.91 75.66 169.88 75.79C169.85 75.93 169.81 76.05 169.78 76.16C169.57 76.78 169.24 77.25 168.78 77.58C168.32 77.9 167.75 78.06 167.06 78.06ZM169.31 73.71C169.31 73.37 169.3 73.08 169.29 72.83C169.28 72.58 169.26 72.37 169.25 72.2C169.23 72.03 169.21 71.88 169.18 71.77C169.15 71.65 169.12 71.55 169.1 71.47C168.79 70.52 168.11 70.04 167.06 70.04C166.01 70.04 165.33 70.52 165.01 71.47C164.99 71.55 164.96 71.65 164.93 71.77C164.9 71.89 164.88 72.03 164.86 72.2C164.84 72.37 164.83 72.58 164.82 72.83C164.81 73.08 164.8 73.37 164.8 73.71C164.8 74.05 164.81 74.34 164.82 74.59C164.83 74.84 164.85 75.05 164.86 75.22C164.88 75.39 164.9 75.54 164.93 75.65C164.96 75.77 164.99 75.87 165.01 75.95C165.32 76.9 166.01 77.38 167.06 77.38C168.1 77.38 168.78 76.9 169.1 75.95C169.12 75.87 169.15 75.77 169.18 75.65C169.21 75.53 169.23 75.39 169.25 75.22C169.27 75.05 169.28 74.84 169.29 74.59C169.3 74.34 169.31 74.05 169.31 73.71Z" fill="#88774F"/>
<path d="M172.07 69.61C172.07 69.53 172.11 69.49 172.2 69.49H172.67C172.75 69.49 172.8 69.53 172.8 69.61V77.19C172.8 77.24 172.82 77.26 172.87 77.26H177.04C177.12 77.26 177.16 77.3 177.16 77.38V77.8C177.16 77.88 177.12 77.92 177.04 77.92H172.2C172.12 77.92 172.07 77.88 172.07 77.8V69.61Z" fill="#88774F"/>
<path d="M179.79 77.93C179.71 77.93 179.66 77.89 179.66 77.81V74.47L177.13 69.63C177.11 69.6 177.12 69.57 177.14 69.54C177.16 69.51 177.19 69.5 177.23 69.5H177.71C177.79 69.5 177.85 69.54 177.9 69.62L180.03 73.66H180.07L182.16 69.62C182.2 69.54 182.26 69.5 182.35 69.5H182.82C182.87 69.5 182.9 69.51 182.92 69.54C182.94 69.57 182.94 69.6 182.92 69.63L180.39 74.47V77.81C180.39 77.89 180.35 77.93 180.26 77.93H179.79Z" fill="#88774F"/>
<path d="M190.3 78.06C190.03 78.06 189.75 78.03 189.48 77.98C189.21 77.93 188.95 77.85 188.7 77.76C188.46 77.67 188.23 77.56 188.03 77.44C187.83 77.32 187.65 77.2 187.5 77.07C187.43 77.01 187.43 76.95 187.49 76.9L187.79 76.53C187.85 76.46 187.91 76.46 187.96 76.52C188.24 76.74 188.59 76.93 189.01 77.12C189.43 77.3 189.89 77.39 190.38 77.39C191.06 77.39 191.59 77.23 191.98 76.92C192.37 76.61 192.56 76.19 192.56 75.67C192.56 75.46 192.53 75.27 192.46 75.09C192.39 74.91 192.28 74.75 192.13 74.61C191.98 74.47 191.77 74.35 191.51 74.25C191.25 74.15 190.92 74.08 190.54 74.03L190.16 73.98C189.33 73.87 188.72 73.63 188.32 73.25C187.92 72.87 187.72 72.37 187.72 71.75C187.72 71.01 187.96 70.43 188.44 70.01C188.92 69.59 189.57 69.38 190.38 69.38C190.85 69.38 191.3 69.44 191.72 69.57C192.14 69.7 192.5 69.87 192.79 70.09C192.86 70.13 192.87 70.19 192.81 70.26L192.56 70.64C192.51 70.7 192.45 70.71 192.39 70.66C192.05 70.45 191.72 70.3 191.39 70.19C191.06 70.09 190.71 70.03 190.35 70.03C189.75 70.03 189.28 70.18 188.94 70.48C188.61 70.78 188.44 71.18 188.44 71.68C188.44 72.11 188.59 72.46 188.89 72.74C189.19 73.01 189.7 73.2 190.42 73.29L190.8 73.34C191.66 73.46 192.29 73.71 192.68 74.09C193.07 74.48 193.27 74.98 193.27 75.61C193.27 75.97 193.21 76.29 193.08 76.59C192.95 76.89 192.76 77.15 192.51 77.37C192.26 77.59 191.95 77.76 191.58 77.88C191.21 78 190.79 78.06 190.3 78.06Z" fill="#88774F"/>
<path d="M195.21 69.61C195.21 69.53 195.25 69.49 195.34 69.49H195.81C195.89 69.49 195.94 69.53 195.94 69.61V77.81C195.94 77.89 195.9 77.93 195.81 77.93H195.34C195.26 77.93 195.21 77.89 195.21 77.81V69.61Z" fill="#88774F"/>
<path d="M200.35 77.93C200.27 77.93 200.22 77.89 200.22 77.81V70.23C200.22 70.18 200.2 70.16 200.15 70.16H197.72C197.64 70.16 197.6 70.12 197.6 70.04V69.62C197.6 69.54 197.64 69.5 197.72 69.5H203.46C203.54 69.5 203.58 69.54 203.58 69.62V70.04C203.58 70.12 203.54 70.16 203.46 70.16H201.03C200.98 70.16 200.96 70.18 200.96 70.23V77.81C200.96 77.89 200.92 77.93 200.83 77.93H200.35Z" fill="#88774F"/>
<path d="M205.23 69.61C205.23 69.53 205.27 69.49 205.36 69.49H210.2C210.28 69.49 210.32 69.53 210.32 69.61V70.03C210.32 70.11 210.28 70.15 210.2 70.15H206.03C205.98 70.15 205.96 70.17 205.96 70.22V73.23C205.96 73.28 205.98 73.3 206.03 73.3H209.62C209.7 73.3 209.74 73.34 209.74 73.42V73.84C209.74 73.92 209.7 73.96 209.62 73.96H206.03C205.98 73.96 205.96 73.98 205.96 74.03V77.16C205.96 77.21 205.98 77.23 206.03 77.23H210.2C210.28 77.23 210.32 77.27 210.32 77.35V77.77C210.32 77.85 210.28 77.89 210.2 77.89H205.36C205.28 77.89 205.23 77.85 205.23 77.77V69.61Z" fill="#88774F"/>
<path d="M214.8 78.06C214.53 78.06 214.25 78.03 213.98 77.98C213.71 77.93 213.45 77.85 213.2 77.76C212.96 77.67 212.73 77.56 212.53 77.44C212.33 77.32 212.15 77.2 212 77.07C211.93 77.01 211.93 76.95 211.99 76.9L212.29 76.53C212.35 76.46 212.41 76.46 212.46 76.52C212.74 76.74 213.09 76.93 213.51 77.12C213.93 77.3 214.39 77.39 214.88 77.39C215.56 77.39 216.09 77.23 216.48 76.92C216.87 76.61 217.06 76.19 217.06 75.67C217.06 75.46 217.03 75.27 216.96 75.09C216.89 74.91 216.78 74.75 216.63 74.61C216.48 74.47 216.27 74.35 216.01 74.25C215.75 74.15 215.42 74.08 215.04 74.03L214.66 73.98C213.83 73.87 213.22 73.63 212.82 73.25C212.42 72.87 212.22 72.37 212.22 71.75C212.22 71.01 212.46 70.43 212.94 70.01C213.42 69.59 214.07 69.38 214.88 69.38C215.35 69.38 215.8 69.44 216.22 69.57C216.64 69.7 217 69.87 217.29 70.09C217.36 70.13 217.37 70.19 217.31 70.26L217.06 70.64C217.01 70.7 216.95 70.71 216.89 70.66C216.55 70.45 216.22 70.3 215.89 70.19C215.56 70.09 215.21 70.03 214.85 70.03C214.25 70.03 213.78 70.18 213.44 70.48C213.11 70.78 212.94 71.18 212.94 71.68C212.94 72.11 213.09 72.46 213.39 72.74C213.69 73.01 214.2 73.2 214.92 73.29L215.3 73.34C216.16 73.46 216.79 73.71 217.18 74.09C217.57 74.48 217.77 74.98 217.77 75.61C217.77 75.97 217.71 76.29 217.58 76.59C217.45 76.89 217.26 77.15 217.01 77.37C216.76 77.59 216.45 77.76 216.08 77.88C215.72 78 215.29 78.06 214.8 78.06Z" fill="#88774F"/>
<path d="M23.0599 13.37C22.4399 13.37 21.9299 13.89 21.9299 14.5C21.9299 15.11 22.4199 15.63 23.0599 15.63C23.6799 15.63 24.1899 15.11 24.1899 14.5C24.1899 13.88 23.6699 13.37 23.0599 13.37ZM20.2799 13.37C19.6599 13.37 19.1599 13.89 19.1599 14.5C19.1599 15.11 19.6199 15.63 20.2799 15.63C20.9199 15.63 21.4099 15.12 21.4099 14.5C21.4099 13.86 20.9099 13.37 20.2799 13.37Z" fill="#00080C"/>
<path d="M44.4701 16.58C41.4601 16.58 39.96 18.59 39.96 20.79C39.96 22.02 40.29 22.79 40.92 23.27C40.84 23.25 40.49 23.15 39.96 23.15H37.85C37.68 19.82 36.2 18.09 34.01 17.1L38.2401 14.54V12.27L31.3701 16.58V18.26C34.1301 18.9 35.5201 20.46 35.6101 23.15H25.5201V17.18C25.5201 17.18 23.94 16.58 21.88 16.58C18.7 16.58 17.3 18.66 17.3 20.93C17.3 23.4 18.5701 24.96 21.93 24.96H48.39V20.57C48.39 18.14 47.18 16.58 44.4701 16.58ZM23.3 23.16H22.1901C20.37 23.16 19.59 22.31 19.59 20.73C19.59 19.38 20.35 18.39 21.65 18.39C22.64 18.39 23.3 18.7 23.3 18.7V23.16ZM46.1501 23.16H44.8301C43.0301 23.16 42.23 22.36 42.23 20.73C42.23 19.38 42.9901 18.39 44.2901 18.39C45.4501 18.39 46.1501 19.12 46.1501 20.86V23.16Z" fill="#00080C"/>
<path d="M59.93 13.37C59.31 13.37 58.8 13.89 58.8 14.5C58.8 15.11 59.28 15.63 59.93 15.63C60.55 15.63 61.06 15.11 61.06 14.5C61.05 13.88 60.54 13.37 59.93 13.37ZM57.15 13.37C56.53 13.37 56.02 13.89 56.02 14.5C56.02 15.11 56.49 15.63 57.15 15.63C57.79 15.63 58.28 15.12 58.28 14.5C58.28 13.86 57.77 13.37 57.15 13.37Z" fill="#00080C"/>
<path d="M71.2 13.36C70.56 13.36 70.01 13.91 70.01 14.55C70.01 15.19 70.54 15.75 71.2 15.75C71.84 15.75 72.4 15.22 72.4 14.55C72.4 13.89 71.84 13.36 71.2 13.36Z" fill="#00080C"/>
<path d="M78.4 26.23C77.78 26.23 77.27 26.73 77.27 27.35C77.27 27.96 77.75 28.48 78.4 28.48C79.02 28.48 79.53 27.96 79.53 27.35C79.53 26.73 79.01 26.23 78.4 26.23ZM75.62 26.23C75 26.23 74.49 26.73 74.49 27.35C74.49 27.96 74.98 28.48 75.62 28.48C76.24 28.48 76.75 27.96 76.75 27.35C76.75 26.73 76.23 26.23 75.62 26.23Z" fill="#00080C"/>
<path d="M75.9199 16.81V23.16H72.3499V16.81H70.0599V23.16H62.3899V17.19C62.3899 17.19 60.8099 16.59 58.7499 16.59C55.5699 16.59 54.1699 18.67 54.1699 20.94C54.1699 23.41 55.4399 24.97 58.7999 24.97H78.2199V16.81H75.9199ZM60.1699 23.16H59.0599C57.2399 23.16 56.4599 22.31 56.4599 20.73C56.4599 19.38 57.2199 18.39 58.5199 18.39C59.5099 18.39 60.1699 18.7 60.1699 18.7V23.16Z" fill="#00080C"/>
<path d="M101.92 12.73V23.16H98.7501V20.58C98.7501 18.15 97.5401 16.59 94.8301 16.59C91.8201 16.59 90.3201 18.6 90.3201 20.8C90.3201 22.59 89.6501 23.16 88.6001 23.16H87.7701C87.5601 19.29 85.5701 17.33 81.9901 16.39L81.4401 18.3C84.1801 18.99 85.4301 20.59 85.5301 23.15H80.4001V24.96H88.8501C90.3101 24.96 91.0001 24.42 91.3201 23.62C91.9301 24.42 92.7101 24.96 95.2001 24.96H104.22V12.73H101.92ZM96.5201 23.16H95.2001C93.4001 23.16 92.6001 22.36 92.6001 20.73C92.6001 19.38 93.3601 18.39 94.6601 18.39C95.8201 18.39 96.5201 19.12 96.5201 20.86V23.16Z" fill="#00080C"/>
<path d="M116.03 13.37C115.41 13.37 114.91 13.89 114.91 14.5C114.91 15.11 115.39 15.63 116.03 15.63C116.66 15.63 117.16 15.11 117.16 14.5C117.16 13.88 116.64 13.37 116.03 13.37ZM113.25 13.37C112.63 13.37 112.13 13.89 112.13 14.5C112.13 15.11 112.59 15.63 113.25 15.63C113.89 15.63 114.38 15.12 114.38 14.5C114.38 13.86 113.88 13.37 113.25 13.37Z" fill="#00080C"/>
<path d="M125.49 26.23C124.86 26.23 124.36 26.73 124.36 27.35C124.36 27.96 124.84 28.48 125.49 28.48C126.11 28.48 126.61 27.96 126.61 27.35C126.61 26.73 126.09 26.23 125.49 26.23ZM128.27 26.23C127.64 26.23 127.14 26.73 127.14 27.35C127.14 27.96 127.62 28.48 128.27 28.48C128.89 28.48 129.39 27.96 129.39 27.35C129.39 26.73 128.87 26.23 128.27 26.23Z" fill="#00080C"/>
<path d="M156.77 12.73V23.16H153.59V20.58C153.59 18.15 152.38 16.59 149.67 16.59C146.67 16.59 145.16 18.6 145.16 20.8C145.16 22.59 144.48 23.16 143.44 23.16H141.79V12.73H139.5V23.16H136.67C136.5 19.83 135.02 18.1 132.83 17.11L137.06 14.55V12.28L130.19 16.59V18.27C132.95 18.91 134.34 20.47 134.43 23.16H128.02V16.81H125.73V23.16H118.48V17.19C118.48 17.19 116.9 16.59 114.84 16.59C111.66 16.59 110.26 18.67 110.26 20.94C110.26 23.41 111.53 24.97 114.9 24.97H143.68C145.13 24.97 145.83 24.43 146.15 23.63C146.75 24.43 147.53 24.97 150.03 24.97H159.05V12.73H156.77ZM116.27 23.16H115.16C113.34 23.16 112.56 22.31 112.56 20.73C112.56 19.38 113.32 18.39 114.62 18.39C115.61 18.39 116.27 18.7 116.27 18.7V23.16ZM151.35 23.16H150.03C148.22 23.16 147.43 22.36 147.43 20.73C147.43 19.38 148.19 18.39 149.49 18.39C150.65 18.39 151.35 19.12 151.35 20.86V23.16Z" fill="#00080C"/>
<path d="M161.83 12.73H164.12V24.96H161.83V12.73Z" fill="#00080C"/>
<path d="M175.96 13.37C175.34 13.37 174.83 13.89 174.83 14.5C174.83 15.11 175.31 15.63 175.96 15.63C176.58 15.63 177.09 15.11 177.09 14.5C177.08 13.88 176.56 13.37 175.96 13.37ZM173.18 13.37C172.56 13.37 172.05 13.89 172.05 14.5C172.05 15.11 172.52 15.63 173.18 15.63C173.82 15.63 174.31 15.12 174.31 14.5C174.31 13.86 173.8 13.37 173.18 13.37Z" fill="#00080C"/>
<path d="M187.73 14.74C186.76 14.74 186.48 14.5 186.48 14.1C186.48 13.77 186.74 13.51 187.33 13.51C187.78 13.51 188.18 13.6 188.27 13.61L188.49 12.4C188.37 12.38 187.94 12.3 187.47 12.3C185.65 12.3 184.92 13.23 184.92 14.09C184.92 14.4 185.09 14.71 185.36 14.85C185.12 14.79 184.7 14.75 184.31 14.75V16H188.79V14.75H187.73V14.74Z" fill="#00080C"/>
<path d="M194.05 26.23C193.43 26.23 192.92 26.73 192.92 27.35C192.92 27.96 193.4 28.48 194.05 28.48C194.67 28.48 195.18 27.96 195.18 27.35C195.18 26.73 194.66 26.23 194.05 26.23ZM191.27 26.23C190.65 26.23 190.14 26.73 190.14 27.35C190.14 27.96 190.62 28.48 191.27 28.48C191.89 28.48 192.4 27.96 192.4 27.35C192.4 26.73 191.88 26.23 191.27 26.23Z" fill="#00080C"/>
<path d="M210.45 12.73V23.16H207.67V23.11C207.67 18.04 205.2 15.98 200.87 15.98C199.48 15.98 197.9 16.26 196.65 16.66L196.87 18.45C197.96 18.08 199.39 17.77 200.58 17.77C204.01 17.77 205.48 19.36 205.48 22.96V23.17H203.74V22.77C203.74 20.81 202.87 19.11 200.55 19.11C198.45 19.11 197.22 20.34 197.22 22.03C197.22 22.76 197.57 23.17 197.64 23.26C197.57 23.25 197.27 23.18 196.86 23.18H193.82V16.83H191.53V23.18H187.95V16.83H185.66V23.18H178.41V17.21C178.41 17.21 176.83 16.61 174.76 16.61C171.59 16.61 170.18 18.69 170.18 20.96C170.18 23.43 171.45 24.99 174.81 24.99H212.72V12.73H210.45ZM176.2 23.16H175.09C173.26 23.16 172.49 22.31 172.49 20.73C172.49 19.38 173.25 18.39 174.55 18.39C175.54 18.39 176.2 18.7 176.2 18.7V23.16ZM201.87 23.23H200.73C199.84 23.23 199.08 22.84 199.08 21.86C199.08 21.13 199.59 20.68 200.38 20.68C201.4 20.68 201.88 21.39 201.88 22.73V23.23H201.87Z" fill="#00080C"/>
<path d="M215.51 12.73H217.8V24.96H215.51V12.73Z" fill="#00080C"/>
<path d="M23.0401 32.42C22.4201 32.42 21.9101 32.94 21.9101 33.54C21.9101 34.15 22.4001 34.67 23.0401 34.67C23.6601 34.67 24.1701 34.15 24.1701 33.54C24.1701 32.92 23.6501 32.42 23.0401 32.42ZM20.2601 32.42C19.6401 32.42 19.1401 32.94 19.1401 33.54C19.1401 34.15 19.6001 34.67 20.2601 34.67C20.9001 34.67 21.3901 34.17 21.3901 33.54C21.3901 32.91 20.8901 32.42 20.2601 32.42Z" fill="#00080C"/>
<path d="M40.68 35.16L38.44 35.47C38.74 36.79 38.95 38.39 38.95 40.12C38.95 40.66 38.92 41.5 38.85 42.2H38.38C36.78 42.2 36.32 41.92 36.32 40.55V36.2H34.12V40.12C34.12 41.8 33.61 42.34 32.71 42.34C31.69 42.34 31.51 41.66 31.51 40.1V36.89H29.22V40.05C29.22 41.75 28.78 42.2 27.66 42.2H25.5V36.23C25.5 36.23 23.92 35.62 21.86 35.62C18.68 35.62 17.28 37.7 17.28 39.98C17.28 42.45 18.55 44 21.91 44H27.64C28.91 44 29.6 43.58 29.95 42.79C30.23 43.62 31.15 44.14 32.28 44.14C33.64 44.14 34.55 43.55 34.9 42.8C35.41 43.76 36.33 44 38.15 44H41.01C41.17 42.77 41.25 41.22 41.25 39.96C41.24 38.24 41.01 36.55 40.68 35.16ZM23.28 42.21H22.17C20.35 42.21 19.57 41.36 19.57 39.78C19.57 38.42 20.33 37.44 21.63 37.44C22.62 37.44 23.28 37.75 23.28 37.75V42.21Z" fill="#00080C"/>
<path d="M55.5399 32.42C54.9199 32.42 54.4099 32.94 54.4099 33.54C54.4099 34.15 54.8799 34.67 55.5399 34.67C56.1799 34.67 56.6699 34.17 56.6699 33.54C56.6599 32.91 56.1599 32.42 55.5399 32.42ZM58.3099 32.42C57.6899 32.42 57.1799 32.94 57.1799 33.54C57.1799 34.15 57.6599 34.67 58.3099 34.67C58.9299 34.67 59.4399 34.15 59.4399 33.54C59.4399 32.92 58.9199 32.42 58.3099 32.42Z" fill="#00080C"/>
<path d="M75.36 31.78V42.21H72.19V39.62C72.19 37.2 70.98 35.63 68.27 35.63C65.26 35.63 63.76 37.65 63.76 39.85C63.76 41.64 63.09 42.21 62.04 42.21H61.44C60.83 42.21 60.1 42.29 60.1 42.29C60.76 41.74 61.1 40.68 61.1 39.67C61.1 36.91 59.52 35.63 57.08 35.63C54.44 35.63 52.66 37.45 52.66 39.95C52.66 40.94 52.94 41.75 53.48 42.29C53.48 42.29 52.94 42.21 52.4 42.21H50.65C50.44 38.34 48.45 36.38 44.87 35.44L44.32 37.35C47.06 38.04 48.31 39.64 48.41 42.21H43.27V44.01H62.29C63.75 44.01 64.44 43.48 64.76 42.67C65.37 43.47 66.15 44.01 68.64 44.01H77.66V31.78H75.36ZM56.87 42.21C55.6 42.21 54.96 41.39 54.96 39.76C54.96 38.13 55.92 37.44 56.91 37.44C58.21 37.44 58.81 38.27 58.81 39.79C58.81 41.4 57.97 42.21 56.87 42.21ZM69.95 42.21H68.63C66.83 42.21 66.03 41.41 66.03 39.78C66.03 38.42 66.79 37.44 68.09 37.44C69.25 37.44 69.95 38.17 69.95 39.9V42.21Z" fill="#00080C"/>
<path d="M80.4299 31.78H82.7199V44.01H80.4299V31.78Z" fill="#00080C"/>
<path d="M104.01 42.21V44.01H93.51V44.08C93.51 46.3 92.75 48.42 89.22 48.42C88.69 48.42 88.18 48.35 87.77 48.25L87.94 46.42C88.36 46.54 88.79 46.63 89.35 46.63C90.53 46.63 91.22 46.07 91.22 44.2V35.86H93.51V42.21H97.74C96.98 41.75 96.4 40.78 96.4 39.62C96.4 37.47 97.87 35.63 100.93 35.63C102.11 35.63 103.08 35.96 103.08 35.96L102.68 37.78C102.68 37.78 101.88 37.41 100.88 37.41C99.58 37.41 98.69 38.28 98.69 39.61C98.69 41.08 99.89 42.2 102.64 42.2H104.01V42.21Z" fill="#00080C"/>
<path d="M116.41 32.5C115.79 32.5 115.28 33.02 115.28 33.63C115.28 34.25 115.79 34.76 116.41 34.76C117.02 34.76 117.54 34.24 117.54 33.63C117.54 33.01 117.02 32.5 116.41 32.5ZM117.85 30.23C117.23 30.23 116.72 30.75 116.72 31.36C116.72 31.98 117.23 32.49 117.85 32.49C118.47 32.49 118.98 31.96 118.98 31.36C118.98 30.73 118.47 30.23 117.85 30.23ZM119.28 32.5C118.67 32.5 118.15 33.02 118.15 33.63C118.15 34.25 118.67 34.76 119.28 34.76C119.9 34.76 120.4 34.24 120.4 33.63C120.4 33.01 119.9 32.5 119.28 32.5Z" fill="#00080C"/>
<path d="M138.81 31.78V42.21H135.63V39.62C135.63 37.2 134.42 35.63 131.71 35.63C128.7 35.63 127.2 37.65 127.2 39.85C127.2 41.64 126.53 42.21 125.48 42.21H123.91C123.96 41.44 123.98 40.67 123.98 39.97C123.98 38.25 123.75 36.56 123.42 35.16L121.18 35.47C121.48 36.79 121.69 38.39 121.69 40.12C121.69 40.66 121.66 41.5 121.59 42.2H121.12C119.53 42.2 119.06 41.92 119.06 40.55V36.2H116.86V40.12C116.86 41.8 116.35 42.34 115.45 42.34C114.43 42.34 114.25 41.66 114.25 40.1V36.89H111.96V40.05C111.96 41.75 111.53 42.2 110.4 42.2H108.25V31.78H105.96V44.01H110.38C111.65 44.01 112.34 43.59 112.69 42.8C112.97 43.63 113.89 44.15 115.02 44.15C116.38 44.15 117.29 43.56 117.64 42.81C118.15 43.77 119.07 44.01 120.89 44.01H125.75C127.2 44.01 127.9 43.48 128.21 42.67C128.82 43.47 129.6 44.01 132.09 44.01H141.11V31.78H138.81ZM133.4 42.21H132.08C130.28 42.21 129.48 41.41 129.48 39.78C129.48 38.42 130.24 37.44 131.54 37.44C132.7 37.44 133.4 38.17 133.4 39.9V42.21Z" fill="#00080C"/>
<path d="M143.87 31.78H146.16V44.01H143.87V31.78Z" fill="#00080C"/>
<path d="M148.61 48.15L148.75 46.28C148.75 46.28 150.1 46.57 151.46 46.57C153.26 46.57 154.46 45.89 154.46 44.26V44H153.09C149.72 44 148.46 42.44 148.46 39.98C148.46 37.71 149.87 35.63 153.04 35.63C155.1 35.63 156.68 36.24 156.68 36.24V44.05C156.68 46.44 155.12 48.39 151.25 48.39C149.95 48.38 148.61 48.15 148.61 48.15ZM154.46 37.74C154.46 37.74 153.8 37.43 152.81 37.43C151.51 37.43 150.75 38.42 150.75 39.77C150.75 41.35 151.53 42.2 153.35 42.2H154.46V37.74Z" fill="#00080C"/>
<path d="M168.49 32.42C167.87 32.42 167.36 32.94 167.36 33.54C167.36 34.15 167.85 34.67 168.49 34.67C169.12 34.67 169.62 34.15 169.62 33.54C169.62 32.92 169.1 32.42 168.49 32.42ZM165.71 32.42C165.09 32.42 164.59 32.94 164.59 33.54C164.59 34.15 165.05 34.67 165.71 34.67C166.35 34.67 166.84 34.17 166.84 33.54C166.84 32.91 166.34 32.42 165.71 32.42Z" fill="#00080C"/>
<path d="M178.33 35.63C175.32 35.63 173.82 37.65 173.82 39.85C173.82 41.08 174.15 41.84 174.78 42.32C174.7 42.3 174.35 42.21 173.82 42.21H170.96V36.24C170.96 36.24 169.38 35.63 167.32 35.63C164.14 35.63 162.74 37.71 162.74 39.99C162.74 42.46 164.01 44.01 167.37 44.01H182.26V39.62C182.25 37.19 181.04 35.63 178.33 35.63ZM168.73 42.21H167.62C165.8 42.21 165.02 41.36 165.02 39.78C165.02 38.42 165.78 37.44 167.08 37.44C168.07 37.44 168.73 37.75 168.73 37.75V42.21ZM180.01 42.21H178.69C176.89 42.21 176.09 41.41 176.09 39.78C176.09 38.42 176.85 37.44 178.15 37.44C179.31 37.44 180.01 38.17 180.01 39.9V42.21Z" fill="#00080C"/>
<path d="M210.44 31.78V42.21H207.27V39.62C207.27 37.2 206.06 35.63 203.35 35.63C200.34 35.63 198.84 37.65 198.84 39.85C198.84 41.64 198.17 42.21 197.12 42.21H196.22C196.05 38.88 194.57 37.14 192.38 36.15L196.62 33.6V31.33L189.74 35.63V37.31C192.5 37.95 193.89 39.51 193.98 42.21H187.99V35.86H185.7V44.2C185.7 46.07 185 46.63 183.82 46.63C183.27 46.63 182.83 46.54 182.41 46.42L182.24 48.25C182.66 48.35 183.16 48.42 183.69 48.42C187.21 48.42 187.98 46.3 187.98 44.08V44.01H197.35C198.81 44.01 199.5 43.48 199.82 42.67C200.43 43.47 201.21 44.01 203.7 44.01H212.72V31.78H210.44ZM205.03 42.21H203.71C201.91 42.21 201.11 41.41 201.11 39.78C201.11 38.42 201.88 37.44 203.18 37.44C204.34 37.44 205.04 38.17 205.04 39.9V42.21H205.03Z" fill="#00080C"/>
<path d="M215.51 31.78H217.8V44.01H215.51V31.78Z" fill="#00080C"/>
<path d="M286.92 67.58H283.46V71.04H286.92V67.58Z" fill="#00080C"/>
<path d="M286.92 74.49H283.46V77.95H286.92V74.49Z" fill="#00080C"/>
<path d="M255.81 60.66V74.48H252.35V67.57H235.07V77.94H280V67.57H262.72V74.48H259.26V64.12H286.91V60.66H255.81ZM248.9 74.49H238.53V71.04H248.9V74.49ZM266.18 71.03H276.55V74.48H266.18V71.03Z" fill="#00080C"/>
<path d="M293.83 26.1H290.37V29.56H293.83V26.1Z" fill="#00080C"/>
<path d="M300.75 26.1H297.29V29.56H300.75V26.1Z" fill="#00080C"/>
<path d="M290.38 33.01V50.3H297.29V53.75H286.92V26.1H283.47V57.21H297.29V60.66H290.38V77.94H300.75V33.01H290.38ZM297.29 74.49H293.83V64.12H297.29V74.49ZM297.29 46.84H293.83V36.47H297.29V46.84Z" fill="#00080C"/>
<path d="M252.36 19.19H248.9V22.65H252.36V19.19Z" fill="#00080C"/>
<path d="M252.36 12.28H248.9V15.74H252.36V12.28Z" fill="#00080C"/>
<path d="M255.81 12.28V22.65H273.09V15.74H276.55V26.1H248.9V29.56H280V15.74H283.46V22.65H300.74V12.28H255.81ZM269.64 19.19H259.27V15.74H269.64V19.19ZM297.29 19.19H286.92V15.74H297.29V19.19Z" fill="#00080C"/>
<path d="M245.45 60.66H241.99V64.12H245.45V60.66Z" fill="#00080C"/>
<path d="M238.54 60.66H235.08V64.12H238.54V60.66Z" fill="#00080C"/>
<path d="M238.53 33.01V29.56H245.44V12.28H235.07V57.21H245.44V39.93H238.53V36.48H248.9V64.13H252.35V33.01H238.53ZM238.53 15.74H241.99V26.1H238.53V15.74ZM241.99 43.38V53.75H238.53V43.38H241.99Z" fill="#00080C"/>
<path d="M272.33 41.03C272.67 41.75 272.87 42.55 272.95 43.3C272.11 42.22 271.1 41.27 270.01 40.55C270.1 40.67 270.19 40.8 270.27 40.93C271.16 42.38 271.01 44.29 270.49 45.84C270.17 44.38 269.61 42.96 268.89 41.74C268.72 41.46 268.55 41.19 268.36 40.92L268.62 47.45C268.62 47.68 268.35 48.1 267.9 48.1C267.45 48.1 267.18 47.69 267.18 47.45L267.44 40.93C267.25 41.19 267.07 41.46 266.91 41.74C266.19 42.96 265.63 44.38 265.31 45.84C264.8 44.29 264.64 42.37 265.53 40.93C265.61 40.8 265.7 40.67 265.79 40.55C264.71 41.27 263.69 42.22 262.85 43.3C263.02 41.8 263.63 40.1 264.97 39.25C265.42 38.97 265.9 38.78 266.4 38.68C266.4 38.65 266.4 38.66 266.4 38.63C266.11 38.65 265.83 38.67 265.54 38.72C264.29 38.91 263.09 39.27 261.94 39.81C262.78 38.53 264.11 37.57 265.36 37.4C265.56 37.37 265.77 37.36 265.98 37.37C265.23 36.99 264.41 36.67 263.57 36.45C264.71 36.14 265.95 36.21 267.02 36.68C267.33 35.36 267.89 34.58 267.89 34.58C267.89 34.58 268.45 35.36 268.76 36.68C269.83 36.2 271.07 36.14 272.21 36.45C271.37 36.67 270.55 36.99 269.8 37.37C270.01 37.36 270.22 37.37 270.42 37.4C271.05 37.48 271.7 37.76 272.29 38.19C272.89 38.61 273.43 39.17 273.85 39.81C272.7 39.27 271.5 38.91 270.25 38.72C269.96 38.68 269.68 38.65 269.39 38.63C269.39 38.67 269.39 38.65 269.39 38.68C269.89 38.78 270.37 38.97 270.82 39.25C271.5 39.68 271.99 40.31 272.33 41.03Z" fill="#88774F"/>
<path d="M280 45.54C278.67 45.39 277.27 45.67 276.04 46.42L269.02 50.71L271.84 52.43L272.23 51.79C272.22 51.79 272.21 51.78 272.2 51.78C271.89 51.59 271.79 51.17 271.98 50.86C272.17 50.55 272.58 50.45 272.9 50.64C273.21 50.83 273.31 51.24 273.12 51.56L272.38 52.77L272.75 53L273.59 53.51C273.87 53.69 274.21 53.7 274.49 53.58C274.5 53.73 274.48 53.88 274.42 54.02C274.4 54.07 274.38 54.12 274.34 54.17C274.06 54.64 273.44 54.79 272.98 54.5L271.77 53.76L271.38 54.4C271.39 54.4 271.4 54.41 271.41 54.41C271.72 54.6 271.82 55.01 271.63 55.33C271.44 55.64 271.02 55.75 270.71 55.55C270.4 55.35 270.3 54.94 270.49 54.63L271.23 53.42L267.91 51.39L264.59 53.42L265.33 54.63C265.52 54.94 265.42 55.36 265.11 55.55C264.8 55.74 264.39 55.64 264.19 55.33C264 55.02 264.1 54.61 264.41 54.41C264.42 54.41 264.43 54.4 264.44 54.39L264.05 53.75L262.84 54.49C262.37 54.78 261.76 54.63 261.47 54.16C261.44 54.11 261.42 54.06 261.39 54.01C261.34 53.87 261.31 53.71 261.32 53.57C261.61 53.69 261.94 53.68 262.23 53.5L263.07 52.99L263.45 52.76L262.71 51.55C262.52 51.24 262.62 50.83 262.93 50.63C263.24 50.44 263.65 50.54 263.85 50.85C264.04 51.16 263.94 51.58 263.63 51.77C263.62 51.77 263.61 51.78 263.6 51.78L263.99 52.42L266.81 50.7L259.79 46.41C258.56 45.66 257.16 45.38 255.83 45.53C257.15 44.63 258.94 44.52 260.4 45.42L267.93 50.02L275.46 45.42C276.89 44.54 278.68 44.64 280 45.54Z" fill="#88774F"/>
</g>
<defs>
<clipPath id="clip0_226_563">
<rect width="318.02" height="100.33" fill="white" transform="translate(0 -5)"/>
</clipPath>
</defs>
</svg>
