<svg width="17" height="12" viewBox="0 0 17 12" fill="none" xmlns="http://www.w3.org/2000/svg">
<path d="M10.9223 11.873C11.1974 12.013 11.5162 11.9467 11.735 11.7034L16.2358 6.69093C16.3858 6.52507 16.4702 6.29287 16.4702 6.04962C16.4702 5.80637 16.3858 5.57417 16.2358 5.40832L11.735 0.395822C11.5162 0.152569 11.1974 0.0862272 10.9223 0.226282C10.6473 0.366337 10.4691 0.686989 10.4691 1.03713V3.6908H1.46747C0.914242 3.6908 0.467285 4.21785 0.467285 4.87021V7.22903C0.467285 7.88139 0.914242 8.40844 1.46747 8.40844H10.4691V11.0621C10.4691 11.4159 10.6473 11.7329 10.9223 11.873Z" fill="white"/>
</svg>
