<svg width="17" height="12" viewBox="0 0 17 12" fill="none" xmlns="http://www.w3.org/2000/svg">
<path d="M6.01518 11.8642C5.74013 12.0043 5.42132 11.9379 5.20253 11.6947L0.701713 6.68218C0.551685 6.51633 0.467295 6.28413 0.467295 6.04088C0.467295 5.79762 0.551685 5.56543 0.701713 5.39957L5.20253 0.387079C5.42132 0.143826 5.74013 0.0774839 6.01518 0.217539C6.29023 0.357594 6.46839 0.678246 6.46839 1.02838V3.68206H15.47C16.0233 3.68206 16.4702 4.20911 16.4702 4.86147V7.22029C16.4702 7.87265 16.0233 8.3997 15.47 8.3997H6.46839V11.0534C6.46839 11.4072 6.29023 11.7242 6.01518 11.8642Z" fill="white"/>
</svg>
