<svg width="16" height="16" viewBox="0 0 16 16" fill="none" xmlns="http://www.w3.org/2000/svg">
<path fill-rule="evenodd" clip-rule="evenodd" d="M15.5841 12.0519L10.9691 11.9904L10.923 15.4517L12.6536 15.4747C13.4186 15.4849 14.1564 15.1906 14.7047 14.6573C15.2524 14.1234 15.5662 13.3937 15.5764 12.6288L15.5841 12.0519ZM9.76927 15.4363L6.30804 15.3902L6.35414 11.929L9.81537 11.9751L9.76927 15.4363ZM0.585421 11.8521L0.577738 12.429C0.567551 13.1939 0.86179 13.9318 1.39511 14.4801C1.92902 15.0278 2.65875 15.3416 3.42368 15.3518L5.1543 15.3748L5.2004 11.9136L0.585421 11.8521ZM5.24649 8.45237L5.21576 10.7599L0.600786 10.6984L0.631517 8.3909L5.24649 8.45237ZM9.86147 8.51383L9.83074 10.8213L6.36951 10.7752L6.40024 8.46773L9.86147 8.51383ZM15.6302 8.59065L15.5995 10.8981L10.9845 10.8367L11.0152 8.52919L15.6302 8.59065ZM5.26186 7.29862L0.646883 7.23716L0.677613 4.92967L5.29259 4.99113L5.26186 7.29862ZM9.87683 7.36008L6.4156 7.31399L6.44633 5.0065L9.90756 5.0526L9.87683 7.36008ZM15.6456 7.43691L11.0306 7.37545L11.0613 5.06796L15.6763 5.12942L15.6456 7.43691ZM0.692979 3.77593L15.6916 3.97568L15.6993 3.39881C15.7095 2.63387 15.4153 1.89604 14.882 1.34774C14.348 0.800005 13.6183 0.486221 12.8534 0.476034C10.2927 0.44193 6.18417 0.387214 3.62343 0.353111C2.8585 0.342923 2.12067 0.637163 1.57237 1.17049C1.02463 1.70439 0.710849 2.43412 0.700661 3.19906L0.692979 3.77593Z" fill="white"/>
</svg>
