<svg width="110" height="26" viewBox="0 0 110 26" fill="none" xmlns="http://www.w3.org/2000/svg">
<path d="M0.864262 11.19C-0.632985 14.1966 5.18081 14.8748 7.59654 16.5425C11.6632 19.3487 16.8634 21.1447 22.4258 22.5285C34.1663 25.4535 46.7852 26.5814 60.4127 25.4227C70.1393 24.5949 79.6089 22.4388 88.4525 18.1872C96.1813 14.471 102.718 9.932 107.839 4.50214C108.368 3.94071 108.817 3.34873 109.227 2.75539C109.476 2.39296 109.684 1.98528 109.703 1.62379C109.72 1.27923 109.762 0.76408 109.337 0.642911C108.913 0.52174 108.25 0.90709 107.83 1.1467C107.29 1.45392 106.858 1.86299 106.413 2.24552C104.122 4.21633 101.891 6.22068 99.546 8.16359C92.7383 13.8071 84.4032 17.572 74.7717 19.7417C66.1371 21.6888 57.6397 22.443 49.2724 22.1588C39.1382 21.8149 29.6088 20.5173 21.1098 17.5389C15.8232 15.6862 7.8756 10.0263 7.8756 10.0263C7.8756 10.0263 7.54557 9.70964 7.30854 9.53919C5.19935 8.02247 2.02233 8.86451 0.864262 11.19Z" fill="#02947F"/>
</svg>
