<svg width="18" height="18" viewBox="0 0 18 18" fill="none" xmlns="http://www.w3.org/2000/svg">
<path d="M14.1547 7.06533C14.1547 8.57525 13.6645 9.97004 12.8386 11.1017L17.0041 15.2696C17.4153 15.6808 17.4153 16.3486 17.0041 16.7598C16.5928 17.171 15.9249 17.171 15.5136 16.7598L11.3482 12.5918C10.2163 13.4208 8.82125 13.9077 7.31103 13.9077C3.53055 13.9077 0.467346 10.8451 0.467346 7.06533C0.467346 3.28559 3.53055 0.222977 7.31103 0.222977C11.0915 0.222977 14.1547 3.28559 14.1547 7.06533ZM4.94207 6.27583C4.50446 6.27583 4.15241 6.62781 4.15241 7.06533C4.15241 7.50284 4.50446 7.85483 4.94207 7.85483H9.68C10.1176 7.85483 10.4697 7.50284 10.4697 7.06533C10.4697 6.62781 10.1176 6.27583 9.68 6.27583H4.94207Z" fill="white"/>
</svg>
