<svg width="18" height="18" viewBox="0 0 18 18" fill="none" xmlns="http://www.w3.org/2000/svg">
<path d="M14.1547 7.21431C14.1547 8.72423 13.6645 10.119 12.8386 11.2506L17.0041 15.4185C17.4153 15.8297 17.4153 16.4975 17.0041 16.9087C16.5928 17.3199 15.9249 17.3199 15.5136 16.9087L11.3482 12.7408C10.2163 13.5698 8.82125 14.0567 7.31103 14.0567C3.53055 14.0567 0.467346 10.994 0.467346 7.21431C0.467346 3.43457 3.53055 0.371956 7.31103 0.371956C11.0915 0.371956 14.1547 3.43457 14.1547 7.21431ZM6.52138 10.1091C6.52138 10.5467 6.87343 10.8987 7.31103 10.8987C7.74864 10.8987 8.10069 10.5467 8.10069 10.1091V8.00381H10.2064C10.644 8.00381 10.9961 7.65182 10.9961 7.21431C10.9961 6.77679 10.644 6.42481 10.2064 6.42481H8.10069V4.31947C8.10069 3.88195 7.74864 3.52996 7.31103 3.52996C6.87343 3.52996 6.52138 3.88195 6.52138 4.31947V6.42481H4.41563C3.97803 6.42481 3.62597 6.77679 3.62597 7.21431C3.62597 7.65182 3.97803 8.00381 4.41563 8.00381H6.52138V10.1091Z" fill="white"/>
</svg>
