<svg width="39" height="40" viewBox="0 0 39 40" fill="none" xmlns="http://www.w3.org/2000/svg">
<ellipse cx="19.5" cy="20" rx="19.5" ry="20" fill="white"/>
<path d="M27.1917 20.9732C27.1917 21.5538 26.7849 22.0086 26.324 22.0086H25.4563L25.4753 27.1759C25.4753 27.263 25.4698 27.3501 25.4617 27.4372V27.9565C25.4617 28.6694 24.9763 29.2467 24.3771 29.2467H23.9432C23.9134 29.2467 23.8836 29.2467 23.8538 29.2435C23.8158 29.2467 23.7778 29.2467 23.7399 29.2467H22.8586H22.2079C21.6086 29.2467 21.1232 28.6694 21.1232 27.9565V27.1824V25.118C21.1232 24.5471 20.7355 24.0859 20.2555 24.0859H18.5202C18.0402 24.0859 17.6525 24.5471 17.6525 25.118V27.1824V27.9565C17.6525 28.6694 17.1671 29.2467 16.5679 29.2467H15.9171H15.0521C15.0114 29.2467 14.9708 29.2435 14.9301 29.2403C14.8975 29.2435 14.865 29.2467 14.8325 29.2467H14.3986C13.7994 29.2467 13.314 28.6694 13.314 27.9565V24.3439C13.314 24.3149 13.314 24.2826 13.3167 24.2536V22.0086H12.4463C11.9582 22.0086 11.5786 21.557 11.5786 20.9732C11.5786 20.6829 11.66 20.4249 11.8498 20.1991L18.8022 12.99C18.992 12.7642 19.2089 12.7319 19.3987 12.7319C19.5885 12.7319 19.8054 12.7964 19.9681 12.9577L26.8934 20.1991C27.1103 20.4249 27.2188 20.6829 27.1917 20.9732Z" fill="#141414"/>
</svg>
