<svg width="39" height="40" viewBox="0 0 39 40" fill="none" xmlns="http://www.w3.org/2000/svg">
<ellipse cx="19.5" cy="20" rx="20" ry="19.5" transform="rotate(90 19.5 20)" fill="white"/>
<path d="M19.4998 30.72C22.4755 30.72 25.3294 29.5379 27.4335 27.4338C29.5377 25.3296 30.7198 22.4758 30.7198 19.5C30.7198 16.5243 29.5377 13.6704 27.4335 11.5663C25.3294 9.46213 22.4755 8.28003 19.4998 8.28003C16.5241 8.28003 13.6702 9.46213 11.566 11.5663C9.46189 13.6704 8.27979 16.5243 8.27979 19.5C8.27979 22.4758 9.46189 25.3296 11.566 27.4338C13.6702 29.5379 16.5241 30.72 19.4998 30.72ZM17.7467 23.0063H18.7985V20.2013H17.7467C17.1637 20.2013 16.6948 19.7323 16.6948 19.1494C16.6948 18.5665 17.1637 18.0975 17.7467 18.0975H19.8504C20.4333 18.0975 20.9023 18.5665 20.9023 19.1494V23.0063H21.2529C21.8358 23.0063 22.3048 23.4752 22.3048 24.0582C22.3048 24.6411 21.8358 25.11 21.2529 25.11H17.7467C17.1637 25.11 16.6948 24.6411 16.6948 24.0582C16.6948 23.4752 17.1637 23.0063 17.7467 23.0063ZM19.4998 13.89C19.8718 13.89 20.2285 14.0378 20.4915 14.3008C20.7545 14.5638 20.9023 14.9206 20.9023 15.2925C20.9023 15.6645 20.7545 16.0212 20.4915 16.2842C20.2285 16.5473 19.8718 16.695 19.4998 16.695C19.1278 16.695 18.7711 16.5473 18.5081 16.2842C18.245 16.0212 18.0973 15.6645 18.0973 15.2925C18.0973 14.9206 18.245 14.5638 18.5081 14.3008C18.7711 14.0378 19.1278 13.89 19.4998 13.89Z" fill="#141414"/>
</svg>
