<svg width="39" height="39" viewBox="0 0 39 39" fill="none" xmlns="http://www.w3.org/2000/svg">
<circle cx="19.5" cy="19.5" r="19.5" transform="rotate(90 19.5 19.5)" fill="white"/>
<path d="M18.8672 12.9541C19.3577 12.7139 19.9239 12.7139 20.4144 12.9541L27.6106 16.4704C27.8905 16.6062 28.0682 16.9021 28.0682 17.2294C28.0682 17.5567 27.8905 17.8526 27.6106 17.9884L20.4144 21.5047C19.9239 21.7449 19.3577 21.7449 18.8672 21.5047L11.671 17.9884C11.3911 17.8491 11.2134 17.5532 11.2134 17.2294C11.2134 16.9056 11.3911 16.6062 11.671 16.4704L18.8672 12.9541ZM25.8593 20.0703L27.6106 20.9268C27.8905 21.0626 28.0682 21.3585 28.0682 21.6857C28.0682 22.013 27.8905 22.3089 27.6106 22.4447L20.4144 25.9611C19.9239 26.2013 19.3577 26.2013 18.8672 25.9611L11.671 22.4447C11.3911 22.3055 11.2134 22.0095 11.2134 21.6857C11.2134 21.362 11.3911 21.0626 11.671 20.9268L13.4223 20.0703L18.4261 22.5143C19.1964 22.8904 20.0852 22.8904 20.8555 22.5143L25.8593 20.0703ZM20.8555 26.9707L25.8593 24.5267L27.6106 25.3831C27.8905 25.5189 28.0682 25.8148 28.0682 26.1421C28.0682 26.4694 27.8905 26.7653 27.6106 26.9011L20.4144 30.4174C19.9239 30.6576 19.3577 30.6576 18.8672 30.4174L11.671 26.9011C11.3911 26.7618 11.2134 26.4659 11.2134 26.1421C11.2134 25.8183 11.3911 25.5189 11.671 25.3831L13.4223 24.5267L18.4261 26.9707C19.1964 27.3467 20.0852 27.3467 20.8555 26.9707Z" fill="#141414"/>
</svg>
