<svg width="39" height="40" viewBox="0 0 39 40" fill="none" xmlns="http://www.w3.org/2000/svg">
<ellipse cx="19.5" cy="20" rx="20" ry="19.5" transform="rotate(90 19.5 20)" fill="white"/>
<g clip-path="url(#clip0_1227_231)">
<path fill-rule="evenodd" clip-rule="evenodd" d="M11.0158 10.2207C11.0134 10.2208 11.011 10.221 11.0086 10.2212C10.9223 10.2226 10.8378 10.2463 10.7633 10.29C10.6889 10.3338 10.627 10.3961 10.5838 10.4708L8.08347 14.8016C8.03963 14.8776 8.01657 14.9638 8.0166 15.0516C8.01663 15.1394 8.03976 15.2256 8.08366 15.3016C8.12755 15.3776 8.19068 15.4407 8.26668 15.4846C8.34269 15.5285 8.42891 15.5516 8.51667 15.5516H13.5168C13.6046 15.5515 13.6907 15.5283 13.7667 15.4844C13.8426 15.4405 13.9056 15.3774 13.9495 15.3014C13.9933 15.2254 14.0164 15.1392 14.0164 15.0515C14.0164 14.9638 13.9934 14.8776 13.9496 14.8016L11.45 10.471C11.406 10.3948 11.3427 10.3315 11.2665 10.2876C11.1903 10.2436 11.1038 10.2206 11.0158 10.2207ZM17.6168 12.4767V14.1567H21.2168V12.4767H17.6168ZM22.8968 12.4767V14.1567H32.0168V12.4767H22.8968ZM8.51691 18.5213C8.45123 18.5213 8.38619 18.5343 8.32551 18.5594C8.26483 18.5846 8.20969 18.6214 8.16325 18.6678C8.1168 18.7143 8.07996 18.7694 8.05482 18.8301C8.02969 18.8908 8.01675 18.9558 8.01675 19.0215V23.0213C8.01675 23.154 8.06945 23.2812 8.16325 23.375C8.25704 23.4688 8.38426 23.5215 8.51691 23.5215H13.5166C13.6492 23.5215 13.7765 23.4688 13.8703 23.375C13.9641 23.2812 14.0168 23.154 14.0168 23.0213V19.0215C14.0168 18.9558 14.0038 18.8908 13.9787 18.8301C13.9535 18.7694 13.9167 18.7143 13.8703 18.6678C13.8238 18.6214 13.7687 18.5846 13.708 18.5594C13.6473 18.5343 13.5823 18.5213 13.5166 18.5213H8.51691ZM17.6168 20.4812V22.1612H24.0968V20.4812H17.6168ZM25.7768 20.4812V22.1612H32.0168V20.4812H25.7768ZM11.0168 25.7794C9.36579 25.7794 8.01675 27.1285 8.01675 28.7794C8.01675 30.4304 9.36579 31.7794 11.0168 31.7794C12.6677 31.7794 14.0168 30.4304 14.0168 28.7794C14.0168 27.1285 12.6677 25.7794 11.0168 25.7794ZM17.6168 28.4857V30.1657H21.2168V28.4857H17.6168ZM22.8968 28.4857V30.1657H32.0168V28.4857H22.8968Z" fill="#141414"/>
</g>
<defs>
<clipPath id="clip0_1227_231">
<rect width="24" height="24" fill="white" transform="translate(8.0166 9)"/>
</clipPath>
</defs>
</svg>
