<svg width="39" height="40" viewBox="0 0 39 40" fill="none" xmlns="http://www.w3.org/2000/svg">
<ellipse cx="19.5" cy="20" rx="19.5" ry="20" fill="white"/>
<path d="M21.641 27.5349C21.9307 27.6909 22.2665 27.617 22.4969 27.3461L27.2373 21.7633C27.3954 21.5786 27.4842 21.32 27.4842 21.049C27.4842 20.7781 27.3954 20.5195 27.2373 20.3348L22.4969 14.752C22.2665 14.481 21.9307 14.4072 21.641 14.5631C21.3513 14.7191 21.1637 15.0763 21.1637 15.4662V18.4218H11.6828C11.1001 18.4218 10.6294 19.0088 10.6294 19.7354V22.3626C10.6294 23.0892 11.1001 23.6762 11.6828 23.6762H21.1637V26.6318C21.1637 27.0259 21.3513 27.3789 21.641 27.5349Z" fill="#141414"/>
</svg>
