<svg width="39" height="40" viewBox="0 0 39 40" fill="none" xmlns="http://www.w3.org/2000/svg">
<ellipse cx="19.5" cy="20" rx="20" ry="19.5" transform="rotate(90 19.5 20)" fill="white"/>
<path d="M11 8H23.7447L30.5 14.729V30.5C30.5 31.3287 29.828 32 29 32H11C10.172 32 9.5 31.3287 9.5 30.5V9.49999C9.5 8.67126 10.172 8 11 8Z" fill="#141414"/>
<path d="M30.4782 14.7499H25.25C24.422 14.7499 23.75 14.0779 23.75 13.2499V8.01489L30.4782 14.7499Z" fill="#D9D9D9"/>
<path d="M24.8733 19.3723C25.1246 19.3723 25.2476 19.1533 25.2476 18.941C25.2476 18.7213 25.1193 18.509 24.8733 18.509H23.4423C23.1626 18.509 23.0066 18.7408 23.0066 18.9965V22.5133C23.0066 22.8268 23.1851 23.0008 23.4266 23.0008C23.6666 23.0008 23.8459 22.8268 23.8459 22.5133V21.548H24.7114C24.9799 21.548 25.1141 21.3283 25.1141 21.11C25.1141 20.8963 24.9799 20.684 24.7114 20.684H23.8459V19.3723H24.8733ZM20.0366 18.509H18.9896C18.7053 18.509 18.5035 18.704 18.5035 18.9935V22.5163C18.5035 22.8755 18.7938 22.988 19.0015 22.988H20.1003C21.4007 22.988 22.2595 22.1323 22.2595 20.8115C22.2588 19.415 21.4503 18.509 20.0366 18.509ZM20.0869 22.1196H19.4486V19.3776H20.0238C20.8946 19.3776 21.2733 19.9618 21.2733 20.7681C21.2733 21.5226 20.9013 22.1196 20.0869 22.1196ZM16.2513 18.509H15.2141C14.9208 18.509 14.7573 18.7025 14.7573 18.9965V22.5133C14.7573 22.8268 14.9448 23.0008 15.1968 23.0008C15.4488 23.0008 15.6363 22.8268 15.6363 22.5133V21.4865H16.2865C17.089 21.4865 17.7512 20.918 17.7512 20.0037C17.7513 19.1091 17.1123 18.509 16.2513 18.509ZM16.2341 20.6616H15.6363V19.3348H16.2341C16.6031 19.3348 16.8379 19.6228 16.8379 19.9985C16.8371 20.3736 16.6031 20.6616 16.2341 20.6616Z" fill="#F5F5F5"/>
</svg>
