<svg width="39" height="40" viewBox="0 0 39 40" fill="none" xmlns="http://www.w3.org/2000/svg">
<ellipse cx="19.5" cy="20" rx="19.5" ry="20" fill="white"/>
<path d="M16.4723 27.064C16.1826 27.22 15.8468 27.1461 15.6164 26.8751L10.8759 21.2923C10.7179 21.1076 10.629 20.849 10.629 20.5781C10.629 20.3071 10.7179 20.0485 10.8759 19.8638L15.6164 14.281C15.8468 14.0101 16.1826 13.9362 16.4723 14.0922C16.762 14.2482 16.9496 14.6053 16.9496 14.9953V17.9509H26.4305C27.0131 17.9509 27.4839 18.5379 27.4839 19.2645V21.8917C27.4839 22.6183 27.0131 23.2053 26.4305 23.2053H16.9496V26.1609C16.9496 26.5549 16.762 26.908 16.4723 27.064Z" fill="#141414"/>
</svg>
