<svg width="39" height="40" viewBox="0 0 39 40" fill="none" xmlns="http://www.w3.org/2000/svg">
<ellipse cx="19.5" cy="20" rx="19.5" ry="20" fill="white"/>
<path d="M25.0454 19.6531C25.0454 21.3348 24.5291 22.8883 23.6593 24.1486L28.0464 28.7907C28.4796 29.2487 28.4796 29.9925 28.0464 30.4505C27.6133 30.9085 26.9098 30.9085 26.4766 30.4505L22.0894 25.8084C20.8973 26.7316 19.428 27.2739 17.8374 27.2739C13.8557 27.2739 10.6294 23.8628 10.6294 19.6531C10.6294 15.4433 13.8557 12.0322 17.8374 12.0322C21.8191 12.0322 25.0454 15.4433 25.0454 19.6531ZM15.3423 18.7737C14.8814 18.7737 14.5106 19.1658 14.5106 19.6531C14.5106 20.1404 14.8814 20.5324 15.3423 20.5324H20.3325C20.7934 20.5324 21.1642 20.1404 21.1642 19.6531C21.1642 19.1658 20.7934 18.7737 20.3325 18.7737H15.3423Z" fill="#141414"/>
</svg>
