<svg width="39" height="39" viewBox="0 0 39 39" fill="none" xmlns="http://www.w3.org/2000/svg">
<circle cx="19.5" cy="19.5" r="19.5" fill="white"/>
<path d="M25.0454 19.2441C25.0454 20.9258 24.5291 22.4793 23.6593 23.7397L28.0464 28.3818C28.4796 28.8398 28.4796 29.5835 28.0464 30.0415C27.6133 30.4995 26.9098 30.4995 26.4766 30.0415L22.0894 25.3994C20.8973 26.3227 19.428 26.865 17.8374 26.865C13.8557 26.865 10.6294 23.4539 10.6294 19.2441C10.6294 15.0343 13.8557 11.6233 17.8374 11.6233C21.8191 11.6233 25.0454 15.0343 25.0454 19.2441ZM17.0057 22.4683C17.0057 22.9556 17.3765 23.3477 17.8374 23.3477C18.2983 23.3477 18.6691 22.9556 18.6691 22.4683V20.1235H20.887C21.3478 20.1235 21.7186 19.7314 21.7186 19.2441C21.7186 18.7568 21.3478 18.3648 20.887 18.3648H18.6691V16.0199C18.6691 15.5326 18.2983 15.1406 17.8374 15.1406C17.3765 15.1406 17.0057 15.5326 17.0057 16.0199V18.3648H14.7879C14.327 18.3648 13.9562 18.7568 13.9562 19.2441C13.9562 19.7314 14.327 20.1235 14.7879 20.1235H17.0057V22.4683Z" fill="#0D0D0D"/>
</svg>
