<svg width="20" height="20" viewBox="0 0 20 20" fill="none" xmlns="http://www.w3.org/2000/svg">
<ellipse cx="10.3619" cy="9.61282" rx="9.54211" ry="9.54245" fill="#1E552A"/>
<g clip-path="url(#clip0_543_1590)">
<path d="M10.1366 7.79688C10.1945 7.86327 10.2329 7.93772 10.2733 8.01563C10.2814 8.03108 10.2895 8.04653 10.2979 8.06244C10.4647 8.38223 10.4647 8.38223 10.4647 8.45313C10.4837 8.45519 10.5028 8.45724 10.5224 8.45936C10.6091 8.46892 10.6959 8.47897 10.7826 8.48902C10.8125 8.49225 10.8424 8.49547 10.8733 8.49879C11.1632 8.53305 11.1632 8.53305 11.285 8.6172C11.3209 8.70435 11.3209 8.70435 11.3124 8.8086C11.2417 8.92568 11.1374 9.01413 11.0332 9.10073C10.8545 9.24685 10.8545 9.24685 10.783 9.45588C10.7975 9.55361 10.8195 9.64367 10.8475 9.73829C10.8663 9.83609 10.8796 9.93095 10.8817 10.0305C10.8824 10.0509 10.8831 10.0713 10.8838 10.0924C10.8749 10.1484 10.8749 10.1484 10.842 10.1951C10.7751 10.2432 10.7394 10.2555 10.6561 10.2578C10.5797 10.2311 10.5101 10.1938 10.4391 10.1553C10.4202 10.1454 10.4013 10.1355 10.3819 10.1254C10.2979 10.0814 10.215 10.0369 10.1331 9.98908C10.033 9.94822 9.99379 9.95204 9.8905 9.98438C9.77806 10.039 9.67015 10.1017 9.56206 10.1644C9.39352 10.2579 9.39352 10.2579 9.27783 10.2576C9.20514 10.2298 9.16893 10.2123 9.12488 10.1484C9.10547 9.96081 9.14277 9.78334 9.18011 9.59995C9.20803 9.46204 9.20803 9.46204 9.17957 9.32813C9.13403 9.27396 9.13403 9.27396 9.07617 9.2225C9.04503 9.19286 9.04503 9.19286 9.01326 9.16263C8.96934 9.12158 8.92526 9.08071 8.88103 9.04001C8.70294 8.86963 8.70294 8.86963 8.67969 8.75957C8.68738 8.67188 8.68738 8.67188 8.72647 8.60812C8.81959 8.54769 8.91107 8.53179 9.01892 8.51636C9.03956 8.51308 9.06019 8.50979 9.08145 8.5064C9.23217 8.48298 9.38297 8.4652 9.53503 8.45313C9.54163 8.43128 9.54822 8.40943 9.55501 8.38691C9.59804 8.26561 9.65125 8.15171 9.70764 8.03614C9.71799 8.01386 9.72833 7.99159 9.73899 7.96864C9.81767 7.80782 9.81767 7.80782 9.90706 7.75394C10.0041 7.73652 10.0495 7.7497 10.1366 7.79688Z" fill="white"/>
<path d="M4.33984 7.73706C4.46238 7.78556 4.50292 7.87472 4.55859 7.98828C4.57269 8.02453 4.5866 8.06085 4.60036 8.09723C4.67504 8.30362 4.67504 8.30362 4.8252 8.45271C4.93481 8.48915 5.04672 8.49851 5.16155 8.50458C5.2379 8.50921 5.3122 8.52175 5.38745 8.53516C5.41047 8.53854 5.43349 8.54192 5.4572 8.54541C5.52627 8.56561 5.5547 8.58716 5.59766 8.64453C5.61136 8.75021 5.612 8.81202 5.55664 8.9043C5.5 8.96094 5.44254 9.01394 5.38232 9.06665C5.36354 9.08318 5.34475 9.09971 5.32539 9.11674C5.26953 9.16406 5.26953 9.16406 5.21794 9.20027C5.16615 9.24047 5.1361 9.26987 5.10547 9.32812C5.09457 9.46699 5.11952 9.60091 5.14152 9.73776C5.14738 9.77457 5.1531 9.8114 5.15866 9.84825C5.16663 9.9 5.17555 9.95159 5.18451 10.0032C5.18802 10.1096 5.17679 10.1516 5.10547 10.2305C5.02516 10.2618 4.97229 10.2683 4.88982 10.2403C4.83263 10.2142 4.77777 10.1855 4.72266 10.1553C4.7039 10.1454 4.68515 10.1355 4.66583 10.1254C4.58197 10.0812 4.49898 10.0362 4.41675 9.98907C4.32443 9.95061 4.29642 9.95025 4.20313 9.98438C4.10448 10.033 4.00916 10.0874 3.91367 10.1419C3.79131 10.2094 3.68975 10.2528 3.54688 10.2578C3.46484 10.21 3.46484 10.21 3.41016 10.1211C3.40353 10.0183 3.41986 9.9215 3.4375 9.82031C3.44469 9.77738 3.44469 9.77738 3.45203 9.73358C3.4613 9.67878 3.47097 9.62405 3.48119 9.56941C3.48482 9.54393 3.48845 9.51844 3.49219 9.49219C3.49747 9.46656 3.50276 9.44094 3.50821 9.41454C3.48138 9.26983 3.36898 9.19638 3.26147 9.10254C3.21816 9.06372 3.1749 9.02484 3.1317 8.9859C3.11237 8.9689 3.09304 8.9519 3.07312 8.93439C3.00394 8.86825 3.00029 8.83989 2.99316 8.74194C3 8.64453 3 8.64453 3.03215 8.59936C3.09767 8.55094 3.1503 8.54358 3.23071 8.53152C3.25969 8.52698 3.28866 8.52243 3.31851 8.51775C3.34875 8.51334 3.379 8.50893 3.41016 8.50439C3.46998 8.49526 3.52979 8.48608 3.5896 8.47684C3.61614 8.47292 3.64268 8.469 3.67003 8.46497C3.74153 8.45431 3.74153 8.45431 3.82031 8.42578C3.85751 8.36722 3.85751 8.36722 3.88931 8.2944C3.902 8.26772 3.91469 8.24104 3.92776 8.21355C3.95399 8.15705 3.98013 8.10051 4.00616 8.04393C4.01892 8.01718 4.03168 7.99042 4.04483 7.96286C4.05619 7.93826 4.06756 7.91366 4.07926 7.88832C4.14597 7.7861 4.21881 7.74463 4.33984 7.73706Z" fill="white"/>
<path d="M7.26544 7.76952C7.34589 7.87326 7.39774 7.97468 7.44296 8.09722C7.51746 8.30586 7.51746 8.30586 7.67189 8.4527C7.78927 8.48903 7.90883 8.49843 8.03107 8.50457C8.10415 8.50889 8.17463 8.52101 8.2464 8.53515C8.26663 8.53853 8.28686 8.54192 8.30771 8.5454C8.37083 8.56635 8.39939 8.59337 8.44122 8.64452C8.46515 8.70946 8.46515 8.70946 8.46857 8.78124C8.40617 8.91031 8.30987 9.00188 8.2088 9.10082C8.1929 9.1167 8.17701 9.13258 8.16063 9.14894C8.09195 9.21691 8.02992 9.27419 7.94904 9.32812C7.96091 9.4869 7.97751 9.64297 8.00543 9.7998C8.04642 10.0432 8.04642 10.0432 8.03107 10.1484C7.97296 10.2168 7.97296 10.2168 7.89435 10.2578C7.70952 10.2517 7.55743 10.1407 7.40184 10.0505C7.27182 9.97767 7.27182 9.97767 7.12701 9.95467C7.01656 9.99551 6.91654 10.0494 6.81427 10.1074C6.56336 10.2498 6.56336 10.2498 6.41779 10.2578C6.2931 10.2052 6.2931 10.2052 6.26119 10.1272C6.25151 10.0483 6.26973 9.9943 6.29324 9.91846C6.38978 9.59193 6.38978 9.59193 6.31741 9.27436C6.21103 9.14757 6.09002 9.04621 5.96106 8.94328C5.84636 8.84935 5.84636 8.84935 5.82178 8.73115C5.84461 8.64039 5.85383 8.61769 5.9256 8.56249C5.99342 8.54314 5.99342 8.54314 6.07332 8.53056C6.10217 8.52588 6.13102 8.52121 6.16074 8.5164C6.19086 8.51187 6.22098 8.50734 6.25201 8.50268C6.29703 8.49541 6.29703 8.49541 6.34296 8.48799C6.46092 8.46935 6.57156 8.45312 6.69122 8.45312C6.6981 8.43095 6.70497 8.40878 6.71205 8.38593C6.75213 8.27127 6.7996 8.16186 6.85016 8.05151C6.86372 8.02039 6.86372 8.02039 6.87756 7.98865C6.95744 7.81493 7.06003 7.68821 7.26544 7.76952Z" fill="white"/>
<path d="M15.7421 7.73706C15.8646 7.78554 15.9053 7.87468 15.9609 7.98828C15.9746 8.02452 15.9882 8.06085 16.0017 8.09723C16.0762 8.30586 16.0762 8.30586 16.2306 8.45271C16.348 8.48904 16.4675 8.49844 16.5898 8.50458C16.6628 8.5089 16.7333 8.52101 16.8051 8.53516C16.8253 8.53854 16.8456 8.54192 16.8664 8.54541C16.9301 8.56656 16.9587 8.59189 16.9999 8.64453C17.0186 8.73962 17.0203 8.80354 16.9676 8.88742C16.8941 8.97438 16.8176 9.04757 16.7279 9.11781C16.5704 9.23547 16.5704 9.23547 16.4927 9.40695C16.4995 9.49311 16.5148 9.57226 16.5351 9.65625C16.5457 9.71371 16.556 9.77125 16.5658 9.82886C16.5705 9.85579 16.5751 9.88272 16.5799 9.91046C16.5932 10.0102 16.5912 10.0792 16.5624 10.1758C16.518 10.2305 16.518 10.2305 16.453 10.2578C16.2506 10.25 16.1013 10.1497 15.9295 10.0505C15.9073 10.0382 15.8852 10.0259 15.8624 10.0132C15.8326 9.99608 15.8326 9.99608 15.8023 9.97859C15.7077 9.94469 15.6393 9.96884 15.5502 10.0096C15.5327 10.0196 15.5152 10.0296 15.4971 10.0399C15.4774 10.0508 15.4577 10.0617 15.4375 10.0729C15.3969 10.0958 15.3564 10.1188 15.3159 10.1419C15.1932 10.2096 15.0922 10.2508 14.9491 10.2578C14.8842 10.2288 14.8842 10.2288 14.8398 10.1758C14.8008 10.0315 14.8238 9.91066 14.8517 9.76733C14.9158 9.51869 14.9158 9.51869 14.8657 9.2843C14.8256 9.23945 14.7836 9.1992 14.7389 9.15894C14.7244 9.14507 14.7099 9.1312 14.695 9.11691C14.6285 9.054 14.5608 8.9956 14.4889 8.9388C14.4296 8.89062 14.4296 8.89062 14.4023 8.83594C14.3896 8.66228 14.3896 8.66228 14.4344 8.59936C14.4999 8.55094 14.5526 8.54358 14.633 8.53152C14.6619 8.52698 14.6909 8.52243 14.7208 8.51775C14.751 8.51334 14.7813 8.50893 14.8124 8.50439C14.8722 8.49526 14.9321 8.48608 14.9919 8.47684C15.0184 8.47292 15.0449 8.469 15.0723 8.46497C15.1438 8.45431 15.1438 8.45431 15.2226 8.42578C15.2598 8.36722 15.2598 8.36722 15.2916 8.2944C15.3043 8.26772 15.317 8.24104 15.33 8.21355C15.3563 8.15705 15.3824 8.10051 15.4084 8.04393C15.4212 8.01718 15.4339 7.99042 15.4471 7.96286C15.4585 7.93826 15.4698 7.91366 15.4815 7.88832C15.5482 7.7861 15.6211 7.74463 15.7421 7.73706ZM15.6874 8.37109C15.677 8.39975 15.6666 8.42841 15.6559 8.45793C15.5359 8.74827 15.5359 8.74827 15.4127 8.80873C15.2786 8.84768 15.1429 8.85807 15.0038 8.86328C15.0141 8.8752 15.0243 8.88711 15.0349 8.89938C15.0489 8.91567 15.0629 8.93195 15.0773 8.94873C15.091 8.96459 15.1046 8.98045 15.1186 8.9968C15.1349 9.0159 15.1511 9.035 15.1679 9.05469C15.1924 9.07894 15.217 9.10319 15.2422 9.12817C15.316 9.21684 15.3161 9.28628 15.3069 9.39841C15.3045 9.4192 15.302 9.44 15.2995 9.46143C15.2976 9.48286 15.2956 9.50429 15.2937 9.52637C15.2889 9.57884 15.2832 9.63123 15.2773 9.68359C15.3811 9.65058 15.4779 9.61211 15.5763 9.56567C15.681 9.5233 15.704 9.51649 15.8173 9.54858C15.8613 9.57481 15.8613 9.57481 15.9062 9.60156C16.0107 9.66156 16.0107 9.66156 16.1249 9.68359C16.1207 9.65258 16.1165 9.62156 16.1122 9.5896C16.0756 9.26329 16.0756 9.26329 16.1345 9.14398C16.1831 9.09067 16.2338 9.04627 16.289 9C16.3262 8.95505 16.3628 8.90959 16.3984 8.86328C16.3673 8.86212 16.3363 8.86095 16.3044 8.85976C15.9857 8.83423 15.9857 8.83423 15.89 8.73711C15.8123 8.6237 15.7615 8.49988 15.7148 8.37109C15.7057 8.37109 15.6967 8.37109 15.6874 8.37109Z" fill="white"/>
<path d="M12.898 7.73505C13.0292 7.78991 13.0646 7.89677 13.124 8.02077C13.1359 8.04405 13.1477 8.06733 13.1599 8.09132C13.2192 8.20959 13.2711 8.32586 13.3086 8.45314C13.3373 8.45644 13.3373 8.45644 13.3667 8.4598C13.4539 8.46992 13.541 8.48032 13.6282 8.49074C13.6583 8.49419 13.6885 8.49765 13.7196 8.50121C13.7633 8.50649 13.7633 8.50649 13.8079 8.51189C13.8347 8.51504 13.8615 8.51819 13.8891 8.52143C13.9979 8.54116 14.0774 8.56574 14.1562 8.64455C14.1763 8.72957 14.1763 8.72957 14.1562 8.83595C14.0971 8.89709 14.0326 8.94724 13.9659 9.00006C13.732 9.1841 13.732 9.1841 13.6242 9.4495C13.6346 9.64521 13.6794 9.83188 13.7371 10.0187C13.7461 10.0938 13.7461 10.0938 13.7118 10.1701C13.6641 10.2305 13.6641 10.2305 13.5906 10.2591C13.4675 10.2574 13.3876 10.2137 13.2812 10.1553C13.2625 10.1454 13.2437 10.1356 13.2244 10.1254C13.1409 10.0814 13.0585 10.0368 12.9771 9.98909C12.8769 9.94826 12.8377 9.95204 12.7344 9.98439C12.6219 10.039 12.514 10.1017 12.4059 10.1644C12.2374 10.2579 12.2374 10.2579 12.1217 10.2576C12.0095 10.2147 12.0095 10.2147 11.9688 10.1485C11.9648 10.0742 11.9648 10.0742 11.9739 9.9861C11.9786 9.93878 11.9786 9.93878 11.9835 9.8905C11.9988 9.77212 12.0177 9.6548 12.0398 9.53749C12.0562 9.43299 12.0562 9.43299 12.0508 9.32814C11.9987 9.26551 11.9987 9.26551 11.9277 9.21022C11.8906 9.17839 11.8906 9.17839 11.8526 9.14592C11.8278 9.12484 11.8029 9.10376 11.7773 9.08205C11.5705 8.89765 11.5705 8.89765 11.5278 8.77443C11.5315 8.69348 11.5358 8.65361 11.5859 8.58986C11.7184 8.52012 11.8669 8.51128 12.0132 8.49245C12.0648 8.48564 12.1164 8.47878 12.1681 8.47183C12.1908 8.46889 12.2136 8.46594 12.237 8.46291C12.3015 8.45402 12.3015 8.45402 12.3789 8.4258C12.4161 8.36723 12.4161 8.36723 12.4479 8.29442C12.4606 8.26774 12.4733 8.24105 12.4864 8.21356C12.5126 8.15707 12.5387 8.10053 12.5648 8.04395C12.5775 8.01719 12.5903 7.99044 12.6034 7.96288C12.6148 7.93828 12.6262 7.91368 12.6379 7.88833C12.7043 7.78647 12.7778 7.74559 12.898 7.73505ZM12.8438 8.39845C12.8101 8.45126 12.7779 8.50498 12.7463 8.5591C12.7201 8.60383 12.7201 8.60383 12.6933 8.64946C12.6481 8.72008 12.6481 8.72008 12.6523 8.78127C12.4087 8.82187 12.4087 8.82187 12.1602 8.8633C12.1965 8.90559 12.1965 8.90559 12.2336 8.94875C12.2639 8.98397 12.2941 9.01931 12.3242 9.0547C12.3488 9.07895 12.3733 9.1032 12.3986 9.12819C12.4723 9.21685 12.4724 9.28629 12.4632 9.39842C12.4608 9.41922 12.4583 9.44001 12.4558 9.46144C12.4539 9.48287 12.452 9.5043 12.45 9.52638C12.4452 9.57886 12.4395 9.63125 12.4336 9.68361C12.5181 9.65674 12.5917 9.63253 12.6677 9.5862C12.7417 9.54257 12.7855 9.52656 12.8711 9.51955C12.9603 9.55276 12.9603 9.55276 13.054 9.59987C13.1628 9.66079 13.1628 9.66079 13.2812 9.68361C13.2745 9.63031 13.2745 9.63031 13.2676 9.57594C13.2655 9.55335 13.2633 9.53076 13.2612 9.50748C13.2552 9.43875 13.2552 9.43875 13.2415 9.37695C13.2316 9.30452 13.2316 9.26175 13.2539 9.19142C13.3267 9.10315 13.404 9.02675 13.4889 8.95045C13.5106 8.93072 13.5323 8.91098 13.5547 8.89064C13.5547 8.88162 13.5547 8.87259 13.5547 8.8633C13.5227 8.85991 13.4907 8.85653 13.4578 8.85304C13.1258 8.81107 13.1258 8.81107 13.0314 8.73288C12.9975 8.67694 12.9744 8.62427 12.9531 8.56252C12.9286 8.51514 12.9286 8.51514 12.9036 8.46681C12.8928 8.44425 12.8821 8.42169 12.8711 8.39845C12.8621 8.39845 12.853 8.39845 12.8438 8.39845Z" fill="white"/>
</g>
<defs>
<clipPath id="clip0_543_1590">
<rect width="14" height="14" fill="white" transform="translate(3 2)"/>
</clipPath>
</defs>
</svg>
