<svg width="20" height="20" viewBox="0 0 20 20" fill="none" xmlns="http://www.w3.org/2000/svg">
<ellipse cx="10.3619" cy="10.1116" rx="9.54211" ry="9.54245" fill="white"/>
<path d="M15.1406 8.93358C15.201 9.01946 15.2438 9.11183 15.2876 9.20702C15.2999 9.23239 15.3122 9.25777 15.3249 9.28392C15.4141 9.47043 15.4141 9.47043 15.4141 9.53514C15.4362 9.53648 15.4584 9.53782 15.4812 9.5392C16.0066 9.57467 16.0066 9.57467 16.1523 9.67186C16.1712 9.75774 16.1712 9.75774 16.1523 9.86327C16.0706 9.96456 15.9679 10.0454 15.868 10.1282C15.7498 10.2326 15.7498 10.2326 15.7068 10.3789C15.7136 10.4553 15.7251 10.5269 15.7422 10.6015C15.7688 10.7466 15.7852 10.8916 15.7695 11.039C15.7148 11.0937 15.7148 11.0937 15.6304 11.105C15.4729 11.0884 15.3627 11.013 15.2289 10.9327C15.1388 10.8812 15.08 10.8479 14.9749 10.8468C14.8541 10.8892 14.7485 10.9518 14.639 11.0173C14.5198 11.085 14.4337 11.1103 14.293 11.0937C14.2383 11.039 14.2383 11.039 14.231 10.9854C14.2321 10.8239 14.2505 10.6716 14.281 10.513C14.2929 10.438 14.3001 10.3764 14.293 10.3008C14.254 10.2443 14.254 10.2443 14.1982 10.1956C14.1688 10.1673 14.1688 10.1673 14.1388 10.1386C14.118 10.1193 14.0973 10.1001 14.0759 10.0803C14.0351 10.042 13.9943 10.0035 13.9538 9.96484C13.9357 9.94796 13.9175 9.93107 13.8987 9.91367C13.8515 9.85864 13.8363 9.82548 13.8281 9.75389C13.8525 9.68179 13.8525 9.68179 13.9102 9.61717C13.9883 9.58816 14.067 9.57801 14.1494 9.56761C14.1709 9.56432 14.1924 9.56102 14.2146 9.55763C14.3421 9.53909 14.465 9.53187 14.5938 9.53514C14.6006 9.51272 14.6074 9.49031 14.6145 9.46721C14.6539 9.35566 14.7022 9.2515 14.7544 9.14549C14.7637 9.12582 14.7729 9.10616 14.7825 9.08589C14.821 9.00771 14.852 8.94657 14.9187 8.88957C15.0148 8.87185 15.0547 8.88485 15.1406 8.93358ZM14.9766 9.45311C14.9673 9.47616 14.958 9.49921 14.9484 9.52296C14.8424 9.76259 14.8424 9.76259 14.7596 9.81424C14.7033 9.82773 14.6515 9.83337 14.5938 9.83592C14.5573 9.84137 14.5208 9.84705 14.4844 9.85301C14.4438 9.85809 14.4438 9.85809 14.4023 9.86327C14.4023 9.89034 14.4023 9.91741 14.4023 9.9453C14.4513 9.99372 14.4513 9.99372 14.5117 10.0427C14.6163 10.1432 14.6163 10.1432 14.6366 10.2314C14.6365 10.3017 14.6309 10.368 14.6211 10.4375C14.6188 10.4593 14.6165 10.4811 14.6142 10.5035C14.6085 10.5545 14.6013 10.6054 14.5938 10.6562C14.6155 10.6444 14.6373 10.6325 14.6598 10.6203C14.6887 10.6051 14.7177 10.5899 14.7476 10.5742C14.7761 10.559 14.8047 10.5437 14.8341 10.5281C14.9283 10.4895 14.9853 10.4802 15.0859 10.4922C15.1539 10.5221 15.1539 10.5221 15.2158 10.5605C15.2957 10.6138 15.2957 10.6138 15.3867 10.6289C15.3804 10.5883 15.3804 10.5883 15.374 10.5469C15.3373 10.2606 15.3373 10.2606 15.3973 10.1466C15.4458 10.0933 15.4964 10.0472 15.5508 9.99998C15.5789 9.96415 15.6065 9.92784 15.6328 9.89061C15.5689 9.82666 15.4215 9.83817 15.3348 9.82759C15.246 9.80768 15.2197 9.79889 15.168 9.72655C15.142 9.68007 15.1175 9.6327 15.0945 9.5847C15.0766 9.54774 15.0766 9.54774 15.0583 9.51004C15.0449 9.48186 15.0449 9.48186 15.0312 9.45311C15.0132 9.45311 14.9952 9.45311 14.9766 9.45311Z" fill="#00080C"/>
<path d="M12.625 8.9336C12.6652 8.98663 12.6652 8.98663 12.6972 9.05066C12.709 9.07368 12.7208 9.0967 12.7329 9.12041C12.7447 9.14448 12.7564 9.16856 12.7686 9.19336C12.7808 9.21744 12.7929 9.24151 12.8055 9.26631C12.8369 9.3284 12.8678 9.39069 12.8984 9.45313C12.912 9.4802 12.912 9.4802 12.9258 9.50782C12.9906 9.52448 12.9906 9.52448 13.0691 9.5342C13.1128 9.54078 13.1128 9.54078 13.1575 9.5475C13.2193 9.55633 13.2811 9.56509 13.3429 9.57377C13.3721 9.57819 13.4013 9.58262 13.4314 9.58718C13.4583 9.59098 13.4852 9.59479 13.5129 9.5987C13.5887 9.61897 13.6191 9.63546 13.6641 9.69922C13.6646 9.81943 13.6479 9.87643 13.5731 9.97127C13.5468 9.99666 13.5202 10.0216 13.4932 10.0461C13.4671 10.0711 13.441 10.096 13.4141 10.1217C13.3359 10.1914 13.3359 10.1914 13.2557 10.2383C13.1936 10.2938 13.1936 10.2938 13.1962 10.3579C13.2043 10.43 13.217 10.4997 13.2317 10.5708C13.2407 10.6191 13.2497 10.6675 13.2585 10.7159C13.2627 10.7386 13.2668 10.7614 13.2711 10.7849C13.2917 10.9125 13.2991 10.9849 13.2266 11.0938C13.0296 11.1239 12.9022 11.0297 12.7406 10.9327C12.6506 10.8813 12.5917 10.8479 12.4866 10.8468C12.3658 10.8892 12.2602 10.9518 12.1507 11.0173C12.0318 11.0849 11.945 11.1127 11.8047 11.0938C11.7514 11.0609 11.7514 11.0609 11.7227 11.0117C11.7187 10.9523 11.7187 10.9523 11.7278 10.8818C11.7306 10.8553 11.7335 10.8287 11.7364 10.8013C11.7461 10.7367 11.7586 10.6724 11.773 10.6086C11.8188 10.4109 11.8188 10.4109 11.7601 10.2257C11.6964 10.1617 11.6315 10.1078 11.5586 10.0547C11.3742 9.9136 11.3742 9.9136 11.3364 9.7898C11.3398 9.69922 11.3398 9.69922 11.3722 9.65334C11.4382 9.6053 11.4826 9.60663 11.5638 9.60448C11.874 9.59516 11.874 9.59516 12.1335 9.45064C12.2077 9.33482 12.2554 9.21382 12.3015 9.08473C12.333 8.99741 12.3481 8.96417 12.4179 8.89952C12.5092 8.87277 12.5418 8.88989 12.625 8.9336ZM12.4883 9.42578C12.477 9.45081 12.4657 9.47584 12.4541 9.50162C12.3312 9.76003 12.3312 9.76003 12.2422 9.81511C12.1869 9.82754 12.1347 9.83252 12.0781 9.83594C12.0414 9.84532 12.0049 9.85554 11.9688 9.8667C11.9417 9.8746 11.9146 9.88249 11.8867 9.89063C11.8976 9.90318 11.9085 9.91572 11.9197 9.92865C11.9342 9.94543 11.9487 9.96221 11.9636 9.97949C11.9779 9.99599 11.9922 10.0125 12.0069 10.0295C12.0214 10.0468 12.0359 10.0642 12.0508 10.082C12.0663 10.0975 12.0818 10.1131 12.0978 10.129C12.1507 10.2232 12.1346 10.3133 12.1243 10.417C12.1226 10.4374 12.1209 10.4577 12.1192 10.4787C12.115 10.5288 12.1103 10.5789 12.1055 10.6289C12.1934 10.601 12.2696 10.5742 12.3499 10.5281C12.458 10.4817 12.5116 10.4902 12.625 10.5195C12.684 10.5461 12.7407 10.5747 12.7973 10.6059C12.8433 10.6329 12.8433 10.6329 12.8984 10.6289C12.8949 10.5992 12.8913 10.5696 12.8876 10.539C12.8838 10.4995 12.88 10.4599 12.8762 10.4204C12.8738 10.4009 12.8713 10.3814 12.8688 10.3613C12.8592 10.2513 12.8624 10.187 12.9343 10.1C12.9586 10.076 12.9828 10.052 13.0078 10.0273C13.0292 10.0046 13.0292 10.0046 13.0511 9.98142C13.0822 9.95115 13.1134 9.92089 13.1445 9.89063C13.0813 9.82737 12.9351 9.83999 12.8492 9.83028C12.7483 9.80527 12.7155 9.78042 12.6523 9.69922C12.6118 9.62873 12.6118 9.62873 12.5771 9.55567C12.5654 9.53128 12.5537 9.50688 12.5417 9.48175C12.5331 9.46328 12.5245 9.44481 12.5156 9.42578C12.5066 9.42578 12.4976 9.42578 12.4883 9.42578Z" fill="#00080C"/>
<path d="M5.13299 8.93358C5.18016 9.00011 5.2135 9.07155 5.24749 9.14549C5.26153 9.17436 5.26153 9.17436 5.27585 9.20381C5.32771 9.31216 5.37115 9.42008 5.40643 9.53514C5.43057 9.53648 5.45472 9.53782 5.47959 9.5392C6.04351 9.57433 6.04351 9.57433 6.15496 9.67699C6.17429 9.76397 6.16513 9.81579 6.12506 9.89542C6.04522 10.0091 5.92877 10.0924 5.81957 10.1765C5.7587 10.2282 5.71035 10.2722 5.70133 10.3542C5.70784 10.42 5.72032 10.4823 5.73455 10.5469C5.74447 10.6038 5.75415 10.6608 5.76361 10.7178C5.77085 10.7577 5.77085 10.7577 5.77824 10.7985C5.80503 10.9848 5.80503 10.9848 5.76019 11.0613C5.6758 11.113 5.61369 11.1027 5.5158 11.0937C5.43291 11.0593 5.35702 11.0148 5.27996 10.969C5.13982 10.8798 5.13982 10.8798 4.98174 10.8468C4.86447 10.8958 4.75356 10.9559 4.6424 11.0173C4.51975 11.0819 4.4275 11.1135 4.28533 11.0937C4.22003 10.9958 4.22684 10.9656 4.23748 10.8511C4.24013 10.8195 4.24277 10.7879 4.24549 10.7554C4.25799 10.6562 4.25799 10.6562 4.27989 10.5605C4.30011 10.4709 4.31543 10.3927 4.31268 10.3008C4.25627 10.214 4.17837 10.1671 4.09393 10.1094C4.04733 10.0689 4.00174 10.0273 3.95721 9.9846C3.92591 9.95579 3.92591 9.95579 3.89398 9.92639C3.83409 9.84447 3.8329 9.79856 3.84783 9.6992C3.9049 9.62665 3.94965 9.60537 4.03977 9.59122C4.06098 9.58778 4.08218 9.58434 4.10402 9.5808C4.12607 9.57758 4.14812 9.57435 4.17083 9.57103C4.20343 9.56572 4.20343 9.56572 4.23668 9.5603C4.35427 9.54191 4.46672 9.5311 4.58612 9.53514C4.59267 9.51304 4.59923 9.49094 4.60598 9.46817C4.64839 9.34992 4.7024 9.24134 4.76043 9.13011C4.77101 9.10891 4.78158 9.08771 4.79247 9.06587C4.80823 9.03565 4.80823 9.03565 4.8243 9.00482C4.83369 8.98654 4.84308 8.96825 4.85276 8.94941C4.93183 8.84941 5.03469 8.87304 5.13299 8.93358ZM4.99627 9.42577C4.98499 9.45079 4.97371 9.47582 4.96209 9.5016C4.83958 9.75913 4.83958 9.75913 4.75018 9.81606C4.69421 9.82939 4.64357 9.83435 4.58612 9.83592C4.54961 9.84132 4.51315 9.84699 4.47674 9.85301C4.43613 9.85809 4.43613 9.85809 4.39471 9.86327C4.38546 9.94678 4.38546 9.94678 4.4416 9.99635C4.48201 10.0329 4.52245 10.0693 4.56294 10.1057C4.64156 10.1965 4.64206 10.2685 4.63749 10.3859C4.63464 10.4148 4.63178 10.4436 4.62884 10.4734C4.62606 10.5026 4.62327 10.5318 4.6204 10.5619C4.61811 10.584 4.61582 10.6061 4.61346 10.6289C4.69879 10.6031 4.77084 10.5785 4.84588 10.5298C4.93235 10.4822 4.98018 10.4839 5.0783 10.4922C5.1661 10.5281 5.1661 10.5281 5.25262 10.5742C5.28159 10.5894 5.31057 10.6047 5.34042 10.6203C5.3622 10.6322 5.38398 10.644 5.40643 10.6562C5.39966 10.6029 5.39966 10.6029 5.39276 10.5486C5.39057 10.526 5.38838 10.5035 5.38613 10.4803C5.38168 10.4359 5.37599 10.3916 5.36862 10.3477C5.35642 10.2361 5.36319 10.1844 5.43398 10.0939C5.49561 10.0322 5.55839 9.97401 5.62518 9.91795C5.61164 9.89088 5.61164 9.89088 5.59783 9.86327C5.52837 9.85026 5.4611 9.8403 5.39105 9.83251C5.37161 9.83014 5.35217 9.82778 5.33214 9.82535C5.28401 9.81953 5.23585 9.81403 5.18768 9.80858C5.17985 9.78398 5.17203 9.75937 5.16397 9.73402C5.13841 9.66019 5.11065 9.59404 5.07488 9.52489C5.06523 9.50607 5.05557 9.48724 5.04562 9.46785C5.03836 9.45396 5.0311 9.44008 5.02362 9.42577C5.01459 9.42577 5.00557 9.42577 4.99627 9.42577Z" fill="#00080C"/>
<path d="M10.0506 8.88745C10.1839 8.9589 10.2222 9.07317 10.2837 9.20703C10.296 9.23241 10.3083 9.25779 10.321 9.28394C10.4102 9.47044 10.4102 9.47044 10.4102 9.53516C10.434 9.53618 10.4578 9.5372 10.4824 9.53825C11.0459 9.56936 11.0459 9.56936 11.1484 9.67187C11.1639 9.75604 11.1639 9.75604 11.1484 9.86328C11.0671 9.96479 10.9639 10.0454 10.8641 10.1282C10.7459 10.2326 10.7459 10.2326 10.7029 10.379C10.7097 10.4553 10.7212 10.5269 10.7383 10.6016C10.7649 10.7467 10.7813 10.8917 10.7656 11.0391C10.7109 11.0937 10.7109 11.0937 10.6264 11.105C10.469 11.0884 10.3588 11.013 10.225 10.9327C10.1349 10.8813 10.0761 10.8479 9.97095 10.8468C9.85021 10.8892 9.74455 10.9518 9.63508 11.0173C9.51589 11.0851 9.42982 11.1103 9.28906 11.0937C9.23438 11.0391 9.23438 11.0391 9.22754 10.9331C9.23011 10.8007 9.25208 10.6738 9.2771 10.544C9.28105 10.5179 9.285 10.4918 9.28906 10.4648C9.29414 10.439 9.29921 10.4131 9.30444 10.3864C9.27558 10.2257 9.12485 10.1322 9.00708 10.0276C8.85526 9.88623 8.85526 9.88623 8.83447 9.75722C8.85156 9.67187 8.85156 9.67187 8.90625 9.61719C8.98569 9.59978 9.06359 9.58526 9.1438 9.57275C9.16542 9.56909 9.18705 9.56542 9.20933 9.56165C9.3379 9.54084 9.45965 9.53132 9.58984 9.53516C9.59962 9.50201 9.59962 9.50201 9.6096 9.46819C9.65224 9.34966 9.70717 9.24136 9.76587 9.13013C9.78207 9.09832 9.78207 9.09832 9.79861 9.06588C9.8092 9.04574 9.81979 9.02559 9.8307 9.00484C9.845 8.97741 9.845 8.97741 9.85959 8.94942C9.91244 8.8759 9.96529 8.8781 10.0506 8.88745ZM9.97266 9.45312C9.96335 9.47618 9.95405 9.49923 9.94446 9.52298C9.83846 9.76261 9.83846 9.76261 9.75572 9.81425C9.69944 9.82775 9.64762 9.83339 9.58984 9.83594C9.55335 9.84139 9.51689 9.84707 9.48047 9.85303C9.43986 9.8581 9.43986 9.8581 9.39844 9.86328C9.38919 9.9468 9.38919 9.9468 9.44533 9.99637C9.48573 10.0329 9.52618 10.0693 9.56667 10.1057C9.64529 10.1965 9.64579 10.2685 9.64122 10.3859C9.63837 10.4148 9.63551 10.4436 9.63257 10.4734C9.62978 10.5026 9.627 10.5318 9.62413 10.5619C9.62184 10.584 9.61955 10.6061 9.61719 10.6289C9.70251 10.6031 9.77457 10.5786 9.84961 10.5298C9.93608 10.4822 9.98391 10.4839 10.082 10.4922C10.1698 10.5281 10.1698 10.5281 10.2563 10.5742C10.2853 10.5894 10.3143 10.6047 10.3441 10.6204C10.3659 10.6322 10.3877 10.644 10.4102 10.6562C10.4034 10.6106 10.4034 10.6106 10.3965 10.564C10.3919 10.5218 10.3873 10.4797 10.3828 10.4375C10.3794 10.4155 10.3759 10.3934 10.3723 10.3707C10.3608 10.2519 10.3636 10.1893 10.4377 10.092C10.4992 10.0306 10.5618 9.97312 10.6289 9.91797C10.6154 9.8909 10.6154 9.8909 10.6016 9.86328C10.5117 9.84657 10.4217 9.83701 10.3309 9.82664C10.2416 9.80764 10.2159 9.79917 10.1641 9.72656C10.1381 9.68008 10.1136 9.63271 10.0906 9.58472C10.0727 9.54776 10.0727 9.54776 10.0544 9.51006C10.041 9.48187 10.041 9.48187 10.0273 9.45312C10.0093 9.45312 9.99125 9.45312 9.97266 9.45312Z" fill="#00080C"/>
<path d="M7.55594 8.89257C7.66354 8.96053 7.70044 9.05719 7.7357 9.17551C7.77781 9.30227 7.82021 9.41695 7.92166 9.5078C8.10779 9.58302 8.31305 9.59417 8.51183 9.60477C8.58878 9.61922 8.61493 9.63579 8.65994 9.69921C8.66494 9.79788 8.65695 9.86232 8.59113 9.93881C8.53652 9.98904 8.48053 10.0373 8.4241 10.0854C8.27458 10.2197 8.27458 10.2197 8.20044 10.4006C8.20849 10.4907 8.22457 10.5695 8.24979 10.6562C8.27441 10.7876 8.2838 10.9057 8.27713 11.0391C8.22244 11.0937 8.22244 11.0937 8.13795 11.105C7.98047 11.0884 7.87027 11.013 7.7365 10.9327C7.64645 10.8813 7.58758 10.8479 7.48245 10.8468C7.36172 10.8892 7.25605 10.9518 7.14658 11.0173C7.02823 11.0846 6.94025 11.1153 6.80057 11.0937C6.74279 11.0358 6.71896 11.0041 6.71719 10.9214C6.72123 10.8988 6.72527 10.8762 6.72943 10.8529C6.73352 10.8279 6.73761 10.803 6.74182 10.7773C6.74654 10.7515 6.75127 10.7256 6.75613 10.699C6.7651 10.6478 6.77387 10.5965 6.78241 10.5453C6.78651 10.5226 6.79061 10.5 6.79484 10.4766C6.80378 10.3729 6.79686 10.3021 6.72952 10.2203C6.71116 10.2038 6.69281 10.1872 6.67389 10.1701C6.65412 10.1516 6.63434 10.133 6.61397 10.1139C6.57196 10.0755 6.52981 10.0373 6.4875 9.99919C6.33644 9.85664 6.33644 9.85664 6.33252 9.74354C6.36307 9.67187 6.36307 9.67187 6.41776 9.61718C6.47987 9.60961 6.47987 9.60961 6.55704 9.60714C6.86877 9.59637 6.86877 9.59637 7.12948 9.45051C7.21651 9.31465 7.26753 9.16844 7.32138 9.01726C7.34744 8.96093 7.34744 8.96093 7.41783 8.90207C7.48416 8.8789 7.48416 8.8789 7.55594 8.89257ZM7.48416 9.42577C7.47066 9.45111 7.45716 9.47646 7.44325 9.50257C7.42556 9.53565 7.40786 9.56872 7.39017 9.6018C7.38127 9.61852 7.37237 9.63525 7.3632 9.65248C7.29585 9.77814 7.29585 9.77814 7.26541 9.80858C7.2058 9.81943 7.14593 9.8289 7.08597 9.83764C7.05322 9.84247 7.02048 9.84729 6.98674 9.85227C6.9614 9.8559 6.93605 9.85953 6.90994 9.86327C6.90107 9.94541 6.90107 9.94541 6.95085 9.99326C6.96837 10.0096 6.98589 10.0259 7.00394 10.0427C7.09901 10.132 7.09901 10.132 7.12869 10.1914C7.12625 10.2659 7.12231 10.3393 7.11673 10.4136C7.1153 10.4342 7.11387 10.4548 7.1124 10.476C7.10886 10.527 7.10512 10.578 7.10135 10.6289C7.18927 10.601 7.26547 10.5742 7.34573 10.5281C7.45384 10.4817 7.50748 10.4902 7.62088 10.5195C7.67985 10.5461 7.73656 10.5747 7.79317 10.6059C7.83916 10.6329 7.83916 10.6329 7.89432 10.6289C7.89076 10.5989 7.8872 10.5689 7.88353 10.538C7.87968 10.4982 7.87587 10.4585 7.8721 10.4187C7.86965 10.399 7.8672 10.3792 7.86468 10.3589C7.85503 10.2477 7.85826 10.202 7.93021 10.1145C7.95446 10.0948 7.97871 10.075 8.00369 10.0547C8.02983 10.0249 8.05559 9.99482 8.0806 9.9641C8.10034 9.93985 8.12007 9.9156 8.14041 9.89062C8.07646 9.82667 7.92914 9.83817 7.84241 9.8276C7.75293 9.80754 7.72784 9.79916 7.67557 9.72655C7.64519 9.67548 7.61621 9.62355 7.58841 9.57104C7.57392 9.54386 7.55944 9.51668 7.54451 9.48868C7.53362 9.46792 7.52273 9.44716 7.51151 9.42577C7.50248 9.42577 7.49346 9.42577 7.48416 9.42577Z" fill="#00080C"/>
</svg>
