<svg width="33" height="33" viewBox="0 0 33 33" fill="none" xmlns="http://www.w3.org/2000/svg">
<ellipse cx="16.3616" cy="16.3622" rx="16.3616" ry="16.3622" fill="#1E552A"/>
<path d="M16.7976 5.0135C16.8385 5.03092 16.8795 5.04835 16.9216 5.06631C17.056 5.12361 17.1901 5.18144 17.3242 5.23926C17.4655 5.29969 17.6069 5.35999 17.7483 5.42028C17.8457 5.46185 17.9431 5.50347 18.0405 5.54513C18.3804 5.69046 18.7209 5.83398 19.0621 5.97626C19.1082 5.9955 19.1543 6.01473 19.2018 6.03454C19.3804 6.109 19.559 6.1834 19.7377 6.2577C19.8604 6.30876 19.9831 6.35994 20.1058 6.41114C20.1417 6.42604 20.1777 6.44095 20.2147 6.4563C20.815 6.7071 20.815 6.7071 20.9219 6.90626C20.9424 7.06106 20.9396 7.21481 20.9378 7.37075C20.9379 7.41787 20.9379 7.46499 20.9379 7.51353C20.9378 7.66927 20.9367 7.82499 20.9356 7.98072C20.9353 8.0887 20.9351 8.19668 20.935 8.30466C20.9345 8.58887 20.9331 8.87306 20.9315 9.15727C20.9301 9.44727 20.9295 9.73728 20.9287 10.0273C20.9272 10.5963 20.9248 11.1654 20.9219 11.7344C20.9663 11.7332 21.0107 11.7319 21.0564 11.7307C21.2233 11.7266 21.3901 11.7237 21.557 11.7215C21.6289 11.7203 21.7007 11.7187 21.7725 11.7167C22.2117 11.7045 22.5591 11.7189 22.9375 11.9688C22.9865 11.9963 23.0356 12.0239 23.0861 12.0523C23.1283 12.0777 23.1705 12.1031 23.214 12.1293C23.2629 12.1586 23.3118 12.1878 23.3621 12.218C23.4391 12.2643 23.4391 12.2643 23.5176 12.3115C23.6292 12.3783 23.7409 12.445 23.8527 12.5115C23.8812 12.5285 23.9098 12.5455 23.9392 12.563C24.3123 12.7844 24.6899 12.9981 25.0678 13.2113C25.3146 13.3511 25.5603 13.4926 25.8027 13.64C25.8638 13.6768 25.8638 13.6768 25.9261 13.7145C26.0527 13.8137 26.1031 13.885 26.1719 14.0313C26.1849 14.1716 26.1903 14.3019 26.1888 14.442C26.1889 14.4834 26.189 14.5248 26.1891 14.5674C26.1894 14.7059 26.1886 14.8445 26.1878 14.983C26.1878 15.0823 26.1878 15.1817 26.1879 15.281C26.1879 15.5507 26.1871 15.8204 26.1861 16.0901C26.1853 16.3719 26.1852 16.6538 26.185 16.9356C26.1846 17.4693 26.1834 18.003 26.182 18.5368C26.1804 19.1444 26.1797 19.752 26.179 20.3596C26.1775 21.6095 26.175 22.8595 26.1719 24.1094C26.2238 24.1072 26.2758 24.105 26.3293 24.1028C26.3979 24.101 26.4666 24.0993 26.5352 24.0977C26.5694 24.0961 26.6036 24.0945 26.6388 24.0929C26.8051 24.0899 26.9016 24.0947 27.0381 24.1936C27.1431 24.3458 27.1383 24.4448 27.1094 24.625C26.9768 24.7676 26.8977 24.8094 26.7034 24.8361C26.6353 24.8371 26.5672 24.8371 26.4991 24.8362C26.4613 24.8365 26.4235 24.8368 26.3846 24.8371C26.2574 24.8378 26.1303 24.8372 26.0031 24.8366C25.9112 24.8369 25.8193 24.8372 25.7275 24.8376C25.4746 24.8385 25.2217 24.8382 24.9688 24.8377C24.6963 24.8374 24.4237 24.8381 24.1511 24.8387C23.617 24.8398 23.0829 24.8397 22.5488 24.8394C22.1148 24.8391 21.6809 24.8391 21.2469 24.8394C21.1852 24.8395 21.1235 24.8395 21.0599 24.8396C20.966 24.8396 20.8721 24.8397 20.7782 24.8397C19.905 24.8404 19.0319 24.8406 18.1587 24.84C18.1257 24.84 18.0928 24.84 18.0589 24.84C17.7915 24.8398 17.5241 24.8396 17.2567 24.8395C16.2135 24.8388 15.1703 24.8392 14.1271 24.8405C12.9554 24.842 11.7838 24.8427 10.6121 24.8422C10.4872 24.8421 10.3623 24.8421 10.2375 24.842C10.1453 24.842 10.1453 24.842 10.0513 24.842C9.61769 24.8419 9.18409 24.8423 8.75049 24.843C8.2223 24.8438 7.6941 24.8438 7.1659 24.8428C6.89626 24.8422 6.62662 24.8421 6.35697 24.843C6.11033 24.8438 5.86372 24.8435 5.61708 24.8423C5.52766 24.8421 5.43823 24.8422 5.34881 24.8428C5.2276 24.8436 5.10649 24.8429 4.98529 24.8419C4.95025 24.8424 4.91521 24.843 4.87911 24.8436C4.69578 24.8403 4.61591 24.8177 4.47034 24.7025C4.375 24.5781 4.375 24.5781 4.34863 24.4346C4.38211 24.2598 4.41886 24.2141 4.5625 24.1094C4.69999 24.0866 4.83378 24.0917 4.97266 24.0977C5.00982 24.0985 5.04698 24.0994 5.08527 24.1002C5.17666 24.1024 5.26802 24.1058 5.35938 24.1094C5.35925 24.0583 5.35912 24.0072 5.35898 23.9546C5.35586 22.7129 5.35355 21.4713 5.35209 20.2296C5.35136 19.6291 5.35037 19.0287 5.34877 18.4282C5.34737 17.905 5.34646 17.3818 5.34614 16.8586C5.34596 16.5815 5.34553 16.3043 5.34451 16.0271C5.34356 15.7665 5.34326 15.5058 5.34347 15.2452C5.34343 15.1493 5.34315 15.0534 5.34261 14.9576C5.34192 14.8271 5.34208 14.6966 5.34246 14.5661C5.34205 14.5278 5.34165 14.4895 5.34122 14.4501C5.34323 14.1995 5.34323 14.1995 5.41423 14.078C5.53495 14.0122 5.62688 14.014 5.76427 14.0143C5.81929 14.0142 5.8743 14.014 5.93099 14.0138C5.99141 14.0143 6.05183 14.0148 6.11408 14.0153C6.17829 14.0153 6.24251 14.0153 6.30672 14.0152C6.48114 14.0152 6.65554 14.016 6.82995 14.017C7.01219 14.0179 7.19443 14.018 7.37667 14.0181C7.72181 14.0186 8.06694 14.0197 8.41207 14.0211C8.80498 14.0227 9.19789 14.0235 9.59079 14.0242C10.3991 14.0257 11.2073 14.0281 12.0156 14.0313C12.0155 13.9925 12.0153 13.9538 12.0151 13.9139C12.011 12.9723 12.0079 12.0306 12.0059 11.089C12.0049 10.6336 12.0036 10.1783 12.0015 9.7229C11.9996 9.32606 11.9984 8.92922 11.998 8.53238C11.9977 8.3222 11.9972 8.11203 11.9958 7.90186C11.9945 7.7041 11.9941 7.50635 11.9944 7.30859C11.9944 7.23595 11.994 7.16331 11.9933 7.09067C11.9923 6.99157 11.9926 6.89254 11.9931 6.79344C11.9929 6.73796 11.9927 6.68248 11.9926 6.62532C12.0207 6.45366 12.0671 6.40188 12.2031 6.29688C12.3268 6.23901 12.4468 6.18848 12.5743 6.14088C12.6115 6.12651 12.6487 6.11214 12.687 6.09734C12.8097 6.05009 12.9327 6.00355 13.0557 5.95704C13.1851 5.90759 13.3145 5.858 13.4439 5.80841C13.5335 5.77405 13.6232 5.73976 13.7129 5.70553C14.0327 5.58327 14.3507 5.45713 14.6683 5.32917C14.7986 5.27699 14.929 5.22487 15.0593 5.17277C15.1431 5.13912 15.2268 5.10523 15.3103 5.07109C15.4273 5.02336 15.5446 4.97659 15.662 4.93C15.6962 4.91573 15.7305 4.90146 15.7658 4.88677C16.1478 4.73753 16.4384 4.85715 16.7976 5.0135ZM15.4353 5.77489C15.3871 5.794 15.3389 5.8131 15.2892 5.83278C15.237 5.85372 15.1849 5.87467 15.1312 5.89625C15.0773 5.91765 15.0235 5.93906 14.968 5.96111C14.8246 6.0182 14.6812 6.0755 14.5379 6.1329C14.3936 6.1906 14.2493 6.24803 14.1049 6.30549C13.799 6.42734 13.4932 6.54954 13.1875 6.67188C13.0328 6.73376 12.8781 6.79563 12.7188 6.85938C12.7188 12.5519 12.7188 18.2444 12.7188 24.1094C13.7397 24.1094 14.7606 24.1094 15.8125 24.1094C15.8125 18.0302 15.8125 11.9509 15.8125 5.68751C15.66 5.68751 15.5762 5.71868 15.4353 5.77489ZM16.4688 5.68751C16.4688 11.7667 16.4688 17.8459 16.4688 24.1094C17.7063 24.1094 18.9438 24.1094 20.2188 24.1094C20.2188 18.5406 20.2188 12.9719 20.2188 7.23438C18.833 6.64469 18.833 6.64469 17.4464 6.05696C17.3735 6.02609 17.3005 5.99516 17.2276 5.96417C17.1169 5.91714 17.0062 5.87032 16.8954 5.82355C16.8628 5.80965 16.8302 5.79574 16.7966 5.78142C16.6382 5.71097 16.6382 5.71097 16.4688 5.68751ZM20.9219 12.4375C20.9219 16.2892 20.9219 20.1409 20.9219 24.1094C21.2931 24.1094 21.6644 24.1094 22.0469 24.1094C22.0469 20.2577 22.0469 16.4059 22.0469 12.4375C21.6756 12.4375 21.3044 12.4375 20.9219 12.4375ZM22.75 12.7188C22.75 16.4777 22.75 20.2366 22.75 24.1094C23.6472 24.1094 24.5444 24.1094 25.4688 24.1094C25.4688 20.8609 25.4688 17.6125 25.4688 14.2656C25.0666 14.0336 24.6644 13.8016 24.25 13.5625C24.126 13.4907 24.002 13.4189 23.8743 13.345C23.8245 13.3162 23.7747 13.2873 23.7234 13.2576C23.6255 13.2009 23.5276 13.1442 23.4297 13.0873C23.3811 13.0592 23.3325 13.0312 23.2825 13.0022C23.2406 12.978 23.1988 12.9537 23.1557 12.9287C23.0227 12.8546 22.8862 12.7869 22.75 12.7188ZM6.0625 14.6875C6.0625 17.7967 6.0625 20.9059 6.0625 24.1094C8.02703 24.1094 9.99156 24.1094 12.0156 24.1094C12.0156 21.0002 12.0156 17.8909 12.0156 14.6875C10.0511 14.6875 8.08656 14.6875 6.0625 14.6875Z" fill="white"/>
<path d="M7.1377 21.3203C7.1796 21.319 7.2215 21.3177 7.26468 21.3163C7.47897 21.3157 7.57904 21.3214 7.75586 21.4518C7.84375 21.5781 7.84375 21.5781 7.84668 21.7481C7.79688 21.9063 7.79688 21.9063 7.72913 21.985C7.53984 22.0828 7.35348 22.0709 7.14355 22.0703C7.0807 22.0723 7.0807 22.0723 7.01657 22.0743C6.80228 22.075 6.70221 22.0693 6.52539 21.9389C6.4375 21.8125 6.4375 21.8125 6.43457 21.6426C6.48438 21.4844 6.48438 21.4844 6.55212 21.4056C6.74141 21.3078 6.92777 21.3197 7.1377 21.3203Z" fill="white"/>
<path d="M6.88867 18.2782C6.92952 18.278 6.97037 18.2778 7.01245 18.2776C7.05475 18.2782 7.09705 18.2787 7.14063 18.2793C7.20407 18.2785 7.20407 18.2785 7.2688 18.2776C7.33007 18.2779 7.33007 18.2779 7.39258 18.2782C7.42968 18.2784 7.46678 18.2785 7.50501 18.2787C7.63596 18.3015 7.70037 18.3473 7.79688 18.4375C7.8528 18.609 7.85906 18.6859 7.78223 18.8506C7.70313 18.9531 7.70313 18.9531 7.60938 19C7.4564 19.0149 7.30302 19.0152 7.14941 19.0176C7.10709 19.0193 7.06476 19.0211 7.02115 19.0229C6.80495 19.0257 6.70394 19.0235 6.52502 18.8923C6.4375 18.7656 6.4375 18.7656 6.43457 18.5957C6.51128 18.352 6.63816 18.2793 6.88867 18.2782Z" fill="white"/>
<path d="M6.88867 15.2313C6.92952 15.2311 6.97037 15.231 7.01245 15.2308C7.05475 15.2313 7.09705 15.2319 7.14063 15.2324C7.20407 15.2316 7.20407 15.2316 7.2688 15.2308C7.33007 15.231 7.33007 15.231 7.39258 15.2313C7.42968 15.2315 7.46678 15.2316 7.50501 15.2318C7.63596 15.2546 7.70037 15.3004 7.79688 15.3906C7.8528 15.5621 7.85906 15.6391 7.78223 15.8037C7.70313 15.9062 7.70313 15.9062 7.60938 15.9531C7.4564 15.968 7.30302 15.9683 7.14941 15.9707C7.10709 15.9725 7.06476 15.9742 7.02115 15.976C6.80495 15.9789 6.70394 15.9766 6.52502 15.8455C6.4375 15.7188 6.4375 15.7188 6.43457 15.5488C6.51128 15.3052 6.63816 15.2324 6.88867 15.2313Z" fill="white"/>
<path d="M9.03613 21.3262C9.08088 21.325 9.12562 21.3239 9.17172 21.3227C9.49924 21.3213 9.49924 21.3213 9.6543 21.43C9.74417 21.5712 9.74894 21.6481 9.71875 21.8125C9.6222 21.947 9.54664 22.0338 9.38027 22.0687C9.25693 22.0767 9.13624 22.0765 9.0127 22.0732C8.97061 22.0737 8.92852 22.0743 8.88516 22.0748C8.57975 22.0714 8.57975 22.0714 8.42657 21.9571C8.35586 21.8543 8.32005 21.7964 8.3125 21.6719C8.42299 21.2851 8.69304 21.3266 9.03613 21.3262Z" fill="white"/>
<path d="M9.00977 18.2793C9.07294 18.2776 9.07294 18.2776 9.13739 18.2758C9.33806 18.2749 9.45389 18.2787 9.62939 18.3831C9.71875 18.4844 9.71875 18.4844 9.74805 18.6221C9.70773 18.8196 9.64494 18.8782 9.48438 19C9.32629 19.0331 9.17364 19.0307 9.0127 19.0264C8.97061 19.0269 8.92852 19.0274 8.88516 19.0279C8.57975 19.0245 8.57975 19.0245 8.42657 18.9103C8.35586 18.8074 8.32005 18.7496 8.3125 18.625C8.42033 18.2476 8.67351 18.2798 9.00977 18.2793Z" fill="white"/>
<path d="M9.00684 15.2324C9.04916 15.2307 9.09149 15.2289 9.1351 15.2271C9.35192 15.2242 9.45168 15.2254 9.62958 15.3593C9.71875 15.4844 9.71875 15.4844 9.74805 15.6279C9.71875 15.7656 9.71875 15.7656 9.62921 15.8667C9.42316 15.9896 9.2481 15.9789 9.0127 15.9736C8.94957 15.9741 8.94957 15.9741 8.88516 15.9746C8.5813 15.9717 8.5813 15.9717 8.42676 15.8883C8.333 15.7828 8.31579 15.7194 8.3125 15.5781C8.46462 15.2014 8.6382 15.2381 9.00684 15.2324Z" fill="white"/>
<path d="M10.9141 21.3203C10.9586 21.3196 11.0031 21.3189 11.049 21.3181C11.3718 21.3199 11.3718 21.3199 11.5291 21.4287C11.6255 21.5817 11.6221 21.6827 11.5938 21.8594C11.4581 22.0122 11.3485 22.0591 11.1499 22.0718C11.0713 22.0723 10.9927 22.0717 10.9141 22.0703C10.8746 22.071 10.8351 22.0718 10.7945 22.0725C10.6023 22.0713 10.4937 22.0616 10.3254 21.9619C10.2344 21.8594 10.2344 21.8594 10.208 21.6953C10.2344 21.5312 10.2344 21.5312 10.299 21.4287C10.4926 21.2948 10.6844 21.3166 10.9141 21.3203Z" fill="white"/>
<path d="M10.9141 18.2734C10.9586 18.2727 11.0031 18.272 11.049 18.2712C11.3716 18.273 11.3716 18.273 11.5295 18.3816C11.6233 18.5315 11.6157 18.6397 11.5938 18.8125C11.5214 18.9111 11.4681 18.9456 11.3594 19C11.2142 19.0136 11.0686 19.013 10.9229 19.0146C10.8828 19.016 10.8427 19.0174 10.8014 19.0188C10.6061 19.0207 10.4964 19.0162 10.3248 18.9156C10.2344 18.8125 10.2344 18.8125 10.208 18.6484C10.2344 18.4844 10.2344 18.4844 10.299 18.3818C10.4926 18.248 10.6844 18.2697 10.9141 18.2734Z" fill="white"/>
<path d="M10.917 15.2324C10.9568 15.2325 10.9967 15.2325 11.0378 15.2326C11.2334 15.2354 11.3764 15.2386 11.5469 15.3437C11.6193 15.4887 11.6075 15.606 11.5938 15.7656C11.5299 15.8685 11.5299 15.8685 11.4063 15.9531C11.2418 15.9811 11.0805 15.9793 10.9141 15.9765C10.8695 15.9773 10.825 15.978 10.7791 15.9787C10.4563 15.9769 10.4563 15.9769 10.299 15.8681C10.2026 15.7152 10.206 15.6141 10.2344 15.4375C10.4348 15.2104 10.6349 15.2242 10.917 15.2324Z" fill="white"/>
<path d="M7.14355 19.8232C7.19072 19.8229 7.23788 19.8226 7.28647 19.8222C7.63218 19.8252 7.63218 19.8252 7.73836 19.9069C7.82858 20.0263 7.84078 20.1171 7.84375 20.2656C7.78259 20.3905 7.78259 20.3905 7.65625 20.5C7.4829 20.5332 7.31359 20.5284 7.1377 20.5234C7.09053 20.5236 7.04337 20.5237 6.99478 20.5238C6.65059 20.5192 6.65059 20.5192 6.54289 20.4384C6.44563 20.3071 6.44031 20.1917 6.4375 20.0312C6.59484 19.7665 6.87089 19.8178 7.14355 19.8232Z" fill="white"/>
<path d="M9.0332 22.876C9.08323 22.8746 9.13327 22.8733 9.18481 22.8719C9.23279 22.8715 9.28077 22.8711 9.3302 22.8707C9.37433 22.87 9.41847 22.8693 9.46394 22.8686C9.57812 22.8906 9.57812 22.8906 9.66265 22.9768C9.73948 23.1156 9.74154 23.2031 9.71875 23.3594C9.65613 23.4606 9.65613 23.4606 9.53125 23.5469C9.35806 23.574 9.18762 23.5709 9.0127 23.5674C8.94195 23.5679 8.94195 23.5679 8.86978 23.5684C8.52357 23.5654 8.52357 23.5654 8.41771 23.4822C8.3368 23.3768 8.31882 23.3046 8.3125 23.1719C8.48861 22.8196 8.66455 22.8793 9.0332 22.876Z" fill="white"/>
<path d="M7.14059 22.876C7.18796 22.8752 7.23534 22.8745 7.28415 22.8737C7.3523 22.8736 7.3523 22.8736 7.42184 22.8736C7.46341 22.8735 7.50499 22.8733 7.54782 22.8732C7.67849 22.8942 7.71816 22.9266 7.79684 23.0313C7.85172 23.1995 7.86127 23.2769 7.78238 23.437C7.586 23.608 7.39243 23.5811 7.14059 23.5762C7.09382 23.5771 7.04705 23.578 6.99887 23.5789C6.65967 23.5766 6.65967 23.5766 6.49881 23.4387C6.41538 23.2671 6.43303 23.1657 6.48434 22.9844C6.694 22.8446 6.894 22.8752 7.14059 22.876Z" fill="white"/>
<path d="M9.00684 19.8291C9.05424 19.8277 9.10164 19.8264 9.15048 19.825C9.49955 19.822 9.49955 19.822 9.65631 19.9296C9.7421 20.0692 9.74558 20.1515 9.71875 20.3125C9.65594 20.4138 9.65594 20.4138 9.53125 20.5C9.35806 20.5271 9.18762 20.524 9.0127 20.5205C8.94195 20.521 8.94195 20.521 8.86978 20.5215C8.52357 20.5185 8.52357 20.5185 8.41771 20.4354C8.3368 20.33 8.31882 20.2577 8.3125 20.125C8.48503 19.7799 8.64543 19.8325 9.00684 19.8291Z" fill="white"/>
<path d="M10.4877 16.7733C10.5313 16.7734 10.5748 16.7735 10.6196 16.7736C10.6672 16.7736 10.7148 16.7735 10.7637 16.7735C10.8134 16.7745 10.863 16.7754 10.9141 16.7764C10.9637 16.776 11.0133 16.7757 11.0644 16.7753C11.4294 16.7784 11.4294 16.7784 11.5376 16.8628C11.6077 16.956 11.6127 17.0093 11.6113 17.125C11.6117 17.1569 11.6121 17.1888 11.6124 17.2217C11.5877 17.3419 11.5495 17.3779 11.4531 17.4531C11.2749 17.4831 11.0946 17.4748 10.9141 17.4736C10.8397 17.475 10.8397 17.475 10.7637 17.4765C10.6924 17.4764 10.6924 17.4764 10.6196 17.4764C10.5761 17.4765 10.5326 17.4765 10.4877 17.4766C10.375 17.4531 10.375 17.4531 10.2905 17.3667C10.2143 17.2294 10.215 17.1392 10.2344 16.9844C10.3064 16.8547 10.34 16.8042 10.4877 16.7733Z" fill="white"/>
<path d="M9.00684 16.7822C9.05424 16.7809 9.10164 16.7795 9.15048 16.7781C9.49955 16.7751 9.49955 16.7751 9.65631 16.8828C9.7421 17.0224 9.74558 17.1047 9.71875 17.2656C9.65594 17.3669 9.65594 17.3669 9.53125 17.4531C9.35806 17.4802 9.18762 17.4771 9.0127 17.4736C8.94195 17.4741 8.94195 17.4741 8.86978 17.4746C8.52357 17.4716 8.52357 17.4716 8.41771 17.3885C8.3368 17.2831 8.31882 17.2109 8.3125 17.0781C8.48503 16.7331 8.64543 16.7856 9.00684 16.7822Z" fill="white"/>
<path d="M7.13482 16.7793C7.20561 16.7767 7.20561 16.7767 7.27782 16.774C7.62496 16.7699 7.62496 16.7699 7.78283 16.906C7.86101 17.0666 7.85185 17.1441 7.79693 17.3125C7.71824 17.4171 7.67857 17.4496 7.5479 17.4706C7.50633 17.4704 7.46476 17.4703 7.42193 17.4702C7.37649 17.4701 7.33105 17.4701 7.28423 17.4701C7.21317 17.4689 7.21317 17.4689 7.14068 17.4678C7.0933 17.4679 7.04593 17.4681 6.99712 17.4682C6.64384 17.4657 6.64384 17.4657 6.48443 17.3594C6.44525 17.1967 6.42082 17.0802 6.47564 16.9199C6.62036 16.7219 6.91384 16.7824 7.13482 16.7793Z" fill="white"/>
<path d="M10.6196 22.8719C10.6672 22.8718 10.7148 22.8716 10.7638 22.8714C10.8134 22.8719 10.863 22.8725 10.9141 22.873C10.9637 22.8725 11.0133 22.872 11.0644 22.8714C11.1357 22.8717 11.1357 22.8717 11.2085 22.8719C11.2738 22.8722 11.2738 22.8722 11.3404 22.8724C11.4727 22.8938 11.5142 22.9255 11.5938 23.0312C11.6141 23.1221 11.6141 23.1221 11.6143 23.2188C11.6156 23.2666 11.6156 23.2666 11.617 23.3154C11.5835 23.4463 11.5194 23.4768 11.4063 23.5469C11.2432 23.5753 11.0794 23.5686 10.9141 23.5674C10.8695 23.5683 10.825 23.5693 10.7791 23.5702C10.4556 23.57 10.4556 23.57 10.2987 23.4623C10.205 23.3123 10.2124 23.2042 10.2344 23.0312C10.3433 22.8781 10.4378 22.8726 10.6196 22.8719Z" fill="white"/>
<path d="M10.4878 19.8202C10.5313 19.8203 10.5748 19.8204 10.6197 19.8205C10.6672 19.8205 10.7148 19.8204 10.7638 19.8204C10.8134 19.8213 10.863 19.8223 10.9141 19.8232C10.9637 19.8229 11.0133 19.8226 11.0644 19.8222C11.4295 19.8252 11.4295 19.8252 11.5376 19.9096C11.6077 20.0028 11.6127 20.0562 11.6114 20.1719C11.6117 20.2038 11.6121 20.2357 11.6125 20.2685C11.5878 20.3884 11.5489 20.4246 11.4532 20.5C11.2837 20.5298 11.1123 20.5217 10.9405 20.5205C10.87 20.5219 10.87 20.5219 10.7981 20.5233C10.4554 20.5231 10.4554 20.5231 10.297 20.4137C10.2116 20.2756 10.2111 20.191 10.2344 20.0312C10.3066 19.9016 10.3401 19.851 10.4878 19.8202Z" fill="white"/>
<path d="M17.4062 16.4688C17.5492 16.5995 17.6051 16.7022 17.617 16.8921C17.617 16.9619 17.6161 17.0318 17.6142 17.1016C17.6146 17.1366 17.6149 17.1715 17.6152 17.2076C17.6128 17.4189 17.5929 17.5654 17.4531 17.7344C17.268 17.7927 17.1731 17.8059 16.9988 17.7166C16.8358 17.5316 16.8579 17.3635 16.8642 17.125C16.8637 17.0827 16.8632 17.0404 16.8627 16.9968C16.8661 16.6912 16.8661 16.6912 16.9757 16.5349C17.1283 16.4363 17.229 16.4403 17.4062 16.4688Z" fill="white"/>
<path d="M17.4531 9.20312C17.6176 9.40195 17.6166 9.58979 17.6142 9.83593C17.6152 9.87092 17.6161 9.90591 17.6171 9.94195C17.6169 10.1234 17.6048 10.216 17.5089 10.3748C17.4062 10.4687 17.4062 10.4687 17.2422 10.4951C17.0781 10.4687 17.0781 10.4687 16.9757 10.4026C16.8443 10.2153 16.8615 10.0359 16.8642 9.8125C16.8631 9.7702 16.862 9.7279 16.8608 9.68432C16.8615 9.37675 16.8615 9.37675 16.9988 9.22088C17.1731 9.13157 17.268 9.14485 17.4531 9.20312Z" fill="white"/>
<path d="M18.373 7.14062C18.5291 7.18687 18.5767 7.2037 18.6718 7.32812C18.7013 7.48197 18.6936 7.6376 18.6924 7.79395C18.6933 7.83645 18.6942 7.87896 18.6952 7.92276C18.695 8.23247 18.695 8.23247 18.5871 8.38721C18.4342 8.4853 18.3335 8.48162 18.1562 8.45312C18.009 8.32009 17.9569 8.213 17.9422 8.01953C17.9412 7.94532 17.9413 7.87109 17.9424 7.79688C17.9412 7.75965 17.9401 7.72243 17.939 7.68408C17.9395 7.48198 17.9516 7.39764 18.0769 7.23145C18.2031 7.14062 18.2031 7.14062 18.373 7.14062Z" fill="white"/>
<path d="M15.0449 21.6689C15.2031 21.7188 15.2031 21.7188 15.282 21.7878C15.3775 21.9711 15.3659 22.1479 15.3642 22.3516C15.3652 22.3916 15.3661 22.4317 15.3671 22.473C15.3668 22.7642 15.3668 22.7642 15.2589 22.9168C15.1064 23.0171 15.0062 23.013 14.8281 22.9844C14.6808 22.8513 14.6287 22.7442 14.614 22.5508C14.6131 22.4766 14.6132 22.4023 14.6142 22.3281C14.6131 22.2909 14.612 22.2537 14.6108 22.2153C14.6113 22.0133 14.6235 21.929 14.7488 21.7629C14.875 21.6719 14.875 21.6719 15.0449 21.6689Z" fill="white"/>
<path d="M18.3203 14.4268C18.4844 14.4531 18.4844 14.4531 18.5868 14.5209C18.7151 14.7014 18.7011 14.8667 18.6983 15.083C18.6994 15.1227 18.7005 15.1623 18.7017 15.2032C18.7012 15.4116 18.6918 15.5047 18.5637 15.6761C18.4375 15.7656 18.4375 15.7656 18.2676 15.7715C18.1094 15.7188 18.1094 15.7188 18.0305 15.6232C17.9488 15.4394 17.9464 15.2848 17.9483 15.0859C17.9469 15.0335 17.9469 15.0335 17.9454 14.9799C17.9456 14.7985 17.9577 14.7059 18.0536 14.5471C18.1563 14.4531 18.1563 14.4531 18.3203 14.4268Z" fill="white"/>
<path d="M18.3467 11.9893C18.5236 12.0231 18.5669 12.0563 18.6719 12.2031C18.7011 12.3597 18.7002 12.513 18.6983 12.6719C18.6994 12.7142 18.7005 12.7565 18.7017 12.8C18.701 13.1076 18.701 13.1076 18.5637 13.2637C18.3905 13.3521 18.2938 13.3359 18.1094 13.2812C17.981 13.1663 17.9583 13.0646 17.9468 12.8991C17.9456 12.8243 17.9451 12.7496 17.9453 12.6748C17.944 12.6374 17.9427 12.5999 17.9413 12.5614C17.9406 12.3575 17.95 12.2743 18.0785 12.1079C18.2032 12.0156 18.2032 12.0156 18.3467 11.9893Z" fill="white"/>
<path d="M17.4531 11.6406C17.5815 11.7555 17.6042 11.8573 17.6157 12.0228C17.6169 12.0975 17.6174 12.1723 17.6172 12.2471C17.6185 12.2845 17.6198 12.3219 17.6212 12.3605C17.6219 12.5644 17.6125 12.6475 17.484 12.814C17.3593 12.9062 17.3593 12.9062 17.2158 12.9326C17.0389 12.8987 16.9956 12.8656 16.8906 12.7187C16.8614 12.5621 16.8623 12.4089 16.8642 12.25C16.8631 12.2077 16.862 12.1654 16.8608 12.1218C16.8615 11.8143 16.8615 11.8143 16.9988 11.6582C17.172 11.5697 17.2687 11.586 17.4531 11.6406Z" fill="white"/>
<path d="M18.5312 21.7656C18.6284 21.8509 18.6671 21.9208 18.6859 22.0489C18.6925 22.1658 18.6933 22.2814 18.6923 22.3984C18.6933 22.4385 18.6942 22.4786 18.6952 22.5198C18.6949 22.811 18.6949 22.811 18.587 22.9637C18.4345 23.064 18.3343 23.0599 18.1562 23.0312C18.0132 22.9005 17.9573 22.7978 17.9454 22.6079C17.9454 22.5381 17.9463 22.4682 17.9482 22.3984C17.9479 22.3635 17.9475 22.3285 17.9472 22.2924C17.9496 22.0808 17.9704 21.9356 18.1093 21.7656C18.2766 21.7099 18.3621 21.7198 18.5312 21.7656Z" fill="white"/>
<path d="M15.0449 19.2314C15.2247 19.288 15.2576 19.3057 15.3437 19.4688C15.3654 19.6087 15.3655 19.7463 15.3642 19.8877C15.3652 19.9251 15.3661 19.9626 15.3671 20.0011C15.3669 20.1888 15.3571 20.2901 15.2589 20.4544C15.1562 20.5469 15.1562 20.5469 14.9922 20.5762C14.8281 20.5469 14.8281 20.5469 14.7257 20.4542C14.6103 20.2621 14.6112 20.1106 14.6142 19.8906C14.6131 19.8534 14.612 19.8162 14.6108 19.7778C14.6113 19.5758 14.6235 19.4915 14.7488 19.3254C14.875 19.2344 14.875 19.2344 15.0449 19.2314Z" fill="white"/>
<path d="M15.0449 16.7939C15.2247 16.8505 15.2576 16.8682 15.3437 17.0312C15.3654 17.1712 15.3655 17.3088 15.3642 17.4502C15.3652 17.4876 15.3661 17.5251 15.3671 17.5636C15.3669 17.7513 15.3571 17.8526 15.2589 18.0169C15.1562 18.1094 15.1562 18.1094 14.9922 18.1387C14.8281 18.1094 14.8281 18.1094 14.7257 18.0167C14.6103 17.8246 14.6112 17.6731 14.6142 17.4531C14.6131 17.4159 14.612 17.3787 14.6108 17.3403C14.6113 17.1383 14.6235 17.054 14.7488 16.8879C14.875 16.7969 14.875 16.7969 15.0449 16.7939Z" fill="white"/>
<path d="M17.3593 14.0312C17.4836 14.1248 17.5782 14.1993 17.6148 14.3558C17.6219 14.4595 17.6211 14.5602 17.6172 14.664C17.6173 14.699 17.6174 14.734 17.6175 14.7701C17.6138 14.9808 17.5921 15.1284 17.4531 15.2969C17.268 15.3551 17.1731 15.3684 16.9988 15.2791C16.8358 15.0941 16.8579 14.926 16.8642 14.6875C16.8637 14.6452 16.8632 14.6029 16.8627 14.5593C16.8661 14.253 16.8661 14.253 16.9774 14.0973C17.118 14.0051 17.1944 14.0009 17.3593 14.0312Z" fill="white"/>
<path d="M18.3731 9.57812C18.5292 9.62438 18.5766 9.64125 18.6719 9.76562C18.7025 9.91941 18.6958 10.075 18.6953 10.2314C18.6967 10.274 18.698 10.3165 18.6994 10.3603C18.7003 10.6708 18.7003 10.6708 18.5639 10.8264C18.3906 10.9145 18.2938 10.8984 18.1094 10.8438C17.981 10.7288 17.9583 10.6271 17.9468 10.4616C17.9456 10.3868 17.9451 10.3121 17.9453 10.2373C17.944 10.1999 17.9427 10.1624 17.9413 10.1239C17.9406 9.92069 17.951 9.8361 18.0768 9.66876C18.2032 9.57812 18.2032 9.57812 18.3731 9.57812Z" fill="white"/>
<path d="M15.0186 7.01758C15.1563 7.04688 15.1563 7.04688 15.257 7.13953C15.3746 7.33157 15.3732 7.48222 15.3701 7.70312C15.3713 7.74035 15.3724 7.77757 15.3735 7.81592C15.373 8.01797 15.3609 8.10229 15.2356 8.26837C15.1094 8.35938 15.1094 8.35938 14.9395 8.3623C14.7597 8.30569 14.727 8.288 14.6407 8.125C14.6178 7.98503 14.6168 7.84764 14.6172 7.70605C14.6159 7.66862 14.6146 7.63119 14.6132 7.59262C14.6125 7.38881 14.6218 7.30563 14.7503 7.13934C14.875 7.04688 14.875 7.04688 15.0186 7.01758Z" fill="white"/>
<path d="M15.045 14.3564C15.2248 14.4131 15.2574 14.4308 15.3438 14.5938C15.3666 14.7337 15.3677 14.8711 15.3672 15.0127C15.3685 15.0501 15.3699 15.0876 15.3712 15.1261C15.3719 15.3293 15.3616 15.4138 15.2357 15.5811C15.1094 15.6719 15.1094 15.6719 14.9395 15.6748C14.7597 15.6182 14.727 15.6005 14.6407 15.4375C14.6178 15.2975 14.6168 15.1601 14.6172 15.0186C14.6159 14.9811 14.6146 14.9437 14.6132 14.9051C14.6125 14.702 14.6228 14.6174 14.7487 14.4502C14.875 14.3594 14.875 14.3594 15.045 14.3564Z" fill="white"/>
<path d="M15.045 11.9189C15.2248 11.9756 15.2574 11.9933 15.3438 12.1562C15.3666 12.2962 15.3677 12.4336 15.3672 12.5752C15.3685 12.6126 15.3699 12.6501 15.3712 12.6886C15.3719 12.8918 15.3616 12.9763 15.2357 13.1436C15.1094 13.2344 15.1094 13.2344 14.9395 13.2373C14.7597 13.1807 14.727 13.163 14.6407 13C14.6178 12.86 14.6168 12.7226 14.6172 12.5811C14.6159 12.5436 14.6146 12.5062 14.6132 12.4676C14.6125 12.2645 14.6228 12.1799 14.7487 12.0127C14.875 11.9219 14.875 11.9219 15.045 11.9189Z" fill="white"/>
<path d="M15.045 9.48145C15.2248 9.53806 15.2574 9.55575 15.3438 9.71875C15.3666 9.85872 15.3677 9.99611 15.3672 10.1377C15.3685 10.1751 15.3699 10.2126 15.3712 10.2511C15.3719 10.4543 15.3616 10.5388 15.2357 10.7061C15.1094 10.7969 15.1094 10.7969 14.9395 10.7998C14.7597 10.7432 14.727 10.7255 14.6407 10.5625C14.6178 10.4225 14.6168 10.2851 14.6172 10.1436C14.6159 10.1061 14.6146 10.0687 14.6132 10.0301C14.6125 9.82699 14.6228 9.74241 14.7487 9.5752C14.875 9.48438 14.875 9.48438 15.045 9.48145Z" fill="white"/>
<path d="M17.3185 21.3282C17.4062 21.3438 17.4062 21.3438 17.497 21.4082C17.6158 21.5899 17.6023 21.7599 17.6025 21.9707C17.6031 22.0067 17.6036 22.0427 17.6042 22.0798C17.6051 22.4186 17.6051 22.4186 17.4999 22.5625C17.3542 22.6354 17.1891 22.6435 17.0312 22.6094C16.9295 22.5256 16.8953 22.4563 16.8774 22.326C16.8716 22.2092 16.8714 22.0935 16.873 21.9766C16.8724 21.9365 16.8719 21.8965 16.8713 21.8552C16.8721 21.6861 16.8744 21.5638 16.9503 21.411C17.0738 21.3084 17.1639 21.3205 17.3185 21.3282Z" fill="white"/>
<path d="M17.4063 18.9062C17.5506 19.0377 17.6053 19.1401 17.6154 19.3312C17.615 19.4015 17.6137 19.4718 17.6114 19.542C17.6113 19.5774 17.6112 19.6127 17.6112 19.6492C17.6058 19.9853 17.6058 19.9853 17.5 20.125C17.3448 20.1924 17.3448 20.1924 17.1719 20.2187C17.0316 20.1577 16.9595 20.122 16.8907 19.9844C16.8771 19.8382 16.8776 19.6916 16.876 19.5449C16.8746 19.5044 16.8733 19.4639 16.8719 19.4222C16.8689 19.1247 16.8689 19.1247 16.9751 18.9734C17.1279 18.8738 17.2282 18.8776 17.4063 18.9062Z" fill="white"/>
<path d="M18.3203 16.8643C18.4844 16.8906 18.4844 16.8906 18.5871 16.9582C18.7153 17.1396 18.6974 17.3067 18.6924 17.5234C18.6927 17.5635 18.693 17.6036 18.6934 17.6448C18.6916 17.8162 18.69 17.9355 18.607 18.0876C18.5019 18.1829 18.4389 18.1998 18.2969 18.2031C18.1445 18.1445 18.1445 18.1445 18.0156 18.0625C17.9562 17.8843 17.9564 17.7151 17.9541 17.5293C17.952 17.4762 17.952 17.4762 17.95 17.422C17.9479 17.2384 17.9565 17.1454 18.0531 16.9842C18.1562 16.8906 18.1562 16.8906 18.3203 16.8643Z" fill="white"/>
<path d="M17.5 6.81251C17.6303 6.98254 17.611 7.19073 17.6113 7.39552C17.6125 7.43072 17.6136 7.46592 17.6148 7.50218C17.6158 7.6847 17.6054 7.77749 17.5092 7.93751C17.4063 8.03126 17.4063 8.03126 17.2422 8.05763C17.0781 8.03126 17.0781 8.03126 16.9754 7.9637C16.8472 7.78226 16.8651 7.61516 16.8701 7.39845C16.8698 7.35839 16.8695 7.31833 16.8691 7.27705C16.8708 7.10697 16.873 6.98635 16.9534 6.83449C17.1379 6.67132 17.2874 6.73132 17.5 6.81251Z" fill="white"/>
<path d="M18.5313 19.3281C18.6328 19.4119 18.667 19.4816 18.6858 19.6115C18.6926 19.7283 18.6934 19.8439 18.6924 19.9609C18.6934 20.001 18.6943 20.0411 18.6953 20.0823C18.695 20.3734 18.695 20.3734 18.5873 20.5265C18.4378 20.6242 18.3308 20.6159 18.1563 20.5937C18.0577 20.5214 18.0231 20.4681 17.9688 20.3594C17.9629 20.228 17.9601 20.0982 17.96 19.9668C17.9594 19.9308 17.9589 19.8948 17.9583 19.8577C17.9574 19.5189 17.9574 19.5189 18.0625 19.375C18.2083 19.3021 18.3734 19.294 18.5313 19.3281Z" fill="white"/>
<path d="M13.6562 12.2969C13.7573 12.3628 13.7573 12.3628 13.8438 12.4844C13.8718 12.641 13.8699 12.7944 13.8672 12.9531C13.8679 12.9954 13.8686 13.0377 13.8694 13.0813C13.8676 13.3884 13.8676 13.3884 13.7573 13.5435C13.6185 13.634 13.5376 13.6365 13.375 13.6094C13.2739 13.5435 13.2739 13.5435 13.1875 13.4219C13.1595 13.2652 13.1613 13.1119 13.1641 12.9531C13.1633 12.9108 13.1626 12.8685 13.1619 12.825C13.1637 12.5179 13.1637 12.5179 13.2739 12.3628C13.4128 12.2723 13.4937 12.2698 13.6562 12.2969Z" fill="white"/>
<path d="M13.6562 9.85939C13.7573 9.9253 13.7573 9.9253 13.8438 10.0469C13.8718 10.2035 13.8699 10.3569 13.8672 10.5156C13.8679 10.5579 13.8686 10.6002 13.8694 10.6438C13.8676 10.9509 13.8676 10.9509 13.7573 11.106C13.6185 11.1965 13.5376 11.199 13.375 11.1719C13.2739 11.106 13.2739 11.106 13.1875 10.9844C13.1595 10.8277 13.1613 10.6744 13.1641 10.5156C13.1633 10.4733 13.1626 10.431 13.1619 10.3875C13.1637 10.0804 13.1637 10.0804 13.2739 9.9253C13.4128 9.83476 13.4937 9.83229 13.6562 9.85939Z" fill="white"/>
<path d="M19.5625 7.56251C19.6636 7.62843 19.6636 7.62843 19.75 7.75001C19.778 7.90666 19.7762 8.06002 19.7734 8.21876C19.7742 8.26106 19.7749 8.30336 19.7756 8.34694C19.7738 8.65401 19.7738 8.65401 19.6636 8.80909C19.5247 8.89964 19.4438 8.90211 19.2812 8.87501C19.1802 8.80909 19.1802 8.80909 19.0938 8.68751C19.0657 8.53086 19.0676 8.3775 19.0703 8.21876C19.0696 8.17646 19.0689 8.13417 19.0681 8.09059C19.0699 7.78352 19.0699 7.78352 19.1802 7.62843C19.319 7.53788 19.3999 7.53541 19.5625 7.56251Z" fill="white"/>
<path d="M13.6562 7.42189C13.7573 7.4878 13.7573 7.4878 13.8438 7.60939C13.8718 7.76604 13.8699 7.91939 13.8672 8.07814C13.8679 8.12043 13.8686 8.16273 13.8694 8.20631C13.8676 8.51338 13.8676 8.51338 13.7573 8.66847C13.6185 8.75902 13.5376 8.76148 13.375 8.73439C13.2739 8.66847 13.2739 8.66847 13.1875 8.54689C13.1595 8.39024 13.1613 8.23688 13.1641 8.07814C13.1633 8.03584 13.1626 7.99354 13.1619 7.94996C13.1637 7.64289 13.1637 7.64289 13.2739 7.4878C13.4128 7.39726 13.4937 7.39479 13.6562 7.42189Z" fill="white"/>
<path d="M13.7032 19.6563C13.8055 19.733 13.8396 19.774 13.8627 19.901C13.8642 20.0304 13.8652 20.1596 13.8643 20.2891C13.8652 20.3342 13.8662 20.3793 13.8671 20.4258C13.8671 20.4692 13.8671 20.5125 13.867 20.5571C13.8671 20.5967 13.8672 20.6364 13.8673 20.6772C13.8438 20.7813 13.8438 20.7813 13.7574 20.8645C13.6201 20.9424 13.5306 20.9413 13.375 20.9219C13.2739 20.8645 13.2739 20.8645 13.1875 20.7813C13.164 20.6772 13.164 20.6772 13.1643 20.5571C13.1642 20.5138 13.1642 20.4705 13.1642 20.4258C13.1651 20.3807 13.1661 20.3356 13.167 20.2891C13.1667 20.2439 13.1664 20.1988 13.166 20.1523C13.169 19.8198 13.169 19.8198 13.2533 19.7155C13.4132 19.589 13.5082 19.6085 13.7032 19.6563Z" fill="white"/>
<path d="M13.7032 14.7812C13.8021 14.8565 13.8392 14.8977 13.8627 15.0209C13.8642 15.1432 13.8653 15.2654 13.8643 15.3877C13.8652 15.4302 13.8662 15.4727 13.8671 15.5165C13.8669 15.8267 13.8669 15.8267 13.7576 15.9811C13.6186 16.0714 13.5376 16.074 13.375 16.0469C13.2736 15.9811 13.2736 15.9811 13.1875 15.8594C13.1619 15.7017 13.1657 15.547 13.17 15.3877C13.17 15.345 13.1701 15.3023 13.1701 15.2583C13.1744 14.9417 13.1744 14.9417 13.2813 14.7812C13.4477 14.7258 13.5344 14.739 13.7032 14.7812Z" fill="white"/>
<path d="M19.6094 22.1875C19.7085 22.2628 19.7454 22.3039 19.769 22.4272C19.7704 22.5495 19.7715 22.6716 19.7705 22.794C19.7715 22.8365 19.7724 22.879 19.7734 22.9228C19.7731 23.233 19.7731 23.233 19.6638 23.3874C19.5248 23.4776 19.4438 23.4802 19.2813 23.4531C19.18 23.3874 19.18 23.3874 19.0938 23.2656C19.0669 23.108 19.0697 22.9535 19.0733 22.794C19.0729 22.7513 19.0726 22.7086 19.0722 22.6646C19.0753 22.3508 19.0753 22.3508 19.1595 22.2475C19.3189 22.1198 19.4143 22.1397 19.6094 22.1875Z" fill="white"/>
<path d="M13.7031 22.0938C13.8046 22.1711 13.8396 22.2117 13.8627 22.3385C13.8642 22.4679 13.8652 22.5972 13.8642 22.7266C13.8652 22.7717 13.8661 22.8168 13.8671 22.8634C13.867 22.9067 13.867 22.95 13.867 22.9946C13.8671 23.0342 13.8671 23.0739 13.8672 23.1147C13.8437 23.2188 13.8437 23.2188 13.7573 23.302C13.62 23.3799 13.5305 23.3788 13.375 23.3594C13.2741 23.3019 13.2741 23.3019 13.1875 23.2188C13.1486 23.0581 13.1592 22.8943 13.1611 22.7295C13.16 22.6848 13.1589 22.64 13.1577 22.5939C13.1584 22.2675 13.1584 22.2675 13.2971 22.1095C13.4574 22.029 13.5341 22.0386 13.7031 22.0938Z" fill="white"/>
<path d="M19.6093 19.75C19.7108 19.8274 19.7458 19.8679 19.7689 19.9947C19.7704 20.1241 19.7714 20.2534 19.7705 20.3828C19.7714 20.428 19.7724 20.4731 19.7733 20.5196C19.7733 20.5629 19.7733 20.6063 19.7732 20.6509C19.7733 20.6905 19.7734 20.7301 19.7735 20.7709C19.75 20.875 19.75 20.875 19.6636 20.9582C19.5263 21.0362 19.4368 21.0351 19.2812 21.0156C19.1803 20.9581 19.1803 20.9581 19.0937 20.875C19.0548 20.7143 19.0655 20.5506 19.0674 20.3858C19.0662 20.341 19.0651 20.2963 19.064 20.2502C19.0647 19.9237 19.0647 19.9237 19.2034 19.7658C19.3637 19.6853 19.4403 19.6949 19.6093 19.75Z" fill="white"/>
<path d="M13.7031 17.2188C13.8022 17.294 13.8391 17.3351 13.8627 17.4584C13.8642 17.5807 13.8652 17.7029 13.8643 17.8252C13.8652 17.8677 13.8661 17.9102 13.8671 17.954C13.8669 18.2642 13.8669 18.2642 13.7575 18.4186C13.6185 18.5089 13.5376 18.5115 13.375 18.4844C13.2738 18.4186 13.2738 18.4186 13.1875 18.2969C13.1607 18.1392 13.1635 17.9847 13.167 17.8252C13.1667 17.7825 13.1663 17.7398 13.166 17.6958C13.169 17.3821 13.169 17.3821 13.2532 17.2787C13.4127 17.1511 13.508 17.171 13.7031 17.2188Z" fill="white"/>
<path d="M19.5625 12.4375C19.6633 12.495 19.6633 12.495 19.75 12.5781C19.7888 12.7388 19.7782 12.9026 19.7763 13.0674C19.7774 13.1121 19.7786 13.1569 19.7797 13.203C19.779 13.5294 19.779 13.5294 19.6403 13.6874C19.48 13.7679 19.4034 13.7582 19.2343 13.7031C19.1328 13.6258 19.0978 13.5852 19.0748 13.4584C19.0733 13.329 19.0722 13.1997 19.0732 13.0703C19.0723 13.0252 19.0713 12.98 19.0704 12.9335C19.0704 12.8902 19.0704 12.8469 19.0705 12.8023C19.0703 12.7428 19.0703 12.7428 19.0702 12.6822C19.0937 12.5781 19.0937 12.5781 19.1801 12.4949C19.3174 12.417 19.4069 12.4181 19.5625 12.4375Z" fill="white"/>
<path d="M19.5625 10C19.6638 10.0657 19.6638 10.0657 19.75 10.1875C19.7769 10.3452 19.7741 10.4997 19.7705 10.6592C19.7709 10.7019 19.7712 10.7446 19.7715 10.7886C19.7686 11.1011 19.7686 11.1011 19.6871 11.2062C19.5712 11.2949 19.4721 11.3037 19.3282 11.3125C19.1993 11.2672 19.1552 11.2478 19.0938 11.125C19.0801 10.971 19.0808 10.8166 19.0791 10.6621C19.0778 10.6194 19.0764 10.5767 19.075 10.5327C19.072 10.2184 19.072 10.2184 19.1797 10.0656C19.3189 9.97573 19.3999 9.97291 19.5625 10Z" fill="white"/>
<path d="M19.4218 17.2949C19.4697 17.2944 19.4697 17.2944 19.5185 17.2938C19.638 17.3184 19.6746 17.3579 19.7499 17.4531C19.7681 17.5572 19.7681 17.5572 19.7686 17.6772C19.7688 17.7206 19.769 17.7639 19.7692 17.8085C19.7686 17.8537 19.7681 17.8988 19.7675 17.9453C19.7681 17.9904 19.7686 18.0356 19.7692 18.0821C19.769 18.1254 19.7688 18.1687 19.7686 18.2134C19.7685 18.253 19.7683 18.2926 19.7681 18.3334C19.7461 18.4595 19.7097 18.501 19.6093 18.5781C19.5185 18.5968 19.5185 18.5968 19.4218 18.5957C19.3899 18.5961 19.358 18.5964 19.3251 18.5968C19.2056 18.5722 19.1691 18.5327 19.0937 18.4375C19.0755 18.3334 19.0755 18.3334 19.075 18.2134C19.0748 18.1701 19.0746 18.1267 19.0745 18.0821C19.075 18.037 19.0756 17.9918 19.0761 17.9453C19.0756 17.9002 19.075 17.855 19.0745 17.8085C19.0746 17.7652 19.0748 17.7219 19.075 17.6772C19.0752 17.6376 19.0753 17.598 19.0755 17.5572C19.1106 17.3562 19.2278 17.2927 19.4218 17.2949Z" fill="white"/>
<path d="M19.4218 14.8574C19.4697 14.8569 19.4697 14.8569 19.5185 14.8563C19.638 14.8809 19.6746 14.9204 19.7499 15.0156C19.7681 15.1197 19.7681 15.1197 19.7686 15.2397C19.7688 15.2831 19.769 15.3264 19.7692 15.371C19.7686 15.4162 19.7681 15.4613 19.7675 15.5078C19.7681 15.5529 19.7686 15.5981 19.7692 15.6446C19.769 15.6879 19.7688 15.7312 19.7686 15.7759C19.7685 15.8155 19.7683 15.8551 19.7681 15.8959C19.7461 16.022 19.7097 16.0635 19.6093 16.1406C19.5185 16.1593 19.5185 16.1593 19.4218 16.1582C19.3899 16.1586 19.358 16.1589 19.3251 16.1593C19.2056 16.1347 19.1691 16.0952 19.0937 16C19.0755 15.8959 19.0755 15.8959 19.075 15.7759C19.0748 15.7326 19.0746 15.6892 19.0745 15.6446C19.075 15.5995 19.0756 15.5543 19.0761 15.5078C19.0756 15.4627 19.075 15.4175 19.0745 15.371C19.0746 15.3277 19.0748 15.2844 19.075 15.2397C19.0752 15.2001 19.0753 15.1605 19.0755 15.1197C19.1106 14.9187 19.2278 14.8552 19.4218 14.8574Z" fill="white"/>
<path d="M24.8125 14.6406C24.892 14.6928 24.892 14.6928 24.9531 14.7812C24.9734 14.9319 24.9734 14.9319 24.9736 15.1064C24.9745 15.1639 24.9754 15.2214 24.9764 15.2806C24.9531 15.4375 24.9531 15.4375 24.8669 15.5506C24.7299 15.6512 24.6508 15.6493 24.4844 15.625C24.3374 15.5416 24.3043 15.5067 24.25 15.3437C24.2306 15.1242 24.2233 14.9344 24.3144 14.7314C24.4663 14.5504 24.5932 14.5944 24.8125 14.6406Z" fill="white"/>
<path d="M24.7656 22.6094C24.9106 22.7156 24.949 22.7731 24.9796 22.9521C24.9796 23.0092 24.9795 23.0662 24.9795 23.125C24.9805 23.182 24.9815 23.2391 24.9826 23.2979C24.9531 23.4531 24.9531 23.4531 24.8449 23.5672C24.7187 23.6406 24.7187 23.6406 24.5488 23.6436C24.3906 23.5937 24.3906 23.5937 24.2998 23.5029C24.2112 23.2475 24.203 22.9953 24.3144 22.7471C24.4479 22.5879 24.5644 22.5893 24.7656 22.6094Z" fill="white"/>
<path d="M23.7344 21.9531C23.8795 22.1 23.8952 22.2162 23.8955 22.4189C23.8903 22.5965 23.8795 22.6936 23.8017 22.8555C23.6875 22.9375 23.6875 22.9375 23.5234 22.9668C23.3594 22.9375 23.3594 22.9375 23.2451 22.8555C23.1346 22.6255 23.1336 22.3914 23.1719 22.1406C23.3135 21.8966 23.4716 21.882 23.7344 21.9531Z" fill="white"/>
<path d="M23.5762 20.3096C23.7529 20.3652 23.7855 20.3906 23.8751 20.5469C23.9184 20.8094 23.9204 21.0366 23.7784 21.2646C23.6407 21.3438 23.6407 21.3438 23.4708 21.3467C23.2941 21.2911 23.2615 21.2656 23.1719 21.1094C23.1286 20.8469 23.1266 20.6197 23.2686 20.3916C23.4063 20.3125 23.4063 20.3125 23.5762 20.3096Z" fill="white"/>
<path d="M23.5762 18.7158C23.7529 18.7714 23.7855 18.7969 23.8751 18.9531C23.9184 19.2156 23.9204 19.4428 23.7784 19.6709C23.6407 19.75 23.6407 19.75 23.4708 19.7529C23.2941 19.6973 23.2615 19.6719 23.1719 19.5156C23.1286 19.2531 23.1266 19.0259 23.2686 18.7979C23.4063 18.7188 23.4063 18.7188 23.5762 18.7158Z" fill="white"/>
<path d="M23.5234 17.0957C23.6875 17.125 23.6875 17.125 23.8018 17.207C23.9123 17.437 23.9133 17.6711 23.875 17.9219C23.7917 18.0649 23.7593 18.1012 23.5996 18.1533C23.4261 18.1568 23.3547 18.1205 23.2188 18.0156C23.1207 17.8195 23.152 17.573 23.1719 17.3594C23.2663 17.163 23.3096 17.1339 23.5234 17.0957Z" fill="white"/>
<path d="M23.6875 15.5313C23.8272 15.635 23.8702 15.6906 23.8999 15.8638C23.8994 15.9165 23.8989 15.9692 23.8984 16.0235C23.8989 16.0761 23.8994 16.1288 23.8999 16.1831C23.8702 16.3563 23.8272 16.4119 23.6875 16.5156C23.5062 16.5415 23.4063 16.5505 23.2568 16.4395C23.1459 16.2942 23.1468 16.2047 23.1484 16.0235C23.1477 15.9444 23.1477 15.9444 23.147 15.8638C23.2008 15.5505 23.3931 15.4892 23.6875 15.5313Z" fill="white"/>
<path d="M24.5928 21.001C24.7657 21.0156 24.7657 21.0156 24.8689 21.0896C24.9827 21.2429 24.9767 21.3451 24.9737 21.5342C24.9736 21.5918 24.9735 21.6493 24.9735 21.7087C24.9532 21.8594 24.9532 21.8594 24.8902 21.9476C24.7726 22.0269 24.6715 22.0383 24.5313 22.0469C24.3972 22.0096 24.3573 21.9754 24.2852 21.8564C24.2226 21.6115 24.2068 21.3872 24.3174 21.1562C24.4265 21.0167 24.4265 21.0167 24.5928 21.001Z" fill="white"/>
<path d="M24.8125 16.2344C24.8902 16.2867 24.8902 16.2867 24.9532 16.375C24.9735 16.5257 24.9735 16.5257 24.9737 16.7002C24.9746 16.7577 24.9755 16.8151 24.9764 16.8743C24.9532 17.0312 24.9532 17.0312 24.8669 17.1444C24.7299 17.245 24.6508 17.243 24.4844 17.2187C24.3374 17.1353 24.3044 17.1005 24.25 16.9375C24.2316 16.7089 24.2217 16.4827 24.3438 16.2812C24.4995 16.1589 24.628 16.1833 24.8125 16.2344Z" fill="white"/>
<path d="M23.6875 13.9375C23.8272 14.0413 23.8702 14.0969 23.8999 14.27C23.8994 14.3227 23.8989 14.3754 23.8984 14.4297C23.8989 14.4824 23.8994 14.5351 23.8999 14.5894C23.8702 14.7625 23.8272 14.8181 23.6875 14.9219C23.5062 14.9478 23.4063 14.9568 23.2568 14.8457C23.1459 14.7004 23.1468 14.611 23.1484 14.4297C23.1477 14.3507 23.1477 14.3507 23.147 14.27C23.2008 13.9568 23.3931 13.8955 23.6875 13.9375Z" fill="white"/>
<path d="M24.7184 19.4019C24.8125 19.4219 24.8125 19.4219 24.8938 19.4958C24.9739 19.6491 24.9718 19.7683 24.9707 19.9404C24.9711 19.998 24.9715 20.0556 24.9718 20.1149C24.9532 20.2656 24.9532 20.2656 24.8935 20.3552C24.7494 20.4461 24.6017 20.4319 24.4375 20.4062C24.3122 20.3213 24.2988 20.2714 24.25 20.125C24.2252 19.8699 24.227 19.6782 24.3907 19.4688C24.4783 19.3811 24.6015 19.4082 24.7184 19.4019Z" fill="white"/>
<path d="M24.7184 17.8127C24.8125 17.8281 24.8125 17.8281 24.8937 17.8788C24.9839 18.0152 24.9735 18.1322 24.9737 18.2939C24.9746 18.3514 24.9755 18.4089 24.9764 18.4681C24.9532 18.625 24.9532 18.625 24.8686 18.7382C24.7201 18.8454 24.6159 18.8352 24.4375 18.8125C24.3149 18.7267 24.2983 18.6761 24.25 18.5312C24.2252 18.2761 24.227 18.0845 24.3907 17.875C24.4784 17.7872 24.6015 17.8171 24.7184 17.8127Z" fill="white"/>
</svg>
