<svg width="20" height="20" viewBox="0 0 20 20" fill="none" xmlns="http://www.w3.org/2000/svg">
<ellipse cx="10.3619" cy="10.0228" rx="9.54211" ry="9.54245" fill="white"/>
<path d="M15.157 3.00168C15.1776 3.00113 15.1983 3.00057 15.2196 3C15.3143 3.02417 15.3487 3.0656 15.4085 3.14249C15.4269 3.2235 15.4251 3.3027 15.4238 3.38547C15.4239 3.41007 15.424 3.43468 15.4241 3.46003C15.4243 3.54256 15.4236 3.62505 15.4229 3.70758C15.4229 3.7667 15.4229 3.82583 15.423 3.88495C15.423 4.04556 15.4223 4.20616 15.4214 4.36676C15.4207 4.51757 15.4205 4.66838 15.4204 4.81919C15.4201 5.11787 15.4193 5.41655 15.4181 5.71523C15.4169 6.00535 15.416 6.29546 15.4155 6.58558C15.4155 6.60347 15.4154 6.62135 15.4154 6.63978C15.4152 6.72952 15.4151 6.81925 15.4149 6.90898C15.4136 7.65327 15.4114 8.39754 15.4085 9.14182C15.4323 9.14664 15.456 9.15146 15.4805 9.15643C15.512 9.16296 15.5434 9.1695 15.5758 9.17623C15.6069 9.18262 15.638 9.18901 15.67 9.19559C15.917 9.2545 16.1214 9.36532 16.3198 9.52152C16.3391 9.53631 16.3583 9.55109 16.3782 9.56632C16.6202 9.76522 16.7941 10.0391 16.902 10.3316C16.9101 10.3528 16.9182 10.374 16.9265 10.3959C17.0648 10.8377 16.9984 11.3442 16.8071 11.757C16.7287 11.904 16.6326 12.0298 16.5223 12.1541C16.5092 12.1697 16.496 12.1852 16.4825 12.2012C16.1791 12.5344 15.724 12.7103 15.282 12.7364C14.7791 12.7422 14.3421 12.5945 13.9657 12.2554C13.9499 12.2417 13.9341 12.228 13.9179 12.2139C13.6074 11.9264 13.4178 11.5029 13.4003 11.0813C13.3914 10.5199 13.5181 10.066 13.915 9.64809C14.1799 9.39268 14.5932 9.14182 14.9782 9.14182C14.9657 6.71095 14.9657 6.71095 14.9529 4.23097C14.6396 4.87002 14.6396 4.87002 14.32 5.52197C14.1048 5.95906 13.889 6.39583 13.672 6.83205C13.5852 7.00656 13.4985 7.18116 13.4123 7.35597C13.3352 7.5124 13.2577 7.66867 13.1799 7.82475C13.1392 7.9063 13.0987 7.98791 13.0586 8.06973C13.0145 8.15961 12.9697 8.24912 12.9249 8.33861C12.912 8.36518 12.8991 8.39176 12.8858 8.41914C12.8735 8.44336 12.8612 8.46759 12.8485 8.49255C12.8381 8.51357 12.8277 8.5346 12.817 8.55626C12.7603 8.63074 12.7119 8.65409 12.624 8.68617C12.5505 8.69555 12.4783 8.69506 12.4043 8.69359C12.3837 8.69348 12.3632 8.69338 12.342 8.69326C12.2767 8.69284 12.2115 8.69189 12.1462 8.69092C12.1018 8.69054 12.0574 8.69019 12.0129 8.68988C11.9044 8.68905 11.7959 8.68774 11.6874 8.68617C11.6875 8.71676 11.6875 8.71676 11.6876 8.74796C11.6887 9.24379 11.6895 9.73962 11.6901 10.2355C11.6903 10.4752 11.6907 10.715 11.6913 10.9548C11.6918 11.1638 11.6921 11.3727 11.6922 11.5817C11.6923 11.6924 11.6924 11.803 11.6928 11.9137C11.6931 12.0178 11.6932 12.122 11.6932 12.2261C11.6932 12.2643 11.6933 12.3026 11.6935 12.3408C11.6937 12.393 11.6937 12.4452 11.6935 12.4974C11.6936 12.5412 11.6936 12.5412 11.6937 12.5859C11.6875 12.6599 11.6783 12.7007 11.6368 12.7617C11.5557 12.8157 11.5357 12.8184 11.4427 12.8172C11.4223 12.8171 11.402 12.817 11.381 12.8169C11.3552 12.8164 11.3295 12.8159 11.303 12.8155C11.221 12.8144 11.139 12.8134 11.0546 12.8123C11.0546 13.0796 11.0546 13.3469 11.0546 13.6223C11.2348 13.6194 11.2348 13.6194 11.415 13.6155C11.7199 13.613 11.9761 13.701 12.2052 13.9056C12.4112 14.1182 12.5143 14.3547 12.526 14.6509C12.5162 14.9092 12.4569 15.1166 12.295 15.3183C12.2798 15.3408 12.2647 15.3632 12.2491 15.3864C12.0383 15.6092 11.7507 15.7141 11.4492 15.7257C11.3797 15.7267 11.3103 15.7269 11.2408 15.7268C11.201 15.7268 11.201 15.7268 11.1603 15.7269C11.0717 15.7271 10.9831 15.7271 10.8945 15.727C10.8308 15.7271 10.7671 15.7272 10.7035 15.7273C10.5486 15.7275 10.3938 15.7276 10.239 15.7276C10.1131 15.7276 9.98718 15.7277 9.86127 15.7277C9.50387 15.728 9.14647 15.7281 8.78908 15.7281C8.76983 15.7281 8.75059 15.7281 8.73076 15.7281C8.70186 15.7281 8.70186 15.7281 8.67237 15.7281C8.36017 15.728 8.04796 15.7283 7.73576 15.7286C7.41478 15.729 7.0938 15.7292 6.77282 15.7292C6.59277 15.7291 6.41273 15.7292 6.23269 15.7295C6.06334 15.7297 5.89398 15.7297 5.72463 15.7296C5.66258 15.7295 5.60052 15.7296 5.53847 15.7297C5.45356 15.7299 5.36865 15.7298 5.28373 15.7296C5.24719 15.7298 5.24719 15.7298 5.2099 15.73C4.9853 15.7289 4.76583 15.7063 4.56481 15.6C4.52849 15.5813 4.52849 15.5813 4.49144 15.5622C4.25562 15.421 4.10357 15.2056 4.02928 14.9415C3.9682 14.6665 4.00093 14.3703 4.14397 14.1286C4.31071 13.8676 4.52991 13.7113 4.82996 13.6339C4.9291 13.6183 5.02595 13.6192 5.12616 13.6199C5.15791 13.6199 5.15791 13.6199 5.19031 13.62C5.25762 13.6201 5.32493 13.6204 5.39225 13.6208C5.43801 13.6209 5.48378 13.621 5.52954 13.6211C5.64146 13.6214 5.75338 13.6219 5.86529 13.6223C5.86529 13.355 5.86529 13.0877 5.86529 12.8123C5.63658 12.8163 5.63658 12.8163 5.40789 12.8214C5.37937 12.8217 5.35084 12.8219 5.32145 12.8222C5.29228 12.8227 5.26312 12.8232 5.23307 12.8238C5.13949 12.8097 5.11115 12.7862 5.05526 12.711C5.02042 12.6143 5.02621 12.5133 5.02627 12.4119C5.02618 12.392 5.0261 12.3721 5.02601 12.3517C5.02577 12.286 5.02572 12.2203 5.02569 12.1545C5.02561 12.1085 5.02553 12.0626 5.02544 12.0166C5.02529 11.92 5.02524 11.8233 5.02525 11.7267C5.02526 11.604 5.02491 11.4813 5.02448 11.3586C5.02419 11.2634 5.02414 11.1683 5.02416 11.0731C5.02413 11.0279 5.02402 10.9828 5.02382 10.9376C5.02124 10.2865 5.10637 9.66872 5.56153 9.16713C5.58958 9.13556 5.58958 9.13556 5.61819 9.10335C5.97298 8.72534 6.48828 8.47318 7.00997 8.45234C7.12101 8.45007 7.23194 8.45166 7.34298 8.45361C7.38161 8.45399 7.42024 8.45433 7.45887 8.45464C7.55209 8.45547 7.64529 8.45677 7.7385 8.45835C7.73806 8.43097 7.73762 8.40358 7.73717 8.37537C7.73681 8.33886 7.73647 8.30234 7.73613 8.26583C7.73565 8.23886 7.73565 8.23886 7.73517 8.21135C7.73315 7.91815 7.84862 7.68803 8.04227 7.47112C8.11408 7.40474 8.18886 7.34822 8.27009 7.29392C8.29672 7.27513 8.32334 7.25633 8.35078 7.23697C8.59797 7.10492 8.91453 7.10227 9.18887 7.08937C9.24629 7.08667 9.30369 7.08356 9.3611 7.08039C9.57979 7.06875 9.79767 7.0633 10.0167 7.0661C10.0237 7.05062 10.0306 7.03513 10.0378 7.01918C10.0814 6.93898 10.1506 6.89356 10.2224 6.83986C10.2545 6.81524 10.2866 6.79059 10.3187 6.7659C10.3355 6.75299 10.3524 6.74009 10.3697 6.72679C10.4579 6.65836 10.5442 6.58772 10.6306 6.51711C10.665 6.48906 10.6994 6.46101 10.7338 6.43296C10.7499 6.41987 10.766 6.40677 10.7825 6.39328C10.8587 6.33137 10.9355 6.27027 11.0123 6.2091C11.083 6.15231 11.1534 6.09505 11.2237 6.03774C11.3831 5.90782 11.5433 5.77926 11.7054 5.65271C11.8187 5.56406 11.9304 5.47368 12.0418 5.38274C12.1816 5.26864 12.3226 5.15623 12.4648 5.04516C12.5781 4.95652 12.6898 4.86614 12.8012 4.77522C12.941 4.66111 13.082 4.5487 13.2242 4.43764C13.3375 4.34899 13.4492 4.25861 13.5606 4.16769C13.7005 4.05359 13.8414 3.94117 13.9837 3.83011C14.0969 3.74147 14.2086 3.65108 14.32 3.56016C14.4512 3.45326 14.5828 3.34698 14.7156 3.24216C14.7296 3.231 14.7437 3.21984 14.7582 3.20834C15.0214 3.00147 15.0214 3.00147 15.157 3.00168ZM14.5479 3.95252C14.5367 3.9618 14.5255 3.97108 14.514 3.98064C14.3098 4.14991 14.1051 4.31813 13.8958 4.48118C13.7829 4.56934 13.6716 4.65932 13.5606 4.7499C13.4208 4.86401 13.2799 4.97642 13.1376 5.08749C13.0244 5.17613 12.9126 5.26651 12.8012 5.35743C12.6614 5.47153 12.5205 5.58395 12.3782 5.69501C12.265 5.78366 12.1532 5.87403 12.0418 5.96496C11.902 6.07906 11.761 6.19148 11.6188 6.30254C11.4884 6.40466 11.3598 6.50905 11.2317 6.61405C11.1472 6.68307 11.0622 6.75102 10.9755 6.81712C10.959 6.82976 10.9425 6.84241 10.9255 6.85543C10.8941 6.87934 10.8626 6.90305 10.8309 6.92653C10.7944 6.95444 10.7597 6.98478 10.7255 7.01547C10.7255 7.04053 10.7255 7.0656 10.7255 7.09142C10.7424 7.09638 10.7593 7.10134 10.7766 7.10645C11.151 7.22792 11.3995 7.46531 11.5771 7.80999C11.6281 7.94563 11.6548 8.08931 11.6874 8.23053C11.9464 8.23053 12.2053 8.23053 12.4722 8.23053C12.5796 8.01618 12.687 7.80181 12.7944 7.5874C12.8443 7.48777 12.8942 7.38815 12.9441 7.28855C13.2106 6.75843 13.2106 6.75843 13.4688 6.22423C13.5916 5.96441 13.7205 5.70774 13.8498 5.45107C13.8712 5.40852 13.8926 5.36597 13.914 5.32342C14.0023 5.14786 14.0907 4.97232 14.1794 4.79694C14.2344 4.68819 14.2892 4.57935 14.3439 4.47044C14.3646 4.42926 14.3854 4.38811 14.4062 4.347C14.4351 4.29018 14.4636 4.23324 14.4922 4.17626C14.5008 4.15937 14.5095 4.14248 14.5184 4.12507C14.5382 4.08517 14.5559 4.04423 14.5732 4.00315C14.5648 3.98644 14.5565 3.96974 14.5479 3.95252ZM10.1314 7.4813C10.1112 7.48237 10.091 7.48343 10.0702 7.48453C10.0276 7.48678 9.98508 7.48906 9.94253 7.49136C9.87772 7.49484 9.81289 7.49819 9.74807 7.50153C9.70657 7.50374 9.66508 7.50597 9.62358 7.5082C9.60435 7.50918 9.58513 7.51015 9.56532 7.51116C9.46106 7.51694 9.35993 7.52768 9.25732 7.54706C9.40002 7.92588 9.54882 8.3016 9.70379 8.67552C9.82119 8.95885 9.93643 9.24295 10.05 9.52785C10.1806 9.85556 10.3129 10.1825 10.4471 10.5088C10.7144 10.5088 10.9817 10.5088 11.2571 10.5088C11.2582 10.2152 11.2592 9.92167 11.2597 9.62812C11.26 9.4918 11.2603 9.35549 11.2609 9.21917C11.2615 9.08754 11.2618 8.9559 11.2619 8.82427C11.262 8.77413 11.2622 8.724 11.2625 8.67386C11.2628 8.60346 11.2629 8.53306 11.2628 8.46265C11.2631 8.43179 11.2631 8.43179 11.2634 8.4003C11.2624 8.13188 11.1811 7.90142 10.9961 7.70369C10.7472 7.47104 10.4555 7.46398 10.1314 7.4813ZM8.36047 7.78052C8.24075 7.91602 8.16555 8.07465 8.16579 8.25614C8.16576 8.27609 8.16572 8.29603 8.16569 8.31658C8.16578 8.33823 8.16587 8.35988 8.16596 8.38219C8.16596 8.40516 8.16595 8.42814 8.16595 8.45181C8.16597 8.52769 8.16617 8.60357 8.16636 8.67945C8.16641 8.73209 8.16645 8.78472 8.16647 8.83736C8.16657 8.97585 8.16682 9.11435 8.1671 9.25284C8.1674 9.41904 8.16752 9.58523 8.16767 9.75143C8.16791 10.0039 8.1684 10.2563 8.16884 10.5088C8.76193 10.5088 9.35503 10.5088 9.9661 10.5088C9.91876 10.3667 9.87126 10.2284 9.81482 10.0903C9.80409 10.0638 9.80409 10.0638 9.79316 10.0368C9.76967 9.97895 9.74607 9.9211 9.72246 9.86326C9.70569 9.82203 9.68892 9.78079 9.67215 9.73956C9.50224 9.32231 9.32951 8.90623 9.15651 8.49025C9.07121 8.28512 8.98625 8.07985 8.90135 7.87456C8.88839 7.84323 8.87543 7.8119 8.86247 7.78057C8.83376 7.71117 8.80506 7.64177 8.77636 7.57237C8.62514 7.57237 8.46839 7.68189 8.36047 7.78052ZM5.94124 9.42027C5.92551 9.43518 5.90978 9.45009 5.89357 9.46546C5.79072 9.57039 5.72314 9.68931 5.65646 9.81896C5.64812 9.83493 5.63977 9.85091 5.63118 9.86737C5.47348 10.189 5.47591 10.507 5.48084 10.8568C5.48123 10.9042 5.48157 10.9516 5.48188 10.999C5.48271 11.114 5.48402 11.2291 5.48559 11.3441C5.50154 11.3444 5.51749 11.3446 5.53392 11.3449C5.69982 11.3476 5.86571 11.3505 6.0316 11.3535C6.09352 11.3546 6.15545 11.3557 6.21737 11.3567C6.30635 11.3582 6.39532 11.3598 6.48429 11.3614C6.51201 11.3618 6.53972 11.3623 6.56828 11.3627C6.59412 11.3632 6.61996 11.3637 6.64658 11.3642C6.66929 11.3646 6.692 11.365 6.7154 11.3654C6.77273 11.3692 6.8228 11.3788 6.87784 11.3947C6.8835 11.4305 6.88868 11.4664 6.89366 11.5023C6.8966 11.5223 6.89953 11.5423 6.90256 11.5628C6.90324 11.6317 6.88982 11.6665 6.85253 11.7238C6.78958 11.7553 6.74575 11.7531 6.67532 11.7543C6.63579 11.7551 6.63579 11.7551 6.59547 11.7559C6.56694 11.7563 6.53841 11.7567 6.50901 11.7571C6.47987 11.7577 6.45072 11.7582 6.42069 11.7587C6.32732 11.7604 6.23395 11.7619 6.14058 11.7634C6.0774 11.7645 6.01421 11.7656 5.95102 11.7667C5.79588 11.7694 5.64074 11.7719 5.48559 11.7744C5.48559 11.9749 5.48559 12.1754 5.48559 12.382C7.39019 12.382 9.29479 12.382 11.2571 12.382C11.2571 11.9142 11.2571 11.4464 11.2571 10.9644C11.1063 10.9638 11.1063 10.9638 10.9524 10.9633C10.6205 10.962 10.2886 10.9603 9.95666 10.9584C9.75539 10.9573 9.55412 10.9563 9.35285 10.9556C9.17741 10.9551 9.00198 10.9542 8.82655 10.953C8.73367 10.9524 8.64078 10.952 8.54789 10.9518C8.44419 10.9516 8.3405 10.9509 8.2368 10.95C8.20601 10.9501 8.17522 10.9501 8.1435 10.9501C8.10106 10.9497 8.10106 10.9497 8.05777 10.9492C8.03325 10.9491 8.00872 10.9489 7.98346 10.9488C7.8955 10.9362 7.82707 10.9011 7.76382 10.8378C7.76066 10.777 7.75911 10.7169 7.75862 10.656C7.75837 10.637 7.75812 10.618 7.75786 10.5984C7.75706 10.5353 7.75643 10.4721 7.75581 10.409C7.75529 10.3653 7.75476 10.3217 7.75421 10.278C7.75281 10.1628 7.75156 10.0477 7.75034 9.93254C7.74908 9.81513 7.74766 9.69772 7.74627 9.58031C7.74354 9.34977 7.74097 9.11923 7.7385 8.88868C7.6383 8.88773 7.5381 8.88705 7.4379 8.8866C7.38734 8.88632 7.33678 8.88583 7.28621 8.88535C6.75518 8.88334 6.3165 9.03469 5.94124 9.42027ZM14.1404 10.0641C13.8915 10.3846 13.8177 10.7189 13.8391 11.1163C13.8915 11.4874 14.0905 11.7861 14.3763 12.0237C14.6905 12.2467 15.031 12.3127 15.4085 12.2807C15.7854 12.2072 16.1106 12.0019 16.3309 11.6843C16.5264 11.3636 16.5942 11.0361 16.5359 10.6609C16.4452 10.2903 16.2381 9.97926 15.9148 9.77466C15.318 9.41958 14.5938 9.53805 14.1404 10.0641ZM6.29563 12.8123C6.29563 13.0796 6.29563 13.3469 6.29563 13.6223C7.72408 13.6223 9.15252 13.6223 10.6243 13.6223C10.6243 13.355 10.6243 13.0877 10.6243 12.8123C9.19581 12.8123 7.76736 12.8123 6.29563 12.8123ZM4.54899 14.3058C4.44962 14.4571 4.42386 14.6084 4.44773 14.7868C4.49091 14.9644 4.57306 15.086 4.72776 15.1855C4.82495 15.2444 4.90286 15.2709 5.01678 15.2712C5.04014 15.2713 5.0635 15.2714 5.08757 15.2716C5.12613 15.2716 5.12613 15.2716 5.16547 15.2716C5.20639 15.2718 5.20639 15.2718 5.24814 15.272C5.34001 15.2723 5.43189 15.2724 5.52376 15.2726C5.58945 15.2728 5.65514 15.273 5.72083 15.2732C5.91832 15.2739 6.11581 15.2742 6.31329 15.2745C6.36909 15.2746 6.42488 15.2747 6.48068 15.2748C6.82725 15.2755 7.17382 15.276 7.52039 15.2764C7.60066 15.2764 7.68094 15.2765 7.76122 15.2766C7.78117 15.2766 7.80112 15.2766 7.82168 15.2766C8.14471 15.277 8.46774 15.2778 8.79077 15.2789C9.12254 15.2799 9.45429 15.2805 9.78606 15.2807C9.97228 15.2807 10.1585 15.281 10.3447 15.2819C10.52 15.2827 10.6952 15.2828 10.8705 15.2825C10.9348 15.2825 10.999 15.2827 11.0633 15.2831C11.1512 15.2837 11.239 15.2835 11.3269 15.2831C11.3522 15.2835 11.3775 15.2838 11.4036 15.2842C11.58 15.2822 11.718 15.2417 11.8646 15.1412C12.0247 14.9728 12.0799 14.8154 12.0748 14.5843C12.056 14.3982 11.9617 14.2896 11.8264 14.1677C11.6485 14.0574 11.4668 14.0416 11.2619 14.043C11.2219 14.0428 11.2219 14.0428 11.1811 14.0427C11.0921 14.0424 11.0031 14.0426 10.9142 14.0428C10.8502 14.0427 10.7863 14.0426 10.7223 14.0424C10.5669 14.0421 10.4114 14.0422 10.256 14.0424C10.1296 14.0426 10.0032 14.0426 9.87681 14.0425C9.85879 14.0425 9.84077 14.0425 9.8222 14.0425C9.78558 14.0424 9.74897 14.0424 9.71235 14.0424C9.36935 14.0422 9.02636 14.0424 8.68336 14.0428C8.38942 14.0432 8.09547 14.0431 7.80152 14.0428C7.45975 14.0424 7.11798 14.0422 6.77621 14.0424C6.73973 14.0425 6.70324 14.0425 6.66676 14.0425C6.64881 14.0425 6.63086 14.0425 6.61237 14.0425C6.48622 14.0426 6.36008 14.0425 6.23393 14.0423C6.06395 14.0421 5.89397 14.0422 5.72399 14.0427C5.66169 14.0428 5.59938 14.0428 5.53707 14.0426C5.45187 14.0424 5.36668 14.0426 5.28148 14.043C5.25696 14.0429 5.23244 14.0427 5.20718 14.0425C4.94543 14.0448 4.72217 14.1003 4.54899 14.3058Z" fill="#00080C"/>
</svg>
