<svg width="20" height="20" viewBox="0 0 20 20" fill="none" xmlns="http://www.w3.org/2000/svg">
<g clip-path="url(#clip0_598_113)">
<path d="M9.68805 -0.0163601C9.71268 -0.0175928 9.73731 -0.0188255 9.76269 -0.0200955C10.1581 -0.0242984 10.498 0.259586 10.8154 0.466452C10.8776 0.506624 10.9398 0.546796 11.002 0.586943C11.065 0.627618 11.1279 0.66837 11.1909 0.709122C11.3706 0.825222 11.5512 0.94003 11.7318 1.05473C11.7994 1.0977 11.867 1.14067 11.9345 1.18364C11.9678 1.20481 12.0012 1.22599 12.0355 1.2478C12.1394 1.31387 12.2432 1.38 12.347 1.44614C12.6705 1.65217 12.9942 1.85793 13.3185 2.06255C13.6484 2.27066 13.9777 2.47968 14.3066 2.6895C14.4261 2.76576 14.5459 2.84159 14.666 2.91684C14.7028 2.94003 14.7028 2.94003 14.7403 2.96369C14.804 3.00383 14.8678 3.04377 14.9316 3.08369C15.0248 3.15005 15.0248 3.15005 15.0998 3.26255C15.1155 3.40643 15.1203 3.49175 15.0435 3.61645C14.9382 3.6823 14.8557 3.69297 14.7321 3.69497C14.6498 3.67505 14.6498 3.67505 14.4248 3.52505C14.4124 3.78492 14.4 4.0448 14.3873 4.31255C14.4686 4.31176 14.55 4.31098 14.6338 4.31017C14.9034 4.30767 15.1729 4.30602 15.4425 4.30477C15.6059 4.30399 15.7692 4.30294 15.9326 4.30123C16.0904 4.29959 16.2481 4.2987 16.406 4.29831C16.466 4.29804 16.526 4.2975 16.5861 4.29669C16.939 4.2921 17.2096 4.29262 17.4993 4.52143C17.752 4.81802 17.7962 5.23031 17.8799 5.60058C17.8906 5.64753 17.9012 5.69447 17.9122 5.74284C17.9346 5.84156 17.9568 5.9403 17.979 6.03906C18.0073 6.16479 18.0361 6.2904 18.0649 6.416C18.0926 6.53709 18.1198 6.6583 18.1471 6.77949C18.1574 6.82415 18.1677 6.8688 18.1783 6.91481C18.2537 7.25426 18.3206 7.59603 18.1373 7.91255C18.0137 8.0676 17.8847 8.20069 17.6873 8.25005C17.6501 8.25005 17.613 8.25005 17.5748 8.25005C17.5748 9.05442 17.5748 9.8588 17.5748 10.6875C17.8841 10.6875 18.1935 10.6875 18.5123 10.6875C18.8553 10.8162 18.8553 10.8162 18.9904 10.936C19.0173 10.9589 19.0442 10.9818 19.0718 11.0054C19.2822 11.2609 19.3219 11.5227 19.3198 11.8451C19.3201 11.8844 19.3204 11.9238 19.3208 11.9643C19.3216 12.0933 19.3214 12.2224 19.321 12.3515C19.3212 12.4417 19.3214 12.532 19.3217 12.6222C19.3221 12.8111 19.3219 12.9999 19.3214 13.1888C19.3207 13.4302 19.3216 13.6715 19.3229 13.9129C19.3238 14.0992 19.3237 14.2855 19.3234 14.4718C19.3234 14.5608 19.3236 14.6498 19.3242 14.7387C19.3248 14.8634 19.3243 14.988 19.3234 15.1126C19.3239 15.149 19.3243 15.1853 19.3248 15.2227C19.3206 15.527 19.2256 15.7681 19.0267 15.9997C18.9993 16.0225 18.9718 16.0453 18.9435 16.0688C18.9161 16.0924 18.8886 16.116 18.8603 16.1403C18.7061 16.248 18.5531 16.2862 18.3693 16.3172C18.3327 16.3235 18.2961 16.3298 18.2584 16.3363C18.2308 16.3408 18.2032 16.3454 18.1748 16.35C18.1893 16.3696 18.2038 16.3892 18.2187 16.4094C18.5623 16.895 18.594 17.3676 18.5943 17.9461C18.5948 17.9863 18.5952 18.0265 18.5957 18.0679C18.5968 18.6731 18.5968 18.6731 18.4138 18.9118C18.3971 18.9348 18.3804 18.9579 18.3632 18.9816C18.132 19.19 17.8953 19.2219 17.5935 19.2189C17.5553 19.2191 17.517 19.2193 17.4776 19.2195C17.3519 19.2199 17.2263 19.2193 17.1006 19.2187C17.013 19.2187 16.9254 19.2187 16.8379 19.2188C16.6547 19.2189 16.4716 19.2184 16.2885 19.2175C16.0536 19.2165 15.8186 19.2166 15.5836 19.2171C15.403 19.2173 15.2224 19.217 15.0417 19.2166C14.9551 19.2164 14.8684 19.2164 14.7817 19.2165C14.6609 19.2166 14.5401 19.216 14.4192 19.2152C14.3833 19.2154 14.3473 19.2155 14.3103 19.2157C14.2775 19.2153 14.2446 19.215 14.2108 19.2146C14.1822 19.2145 14.1537 19.2144 14.1243 19.2143C14.0288 19.196 13.9963 19.1635 13.9373 19.0875C13.8952 18.9492 13.8871 18.8884 13.9513 18.7571C14.0123 18.675 14.0123 18.675 14.0498 18.6375C14.1629 18.633 14.2752 18.631 14.3884 18.6304C14.424 18.6301 14.4595 18.6298 14.4961 18.6295C14.5736 18.6288 14.6511 18.6283 14.7286 18.6278C14.8512 18.627 14.9738 18.626 15.0964 18.6249C15.3569 18.6227 15.6174 18.6207 15.8779 18.6188C16.1792 18.6166 16.4804 18.6142 16.7817 18.6116C16.9025 18.6106 17.0233 18.6098 17.1442 18.6091C17.2184 18.6084 17.2925 18.6078 17.3667 18.6072C17.4004 18.607 17.434 18.6068 17.4686 18.6067C17.4998 18.6064 17.5309 18.6061 17.563 18.6057C17.5898 18.6055 17.6167 18.6053 17.6444 18.6051C17.7434 18.6007 17.7434 18.6007 17.9123 18.5625C17.937 18.3522 17.9618 18.1418 17.9873 17.925C12.5175 17.925 7.04777 17.925 1.41227 17.925C1.43768 18.2455 1.43768 18.2455 1.48727 18.5625C1.61881 18.5924 1.7401 18.6048 1.87488 18.6048C1.91474 18.6049 1.9546 18.6051 1.99567 18.6052C2.03923 18.6051 2.08279 18.605 2.12768 18.605C2.17413 18.6051 2.22058 18.6051 2.26845 18.6052C2.37039 18.6054 2.47234 18.6054 2.57428 18.6054C2.74016 18.6053 2.90603 18.6055 3.07191 18.6058C3.31271 18.6061 3.5535 18.6063 3.7943 18.6064C4.17478 18.6066 4.55525 18.6072 4.93573 18.6079C5.06589 18.6082 5.19605 18.6084 5.32621 18.6086C5.35874 18.6087 5.39127 18.6088 5.42478 18.6088C5.79494 18.6095 6.1651 18.6101 6.53526 18.6107C6.5691 18.6107 6.60293 18.6108 6.63779 18.6108C7.18657 18.6116 7.73534 18.612 8.28411 18.6123C8.84738 18.6126 9.41064 18.6135 9.9739 18.6149C10.3214 18.6157 10.669 18.6161 11.0165 18.6158C11.2545 18.6157 11.4925 18.6161 11.7305 18.617C11.8679 18.6175 12.0053 18.6177 12.1427 18.6173C12.2915 18.6168 12.4403 18.6175 12.5891 18.6183C12.6328 18.618 12.6764 18.6177 12.7214 18.6174C12.7612 18.6178 12.8009 18.6182 12.8419 18.6186C12.8934 18.6187 12.8934 18.6187 12.946 18.6187C13.0671 18.6437 13.112 18.6911 13.1873 18.7875C13.206 18.9188 13.206 18.9188 13.1873 19.05C13.1115 19.1475 13.0668 19.1941 12.9444 19.2188C12.9094 19.2189 12.8743 19.2189 12.8381 19.2189C12.7975 19.2193 12.7569 19.2197 12.715 19.2201C12.6705 19.2198 12.6259 19.2194 12.5799 19.2191C12.5325 19.2193 12.4851 19.2196 12.4363 19.2198C12.3047 19.2204 12.1731 19.2201 12.0414 19.2197C11.8995 19.2193 11.7576 19.2198 11.6157 19.2203C11.3376 19.2209 11.0594 19.2208 10.7813 19.2203C10.5553 19.22 10.3292 19.22 10.1031 19.2201C10.071 19.2201 10.0388 19.2202 10.0057 19.2202C9.94034 19.2202 9.87501 19.2203 9.80969 19.2203C9.19674 19.2208 8.58379 19.2203 7.97085 19.2195C7.44503 19.2188 6.91922 19.2189 6.3934 19.2196C5.7829 19.2204 5.17241 19.2207 4.56191 19.2203C4.49678 19.2202 4.43164 19.2202 4.36651 19.2201C4.33447 19.2201 4.30242 19.2201 4.2694 19.22C4.0437 19.2199 3.81801 19.2201 3.59231 19.2205C3.3171 19.2209 3.04189 19.2208 2.76667 19.22C2.62628 19.2196 2.4859 19.2194 2.34551 19.2199C2.19322 19.2205 2.04096 19.2198 1.88867 19.2191C1.84441 19.2194 1.80016 19.2198 1.75456 19.2201C1.46658 19.2174 1.2574 19.1809 1.03639 18.9816C1.01131 18.9471 1.01131 18.9471 0.985711 18.9118C0.959753 18.8779 0.959753 18.8779 0.93327 18.8434C0.795644 18.5642 0.800145 18.2605 0.802899 17.9555C0.803234 17.914 0.803569 17.8724 0.803915 17.8296C0.811203 17.3145 0.834625 16.7402 1.22477 16.35C1.19036 16.3445 1.15594 16.339 1.12048 16.3333C0.828171 16.2799 0.612744 16.2245 0.399774 16.0125C0.381405 15.9943 0.363036 15.976 0.34411 15.9572C0.110962 15.7007 0.0830352 15.457 0.0840267 15.126C0.0837091 15.0867 0.0833915 15.0474 0.0830643 15.0069C0.0821893 14.8774 0.0821495 14.7479 0.0821957 14.6185C0.0819292 14.5281 0.0816405 14.4377 0.0813305 14.3473C0.0808266 14.1581 0.0807673 13.9688 0.0809872 13.7795C0.0812081 13.5375 0.0800615 13.2955 0.078545 13.0536C0.0775732 12.8669 0.0774677 12.6803 0.0776043 12.4937C0.077541 12.4045 0.0771794 12.3153 0.0765102 12.2262C0.0756755 12.1011 0.0760439 11.9762 0.0767025 11.8512C0.0759564 11.7965 0.0759564 11.7965 0.0751953 11.7407C0.0787701 11.447 0.160635 11.2017 0.360792 10.9818C0.781028 10.5771 1.23306 10.6875 1.82477 10.6875C1.82477 9.88317 1.82477 9.0788 1.82477 8.25005C1.75052 8.23767 1.67627 8.2253 1.59977 8.21255C1.37484 8.06601 1.20663 7.87805 1.14977 7.61255C1.13044 7.30881 1.19288 7.03097 1.25934 6.73584C1.27077 6.68408 1.28219 6.63231 1.29358 6.58054C1.31743 6.47254 1.34154 6.3646 1.36584 6.2567C1.39678 6.11917 1.42704 5.98151 1.4571 5.84379C1.48049 5.73701 1.50426 5.63032 1.52815 5.52365C1.53945 5.47295 1.55063 5.42223 1.56169 5.37148C1.7133 4.67806 1.7133 4.67806 1.95368 4.48598C1.98493 4.46003 1.98493 4.46003 2.01681 4.43354C2.1915 4.31951 2.34054 4.30332 2.54735 4.30403C2.57408 4.30402 2.60081 4.30401 2.62835 4.304C2.71621 4.30405 2.80405 4.30463 2.89191 4.30522C2.95302 4.30536 3.01413 4.30547 3.07523 4.30554C3.23571 4.30583 3.39618 4.30657 3.55665 4.3074C3.72054 4.30817 3.88444 4.30851 4.04833 4.30888C4.36965 4.30969 4.69096 4.31101 5.01227 4.31255C4.9999 4.05267 4.98752 3.7928 4.97477 3.52505C4.8634 3.5993 4.8634 3.5993 4.74977 3.67505C4.63653 3.70245 4.56949 3.69049 4.44977 3.67505C4.35602 3.61645 4.35602 3.61645 4.29977 3.52505C4.27868 3.39614 4.27868 3.39614 4.29977 3.26255C4.44303 3.09253 4.6163 2.98568 4.80368 2.87114C4.86785 2.83127 4.93201 2.79137 4.99616 2.75146C5.02958 2.73077 5.06299 2.71007 5.09742 2.68875C5.26752 2.58288 5.43634 2.47501 5.60524 2.36723C5.67501 2.3228 5.74479 2.27836 5.81457 2.23393C5.84931 2.21181 5.88404 2.18968 5.91984 2.16688C6.09228 2.05705 6.26478 1.9473 6.43727 1.83755C6.50602 1.7938 6.57477 1.75005 6.64352 1.7063C6.78102 1.6188 6.91852 1.5313 7.05602 1.4438C7.09006 1.42213 7.1241 1.40047 7.15918 1.37815C7.22783 1.33446 7.29649 1.29077 7.36515 1.24709C7.53845 1.13681 7.71173 1.02651 7.88498 0.916159C8.02277 0.828388 8.16062 0.740699 8.2985 0.653073C8.43363 0.567199 8.56856 0.481029 8.70339 0.394675C8.76754 0.353753 8.8317 0.312834 8.89587 0.271921C8.9251 0.253111 8.95433 0.234301 8.98444 0.21492C9.22185 0.0639405 9.4018 -0.0139042 9.68805 -0.0163601ZM9.30837 0.731296C9.28512 0.745982 9.26187 0.760669 9.23792 0.7758C9.18456 0.809662 9.1314 0.843856 9.07842 0.878312C8.97648 0.944562 8.87395 1.00986 8.77136 1.0751C8.61091 1.17727 8.45073 1.27983 8.29074 1.38271C8.06861 1.52555 7.84605 1.66769 7.62321 1.80942C7.58935 1.83097 7.55548 1.85251 7.52059 1.87471C7.27505 2.03081 7.02913 2.18629 6.783 2.34146C6.61746 2.44589 6.45218 2.55074 6.28713 2.65595C6.24933 2.68005 6.21152 2.70415 6.17258 2.72898C6.09868 2.77611 6.0248 2.82328 5.95095 2.87048C5.91764 2.89173 5.88433 2.91297 5.85002 2.93486C5.82038 2.95379 5.79075 2.97273 5.76021 2.99224C5.68727 3.03755 5.68727 3.03755 5.61227 3.07505C5.61227 3.48342 5.61227 3.8918 5.61227 4.31255C5.88719 4.32386 6.16128 4.33351 6.43625 4.33933C6.52937 4.34175 6.62247 4.34506 6.71552 4.34932C7.37701 4.37884 7.79338 4.30223 8.31409 3.88316C8.40666 3.80965 8.50413 3.74657 8.60451 3.68427C8.63272 3.66622 8.66092 3.64816 8.68998 3.62956C8.72925 3.60451 8.72925 3.60451 8.7693 3.57895C8.79708 3.56095 8.82485 3.54294 8.85346 3.52439C9.12148 3.35374 9.37381 3.20328 9.69977 3.2063C9.76242 3.20572 9.76242 3.20572 9.82634 3.20512C10.1277 3.24929 10.3786 3.41577 10.6302 3.57895C10.6564 3.59565 10.6826 3.61236 10.7096 3.62956C10.7378 3.64762 10.766 3.66567 10.795 3.68427C10.8274 3.70437 10.8598 3.72446 10.8932 3.74517C10.989 3.80946 11.0764 3.87588 11.1661 3.94807C11.7029 4.36146 12.1616 4.37327 12.8216 4.34302C12.9158 4.34056 13.0099 4.33834 13.1041 4.33635C13.3319 4.33104 13.5596 4.32295 13.7873 4.31255C13.884 3.62847 13.884 3.62847 13.7313 2.9826C13.5804 2.84184 13.3964 2.77143 13.2051 2.70032C13.058 2.64047 12.9333 2.55285 12.8029 2.46333C12.7502 2.42881 12.6974 2.39443 12.6445 2.3602C12.6173 2.34246 12.59 2.32472 12.5619 2.30644C12.3999 2.20156 12.2369 2.09811 12.074 1.99458C12.0393 1.97255 12.0047 1.95052 11.969 1.92783C11.8981 1.88282 11.8273 1.83781 11.7564 1.79281C11.6156 1.70332 11.4749 1.61367 11.3341 1.52402C11.1644 1.41593 10.9946 1.30797 10.8248 1.20005C10.7914 1.17882 10.758 1.1576 10.7236 1.13574C10.6269 1.07429 10.5302 1.01294 10.4334 0.951609C10.4048 0.933427 10.3762 0.915245 10.3467 0.896512C10.2934 0.862787 10.2399 0.829319 10.1863 0.796152C10.1385 0.76638 10.0912 0.735786 10.0446 0.704233C9.78118 0.534583 9.56828 0.564051 9.30837 0.731296ZM9.25212 3.9563C9.22367 3.97445 9.19522 3.99261 9.1659 4.01131C9.1029 4.05162 9.04009 4.09224 8.97746 4.13312C8.86789 4.20453 8.75773 4.27495 8.64743 4.34521C8.48688 4.44754 8.32654 4.55019 8.16638 4.65312C7.96948 4.77956 7.77198 4.90501 7.57399 5.02973C7.24616 5.23635 6.91894 5.44393 6.5924 5.65259C6.47513 5.72744 6.35743 5.80141 6.23879 5.87407C5.86197 6.09242 5.86197 6.09242 5.62627 6.44452C5.60936 6.54179 5.60702 6.6343 5.60636 6.73306C5.60578 6.79557 5.60578 6.79557 5.60519 6.85933C5.60492 6.90414 5.60465 6.94895 5.60436 6.99511C5.60331 7.08982 5.60224 7.18452 5.60114 7.27922C5.59959 7.42867 5.59817 7.57812 5.59722 7.72758C5.59619 7.87172 5.59447 8.01583 5.59264 8.15996C5.59252 8.20484 5.5924 8.24973 5.59228 8.29597C5.59134 8.3583 5.59134 8.3583 5.59039 8.42188C5.59009 8.45849 5.58979 8.49509 5.58947 8.5328C5.5724 8.63993 5.54816 8.67343 5.46227 8.73755C5.35942 8.76243 5.26555 8.76019 5.16227 8.73755C5.03044 8.59721 5.04089 8.48787 5.01227 8.28755C4.1584 8.28755 3.30452 8.28755 2.42477 8.28755C2.42477 9.07955 2.42477 9.87155 2.42477 10.6875C3.27865 10.6875 4.13252 10.6875 5.01227 10.6875C5.02465 10.3782 5.03702 10.0688 5.04977 9.75005C5.16227 9.56255 5.16227 9.56255 5.23493 9.54028C5.26045 9.54144 5.28598 9.5426 5.31227 9.5438C5.3378 9.54418 5.36332 9.54457 5.38962 9.54497C5.48565 9.5682 5.51493 9.59623 5.57477 9.67505C5.59099 9.78076 5.59099 9.78076 5.59396 9.90752C5.5952 9.94835 5.59645 9.98918 5.59773 10.0312C5.59866 10.0831 5.59959 10.1349 5.60055 10.1883C5.60442 10.3531 5.60829 10.5178 5.61227 10.6875C6.05777 10.6875 6.50327 10.6875 6.96227 10.6875C6.96368 10.4994 6.96508 10.3112 6.96652 10.1173C6.96766 9.99817 6.96882 9.87905 6.97011 9.75993C6.97215 9.57081 6.97407 9.38169 6.97526 9.19255C6.97624 9.0401 6.97775 8.88765 6.97964 8.7352C6.98027 8.67699 6.9807 8.61879 6.98093 8.56058C6.98129 8.47913 6.98234 8.39772 6.98356 8.31629C6.98398 8.2699 6.98439 8.22352 6.98482 8.17573C6.99977 8.06255 6.99977 8.06255 7.04388 8.00012C7.13888 7.93057 7.20431 7.93589 7.32151 7.93576C7.36504 7.93544 7.40858 7.93513 7.45343 7.9348C7.52515 7.93514 7.52515 7.93514 7.59831 7.93549C7.64913 7.93534 7.69995 7.93514 7.75076 7.93489C7.88883 7.93438 8.02689 7.93458 8.16496 7.93494C8.30935 7.93522 8.45373 7.93496 8.59812 7.93478C8.84061 7.93457 9.08309 7.93484 9.32558 7.93538C9.60606 7.93599 9.88653 7.93579 10.167 7.93517C10.4077 7.93466 10.6483 7.93459 10.889 7.93489C11.0328 7.93506 11.1766 7.93508 11.3204 7.93471C11.4556 7.93439 11.5908 7.93461 11.726 7.93526C11.7994 7.93548 11.8727 7.93515 11.9461 7.9348C11.9896 7.93512 12.0332 7.93543 12.078 7.93576C12.1349 7.93582 12.1349 7.93582 12.1929 7.93589C12.2873 7.95005 12.2873 7.95005 12.3557 8.00012C12.4267 8.10073 12.4149 8.19482 12.416 8.31629C12.4164 8.3419 12.4168 8.36752 12.4171 8.39392C12.4183 8.47853 12.4186 8.56313 12.419 8.64775C12.4196 8.70644 12.4203 8.76514 12.421 8.82383C12.4228 8.97826 12.4239 9.13269 12.4249 9.28712C12.4262 9.47244 12.4283 9.65776 12.4303 9.84307C12.4333 10.1246 12.4352 10.406 12.4373 10.6875C12.8828 10.6875 13.3283 10.6875 13.7873 10.6875C13.7898 10.1494 13.7919 9.61117 13.7931 9.07298C13.7937 8.82307 13.7945 8.57317 13.7958 8.32326C13.797 8.08206 13.7977 7.84086 13.7979 7.59966C13.7982 7.50767 13.7986 7.41567 13.7992 7.32368C13.8 7.19476 13.8001 7.06587 13.8 6.93695C13.8004 6.89897 13.8009 6.86099 13.8013 6.82186C13.8002 6.58162 13.7789 6.38769 13.6196 6.19626C13.4333 6.04799 13.2371 5.91953 13.0349 5.7938C12.961 5.74732 12.8872 5.70083 12.8133 5.65434C12.7569 5.61903 12.7569 5.61903 12.6995 5.58301C12.524 5.47284 12.3494 5.36141 12.1748 5.25005C12.1062 5.20639 12.0376 5.16274 11.969 5.11909C11.83 5.03065 11.691 4.94217 11.5521 4.85366C10.966 4.47999 10.966 4.47999 10.3781 4.10923C10.2871 4.05216 10.1972 3.99419 10.1077 3.93462C10.076 3.91393 10.0442 3.89324 10.0115 3.87192C9.9866 3.8551 9.9617 3.83828 9.93605 3.82094C9.66396 3.71562 9.47756 3.80613 9.25212 3.9563ZM2.27477 5.02505C2.23856 5.12823 2.23856 5.12823 2.21381 5.24827C2.20331 5.29421 2.1928 5.34014 2.18198 5.38747C2.17096 5.43765 2.15994 5.48784 2.14894 5.53803C2.13736 5.58956 2.12575 5.64108 2.11411 5.69259C2.08981 5.80053 2.06579 5.90853 2.04198 6.01658C2.01151 6.15483 1.9805 6.29296 1.9493 6.43105C1.9253 6.53743 1.90151 6.64387 1.87779 6.75031C1.86643 6.80125 1.85502 6.85217 1.84356 6.90308C1.82757 6.97438 1.81187 7.04575 1.79618 7.11712C1.78719 7.15767 1.77821 7.19821 1.76895 7.23999C1.74117 7.3886 1.74117 7.3886 1.74977 7.53755C1.85415 7.65711 1.91868 7.68514 2.07656 7.70559C2.13132 7.70602 2.18609 7.70563 2.24083 7.70458C2.27085 7.7046 2.30087 7.70462 2.3318 7.70464C2.43063 7.70454 2.52942 7.70337 2.62824 7.7022C2.69691 7.70192 2.76559 7.7017 2.83426 7.70155C3.01472 7.70098 3.19515 7.69951 3.3756 7.69785C3.55985 7.69631 3.74411 7.69563 3.92836 7.69487C4.28967 7.69326 4.65097 7.6907 5.01227 7.68755C5.01302 7.65296 5.01376 7.61838 5.01453 7.58275C5.01748 7.45295 5.02073 7.32317 5.02418 7.19339C5.0256 7.1375 5.02691 7.0816 5.02809 7.0257C5.04508 6.23418 5.04508 6.23418 5.22321 5.98364C5.29538 5.88833 5.29538 5.88833 5.31227 5.77505C5.3318 5.76615 5.35133 5.75726 5.37145 5.74809C5.49193 5.68436 5.60285 5.60783 5.7154 5.5313C5.9533 5.37069 6.19486 5.21708 6.43995 5.06767C6.50215 5.02941 6.56356 4.98987 6.62477 4.95005C6.62477 4.93767 6.62477 4.9253 6.62477 4.91255C6.07422 4.90992 5.52366 4.90794 4.9731 4.90672C4.71747 4.90614 4.46184 4.90535 4.20622 4.90406C3.95967 4.90282 3.71312 4.90216 3.46657 4.90187C3.37236 4.90166 3.27815 4.90126 3.18394 4.90065C3.0523 4.89984 2.92068 4.89972 2.78903 4.89978C2.74982 4.89937 2.7106 4.89897 2.67019 4.89855C2.63438 4.8987 2.59857 4.89886 2.56167 4.89902C2.53053 4.89891 2.49938 4.89881 2.4673 4.8987C2.3677 4.91593 2.33573 4.94579 2.27477 5.02505ZM12.7748 4.91255C12.897 5.01135 13.0187 5.10193 13.1518 5.18545C13.205 5.21898 13.205 5.21898 13.2592 5.2532C13.3141 5.2876 13.3141 5.2876 13.3701 5.3227C14.0593 5.75539 14.0593 5.75539 14.174 5.95317C14.1916 5.98237 14.2093 6.01157 14.2275 6.04165C14.3758 6.3815 14.3655 6.74499 14.3732 7.10864C14.3746 7.16492 14.3761 7.22119 14.3776 7.27746C14.3812 7.41415 14.3843 7.55084 14.3873 7.68755C14.785 7.69102 15.1826 7.69369 15.5803 7.69532C15.765 7.6961 15.9497 7.69716 16.1343 7.69886C16.3126 7.70049 16.4908 7.70139 16.669 7.70178C16.737 7.70205 16.805 7.7026 16.873 7.70341C16.9682 7.7045 17.0634 7.70465 17.1587 7.70458C17.1868 7.70511 17.2149 7.70565 17.2438 7.70621C17.3787 7.70514 17.4581 7.69004 17.575 7.62064C17.6662 7.53801 17.6662 7.53801 17.6494 7.39097C17.6383 7.3271 17.6258 7.26346 17.6123 7.20005C17.6049 7.16268 17.5976 7.12531 17.59 7.08681C17.5634 6.95594 17.5349 6.82561 17.5059 6.69526C17.4902 6.62396 17.4902 6.62396 17.4741 6.55123C17.452 6.45129 17.4297 6.35139 17.4073 6.25151C17.3787 6.12361 17.3507 5.9956 17.3228 5.86755C17.2959 5.74494 17.2685 5.62245 17.2411 5.49995C17.2261 5.43104 17.2261 5.43104 17.2109 5.36075C17.2013 5.3183 17.1916 5.27585 17.1817 5.23212C17.1734 5.19475 17.1651 5.15738 17.1566 5.11888C17.1218 5.01627 17.0965 4.9788 17.0123 4.91255C16.9303 4.89598 16.9303 4.89598 16.8379 4.89902C16.8021 4.89886 16.7663 4.89871 16.7294 4.89855C16.6705 4.89916 16.6705 4.89916 16.6105 4.89978C16.5485 4.89975 16.5485 4.89975 16.4852 4.89972C16.3482 4.8998 16.2113 4.90068 16.0743 4.90156C15.9795 4.90177 15.8846 4.90193 15.7898 4.90204C15.5655 4.90243 15.3412 4.90332 15.1169 4.90444C14.8615 4.9057 14.6061 4.90632 14.3507 4.90689C13.8254 4.90806 13.3001 4.91004 12.7748 4.91255ZM14.3873 8.28755C14.3873 9.07955 14.3873 9.87155 14.3873 10.6875C15.2411 10.6875 16.095 10.6875 16.9748 10.6875C16.9748 9.89555 16.9748 9.10355 16.9748 8.28755C16.1209 8.28755 15.267 8.28755 14.3873 8.28755ZM7.56227 8.47505C7.56227 9.20517 7.56227 9.9353 7.56227 10.6875C8.16865 10.6875 8.77502 10.6875 9.39977 10.6875C9.39977 9.95742 9.39977 9.2273 9.39977 8.47505C8.7934 8.47505 8.18702 8.47505 7.56227 8.47505ZM9.99977 8.47505C9.99977 9.20517 9.99977 9.9353 9.99977 10.6875C10.6061 10.6875 11.2125 10.6875 11.8373 10.6875C11.8373 9.95742 11.8373 9.2273 11.8373 8.47505C11.2309 8.47505 10.6245 8.47505 9.99977 8.47505ZM0.737274 11.475C0.653063 11.6756 0.65153 11.8694 0.652569 12.0833C0.652438 12.117 0.652306 12.1506 0.652171 12.1852C0.651842 12.2958 0.652059 12.4063 0.652313 12.5168C0.652262 12.594 0.652189 12.6712 0.652095 12.7484C0.651985 12.9099 0.652145 13.0714 0.652496 13.233C0.652923 13.4396 0.652677 13.6463 0.652228 13.8529C0.651957 14.0123 0.652044 14.1716 0.652238 14.3309C0.652288 14.4071 0.652226 14.4833 0.652051 14.5594C0.65186 14.6661 0.652153 14.7727 0.652569 14.8793C0.652417 14.9105 0.652266 14.9418 0.652109 14.974C0.653558 15.1748 0.658568 15.3898 0.789862 15.5529C0.984616 15.6966 1.12181 15.718 1.35739 15.7175C1.38657 15.7176 1.41576 15.7176 1.44583 15.7177C1.54444 15.7179 1.64305 15.7179 1.74167 15.7178C1.81275 15.7179 1.88384 15.718 1.95493 15.7182C2.15092 15.7185 2.34691 15.7185 2.5429 15.7185C2.75402 15.7186 2.96515 15.7189 3.17627 15.7192C3.6382 15.7197 4.10012 15.7199 4.56205 15.7201C4.85031 15.7202 5.13857 15.7203 5.42683 15.7205C6.22446 15.7209 7.02209 15.7213 7.81972 15.7215C7.87131 15.7215 7.9229 15.7215 7.97449 15.7215C8.0262 15.7215 8.07792 15.7215 8.12964 15.7215C8.23339 15.7215 8.33714 15.7215 8.4409 15.7216C8.47948 15.7216 8.47948 15.7216 8.51885 15.7216C9.35318 15.7217 10.1875 15.7223 11.0218 15.7232C11.9037 15.7241 12.7855 15.7246 13.6674 15.7247C14.1482 15.7247 14.629 15.7249 15.1098 15.7256C15.5191 15.7262 15.9285 15.7264 16.3379 15.726C16.5468 15.7259 16.7558 15.7259 16.9647 15.7265C17.1559 15.7269 17.3471 15.7269 17.5383 15.7264C17.6075 15.7264 17.6768 15.7265 17.7461 15.7268C17.8401 15.7272 17.934 15.7269 18.028 15.7265C18.0551 15.7268 18.0821 15.7271 18.11 15.7274C18.2839 15.7255 18.4017 15.6909 18.5498 15.6C18.7571 15.3871 18.7429 15.1682 18.7427 14.8878C18.7428 14.8542 18.743 14.8205 18.7431 14.7859C18.7435 14.675 18.7435 14.564 18.7436 14.4531C18.7437 14.3758 18.7438 14.2985 18.7439 14.2212C18.7442 14.0592 18.7442 13.8973 18.7442 13.7353C18.7442 13.528 18.7447 13.3208 18.7454 13.1135C18.7458 12.9539 18.7459 12.7943 18.7458 12.6346C18.7459 12.5582 18.7461 12.4818 18.7463 12.4054C18.7467 12.2985 18.7466 12.1915 18.7464 12.0845C18.7466 12.0531 18.7468 12.0218 18.747 11.9894C18.746 11.804 18.7272 11.6496 18.6623 11.475C18.4818 11.3036 18.3595 11.282 18.1188 11.2824C18.0894 11.2823 18.0599 11.2822 18.0296 11.2821C17.9298 11.2818 17.83 11.2818 17.7303 11.2818C17.6584 11.2816 17.5866 11.2815 17.5148 11.2813C17.3166 11.2808 17.1184 11.2806 16.9201 11.2804C16.7067 11.2802 16.4932 11.2798 16.2798 11.2794C15.7639 11.2785 15.248 11.2779 14.7322 11.2774C14.5865 11.2773 14.4409 11.2771 14.2953 11.277C13.3917 11.276 12.4881 11.2752 11.5846 11.2748C11.3752 11.2746 11.1658 11.2745 10.9564 11.2744C10.9304 11.2744 10.9043 11.2744 10.8775 11.2744C10.0339 11.2739 9.19018 11.2728 8.34651 11.2712C7.45489 11.2695 6.56327 11.2686 5.67166 11.2684C5.18548 11.2683 4.6993 11.2678 4.21312 11.2666C3.79917 11.2655 3.38522 11.2651 2.97126 11.2655C2.75994 11.2657 2.54864 11.2656 2.33732 11.2647C2.14398 11.2639 1.95066 11.2639 1.75732 11.2646C1.68727 11.2647 1.61721 11.2645 1.54716 11.2639C1.45211 11.2632 1.35713 11.2636 1.26208 11.2644C1.23471 11.2639 1.20735 11.2634 1.17916 11.2629C0.966922 11.2665 0.879782 11.3282 0.737274 11.475ZM1.63727 16.8C1.52423 16.9786 1.48532 17.1118 1.44977 17.325C6.89477 17.325 12.3398 17.325 17.9498 17.325C17.8604 16.9229 17.7191 16.7 17.3873 16.4625C17.0962 16.2775 16.7867 16.2912 16.4541 16.293C16.3935 16.2928 16.3329 16.2925 16.2723 16.2921C16.1064 16.2914 15.9404 16.2915 15.7744 16.2918C15.5952 16.292 15.416 16.2913 15.2367 16.2908C14.8858 16.2898 14.5349 16.2897 14.184 16.2899C13.8988 16.29 13.6135 16.2899 13.3282 16.2896C13.2876 16.2895 13.247 16.2895 13.2051 16.2894C13.1226 16.2893 13.04 16.2892 12.9575 16.2891C12.1838 16.2883 11.41 16.2885 10.6362 16.2889C9.92871 16.2893 9.2212 16.2885 8.51368 16.2871C7.78684 16.2856 7.06001 16.285 6.33317 16.2853C5.92525 16.2854 5.51734 16.2852 5.10942 16.2842C4.76213 16.2833 4.41485 16.2832 4.06757 16.2841C3.89047 16.2845 3.71339 16.2846 3.53629 16.2837C3.37396 16.2829 3.21167 16.2831 3.04935 16.2842C2.99083 16.2844 2.93231 16.2842 2.87379 16.2836C2.38412 16.2789 1.94529 16.3914 1.63727 16.8Z" fill="black"/>
<path d="M14.9906 12.4244C15.2408 12.6157 15.4236 12.9291 15.475 13.2375C15.5098 13.6812 15.445 14.0193 15.1636 14.3694C14.8919 14.6605 14.5856 14.7864 14.1925 14.8125C13.8392 14.8125 13.5064 14.6947 13.2416 14.4573C12.9825 14.1828 12.8519 13.8556 12.8359 13.4789C12.8523 13.08 13.0223 12.7503 13.307 12.4781C13.8092 12.0599 14.4521 12.0839 14.9906 12.4244ZM13.607 13.0453C13.468 13.2439 13.4303 13.4011 13.4651 13.6384C13.5173 13.8403 13.6221 14.0037 13.7992 14.1164C13.9972 14.2124 14.1815 14.2405 14.3922 14.1703C14.5899 14.0841 14.7228 13.9812 14.8328 13.7906C14.8969 13.5771 14.9075 13.4014 14.8305 13.1906C14.7043 12.9992 14.5676 12.8655 14.35 12.7875C14.0374 12.7451 13.8222 12.8077 13.607 13.0453Z" fill="black"/>
<path d="M11.7678 12.3844C12.0405 12.5676 12.2427 12.8441 12.325 13.1625C12.3653 13.6366 12.3329 13.9987 12.018 14.3742C11.7642 14.6385 11.4921 14.7816 11.125 14.8125C10.7322 14.817 10.3937 14.7088 10.1058 14.4372C9.79497 14.097 9.71483 13.7718 9.72611 13.3201C9.74593 12.9516 9.92046 12.6962 10.1875 12.45C10.6555 12.0846 11.2677 12.0923 11.7678 12.3844ZM10.4125 13.111C10.3084 13.2967 10.3092 13.4802 10.3375 13.6875C10.4027 13.8907 10.5322 14.0275 10.7125 14.1375C10.9304 14.2228 11.1272 14.2334 11.3458 14.1472C11.5229 14.0418 11.66 13.8826 11.725 13.6875C11.7527 13.4425 11.747 13.2426 11.5976 13.0398C11.4322 12.8615 11.2765 12.777 11.0313 12.7641C10.7566 12.7785 10.5745 12.8911 10.4125 13.111Z" fill="black"/>
<path d="M7.41238 12.1639C7.4495 12.1652 7.4495 12.1652 7.48738 12.1664C7.51213 12.1664 7.53688 12.1663 7.56238 12.1663C7.68168 12.2001 7.71792 12.2326 7.78738 12.3375C7.80593 12.4786 7.80143 12.6175 7.79675 12.7594C7.79607 12.7981 7.7954 12.8367 7.7947 12.8766C7.79293 12.9719 7.79024 13.0672 7.78738 13.1625C8.04725 13.1625 8.30713 13.1625 8.57488 13.1625C8.57045 12.9382 8.57045 12.9382 8.56474 12.7138C8.56285 12.5228 8.57884 12.3895 8.68738 12.225C8.80332 12.1671 8.89716 12.1765 9.02488 12.1875C9.13107 12.2668 9.17023 12.3114 9.19367 12.4431C9.19368 12.4837 9.19368 12.5243 9.19369 12.5662C9.19404 12.6124 9.19439 12.6585 9.19476 12.7061C9.19436 12.7563 9.19394 12.8066 9.19348 12.8568C9.19348 12.9085 9.19354 12.9601 9.19364 13.0117C9.1937 13.1198 9.19323 13.2279 9.19237 13.336C9.19131 13.4746 9.19141 13.6131 9.19189 13.7516C9.19215 13.8582 9.19186 13.9648 9.19139 14.0714C9.19122 14.1225 9.19121 14.1735 9.19135 14.2246C9.19146 14.296 9.19076 14.3674 9.19003 14.4387C9.18982 14.4793 9.18962 14.5199 9.18941 14.5617C9.17488 14.6625 9.17488 14.6625 9.12442 14.7307C9.02929 14.7987 8.9533 14.8079 8.83738 14.8125C8.72546 14.7667 8.66789 14.7314 8.60739 14.626C8.55959 14.4592 8.56704 14.2983 8.57019 14.1258C8.57173 14.0059 8.57328 13.886 8.57488 13.7625C8.315 13.7625 8.05513 13.7625 7.78738 13.7625C7.78912 13.823 7.79086 13.8836 7.79265 13.9459C7.79406 14.0254 7.79542 14.1049 7.79675 14.1844C7.79864 14.2442 7.79864 14.2442 7.80056 14.3052C7.80104 14.3437 7.80153 14.3821 7.80202 14.4217C7.80281 14.4571 7.80359 14.4924 7.8044 14.5288C7.7823 14.6537 7.7347 14.6965 7.63738 14.775C7.52431 14.8156 7.46566 14.8166 7.34909 14.7867C7.24582 14.7281 7.2293 14.6969 7.18738 14.5875C7.17735 14.4868 7.17735 14.4868 7.17648 14.3704C7.176 14.3267 7.17552 14.283 7.17503 14.238C7.17495 14.191 7.17486 14.1439 7.17478 14.0955C7.17453 14.047 7.17428 13.9986 7.17402 13.9487C7.17357 13.8462 7.17343 13.7437 7.17348 13.6412C7.17349 13.5102 7.17246 13.3791 7.17117 13.2481C7.17013 13.1227 7.17018 12.9974 7.17009 12.872C7.16955 12.8251 7.16901 12.7781 7.16846 12.7298C7.16869 12.686 7.16892 12.6422 7.16916 12.597C7.16905 12.5586 7.16894 12.5202 7.16883 12.4806C7.19467 12.3335 7.26422 12.2105 7.41238 12.1639Z" fill="black"/>
<path d="M3.64307 12.3194C3.76526 12.3913 3.86986 12.4579 3.90762 12.6C3.90558 12.7307 3.89971 12.8058 3.8291 12.9188C3.69981 12.9984 3.62541 12.9951 3.4752 12.975C3.39883 12.9395 3.32629 12.8993 3.25269 12.8584C3.12459 12.8032 3.01283 12.8152 2.8752 12.825C2.85045 12.8745 2.8257 12.924 2.8002 12.975C2.82288 12.9843 2.84555 12.9935 2.86892 13.003C2.97275 13.0456 3.07632 13.0888 3.17989 13.1321C3.2334 13.1539 3.2334 13.1539 3.28799 13.1761C3.57636 13.2972 3.80394 13.4201 3.93662 13.7161C4.00209 13.9268 3.99314 14.1324 3.9041 14.3344C3.77775 14.5523 3.61146 14.6882 3.37442 14.7727C3.02835 14.8611 2.69438 14.8013 2.3877 14.625C2.26719 14.5521 2.15794 14.4785 2.06895 14.3672C2.0345 14.2208 2.05537 14.084 2.12754 13.9524C2.25104 13.8847 2.36622 13.8827 2.5002 13.9125C2.59038 13.9645 2.67231 14.0234 2.75655 14.0845C2.87243 14.1602 2.9626 14.1776 3.1002 14.175C3.22653 14.126 3.22653 14.126 3.3252 14.0625C3.3252 14.0007 3.3252 13.9388 3.3252 13.875C3.27937 13.8602 3.27937 13.8602 3.23262 13.845C2.39965 13.5621 2.39965 13.5621 2.18614 13.1836C2.12139 12.9182 2.16108 12.7353 2.28897 12.4978C2.60263 12.0611 3.20876 12.1266 3.64307 12.3194Z" fill="black"/>
<path d="M6.43728 12.3375C6.5784 12.442 6.61843 12.4848 6.64587 12.6586C6.62478 12.7875 6.62478 12.7875 6.56618 12.8789C6.43875 12.9606 6.36169 12.9553 6.21228 12.9375C6.17128 12.919 6.13029 12.9004 6.08806 12.8813C5.8929 12.8019 5.69991 12.7808 5.49773 12.8523C5.31111 12.9508 5.20257 13.0781 5.11306 13.2657C5.06841 13.4767 5.08898 13.6737 5.18571 13.868C5.32102 14.0496 5.46502 14.1318 5.68728 14.1727C5.84748 14.1857 5.95864 14.1398 6.09978 14.0625C6.13149 14.0355 6.1632 14.0084 6.19587 13.9805C6.28728 13.9125 6.28728 13.9125 6.39978 13.8914C6.55367 13.9203 6.60751 13.9752 6.69978 14.1C6.7279 14.2055 6.7279 14.2055 6.69978 14.325C6.55325 14.5596 6.36488 14.701 6.09978 14.775C5.71352 14.8514 5.34668 14.7993 5.01228 14.5875C4.67697 14.3528 4.52334 14.0481 4.44978 13.65C4.40922 13.3156 4.50264 12.9883 4.69104 12.7105C5.11282 12.1867 5.83268 11.9755 6.43728 12.3375Z" fill="black"/>
<path d="M16.2625 12.1626C16.2996 12.1633 16.2996 12.1633 16.3375 12.1641C16.3622 12.1636 16.387 12.1631 16.4125 12.1626C16.5365 12.2038 16.5702 12.2631 16.6375 12.375C16.6584 12.5152 16.6549 12.6538 16.6521 12.7953C16.6519 12.8358 16.6517 12.8763 16.6515 12.9181C16.6506 13.0472 16.6488 13.1763 16.6468 13.3055C16.6461 13.3931 16.6454 13.4808 16.6448 13.5685C16.6431 13.7832 16.6406 13.9978 16.6375 14.2125C16.6763 14.2103 16.7152 14.2081 16.7552 14.2059C16.8066 14.2041 16.858 14.2024 16.9093 14.2008C16.9349 14.1992 16.9605 14.1976 16.9868 14.196C17.1288 14.1926 17.1873 14.2009 17.2933 14.2985C17.3703 14.4365 17.3541 14.5125 17.3125 14.6625C17.2414 14.7594 17.2042 14.7736 17.0875 14.8125C16.9579 14.8211 16.8282 14.8194 16.6984 14.8195C16.6629 14.82 16.6274 14.8204 16.5909 14.8209C16.2528 14.8216 16.2528 14.8216 16.1125 14.7375C16.0266 14.6088 16.0277 14.5602 16.0266 14.4087C16.0261 14.3642 16.0256 14.3198 16.0251 14.274C16.025 14.2019 16.025 14.2019 16.0249 14.1284C16.0246 14.0791 16.0244 14.0297 16.0241 13.9789C16.0237 13.8744 16.0235 13.77 16.0236 13.6655C16.0236 13.5319 16.0226 13.3983 16.0213 13.2647C16.0202 13.137 16.0203 13.0093 16.0202 12.8815C16.0196 12.8336 16.0191 12.7858 16.0186 12.7364C16.0189 12.6694 16.0189 12.6694 16.0193 12.601C16.0191 12.5618 16.019 12.5226 16.0189 12.4822C16.0446 12.3336 16.1139 12.2119 16.2625 12.1626Z" fill="black"/>
</g>
<defs>
<clipPath id="clip0_598_113">
<rect width="19.2" height="19.2" fill="white" transform="translate(0.100098)"/>
</clipPath>
</defs>
</svg>
