<svg width="20" height="20" viewBox="0 0 20 20" fill="none" xmlns="http://www.w3.org/2000/svg">
<ellipse cx="10.3619" cy="9.61282" rx="9.54211" ry="9.54245" fill="#1E552A"/>
<g clip-path="url(#clip0_543_1145)">
<path d="M5.81831 2.9967C5.85572 2.99664 5.89312 2.99657 5.93053 2.99649C6.03306 2.9963 6.1356 2.99626 6.23813 2.99624C6.34882 2.9962 6.45951 2.99602 6.5702 2.99587C6.81214 2.99555 7.05407 2.99541 7.29601 2.9953C7.44718 2.99524 7.59835 2.99514 7.74952 2.99503C8.16837 2.99475 8.58721 2.99451 9.00606 2.99443C9.03285 2.99442 9.05964 2.99442 9.08725 2.99441C9.1141 2.99441 9.14096 2.9944 9.16862 2.9944C9.22304 2.99439 9.27745 2.99438 9.33187 2.99436C9.35886 2.99436 9.38585 2.99435 9.41366 2.99435C9.8508 2.99426 10.2879 2.99385 10.7251 2.9933C11.1743 2.99275 11.6234 2.99245 12.0726 2.99243C12.3247 2.99241 12.5767 2.99227 12.8288 2.99184C13.0434 2.99148 13.2581 2.99136 13.4728 2.99156C13.5822 2.99165 13.6916 2.99163 13.801 2.9913C13.9014 2.991 14.0018 2.99103 14.1022 2.99131C14.1383 2.99136 14.1744 2.99129 14.2104 2.99108C14.6651 2.98865 15.0692 3.06827 15.4374 3.35156C15.4611 3.36848 15.4848 3.3854 15.5092 3.40283C15.7909 3.64705 15.9788 4.03012 16.0065 4.39963C16.009 4.49993 16.0093 4.60002 16.0089 4.70034C16.0089 4.73905 16.0091 4.77776 16.0092 4.81647C16.0095 4.92219 16.0093 5.02789 16.0091 5.13361C16.009 5.24787 16.0092 5.36214 16.0094 5.4764C16.0097 5.69999 16.0096 5.92357 16.0094 6.14715C16.0093 6.32891 16.0093 6.51067 16.0093 6.69243C16.0093 6.71833 16.0094 6.74423 16.0094 6.77092C16.0094 6.82354 16.0094 6.87616 16.0094 6.92878C16.0096 7.42184 16.0094 7.91489 16.009 8.40795C16.0087 8.83073 16.0088 9.25351 16.0091 9.6763C16.0095 10.1676 16.0096 10.659 16.0094 11.1503C16.0094 11.2027 16.0094 11.2551 16.0093 11.3076C16.0093 11.3333 16.0093 11.3591 16.0093 11.3857C16.0092 11.5672 16.0093 11.7487 16.0095 11.9301C16.0097 12.1514 16.0097 12.3726 16.0093 12.5939C16.0091 12.7067 16.009 12.8195 16.0093 12.9324C16.0095 13.0358 16.0094 13.1391 16.009 13.2425C16.0089 13.2798 16.0089 13.3171 16.0091 13.3544C16.0112 13.8378 15.8759 14.2303 15.5312 14.5781C15.1297 14.9266 14.6946 15.0036 14.1815 15.0033C14.1441 15.0033 14.1067 15.0034 14.0693 15.0035C13.9668 15.0037 13.8643 15.0037 13.7617 15.0037C13.651 15.0038 13.5403 15.004 13.4297 15.0041C13.1877 15.0044 12.9458 15.0046 12.7038 15.0047C12.5527 15.0048 12.4015 15.0049 12.2503 15.005C11.8315 15.0052 11.4126 15.0055 10.9938 15.0056C10.967 15.0056 10.9402 15.0056 10.9126 15.0056C10.8858 15.0056 10.8589 15.0056 10.8312 15.0056C10.7768 15.0056 10.7224 15.0056 10.668 15.0056C10.641 15.0056 10.614 15.0056 10.5862 15.0056C10.1491 15.0057 9.71193 15.0061 9.27479 15.0067C8.82561 15.0072 8.37642 15.0075 7.92723 15.0076C7.67519 15.0076 7.42314 15.0077 7.1711 15.0081C6.95643 15.0085 6.74177 15.0086 6.5271 15.0084C6.41769 15.0083 6.30828 15.0084 6.19887 15.0087C6.09847 15.009 5.99807 15.009 5.89767 15.0087C5.86159 15.0086 5.8255 15.0087 5.78941 15.0089C5.33472 15.0113 4.93064 14.9317 4.56243 14.6484C4.5269 14.6231 4.5269 14.6231 4.49065 14.5972C4.20892 14.3529 4.0211 13.9699 3.9934 13.6004C3.9909 13.5001 3.99054 13.4 3.991 13.2997C3.99092 13.2609 3.99081 13.2222 3.99067 13.1835C3.99038 13.0778 3.99052 12.9721 3.99074 12.8664C3.9909 12.7521 3.99065 12.6379 3.99046 12.5236C3.99015 12.3 3.99021 12.0764 3.99042 11.8528C3.99058 11.6711 3.9906 11.4893 3.99052 11.3076C3.99051 11.2817 3.9905 11.2558 3.99049 11.2291C3.99047 11.1765 3.99044 11.1238 3.99042 11.0712C3.99022 10.5782 3.99045 10.0851 3.99083 9.59204C3.99114 9.16926 3.99109 8.74648 3.99076 8.3237C3.99039 7.83236 3.99024 7.34103 3.99045 6.8497C3.99048 6.79728 3.9905 6.74486 3.99052 6.69243C3.99053 6.66664 3.99054 6.64085 3.99055 6.61428C3.99061 6.4328 3.99051 6.25132 3.99035 6.06985C3.99015 5.84859 3.9902 5.62734 3.99058 5.40609C3.99076 5.29327 3.99084 5.18045 3.9906 5.06763C3.99039 4.96423 3.99051 4.86084 3.99088 4.75744C3.99096 4.72016 3.99092 4.68288 3.99075 4.6456C3.9887 4.16223 4.12392 3.76966 4.46868 3.42187C4.87016 3.07337 5.30524 2.99637 5.81831 2.9967ZM4.73894 3.91003C4.60825 4.0954 4.53323 4.29483 4.53296 4.52269C4.53288 4.53835 4.5328 4.55402 4.53271 4.57015C4.5325 4.62245 4.53261 4.67475 4.53272 4.72705C4.53264 4.765 4.53253 4.80295 4.5324 4.8409C4.53212 4.94505 4.53212 5.0492 4.53218 5.15335C4.53219 5.26574 4.53193 5.37812 4.53171 5.4905C4.53132 5.71063 4.53119 5.93076 4.53116 6.15088C4.53114 6.32983 4.53104 6.50878 4.53089 6.68773C4.53048 7.19517 4.53027 7.7026 4.5303 8.21004C4.5303 8.23739 4.5303 8.26474 4.53031 8.29292C4.53031 8.32031 4.53031 8.34769 4.53031 8.37591C4.53033 8.81972 4.52988 9.26353 4.52922 9.70733C4.52855 10.1631 4.52822 10.6189 4.52827 11.0747C4.52828 11.3305 4.52815 11.5864 4.52765 11.8422C4.52722 12.0601 4.52712 12.2779 4.52744 12.4958C4.52759 12.6069 4.52759 12.718 4.52719 12.8291C4.52682 12.9309 4.52688 13.0327 4.52729 13.1345C4.52737 13.1712 4.52728 13.208 4.52702 13.2447C4.52505 13.5413 4.57769 13.7716 4.74993 14.0156C4.76298 14.0354 4.77603 14.0553 4.78948 14.0757C5.00041 14.298 5.2744 14.4054 5.57764 14.417C5.60474 14.4171 5.63184 14.4171 5.65976 14.4171C5.67504 14.4172 5.69033 14.4172 5.70608 14.4173C5.7571 14.4174 5.80811 14.4174 5.85913 14.4173C5.89616 14.4174 5.93319 14.4175 5.97022 14.4176C6.07183 14.4177 6.17344 14.4178 6.27505 14.4178C6.3847 14.4179 6.49435 14.418 6.604 14.4182C6.84371 14.4185 7.08341 14.4186 7.32312 14.4187C7.47287 14.4188 7.62261 14.4189 7.77236 14.419C8.18716 14.4193 8.60196 14.4195 9.01677 14.4196C9.0433 14.4196 9.06984 14.4196 9.09719 14.4196C9.13709 14.4196 9.13709 14.4196 9.17779 14.4197C9.2317 14.4197 9.2856 14.4197 9.3395 14.4197C9.36623 14.4197 9.39297 14.4197 9.42052 14.4197C9.85359 14.4198 10.2867 14.4202 10.7197 14.4208C11.1646 14.4213 11.6095 14.4216 12.0544 14.4216C12.3041 14.4216 12.5538 14.4218 12.8035 14.4222C13.0161 14.4226 13.2288 14.4227 13.4414 14.4225C13.5498 14.4224 13.6582 14.4224 13.7666 14.4228C13.8661 14.4231 13.9655 14.423 14.0649 14.4227C14.1007 14.4227 14.1365 14.4228 14.1723 14.423C14.4979 14.4247 14.7919 14.3971 15.0624 14.2031C15.0837 14.1886 15.105 14.1741 15.1269 14.1592C15.3116 13.9847 15.4476 13.7472 15.4668 13.4912C15.4668 13.4634 15.4669 13.4357 15.4669 13.4071C15.467 13.3914 15.4671 13.3757 15.4671 13.3596C15.4674 13.3073 15.4672 13.2551 15.4671 13.2028C15.4672 13.1649 15.4673 13.1269 15.4675 13.089C15.4677 12.9849 15.4677 12.8808 15.4677 12.7767C15.4677 12.6643 15.4679 12.552 15.4682 12.4397C15.4685 12.2196 15.4687 11.9996 15.4687 11.7795C15.4687 11.6006 15.4688 11.4218 15.469 11.2429C15.4694 10.7355 15.4696 10.2282 15.4696 9.72091C15.4696 9.69356 15.4696 9.66622 15.4696 9.63804C15.4696 9.59697 15.4696 9.59697 15.4695 9.55507C15.4695 9.11143 15.47 8.66779 15.4706 8.22415C15.4713 7.7685 15.4716 7.31286 15.4716 6.85721C15.4716 6.60144 15.4717 6.34568 15.4722 6.08992C15.4726 5.87214 15.4727 5.65436 15.4724 5.43657C15.4723 5.32551 15.4723 5.21445 15.4727 5.10339C15.473 5.00159 15.473 4.8998 15.4726 4.798C15.4725 4.7613 15.4726 4.7246 15.4728 4.6879C15.4752 4.33585 15.4046 4.05825 15.159 3.79687C14.9642 3.61428 14.7211 3.50991 14.4535 3.50959C14.4378 3.50951 14.4221 3.50943 14.4059 3.50934C14.3535 3.50912 14.3011 3.50924 14.2487 3.50935C14.2107 3.50926 14.1726 3.50916 14.1346 3.50903C14.0302 3.50874 13.9259 3.50875 13.8215 3.50881C13.7089 3.50881 13.5963 3.50856 13.4836 3.50833C13.263 3.50794 13.0424 3.50782 12.8218 3.50779C12.6425 3.50777 12.4631 3.50767 12.2838 3.50752C11.7751 3.50711 11.2665 3.50689 10.7579 3.50693C10.7305 3.50693 10.7031 3.50693 10.6748 3.50693C10.6337 3.50694 10.6337 3.50694 10.5917 3.50694C10.1469 3.50696 9.7021 3.50651 9.25733 3.50585C8.80051 3.50518 8.3437 3.50485 7.88688 3.50489C7.63047 3.50491 7.37405 3.50478 7.11763 3.50428C6.89929 3.50385 6.68095 3.50375 6.46261 3.50406C6.35127 3.50422 6.23992 3.50422 6.12857 3.50381C6.02652 3.50344 5.92447 3.50351 5.82241 3.50392C5.78561 3.50399 5.74881 3.50391 5.71202 3.50365C5.31918 3.50104 4.99566 3.59761 4.73894 3.91003Z" fill="#F5F5F5"/>
</g>
<defs>
<clipPath id="clip0_543_1145">
<rect width="12" height="12" fill="white" transform="translate(4 3)"/>
</clipPath>
</defs>
</svg>
