<svg width="20" height="20" viewBox="0 0 20 20" fill="none" xmlns="http://www.w3.org/2000/svg">
<g clip-path="url(#clip0_598_102)">
<path d="M9.60005 -0.0234059C9.72131 -0.0152619 9.74661 -0.00289227 9.8438 0.0797191C9.90737 0.201555 9.91266 0.277042 9.90005 0.412532C9.9421 0.417189 9.98415 0.421847 10.0275 0.426646C10.2078 0.449283 10.3839 0.485747 10.5615 0.524198C10.5963 0.531644 10.6312 0.539089 10.6671 0.54676C10.7816 0.571263 10.8961 0.595961 11.0106 0.620686C11.0907 0.637932 11.1708 0.655175 11.251 0.672415C11.4187 0.708541 11.5864 0.744777 11.7541 0.781077C11.9682 0.827384 12.1823 0.873302 12.3964 0.919123C12.5619 0.954604 12.7274 0.990349 12.8928 1.02617C12.9717 1.0432 13.0505 1.06014 13.1295 1.07698C14.2437 1.31505 14.2437 1.31505 14.4632 1.60008C14.5882 1.8216 14.6117 2.05054 14.5547 2.29691C14.4819 2.49775 14.3586 2.63039 14.1751 2.73753C13.9405 2.82818 13.6993 2.88574 13.4539 2.93854C13.4172 2.9466 13.3804 2.95466 13.3426 2.96297C13.2222 2.98933 13.1018 3.01541 12.9814 3.04149C12.8973 3.05981 12.8132 3.07815 12.7291 3.09649C12.5535 3.13478 12.3778 3.17294 12.2021 3.211C11.9768 3.25981 11.7516 3.30894 11.5264 3.35816C11.353 3.39601 11.1797 3.43371 11.0063 3.47136C10.9232 3.48942 10.8401 3.50753 10.757 3.52568C10.6412 3.55097 10.5253 3.57605 10.4094 3.60108C10.3751 3.60862 10.3407 3.61616 10.3053 3.62393C10.2737 3.6307 10.2422 3.63748 10.2096 3.64447C10.1823 3.65041 10.1549 3.65634 10.1267 3.66246C10.0501 3.67503 10.0501 3.67503 9.90005 3.67503C9.90005 3.88541 9.90005 4.09578 9.90005 4.31253C9.94259 4.30944 9.98513 4.30634 10.029 4.30316C11.0207 4.30627 11.8669 4.91559 12.6227 5.483C12.7648 5.58898 12.9085 5.69261 13.0524 5.79613C13.0801 5.81608 13.1078 5.83603 13.1363 5.85659C13.1921 5.8968 13.2479 5.93701 13.3038 5.9772C13.4443 6.07841 13.5847 6.17986 13.7251 6.28128C13.7813 6.32191 13.8376 6.36253 13.8938 6.40316C14.2313 6.64691 14.5688 6.89066 14.9063 7.13441C14.9481 7.16457 14.9481 7.16457 14.9907 7.19533C15.047 7.23599 15.1032 7.27664 15.1595 7.3173C15.2996 7.4185 15.4397 7.51963 15.58 7.62059C15.8723 7.83112 16.1635 8.04299 16.4532 8.25706C16.6975 8.43757 16.9432 8.61583 17.1907 8.79188C17.433 8.96419 17.6741 9.13801 17.9145 9.3129C17.9716 9.3544 18.0289 9.39577 18.0862 9.43701C18.1687 9.49645 18.2508 9.55638 18.3329 9.61644C18.3576 9.63412 18.3824 9.65181 18.4078 9.67003C18.5815 9.79827 18.7154 9.92906 18.7769 10.1435C18.8006 10.397 18.7856 10.5913 18.6191 10.7927C18.1194 11.2752 17.422 11.4032 16.7549 11.405C16.6537 11.4002 16.5612 11.3852 16.4626 11.3625C16.4683 11.3982 16.474 11.4339 16.4799 11.4707C16.5046 11.6447 16.5137 11.8189 16.5231 11.9943C16.5272 12.0681 16.5315 12.1419 16.5357 12.2157C16.5379 12.2543 16.5401 12.2928 16.5423 12.3326C16.686 15.3893 16.686 15.3893 17.6396 18.2583C17.8394 18.6439 17.8394 18.6439 17.7704 18.8968C17.7106 19.0394 17.6118 19.1317 17.4751 19.2C17.3903 19.2038 17.3054 19.2049 17.2205 19.2051C17.1806 19.2052 17.1806 19.2052 17.1398 19.2053C17.0498 19.2056 16.9597 19.2056 16.8696 19.2055C16.8047 19.2057 16.7399 19.2058 16.675 19.206C16.496 19.2063 16.3171 19.2065 16.1381 19.2066C15.9453 19.2067 15.7526 19.2071 15.5599 19.2074C15.094 19.2082 14.6282 19.2085 14.1624 19.2089C13.9432 19.209 13.724 19.2092 13.5048 19.2094C12.7765 19.2101 12.0482 19.2106 11.3199 19.2109C11.1308 19.211 10.9417 19.211 10.7526 19.2111C10.6821 19.2111 10.6821 19.2111 10.6102 19.2112C9.84844 19.2115 9.08668 19.2124 8.32492 19.2136C7.54343 19.2149 6.76193 19.2155 5.98044 19.2157C5.54142 19.2158 5.1024 19.2161 4.66339 19.217C4.28957 19.2178 3.91577 19.2182 3.54195 19.2178C3.35114 19.2176 3.16034 19.2177 2.96953 19.2184C2.79493 19.2191 2.62034 19.219 2.44574 19.2185C2.3825 19.2184 2.31925 19.2185 2.25601 19.219C2.17016 19.2195 2.08436 19.2192 1.9985 19.2186C1.92692 19.2186 1.92692 19.2186 1.8539 19.2187C1.70128 19.1966 1.61994 19.1451 1.50005 19.05C1.41599 18.9332 1.38506 18.8095 1.39107 18.6661C1.42385 18.4836 1.49527 18.354 1.59688 18.2017C2.58709 16.5405 2.57991 13.9801 2.67584 12.0926C2.68839 11.8478 2.70159 11.6052 2.73755 11.3625C2.69789 11.3715 2.69789 11.3715 2.65743 11.3807C2.04664 11.4907 1.35497 11.3277 0.83516 10.9975C0.619457 10.8384 0.458952 10.6825 0.41724 10.4086C0.400997 10.1666 0.457227 9.99475 0.616166 9.80984C0.726103 9.69818 0.853802 9.6119 0.982084 9.52269C1.04278 9.47968 1.10348 9.43666 1.16416 9.39363C1.19507 9.37188 1.22598 9.35012 1.25782 9.3277C1.40191 9.22589 1.54469 9.1223 1.68755 9.01878C1.7438 8.97815 1.80005 8.93752 1.8563 8.89691C1.89807 8.86674 1.89807 8.86674 1.94068 8.83597C2.8688 8.16566 2.8688 8.16566 2.95317 8.10473C3.00945 8.06408 3.06573 8.02342 3.12201 7.98276C3.26209 7.88156 3.40223 7.78044 3.54248 7.67947C3.83477 7.46894 4.12597 7.25707 4.41568 7.043C4.66007 6.86242 4.90585 6.68408 5.15352 6.50804C5.30814 6.39808 5.46192 6.28696 5.61568 6.17581C5.6441 6.15527 5.67253 6.13472 5.70182 6.11355C5.7598 6.07163 5.81778 6.02971 5.87576 5.98778C5.96112 5.92607 6.0465 5.86439 6.13189 5.80272C6.15965 5.78266 6.18742 5.7626 6.21603 5.74194C6.27206 5.70148 6.32813 5.66107 6.38423 5.6207C6.52652 5.51821 6.66821 5.41502 6.80894 5.31038C7.48177 4.81217 8.2697 4.303 9.1417 4.31107C9.17153 4.31128 9.20135 4.31149 9.23207 4.31171C9.26572 4.31212 9.26572 4.31212 9.30005 4.31253C9.29991 4.29144 9.29978 4.27036 9.29963 4.24863C9.29632 3.73534 9.29385 3.22205 9.29228 2.70875C9.2915 2.46052 9.29044 2.21229 9.28874 1.96407C9.28711 1.72457 9.28621 1.48508 9.28582 1.24557C9.28554 1.15414 9.285 1.06271 9.28419 0.971289C9.28311 0.843344 9.28295 0.715429 9.28302 0.58748C9.28249 0.549582 9.28195 0.511684 9.28139 0.472638C9.28236 0.307483 9.28403 0.213843 9.37143 0.0703413C9.45579 -0.0050988 9.48849 -0.0255848 9.60005 -0.0234059ZM9.90005 1.01253C9.90005 1.69316 9.90005 2.37378 9.90005 3.07503C10.4549 2.96405 11.0093 2.85307 11.5624 2.73372C11.6091 2.72364 11.6091 2.72364 11.6568 2.71336C11.8205 2.67806 11.9841 2.64267 12.1477 2.6072C12.2818 2.57813 12.416 2.54928 12.5502 2.52059C12.7148 2.48542 12.8792 2.44992 13.0436 2.41417C13.1056 2.40075 13.1676 2.38744 13.2297 2.37426C13.3157 2.35594 13.4017 2.3372 13.4876 2.31835C13.5128 2.31309 13.538 2.30782 13.564 2.3024C13.7108 2.26964 13.8291 2.228 13.9501 2.13753C13.9686 2.08184 13.9686 2.08184 13.9876 2.02503C13.9325 1.91849 13.8923 1.88146 13.7794 1.83939C13.7202 1.82709 13.7202 1.82709 13.6597 1.81453C13.6124 1.80436 13.5651 1.79418 13.5164 1.7837C13.4625 1.77273 13.4086 1.76177 13.3547 1.75081C13.2979 1.73879 13.2411 1.7267 13.1843 1.71456C13.0489 1.68569 12.9135 1.65714 12.7781 1.6287C12.4721 1.56412 12.1666 1.49723 11.861 1.43045C11.8022 1.4176 11.7434 1.40475 11.6845 1.3919C11.5955 1.37247 11.5065 1.35303 11.4175 1.33359C11.1252 1.26976 10.8329 1.20605 10.5405 1.14258C10.4869 1.13092 10.4332 1.11925 10.3796 1.10757C10.3057 1.09148 10.2318 1.07544 10.1579 1.05941C10.1161 1.05032 10.0743 1.04123 10.0312 1.03187C9.94737 1.01127 9.94737 1.01127 9.90005 1.01253ZM9.56255 4.87503C9.55466 4.90391 9.54676 4.9328 9.53862 4.96256C9.46095 5.24662 9.38323 5.53067 9.30548 5.81472C9.26338 5.96852 9.22129 6.12232 9.17923 6.27613C8.99973 6.9324 8.81977 7.58852 8.63666 8.24379C8.61273 8.32948 8.58882 8.41518 8.56492 8.50088C8.54941 8.55647 8.5339 8.61207 8.51839 8.66767C8.51086 8.69468 8.50332 8.7217 8.49556 8.74953C8.45098 8.90926 8.40617 9.06893 8.36121 9.22855C8.34009 9.30366 8.31908 9.3788 8.29812 9.45396C8.27271 9.54505 8.24712 9.63609 8.22131 9.72707C8.21019 9.76712 8.19907 9.80717 8.18761 9.84843C8.17789 9.88306 8.16816 9.91769 8.15813 9.95337C8.13684 10.0534 8.12641 10.1358 8.13755 10.2375C8.21746 10.3058 8.28728 10.3559 8.37662 10.4086C8.40058 10.4233 8.42454 10.438 8.44923 10.4531C8.96691 10.7632 9.49338 10.8792 10.0852 10.7391C10.4553 10.6448 10.7593 10.4667 11.0626 10.2375C11.0407 9.93289 10.963 9.65108 10.8797 9.35819C10.8647 9.30444 10.8496 9.25068 10.8346 9.19692C10.8026 9.08227 10.7704 8.96766 10.738 8.85309C10.6872 8.67304 10.6367 8.4929 10.5863 8.31273C10.5778 8.28249 10.5694 8.25225 10.5607 8.22109C10.5435 8.15959 10.5262 8.09808 10.509 8.03658C10.4829 7.9433 10.4568 7.85003 10.4307 7.75676C10.2617 7.15366 10.0957 6.54975 9.93044 5.94561C9.90249 5.84341 9.87451 5.74121 9.84652 5.63901C9.7768 5.38437 9.70715 5.12971 9.63755 4.87503C9.6128 4.87503 9.58805 4.87503 9.56255 4.87503ZM8.88755 4.98753C8.92505 5.06253 8.92505 5.06253 8.92505 5.06253L8.88755 4.98753ZM10.2751 4.98753C10.3126 5.06253 10.3126 5.06253 10.3126 5.06253L10.2751 4.98753ZM8.85005 5.06253C8.6157 5.31794 8.39276 5.58036 8.17505 5.85003C7.99764 6.06845 7.81865 6.28521 7.63599 6.49925C7.49413 6.6656 7.35735 6.835 7.22349 7.00784C7.0583 7.22097 6.88434 7.42474 6.70642 7.62731C6.57199 7.78116 6.44364 7.93833 6.3188 8.10003C6.15349 8.31405 5.97954 8.51893 5.80146 8.72241C5.62542 8.9237 5.45559 9.12951 5.28755 9.33753C5.04125 9.64074 4.79064 9.93998 4.53755 10.2375C4.85506 10.5724 5.31684 10.7654 5.77505 10.8C5.79893 10.802 5.82281 10.8039 5.84742 10.8059C6.29612 10.8256 6.70434 10.6843 7.08755 10.4625C7.124 10.4461 7.16045 10.4298 7.198 10.4129C7.38294 10.3128 7.49374 10.209 7.55909 10.0097C7.57758 9.94401 7.59533 9.87814 7.61255 9.81214C7.62308 9.77408 7.6336 9.73601 7.64445 9.6968C7.66944 9.60618 7.69414 9.51547 7.71861 9.42471C7.76886 9.23852 7.82067 9.05277 7.87244 8.86701C7.99023 8.44394 8.10709 8.02063 8.22381 7.59728C8.31168 7.27858 8.39967 6.95991 8.48767 6.64124C8.51801 6.53129 8.54833 6.42133 8.57864 6.31137C8.58811 6.27704 8.59759 6.24271 8.60735 6.20734C8.62561 6.14115 8.64383 6.07495 8.662 6.00873C8.70177 5.86437 8.74228 5.7204 8.78577 5.57711C8.80695 5.50676 8.80695 5.50676 8.82857 5.43499C8.84095 5.39513 8.85333 5.35528 8.86609 5.31422C8.88759 5.21236 8.8855 5.15904 8.85005 5.06253ZM10.3126 5.06253C10.3357 5.24787 10.3724 5.42176 10.4223 5.60225C10.4296 5.62875 10.4369 5.65525 10.4444 5.68256C10.4684 5.77006 10.4927 5.85751 10.517 5.94495C10.5342 6.0071 10.5513 6.06924 10.5684 6.13139C10.6141 6.29721 10.66 6.46298 10.706 6.62873C10.7817 6.90184 10.8573 7.17501 10.9329 7.44816C10.961 7.54988 10.9892 7.6516 11.0174 7.75331C11.1239 8.1381 11.2288 8.52327 11.3316 8.90906C11.3641 9.02986 11.3966 9.15064 11.4291 9.27141C11.4487 9.34466 11.468 9.41797 11.4871 9.49134C11.5131 9.59077 11.5397 9.68996 11.5666 9.78914C11.5737 9.8172 11.5808 9.84526 11.5881 9.87417C11.6862 10.2287 12.0064 10.3997 12.3064 10.5755C12.5458 10.7047 12.8169 10.7796 13.0876 10.8C13.1114 10.802 13.1353 10.8039 13.1599 10.8059C13.7189 10.8305 14.2275 10.6112 14.6626 10.275C14.5519 10.124 14.4415 9.97803 14.3133 9.84144C14.2053 9.71693 14.1719 9.61827 14.1751 9.45003C14.2149 9.36097 14.2149 9.36097 14.2876 9.30003C14.416 9.25816 14.481 9.24719 14.6037 9.30677C14.7109 9.3827 14.7789 9.46124 14.8594 9.56487C15.3612 10.1925 15.9032 10.675 16.7251 10.8C17.2176 10.8543 17.7218 10.7059 18.1172 10.4133C18.1404 10.3924 18.1636 10.3715 18.1876 10.35C18.1382 10.236 18.0935 10.1748 17.9908 10.1054C17.9535 10.0797 17.9535 10.0797 17.9155 10.0535C17.8885 10.0354 17.8615 10.0172 17.8336 9.99847C17.7756 9.9585 17.7176 9.91846 17.6596 9.87835C17.6293 9.85744 17.5991 9.83654 17.5679 9.815C17.4137 9.7071 17.2628 9.59497 17.1118 9.48284C16.8876 9.31683 16.6625 9.15231 16.4351 8.99068C16.172 8.80369 15.9107 8.61426 15.6492 8.42512C15.5644 8.36384 15.4795 8.30267 15.3945 8.24154C15.1024 8.03116 14.8114 7.81943 14.5219 7.6055C14.2775 7.42492 14.0318 7.24658 13.7841 7.07054C13.6295 6.96058 13.4757 6.84946 13.3219 6.73831C13.2935 6.71777 13.2651 6.69722 13.2358 6.67605C13.1778 6.63413 13.1198 6.59221 13.0618 6.55028C12.9765 6.48857 12.8911 6.42689 12.8057 6.36522C12.7779 6.34513 12.7501 6.32505 12.7215 6.30436C12.6658 6.26418 12.6101 6.22401 12.5545 6.18386C12.4065 6.07713 12.2588 5.97 12.1115 5.86234C12.0807 5.83988 12.0499 5.81743 12.0181 5.79429C11.9589 5.7511 11.8997 5.7078 11.8406 5.66436C11.814 5.645 11.7874 5.62564 11.76 5.6057C11.7249 5.58001 11.7249 5.58001 11.6891 5.5538C11.6205 5.50584 11.6205 5.50584 11.5126 5.47503C11.5745 5.62193 11.674 5.73343 11.7774 5.85238C11.8151 5.89635 11.8528 5.94034 11.8905 5.98436C11.9185 6.01703 11.9185 6.01703 11.9471 6.05037C12.0198 6.13576 12.0909 6.22244 12.1618 6.30941C12.3059 6.48629 12.4504 6.66286 12.5954 6.83909C12.6179 6.86655 12.6405 6.89401 12.6638 6.92231C12.7997 7.08724 12.9371 7.25079 13.0758 7.41331C13.2555 7.62399 13.4272 7.84047 13.5972 8.05902C13.6546 8.13269 13.7132 8.20544 13.7734 8.27684C13.8376 8.36253 13.8376 8.36253 13.854 8.47738C13.8351 8.60413 13.8251 8.65624 13.7251 8.73753C13.5916 8.77264 13.5503 8.78269 13.4251 8.73753C13.2819 8.61477 13.1671 8.47237 13.0501 8.32503C13.025 8.29409 12.9999 8.26316 12.974 8.23128C12.9255 8.17092 12.8773 8.11026 12.8294 8.04935C12.7389 7.93608 12.6451 7.82583 12.5508 7.71566C12.4081 7.54855 12.2705 7.37847 12.136 7.20472C11.9708 6.99159 11.7968 6.78782 11.6189 6.58525C11.4845 6.43141 11.3561 6.27423 11.2313 6.11253C11.0282 5.84957 10.8114 5.59974 10.5919 5.35037C10.5374 5.28735 10.4845 5.22318 10.4318 5.15863C10.4048 5.12691 10.3778 5.0952 10.3501 5.06253C10.3377 5.06253 10.3253 5.06253 10.3126 5.06253ZM7.65005 5.47503C7.42828 5.62084 7.2107 5.77115 6.99615 5.92738C6.93677 5.97044 6.8774 6.01351 6.81802 6.05657C6.78805 6.07834 6.75808 6.1001 6.7272 6.12253C6.64119 6.18489 6.55503 6.24705 6.4688 6.30911C6.17691 6.51924 5.88619 6.73082 5.59693 6.94456C5.35253 7.12514 5.10676 7.30348 4.85909 7.47952C4.61723 7.65153 4.37716 7.82603 4.13668 7.99995C4.05186 8.06123 3.96696 8.1224 3.88204 8.18353C3.58993 8.3939 3.29894 8.60563 3.00943 8.81956C2.76532 8.99993 2.51982 9.17805 2.27246 9.35394C1.84846 9.65552 1.42706 9.9605 1.01255 10.275C1.09116 10.4709 1.24414 10.5231 1.42505 10.6125C1.46682 10.6334 1.50858 10.6543 1.55162 10.6758C2.09983 10.8743 2.67327 10.8354 3.20044 10.5922C3.78747 10.2616 4.19545 9.78077 4.61255 9.26253C4.78993 9.04408 4.96896 8.82735 5.15162 8.61331C5.29347 8.44696 5.43025 8.27756 5.56412 8.10472C5.73115 7.88933 5.90665 7.68276 6.08613 7.47767C6.26218 7.27638 6.43201 7.07056 6.60005 6.86253C6.79615 6.62113 6.99452 6.38195 7.19591 6.14497C7.36238 5.94875 7.52539 5.74983 7.68755 5.55003C7.67518 5.52528 7.6628 5.50053 7.65005 5.47503ZM15.0751 10.6875C15.046 10.7093 15.0169 10.731 14.9869 10.7534C14.946 10.7831 14.9051 10.8127 14.8641 10.8422C14.8054 10.8853 14.8054 10.8853 14.7455 10.9292C14.61 11.019 14.4646 11.081 14.3152 11.1435C14.2909 11.1538 14.2665 11.1641 14.2415 11.1747C14.1819 11.1999 14.1222 11.225 14.0626 11.25C14.2644 15.0229 14.2644 15.0229 15.2251 18.6375C15.8562 18.6375 16.4873 18.6375 17.1376 18.6375C17.0509 18.4519 16.9643 18.2663 16.8751 18.075C16.8279 17.9559 16.7835 17.8401 16.7438 17.7188C16.7279 17.6703 16.7279 17.6703 16.7117 17.6207C16.4317 16.7329 16.2806 15.809 16.1626 14.8875C16.1576 14.8487 16.1576 14.8487 16.1525 14.8091C16.1284 14.6198 16.1063 14.4303 16.0852 14.2407C16.082 14.2127 16.0789 14.1848 16.0756 14.156C16.031 13.7554 16.0066 13.3558 15.9926 12.953C15.9868 12.797 15.9797 12.641 15.9727 12.485C15.9671 12.3555 15.9626 12.2262 15.9605 12.0967C15.9774 11.5731 15.9774 11.5731 15.8064 11.0987C15.6761 10.9828 15.5338 10.919 15.3697 10.8642C15.2591 10.8218 15.1709 10.7566 15.0751 10.6875ZM3.79693 10.9036C3.67505 10.9875 3.67505 10.9875 3.59145 11.0203C3.49106 11.062 3.41844 11.1019 3.33755 11.175C3.28193 11.329 3.28093 11.4811 3.27705 11.6436C3.2734 11.7136 3.2734 11.7136 3.26967 11.785C3.2646 11.8852 3.26011 11.9851 3.25659 12.0853C3.25104 12.2425 3.24317 12.3994 3.23478 12.5565C3.23199 12.609 3.2292 12.6615 3.22642 12.714C3.22504 12.7399 3.22367 12.7657 3.22225 12.7924C3.21817 12.8707 3.2143 12.949 3.21048 13.0272C3.19077 13.4292 3.16126 13.829 3.11724 14.2289C3.1127 14.2704 3.1127 14.2704 3.10807 14.3127C2.94197 15.8017 2.70026 17.271 2.06255 18.6375C2.69368 18.6375 3.3248 18.6375 3.97505 18.6375C4.16077 18.1162 4.16077 18.1162 4.322 17.5888C4.36278 17.4509 4.37587 17.4078 4.50005 17.325C4.65286 17.3123 4.70743 17.3133 4.83755 17.4C4.87505 17.7 4.87505 17.7 4.61255 18.6375C5.30555 18.6375 5.99855 18.6375 6.71255 18.6375C6.90613 18.0639 6.90613 18.0639 7.0524 17.4821C7.06155 17.4387 7.0707 17.3954 7.08013 17.3508C7.22009 16.6594 7.29766 15.9566 7.38272 15.2568C7.38759 15.2175 7.39247 15.1782 7.39749 15.1378C7.40608 15.068 7.41436 14.9982 7.42222 14.9283C7.44456 14.7451 7.48366 14.581 7.54859 14.408C7.62631 14.1643 7.62644 13.9074 7.63951 13.654C7.64303 13.5882 7.64303 13.5882 7.64662 13.5211C7.65416 13.379 7.6615 13.2368 7.6688 13.0946C7.67131 13.0465 7.67382 12.9985 7.67641 12.9489C7.71503 12.2078 7.74712 11.467 7.76255 10.725C7.643 10.7833 7.53557 10.8501 7.42505 10.9242C6.96816 11.2153 6.48964 11.3458 5.95316 11.3826C5.8821 11.3876 5.8821 11.3876 5.80961 11.3926C5.77346 11.395 5.7373 11.3975 5.70005 11.4C5.69645 11.4408 5.69645 11.4408 5.69277 11.4825C5.46533 14.0527 5.46533 14.0527 5.29817 15.2601C5.28745 15.3383 5.27705 15.4165 5.26675 15.4948C5.24773 15.6393 5.22791 15.7838 5.20787 15.9282C5.19963 15.9902 5.19963 15.9902 5.19122 16.0535C5.18579 16.0908 5.18036 16.1282 5.17476 16.1666C5.16801 16.2148 5.16801 16.2148 5.16112 16.2639C5.13363 16.3644 5.09471 16.423 5.02505 16.5C4.86884 16.5591 4.76425 16.5225 4.61255 16.4625C4.59731 16.1203 4.64877 15.7924 4.698 15.4549C4.90055 14.059 5.037 12.6567 5.13755 11.25C5.09704 11.233 5.05653 11.216 5.01479 11.1985C4.96073 11.1754 4.90668 11.1523 4.85264 11.1292C4.82605 11.1181 4.79945 11.1069 4.77205 11.0955C4.55722 11.0031 4.38208 10.8886 4.19786 10.7439C4.04575 10.6261 3.92907 10.8039 3.79693 10.9036ZM11.4376 10.725C11.4844 12.0707 11.4844 12.0707 11.5435 13.4159C11.5463 13.4728 11.5489 13.5296 11.5513 13.5864C11.5638 13.8776 11.5914 14.1516 11.6692 14.4334C11.7782 14.8455 11.8313 15.2679 11.8765 15.6909C11.9529 16.398 12.0621 17.0915 12.2251 17.7844C12.2339 17.8224 12.2428 17.8603 12.252 17.8994C12.2609 17.9359 12.2698 17.9724 12.279 18.01C12.2866 18.0416 12.2943 18.0732 12.3022 18.1058C12.3555 18.2858 12.4234 18.4611 12.4876 18.6375C13.1806 18.6375 13.8736 18.6375 14.5876 18.6375C14.5152 18.3718 14.5152 18.3718 14.4424 18.1062C13.8481 15.9267 13.692 13.6426 13.5001 11.4C13.4788 11.3981 13.4575 11.3961 13.4356 11.3941C13.3379 11.3851 13.2402 11.3758 13.1425 11.3665C13.109 11.3634 13.0756 11.3604 13.0412 11.3573C12.4675 11.3019 11.9477 11.1132 11.5126 10.725C11.4878 10.725 11.4631 10.725 11.4376 10.725ZM8.32505 11.1C8.31415 11.3166 8.30348 11.5332 8.29301 11.7498C8.28943 11.8232 8.2858 11.8965 8.2821 11.9698C8.25764 12.4554 8.24496 12.9389 8.25005 13.425C8.27983 13.4107 8.27983 13.4107 8.31021 13.3961C8.36495 13.3698 8.41969 13.3435 8.47443 13.3172C8.53167 13.2897 8.58886 13.262 8.64601 13.2343C9.20359 12.9693 9.79332 12.9542 10.3758 13.1555C10.5737 13.2326 10.7621 13.3265 10.9501 13.425C10.9552 12.8956 10.9401 12.3694 10.9126 11.8407C10.9089 11.7682 10.9053 11.6957 10.9017 11.6233C10.893 11.4488 10.8841 11.2744 10.8751 11.1C10.7416 11.1253 10.6238 11.1598 10.4977 11.2102C9.84855 11.4495 9.14077 11.4149 8.5108 11.1289C8.43323 11.0932 8.43323 11.0932 8.32505 11.1ZM8.40284 14.0914C8.01923 14.5039 7.9685 15.0134 7.90968 15.5483C7.80411 16.5011 7.65945 17.4364 7.40949 18.3634C7.38654 18.454 7.36839 18.5458 7.35005 18.6375C8.83505 18.6375 10.3201 18.6375 11.8501 18.6375C11.8006 18.4395 11.7511 18.2415 11.7001 18.0375C11.5238 17.253 11.3785 16.4652 11.2962 15.6649C11.2915 15.6199 11.2869 15.5749 11.2821 15.5286C11.2736 15.4434 11.2655 15.3583 11.2581 15.2731C11.2073 14.7534 11.0425 14.3213 10.6594 13.9571C9.96694 13.3913 9.03438 13.5039 8.40284 14.0914Z" fill="black"/>
</g>
<defs>
<clipPath id="clip0_598_102">
<rect width="19.2" height="19.2" fill="white"/>
</clipPath>
</defs>
</svg>
