<svg width="20" height="20" viewBox="0 0 20 20" fill="none" xmlns="http://www.w3.org/2000/svg">
<ellipse cx="10.3619" cy="10.0228" rx="9.54211" ry="9.54245" fill="white"/>
<path d="M10.4834 3.5399C10.6667 3.64973 10.7904 3.81798 10.8514 4.02147C10.8789 4.24442 10.8424 4.41179 10.7343 4.60741C10.7622 4.6062 10.7902 4.60499 10.8191 4.60375C11.5235 4.60516 12.3061 5.00739 12.8589 5.42078C12.9322 5.47557 12.9904 5.51572 13.078 5.54491C13.0804 5.52436 13.0828 5.50382 13.0853 5.48265C13.1393 5.27562 13.2845 5.15676 13.4589 5.04686C13.6615 4.97932 13.8923 4.98803 14.0869 5.07616C14.2649 5.1786 14.3635 5.31328 14.4366 5.5028C14.4784 5.73244 14.4541 5.93029 14.3314 6.1305C14.2234 6.27049 14.0947 6.34073 13.9276 6.39452C13.9083 6.39452 13.8889 6.39452 13.869 6.39452C13.893 6.43026 13.893 6.43026 13.9174 6.46673C14.3484 7.11791 14.6297 7.78696 14.7479 8.56249C14.7739 8.54799 14.7999 8.53348 14.8267 8.51854C15.0055 8.44257 15.2169 8.44396 15.4033 8.49279C15.5818 8.57107 15.7216 8.72205 15.8076 8.89528C15.865 9.07809 15.8662 9.30481 15.788 9.48168C15.6855 9.65382 15.5254 9.79186 15.3339 9.85155C15.2435 9.86036 15.2435 9.86036 15.1471 9.86071C15.1154 9.8612 15.0838 9.86169 15.0512 9.86219C14.9337 9.84946 14.8541 9.81458 14.7479 9.76366C14.7412 9.7984 14.7344 9.83315 14.7274 9.86895C14.6129 10.4437 14.4393 10.9717 14.1602 11.4885C14.1423 11.5217 14.1244 11.5548 14.106 11.589C14.0332 11.683 13.9846 11.7045 13.869 11.7266C13.7994 11.6973 13.7994 11.6973 13.7518 11.6387C13.7342 11.4875 13.7738 11.4096 13.8544 11.2834C14.2253 10.6717 14.3334 10.0312 14.4257 9.32421C12.7724 9.33871 12.7724 9.33871 11.0858 9.3535C11.0471 9.45985 11.0085 9.5662 10.9686 9.67577C10.9913 9.69839 11.014 9.72102 11.0374 9.74433C11.2509 9.95722 11.4643 10.1702 11.6776 10.3832C11.7873 10.4928 11.897 10.6023 12.0068 10.7117C12.1126 10.8173 12.2184 10.9229 12.3242 11.0286C12.3646 11.0689 12.4051 11.1093 12.4455 11.1496C12.5021 11.2059 12.5585 11.2623 12.615 11.3188C12.6318 11.3356 12.6487 11.3523 12.6661 11.3696C12.8096 11.5134 12.8096 11.5134 12.8253 11.6368C12.8143 11.7266 12.8143 11.7266 12.7502 11.7851C12.6678 11.8144 12.6678 11.8144 12.6009 11.7978C12.4961 11.7425 12.4202 11.6662 12.338 11.5825C12.3203 11.5647 12.3025 11.547 12.2842 11.5287C12.2259 11.4703 12.1678 11.4115 12.1097 11.3528C12.0692 11.3121 12.0287 11.2715 11.9882 11.2309C11.8817 11.124 11.7755 11.017 11.6693 10.9098C11.5608 10.8005 11.4522 10.6914 11.3435 10.5823C11.1304 10.3682 10.9176 10.1539 10.705 9.93944C10.6873 9.9479 10.6696 9.95636 10.6514 9.96508C10.628 9.97595 10.6046 9.98683 10.5804 9.99803C10.5573 10.0089 10.5342 10.0198 10.5104 10.031C10.4413 10.0566 10.4413 10.0566 10.3241 10.0566C10.3242 10.095 10.3244 10.1333 10.3245 10.1728C10.3257 10.5337 10.3266 10.8945 10.3271 11.2553C10.3274 11.4408 10.3279 11.6264 10.3285 11.8119C10.3292 11.9908 10.3295 12.1698 10.3297 12.3487C10.3298 12.4171 10.33 12.4854 10.3303 12.5538C10.3307 12.6494 10.3308 12.7449 10.3307 12.8404C10.331 12.8689 10.3312 12.8973 10.3314 12.9266C10.3313 12.9527 10.3312 12.9787 10.3311 13.0054C10.3312 13.0281 10.3312 13.0507 10.3313 13.0739C10.3241 13.1328 10.3241 13.1328 10.2655 13.2207C10.1648 13.2353 10.1648 13.2353 10.0604 13.2207C9.94463 13.0911 9.96069 12.9444 9.96256 12.7806C9.96254 12.7511 9.96253 12.7217 9.96252 12.6913C9.96258 12.5941 9.96326 12.497 9.96395 12.3998C9.96411 12.3324 9.96424 12.2649 9.96433 12.1975C9.96466 12.0201 9.96553 11.8427 9.9665 11.6653C9.9674 11.4843 9.9678 11.3032 9.96824 11.1221C9.96918 10.767 9.97068 10.4118 9.97253 10.0566C9.93537 10.0521 9.93537 10.0521 9.89746 10.0475C9.78461 10.0249 9.69595 9.98741 9.59167 9.93944C9.29032 10.2401 8.98906 10.5409 8.68789 10.8417C8.54806 10.9814 8.4082 11.121 8.26827 11.2606C8.13334 11.3952 7.99848 11.5299 7.86366 11.6647C7.81212 11.7162 7.76054 11.7676 7.70895 11.8191C7.6369 11.8909 7.56494 11.9628 7.49301 12.0348C7.4607 12.0669 7.4607 12.0669 7.42774 12.0997C7.40823 12.1193 7.38871 12.1388 7.36861 12.159C7.35157 12.176 7.33453 12.193 7.31697 12.2105C7.27423 12.2532 7.27423 12.2532 7.24792 12.3125C7.26428 12.3197 7.28063 12.3268 7.29748 12.3342C7.378 12.3781 7.44034 12.432 7.50976 12.4919C8.03929 12.9297 8.6817 13.202 9.34894 13.3484C9.41589 13.3672 9.41589 13.3672 9.50378 13.4258C9.51477 13.5283 9.51477 13.5283 9.50378 13.6308C9.36746 13.7217 9.25067 13.6879 9.09363 13.6601C8.8 13.5911 8.51862 13.4915 8.24402 13.3672C8.23939 13.3842 8.23477 13.4013 8.23001 13.4189C8.17174 13.6241 8.09381 13.8167 8.00781 14.0117C7.99473 14.042 7.98164 14.0724 7.96816 14.1036C7.87074 14.3264 7.87074 14.3264 7.80456 14.3926C7.70203 14.4017 7.70203 14.4017 7.59949 14.3926C7.54089 14.3047 7.54089 14.3047 7.54649 14.2252C7.57372 14.1145 7.6126 14.0115 7.65636 13.9066C7.66478 13.8861 7.67319 13.8655 7.68185 13.8443C7.70855 13.7792 7.7355 13.7142 7.76245 13.6492C7.78068 13.6048 7.7989 13.5604 7.8171 13.5161C7.86156 13.4078 7.90624 13.2996 7.95105 13.1914C7.9285 13.1827 7.90595 13.174 7.88272 13.165C7.79635 13.1294 7.72356 13.0848 7.64526 13.0339C7.61732 13.0158 7.58937 12.9977 7.56058 12.9791C7.4756 12.9233 7.39074 12.8674 7.30652 12.8105C7.30576 12.8275 7.30501 12.8445 7.30423 12.862C7.28915 13.0698 7.23042 13.1812 7.07947 13.3287C6.89331 13.4612 6.71461 13.5132 6.4862 13.4844C6.2857 13.4396 6.12307 13.3342 6.00796 13.163C5.90356 12.9608 5.88803 12.7415 5.9544 12.5241C6.04185 12.3269 6.16908 12.1937 6.37032 12.1125C6.42826 12.0907 6.48651 12.0697 6.5448 12.0488C6.52527 12.0221 6.50575 11.9954 6.48563 11.9679C5.99916 11.2898 5.71977 10.5834 5.578 9.76366C5.54805 9.7779 5.51811 9.79213 5.48725 9.8068C5.30895 9.88289 5.10945 9.8823 4.9226 9.83335C4.74413 9.75508 4.60432 9.6041 4.51828 9.43087C4.46095 9.24805 4.45974 9.02134 4.53796 8.84447C4.64044 8.67233 4.80056 8.53428 4.99206 8.4746C5.08247 8.46579 5.08247 8.46579 5.17883 8.46544C5.21048 8.46495 5.24213 8.46446 5.27473 8.46395C5.39224 8.47669 5.47186 8.51157 5.578 8.56249C5.58121 8.54441 5.58442 8.52633 5.58773 8.50771C5.73803 7.68129 6.03191 6.94627 6.5448 6.27733C6.51613 6.26504 6.51613 6.26504 6.48689 6.2525C6.25989 6.14837 6.11356 6.03693 6.01929 5.80126C5.96888 5.62407 5.97386 5.44432 6.04515 5.27346C6.14249 5.10457 6.27631 4.975 6.45141 4.88939C6.67049 4.84644 6.87289 4.85204 7.07214 4.95897C7.23338 5.0706 7.32914 5.19364 7.38708 5.38195C7.3895 5.39705 7.39192 5.41216 7.39441 5.42772C7.48463 5.3854 7.56826 5.33476 7.65279 5.28213C8.2519 4.91151 8.87086 4.70083 9.56238 4.57811C9.54829 4.55028 9.5342 4.52245 9.51969 4.49377C9.42925 4.31083 9.42128 4.14339 9.47998 3.9464C9.56004 3.73008 9.6811 3.61648 9.88808 3.52102C10.0813 3.45949 10.2959 3.45747 10.4834 3.5399ZM9.82971 3.98302C9.77699 4.09138 9.78133 4.19636 9.79675 4.31444C9.8474 4.43706 9.90897 4.49724 10.0311 4.54882C10.1714 4.5644 10.2358 4.5634 10.3625 4.50121C10.4524 4.42181 10.4919 4.3699 10.5292 4.25585C10.5351 4.13105 10.5137 4.04412 10.4486 3.93724C10.3533 3.84719 10.279 3.82186 10.1501 3.80541C10.0123 3.82229 9.93072 3.89211 9.82971 3.98302ZM9.38476 4.94799C9.35834 4.95321 9.33192 4.95843 9.30469 4.96381C8.59006 5.11204 7.86563 5.44193 7.33581 5.95507C7.31648 5.99374 7.29714 6.03241 7.27722 6.07225C8.04099 6.83602 8.80476 7.59979 9.59167 8.38671C9.7294 8.3408 9.8659 8.2912 10.0018 8.24022C10.0018 7.13807 10.0018 6.03593 10.0018 4.90038C9.78197 4.90038 9.59581 4.90577 9.38476 4.94799ZM10.3241 4.90038C10.3241 6.00253 10.3241 7.10468 10.3241 8.24022C10.4401 8.28856 10.5561 8.3369 10.6757 8.38671C10.7735 8.3378 10.8191 8.30915 10.8926 8.23542C10.9117 8.21636 10.9309 8.1973 10.9506 8.17766C10.9713 8.15678 10.9919 8.1359 11.0132 8.11438C11.0353 8.09237 11.0573 8.07036 11.08 8.04768C11.1527 7.9749 11.2252 7.90191 11.2978 7.82892C11.3482 7.77842 11.3986 7.72792 11.449 7.67744C11.5817 7.54454 11.7142 7.41147 11.8466 7.27836C11.9818 7.14256 12.1172 7.00693 12.2525 6.87128C12.5181 6.6051 12.7835 6.33874 13.0487 6.07225C12.8323 5.60267 12.031 5.27931 11.5772 5.11046C11.1676 4.97006 10.7573 4.90038 10.3241 4.90038ZM6.45691 5.28124C6.35655 5.3948 6.31981 5.48538 6.32862 5.63406C6.34809 5.73462 6.38872 5.79199 6.45691 5.86718C6.5699 5.93671 6.65298 5.96601 6.78284 5.94225C6.91276 5.90213 6.96706 5.83092 7.04285 5.72069C7.08483 5.63672 7.08112 5.57968 7.07214 5.48632C7.01094 5.37484 6.95068 5.28394 6.83777 5.22264C6.6805 5.18187 6.59151 5.18851 6.45691 5.28124ZM13.45 5.47098C13.3738 5.58576 13.3564 5.67754 13.3823 5.8127C13.4175 5.91948 13.4804 5.98584 13.5687 6.05211C13.7037 6.09335 13.8233 6.09156 13.9514 6.03746C14.0444 5.96041 14.0934 5.89723 14.1138 5.77597C14.1214 5.65426 14.1147 5.57075 14.0375 5.4735C13.9384 5.38113 13.8895 5.34524 13.7555 5.33068C13.6291 5.34331 13.5361 5.37326 13.45 5.47098ZM13.2429 6.31393C13.2256 6.33122 13.2084 6.3485 13.1906 6.36631C13.1609 6.39589 13.1609 6.39589 13.1307 6.42607C13.1089 6.44798 13.0871 6.4699 13.0646 6.49248C13.0303 6.52677 13.0303 6.52677 12.9953 6.56175C12.9193 6.63777 12.8434 6.7139 12.7675 6.79003C12.715 6.84258 12.6625 6.89513 12.61 6.94767C12.4857 7.07212 12.3614 7.19664 12.2371 7.3212C12.0957 7.46295 11.9542 7.60463 11.8126 7.74629C11.5214 8.0378 11.2304 8.32941 10.9393 8.62108C10.9472 8.64042 10.955 8.65975 10.9631 8.67968C11.0054 8.78655 11.0455 8.89432 11.0858 9.00194C12.188 9.00194 13.2901 9.00194 14.4257 9.00194C14.4257 8.81029 14.4231 8.64177 14.3909 8.45629C14.387 8.43379 14.3832 8.4113 14.3792 8.38812C14.2381 7.61417 13.8678 6.83933 13.3124 6.27733C13.2776 6.27404 13.2776 6.27404 13.2429 6.31393ZM6.93756 6.34886C6.29065 7.06868 5.90027 8.03466 5.90027 9.00194C7.00242 9.00194 8.10456 9.00194 9.24011 9.00194C9.37753 8.7413 9.37753 8.7413 9.328 8.59178C9.289 8.53974 9.289 8.53974 9.23812 8.49094C9.21894 8.47155 9.19975 8.45216 9.17999 8.43218C9.15882 8.41124 9.13765 8.39029 9.11584 8.36871C9.09364 8.34641 9.07144 8.3241 9.04857 8.30112C8.97503 8.22735 8.90119 8.1539 8.82732 8.08046C8.77626 8.02941 8.7252 7.97834 8.67417 7.92726C8.56715 7.82024 8.45997 7.71338 8.35269 7.60662C8.21487 7.46946 8.07737 7.33199 7.93998 7.1944C7.83461 7.08893 7.7291 6.98361 7.62354 6.87834C7.57277 6.82768 7.52204 6.77699 7.47135 6.72625C7.40064 6.65553 7.32975 6.58501 7.2588 6.51454C7.23769 6.49335 7.21658 6.47217 7.19483 6.45035C7.17556 6.43129 7.1563 6.41223 7.13645 6.39259C7.11969 6.37589 7.10293 6.35919 7.08566 6.34199C7.02206 6.28946 6.9981 6.29411 6.93756 6.34886ZM9.71504 8.73655C9.57407 8.91794 9.53861 9.06641 9.56238 9.29491C9.61551 9.47703 9.72844 9.60139 9.88464 9.70507C10.0327 9.77293 10.1727 9.79075 10.331 9.74455C10.5315 9.66615 10.6541 9.55006 10.7452 9.35533C10.7845 9.16303 10.7805 9.02387 10.6856 8.85225C10.5947 8.72402 10.4698 8.62186 10.3241 8.56249C10.0892 8.53112 9.8804 8.55711 9.71504 8.73655ZM4.90417 8.91405C4.83465 8.99979 4.81746 9.05125 4.80347 9.16124C4.82224 9.3141 4.88261 9.40016 5.00122 9.49633C5.10453 9.53957 5.17382 9.54294 5.28503 9.52928C5.41217 9.46327 5.49295 9.39881 5.5487 9.26561C5.56451 9.11809 5.54995 9.03289 5.46081 8.91405C5.37933 8.81899 5.3138 8.79958 5.18799 8.78771C5.05849 8.79868 5.00298 8.83096 4.90417 8.91405ZM14.8102 8.9818C14.7669 9.08511 14.7636 9.1544 14.7772 9.26561C14.8432 9.39275 14.9077 9.47353 15.0409 9.52928C15.1657 9.54517 15.229 9.53809 15.3412 9.47985C15.4575 9.38205 15.5031 9.31665 15.5225 9.1649C15.5037 9.01204 15.4433 8.92599 15.3247 8.82982C15.1113 8.74047 14.9513 8.80769 14.8102 8.9818ZM5.90027 9.32421C5.90027 9.54407 5.90566 9.73023 5.94787 9.94127C5.9531 9.9677 5.95832 9.99412 5.9637 10.0213C6.10788 10.7165 6.4266 11.4437 6.92566 11.9609C6.96426 11.9813 7.00328 12.001 7.04285 12.0195C7.34565 11.7208 7.64795 11.4216 7.94967 11.1218C8.08976 10.9826 8.23002 10.8436 8.37067 10.705C8.50632 10.5712 8.6415 10.4371 8.77641 10.3026C8.82804 10.2513 8.87983 10.2002 8.93177 10.1492C9.00431 10.0779 9.07629 10.0061 9.14817 9.93415C9.16991 9.91304 9.19166 9.89192 9.21407 9.87017C9.24322 9.84066 9.24322 9.84066 9.27296 9.81055C9.2986 9.78515 9.2986 9.78515 9.32476 9.75924C9.36353 9.70625 9.36353 9.70625 9.35342 9.63988C9.32006 9.53317 9.27937 9.42888 9.24011 9.32421C8.13796 9.32421 7.03581 9.32421 5.90027 9.32421ZM6.33057 12.5359C6.2564 12.6403 6.24616 12.7426 6.25183 12.8691C6.30062 12.9911 6.37679 13.0616 6.4862 13.1328C6.59879 13.1695 6.65378 13.1645 6.76819 13.131C6.88361 13.0647 6.92758 13.0186 6.98425 12.8984C7.00902 12.7705 6.99411 12.6849 6.93848 12.567C6.84916 12.4685 6.78759 12.4415 6.66199 12.4004C6.52851 12.4004 6.438 12.4604 6.33057 12.5359Z" fill="#00080C"/>
<path d="M13.8678 12.0136C13.9043 12.0133 13.9043 12.0133 13.9415 12.0131C13.9928 12.0128 14.0441 12.0126 14.0953 12.0125C14.1717 12.0122 14.2481 12.0113 14.3246 12.0104C14.7689 12.0076 15.2072 12.0522 15.6323 12.188C15.6562 12.1954 15.6801 12.2028 15.7047 12.2104C16.3329 12.411 16.3329 12.411 16.5057 12.5762C16.5167 12.6805 16.5167 12.6805 16.5057 12.7813C16.4471 12.8398 16.4471 12.8398 16.3681 12.849C16.2531 12.8381 16.1735 12.8027 16.0699 12.752C16.0362 12.7356 16.0024 12.7193 15.9676 12.7025C15.9294 12.6835 15.9294 12.6835 15.8905 12.6641C15.8903 12.6979 15.8901 12.7318 15.89 12.7667C15.8883 13.0857 15.8861 13.4047 15.8836 13.7237C15.8823 13.8877 15.8811 14.0517 15.8803 14.2158C15.8796 14.374 15.8784 14.5322 15.8769 14.6905C15.8764 14.7509 15.8761 14.8113 15.8759 14.8717C15.8756 14.9562 15.8748 15.0407 15.8738 15.1253C15.8739 15.1503 15.8739 15.1754 15.874 15.2012C15.8723 15.3036 15.8704 15.3713 15.8219 15.4628C15.7733 15.5059 15.7733 15.5059 15.6854 15.5205C15.5975 15.5059 15.5975 15.5059 15.5489 15.4637C15.4888 15.3489 15.4967 15.2395 15.4969 15.1118C15.4966 15.0838 15.4963 15.0558 15.496 15.0269C15.4952 14.9343 15.4949 14.8418 15.4946 14.7492C15.4941 14.685 15.4936 14.6208 15.493 14.5566C15.4916 14.3876 15.4908 14.2187 15.49 14.0497C15.4891 13.8773 15.4878 13.7049 15.4864 13.5324C15.4839 13.1942 15.4819 12.8559 15.4803 12.5176C15.1004 12.429 14.7266 12.3729 14.3377 12.3418C14.3378 12.3657 14.3378 12.3657 14.3379 12.3901C14.3392 12.7779 14.3402 13.1657 14.3408 13.5535C14.3411 13.741 14.3415 13.9285 14.3422 14.116C14.3428 14.2969 14.3431 14.4777 14.3433 14.6586C14.3434 14.7277 14.3436 14.7968 14.3439 14.866C14.3444 14.9625 14.3444 15.059 14.3444 15.1555C14.3446 15.1844 14.3448 15.2132 14.345 15.2429C14.3449 15.2691 14.3449 15.2953 14.3448 15.3223C14.3449 15.3566 14.3449 15.3566 14.3449 15.3916C14.3377 15.4473 14.3377 15.4473 14.2791 15.5059C14.1253 15.5222 14.1253 15.5222 14.0545 15.4693C14.0055 15.4049 14.0046 15.371 14.0049 15.2906C14.0047 15.2516 14.0047 15.2516 14.0045 15.2118C14.0049 15.1834 14.0052 15.1549 14.0055 15.1256C14.0055 15.0956 14.0055 15.0656 14.0055 15.0347C14.0055 14.9353 14.0062 14.8359 14.0069 14.7365C14.0071 14.6676 14.0072 14.5988 14.0073 14.5299C14.0076 14.3486 14.0085 14.1673 14.0094 13.9859C14.0103 13.801 14.0107 13.616 14.0112 13.431C14.0121 13.0679 14.0136 12.7049 14.0155 12.3418C13.8964 12.3542 13.7774 12.3672 13.6584 12.3803C13.6253 12.3837 13.5921 12.3872 13.558 12.3907C13.3248 12.4166 13.1003 12.46 12.8729 12.5176C12.8725 12.5724 12.8725 12.5724 12.8722 12.6284C12.8699 12.9724 12.8673 13.3165 12.8645 13.6605C12.863 13.8374 12.8616 14.0143 12.8605 14.1912C12.8595 14.3617 12.8581 14.5323 12.8565 14.7029C12.856 14.7681 12.8556 14.8333 12.8552 14.8985C12.8547 14.9896 12.8539 15.0806 12.8529 15.1717C12.8528 15.2125 12.8528 15.2125 12.8527 15.2541C12.8524 15.2788 12.8521 15.3035 12.8518 15.329C12.8516 15.3506 12.8514 15.3721 12.8513 15.3943C12.8436 15.4473 12.8436 15.4473 12.785 15.5059C12.6825 15.515 12.6825 15.515 12.5799 15.5059C12.5021 15.3891 12.5136 15.288 12.5147 15.1525C12.5147 15.1253 12.5147 15.0982 12.5147 15.0702C12.5147 14.9803 12.5152 14.8904 12.5156 14.8006C12.5157 14.7383 12.5158 14.676 12.5159 14.6137C12.5161 14.4497 12.5167 14.2857 12.5173 14.1217C12.5179 13.9544 12.5182 13.7871 12.5185 13.6198C12.5191 13.2915 12.5201 12.9631 12.5213 12.6348C12.4478 12.6712 12.3743 12.7077 12.3008 12.7443C12.2803 12.7544 12.2598 12.7646 12.2387 12.775C11.9907 12.8986 11.7419 13.0275 11.5179 13.1914C11.4373 13.25 11.4373 13.25 11.3788 13.25C11.379 13.2892 11.379 13.2892 11.3793 13.3291C11.3811 13.5752 11.3824 13.8214 11.3833 14.0675C11.3838 14.194 11.3844 14.3206 11.3854 14.4471C11.3863 14.5692 11.3869 14.6914 11.3871 14.8135C11.3873 14.8601 11.3876 14.9067 11.388 14.9532C11.3887 15.0185 11.3888 15.0838 11.3887 15.1491C11.389 15.2048 11.389 15.2048 11.3893 15.2617C11.3779 15.3674 11.3569 15.4231 11.2909 15.5059C11.203 15.5223 11.203 15.5223 11.1151 15.5059C11.0206 15.4123 11.0158 15.3357 11.0145 15.2059C11.0139 15.169 11.0134 15.1321 11.0128 15.094C11.0126 15.0538 11.0124 15.0137 11.0122 14.9735C11.0117 14.9323 11.0112 14.8911 11.0106 14.8498C11.0092 14.7416 11.0083 14.6333 11.0076 14.525C11.0067 14.4145 11.0053 14.3039 11.004 14.1933C11.0015 13.9766 10.9995 13.7598 10.9979 13.543C10.9789 13.5558 10.9599 13.5686 10.9403 13.5818C10.8836 13.62 10.8269 13.6581 10.7701 13.6962C10.7056 13.7395 10.6413 13.783 10.5771 13.8268C10.3018 14.0126 10.3018 14.0126 10.1515 14.0817C9.95547 14.166 9.95547 14.166 9.83388 14.3325C9.79916 14.5015 9.80928 14.67 9.8187 14.8412C9.821 14.9176 9.82268 14.994 9.824 15.0705C9.82502 15.1178 9.82671 15.1651 9.82917 15.2124C9.83293 15.3084 9.83285 15.3757 9.7876 15.4617C9.73813 15.5059 9.73813 15.5059 9.65024 15.5205C9.56235 15.5059 9.56235 15.5059 9.51385 15.4595C9.46039 15.3634 9.46171 15.2882 9.45947 15.1786C9.45894 15.1586 9.45841 15.1386 9.45787 15.118C9.45629 15.0544 9.45529 14.9908 9.45432 14.9272C9.45334 14.884 9.45233 14.8408 9.45128 14.7976C9.4488 14.6919 9.44684 14.5862 9.44516 14.4805C9.41653 14.4947 9.3879 14.509 9.35841 14.5236C9.15697 14.623 8.95786 14.7069 8.74203 14.7698C8.72174 14.7757 8.70144 14.7817 8.68053 14.7878C8.55473 14.8229 8.43184 14.8455 8.30258 14.8613C8.30289 14.8788 8.3032 14.8962 8.30351 14.9142C8.30473 14.993 8.30549 15.0718 8.30624 15.1506C8.30674 15.1781 8.30723 15.2055 8.30773 15.2338C8.30792 15.2601 8.30811 15.2863 8.3083 15.3134C8.30861 15.3376 8.30892 15.3619 8.30923 15.3868C8.30258 15.4473 8.30258 15.4473 8.24399 15.5059C8.09004 15.5222 8.09004 15.5222 8.01919 15.4691C7.97087 15.4055 7.97005 15.3731 7.97173 15.294C7.97202 15.2705 7.9723 15.247 7.97259 15.2228C7.97333 15.1984 7.97406 15.174 7.97482 15.1488C7.97522 15.1241 7.97562 15.0993 7.97602 15.0738C7.97706 15.0127 7.97864 14.9517 7.98032 14.8906C7.95131 14.9051 7.95131 14.9051 7.92172 14.9199C7.82792 14.9271 7.73378 14.9255 7.63974 14.9254C7.5986 14.9254 7.5986 14.9254 7.55663 14.9255C7.31335 14.9237 7.07793 14.8994 6.83774 14.8613C6.83927 14.9164 6.83927 14.9164 6.84083 14.9726C6.84165 15.0209 6.84245 15.0693 6.84323 15.1177C6.84397 15.1418 6.8447 15.166 6.84546 15.1909C6.84763 15.3697 6.84763 15.3697 6.79894 15.4632C6.74985 15.5059 6.74985 15.5059 6.66196 15.5223C6.57407 15.5059 6.57407 15.5059 6.52497 15.4505C6.46895 15.3189 6.47679 15.1985 6.48068 15.0573C6.48108 15.03 6.48148 15.0027 6.48188 14.9746C6.48292 14.9075 6.48436 14.8405 6.48618 14.7734C6.46624 14.7691 6.4463 14.7648 6.42575 14.7604C6.02457 14.6676 5.65682 14.5083 5.285 14.334C5.28546 14.3664 5.28592 14.3987 5.2864 14.4321C5.28799 14.5522 5.289 14.6722 5.28983 14.7923C5.29027 14.8443 5.29087 14.8962 5.29163 14.9482C5.2927 15.0229 5.2932 15.0976 5.29359 15.1723C5.29404 15.1955 5.29449 15.2188 5.29496 15.2427C5.29501 15.4029 5.29501 15.4029 5.24613 15.4767C5.17 15.522 5.10767 15.515 5.02133 15.5059C4.96274 15.4473 4.96274 15.4473 4.95569 15.3902C4.95582 15.3669 4.95595 15.3436 4.95609 15.3196C4.95609 15.2932 4.9561 15.2668 4.9561 15.2396C4.9564 15.2111 4.9567 15.1826 4.95702 15.1532C4.9571 15.124 4.95718 15.0948 4.95727 15.0647C4.9576 14.9713 4.95833 14.8779 4.95908 14.7844C4.95937 14.7212 4.95964 14.6579 4.95988 14.5947C4.96052 14.4394 4.96151 14.2842 4.96274 14.1289C4.94016 14.1203 4.91759 14.1116 4.89433 14.1027C4.80743 14.0667 4.73883 14.0207 4.66245 13.9659C4.63692 13.9478 4.61139 13.9296 4.58508 13.9109C4.52329 13.8652 4.52329 13.8652 4.49399 13.8359C4.48069 13.6831 4.48069 13.6831 4.52695 13.6034C4.61085 13.5558 4.66548 13.5793 4.75766 13.6016C4.84063 13.6464 4.84063 13.6464 4.92795 13.7041C5.93613 14.3469 7.18029 14.7309 8.37949 14.4951C9.35918 14.2762 10.2325 13.6513 11.0387 13.0815C11.8987 12.4738 12.7893 12.0195 13.8678 12.0136Z" fill="#00080C"/>
</svg>
