<svg width="20" height="20" viewBox="0 0 20 20" fill="none" xmlns="http://www.w3.org/2000/svg">
<ellipse cx="10.3619" cy="9.70163" rx="9.54211" ry="9.54245" fill="#1E552A"/>
<g clip-path="url(#clip0_543_1452)">
<path d="M5.42203 7.76952C5.5021 7.87277 5.55507 7.97907 5.60724 8.09818C5.64263 8.17744 5.67908 8.25574 5.71918 8.33274C5.72781 8.34945 5.73644 8.36616 5.74533 8.38338C5.78552 8.43635 5.82142 8.45295 5.88345 8.47533C5.93013 8.4778 5.97686 8.47933 6.02359 8.48046C6.10939 8.49146 6.19459 8.50575 6.27994 8.51977C6.31266 8.52433 6.31266 8.52433 6.34604 8.52899C6.36674 8.53211 6.38743 8.53524 6.40875 8.53846C6.42738 8.54112 6.446 8.54378 6.46519 8.54652C6.52898 8.56666 6.55676 8.5921 6.59781 8.64452C6.61374 8.73659 6.61823 8.80211 6.56865 8.88421C6.47954 8.99201 6.37456 9.08307 6.26776 9.17292C6.24164 9.1956 6.24164 9.1956 6.215 9.21874C6.19469 9.23538 6.17439 9.25202 6.15347 9.26916C6.09894 9.32513 6.09894 9.32513 6.099 9.40214C6.10231 9.43016 6.10563 9.45818 6.10904 9.48705C6.11235 9.51825 6.11567 9.54944 6.11908 9.58158C6.12872 9.65237 6.13899 9.72276 6.15027 9.79328C6.15305 9.81146 6.15583 9.82964 6.15869 9.84836C6.16679 9.90006 6.17571 9.95162 6.18466 10.0032C6.18818 10.1096 6.17694 10.1516 6.10562 10.2305C6.02531 10.2617 5.97245 10.2683 5.88997 10.2403C5.83278 10.2142 5.77792 10.1855 5.72281 10.1553C5.70406 10.1454 5.68531 10.1355 5.66599 10.1254C5.58212 10.0812 5.49914 10.0362 5.4169 9.98907C5.32458 9.9506 5.29657 9.95024 5.20328 9.98437C5.10463 10.033 5.00931 10.0874 4.91382 10.1419C4.79146 10.2094 4.6899 10.2528 4.54703 10.2578C4.465 10.21 4.465 10.21 4.41031 10.1211C4.40368 10.0182 4.42001 9.92149 4.43765 9.8203C4.44484 9.77737 4.44484 9.77737 4.45218 9.73357C4.46145 9.67877 4.47113 9.62404 4.48134 9.5694C4.48497 9.54392 4.4886 9.51844 4.49234 9.49218C4.49699 9.46596 4.50165 9.43973 4.50644 9.41271C4.48409 9.2786 4.39234 9.21758 4.29239 9.13158C4.2549 9.09815 4.21741 9.06472 4.17992 9.03129C4.15479 9.00944 4.15479 9.00944 4.12915 8.98715C4.0024 8.87421 4.0024 8.87421 3.98926 8.81029C3.98947 8.79168 3.98968 8.77307 3.9899 8.7539C3.98969 8.73529 3.98948 8.71668 3.98926 8.6975C4.00374 8.62706 4.02586 8.60701 4.08218 8.56249C4.15295 8.54444 4.15295 8.54444 4.23685 8.53344C4.26705 8.52914 4.29726 8.52484 4.32838 8.52041C4.39212 8.51201 4.45585 8.5036 4.51958 8.4952C4.56489 8.48875 4.56489 8.48875 4.61111 8.48217C4.65265 8.47672 4.65265 8.47672 4.69501 8.47117C4.77386 8.45105 4.79952 8.43539 4.84781 8.37109C4.88132 8.31225 4.88132 8.31225 4.91083 8.24633C4.92228 8.22229 4.93374 8.19825 4.94554 8.17348C4.96922 8.12301 4.99271 8.07245 5.01604 8.02181C5.10331 7.83979 5.19681 7.68038 5.42203 7.76952Z" fill="white"/>
<path d="M11.1366 7.79688C11.1945 7.86327 11.2329 7.93772 11.2733 8.01563C11.2814 8.03108 11.2895 8.04653 11.2979 8.06244C11.4647 8.38223 11.4647 8.38223 11.4647 8.45313C11.4828 8.45519 11.5008 8.45724 11.5194 8.45936C11.6021 8.46895 11.6846 8.47898 11.7672 8.48902C11.7956 8.49225 11.824 8.49547 11.8532 8.49879C12.0104 8.51825 12.146 8.53917 12.285 8.6172C12.3226 8.70435 12.3226 8.70435 12.3124 8.8086C12.2416 8.92553 12.138 9.01391 12.0332 9.09977C11.8517 9.24834 11.8517 9.24834 11.783 9.46293C11.7932 9.56674 11.8189 9.66541 11.8475 9.76563C11.8677 9.85468 11.8792 9.93749 11.88 10.0288C11.8804 10.0495 11.8808 10.0701 11.8812 10.0914C11.8749 10.1484 11.8749 10.1484 11.8202 10.2305C11.7149 10.2675 11.6488 10.2611 11.5502 10.2155C11.5123 10.1959 11.4747 10.1758 11.4374 10.1553C11.4186 10.1454 11.3999 10.1355 11.3806 10.1254C11.2971 10.0814 11.2147 10.0367 11.1332 9.98908C11.033 9.94826 10.9938 9.95201 10.8905 9.98438C10.7789 10.039 10.6717 10.1015 10.5645 10.1644C10.4548 10.2255 10.3902 10.2579 10.2623 10.2576C10.1796 10.2305 10.1796 10.2305 10.1249 10.1484C10.1086 9.95984 10.1426 9.78412 10.1801 9.59995C10.208 9.46204 10.208 9.46204 10.1796 9.32813C10.134 9.27396 10.134 9.27396 10.0762 9.2225C10.045 9.19286 10.045 9.19286 10.0133 9.16263C9.96934 9.12158 9.92526 9.08071 9.88103 9.04001C9.70294 8.86963 9.70294 8.86963 9.67969 8.75958C9.68738 8.67188 9.68738 8.67188 9.73309 8.61388C9.80735 8.55396 9.85437 8.54214 9.9481 8.5279C9.99143 8.52103 9.99143 8.52103 10.0356 8.51402C10.0657 8.50972 10.0957 8.50541 10.1266 8.50098C10.1567 8.49626 10.1868 8.49154 10.2179 8.48667C10.4357 8.45313 10.4357 8.45313 10.535 8.45313C10.5416 8.43128 10.5482 8.40943 10.555 8.38691C10.598 8.26561 10.6513 8.15171 10.7076 8.03614C10.718 8.01386 10.7283 7.99159 10.739 7.96864C10.8177 7.80782 10.8177 7.80782 10.9071 7.75394C11.0041 7.73652 11.0495 7.7497 11.1366 7.79688Z" fill="white"/>
<path d="M8.26584 7.76952C8.34619 7.87314 8.39817 7.97519 8.44432 8.09722C8.519 8.30361 8.519 8.30361 8.66916 8.4527C8.77874 8.48913 8.89082 8.49869 9.00563 8.50481C9.16135 8.51357 9.31239 8.52388 9.43478 8.62402C9.48027 8.72409 9.47541 8.75798 9.44162 8.86327C9.37609 8.94621 9.30112 9.01786 9.22458 9.09057C9.19415 9.12041 9.19415 9.12041 9.16311 9.15086C9.01417 9.29575 9.01417 9.29575 8.94943 9.32812C8.96131 9.4869 8.97791 9.64297 9.00583 9.7998C9.04681 10.0432 9.04681 10.0432 9.03146 10.1484C8.97336 10.2168 8.97336 10.2168 8.89474 10.2578C8.70992 10.2517 8.55782 10.1407 8.40223 10.0505C8.27221 9.97767 8.27221 9.97767 8.12741 9.95467C8.01695 9.99551 7.91693 10.0494 7.81466 10.1074C7.56375 10.2498 7.56375 10.2498 7.41818 10.2578C7.29339 10.2051 7.29339 10.2051 7.26182 10.1275C7.25185 10.0484 7.26863 9.99137 7.28979 9.91462C7.37918 9.59729 7.37918 9.59729 7.3303 9.28378C7.23888 9.16185 7.12547 9.06975 7.00253 8.98095C6.9426 8.93752 6.89129 8.89294 6.84396 8.83593C6.8239 8.67258 6.8239 8.67258 6.87606 8.59963C6.94303 8.54982 6.9983 8.54291 7.08066 8.53056C7.11086 8.52588 7.14107 8.52121 7.17219 8.5164C7.20374 8.51187 7.23529 8.50734 7.26779 8.50268C7.29934 8.49783 7.33088 8.49298 7.36339 8.48799C7.59417 8.45312 7.59417 8.45312 7.69162 8.45312C7.69849 8.43095 7.70536 8.40878 7.71245 8.38593C7.75252 8.27127 7.79999 8.16186 7.85055 8.05151C7.86411 8.02039 7.86411 8.02039 7.87795 7.98865C7.95783 7.81493 8.06042 7.68821 8.26584 7.76952Z" fill="white"/>
<path d="M13.8981 7.73505C14.0292 7.78991 14.0646 7.89677 14.1241 8.02077C14.1359 8.04405 14.1478 8.06733 14.16 8.09132C14.2192 8.20959 14.2712 8.32586 14.3087 8.45314C14.3374 8.45644 14.3374 8.45644 14.3667 8.4598C14.4539 8.46992 14.5411 8.48032 14.6282 8.49074C14.6584 8.49419 14.6885 8.49765 14.7196 8.50121C14.7634 8.50649 14.7634 8.50649 14.808 8.51189C14.8348 8.51504 14.8616 8.51819 14.8891 8.52143C14.9979 8.54116 15.0775 8.56574 15.1563 8.64455C15.1683 8.73512 15.1683 8.73512 15.1563 8.83595C15.0849 8.91859 15.0076 8.98182 14.9187 9.04381C14.8005 9.13226 14.6959 9.21717 14.6368 9.35548C14.6228 9.57951 14.6817 9.80149 14.7393 10.0165C14.748 10.1148 14.7245 10.154 14.6641 10.2305C14.5838 10.2618 14.5309 10.2683 14.4485 10.2404C14.3913 10.2142 14.3364 10.1855 14.2813 10.1553C14.2626 10.1454 14.2438 10.1356 14.2245 10.1254C14.141 10.0814 14.0586 10.0368 13.9771 9.98909C13.8769 9.94826 13.8378 9.95204 13.7344 9.98439C13.622 10.039 13.5141 10.1017 13.406 10.1644C13.2375 10.2579 13.2375 10.2579 13.1218 10.2576C13.0095 10.2147 13.0095 10.2147 12.9688 10.1485C12.9649 10.0733 12.9649 10.0733 12.9739 9.98439C12.9787 9.93696 12.9787 9.93696 12.9835 9.88858C12.995 9.8019 13.0089 9.71652 13.0252 9.63063C13.0297 9.60627 13.0342 9.58192 13.0388 9.55682C13.0483 9.50563 13.0581 9.45448 13.0679 9.40334C13.0436 9.29635 12.9825 9.25859 12.8988 9.1911C12.8237 9.12988 12.7534 9.06543 12.6834 8.99831C12.6603 8.97656 12.6372 8.95481 12.6134 8.9324C12.5482 8.85006 12.5301 8.80429 12.5313 8.69923C12.5637 8.62447 12.5637 8.62447 12.6407 8.56252C12.7491 8.53053 12.8586 8.51571 12.9705 8.50099C13.0301 8.49235 13.0897 8.48366 13.1492 8.47493C13.1756 8.47136 13.2019 8.46779 13.2291 8.46412C13.3003 8.45446 13.3003 8.45446 13.379 8.4258C13.4162 8.36723 13.4162 8.36723 13.448 8.29442C13.4607 8.26774 13.4733 8.24105 13.4864 8.21356C13.5126 8.15707 13.5388 8.10053 13.5648 8.04395C13.5776 8.01719 13.5903 7.99044 13.6035 7.96288C13.6148 7.93828 13.6262 7.91368 13.6379 7.88833C13.7044 7.78647 13.7779 7.74559 13.8981 7.73505Z" fill="white"/>
<path d="M16.824 7.76952C16.9041 7.87277 16.9571 7.97907 17.0092 8.09818C17.0446 8.17744 17.0811 8.25574 17.1212 8.33274C17.1298 8.34945 17.1384 8.36616 17.1473 8.38338C17.1875 8.43635 17.2234 8.45295 17.2855 8.47533C17.3321 8.4778 17.3789 8.47933 17.4256 8.48046C17.5114 8.49146 17.5966 8.50575 17.6819 8.51977C17.7147 8.52433 17.7147 8.52433 17.748 8.52899C17.7687 8.53211 17.7894 8.53524 17.8108 8.53846C17.8294 8.54112 17.848 8.54378 17.8672 8.54652C17.9314 8.5668 17.959 8.59122 17.9998 8.64452C18.025 8.82225 18.025 8.82225 17.9714 8.90956C17.9318 8.9538 17.8904 8.99314 17.846 9.03246C17.8317 9.04598 17.8174 9.0595 17.8027 9.07343C17.7451 9.12741 17.6878 9.17953 17.6242 9.22639C17.5307 9.29506 17.5307 9.29506 17.4957 9.40171C17.5016 9.44057 17.5016 9.44057 17.5076 9.48022C17.5134 9.52315 17.5134 9.52315 17.5194 9.56695C17.5346 9.65429 17.5502 9.74157 17.5657 9.82885C17.5876 9.95526 17.5991 10.0522 17.5623 10.1758C17.5179 10.2305 17.5179 10.2305 17.4529 10.2578C17.2505 10.25 17.1012 10.1497 16.9293 10.0505C16.9072 10.0382 16.8851 10.0259 16.8623 10.0132C16.8325 9.99607 16.8325 9.99607 16.8022 9.97859C16.7075 9.94468 16.6392 9.96883 16.5501 10.0096C16.5326 10.0196 16.515 10.0296 16.497 10.0399C16.4773 10.0508 16.4576 10.0617 16.4374 10.0729C16.3968 10.0958 16.3563 10.1188 16.3158 10.1419C16.1931 10.2096 16.0921 10.2508 15.949 10.2578C15.8841 10.2288 15.8841 10.2288 15.8397 10.1758C15.8007 10.0315 15.8237 9.91065 15.8516 9.76733C15.8957 9.54913 15.8957 9.54913 15.8943 9.32812C15.8428 9.25243 15.8428 9.25243 15.7696 9.18969C15.7448 9.16653 15.72 9.14337 15.6944 9.11951C15.6068 9.04228 15.5184 8.96628 15.4295 8.89062C15.3878 8.80722 15.3957 8.73633 15.4022 8.64452C15.4477 8.57958 15.4776 8.56417 15.5549 8.54444C15.5965 8.539 15.5965 8.539 15.6388 8.53344C15.6691 8.52914 15.6993 8.52484 15.7304 8.52041C15.7941 8.51201 15.8578 8.5036 15.9216 8.4952C15.9669 8.48875 15.9669 8.48875 16.0131 8.48217C16.0546 8.47672 16.0546 8.47672 16.097 8.47117C16.1759 8.45105 16.2015 8.43539 16.2498 8.37109C16.2833 8.31225 16.2833 8.31225 16.3128 8.24633C16.3243 8.22229 16.3357 8.19825 16.3475 8.17348C16.3712 8.12301 16.3947 8.07245 16.418 8.02181C16.5053 7.83979 16.5988 7.68038 16.824 7.76952ZM16.6873 8.37109C16.6766 8.39974 16.6659 8.4284 16.6548 8.45792C16.5325 8.74826 16.5325 8.74826 16.4153 8.80872C16.2895 8.84739 16.1621 8.85803 16.0311 8.86327C16.0692 8.95038 16.1143 9.00654 16.1832 9.07177C16.2745 9.15874 16.2745 9.15874 16.3045 9.21874C16.3021 9.29774 16.2981 9.3758 16.2925 9.45458C16.2911 9.47651 16.2897 9.49843 16.2882 9.52102C16.2847 9.57522 16.2809 9.6294 16.2772 9.68359C16.381 9.65057 16.4778 9.6121 16.5762 9.56567C16.6809 9.52329 16.7039 9.51648 16.8172 9.54858C16.8612 9.5748 16.8612 9.5748 16.9061 9.60155C17.0106 9.66156 17.0106 9.66156 17.1248 9.68359C17.1206 9.65257 17.1164 9.62155 17.1121 9.58959C17.0755 9.2632 17.0755 9.2632 17.1354 9.14205C17.1836 9.08843 17.232 9.0442 17.2889 8.99999C17.3357 8.9592 17.3357 8.9592 17.3709 8.91796C17.3709 8.89991 17.3709 8.88187 17.3709 8.86327C17.3419 8.86211 17.3128 8.86095 17.2829 8.85975C16.984 8.83422 16.984 8.83422 16.8912 8.7371C16.8143 8.62326 16.7626 8.49936 16.7147 8.37109C16.7056 8.37109 16.6966 8.37109 16.6873 8.37109Z" fill="white"/>
</g>
<defs>
<clipPath id="clip0_543_1452">
<rect width="14" height="14" fill="white" transform="translate(4 2)"/>
</clipPath>
</defs>
</svg>
