<svg width="20" height="20" viewBox="0 0 20 20" fill="none" xmlns="http://www.w3.org/2000/svg">
<ellipse cx="10.3619" cy="10.1116" rx="9.54211" ry="9.54245" fill="white"/>
<g clip-path="url(#clip0_546_717)">
<path d="M6.89358 3.19795C6.92152 3.19768 6.92152 3.19768 6.95003 3.19741C7.6514 3.19216 8.47544 3.22066 9.0863 3.61254C9.2687 3.80766 9.29949 4.00217 9.29496 4.26335C9.29407 4.31643 9.29401 4.36945 9.29416 4.42254C9.29437 4.55411 9.29331 4.68567 9.29205 4.81723C9.29101 4.92899 9.29056 5.04072 9.29097 5.15249C9.29092 5.20462 9.28998 5.25669 9.28901 5.30881C9.28322 5.46892 9.28322 5.46892 9.34027 5.61266C9.38508 5.6517 9.38508 5.6517 9.45923 5.69139C9.58612 5.86085 9.69441 6.06021 9.68774 6.27538C9.70493 6.27624 9.72212 6.27711 9.73983 6.27801C10.0257 6.29602 10.3071 6.34101 10.5901 6.38402C10.6475 6.39266 10.705 6.4013 10.7625 6.40993C10.9177 6.43326 11.0729 6.45675 11.2281 6.48028C11.3579 6.49995 11.4877 6.51954 11.6175 6.53914C11.9412 6.58801 12.2648 6.63704 12.5885 6.68613C12.8691 6.7287 13.1498 6.77105 13.4305 6.8133C13.7194 6.85679 14.0082 6.90043 14.297 6.94422C14.4589 6.96877 14.6208 6.99325 14.7828 7.01758C14.9349 7.04045 15.0871 7.06352 15.2392 7.08673C15.2949 7.09521 15.3507 7.10361 15.4064 7.11194C15.4827 7.12334 15.5589 7.135 15.6351 7.14671C15.668 7.15154 15.668 7.15154 15.7016 7.15647C15.9335 7.19271 16.1521 7.23957 16.298 7.43916C16.397 7.60063 16.4087 7.73359 16.4061 7.92039C16.4062 7.94982 16.4064 7.97926 16.4065 8.00958C16.4066 8.09071 16.4062 8.17182 16.4056 8.25294C16.4051 8.34064 16.4052 8.42834 16.4053 8.51603C16.4054 8.66778 16.405 8.81953 16.4043 8.97127C16.4033 9.19067 16.4029 9.41007 16.4028 9.62947C16.4025 9.98547 16.4016 10.3415 16.4004 10.6975C16.3993 11.0432 16.3984 11.3889 16.3978 11.7346C16.3978 11.756 16.3978 11.7773 16.3977 11.7993C16.3976 11.9063 16.3974 12.0133 16.3973 12.1203C16.3959 13.0073 16.3937 13.8942 16.3909 14.7812C16.4108 14.7849 16.4308 14.7886 16.4514 14.7924C16.5856 14.8211 16.6716 14.9047 16.7574 15.0082C16.8284 15.1498 16.8198 15.3139 16.7971 15.4668C16.7319 15.6299 16.6282 15.7273 16.467 15.7969C16.3944 15.8063 16.3318 15.8107 16.2594 15.8098C16.2392 15.8099 16.2189 15.8101 16.198 15.8103C16.13 15.8107 16.0621 15.8104 15.9942 15.8101C15.9449 15.8103 15.8957 15.8105 15.8465 15.8107C15.7113 15.8112 15.5761 15.8111 15.4409 15.8109C15.295 15.8108 15.1492 15.8112 15.0033 15.8116C14.7176 15.8122 14.4319 15.8123 14.1462 15.8122C13.914 15.8121 13.6818 15.8122 13.4496 15.8124C13.4166 15.8125 13.3836 15.8125 13.3495 15.8125C13.2824 15.8126 13.2154 15.8126 13.1483 15.8127C12.6976 15.8131 12.247 15.8133 11.7964 15.8131C11.7788 15.8131 11.7612 15.8131 11.743 15.8131C11.6537 15.813 11.5644 15.813 11.4751 15.8129C11.4574 15.8129 11.4397 15.8129 11.4214 15.8129C11.3855 15.8129 11.3497 15.8129 11.3138 15.8129C10.7557 15.8126 10.1976 15.813 9.6395 15.8139C9.01242 15.815 8.38534 15.8155 7.75825 15.8153C7.42624 15.8152 7.09424 15.8154 6.76223 15.8161C6.47959 15.8167 6.19696 15.8168 5.91432 15.8161C5.7701 15.8158 5.62588 15.8158 5.48166 15.8164C5.34963 15.8169 5.21761 15.8168 5.08558 15.8161C5.03782 15.8159 4.99007 15.8161 4.94231 15.8165C4.51116 15.8199 4.51116 15.8199 4.34442 15.6846C4.21944 15.5577 4.19639 15.4681 4.1875 15.2922C4.19285 15.119 4.23221 15.0055 4.35571 14.8828C4.43675 14.8201 4.50451 14.7812 4.60962 14.7812C4.60956 14.754 4.60956 14.754 4.6095 14.7262C4.60723 13.6491 4.60549 12.572 4.60443 11.4949C4.60431 11.3655 4.60417 11.2362 4.60404 11.1068C4.60401 11.0811 4.60399 11.0553 4.60396 11.0288C4.60352 10.6119 4.60272 10.1951 4.60178 9.77821C4.60083 9.35042 4.60027 8.92262 4.60006 8.49483C4.59992 8.23089 4.59948 7.96695 4.59866 7.70301C4.59812 7.52198 4.59796 7.34095 4.59809 7.15992C4.59816 7.0555 4.59806 6.95108 4.59751 6.84666C4.59702 6.75095 4.59699 6.65526 4.59734 6.55955C4.5974 6.50875 4.59697 6.45795 4.59651 6.40715C4.59811 6.1652 4.64866 5.97203 4.78577 5.77074C4.80339 5.74413 4.80339 5.74413 4.82137 5.71698C4.86353 5.666 4.86353 5.666 4.92874 5.62197C4.99673 5.56972 4.99673 5.56972 5.00568 5.49128C5.00539 5.46295 5.0051 5.43463 5.0048 5.40544C5.00481 5.37322 5.00482 5.34101 5.00483 5.30782C5.00454 5.29066 5.00425 5.2735 5.00395 5.25582C5.00306 5.20176 5.003 5.14775 5.00314 5.09368C5.00335 4.95932 5.00231 4.82498 5.00104 4.69062C4.99999 4.5772 4.99955 4.46381 4.99996 4.35038C4.9999 4.29751 4.99896 4.2447 4.99799 4.19184C4.99856 3.9779 5.02731 3.8261 5.16821 3.66014C5.33094 3.5148 5.52134 3.45899 5.72839 3.40148C5.75866 3.3928 5.78893 3.38413 5.82012 3.37519C6.17155 3.2764 6.5271 3.20032 6.89358 3.19795ZM6.26001 3.71092C6.24367 3.71473 6.22734 3.71853 6.21051 3.72245C5.793 3.80203 5.793 3.80203 5.44751 4.01561C5.42347 4.09187 5.41903 4.1609 5.41924 4.24058C5.41924 4.26497 5.41924 4.28937 5.41924 4.3145C5.41937 4.34063 5.4195 4.36677 5.41964 4.39369C5.41968 4.4206 5.41971 4.44751 5.41975 4.47523C5.41989 4.56112 5.42021 4.64701 5.42053 4.7329C5.42066 4.79115 5.42078 4.8494 5.42088 4.90766C5.42116 5.05041 5.42158 5.19317 5.42212 5.33592C5.50447 5.31982 5.58433 5.30148 5.66472 5.27741C6.65417 4.98529 7.76997 4.92213 8.7468 5.3152C8.8015 5.3406 8.8015 5.3406 8.87524 5.33592C8.87653 5.16468 8.87742 4.99344 8.87803 4.82219C8.87829 4.76395 8.87863 4.7057 8.87907 4.64746C8.87969 4.5637 8.87998 4.47994 8.8802 4.39617C8.88047 4.37017 8.88073 4.34417 8.881 4.31738C8.881 4.28079 8.881 4.28079 8.88101 4.24346C8.88112 4.2221 8.88123 4.20073 8.88135 4.17871C8.87194 4.0839 8.84818 4.01229 8.77793 3.94693C8.72058 3.91266 8.66775 3.89081 8.60418 3.87041C8.58124 3.86302 8.5583 3.85562 8.53466 3.84801C8.49823 3.83671 8.49823 3.83671 8.46106 3.82518C8.43611 3.81736 8.41117 3.80953 8.38547 3.80147C7.98054 3.67712 7.58688 3.62879 7.16455 3.62841C7.14523 3.62838 7.12591 3.62835 7.106 3.62833C6.81719 3.62859 6.54144 3.6424 6.26001 3.71092ZM6.43774 5.51366C6.43774 6.04153 6.43774 6.5694 6.43774 7.11327C6.60113 7.1007 6.60113 7.1007 6.76782 7.08788C6.83237 7.08586 6.89695 7.08457 6.96152 7.08451C6.9946 7.08447 7.02767 7.08444 7.06175 7.08441C7.09515 7.0845 7.12855 7.0846 7.16296 7.0847C7.19646 7.08461 7.22996 7.08451 7.26448 7.08441C7.29752 7.08444 7.33056 7.08447 7.3646 7.08451C7.39388 7.08453 7.42316 7.08456 7.45333 7.08459C7.58902 7.08898 7.72432 7.10199 7.85962 7.11327C7.85962 6.5854 7.85962 6.05753 7.85962 5.51366C7.59862 5.47086 7.59862 5.47086 7.34228 5.45613C7.31047 5.45607 7.27866 5.456 7.24588 5.45594C7.2138 5.45613 7.18173 5.45633 7.14868 5.45653C7.11661 5.45633 7.08453 5.45614 7.05148 5.45594C7.01967 5.456 6.98786 5.45607 6.95508 5.45613C6.927 5.45619 6.89891 5.45625 6.86998 5.45631C6.72494 5.46564 6.5814 5.49156 6.43774 5.51366ZM5.70935 5.69615C5.68718 5.70357 5.665 5.71098 5.64215 5.71862C5.39359 5.80494 5.18233 5.92136 5.05872 6.16271C5.01062 6.33323 5.01255 6.49932 5.01339 6.67508C5.01343 6.70361 5.01346 6.73214 5.0135 6.76153C5.01364 6.85233 5.01396 6.94312 5.01428 7.03392C5.01441 7.09561 5.01453 7.15731 5.01463 7.219C5.01491 7.36995 5.01533 7.52091 5.01587 7.67186C5.04269 7.65832 5.06951 7.64478 5.09715 7.63083C5.46301 7.44666 5.46301 7.44666 5.63794 7.37194C5.65378 7.36501 5.66962 7.35809 5.68594 7.35096C5.80005 7.30157 5.91477 7.2586 6.03149 7.21483C6.03149 6.68696 6.03149 6.15909 6.03149 5.61522C5.91625 5.61522 5.81742 5.65847 5.70935 5.69615ZM8.26587 5.61522C8.26587 6.14309 8.26587 6.67096 8.26587 7.21483C8.44183 7.28186 8.61778 7.34889 8.79907 7.41796C8.94501 7.49234 9.08826 7.5664 9.23071 7.64647C9.25585 7.65904 9.25585 7.65904 9.28149 7.67186C9.28279 7.49163 9.28367 7.3114 9.28428 7.13116C9.28454 7.06992 9.28488 7.00867 9.28532 6.94743C9.28594 6.85913 9.28623 6.77083 9.28645 6.68252C9.28672 6.65538 9.28698 6.62823 9.28725 6.60026C9.28728 6.34891 9.26554 6.15355 9.09642 5.95829C8.95285 5.81583 8.75685 5.75844 8.57056 5.69139C8.53452 5.67829 8.53452 5.67829 8.49776 5.66491C8.41786 5.63702 8.35105 5.61522 8.26587 5.61522ZM9.68774 6.70702C9.68774 9.37151 9.68774 12.036 9.68774 14.7812C10.157 14.7812 10.6262 14.7812 11.1096 14.7812C11.1096 13.8428 11.1096 12.9044 11.1096 11.9375C11.0175 11.9291 10.9253 11.9207 10.8303 11.9121C10.7058 11.8525 10.6046 11.7941 10.5416 11.6653C10.4943 11.4938 10.4886 11.2923 10.578 11.1345C10.6399 11.0423 10.7272 10.9849 10.8303 10.9473C10.9523 10.932 11.0741 10.9331 11.1969 10.9337C11.2341 10.9335 11.2713 10.9333 11.3085 10.933C11.4093 10.9325 11.51 10.9325 11.6107 10.9328C11.695 10.9329 11.7792 10.9327 11.8634 10.9325C12.0622 10.9321 12.261 10.9322 12.4598 10.9326C12.6645 10.933 12.8693 10.9326 13.0741 10.9318C13.2502 10.9311 13.4263 10.931 13.6024 10.9312C13.7074 10.9313 13.8125 10.9312 13.9175 10.9307C14.0163 10.9303 14.1151 10.9304 14.214 10.931C14.2501 10.9312 14.2863 10.9311 14.3224 10.9308C14.5253 10.9291 14.6869 10.932 14.842 11.0742C14.9588 11.2115 14.9606 11.3442 14.9549 11.5214C14.9331 11.687 14.8665 11.7716 14.7373 11.8724C14.6389 11.9121 14.6389 11.9121 14.3596 11.9375C14.3596 12.8759 14.3596 13.8144 14.3596 14.7812C14.8959 14.7812 15.4321 14.7812 15.9846 14.7812C15.9857 13.8971 15.9867 13.013 15.9872 12.1289C15.9873 12.0245 15.9873 11.9202 15.9874 11.8158C15.9874 11.7951 15.9874 11.7743 15.9874 11.7529C15.9877 11.4164 15.9881 11.0799 15.9885 10.7434C15.989 10.3982 15.9893 10.053 15.9894 9.70782C15.9895 9.49476 15.9897 9.2817 15.9901 9.06864C15.9904 8.9226 15.9904 8.77657 15.9904 8.63054C15.9903 8.54624 15.9904 8.46194 15.9907 8.37764C15.9909 8.28629 15.9909 8.19494 15.9907 8.10359C15.9909 8.07689 15.991 8.05019 15.9912 8.02268C15.9911 7.99819 15.991 7.97371 15.9909 7.94848C15.9909 7.92739 15.9909 7.90631 15.9909 7.88458C15.9815 7.79421 15.9559 7.72175 15.8949 7.65397C15.7985 7.60334 15.6994 7.59271 15.5925 7.57722C15.5679 7.57342 15.5433 7.56962 15.518 7.56571C15.4355 7.55303 15.3529 7.54078 15.2704 7.52853C15.2113 7.51953 15.1522 7.51052 15.0931 7.50148C14.9324 7.47697 14.7717 7.45284 14.611 7.42878C14.46 7.40615 14.3091 7.3832 14.1581 7.36029C13.859 7.31489 13.5598 7.26976 13.2606 7.2248C12.9703 7.18118 12.68 7.13737 12.3897 7.09336C12.3718 7.09065 12.3539 7.08794 12.3355 7.08515C12.2995 7.07969 12.2635 7.07423 12.2275 7.06877C12.2097 7.06608 12.1919 7.06338 12.1736 7.06061C12.1471 7.05658 12.1471 7.05658 12.1199 7.05247C11.8266 7.008 11.5333 6.9637 11.2399 6.91941C11.1731 6.90931 11.1062 6.8992 11.0393 6.88909C10.8487 6.86025 10.6581 6.83149 10.4675 6.80288C10.4097 6.79419 10.3519 6.78547 10.2941 6.77672C10.2153 6.76479 10.1365 6.75299 10.0577 6.74121C10.0233 6.73595 10.0233 6.73595 9.98811 6.73059C9.96696 6.72745 9.94581 6.72431 9.92401 6.72108C9.90584 6.71835 9.88766 6.71561 9.86893 6.71279C9.80885 6.7064 9.74817 6.70702 9.68774 6.70702ZM6.43774 7.54491C6.43774 8.07278 6.43774 8.60065 6.43774 9.14452C6.60113 9.13195 6.60113 9.13195 6.76782 9.11913C6.83237 9.11711 6.89695 9.11582 6.96152 9.11576C6.9946 9.11572 7.02767 9.11569 7.06175 9.11566C7.09515 9.11575 7.12855 9.11585 7.16296 9.11595C7.19646 9.11586 7.22996 9.11576 7.26448 9.11566C7.29752 9.11569 7.33056 9.11572 7.3646 9.11576C7.39388 9.11578 7.42316 9.11581 7.45333 9.11584C7.58902 9.12023 7.72432 9.13324 7.85962 9.14452C7.85962 8.61665 7.85962 8.08878 7.85962 7.54491C7.59862 7.50211 7.59862 7.50211 7.34228 7.48738C7.31047 7.48732 7.27866 7.48725 7.24588 7.48719C7.2138 7.48738 7.18173 7.48758 7.14868 7.48778C7.11661 7.48758 7.08453 7.48739 7.05148 7.48719C7.01967 7.48725 6.98786 7.48732 6.95508 7.48738C6.927 7.48744 6.89891 7.4875 6.86998 7.48756C6.72494 7.49689 6.5814 7.52281 6.43774 7.54491ZM8.26587 7.67186C8.26587 8.19135 8.26587 8.71085 8.26587 9.24608C8.44183 9.31311 8.61778 9.38014 8.79907 9.44921C8.94501 9.52359 9.08826 9.59765 9.23071 9.67772C9.25585 9.69029 9.25585 9.69029 9.28149 9.70311C9.2868 9.51088 9.29086 9.31865 9.29333 9.12636C9.29452 9.03705 9.29613 8.94779 9.29873 8.85851C9.30171 8.75571 9.3028 8.65296 9.30381 8.55012C9.30499 8.51827 9.30617 8.48642 9.30738 8.4536C9.30997 8.2868 9.30997 8.2868 9.23169 8.14596C9.17403 8.10057 9.1169 8.06318 9.05298 8.02733C9.02863 8.01084 9.00428 7.99434 8.97919 7.97734C8.64126 7.76942 8.64126 7.76942 8.26587 7.67186ZM5.21899 8.05272C5.20191 8.06145 5.18482 8.07019 5.16721 8.07919C5.10474 8.11597 5.06205 8.14884 5.01587 8.20507C4.98738 8.31936 4.99219 8.43047 4.99603 8.54764C4.99632 8.58068 4.99661 8.61371 4.9969 8.64775C4.99768 8.73518 4.99967 8.82255 5.00192 8.90996C5.00401 8.99931 5.00493 9.08867 5.00595 9.17804C5.00812 9.35309 5.01159 9.5281 5.01587 9.70311C5.04269 9.68957 5.06951 9.67603 5.09715 9.66208C5.46301 9.47791 5.46301 9.47791 5.63794 9.40319C5.65378 9.39626 5.66962 9.38934 5.68594 9.38221C5.80005 9.33282 5.91477 9.28985 6.03149 9.24608C6.03149 8.72659 6.03149 8.2071 6.03149 7.67186C5.78217 7.67186 5.42264 7.92162 5.21899 8.05272ZM6.43774 9.57616C6.43774 10.104 6.43774 10.6319 6.43774 11.1758C6.60113 11.1632 6.60113 11.1632 6.76782 11.1504C6.83237 11.1484 6.89695 11.1471 6.96152 11.147C6.9946 11.147 7.02767 11.1469 7.06175 11.1469C7.09515 11.147 7.12855 11.1471 7.16296 11.1472C7.19646 11.1471 7.22996 11.147 7.26448 11.1469C7.29752 11.1469 7.33056 11.147 7.3646 11.147C7.39388 11.147 7.42316 11.1471 7.45333 11.1471C7.58902 11.1515 7.72432 11.1645 7.85962 11.1758C7.85962 10.6479 7.85962 10.12 7.85962 9.57616C7.59862 9.53336 7.59862 9.53336 7.34228 9.51863C7.31047 9.51857 7.27866 9.5185 7.24588 9.51844C7.2138 9.51863 7.18173 9.51883 7.14868 9.51903C7.11661 9.51883 7.08453 9.51864 7.05148 9.51844C7.01967 9.5185 6.98786 9.51857 6.95508 9.51863C6.927 9.51869 6.89891 9.51875 6.86998 9.51881C6.72494 9.52814 6.5814 9.55406 6.43774 9.57616ZM8.26587 9.70311C8.26587 10.2226 8.26587 10.7421 8.26587 11.2773C8.44183 11.3444 8.61778 11.4114 8.79907 11.4805C8.94501 11.5548 9.08826 11.6289 9.23071 11.709C9.25585 11.7215 9.25585 11.7215 9.28149 11.7344C9.29095 11.5402 9.29815 11.346 9.30254 11.1516C9.30465 11.0613 9.30751 10.9712 9.31214 10.881C9.34851 10.5015 9.34851 10.5015 9.24333 10.1541C9.15094 10.0668 9.04712 10.0178 8.92806 9.97639C8.84315 9.94525 8.76704 9.90081 8.68799 9.85704C8.54636 9.78553 8.42403 9.75056 8.26587 9.70311ZM5.21899 10.084C5.20191 10.0927 5.18482 10.1014 5.16721 10.1104C5.10474 10.1472 5.06205 10.1801 5.01587 10.2363C4.98738 10.3506 4.99219 10.4617 4.99603 10.5789C4.99632 10.6119 4.99661 10.645 4.9969 10.679C4.99768 10.7664 4.99967 10.8538 5.00192 10.9412C5.00401 11.0306 5.00493 11.1199 5.00595 11.2093C5.00812 11.3843 5.01159 11.5594 5.01587 11.7344C5.04269 11.7208 5.06951 11.7073 5.09715 11.6933C5.46301 11.5092 5.46301 11.5092 5.63794 11.4344C5.65378 11.4275 5.66962 11.4206 5.68594 11.4135C5.80005 11.3641 5.91477 11.3211 6.03149 11.2773C6.03149 10.7578 6.03149 10.2383 6.03149 9.70311C5.78217 9.70311 5.42264 9.95287 5.21899 10.084ZM10.9319 11.3789C10.9406 11.4417 10.9406 11.4417 10.9573 11.5058C11.0232 11.5388 11.0709 11.5345 11.1447 11.5346C11.1738 11.5347 11.2028 11.5348 11.2327 11.535C11.2647 11.5349 11.2966 11.5349 11.3296 11.5349C11.3635 11.535 11.3974 11.5351 11.4313 11.5352C11.5235 11.5354 11.6158 11.5355 11.708 11.5355C11.7849 11.5355 11.8618 11.5356 11.9387 11.5357C12.1202 11.5359 12.3016 11.536 12.483 11.5359C12.6704 11.5359 12.8577 11.5362 13.045 11.5366C13.2057 11.5369 13.3664 11.5371 13.5271 11.537C13.6231 11.537 13.7191 11.5371 13.8152 11.5374C13.9055 11.5376 13.9958 11.5376 14.0861 11.5374C14.1351 11.5374 14.1841 11.5376 14.2331 11.5378C14.2622 11.5377 14.2913 11.5376 14.3213 11.5375C14.3466 11.5375 14.3719 11.5375 14.398 11.5376C14.4676 11.5356 14.4676 11.5356 14.5374 11.4805C14.5286 11.4177 14.5286 11.4177 14.512 11.3535C14.4461 11.3206 14.3983 11.3248 14.3245 11.3247C14.2955 11.3246 14.2665 11.3245 14.2366 11.3244C14.2046 11.3244 14.1726 11.3244 14.1396 11.3244C14.1057 11.3243 14.0718 11.3243 14.0379 11.3242C13.9457 11.3239 13.8535 11.3239 13.7613 11.3239C13.6843 11.3238 13.6074 11.3237 13.5305 11.3237C13.3491 11.3235 13.1676 11.3234 12.9862 11.3234C12.7989 11.3234 12.6116 11.3232 12.4242 11.3228C12.2635 11.3224 12.1029 11.3223 11.9422 11.3223C11.8461 11.3223 11.7501 11.3222 11.6541 11.322C11.5638 11.3217 11.4735 11.3217 11.3832 11.3219C11.3341 11.3219 11.2851 11.3217 11.2361 11.3215C11.207 11.3216 11.1779 11.3217 11.148 11.3218C11.1226 11.3218 11.0973 11.3218 11.0712 11.3218C11.0017 11.3238 11.0017 11.3238 10.9319 11.3789ZM6.43774 11.6074C6.43774 12.2023 6.43774 12.7972 6.43774 13.4101C6.60113 13.3976 6.60113 13.3976 6.76782 13.3848C6.83237 13.3827 6.89695 13.3814 6.96152 13.3814C6.9946 13.3813 7.02767 13.3813 7.06175 13.3813C7.09515 13.3814 7.12855 13.3815 7.16296 13.3816C7.19646 13.3815 7.22996 13.3814 7.26448 13.3813C7.31404 13.3813 7.31404 13.3813 7.3646 13.3814C7.39388 13.3814 7.42316 13.3814 7.45333 13.3815C7.58902 13.3859 7.72432 13.3989 7.85962 13.4101C7.85962 12.8152 7.85962 12.2203 7.85962 11.6074C7.59862 11.5646 7.59862 11.5646 7.34228 11.5499C7.31047 11.5498 7.27866 11.5498 7.24588 11.5497C7.2138 11.5499 7.18173 11.5501 7.14868 11.5503C7.11661 11.5501 7.08453 11.5499 7.05148 11.5497C7.01967 11.5498 6.98786 11.5498 6.95508 11.5499C6.927 11.5499 6.89891 11.55 6.86998 11.5501C6.72494 11.5594 6.5814 11.5853 6.43774 11.6074ZM8.26587 11.7344C8.26587 12.3209 8.26587 12.9074 8.26587 13.5117C8.47534 13.5955 8.68481 13.6793 8.90063 13.7656C9.1595 13.8977 9.1595 13.8977 9.28149 13.9687C9.2868 13.75 9.29085 13.5313 9.29333 13.3125C9.29452 13.2109 9.29614 13.1094 9.29873 13.0078C9.30122 12.9097 9.30258 12.8116 9.30317 12.7134C9.3036 12.6761 9.30442 12.6387 9.30565 12.6014C9.31731 12.3906 9.31731 12.3906 9.23169 12.2057C9.17402 12.1603 9.11767 12.1243 9.05298 12.0898C9.02863 12.0733 9.00428 12.0568 8.97919 12.0398C8.64126 11.8319 8.64126 11.8319 8.26587 11.7344ZM5.21899 12.1152C5.19336 12.1275 5.19336 12.1275 5.16721 12.1401C5.10245 12.1768 5.06191 12.2086 5.01587 12.2676C4.98695 12.3964 4.99218 12.5235 4.99603 12.6546C4.99641 12.6925 4.9967 12.7304 4.9969 12.7683C4.99768 12.8678 4.99967 12.9672 5.00192 13.0666C5.00401 13.1682 5.00493 13.2698 5.00595 13.3715C5.00812 13.5706 5.01159 13.7697 5.01587 13.9687C5.04352 13.9549 5.07117 13.941 5.09966 13.9267C5.13643 13.9083 5.1732 13.8899 5.20997 13.8714C5.22813 13.8623 5.2463 13.8532 5.26502 13.8438C5.51609 13.7181 5.76842 13.6129 6.03149 13.5117C6.03149 12.9252 6.03149 12.3387 6.03149 11.7344C5.78217 11.7344 5.42264 11.9841 5.21899 12.1152ZM11.5159 11.9375C11.5159 12.8759 11.5159 13.8144 11.5159 14.7812C11.851 14.7812 12.1862 14.7812 12.5315 14.7812C12.5315 13.8428 12.5315 12.9044 12.5315 11.9375C12.1963 11.9375 11.8612 11.9375 11.5159 11.9375ZM12.9377 11.9375C12.9377 12.8759 12.9377 13.8144 12.9377 14.7812C13.2729 14.7812 13.6081 14.7812 13.9534 14.7812C13.9534 13.8428 13.9534 12.9044 13.9534 11.9375C13.6182 11.9375 13.2831 11.9375 12.9377 11.9375ZM6.43774 13.8418C6.43774 14.1518 6.43774 14.4618 6.43774 14.7812C6.90696 14.7812 7.37618 14.7812 7.85962 14.7812C7.85962 14.4712 7.85962 14.1612 7.85962 13.8418C7.59862 13.799 7.59862 13.799 7.34228 13.7843C7.31047 13.7842 7.27866 13.7841 7.24588 13.7841C7.2138 13.7843 7.18173 13.7845 7.14868 13.7847C7.11661 13.7845 7.08453 13.7843 7.05148 13.7841C7.01967 13.7841 6.98786 13.7842 6.95508 13.7843C6.927 13.7843 6.89891 13.7844 6.86998 13.7844C6.72494 13.7938 6.5814 13.8197 6.43774 13.8418ZM8.26587 13.9687C8.26587 14.2369 8.26587 14.505 8.26587 14.7812C8.60103 14.7812 8.93618 14.7812 9.28149 14.7812C9.28149 14.6891 9.28149 14.5969 9.28149 14.5019C9.20312 14.4236 9.14597 14.3789 9.05298 14.3242C9.03059 14.3097 9.0082 14.2951 8.98514 14.2802C8.64579 14.067 8.64579 14.067 8.26587 13.9687ZM5.21899 14.3496C5.19684 14.3618 5.17468 14.3739 5.15185 14.3865C5.08682 14.4229 5.08682 14.4229 5.01587 14.5019C5.01587 14.5941 5.01587 14.6863 5.01587 14.7812C5.35103 14.7812 5.68618 14.7812 6.03149 14.7812C6.03149 14.5131 6.03149 14.245 6.03149 13.9687C5.77876 13.9687 5.42709 14.2206 5.21899 14.3496ZM4.63501 15.2383C4.64376 15.3011 4.64376 15.3011 4.6604 15.3652C4.73651 15.4033 4.81457 15.3941 4.89804 15.3939C4.91762 15.3939 4.93721 15.394 4.95738 15.394C5.0237 15.3941 5.09001 15.3941 5.15633 15.394C5.20407 15.3941 5.25182 15.3941 5.29957 15.3942C5.43131 15.3943 5.56306 15.3943 5.69481 15.3943C5.83668 15.3943 5.97856 15.3944 6.12043 15.3946C6.39858 15.3948 6.67674 15.3948 6.95489 15.3949C7.18087 15.3949 7.40685 15.3949 7.63283 15.395C8.16862 15.3952 8.70441 15.3953 9.24021 15.3953C9.25735 15.3953 9.2745 15.3953 9.29216 15.3953C9.37907 15.3953 9.46598 15.3953 9.55288 15.3953C9.57878 15.3953 9.57878 15.3953 9.60519 15.3953C9.6401 15.3953 9.675 15.3953 9.70991 15.3953C10.2532 15.3953 10.7964 15.3955 11.3396 15.3958C11.9495 15.3962 12.5594 15.3964 13.1693 15.3964C13.4924 15.3964 13.8155 15.3965 14.1386 15.3968C14.4136 15.397 14.6887 15.397 14.9637 15.3969C15.1042 15.3968 15.2446 15.3968 15.385 15.397C15.5135 15.3972 15.6419 15.3972 15.7703 15.3969C15.8169 15.3969 15.8635 15.397 15.9101 15.3971C15.9732 15.3973 16.0362 15.3971 16.0993 15.3969C16.1176 15.3971 16.136 15.3972 16.1549 15.3973C16.2479 15.3966 16.2858 15.3929 16.3655 15.3398C16.3567 15.277 16.3567 15.277 16.3401 15.2129C16.264 15.1748 16.1859 15.184 16.1025 15.1842C16.0829 15.1842 16.0633 15.1841 16.0431 15.1841C15.9768 15.184 15.9105 15.184 15.8442 15.1841C15.7964 15.184 15.7487 15.184 15.7009 15.1839C15.5692 15.1838 15.4374 15.1838 15.3057 15.1838C15.1638 15.1838 15.0219 15.1837 14.8801 15.1835C14.6019 15.1833 14.3237 15.1833 14.0456 15.1832C13.8196 15.1832 13.5936 15.1832 13.3677 15.1831C12.8319 15.1829 12.2961 15.1828 11.7603 15.1828C11.7346 15.1828 11.7346 15.1828 11.7083 15.1828C11.6214 15.1828 11.5345 15.1828 11.4476 15.1828C11.4303 15.1828 11.4131 15.1828 11.3953 15.1828C11.3604 15.1828 11.3255 15.1828 11.2906 15.1828C10.7473 15.1828 10.2041 15.1826 9.66085 15.1823C9.05096 15.1819 8.44107 15.1817 7.83118 15.1817C7.50809 15.1817 7.185 15.1816 6.8619 15.1813C6.58686 15.1811 6.31182 15.1811 6.03678 15.1812C5.89633 15.1813 5.75589 15.1813 5.61544 15.1811C5.48703 15.1809 5.35863 15.1809 5.23022 15.1812C5.18361 15.1812 5.13699 15.1811 5.09038 15.181C5.02733 15.1808 4.96429 15.181 4.90123 15.1812C4.88287 15.181 4.86451 15.1809 4.84559 15.1808C4.75261 15.1815 4.71466 15.1852 4.63501 15.2383Z" fill="#00080C"/>
<path d="M10.1953 7.8623C10.2134 7.86191 10.2315 7.86152 10.2501 7.86111C10.3314 7.86172 10.3875 7.86775 10.456 7.91299C10.5172 8.00144 10.556 8.09413 10.5952 8.19397C10.6032 8.21346 10.6113 8.23295 10.6195 8.25303C10.6777 8.39757 10.6777 8.39757 10.6777 8.48438C10.6945 8.48438 10.7113 8.48438 10.7285 8.48438C10.7322 8.45978 10.7322 8.45978 10.7359 8.43468C10.7601 8.33078 10.7992 8.23538 10.8396 8.13684C10.8473 8.11725 10.8551 8.09766 10.863 8.07748C10.8707 8.05874 10.8783 8.04 10.8862 8.0207C10.8931 8.00369 10.9 7.98668 10.9071 7.96915C10.9316 7.92578 10.9316 7.92578 11.0078 7.875C11.0763 7.86871 11.1409 7.8656 11.2094 7.86548C11.2275 7.86486 11.2457 7.86423 11.2645 7.86359C11.3479 7.86313 11.4018 7.86605 11.4701 7.91589C11.5307 7.99667 11.5279 8.04617 11.5272 8.14659C11.5272 8.16344 11.5272 8.1803 11.5272 8.19766C11.5271 8.25318 11.5263 8.30866 11.5255 8.36417C11.5254 8.40273 11.5252 8.4413 11.5251 8.47986C11.5247 8.58122 11.5237 8.68256 11.5226 8.78391C11.5216 8.88738 11.5211 8.99086 11.5206 9.09435C11.5195 9.29728 11.5177 9.5002 11.5156 9.70312C11.3816 9.70312 11.2475 9.70312 11.1094 9.70312C11.101 9.39311 11.0926 9.08309 11.084 8.76367C11.0203 8.92005 11.0203 8.92005 10.9572 9.07663C10.9491 9.09609 10.941 9.11555 10.9327 9.1356C10.9246 9.15555 10.9165 9.17549 10.9082 9.19604C10.8809 9.24609 10.8809 9.24609 10.8047 9.29688C10.6617 9.31049 10.6617 9.31049 10.6016 9.29688C10.5 9.19531 10.5 9.19531 10.3223 8.76367C10.3139 9.07369 10.3055 9.38371 10.2969 9.70312C10.1628 9.70312 10.0288 9.70312 9.89063 9.70312C9.88834 9.47976 9.88647 9.25641 9.88537 9.03304C9.88484 8.92932 9.88412 8.82561 9.88297 8.72189C9.88187 8.6218 9.88126 8.52171 9.881 8.42161C9.88081 8.38342 9.88044 8.34524 9.87989 8.30705C9.87916 8.25355 9.87905 8.20009 9.8791 8.14659C9.87888 8.11614 9.87865 8.08569 9.87842 8.05432C9.90718 7.87119 10.0337 7.85879 10.1953 7.8623Z" fill="#00080C"/>
<path d="M12.3662 7.86151C12.3929 7.86138 12.4196 7.86125 12.4471 7.86111C12.4749 7.86151 12.5027 7.8619 12.5312 7.8623C12.5729 7.86172 12.5729 7.86172 12.6154 7.86111C12.6421 7.86125 12.6688 7.86138 12.6963 7.86151C12.7328 7.86168 12.7328 7.86168 12.7701 7.86186C12.8565 7.87911 12.8814 7.90914 12.9375 7.97656C12.9651 8.04882 12.9651 8.04882 12.9863 8.13332C12.9985 8.18085 12.9985 8.18085 13.0109 8.22935C13.0194 8.26384 13.0278 8.29833 13.0363 8.33282C13.0452 8.36831 13.0542 8.40378 13.0632 8.43925C13.0819 8.51347 13.1004 8.58775 13.1187 8.66207C13.1422 8.75727 13.1661 8.85235 13.1901 8.9474C13.2086 9.02061 13.227 9.09385 13.2453 9.1671C13.254 9.20217 13.2628 9.23724 13.2716 9.2723C13.2839 9.3213 13.296 9.37036 13.3081 9.41941C13.315 9.4473 13.3219 9.47518 13.329 9.50391C13.3438 9.57617 13.3438 9.57617 13.3438 9.67773C13.2957 9.6913 13.2475 9.70444 13.1993 9.71741C13.1591 9.72845 13.1591 9.72845 13.1181 9.73972C13.0391 9.75391 13.0391 9.75391 12.9121 9.72852C12.8618 9.52742 12.8116 9.32633 12.7598 9.11914C12.6089 9.11914 12.4581 9.11914 12.3027 9.11914C12.2525 9.32023 12.2022 9.52133 12.1504 9.72852C12.026 9.75339 11.9806 9.74967 11.8632 9.71741C11.836 9.71011 11.8089 9.70281 11.7809 9.69529C11.7604 9.6895 11.7399 9.6837 11.7188 9.67773C11.7364 9.4907 11.7807 9.31262 11.8264 9.13065C11.8346 9.09759 11.8429 9.06454 11.8511 9.03149C11.8684 8.96258 11.8858 8.8937 11.9032 8.82483C11.9255 8.73675 11.9473 8.64856 11.969 8.56034C11.9859 8.49219 12.003 8.42412 12.0203 8.35607C12.0325 8.30786 12.0443 8.25956 12.0561 8.21126C12.0636 8.18193 12.0711 8.1526 12.0789 8.12238C12.0886 8.08372 12.0886 8.08372 12.0985 8.04428C12.1519 7.90774 12.2228 7.86219 12.3662 7.86151ZM12.5059 8.28125C12.457 8.41679 12.4196 8.54404 12.4043 8.6875C12.4881 8.6875 12.5719 8.6875 12.6582 8.6875C12.651 8.64357 12.6435 8.59967 12.636 8.55579C12.6298 8.51911 12.6298 8.51911 12.6235 8.4817C12.6079 8.41048 12.5857 8.34797 12.5566 8.28125C12.5399 8.28125 12.5231 8.28125 12.5059 8.28125Z" fill="#00080C"/>
<path d="M14.7657 7.875C14.8998 7.875 15.0338 7.875 15.1719 7.875C15.1719 8.34422 15.1719 8.81344 15.1719 9.29688C15.373 9.29688 15.5741 9.29688 15.7813 9.29688C15.7813 9.43094 15.7813 9.565 15.7813 9.70313C15.653 9.70546 15.5247 9.70748 15.3964 9.7087C15.3527 9.70921 15.3091 9.70991 15.2654 9.71079C15.2027 9.71202 15.1399 9.7126 15.0771 9.71304C15.0479 9.71383 15.0479 9.71383 15.0181 9.71463C14.9343 9.71467 14.88 9.71242 14.8112 9.66225C14.7506 9.58146 14.7534 9.53199 14.7542 9.43154C14.7541 9.41468 14.7541 9.39783 14.7541 9.38046C14.7542 9.32495 14.755 9.26947 14.7558 9.21396C14.756 9.17539 14.7561 9.13683 14.7562 9.09826C14.7566 8.99691 14.7576 8.89557 14.7587 8.79422C14.7598 8.69074 14.7602 8.58726 14.7607 8.48378C14.7618 8.28085 14.7636 8.07793 14.7657 7.875Z" fill="#00080C"/>
<path d="M13.5469 7.875C13.681 7.875 13.8151 7.875 13.9532 7.875C13.9532 8.34422 13.9532 8.81344 13.9532 9.29688C14.1543 9.29688 14.3554 9.29688 14.5626 9.29688C14.5626 9.43094 14.5626 9.565 14.5626 9.70313C14.4342 9.70546 14.306 9.70748 14.1776 9.7087C14.134 9.70921 14.0903 9.70991 14.0467 9.71079C13.9839 9.71202 13.9212 9.7126 13.8584 9.71304C13.8292 9.71383 13.8292 9.71383 13.7994 9.71463C13.7155 9.71467 13.6612 9.71242 13.5925 9.66225C13.5319 9.58146 13.5347 9.53199 13.5354 9.43154C13.5354 9.41468 13.5354 9.39783 13.5354 9.38046C13.5354 9.32495 13.5362 9.26947 13.537 9.21396C13.5372 9.17539 13.5374 9.13683 13.5375 9.09826C13.5378 8.99691 13.5388 8.89557 13.54 8.79422C13.541 8.69074 13.5415 8.58726 13.542 8.48378C13.5431 8.28085 13.5449 8.07793 13.5469 7.875Z" fill="#00080C"/>
</g>
<defs>
<clipPath id="clip0_546_717">
<rect width="13" height="13" fill="white" transform="translate(4 3)"/>
</clipPath>
</defs>
</svg>
