<svg width="30" height="30" viewBox="0 0 30 30" fill="none" xmlns="http://www.w3.org/2000/svg">
<path d="M25.5308 10.3124C25.4125 9.91812 24.9788 9.68155 24.5845 9.79983L22.968 10.273L22.0217 9.40555L22.2977 8.14388L23.9537 7.63131C24.3479 7.51307 24.5845 7.07938 24.4662 6.68509C24.3479 6.2908 23.9142 6.05424 23.52 6.17252L21.4303 6.80337C21.1937 6.88221 20.9966 7.07938 20.9177 7.35534L20.4841 9.12958L16.2259 10.7461C15.4374 9.68155 14.1756 8.97186 12.7563 8.97186C10.3906 8.97186 8.45866 10.9432 8.45866 13.2695C8.45866 14.058 8.69522 14.8071 9.08951 15.4774V23.1263H7.82784C7.39415 23.1263 7.03931 23.4811 7.03931 23.9148C7.03931 24.3485 7.39415 24.7034 7.82784 24.7034H17.7241C18.1578 24.7034 18.4733 24.3485 18.5127 23.9148C18.5127 23.4811 18.1578 23.1263 17.7241 23.1263H16.4625V15.3591C16.8173 14.7283 17.0539 13.9792 17.0539 13.2301C17.0539 12.8358 17.0144 12.4809 16.8961 12.1261L20.9966 10.549L22.2188 11.7318C22.3371 11.8501 22.5343 11.9289 22.7314 11.9289C22.7709 11.9289 22.8497 11.9289 22.9285 11.8895L25.0182 11.2586C25.4125 11.1404 25.649 10.7067 25.5308 10.3124ZM14.8853 23.1263H10.6666V16.9757C11.2975 17.3305 12.0072 17.5276 12.7563 17.5276C13.5448 17.5276 14.2545 17.3305 14.8853 16.9362V23.1263ZM12.7563 15.9506C11.258 15.9506 10.0358 14.7283 10.0358 13.2301C10.0358 11.7318 11.258 10.5096 12.7563 10.5096C14.2545 10.5096 15.4768 11.7318 15.4768 13.2301C15.4768 14.7283 14.2545 15.9506 12.7563 15.9506Z" fill="#1A8656"/>
<circle cx="14.978" cy="15.403" r="14.553" fill="#1A8656" fill-opacity="0.2"/>
</svg>
