<svg width="20" height="20" viewBox="0 0 20 20" fill="none" xmlns="http://www.w3.org/2000/svg">
<g clip-path="url(#clip0_598_121)">
<path d="M0.380795 1.37315C0.444001 1.37264 0.444001 1.37264 0.508485 1.37212C0.554783 1.37232 0.601081 1.37252 0.648782 1.37273C0.69796 1.3725 0.747138 1.37227 0.797806 1.37204C0.934427 1.37142 1.07104 1.37151 1.20766 1.37171C1.35495 1.37181 1.50224 1.37127 1.64954 1.37081C1.93813 1.37002 2.22672 1.36985 2.51531 1.36992C2.7498 1.36997 2.9843 1.36982 3.21879 1.36955C3.28628 1.36947 3.35377 1.36939 3.42126 1.36931C3.45485 1.36927 3.48844 1.36923 3.52304 1.36919C4.15854 1.36848 4.79403 1.36852 5.42953 1.36878C6.01129 1.36899 6.59304 1.36821 7.17479 1.36696C7.77178 1.3657 8.36877 1.36513 8.96577 1.3653C9.30108 1.36539 9.63638 1.36519 9.97169 1.36426C10.2571 1.36347 10.5425 1.36333 10.8279 1.36404C10.9736 1.36439 11.1193 1.36443 11.265 1.36366C11.4228 1.36283 11.5805 1.36345 11.7382 1.36422C11.7845 1.36375 11.8308 1.36328 11.8785 1.36279C12.1864 1.36603 12.1864 1.36603 12.3158 1.47358C12.3797 1.61303 12.3824 1.74117 12.3795 1.89157C12.3795 1.92175 12.3795 1.95192 12.3794 1.98302C12.3792 2.04659 12.3786 2.11016 12.3777 2.17373C12.3763 2.27093 12.3762 2.36807 12.3762 2.46528C12.3758 2.52717 12.3754 2.58906 12.3749 2.65095C12.3748 2.67994 12.3747 2.70892 12.3746 2.73879C12.3701 2.99678 12.3701 2.99678 12.2873 3.11252C12.0857 3.2133 11.8376 3.15002 11.6123 3.15002C11.6123 4.42465 11.6123 5.69927 11.6123 7.01252C12.4224 7.01056 12.4224 7.01056 13.2489 7.00856C13.5902 7.00799 13.9315 7.00744 14.2728 7.00703C14.815 7.00636 15.3572 7.00557 15.8994 7.00403C16.2943 7.00291 16.6891 7.00219 17.0839 7.00193C17.2931 7.00179 17.5022 7.00144 17.7114 7.00062C17.9081 6.99986 18.1048 6.99963 18.3015 6.99979C18.3739 6.99976 18.4462 6.99954 18.5185 6.99911C18.617 6.99855 18.7155 6.99868 18.814 6.99899C18.8429 6.99866 18.8717 6.99834 18.9014 6.998C19.0942 6.99964 19.0942 6.99964 19.1862 7.06517C19.2348 7.14054 19.2392 7.18772 19.2399 7.27714C19.2404 7.30755 19.2409 7.33796 19.2414 7.3693C19.2412 7.41834 19.2412 7.41834 19.241 7.46838C19.2412 7.50208 19.2414 7.53578 19.2416 7.5705C19.2419 7.64174 19.2418 7.71298 19.2415 7.78422C19.2412 7.89337 19.2423 8.00245 19.2434 8.11159C19.2435 8.18078 19.2435 8.24997 19.2434 8.31916C19.2438 8.35186 19.2442 8.38455 19.2446 8.41824C19.2443 8.44865 19.2439 8.47906 19.2436 8.5104C19.2436 8.55048 19.2436 8.55048 19.2436 8.59138C19.2248 8.66252 19.2248 8.66252 19.0748 8.77502C18.852 8.77502 18.6293 8.77502 18.3998 8.77502C18.3998 11.1758 18.3998 13.5765 18.3998 16.05C18.6349 16.05 18.87 16.05 19.1123 16.05C19.2389 16.1766 19.2389 16.1766 19.2399 16.3146C19.2404 16.3451 19.2409 16.3755 19.2414 16.4068C19.2412 16.4558 19.2412 16.4558 19.241 16.5059C19.2413 16.5564 19.2413 16.5564 19.2416 16.608C19.2419 16.6792 19.2418 16.7505 19.2415 16.8217C19.2412 16.9309 19.2423 17.0399 19.2434 17.1491C19.2435 17.2183 19.2435 17.2875 19.2434 17.3567C19.2438 17.3894 19.2442 17.4221 19.2446 17.4557C19.2443 17.4862 19.2439 17.5166 19.2436 17.5479C19.2436 17.588 19.2436 17.588 19.2436 17.6289C19.2248 17.7 19.2248 17.7 19.1682 17.7598C19.0354 17.8347 18.9099 17.828 18.7616 17.8267C18.7295 17.8268 18.6975 17.827 18.6645 17.8272C18.5564 17.8276 18.4483 17.8272 18.3402 17.8268C18.2622 17.8269 18.1843 17.8271 18.1063 17.8273C17.8914 17.8278 17.6766 17.8276 17.4617 17.8272C17.2302 17.827 16.9987 17.8274 16.7672 17.8277C16.3397 17.8281 15.9122 17.8281 15.4848 17.8278C15.0899 17.8275 14.695 17.8274 14.3001 17.8276C14.2609 17.8276 14.2609 17.8276 14.2208 17.8276C14.1146 17.8276 14.0084 17.8277 13.9022 17.8277C12.9052 17.8281 11.9083 17.8277 10.9113 17.8271C10.0251 17.8266 9.13896 17.8266 8.25279 17.8272C7.25769 17.8278 6.2626 17.828 5.2675 17.8277C5.16146 17.8276 5.05543 17.8276 4.94939 17.8276C4.91023 17.8276 4.91023 17.8276 4.87027 17.8275C4.4756 17.8274 4.08092 17.8276 3.68624 17.8279C3.23758 17.8282 2.78892 17.8281 2.34025 17.8275C2.11117 17.8272 1.8821 17.8271 1.65302 17.8274C1.44355 17.8278 1.23408 17.8276 1.02461 17.827C0.948604 17.8269 0.872597 17.8269 0.79659 17.8272C0.693708 17.8275 0.59085 17.8272 0.487969 17.8267C0.443142 17.8271 0.443142 17.8271 0.397408 17.8275C0.274951 17.8262 0.189128 17.8206 0.0813622 17.7598C0.0106243 17.6851 0.00597259 17.6498 0.00594883 17.5479C0.00559704 17.5175 0.00524526 17.4871 0.00488281 17.4557C0.00530409 17.423 0.00572536 17.3903 0.0061594 17.3567C0.00610483 17.323 0.00605026 17.2893 0.00599403 17.2545C0.00605627 17.1833 0.00649014 17.1121 0.00726719 17.0408C0.00835263 16.9317 0.00804017 16.8226 0.007551 16.7134C0.00778491 16.6443 0.00809958 16.5751 0.00850315 16.5059C0.00839306 16.4732 0.00828298 16.4405 0.00816956 16.4068C0.00864521 16.3764 0.00912087 16.346 0.00961094 16.3146C0.00991486 16.2746 0.00991486 16.2746 0.0102249 16.2337C0.0247629 16.1625 0.0247629 16.1625 0.137263 16.05C0.335263 16.05 0.533263 16.05 0.737263 16.05C0.737263 11.793 0.737263 7.53602 0.737263 3.15002C0.539263 3.15002 0.341263 3.15002 0.137263 3.15002C0.0106573 3.02341 0.0106573 3.02341 0.00961094 2.8854C0.00913528 2.85499 0.00865963 2.82458 0.00816956 2.79324C0.00827964 2.76055 0.00838973 2.72785 0.00850315 2.69416C0.0082083 2.64361 0.0082083 2.64361 0.00790749 2.59204C0.00766665 2.5208 0.00771697 2.44956 0.00803623 2.37832C0.0083555 2.26917 0.00727672 2.16009 0.00608616 2.05095C0.00602571 1.98176 0.00604736 1.91257 0.0061594 1.84338C0.00573813 1.81068 0.00531685 1.77798 0.00488281 1.7443C0.0052346 1.71389 0.00558638 1.68348 0.00594883 1.65214C0.00595506 1.62542 0.00596129 1.5987 0.00596771 1.57116C0.0536676 1.39061 0.217937 1.37342 0.380795 1.37315ZM0.549763 1.95002C0.549763 2.1604 0.549763 2.37077 0.549763 2.58752C4.26226 2.58752 7.97476 2.58752 11.7998 2.58752C11.7998 2.37715 11.7998 2.16677 11.7998 1.95002C8.08726 1.95002 4.37476 1.95002 0.549763 1.95002ZM1.29976 3.15002C1.29976 7.40702 1.29976 11.664 1.29976 16.05C1.90614 16.05 2.51251 16.05 3.13726 16.05C3.13726 14.3546 3.13726 12.6593 3.13726 10.9125C2.95164 10.9001 2.76601 10.8878 2.57476 10.875C2.46226 10.6875 2.46226 10.6875 2.49039 10.5656C2.53726 10.4625 2.53726 10.4625 2.57476 10.425C2.66746 10.4211 2.75913 10.4196 2.85186 10.4198C2.88121 10.4196 2.91056 10.4195 2.94081 10.4194C3.03993 10.4191 3.13905 10.419 3.23817 10.419C3.30893 10.4188 3.37969 10.4186 3.45045 10.4184C3.64321 10.4179 3.83598 10.4177 4.02875 10.4175C4.14905 10.4174 4.26935 10.4172 4.38965 10.4171C4.76566 10.4166 5.14166 10.4162 5.51766 10.4161C5.95243 10.4159 6.38719 10.4152 6.82195 10.4141C7.15752 10.4133 7.49309 10.413 7.82867 10.4129C8.02931 10.4129 8.22996 10.4126 8.4306 10.412C8.61928 10.4114 8.80795 10.4113 8.99663 10.4116C9.06601 10.4116 9.13538 10.4115 9.20475 10.4111C9.29923 10.4106 9.39367 10.4108 9.48815 10.4112C9.51581 10.4109 9.54347 10.4106 9.57197 10.4103C9.68109 10.4114 9.75645 10.4125 9.84805 10.4751C9.90983 10.5734 9.90139 10.6495 9.88726 10.7625C9.77476 10.875 9.77476 10.875 9.24976 10.9125C9.24976 12.6079 9.24976 14.3033 9.24976 16.05C9.84376 16.05 10.4378 16.05 11.0498 16.05C11.0498 11.793 11.0498 7.53602 11.0498 3.15002C7.83226 3.15002 4.61476 3.15002 1.29976 3.15002ZM11.6123 7.57502C11.6123 7.78539 11.6123 7.99577 11.6123 8.21252C13.9511 8.21252 16.29 8.21252 18.6998 8.21252C18.6998 8.00214 18.6998 7.79177 18.6998 7.57502C16.3609 7.57502 14.022 7.57502 11.6123 7.57502ZM11.6123 8.77502C11.6123 11.1758 11.6123 13.5765 11.6123 16.05C13.6665 16.05 15.7208 16.05 17.8373 16.05C17.8373 13.6493 17.8373 11.2485 17.8373 8.77502C15.783 8.77502 13.7288 8.77502 11.6123 8.77502ZM3.69976 10.9125C3.69976 12.6079 3.69976 14.3033 3.69976 16.05C4.42989 16.05 5.16001 16.05 5.91226 16.05C5.91226 14.3546 5.91226 12.6593 5.91226 10.9125C5.18214 10.9125 4.45201 10.9125 3.69976 10.9125ZM6.47476 10.9125C6.47476 12.6079 6.47476 14.3033 6.47476 16.05C7.20489 16.05 7.93501 16.05 8.68726 16.05C8.68726 14.3546 8.68726 12.6593 8.68726 10.9125C7.95714 10.9125 7.22701 10.9125 6.47476 10.9125ZM0.549763 16.6125C0.549763 16.8229 0.549763 17.0333 0.549763 17.25C6.53926 17.25 12.5288 17.25 18.6998 17.25C18.6998 17.0396 18.6998 16.8293 18.6998 16.6125C12.7103 16.6125 6.72076 16.6125 0.549763 16.6125Z" fill="black"/>
<path d="M5.64752 4.25145C5.71276 4.25132 5.71276 4.25132 5.77931 4.25118C5.87113 4.25121 5.96296 4.25172 6.05477 4.25265C6.19544 4.25394 6.33602 4.25343 6.47669 4.2527C6.56592 4.25296 6.65516 4.25332 6.74439 4.2538C6.80756 4.25352 6.80756 4.25352 6.872 4.25323C6.93076 4.25412 6.93076 4.25412 6.99071 4.25503C7.04233 4.25538 7.04233 4.25538 7.09498 4.25574C7.21638 4.28114 7.2616 4.32844 7.33721 4.42504C7.35424 4.54878 7.35424 4.54878 7.35186 4.69398C7.35165 4.71957 7.35144 4.74516 7.35122 4.77153C7.35038 4.85293 7.3485 4.93427 7.34659 5.01566C7.34584 5.07098 7.34515 5.1263 7.34454 5.18163C7.34289 5.31695 7.3403 5.45224 7.33721 5.58754C7.36918 5.58714 7.40114 5.58675 7.43407 5.58635C7.55323 5.58506 7.67238 5.58413 7.79154 5.58342C7.84301 5.58304 7.89448 5.58253 7.94594 5.58188C8.02013 5.58096 8.09432 5.58058 8.16851 5.58021C8.21309 5.57982 8.25767 5.57943 8.3036 5.57902C8.42572 5.58761 8.50574 5.60257 8.61221 5.66254C8.685 5.77707 8.69695 5.86784 8.69811 6.00215C8.69859 6.03982 8.69907 6.0775 8.69956 6.11631C8.69964 6.15678 8.69973 6.19725 8.69981 6.23895C8.70019 6.30164 8.70019 6.30164 8.70057 6.3656C8.70095 6.45395 8.70112 6.54231 8.70111 6.63066C8.70128 6.76581 8.70264 6.90091 8.70406 7.03605C8.70428 7.12191 8.70443 7.20777 8.7045 7.29364C8.70504 7.33403 8.70558 7.37443 8.70613 7.41605C8.70513 7.58047 8.70164 7.69568 8.62846 7.8446C8.5016 7.93905 8.41723 7.93396 8.26007 7.93085C8.22043 7.93045 8.22043 7.93045 8.18 7.93004C8.0959 7.929 8.0119 7.92664 7.92784 7.92425C7.87071 7.92331 7.81358 7.92246 7.75645 7.92169C7.61668 7.91963 7.47695 7.91639 7.33721 7.91254C7.3382 7.9481 7.33918 7.98367 7.34019 8.02031C7.34339 8.15254 7.34574 8.28474 7.34751 8.41699C7.34846 8.47418 7.34973 8.53136 7.35136 8.58852C7.35364 8.67082 7.3547 8.75306 7.35552 8.83539C7.35651 8.88488 7.35749 8.93436 7.3585 8.98535C7.33721 9.11254 7.33721 9.11254 7.26971 9.20353C7.0865 9.29362 6.91304 9.28469 6.71143 9.28378C6.64757 9.28412 6.64757 9.28412 6.58243 9.28448C6.49253 9.28475 6.40263 9.28463 6.31274 9.28415C6.17519 9.28363 6.03774 9.28491 5.9002 9.28634C5.8128 9.28638 5.7254 9.28631 5.63799 9.28612C5.5969 9.28662 5.5558 9.28711 5.51346 9.28763C5.33556 9.28545 5.23109 9.28298 5.07972 9.18435C4.99487 9.04694 4.99059 8.96336 4.9939 8.80243C4.99417 8.77689 4.99443 8.75135 4.99471 8.72504C4.99575 8.64401 4.9981 8.56307 5.00049 8.48207C5.00144 8.42692 5.00229 8.37177 5.00306 8.31661C5.00512 8.18189 5.00835 8.04722 5.01221 7.91254C4.97645 7.91312 4.94069 7.91371 4.90384 7.91432C4.77113 7.91636 4.63842 7.91765 4.5057 7.91872C4.44826 7.91928 4.39083 7.92005 4.3334 7.92102C4.25083 7.92239 4.16828 7.92303 4.0857 7.92352C4.06003 7.9241 4.03436 7.92468 4.00792 7.92528C3.83034 7.92534 3.83034 7.92534 3.74919 7.86801C3.6818 7.77542 3.68544 7.71371 3.68516 7.59972C3.6848 7.5588 3.68445 7.51788 3.68408 7.47571C3.68431 7.43153 3.68454 7.38735 3.68477 7.34183C3.68461 7.2738 3.68461 7.2738 3.68445 7.2044C3.68437 7.10844 3.68458 7.01249 3.68505 6.91653C3.68565 6.76937 3.68505 6.62225 3.68433 6.47508C3.68441 6.38197 3.68455 6.28885 3.68477 6.19574C3.68443 6.12947 3.68443 6.12947 3.68408 6.06186C3.68444 6.02094 3.68479 5.98001 3.68516 5.93785C3.68525 5.9018 3.68534 5.86575 3.68543 5.82861C3.70229 5.7211 3.72565 5.68898 3.81221 5.62504C3.94037 5.58232 4.03852 5.58328 4.17359 5.58387C4.24664 5.58405 4.24664 5.58405 4.32117 5.58424C4.37261 5.58455 4.42405 5.58487 4.47549 5.58519C4.52737 5.58538 4.57925 5.58555 4.63113 5.5857C4.75816 5.58615 4.88519 5.58676 5.01221 5.58754C5.01123 5.55444 5.01025 5.52134 5.00924 5.48724C5.00603 5.36388 5.00369 5.24057 5.00191 5.11718C5.00097 5.06389 4.9997 5.01061 4.99807 4.95733C4.99578 4.88052 4.99473 4.80378 4.9939 4.72694C4.99292 4.68079 4.99194 4.63464 4.99093 4.58709C5.01221 4.46254 5.01221 4.46254 5.07912 4.35373C5.26266 4.23396 5.43278 4.24891 5.64752 4.25145ZM5.57471 4.83754C5.56684 5.21504 5.56684 5.21504 5.56017 5.59256C5.5583 5.66295 5.5583 5.66295 5.5564 5.73475C5.55542 5.78287 5.55444 5.83098 5.55343 5.88055C5.53721 6.00004 5.53721 6.00004 5.49634 6.07167C5.38546 6.13493 5.2862 6.12914 5.15943 6.13173C5.11251 6.13297 5.06558 6.13421 5.01724 6.13549C4.95757 6.13642 4.89791 6.13736 4.83643 6.13832C4.64694 6.14218 4.45745 6.14605 4.26221 6.15004C4.26221 6.55841 4.26221 6.96679 4.26221 7.38754C4.65375 7.39541 4.65375 7.39541 5.0453 7.40208C5.09384 7.40333 5.14238 7.40457 5.19239 7.40585C5.23068 7.4062 5.23068 7.4062 5.26974 7.40656C5.34354 7.40882 5.34354 7.40882 5.46221 7.42504C5.55423 7.56306 5.54871 7.63806 5.55274 7.80282C5.55408 7.84974 5.55541 7.89666 5.55679 7.94501C5.55806 8.00468 5.55934 8.06434 5.56065 8.12582C5.56529 8.31531 5.56993 8.5048 5.57471 8.70004C5.97071 8.70004 6.36671 8.70004 6.77471 8.70004C6.78555 8.33656 6.78555 8.33656 6.79602 7.97307C6.79745 7.92776 6.79888 7.88246 6.80035 7.83578C6.80172 7.78943 6.8031 7.74309 6.80451 7.69534C6.81221 7.57504 6.81221 7.57504 6.84971 7.42504C7.27046 7.41266 7.69121 7.40029 8.12471 7.38754C8.12471 6.97916 8.12471 6.57079 8.12471 6.15004C7.70396 6.13766 7.28321 6.12529 6.84971 6.11254C6.81379 5.96886 6.80472 5.84927 6.80035 5.70179C6.79892 5.65649 6.79749 5.61118 6.79602 5.5645C6.79359 5.47845 6.79359 5.47845 6.79112 5.39066C6.783 5.11686 6.783 5.11686 6.77471 4.83754C6.37871 4.83754 5.98271 4.83754 5.57471 4.83754Z" fill="black"/>
<path d="M15.6367 13.1778C15.6933 13.1777 15.6933 13.1777 15.751 13.1777C15.8307 13.1779 15.9104 13.1786 15.9901 13.1797C16.112 13.1813 16.2339 13.1812 16.3559 13.181C16.4334 13.1814 16.5108 13.1819 16.5883 13.1824C16.643 13.1825 16.643 13.1825 16.6988 13.1825C16.7329 13.1831 16.7669 13.1837 16.802 13.1843C16.8318 13.1846 16.8617 13.1849 16.8925 13.1852C16.9966 13.2039 17.0482 13.2407 17.125 13.3125C17.1589 13.4141 17.1675 13.4748 17.1685 13.5794C17.1689 13.6103 17.1692 13.6412 17.1696 13.6731C17.1698 13.7064 17.1699 13.7397 17.1701 13.7739C17.1703 13.8083 17.1705 13.8427 17.1707 13.878C17.1711 13.9507 17.1713 14.0234 17.1715 14.0961C17.1719 14.2071 17.173 14.3181 17.1742 14.4292C17.1744 14.4998 17.1746 14.5705 17.1748 14.6411C17.1752 14.6743 17.1757 14.7074 17.1762 14.7415C17.1755 14.9388 17.1591 15.0784 17.0125 15.225C16.958 15.2293 16.9034 15.231 16.8488 15.2317C16.814 15.2321 16.7792 15.2326 16.7434 15.2331C16.6865 15.2335 16.6865 15.2335 16.6285 15.234C16.5898 15.2343 16.5511 15.2346 16.5112 15.2349C16.4291 15.2354 16.347 15.2358 16.2649 15.2361C16.1392 15.2367 16.0135 15.2384 15.8878 15.24C15.8082 15.2404 15.7285 15.2407 15.6489 15.241C15.6112 15.2416 15.5735 15.2423 15.5347 15.243C15.3881 15.2425 15.282 15.242 15.1513 15.1726C15.0701 15.0182 15.0786 14.8697 15.0801 14.6978C15.0799 14.661 15.0798 14.6242 15.0796 14.5863C15.0795 14.5085 15.0798 14.4308 15.0804 14.353C15.0812 14.2342 15.0804 14.1154 15.0795 13.9965C15.0796 13.9209 15.0798 13.8453 15.0801 13.7697C15.0798 13.7342 15.0795 13.6987 15.0791 13.6622C15.0813 13.5136 15.0908 13.408 15.1521 13.2713C15.3054 13.1597 15.4517 13.1746 15.6367 13.1778ZM15.6625 13.7625C15.6625 14.0595 15.6625 14.3565 15.6625 14.6625C15.9719 14.6625 16.2812 14.6625 16.6 14.6625C16.6 14.3655 16.6 14.0685 16.6 13.7625C16.2906 13.7625 15.9812 13.7625 15.6625 13.7625Z" fill="black"/>
<path d="M15.6462 10.1778C15.6848 10.1777 15.7235 10.1777 15.7633 10.1777C15.8449 10.1779 15.9265 10.1786 16.0081 10.1797C16.1332 10.1813 16.2582 10.1812 16.3834 10.181C16.4626 10.1814 16.5419 10.1819 16.6212 10.1824C16.6587 10.1824 16.6962 10.1825 16.7348 10.1825C16.7696 10.1831 16.8044 10.1837 16.8403 10.1843C16.8709 10.1846 16.9015 10.1849 16.933 10.1852C17.032 10.2037 17.0642 10.2334 17.1249 10.3125C17.1588 10.4141 17.1675 10.4748 17.1685 10.5794C17.1688 10.6103 17.1692 10.6412 17.1696 10.6731C17.1697 10.7064 17.1699 10.7397 17.1701 10.7739C17.1703 10.8083 17.1705 10.8427 17.1707 10.878C17.1711 10.9507 17.1713 11.0234 17.1715 11.0961C17.1718 11.2071 17.173 11.3181 17.1742 11.4292C17.1744 11.4998 17.1746 11.5705 17.1747 11.6411C17.1752 11.6743 17.1757 11.7074 17.1762 11.7415C17.1754 11.9388 17.1591 12.0784 17.0124 12.225C16.958 12.2295 16.9034 12.2314 16.8488 12.2322C16.814 12.2329 16.7792 12.2335 16.7433 12.2341C16.5838 12.2357 16.4243 12.2373 16.2648 12.2381C16.1806 12.2388 16.0964 12.2398 16.0122 12.2412C15.8911 12.2433 15.77 12.2441 15.6488 12.2446C15.6112 12.2455 15.5735 12.2463 15.5347 12.2472C15.2794 12.2464 15.2794 12.2464 15.1513 12.1533C15.0783 11.9887 15.0785 11.8432 15.08 11.6649C15.0798 11.611 15.0798 11.611 15.0796 11.556C15.0795 11.4803 15.0798 11.4045 15.0804 11.3287C15.0812 11.2129 15.0804 11.0972 15.0794 10.9814C15.0795 10.9076 15.0797 10.8339 15.08 10.7602C15.0797 10.7256 15.0794 10.6911 15.0791 10.6555C15.0812 10.5095 15.0916 10.4063 15.1514 10.2719C15.3071 10.1583 15.4583 10.1747 15.6462 10.1778ZM15.6624 10.7625C15.6624 11.0595 15.6624 11.3565 15.6624 11.6625C15.9718 11.6625 16.2812 11.6625 16.5999 11.6625C16.5999 11.3655 16.5999 11.0685 16.5999 10.7625C16.2906 10.7625 15.9812 10.7625 15.6624 10.7625Z" fill="black"/>
<path d="M12.8618 13.1801C12.8995 13.1799 12.9372 13.1798 12.9761 13.1797C13.0558 13.1796 13.1354 13.1798 13.2151 13.1805C13.3371 13.1813 13.459 13.1805 13.581 13.1795C13.6585 13.1796 13.7359 13.1798 13.8133 13.1801C13.8498 13.1798 13.8863 13.1795 13.9239 13.1792C14.0672 13.1812 14.1703 13.1842 14.298 13.2521C14.3813 13.4088 14.3714 13.5619 14.37 13.7367C14.3701 13.7745 14.3703 13.8122 14.3704 13.851C14.3705 13.9307 14.3702 14.0104 14.3696 14.0901C14.3688 14.2121 14.3696 14.334 14.3706 14.456C14.3705 14.5334 14.3703 14.6109 14.37 14.6883C14.3703 14.7248 14.3706 14.7613 14.3709 14.7989C14.3689 14.9419 14.3656 15.0454 14.2986 15.173C14.139 15.2572 13.9815 15.2456 13.8038 15.2436C13.7652 15.2437 13.7265 15.2437 13.6867 15.2438C13.6051 15.2437 13.5235 15.2433 13.4419 15.2425C13.3168 15.2414 13.1917 15.2417 13.0666 15.2422C12.9874 15.242 12.9081 15.2417 12.8288 15.2413C12.7913 15.2414 12.7538 15.2415 12.7152 15.2416C12.663 15.2409 12.663 15.2409 12.6097 15.2402C12.5791 15.24 12.5485 15.2398 12.517 15.2396C12.4164 15.2211 12.3836 15.1958 12.3251 15.1125C12.3105 15.0331 12.3105 15.0331 12.3099 14.9403C12.3094 14.9055 12.309 14.8707 12.3085 14.8349C12.3086 14.7974 12.3087 14.7599 12.3088 14.7213C12.3086 14.6826 12.3084 14.644 12.3082 14.6043C12.308 14.5226 12.308 14.4409 12.3083 14.3592C12.3086 14.2342 12.3076 14.1092 12.3064 13.9842C12.3063 13.9049 12.3063 13.8256 12.3065 13.7463C12.306 13.7088 12.3056 13.6714 12.3052 13.6328C12.3066 13.4873 12.3085 13.3813 12.377 13.2515C12.534 13.1691 12.6871 13.1786 12.8618 13.1801ZM12.8876 13.7625C12.8876 14.0595 12.8876 14.3565 12.8876 14.6625C13.1846 14.6625 13.4816 14.6625 13.7876 14.6625C13.7876 14.3655 13.7876 14.0685 13.7876 13.7625C13.4906 13.7625 13.1936 13.7625 12.8876 13.7625Z" fill="black"/>
<path d="M12.8615 10.1801C12.8992 10.1799 12.9369 10.1798 12.9758 10.1796C13.0554 10.1795 13.1351 10.1798 13.2148 10.1804C13.3368 10.1812 13.4587 10.1804 13.5807 10.1795C13.6581 10.1796 13.7356 10.1798 13.813 10.1801C13.8495 10.1798 13.886 10.1795 13.9236 10.1791C14.0669 10.1811 14.17 10.1842 14.2977 10.2521C14.381 10.4088 14.3711 10.5618 14.3697 10.7367C14.3698 10.7744 14.3699 10.8121 14.3701 10.851C14.3702 10.9307 14.3699 11.0104 14.3693 11.0901C14.3685 11.212 14.3693 11.334 14.3702 11.4559C14.3701 11.5334 14.37 11.6108 14.3697 11.6883C14.37 11.7248 14.3703 11.7612 14.3706 11.7988C14.3686 11.9422 14.3655 12.0453 14.2977 12.1729C14.1409 12.2563 13.9879 12.2464 13.813 12.2449C13.7753 12.245 13.7376 12.2452 13.6987 12.2453C13.619 12.2454 13.5393 12.2452 13.4597 12.2445C13.3377 12.2437 13.2158 12.2445 13.0938 12.2455C13.0163 12.2454 12.9389 12.2452 12.8615 12.2449C12.825 12.2452 12.7885 12.2455 12.7509 12.2458C12.6075 12.2438 12.5045 12.2408 12.3768 12.1729C12.2935 12.0162 12.3034 11.8631 12.3048 11.6883C12.3047 11.6505 12.3045 11.6128 12.3044 11.574C12.3043 11.4943 12.3046 11.4146 12.3052 11.3349C12.306 11.2129 12.3052 11.091 12.3042 10.969C12.3043 10.8916 12.3045 10.8141 12.3048 10.7367C12.3045 10.7002 12.3042 10.6637 12.3039 10.6261C12.3059 10.4828 12.3089 10.3797 12.3768 10.2521C12.5336 10.1687 12.6866 10.1786 12.8615 10.1801ZM12.8872 10.7625C12.8872 11.0595 12.8872 11.3565 12.8872 11.6625C13.1842 11.6625 13.4812 11.6625 13.7872 11.6625C13.7872 11.3655 13.7872 11.0685 13.7872 10.7625C13.4902 10.7625 13.1932 10.7625 12.8872 10.7625Z" fill="black"/>
<path d="M7.01868 12.9164C7.14993 12.9375 7.14993 12.9375 7.23181 12.9917C7.33449 13.1361 7.32325 13.2684 7.32102 13.4414C7.32191 13.4731 7.32281 13.5049 7.32373 13.5375C7.32334 13.7043 7.31577 13.7788 7.21335 13.916C7.11243 13.9875 7.11243 13.9875 6.97649 13.9898C6.83267 13.9445 6.80634 13.9304 6.73743 13.8C6.72011 13.688 6.72002 13.578 6.72102 13.4648C6.72027 13.4349 6.71952 13.4049 6.71875 13.3741C6.71887 13.2239 6.72675 13.1429 6.80525 13.0113C6.88743 12.9375 6.88743 12.9375 7.01868 12.9164Z" fill="black"/>
<path d="M5.35217 12.9164C5.4937 12.9435 5.52834 12.97 5.61233 13.0875C5.63571 13.2128 5.63496 13.3353 5.63342 13.4625C5.63431 13.4963 5.63521 13.5302 5.63613 13.565C5.63558 13.8111 5.63558 13.8111 5.52575 13.9358C5.38629 14.0072 5.3104 13.9966 5.16233 13.95C5.0313 13.7912 5.0304 13.6403 5.03108 13.4437C5.03001 13.4157 5.02895 13.3877 5.02785 13.3589C5.02729 13.2011 5.03702 13.1414 5.13757 13.0126C5.23733 12.9375 5.23733 12.9375 5.35217 12.9164Z" fill="black"/>
</g>
<defs>
<clipPath id="clip0_598_121">
<rect width="19.2" height="19.2" fill="white" transform="translate(0.0249023)"/>
</clipPath>
</defs>
</svg>
