<svg width="34" height="34" viewBox="0 0 34 34" fill="none" xmlns="http://www.w3.org/2000/svg">
<g filter="url(#filter0_d_440_3)">
<circle cx="17" cy="17" r="13.5" fill="#333333"/>
</g>
<g clip-path="url(#clip0_440_3)">
<path d="M17.0085 16.995C15.2235 13.9033 15.6038 10.1619 17.6721 7.52441C18.2629 6.76764 17.4766 5.68583 16.5576 5.97396C15.485 6.31612 14.4417 6.84915 13.4738 7.59272C9.86805 10.3673 8.5967 15.3853 10.4497 19.5347C12.9177 25.0495 19.5144 27.0953 24.6066 24.1553C25.2388 23.7903 25.805 23.371 26.3276 22.8961C27.0453 22.2392 26.5152 21.0211 25.5508 21.1507C22.1172 21.6435 18.7299 19.9965 17.0085 16.995V16.995Z" fill="white"/>
</g>
<defs>
<filter id="filter0_d_440_3" x="2" y="2" width="30" height="30" filterUnits="userSpaceOnUse" color-interpolation-filters="sRGB">
<feFlood flood-opacity="0" result="BackgroundImageFix"/>
<feColorMatrix in="SourceAlpha" type="matrix" values="0 0 0 0 0 0 0 0 0 0 0 0 0 0 0 0 0 0 127 0" result="hardAlpha"/>
<feOffset/>
<feGaussianBlur stdDeviation="0.75"/>
<feComposite in2="hardAlpha" operator="out"/>
<feColorMatrix type="matrix" values="0 0 0 0 0 0 0 0 0 0 0 0 0 0 0 0 0 0 0.15 0"/>
<feBlend mode="normal" in2="BackgroundImageFix" result="effect1_dropShadow_440_3"/>
<feBlend mode="normal" in="SourceGraphic" in2="effect1_dropShadow_440_3" result="shape"/>
</filter>
<clipPath id="clip0_440_3">
<rect width="24" height="24" fill="white" transform="translate(0.607666 12.6077) rotate(-30)"/>
</clipPath>
</defs>
</svg>
