<svg width="33" height="33" viewBox="0 0 33 33" fill="none" xmlns="http://www.w3.org/2000/svg">
<ellipse cx="16.3616" cy="16.3622" rx="16.3616" ry="16.3622" fill="#1E552A"/>
<g clip-path="url(#clip0_40_135)">
<path d="M17.2891 3.12891C17.341 3.14353 17.3928 3.15815 17.4462 3.17322C18.2552 3.42059 18.9088 3.8393 19.5235 4.41797C19.5624 4.4527 19.5624 4.4527 19.6021 4.48813C20.4366 5.26413 20.926 6.52337 20.9845 7.64062C20.9879 7.6977 20.9879 7.6977 20.9913 7.75594C21.0043 8.17278 20.9448 8.61898 20.8126 9.01562C20.8873 9.01656 20.8873 9.01656 20.9635 9.01752C21.1501 9.02003 21.3367 9.02335 21.5233 9.0269C21.6037 9.02832 21.6842 9.02953 21.7646 9.03051C22.4814 9.0395 23.1121 9.11769 23.665 9.62827C24.0593 10.0531 24.251 10.5686 24.3619 11.1292C24.3717 11.1768 24.3816 11.2245 24.3918 11.2736C24.4196 11.4085 24.447 11.5435 24.4742 11.6786C24.5047 11.8294 24.5358 11.9801 24.5668 12.1308C24.6262 12.4198 24.6852 12.7089 24.7439 12.9981C24.8648 13.5924 24.9864 14.1865 25.108 14.7807C25.164 15.0543 25.22 15.3279 25.276 15.6015C25.2822 15.6321 25.2885 15.6628 25.295 15.6944C25.3844 16.1314 25.4737 16.5684 25.5629 17.0055C25.86 18.4604 26.1585 19.915 26.4634 21.3683C26.4817 21.4557 26.5001 21.5431 26.5184 21.6304C26.5398 21.7326 26.5613 21.8347 26.5828 21.9369C26.7353 22.6634 26.7787 23.3192 26.3893 23.9832C26.0203 24.5339 25.5416 24.8594 24.8946 25C24.648 25.0232 24.4034 25.0233 24.1559 25.0218C24.0824 25.022 24.0089 25.0223 23.9355 25.0226C23.735 25.0234 23.5345 25.023 23.334 25.0225C23.1173 25.0221 22.9005 25.0227 22.6838 25.0232C22.2597 25.0239 21.8356 25.0238 21.4116 25.0233C21.0668 25.0229 20.722 25.0228 20.3773 25.023C20.3281 25.023 20.279 25.0231 20.2284 25.0231C20.1286 25.0231 20.0287 25.0232 19.9289 25.0232C18.9936 25.0237 18.0583 25.0232 17.123 25.0222C16.3211 25.0215 15.5192 25.0216 14.7173 25.0224C13.7853 25.0233 12.8533 25.0237 11.9212 25.0232C11.8218 25.0231 11.7223 25.0231 11.6229 25.023C11.5739 25.023 11.525 25.0229 11.4746 25.0229C11.1304 25.0228 10.7862 25.023 10.442 25.0234C10.0223 25.0239 9.60265 25.0238 9.18298 25.0229C8.969 25.0224 8.75503 25.0222 8.54105 25.0228C8.34491 25.0233 8.14879 25.023 7.95265 25.0221C7.88196 25.0219 7.81127 25.022 7.74058 25.0224C7.03514 25.0263 6.44074 24.877 5.91048 24.385C5.47261 23.9147 5.29249 23.3229 5.2947 22.693C5.30455 22.4655 5.34906 22.2491 5.39653 22.0269C5.40732 21.9743 5.41811 21.9217 5.42922 21.8675C5.45339 21.7496 5.47789 21.6318 5.50262 21.514C5.54404 21.3168 5.58475 21.1194 5.62536 20.9219C5.67313 20.6899 5.72096 20.4578 5.769 20.2259C5.92637 19.4657 6.08142 18.705 6.23621 17.9442C6.27123 17.7721 6.30627 17.6 6.34131 17.428C6.34831 17.3935 6.35532 17.3591 6.36254 17.3236C6.37676 17.2538 6.39097 17.184 6.40518 17.1142C6.42664 17.0088 6.4481 16.9034 6.46955 16.798C6.49818 16.6574 6.5268 16.5168 6.55542 16.3762C6.58356 16.238 6.6117 16.0998 6.63984 15.9616C6.81842 15.0843 6.99753 14.2072 7.17782 13.3303C7.21559 13.1466 7.25328 12.9628 7.2909 12.779C7.35618 12.4602 7.42189 12.1415 7.48806 11.8229C7.50991 11.7174 7.53163 11.6118 7.55321 11.5063C7.58272 11.362 7.61273 11.2179 7.64288 11.0738C7.65543 11.0116 7.65543 11.0116 7.66823 10.9481C7.81061 10.2762 8.11472 9.74591 8.69539 9.35938C9.07477 9.13708 9.40425 9.04497 9.84061 9.0502C9.87928 9.05032 9.91796 9.05044 9.95781 9.05057C10.0804 9.05105 10.2029 9.05213 10.3255 9.05322C10.409 9.05365 10.4925 9.05405 10.576 9.0544C10.7799 9.05534 10.9837 9.05682 11.1876 9.05859C11.1788 9.02486 11.17 8.99113 11.1609 8.95638C10.8556 7.76584 11.046 6.53218 11.6574 5.46634C11.8916 5.08121 12.1682 4.7456 12.4766 4.41797C12.4998 4.39205 12.5229 4.36612 12.5468 4.33942C13.6794 3.12144 15.7211 2.65697 17.2891 3.12891ZM12.9493 5.23438C12.343 5.93185 11.9994 6.76571 11.918 7.68359C11.9144 7.72214 11.9108 7.7607 11.9071 7.80042C11.8763 8.46147 12.1479 9.08059 12.4337 9.66016C12.4483 9.69027 12.463 9.72039 12.4781 9.75142C12.8451 10.4968 13.3169 11.1837 13.8087 11.8516C13.8561 11.916 13.8561 11.916 13.9045 11.9818C14.1334 12.2897 14.3677 12.5932 14.6074 12.8927C14.6479 12.9435 14.6882 12.9945 14.7282 13.0456C14.9992 13.3914 15.2857 13.7444 15.7423 13.8281C16.1684 13.8662 16.5182 13.804 16.8568 13.5327C17.0764 13.3253 17.2547 13.0814 17.4369 12.8415C17.5071 12.7499 17.5783 12.6592 17.6498 12.5686C19.516 10.2332 19.516 10.2332 20.0553 7.40161C19.9372 6.64873 19.6333 5.9432 19.1368 5.36328C19.0946 5.31177 19.0946 5.31177 19.0515 5.25922C18.4222 4.5196 17.5189 4.04266 16.5587 3.90234C15.1267 3.81176 13.959 4.19203 12.9493 5.23438ZM8.85155 10.4306C8.59144 10.7599 8.54158 11.222 8.46108 11.6228C8.44786 11.6872 8.43462 11.7516 8.42135 11.8159C8.39381 11.95 8.36653 12.0841 8.33947 12.2182C8.30483 12.3898 8.26965 12.5613 8.23429 12.7328C8.20699 12.8654 8.17991 12.998 8.1529 13.1306C8.14 13.1939 8.12705 13.2571 8.11404 13.3204C8.09594 13.4087 8.07812 13.497 8.06038 13.5853C8.05022 13.6354 8.04005 13.6856 8.02957 13.7372C8.00057 13.9114 8.00057 13.9114 8.00789 14.0859C8.09248 14.2024 8.09248 14.2024 8.2118 14.3157C8.23373 14.3378 8.25566 14.3599 8.27826 14.3827C8.35199 14.4568 8.42645 14.5301 8.50094 14.6034C8.5539 14.6563 8.60682 14.7092 8.65969 14.7622C8.80347 14.9061 8.94791 15.0492 9.09247 15.1923C9.24339 15.3419 9.3937 15.4921 9.54408 15.6422C9.82899 15.9264 10.1144 16.2101 10.4001 16.4936C10.7252 16.8164 11.0498 17.1397 11.3743 17.4631C12.0418 18.1284 12.7102 18.793 13.379 19.457C13.5895 19.3187 13.5895 19.3187 13.7815 19.1568C13.806 19.1336 13.8306 19.1105 13.8559 19.0867C13.8811 19.0627 13.9063 19.0387 13.9322 19.0139C13.9855 18.9637 14.0389 18.9135 14.0923 18.8634C14.1177 18.8395 14.143 18.8157 14.1691 18.7912C14.2769 18.6906 14.3879 18.594 14.4995 18.4976C14.5998 18.4104 14.6983 18.3215 14.797 18.2324C14.9524 18.0922 15.1091 17.9536 15.2669 17.8162C15.3689 17.7266 15.4697 17.6358 15.5704 17.5449C15.7258 17.4047 15.8825 17.2661 16.0404 17.1287C16.1423 17.0391 16.2431 16.9483 16.3438 16.8574C16.4992 16.7172 16.6559 16.5786 16.8138 16.4412C16.9157 16.3516 17.0165 16.2608 17.1173 16.1699C17.2727 16.0297 17.4294 15.8911 17.5872 15.7537C17.6892 15.6641 17.79 15.5733 17.8907 15.4824C18.0461 15.3422 18.2028 15.2036 18.3607 15.0662C18.4626 14.9766 18.5634 14.8858 18.6641 14.7949C18.8195 14.6547 18.9761 14.5162 19.1339 14.3788C19.2369 14.2884 19.3386 14.1966 19.4403 14.1047C19.609 13.9524 19.7798 13.8032 19.9532 13.6562C19.74 13.3987 19.5086 13.1636 19.2711 12.9285C19.2144 12.8721 19.2144 12.8721 19.1566 12.8146C19.0642 12.7226 18.9716 12.6308 18.879 12.5391C18.7135 12.6146 18.644 12.6958 18.5379 12.8452C18.3119 13.157 18.0704 13.4552 17.825 13.7518C17.7708 13.8172 17.717 13.883 17.6633 13.9488C17.3165 14.3592 16.8774 14.6037 16.3438 14.6875C15.6952 14.7317 15.1001 14.6379 14.5821 14.2148C14.2555 13.9013 13.9767 13.5435 13.7027 13.184C13.6572 13.1244 13.6116 13.065 13.5657 13.0058C12.8168 12.0378 12.119 11.016 11.5743 9.91797C11.3374 9.91583 11.1005 9.91428 10.8636 9.91325C10.7831 9.91282 10.7027 9.91223 10.6223 9.91149C10.506 9.91043 10.3898 9.90995 10.2735 9.90958C10.2381 9.90913 10.2027 9.90869 10.1663 9.90823C9.63508 9.90813 9.21916 10.0339 8.85155 10.4306ZM20.4259 9.96094C20.4114 9.98705 20.397 10.0132 20.3821 10.0401C20.3137 10.1633 20.245 10.2864 20.1761 10.4094C20.1511 10.4541 20.1261 10.4987 20.1004 10.5448C19.9236 10.8575 19.7369 11.1607 19.5306 11.4549C19.4246 11.5977 19.4246 11.5977 19.4042 11.7666C19.4622 11.9141 19.5839 12.0134 19.6956 12.1221C19.7212 12.1476 19.7469 12.1731 19.7734 12.1994C19.8554 12.2807 19.9379 12.3616 20.0203 12.4424C20.0761 12.4975 20.1318 12.5526 20.1874 12.6077C20.3239 12.7427 20.4607 12.8773 20.5977 13.0117C20.7484 12.9545 20.8452 12.9078 20.9549 12.7888C21.0852 12.6526 21.2213 12.5282 21.364 12.4051C21.4678 12.3149 21.5699 12.2231 21.672 12.1309C21.8274 11.9906 21.9841 11.8521 22.1419 11.7146C22.2439 11.625 22.3447 11.5343 22.4454 11.4434C22.7132 11.2018 22.9836 10.9639 23.2618 10.7344C23.2173 10.4817 23.0265 10.301 22.8277 10.1503C22.6179 10.0151 22.4529 9.95537 22.2015 9.95606C22.1421 9.95606 22.1421 9.95606 22.0816 9.95607C22.0392 9.95629 21.9969 9.95651 21.9533 9.95674C21.8878 9.95683 21.8878 9.95683 21.8211 9.95693C21.6818 9.95717 21.5426 9.95771 21.4034 9.95825C21.309 9.95847 21.2145 9.95866 21.1201 9.95884C20.8887 9.95931 20.6573 9.96003 20.4259 9.96094ZM23.4766 11.7227C23.4501 11.7476 23.4501 11.7476 23.4229 11.7731C22.8207 12.3383 22.8207 12.3383 22.5694 12.5547C22.4696 12.6413 22.3716 12.7298 22.2735 12.8184C22.1175 12.9591 21.9604 13.0983 21.802 13.2363C21.6432 13.3753 21.4858 13.5158 21.3282 13.6562C21.3849 13.7818 21.4461 13.8708 21.5436 13.9679C21.5701 13.9945 21.5966 14.0211 21.6239 14.0486C21.6529 14.0773 21.6819 14.106 21.7118 14.1356C21.7424 14.1662 21.7731 14.1968 21.8046 14.2284C21.9058 14.3295 22.0072 14.4303 22.1087 14.5311C22.1789 14.6011 22.2491 14.6712 22.3193 14.7413C22.504 14.9257 22.689 15.1099 22.8741 15.294C23.0629 15.4819 23.2515 15.6701 23.44 15.8582C23.8101 16.2273 24.1804 16.5962 24.5509 16.9648C24.5966 16.8237 24.59 16.7263 24.5604 16.5817C24.5519 16.5393 24.5434 16.4968 24.5347 16.453C24.525 16.4067 24.5154 16.3604 24.5054 16.3126C24.4955 16.2637 24.4856 16.2147 24.4754 16.1642C24.4424 16.002 24.409 15.84 24.3755 15.678C24.3525 15.5656 24.3295 15.4532 24.3065 15.3409C24.2584 15.1053 24.2099 14.8699 24.1612 14.6344C24.1049 14.362 24.0491 14.0894 23.9936 13.8168C23.9459 13.5829 23.898 13.349 23.8498 13.1152C23.8211 12.9755 23.7924 12.8357 23.764 12.696C23.7322 12.5403 23.7 12.3848 23.6677 12.2293C23.6583 12.1827 23.6489 12.1361 23.6392 12.0881C23.6259 12.0249 23.6259 12.0249 23.6124 11.9605C23.6048 11.9237 23.5972 11.8869 23.5894 11.8489C23.5805 11.8215 23.5717 11.794 23.5626 11.7656C23.5342 11.7514 23.5059 11.7373 23.4766 11.7227ZM20.4044 14.47C20.3738 14.4974 20.3432 14.5248 20.3117 14.5531C20.2619 14.5983 20.2619 14.5983 20.211 14.6445C20.1394 14.709 20.0678 14.7734 19.9962 14.8379C19.9598 14.8707 19.9235 14.9035 19.8861 14.9373C19.7671 15.044 19.6467 15.1492 19.5262 15.2542C19.4243 15.3437 19.3235 15.4345 19.2227 15.5254C19.0673 15.6656 18.9106 15.8042 18.7528 15.9417C18.6508 16.0312 18.55 16.122 18.4493 16.2129C18.2206 16.4191 17.99 16.6228 17.7552 16.8222C17.4725 17.0626 17.1947 17.3068 16.9231 17.5597C16.7746 17.6979 16.6242 17.833 16.4709 17.9657C16.3702 18.0535 16.2711 18.1429 16.172 18.2324C16.0165 18.3727 15.8598 18.5112 15.702 18.6487C15.6001 18.7383 15.4993 18.829 15.3985 18.9199C15.1655 19.13 14.9308 19.3377 14.6909 19.5398C14.6642 19.5624 14.6374 19.585 14.6099 19.6083C14.5567 19.6533 14.5034 19.6981 14.4499 19.7428C14.4126 19.7743 14.4126 19.7743 14.3746 19.8065C14.3525 19.8251 14.3304 19.8436 14.3076 19.8627C14.2178 19.9496 14.1439 20.0466 14.0665 20.1445C14.5465 20.8355 15.066 21.4898 15.6214 22.1211C15.6523 22.1563 15.6523 22.1563 15.6839 22.1923C16.7771 23.4338 17.8473 24.2421 19.5392 24.3541C20.2314 24.3932 20.9205 24.3843 21.6129 24.3555C21.6511 24.354 21.6893 24.3524 21.7287 24.3509C22.5412 24.3185 23.3517 24.2653 24.1604 24.1799C24.2157 24.1743 24.2711 24.1687 24.3281 24.163C24.7699 24.112 25.1933 24.0164 25.4962 23.668C25.698 23.3786 25.8197 23.0894 25.7784 22.7351C25.761 22.5636 25.7512 22.3939 25.7484 22.2214C25.7406 21.7495 25.6987 21.2836 25.6358 20.8159C25.6304 20.7754 25.625 20.7348 25.6194 20.6931C25.3422 18.748 24.1282 17.5729 22.7677 16.2773C22.7294 16.2408 22.7294 16.2408 22.6903 16.2036C22.148 15.6866 21.598 15.1783 21.0366 14.6821C20.978 14.6302 20.978 14.6302 20.9182 14.5771C20.8827 14.5461 20.8472 14.515 20.8106 14.4831C20.7797 14.456 20.7487 14.4289 20.7169 14.401C20.5752 14.2945 20.5213 14.3643 20.4044 14.47ZM7.75008 15.1602C7.58641 15.9558 7.42279 16.7515 7.25922 17.5472C7.18323 17.9168 7.10724 18.2864 7.03121 18.656C6.9648 18.9789 6.89842 19.3017 6.83207 19.6245C6.79707 19.7949 6.76205 19.9652 6.727 20.1355C6.71359 20.2007 6.70018 20.2659 6.68676 20.3311C6.68021 20.3629 6.67366 20.3947 6.6669 20.4276C6.63483 20.5835 6.60287 20.7394 6.57113 20.8954C6.55885 20.9558 6.54656 21.0161 6.53427 21.0765C6.52826 21.106 6.52225 21.1356 6.51606 21.166C6.47914 21.3468 6.44118 21.5274 6.40244 21.7078C6.37725 21.8256 6.35254 21.9434 6.3279 22.0613C6.31086 22.1419 6.29317 22.2224 6.27545 22.3029C6.17798 22.7722 6.19482 23.1227 6.42375 23.5488C6.61998 23.8403 6.89854 24.0054 7.23445 24.0977C7.57235 24.1562 8.00744 24.2078 8.32153 24.0471C8.49315 23.9218 8.63128 23.7692 8.76679 23.6064C8.83973 23.521 8.92058 23.4496 9.00691 23.3779C9.1337 23.2685 9.25858 23.1572 9.38289 23.0449C9.5383 22.9047 9.69501 22.7661 9.85286 22.6287C9.95479 22.5391 10.0556 22.4483 10.1563 22.3574C10.3117 22.2172 10.4684 22.0786 10.6263 21.9412C10.7282 21.8516 10.829 21.7608 10.9298 21.6699C11.158 21.4642 11.3879 21.2608 11.6223 21.0621C11.9881 20.7516 12.3422 20.4306 12.6915 20.1016C12.4692 19.8325 12.226 19.587 11.9791 19.3406C11.9334 19.2949 11.8877 19.2491 11.842 19.2033C11.7187 19.0799 11.5953 18.9565 11.4719 18.8332C11.3426 18.704 11.2134 18.5747 11.0841 18.4454C10.8675 18.2287 10.6507 18.012 10.4339 17.7954C10.1829 17.5447 9.93215 17.2938 9.68143 17.0429C9.46606 16.8273 9.25061 16.6118 9.03508 16.3964C8.90639 16.2678 8.77772 16.1391 8.64913 16.0104C8.52851 15.8896 8.40777 15.769 8.28696 15.6484C8.24252 15.604 8.19813 15.5596 8.15377 15.5152C8.0935 15.4548 8.03308 15.3945 7.97265 15.3343C7.93881 15.3005 7.90496 15.2666 7.87009 15.2318C7.80533 15.1553 7.80533 15.1553 7.75008 15.1602ZM13.1185 20.9421C12.9765 21.0725 12.8343 21.2024 12.6888 21.3289C12.5595 21.4412 12.4319 21.5552 12.3048 21.6699C12.1494 21.8102 11.9926 21.9487 11.8348 22.0862C11.7329 22.1758 11.6321 22.2665 11.5313 22.3574C11.3759 22.4977 11.2192 22.6362 11.0614 22.7737C10.9594 22.8633 10.8586 22.954 10.7579 23.0449C10.6298 23.1605 10.5013 23.2754 10.3712 23.3887C10.1073 23.6188 9.84537 23.85 9.59773 24.0977C11.9374 24.0977 14.277 24.0977 16.6876 24.0977C16.4904 23.8651 16.4904 23.8651 16.2832 23.6449C16.2573 23.6188 16.2313 23.5927 16.2046 23.5658C16.177 23.5384 16.1495 23.511 16.1211 23.4827C16.0914 23.4529 16.0617 23.4231 16.0311 23.3924C15.9337 23.2949 15.8362 23.1975 15.7387 23.1001C15.6708 23.0322 15.6029 22.9642 15.535 22.8962C15.3931 22.7543 15.2512 22.6125 15.1092 22.4707C14.9268 22.2886 14.7446 22.1062 14.5625 21.9238C14.4225 21.7837 14.2825 21.6437 14.1424 21.5037C14.0751 21.4365 14.0079 21.3692 13.9406 21.3019C13.8471 21.2083 13.7535 21.1148 13.6598 21.0214C13.6179 20.9793 13.6179 20.9793 13.5751 20.9364C13.344 20.7064 13.355 20.7238 13.1185 20.9421Z" fill="white"/>
<path d="M17.0312 6.30861C17.0684 6.33342 17.1056 6.35824 17.144 6.3838C17.4892 6.71085 17.6357 7.1073 17.6489 7.57619C17.6359 8.03733 17.4943 8.4102 17.1745 8.74725C16.8168 9.07316 16.397 9.20785 15.9165 9.19826C15.4645 9.16131 15.0893 8.95586 14.7797 8.62926C14.4673 8.23761 14.3756 7.78149 14.4301 7.29202C14.5155 6.83133 14.8003 6.4732 15.1706 6.20001C15.7603 5.8226 16.4825 5.90966 17.0312 6.30861ZM15.6132 6.99611C15.4791 7.1216 15.3638 7.25559 15.3452 7.44258C15.3384 7.70318 15.3417 7.87012 15.5273 8.07033C15.7258 8.24116 15.9139 8.29586 16.1718 8.28517C16.4057 8.2118 16.55 8.05245 16.6874 7.85548C16.7542 7.65514 16.7538 7.49078 16.6821 7.29152C16.5421 7.07692 16.4001 6.9578 16.1557 6.88869C15.9489 6.85247 15.791 6.88415 15.6132 6.99611Z" fill="white"/>
</g>
<defs>
<clipPath id="clip0_40_135">
<rect width="22" height="22" fill="white" transform="translate(5 3)"/>
</clipPath>
</defs>
</svg>
