<svg width="33" height="33" viewBox="0 0 33 33" fill="none" xmlns="http://www.w3.org/2000/svg">
<ellipse cx="16.3616" cy="16.3622" rx="16.3616" ry="16.3622" fill="white"/>
<g clip-path="url(#clip0_65_192)">
<path d="M17.2891 5.12891C17.341 5.14353 17.3928 5.15815 17.4462 5.17322C18.2552 5.42059 18.9088 5.8393 19.5235 6.41797C19.5624 6.4527 19.5624 6.4527 19.6021 6.48813C20.4366 7.26413 20.926 8.52337 20.9845 9.64062C20.9879 9.6977 20.9879 9.6977 20.9913 9.75594C21.0043 10.1728 20.9448 10.619 20.8126 11.0156C20.8873 11.0166 20.8873 11.0166 20.9635 11.0175C21.1501 11.02 21.3367 11.0234 21.5233 11.0269C21.6037 11.0283 21.6842 11.0295 21.7646 11.0305C22.4814 11.0395 23.1121 11.1177 23.665 11.6283C24.0593 12.0531 24.251 12.5686 24.3619 13.1292C24.3717 13.1768 24.3816 13.2245 24.3918 13.2736C24.4196 13.4085 24.447 13.5435 24.4742 13.6786C24.5047 13.8294 24.5358 13.9801 24.5668 14.1308C24.6262 14.4198 24.6852 14.7089 24.7439 14.9981C24.8648 15.5924 24.9864 16.1865 25.108 16.7807C25.164 17.0543 25.22 17.3279 25.276 17.6015C25.2822 17.6321 25.2885 17.6628 25.295 17.6944C25.3844 18.1314 25.4737 18.5684 25.5629 19.0055C25.86 20.4604 26.1585 21.915 26.4634 23.3683C26.4817 23.4557 26.5001 23.5431 26.5184 23.6304C26.5398 23.7326 26.5613 23.8347 26.5828 23.9369C26.7353 24.6634 26.7787 25.3192 26.3893 25.9832C26.0203 26.5339 25.5416 26.8594 24.8946 27C24.648 27.0232 24.4034 27.0233 24.1559 27.0218C24.0824 27.022 24.0089 27.0223 23.9355 27.0226C23.735 27.0234 23.5345 27.023 23.334 27.0225C23.1173 27.0221 22.9005 27.0227 22.6838 27.0232C22.2597 27.0239 21.8356 27.0238 21.4116 27.0233C21.0668 27.0229 20.722 27.0228 20.3773 27.023C20.3281 27.023 20.279 27.0231 20.2284 27.0231C20.1286 27.0231 20.0287 27.0232 19.9289 27.0232C18.9936 27.0237 18.0583 27.0232 17.123 27.0222C16.3211 27.0215 15.5192 27.0216 14.7173 27.0224C13.7853 27.0233 12.8533 27.0237 11.9212 27.0232C11.8218 27.0231 11.7223 27.0231 11.6229 27.023C11.5739 27.023 11.525 27.0229 11.4746 27.0229C11.1304 27.0228 10.7862 27.023 10.442 27.0234C10.0223 27.0239 9.60265 27.0238 9.18298 27.0229C8.969 27.0224 8.75503 27.0222 8.54105 27.0228C8.34491 27.0233 8.14879 27.023 7.95265 27.0221C7.88196 27.0219 7.81127 27.022 7.74058 27.0224C7.03514 27.0263 6.44074 26.877 5.91048 26.385C5.47261 25.9147 5.29249 25.3229 5.2947 24.693C5.30455 24.4655 5.34906 24.2491 5.39653 24.0269C5.40732 23.9743 5.41811 23.9217 5.42922 23.8675C5.45339 23.7496 5.47789 23.6318 5.50262 23.514C5.54404 23.3168 5.58475 23.1194 5.62536 22.9219C5.67313 22.6899 5.72096 22.4578 5.769 22.2259C5.92637 21.4657 6.08142 20.705 6.23621 19.9442C6.27123 19.7721 6.30627 19.6 6.34131 19.428C6.34831 19.3935 6.35532 19.3591 6.36254 19.3236C6.37676 19.2538 6.39097 19.184 6.40518 19.1142C6.42664 19.0088 6.4481 18.9034 6.46955 18.798C6.49818 18.6574 6.5268 18.5168 6.55542 18.3762C6.58356 18.238 6.6117 18.0998 6.63984 17.9616C6.81842 17.0843 6.99753 16.2072 7.17782 15.3303C7.21559 15.1466 7.25328 14.9628 7.2909 14.779C7.35618 14.4602 7.42189 14.1415 7.48806 13.8229C7.50991 13.7174 7.53163 13.6118 7.55321 13.5063C7.58272 13.362 7.61273 13.2179 7.64288 13.0738C7.65543 13.0116 7.65543 13.0116 7.66823 12.9481C7.81061 12.2762 8.11472 11.7459 8.69539 11.3594C9.07477 11.1371 9.40425 11.045 9.84061 11.0502C9.87928 11.0503 9.91796 11.0504 9.95781 11.0506C10.0804 11.051 10.2029 11.0521 10.3255 11.0532C10.409 11.0537 10.4925 11.054 10.576 11.0544C10.7799 11.0553 10.9837 11.0568 11.1876 11.0586C11.1788 11.0249 11.17 10.9911 11.1609 10.9564C10.8556 9.76584 11.046 8.53218 11.6574 7.46634C11.8916 7.08121 12.1682 6.7456 12.4766 6.41797C12.4998 6.39205 12.5229 6.36612 12.5468 6.33942C13.6794 5.12144 15.7211 4.65697 17.2891 5.12891ZM12.9493 7.23438C12.343 7.93185 11.9994 8.76571 11.918 9.68359C11.9144 9.72214 11.9108 9.7607 11.9071 9.80042C11.8763 10.4615 12.1479 11.0806 12.4337 11.6602C12.4483 11.6903 12.463 11.7204 12.4781 11.7514C12.8451 12.4968 13.3169 13.1837 13.8087 13.8516C13.8561 13.916 13.8561 13.916 13.9045 13.9818C14.1334 14.2897 14.3677 14.5932 14.6074 14.8927C14.6479 14.9435 14.6882 14.9945 14.7282 15.0456C14.9992 15.3914 15.2857 15.7444 15.7423 15.8281C16.1684 15.8662 16.5182 15.804 16.8568 15.5327C17.0764 15.3253 17.2547 15.0814 17.4369 14.8415C17.5071 14.7499 17.5783 14.6592 17.6498 14.5686C19.516 12.2332 19.516 12.2332 20.0553 9.40161C19.9372 8.64873 19.6333 7.9432 19.1368 7.36328C19.0946 7.31177 19.0946 7.31177 19.0515 7.25922C18.4222 6.5196 17.5189 6.04266 16.5587 5.90234C15.1267 5.81176 13.959 6.19203 12.9493 7.23438ZM8.85155 12.4306C8.59144 12.7599 8.54158 13.222 8.46108 13.6228C8.44786 13.6872 8.43462 13.7516 8.42135 13.8159C8.39381 13.95 8.36653 14.0841 8.33947 14.2182C8.30483 14.3898 8.26965 14.5613 8.23429 14.7328C8.20699 14.8654 8.17991 14.998 8.1529 15.1306C8.14 15.1939 8.12705 15.2571 8.11404 15.3204C8.09594 15.4087 8.07812 15.497 8.06038 15.5853C8.05022 15.6354 8.04005 15.6856 8.02957 15.7372C8.00057 15.9114 8.00057 15.9114 8.00789 16.0859C8.09248 16.2024 8.09248 16.2024 8.2118 16.3157C8.23373 16.3378 8.25566 16.3599 8.27826 16.3827C8.35199 16.4568 8.42645 16.5301 8.50094 16.6034C8.5539 16.6563 8.60682 16.7092 8.65969 16.7622C8.80347 16.9061 8.94791 17.0492 9.09247 17.1923C9.24339 17.3419 9.3937 17.4921 9.54408 17.6422C9.82899 17.9264 10.1144 18.2101 10.4001 18.4936C10.7252 18.8164 11.0498 19.1397 11.3743 19.4631C12.0418 20.1284 12.7102 20.793 13.379 21.457C13.5895 21.3187 13.5895 21.3187 13.7815 21.1568C13.806 21.1336 13.8306 21.1105 13.8559 21.0867C13.8811 21.0627 13.9063 21.0387 13.9322 21.0139C13.9855 20.9637 14.0389 20.9135 14.0923 20.8634C14.1177 20.8395 14.143 20.8157 14.1691 20.7912C14.2769 20.6906 14.3879 20.594 14.4995 20.4976C14.5998 20.4104 14.6983 20.3215 14.797 20.2324C14.9524 20.0922 15.1091 19.9536 15.2669 19.8162C15.3689 19.7266 15.4697 19.6358 15.5704 19.5449C15.7258 19.4047 15.8825 19.2661 16.0404 19.1287C16.1423 19.0391 16.2431 18.9483 16.3438 18.8574C16.4992 18.7172 16.6559 18.5786 16.8138 18.4412C16.9157 18.3516 17.0165 18.2608 17.1173 18.1699C17.2727 18.0297 17.4294 17.8911 17.5872 17.7537C17.6892 17.6641 17.79 17.5733 17.8907 17.4824C18.0461 17.3422 18.2028 17.2036 18.3607 17.0662C18.4626 16.9766 18.5634 16.8858 18.6641 16.7949C18.8195 16.6547 18.9761 16.5162 19.1339 16.3788C19.2369 16.2884 19.3386 16.1966 19.4403 16.1047C19.609 15.9524 19.7798 15.8032 19.9532 15.6562C19.74 15.3987 19.5086 15.1636 19.2711 14.9285C19.2144 14.8721 19.2144 14.8721 19.1566 14.8146C19.0642 14.7226 18.9716 14.6308 18.879 14.5391C18.7135 14.6146 18.644 14.6958 18.5379 14.8452C18.3119 15.157 18.0704 15.4552 17.825 15.7518C17.7708 15.8172 17.717 15.883 17.6633 15.9488C17.3165 16.3592 16.8774 16.6037 16.3438 16.6875C15.6952 16.7317 15.1001 16.6379 14.5821 16.2148C14.2555 15.9013 13.9767 15.5435 13.7027 15.184C13.6572 15.1244 13.6116 15.065 13.5657 15.0058C12.8168 14.0378 12.119 13.016 11.5743 11.918C11.3374 11.9158 11.1005 11.9143 10.8636 11.9132C10.7831 11.9128 10.7027 11.9122 10.6223 11.9115C10.506 11.9104 10.3898 11.91 10.2735 11.9096C10.2381 11.9091 10.2027 11.9087 10.1663 11.9082C9.63508 11.9081 9.21916 12.0339 8.85155 12.4306ZM20.4259 11.9609C20.4114 11.9871 20.397 12.0132 20.3821 12.0401C20.3137 12.1633 20.245 12.2864 20.1761 12.4094C20.1511 12.4541 20.1261 12.4987 20.1004 12.5448C19.9236 12.8575 19.7369 13.1607 19.5306 13.4549C19.4246 13.5977 19.4246 13.5977 19.4042 13.7666C19.4622 13.9141 19.5839 14.0134 19.6956 14.1221C19.7212 14.1476 19.7469 14.1731 19.7734 14.1994C19.8554 14.2807 19.9379 14.3616 20.0203 14.4424C20.0761 14.4975 20.1318 14.5526 20.1874 14.6077C20.3239 14.7427 20.4607 14.8773 20.5977 15.0117C20.7484 14.9545 20.8452 14.9078 20.9549 14.7888C21.0852 14.6526 21.2213 14.5282 21.364 14.4051C21.4678 14.3149 21.5699 14.2231 21.672 14.1309C21.8274 13.9906 21.9841 13.8521 22.1419 13.7146C22.2439 13.625 22.3447 13.5343 22.4454 13.4434C22.7132 13.2018 22.9836 12.9639 23.2618 12.7344C23.2173 12.4817 23.0265 12.301 22.8277 12.1503C22.6179 12.0151 22.4529 11.9554 22.2015 11.9561C22.1421 11.9561 22.1421 11.9561 22.0816 11.9561C22.0392 11.9563 21.9969 11.9565 21.9533 11.9567C21.8878 11.9568 21.8878 11.9568 21.8211 11.9569C21.6818 11.9572 21.5426 11.9577 21.4034 11.9583C21.309 11.9585 21.2145 11.9587 21.1201 11.9588C20.8887 11.9593 20.6573 11.96 20.4259 11.9609ZM23.4766 13.7227C23.4501 13.7476 23.4501 13.7476 23.4229 13.7731C22.8207 14.3383 22.8207 14.3383 22.5694 14.5547C22.4696 14.6413 22.3716 14.7298 22.2735 14.8184C22.1175 14.9591 21.9604 15.0983 21.802 15.2363C21.6432 15.3753 21.4858 15.5158 21.3282 15.6562C21.3849 15.7818 21.4461 15.8708 21.5436 15.9679C21.5701 15.9945 21.5966 16.0211 21.6239 16.0486C21.6529 16.0773 21.6819 16.106 21.7118 16.1356C21.7424 16.1662 21.7731 16.1968 21.8046 16.2284C21.9058 16.3295 22.0072 16.4303 22.1087 16.5311C22.1789 16.6011 22.2491 16.6712 22.3193 16.7413C22.504 16.9257 22.689 17.1099 22.8741 17.294C23.0629 17.4819 23.2515 17.6701 23.44 17.8582C23.8101 18.2273 24.1804 18.5962 24.5509 18.9648C24.5966 18.8237 24.59 18.7263 24.5604 18.5817C24.5519 18.5393 24.5434 18.4968 24.5347 18.453C24.525 18.4067 24.5154 18.3604 24.5054 18.3126C24.4955 18.2637 24.4856 18.2147 24.4754 18.1642C24.4424 18.002 24.409 17.84 24.3755 17.678C24.3525 17.5656 24.3295 17.4532 24.3065 17.3409C24.2584 17.1053 24.2099 16.8699 24.1612 16.6344C24.1049 16.362 24.0491 16.0894 23.9936 15.8168C23.9459 15.5829 23.898 15.349 23.8498 15.1152C23.8211 14.9755 23.7924 14.8357 23.764 14.696C23.7322 14.5403 23.7 14.3848 23.6677 14.2293C23.6583 14.1827 23.6489 14.1361 23.6392 14.0881C23.6259 14.0249 23.6259 14.0249 23.6124 13.9605C23.6048 13.9237 23.5972 13.8869 23.5894 13.8489C23.5805 13.8215 23.5717 13.794 23.5626 13.7656C23.5342 13.7514 23.5059 13.7373 23.4766 13.7227ZM20.4044 16.47C20.3738 16.4974 20.3432 16.5248 20.3117 16.5531C20.2619 16.5983 20.2619 16.5983 20.211 16.6445C20.1394 16.709 20.0678 16.7734 19.9962 16.8379C19.9598 16.8707 19.9235 16.9035 19.8861 16.9373C19.7671 17.044 19.6467 17.1492 19.5262 17.2542C19.4243 17.3437 19.3235 17.4345 19.2227 17.5254C19.0673 17.6656 18.9106 17.8042 18.7528 17.9417C18.6508 18.0312 18.55 18.122 18.4493 18.2129C18.2206 18.4191 17.99 18.6228 17.7552 18.8222C17.4725 19.0626 17.1947 19.3068 16.9231 19.5597C16.7746 19.6979 16.6242 19.833 16.4709 19.9657C16.3702 20.0535 16.2711 20.1429 16.172 20.2324C16.0165 20.3727 15.8598 20.5112 15.702 20.6487C15.6001 20.7383 15.4993 20.829 15.3985 20.9199C15.1655 21.13 14.9308 21.3377 14.6909 21.5398C14.6642 21.5624 14.6374 21.585 14.6099 21.6083C14.5567 21.6533 14.5034 21.6981 14.4499 21.7428C14.4126 21.7743 14.4126 21.7743 14.3746 21.8065C14.3525 21.8251 14.3304 21.8436 14.3076 21.8627C14.2178 21.9496 14.1439 22.0466 14.0665 22.1445C14.5465 22.8355 15.066 23.4898 15.6214 24.1211C15.6523 24.1563 15.6523 24.1563 15.6839 24.1923C16.7771 25.4338 17.8473 26.2421 19.5392 26.3541C20.2314 26.3932 20.9205 26.3843 21.6129 26.3555C21.6511 26.354 21.6893 26.3524 21.7287 26.3509C22.5412 26.3185 23.3517 26.2653 24.1604 26.1799C24.2157 26.1743 24.2711 26.1687 24.3281 26.163C24.7699 26.112 25.1933 26.0164 25.4962 25.668C25.698 25.3786 25.8197 25.0894 25.7784 24.7351C25.761 24.5636 25.7512 24.3939 25.7484 24.2214C25.7406 23.7495 25.6987 23.2836 25.6358 22.8159C25.6304 22.7754 25.625 22.7348 25.6194 22.6931C25.3422 20.748 24.1282 19.5729 22.7677 18.2773C22.7294 18.2408 22.7294 18.2408 22.6903 18.2036C22.148 17.6866 21.598 17.1783 21.0366 16.6821C20.978 16.6302 20.978 16.6302 20.9182 16.5771C20.8827 16.5461 20.8472 16.515 20.8106 16.4831C20.7797 16.456 20.7487 16.4289 20.7169 16.401C20.5752 16.2945 20.5213 16.3643 20.4044 16.47ZM7.75008 17.1602C7.58641 17.9558 7.42279 18.7515 7.25922 19.5472C7.18323 19.9168 7.10724 20.2864 7.03121 20.656C6.9648 20.9789 6.89842 21.3017 6.83207 21.6245C6.79707 21.7949 6.76205 21.9652 6.727 22.1355C6.71359 22.2007 6.70018 22.2659 6.68676 22.3311C6.68021 22.3629 6.67366 22.3947 6.6669 22.4276C6.63483 22.5835 6.60287 22.7394 6.57113 22.8954C6.55885 22.9558 6.54656 23.0161 6.53427 23.0765C6.52826 23.106 6.52225 23.1356 6.51606 23.166C6.47914 23.3468 6.44118 23.5274 6.40244 23.7078C6.37725 23.8256 6.35254 23.9434 6.3279 24.0613C6.31086 24.1419 6.29317 24.2224 6.27545 24.3029C6.17798 24.7722 6.19482 25.1227 6.42375 25.5488C6.61998 25.8403 6.89854 26.0054 7.23445 26.0977C7.57235 26.1562 8.00744 26.2078 8.32153 26.0471C8.49315 25.9218 8.63128 25.7692 8.76679 25.6064C8.83973 25.521 8.92058 25.4496 9.00691 25.3779C9.1337 25.2685 9.25858 25.1572 9.38289 25.0449C9.5383 24.9047 9.69501 24.7661 9.85286 24.6287C9.95479 24.5391 10.0556 24.4483 10.1563 24.3574C10.3117 24.2172 10.4684 24.0786 10.6263 23.9412C10.7282 23.8516 10.829 23.7608 10.9298 23.6699C11.158 23.4642 11.3879 23.2608 11.6223 23.0621C11.9881 22.7516 12.3422 22.4306 12.6915 22.1016C12.4692 21.8325 12.226 21.587 11.9791 21.3406C11.9334 21.2949 11.8877 21.2491 11.842 21.2033C11.7187 21.0799 11.5953 20.9565 11.4719 20.8332C11.3426 20.704 11.2134 20.5747 11.0841 20.4454C10.8675 20.2287 10.6507 20.012 10.4339 19.7954C10.1829 19.5447 9.93215 19.2938 9.68143 19.0429C9.46606 18.8273 9.25061 18.6118 9.03508 18.3964C8.90639 18.2678 8.77772 18.1391 8.64913 18.0104C8.52851 17.8896 8.40777 17.769 8.28696 17.6484C8.24252 17.604 8.19813 17.5596 8.15377 17.5152C8.0935 17.4548 8.03308 17.3945 7.97265 17.3343C7.93881 17.3005 7.90496 17.2666 7.87009 17.2318C7.80533 17.1553 7.80533 17.1553 7.75008 17.1602ZM13.1185 22.9421C12.9765 23.0725 12.8343 23.2024 12.6888 23.3289C12.5595 23.4412 12.4319 23.5552 12.3048 23.6699C12.1494 23.8102 11.9926 23.9487 11.8348 24.0862C11.7329 24.1758 11.6321 24.2665 11.5313 24.3574C11.3759 24.4977 11.2192 24.6362 11.0614 24.7737C10.9594 24.8633 10.8586 24.954 10.7579 25.0449C10.6298 25.1605 10.5013 25.2754 10.3712 25.3887C10.1073 25.6188 9.84537 25.85 9.59773 26.0977C11.9374 26.0977 14.277 26.0977 16.6876 26.0977C16.4904 25.8651 16.4904 25.8651 16.2832 25.6449C16.2573 25.6188 16.2313 25.5927 16.2046 25.5658C16.177 25.5384 16.1495 25.511 16.1211 25.4827C16.0914 25.4529 16.0617 25.4231 16.0311 25.3924C15.9337 25.2949 15.8362 25.1975 15.7387 25.1001C15.6708 25.0322 15.6029 24.9642 15.535 24.8962C15.3931 24.7543 15.2512 24.6125 15.1092 24.4707C14.9268 24.2886 14.7446 24.1062 14.5625 23.9238C14.4225 23.7837 14.2825 23.6437 14.1424 23.5037C14.0751 23.4365 14.0079 23.3692 13.9406 23.3019C13.8471 23.2083 13.7535 23.1148 13.6598 23.0214C13.6179 22.9793 13.6179 22.9793 13.5751 22.9364C13.344 22.7064 13.355 22.7238 13.1185 22.9421Z" fill="black"/>
<path d="M17.0312 8.30861C17.0684 8.33342 17.1056 8.35824 17.144 8.3838C17.4892 8.71085 17.6357 9.1073 17.6489 9.57619C17.6359 10.0373 17.4943 10.4102 17.1745 10.7473C16.8168 11.0732 16.397 11.2079 15.9165 11.1983C15.4645 11.1613 15.0893 10.9559 14.7797 10.6293C14.4673 10.2376 14.3756 9.78149 14.4301 9.29202C14.5155 8.83133 14.8003 8.4732 15.1706 8.20001C15.7603 7.8226 16.4825 7.90966 17.0312 8.30861ZM15.6132 8.99611C15.4791 9.1216 15.3638 9.25559 15.3452 9.44258C15.3384 9.70318 15.3417 9.87012 15.5273 10.0703C15.7258 10.2412 15.9139 10.2959 16.1718 10.2852C16.4057 10.2118 16.55 10.0525 16.6874 9.85548C16.7542 9.65514 16.7538 9.49078 16.6821 9.29152C16.5421 9.07692 16.4001 8.9578 16.1557 8.88869C15.9489 8.85247 15.791 8.88415 15.6132 8.99611Z" fill="black"/>
</g>
<defs>
<clipPath id="clip0_65_192">
<rect width="22" height="22" fill="white" transform="translate(5 5)"/>
</clipPath>
</defs>
</svg>
