<svg width="16" height="16" viewBox="0 0 16 16" fill="none" xmlns="http://www.w3.org/2000/svg">
<g clip-path="url(#clip0_859_79)">
<path d="M7.66842 1.89997C8.50412 1.90272 9.33098 2.07117 10.1011 2.39559C10.8713 2.72 11.5695 3.19394 12.1553 3.78997H10.1884C10.0213 3.78997 9.86109 3.85635 9.74294 3.9745C9.62479 4.09265 9.55842 4.25289 9.55842 4.41997C9.55842 4.58706 9.62479 4.7473 9.74294 4.86545C9.86109 4.9836 10.0213 5.04997 10.1884 5.04997H12.7985C13.1087 5.04981 13.4062 4.9265 13.6256 4.70713C13.8449 4.48777 13.9683 4.19029 13.9684 3.88007V1.26997C13.9684 1.10289 13.902 0.942646 13.7839 0.824498C13.6657 0.70635 13.5055 0.639975 13.3384 0.639975V0.639975C13.1713 0.639975 13.0111 0.70635 12.8929 0.824498C12.7748 0.942646 12.7084 1.10289 12.7084 1.26997V2.57911C11.6671 1.64133 10.3853 1.01193 9.0066 0.761407C7.62785 0.510881 6.20658 0.649117 4.90195 1.16064C3.59732 1.67216 2.46085 2.53676 1.6198 3.65763C0.778743 4.77849 0.266323 6.11136 0.139919 7.50697C0.131781 7.59471 0.142008 7.68317 0.169946 7.76673C0.197885 7.8503 0.242923 7.92712 0.302192 7.99232C0.36146 8.05751 0.433659 8.10965 0.514188 8.1454C0.594717 8.18115 0.68181 8.19974 0.769919 8.19997V8.19997C0.924009 8.20194 1.07329 8.14632 1.18853 8.04402C1.30377 7.94171 1.37668 7.80007 1.39299 7.64683C1.53324 6.07861 2.25481 4.6195 3.41597 3.55614C4.57713 2.49279 6.09393 1.90205 7.66842 1.89997Z" fill="white"/>
<path d="M14.5678 8.20015C14.4137 8.19818 14.2644 8.2538 14.1492 8.35611C14.0339 8.45841 13.961 8.60005 13.9447 8.75329C13.8406 9.95233 13.3947 11.0963 12.6599 12.0496C11.9252 13.0028 10.9324 13.7253 9.79941 14.1313C8.6664 14.5373 7.44072 14.6098 6.26775 14.3402C5.09479 14.0706 4.02378 13.4702 3.18179 12.6102H5.14865C5.31574 12.6102 5.47598 12.5438 5.59413 12.4256C5.71228 12.3075 5.77865 12.1472 5.77865 11.9802C5.77865 11.8131 5.71228 11.6528 5.59413 11.5347C5.47598 11.4165 5.31574 11.3502 5.14865 11.3502H2.53856C2.3849 11.3501 2.23274 11.3803 2.09076 11.439C1.94878 11.4978 1.81978 11.584 1.71113 11.6926C1.60247 11.8013 1.5163 11.9303 1.45754 12.0723C1.39877 12.2142 1.36857 12.3664 1.36865 12.5201V15.1302C1.36865 15.2972 1.43503 15.4575 1.55318 15.5756C1.67132 15.6938 1.83157 15.7602 1.99865 15.7602C2.16574 15.7602 2.32598 15.6938 2.44413 15.5756C2.56228 15.4575 2.62865 15.2972 2.62865 15.1302V13.821C3.66994 14.7588 4.95172 15.3882 6.33047 15.6387C7.70922 15.8893 9.13049 15.751 10.4351 15.2395C11.7397 14.728 12.8762 13.8634 13.7173 12.7425C14.5583 11.6216 15.0707 10.2888 15.1972 8.89315C15.2053 8.80542 15.1951 8.71695 15.1671 8.63339C15.1392 8.54983 15.0941 8.473 15.0349 8.4078C14.9756 8.34261 14.9034 8.29047 14.8229 8.25472C14.7424 8.21897 14.6553 8.20038 14.5672 8.20015H14.5678Z" fill="white"/>
</g>
<defs>
<clipPath id="clip0_859_79">
<rect width="15.12" height="15.12" fill="white" transform="translate(0.108398 0.639999)"/>
</clipPath>
</defs>
</svg>
