<svg width="16" height="16" viewBox="0 0 16 16" fill="none" xmlns="http://www.w3.org/2000/svg">
<g clip-path="url(#clip0_838_80)">
<path d="M8.0107 1.69999C8.8464 1.70273 9.67326 1.87119 10.4434 2.19561C11.2136 2.52002 11.9118 2.99396 12.4976 3.58999H10.5307C10.3636 3.58999 10.2034 3.65637 10.0852 3.77452C9.96708 3.89266 9.9007 4.05291 9.9007 4.21999C9.9007 4.38708 9.96708 4.54732 10.0852 4.66547C10.2034 4.78362 10.3636 4.84999 10.5307 4.84999H13.1408C13.451 4.84983 13.7485 4.72651 13.9679 4.50715C14.1872 4.28779 14.3105 3.99031 14.3107 3.68008V1.06999C14.3107 0.902907 14.2443 0.742664 14.1262 0.624516C14.008 0.506368 13.8478 0.439993 13.6807 0.439993V0.439993C13.5136 0.439993 13.3534 0.506368 13.2352 0.624516C13.1171 0.742664 13.0507 0.902907 13.0507 1.06999V2.37913C12.0094 1.44135 10.7276 0.811951 9.34888 0.561425C7.97014 0.310899 6.54887 0.449136 5.24424 0.960655C3.93961 1.47217 2.80313 2.33678 1.96208 3.45765C1.12103 4.57851 0.608608 5.91138 0.482204 7.30699C0.474066 7.39472 0.484293 7.48319 0.512231 7.56675C0.54017 7.65031 0.585208 7.72714 0.644477 7.79234C0.703745 7.85753 0.775944 7.90967 0.856473 7.94542C0.937002 7.98117 1.0241 7.99976 1.1122 7.99999V7.99999C1.26629 8.00196 1.41557 7.94634 1.53081 7.84403C1.64605 7.74173 1.71897 7.60009 1.73527 7.44685C1.87552 5.87862 2.5971 4.41952 3.75825 3.35616C4.91941 2.29281 6.43622 1.70207 8.0107 1.69999Z" fill="#101828"/>
<path d="M14.9101 8.00014C14.756 7.99818 14.6067 8.05379 14.4915 8.1561C14.3762 8.25841 14.3033 8.40005 14.287 8.55328C14.1829 9.75232 13.737 10.8963 13.0022 11.8496C12.2675 12.8028 11.2747 13.5253 10.1417 13.9313C9.00869 14.3373 7.783 14.4098 6.61004 14.1402C5.43708 13.8706 4.36607 13.2701 3.52408 12.4102H5.49094C5.65802 12.4102 5.81827 12.3438 5.93641 12.2256C6.05456 12.1075 6.12094 11.9472 6.12094 11.7802C6.12094 11.6131 6.05456 11.4528 5.93641 11.3347C5.81827 11.2165 5.65802 11.1501 5.49094 11.1501H2.88085C2.72719 11.1501 2.57502 11.1803 2.43304 11.239C2.29107 11.2978 2.16206 11.384 2.05341 11.4926C1.94476 11.6013 1.85859 11.7303 1.79982 11.8723C1.74106 12.0142 1.71085 12.1664 1.71094 12.3201V14.9302C1.71094 15.0972 1.77731 15.2575 1.89546 15.3756C2.01361 15.4938 2.17385 15.5602 2.34094 15.5602C2.50802 15.5602 2.66827 15.4938 2.78641 15.3756C2.90456 15.2575 2.97094 15.0972 2.97094 14.9302V13.621C4.01222 14.5588 5.29401 15.1882 6.67276 15.4387C8.0515 15.6893 9.47277 15.551 10.7774 15.0395C12.082 14.528 13.2185 13.6634 14.0596 12.5425C14.9006 11.4216 15.413 10.0888 15.5394 8.69314C15.5476 8.60541 15.5373 8.51695 15.5094 8.43338C15.4815 8.34982 15.4364 8.27299 15.3772 8.2078C15.3179 8.1426 15.2457 8.09047 15.1652 8.05472C15.0846 8.01896 14.9975 8.00038 14.9094 8.00014H14.9101Z" fill="#101828"/>
</g>
<defs>
<clipPath id="clip0_838_80">
<rect width="15.12" height="15.12" fill="white" transform="translate(0.450684 0.440002)"/>
</clipPath>
</defs>
</svg>
