<svg width="20" height="20" viewBox="0 0 20 20" fill="none" xmlns="http://www.w3.org/2000/svg">
<g clip-path="url(#clip0_598_104)">
<path d="M2.57494 0.487488C2.67693 0.564762 2.72026 0.607263 2.74005 0.73522C2.73869 0.771563 2.73733 0.807905 2.73592 0.845349C2.73537 0.885474 2.73483 0.925599 2.73426 0.96694C2.7335 1.00904 2.73275 1.05114 2.73197 1.09452C2.72986 1.40953 2.72986 1.40953 2.83026 1.70126C2.91566 1.78219 3.00257 1.84673 3.09994 1.91249C3.14689 1.96175 3.19231 2.01255 3.23588 2.06483C3.30015 2.14014 3.36446 2.21468 3.43173 2.28734C3.69615 2.57535 3.81841 2.83573 3.81695 3.22894C3.81698 3.26028 3.81701 3.29161 3.81704 3.3239C3.81711 3.42927 3.8169 3.53464 3.8167 3.64001C3.81669 3.71539 3.81669 3.79078 3.81671 3.86616C3.81672 4.07116 3.8165 4.27616 3.81624 4.48115C3.81601 4.69526 3.81598 4.90937 3.81594 5.12347C3.81582 5.52907 3.81552 5.93467 3.81514 6.34027C3.81472 6.80196 3.81451 7.26365 3.81433 7.72535C3.81393 8.67523 3.81327 9.62511 3.81244 10.575C4.03519 10.575 4.25794 10.575 4.48744 10.575C4.4857 10.5243 4.48396 10.4737 4.48216 10.4215C4.48076 10.3539 4.47939 10.2863 4.47806 10.2187C4.47681 10.1855 4.47555 10.1522 4.47425 10.118C4.47087 9.88753 4.5029 9.71559 4.63744 9.52499C4.71244 9.45468 4.71244 9.45468 4.78744 9.41249C4.81219 9.39779 4.83694 9.3831 4.86244 9.36796C4.93744 9.33749 4.93744 9.33749 5.08744 9.33749C5.08744 9.11474 5.08744 8.89199 5.08744 8.66249C5.01319 8.65011 4.93894 8.63774 4.86244 8.62499C4.77748 8.57181 4.77748 8.57181 4.70306 8.50546C4.67812 8.48404 4.65318 8.46263 4.62748 8.44056C4.44152 8.21733 4.47445 7.92352 4.47572 7.64999C4.4759 7.60335 4.47609 7.55671 4.47628 7.50866C4.48439 6.85864 4.57114 6.23883 4.78744 5.62499C4.7957 5.60139 4.80396 5.5778 4.81247 5.55349C5.04097 4.91512 5.46264 3.8935 6.09994 3.56249C6.23987 3.5579 6.31376 3.57329 6.43509 3.63983C6.50076 3.75958 6.49769 3.88121 6.47494 4.01249C6.42042 4.11315 6.3478 4.19294 6.27103 4.27733C5.38673 5.31705 5.02984 6.6746 5.12494 8.02499C5.19834 8.09839 5.31083 8.06721 5.40855 8.0675C5.46219 8.06738 5.46219 8.06738 5.51691 8.06725C5.57343 8.06734 5.57343 8.06734 5.63108 8.06743C5.75836 8.06758 5.88564 8.06746 6.01293 8.06734C6.10376 8.06739 6.19459 8.06746 6.28542 8.06754C6.50713 8.06769 6.72885 8.06767 6.95057 8.06756C7.13068 8.06748 7.3108 8.06747 7.49091 8.06751C7.5165 8.06751 7.54209 8.06752 7.56845 8.06752C7.62042 8.06754 7.67239 8.06755 7.72436 8.06756C8.21226 8.06767 8.70016 8.06754 9.18806 8.06734C9.60715 8.06717 10.0262 8.0672 10.4453 8.06738C10.9314 8.06758 11.4175 8.06766 11.9036 8.06754C11.9554 8.06753 12.0072 8.06752 12.059 8.06751C12.0844 8.0675 12.1099 8.06749 12.1362 8.06749C12.3162 8.06746 12.4962 8.06751 12.6762 8.0676C12.9182 8.06771 13.1603 8.06763 13.4023 8.06742C13.4914 8.06737 13.5806 8.06738 13.6697 8.06746C13.7908 8.06756 13.9119 8.06744 14.033 8.06725C14.0866 8.06738 14.0866 8.06738 14.1413 8.0675C14.2953 8.0828 14.2953 8.0828 14.4249 8.02499C14.5226 6.62693 14.124 5.27744 13.2249 4.19999C13.1957 4.16455 13.1664 4.12912 13.1363 4.09261C12.5793 3.44813 11.829 3.03539 11.0687 2.67655C10.9856 2.63693 10.9025 2.59721 10.8195 2.55744C10.7649 2.53137 10.7103 2.50543 10.6555 2.47964C10.517 2.41409 10.3806 2.34624 10.2457 2.27346C10.2188 2.25917 10.1919 2.24488 10.1641 2.23015C10.1131 2.20293 10.0624 2.1751 10.0122 2.14658C9.89737 2.0858 9.83069 2.0591 9.70138 2.08311C9.66378 2.10105 9.62618 2.119 9.58744 2.13749C9.56522 2.14783 9.543 2.15817 9.52011 2.16883C9.44314 2.20527 9.36719 2.24339 9.29125 2.28192C9.26302 2.29609 9.2348 2.31025 9.20572 2.32484C9.1157 2.37006 9.02579 2.41549 8.93587 2.46093C8.87695 2.49058 8.81801 2.52022 8.75907 2.54984C8.67138 2.59392 8.58371 2.63803 8.49609 2.68226C8.35296 2.7545 8.20967 2.82638 8.06594 2.89741C8.02508 2.91765 8.02508 2.91765 7.9834 2.9383C7.93234 2.96357 7.88123 2.98875 7.83007 3.01382C7.70328 3.07665 7.58446 3.1436 7.46869 3.22499C7.31897 3.32237 7.21383 3.32939 7.03744 3.29999C6.92528 3.20465 6.89336 3.14408 6.86634 2.99999C6.89493 2.84753 6.95968 2.80238 7.07494 2.69999C7.15922 2.64519 7.24125 2.59562 7.32924 2.54779C7.35481 2.53365 7.38039 2.51952 7.40675 2.50495C7.79543 2.29322 8.1955 2.10313 8.59369 1.91014C8.67587 1.87015 8.75805 1.83013 8.84022 1.7901C9.0392 1.6932 9.23828 1.59651 9.43744 1.49999C9.43796 1.46397 9.43796 1.46397 9.4385 1.42723C9.44052 1.31786 9.44366 1.20855 9.44681 1.09921C9.44734 1.06143 9.44788 1.02365 9.44842 0.984729C9.45771 0.703364 9.45771 0.703364 9.54701 0.556281C9.63095 0.482178 9.66442 0.461892 9.77494 0.46405C9.79969 0.463567 9.82444 0.463083 9.84994 0.462585C9.97582 0.504384 10.0095 0.559606 10.0749 0.674988C10.0983 0.816244 10.1011 0.956245 10.1031 1.09921C10.1047 1.15696 10.1047 1.15696 10.1064 1.21588C10.1091 1.31059 10.1111 1.40526 10.1124 1.49999C10.5346 1.71308 10.9578 1.92324 11.3851 2.12577C12.9405 2.86712 14.1615 3.9202 14.7578 5.58514C14.9827 6.24231 15.069 6.90666 15.0718 7.59843C15.073 7.67065 15.073 7.67065 15.0742 7.74432C15.0762 8.24647 15.0762 8.24647 14.8894 8.47352C14.8579 8.49977 14.8579 8.49977 14.8257 8.52655C14.805 8.54463 14.7842 8.56271 14.7629 8.58134C14.6874 8.62499 14.6874 8.62499 14.4624 8.66249C14.4624 8.88524 14.4624 9.10799 14.4624 9.33749C14.5367 9.34986 14.6109 9.36224 14.6874 9.37499C14.8611 9.46184 14.9484 9.55688 15.0318 9.73223C15.0926 9.91633 15.0806 10.1054 15.0771 10.2973C15.0769 10.3418 15.0767 10.3863 15.0764 10.4322C15.0756 10.5735 15.0737 10.7149 15.0718 10.8562C15.0711 10.9524 15.0704 11.0486 15.0698 11.1448C15.0681 11.3799 15.0655 11.6149 15.0624 11.85C15.2852 11.85 15.5079 11.85 15.7374 11.85C15.7371 11.7389 15.7368 11.6279 15.7364 11.5134C15.7334 10.4944 15.7312 9.47531 15.7298 8.45625C15.7296 8.32262 15.7294 8.18899 15.7292 8.05536C15.7292 8.02875 15.7291 8.00215 15.7291 7.97474C15.7284 7.5443 15.7272 7.11386 15.7259 6.68341C15.7245 6.24156 15.7236 5.79971 15.7233 5.35786C15.7231 5.10975 15.7227 4.86165 15.7216 4.61355C15.7206 4.37996 15.7202 4.14638 15.7205 3.91279C15.7204 3.82713 15.7201 3.74146 15.7196 3.6558C15.7188 3.53865 15.719 3.42155 15.7194 3.3044C15.719 3.27066 15.7185 3.23691 15.7181 3.20215C15.7222 2.76116 15.9564 2.43887 16.2601 2.13749C16.2853 2.11298 16.3106 2.08847 16.3366 2.06322C16.4355 1.96447 16.5263 1.85981 16.6171 1.75355C16.6749 1.68749 16.6749 1.68749 16.7339 1.64028C16.8095 1.54805 16.8013 1.4823 16.8014 1.3642C16.8023 1.30231 16.8023 1.30231 16.8033 1.23917C16.8037 1.15226 16.8039 1.06534 16.8039 0.97843C16.805 0.916471 16.805 0.916471 16.806 0.853259C16.8061 0.815485 16.8062 0.77771 16.8063 0.738791C16.83 0.610211 16.8721 0.566084 16.9749 0.487488C17.1062 0.468738 17.1062 0.468738 17.2374 0.487488C17.3465 0.570686 17.3814 0.619467 17.4249 0.749988C17.4266 0.812563 17.4264 0.8752 17.4249 0.937781C17.4096 1.35049 17.4096 1.35049 17.5307 1.73392C17.616 1.81532 17.7037 1.88216 17.7999 1.94999C17.8468 1.99934 17.8922 2.05013 17.9359 2.10233C17.9997 2.17743 18.0635 2.25106 18.1317 2.3222C18.4492 2.65859 18.4971 2.99082 18.492 3.44261C18.4919 3.49365 18.4919 3.54469 18.492 3.59573C18.4921 3.73316 18.4912 3.87057 18.4901 4.00799C18.4892 4.15203 18.4891 4.29607 18.4889 4.44011C18.4885 4.71236 18.4872 4.9846 18.4857 5.25685C18.4841 5.56701 18.4832 5.87717 18.4825 6.18733C18.4809 6.82489 18.4783 7.46244 18.4749 8.09999C18.5078 8.0991 18.5078 8.0991 18.5414 8.0982C18.6411 8.09586 18.7408 8.0944 18.8406 8.09296C18.8751 8.09201 18.9096 8.09107 18.9452 8.0901C18.9785 8.08974 19.0119 8.08938 19.0462 8.089C19.0922 8.08812 19.0922 8.08812 19.1391 8.08722C19.2457 8.10308 19.2967 8.1395 19.3749 8.21249C19.3935 8.29335 19.3935 8.29335 19.3913 8.38124C19.3913 8.41024 19.3912 8.43925 19.3912 8.46913C19.371 8.56937 19.344 8.60186 19.2624 8.66249C19.1236 8.71058 18.9864 8.70449 18.8407 8.70425C18.8131 8.70425 18.7856 8.70425 18.7573 8.70426C18.6684 8.70423 18.5796 8.70395 18.4908 8.70365C18.4358 8.7036 18.3809 8.70356 18.3259 8.70354C18.1225 8.70334 17.919 8.70282 17.7156 8.70233C17.2608 8.70156 16.806 8.70078 16.3374 8.69999C16.3374 9.73949 16.3374 10.779 16.3374 11.85C16.8448 11.85 17.3522 11.85 17.8749 11.85C17.8736 11.6177 17.8736 11.6177 17.8723 11.3808C17.8718 11.2571 17.8714 11.1334 17.8711 11.0097C17.8707 10.8793 17.8701 10.7488 17.8693 10.6184C17.8683 10.4686 17.8679 10.3189 17.8676 10.1691C17.867 10.0992 17.867 10.0992 17.8664 10.0278C17.8664 9.98431 17.8664 9.94078 17.8664 9.89593C17.8663 9.85771 17.8661 9.81949 17.8659 9.78011C17.8756 9.6671 17.8977 9.588 17.9499 9.48749C18.0895 9.39447 18.1599 9.39511 18.3249 9.41249C18.4307 9.49177 18.4704 9.53584 18.493 9.66737C18.4926 9.70767 18.4923 9.74798 18.492 9.7895C18.4919 9.85818 18.4919 9.85818 18.4919 9.92825C18.4912 9.97751 18.4904 10.0268 18.4896 10.0775C18.4893 10.1286 18.4891 10.1797 18.4889 10.2307C18.4884 10.3649 18.4869 10.499 18.4852 10.6332C18.4837 10.7702 18.483 10.9072 18.4823 11.0442C18.4807 11.3128 18.4781 11.5814 18.4749 11.85C18.503 11.8495 18.5311 11.849 18.5601 11.8484C18.597 11.848 18.634 11.8476 18.6721 11.8472C18.7087 11.8467 18.7453 11.8462 18.783 11.8456C18.9833 11.854 19.1057 11.924 19.2577 12.0562C19.383 12.2036 19.3798 12.3178 19.3805 12.5051C19.3806 12.5299 19.3807 12.5546 19.3809 12.5801C19.3813 12.6632 19.3814 12.7463 19.3816 12.8294C19.3818 12.8889 19.3821 12.9484 19.3823 13.0079C19.3831 13.2034 19.3835 13.3989 19.3839 13.5945C19.384 13.6618 19.3842 13.7291 19.3843 13.7964C19.385 14.1126 19.3856 14.4288 19.3859 14.745C19.3863 15.11 19.3872 15.4751 19.3888 15.8401C19.3899 16.1222 19.3905 16.4044 19.3906 16.6865C19.3907 16.855 19.391 17.0236 19.3919 17.1921C19.3928 17.3506 19.393 17.5092 19.3926 17.6677C19.3926 17.7258 19.3928 17.784 19.3933 17.8421C19.394 17.9216 19.3937 18.0011 19.3932 18.0806C19.3933 18.125 19.3934 18.1694 19.3935 18.2152C19.3634 18.4135 19.2724 18.5216 19.1229 18.6504C18.9728 18.7262 18.8464 18.7334 18.682 18.7315C18.6348 18.7319 18.6348 18.7319 18.5867 18.7322C18.4815 18.7328 18.3763 18.7324 18.2711 18.7319C18.1956 18.7321 18.12 18.7324 18.0445 18.7327C17.8396 18.7334 17.6347 18.7331 17.4297 18.7326C17.2153 18.7323 17.001 18.7326 16.7866 18.7328C16.4266 18.7331 16.0667 18.7328 15.7067 18.732C15.2904 18.7312 14.874 18.7315 14.4577 18.7323C14.1003 18.733 13.743 18.7331 13.3856 18.7327C13.1721 18.7325 12.9586 18.7324 12.7451 18.7329C12.5445 18.7334 12.3439 18.7331 12.1432 18.7322C12.0695 18.732 11.9958 18.7321 11.9221 18.7324C11.8217 18.7328 11.7213 18.7323 11.6208 18.7315C11.5768 18.732 11.5768 18.732 11.532 18.7325C11.399 18.7306 11.3263 18.7231 11.2193 18.6411C11.1236 18.5088 11.1446 18.4227 11.1624 18.2625C11.2304 18.1622 11.2703 18.1515 11.3874 18.1125C11.4862 18.109 11.584 18.1076 11.6828 18.108C11.7133 18.1079 11.7437 18.1079 11.775 18.1079C11.8773 18.1078 11.9795 18.108 12.0818 18.1082C12.155 18.1082 12.2281 18.1082 12.3013 18.1082C12.5003 18.1082 12.6992 18.1084 12.8982 18.1087C13.106 18.1089 13.3138 18.1089 13.5216 18.109C13.9152 18.1091 14.3089 18.1094 14.7025 18.1098C15.2343 18.1103 15.7662 18.1105 16.298 18.1107C17.1361 18.1111 17.9743 18.1118 18.8124 18.1125C18.7939 15.3281 18.7939 15.3281 18.7749 12.4875C16.0153 12.4751 13.2557 12.4627 10.4124 12.45C10.4184 14.4549 10.4184 14.4549 10.426 16.4597C10.4266 16.8471 10.4266 16.8471 10.4268 17.0283C10.4269 17.1551 10.4275 17.2819 10.4283 17.4088C10.4293 17.5704 10.4296 17.7321 10.4294 17.8938C10.4294 17.9532 10.4297 18.0126 10.4303 18.072C10.4311 18.1522 10.4309 18.2323 10.4305 18.3124C10.4306 18.3573 10.4308 18.4023 10.4309 18.4486C10.4124 18.5625 10.4124 18.5625 10.3604 18.6519C10.2057 18.7476 10.0556 18.7331 9.87719 18.7315C9.83756 18.7318 9.79793 18.732 9.7571 18.7322C9.62386 18.7328 9.49064 18.7324 9.3574 18.7319C9.26206 18.7321 9.16671 18.7324 9.07137 18.7327C8.83899 18.7333 8.60663 18.7332 8.37426 18.7328C8.18539 18.7324 7.99652 18.7324 7.80765 18.7326C7.78078 18.7326 7.75391 18.7326 7.72622 18.7326C7.67164 18.7327 7.61705 18.7327 7.56247 18.7328C7.0504 18.7332 6.53834 18.7327 6.02627 18.7319C5.58695 18.7312 5.14763 18.7314 4.7083 18.732C4.1982 18.7328 3.6881 18.7332 3.17799 18.7327C3.12358 18.7327 3.06917 18.7326 3.01476 18.7326C2.98799 18.7325 2.96122 18.7325 2.93364 18.7325C2.74505 18.7324 2.55645 18.7326 2.36786 18.7329C2.11392 18.7334 1.86 18.7331 1.60607 18.7322C1.5128 18.732 1.41952 18.7321 1.32625 18.7324C1.19906 18.7328 1.0719 18.7323 0.944711 18.7315C0.889161 18.732 0.889161 18.732 0.832489 18.7325C0.620041 18.7301 0.489052 18.7108 0.324939 18.5625C0.190331 18.4004 0.15618 18.2901 0.156143 18.0811C0.155936 18.0562 0.155728 18.0313 0.155515 18.0057C0.155007 17.9229 0.155564 17.8401 0.156125 17.7573C0.155983 17.6977 0.155776 17.6381 0.155511 17.5785C0.154988 17.417 0.155406 17.2556 0.156025 17.0941C0.156545 16.9251 0.156302 16.756 0.15617 16.5869C0.156069 16.303 0.156573 16.0192 0.157443 15.7353C0.158441 15.4072 0.158506 15.079 0.158066 14.7509C0.157662 14.4351 0.157894 14.1193 0.158424 13.8035C0.15864 13.6692 0.158637 13.5348 0.158459 13.4005C0.15828 13.2423 0.15866 13.0841 0.15947 12.926C0.159679 12.8679 0.159697 12.8099 0.159509 12.7519C0.159286 12.6726 0.159756 12.5934 0.160401 12.5142C0.160492 12.4698 0.160583 12.4255 0.160677 12.3798C0.182127 12.2034 0.261354 12.0832 0.397595 11.9719C0.624939 11.8048 0.770907 11.85 1.07494 11.85C1.07494 10.8105 1.07494 9.77099 1.07494 8.69999C0.864564 8.69999 0.654189 8.69999 0.437439 8.69999C0.249939 8.62499 0.249939 8.62499 0.174939 8.54999C0.162341 8.47279 0.162341 8.47279 0.160876 8.38358C0.159813 8.35424 0.158749 8.3249 0.157654 8.29467C0.174939 8.21249 0.174939 8.21249 0.23985 8.15179C0.338028 8.09202 0.38982 8.08681 0.50365 8.089C0.537004 8.08936 0.570359 8.08973 0.604724 8.0901C0.639238 8.09104 0.673753 8.09199 0.709314 8.09296C0.744408 8.09346 0.779503 8.09397 0.815661 8.09449C0.902109 8.09582 0.988513 8.09767 1.07494 8.09999C1.0748 8.07366 1.07466 8.04734 1.07452 8.02022C1.0712 7.37855 1.06872 6.73688 1.06717 6.09521C1.06639 5.78489 1.06534 5.47459 1.06362 5.16428C1.06212 4.89369 1.06116 4.62311 1.06083 4.35252C1.06063 4.20935 1.06018 4.06619 1.05908 3.92303C1.05805 3.78802 1.05775 3.65304 1.05797 3.51803C1.05791 3.44537 1.05711 3.37271 1.05628 3.30006C1.05811 2.90844 1.13488 2.61411 1.41478 2.32968C1.45108 2.29204 1.48736 2.2544 1.52362 2.21674C1.54223 2.19777 1.56083 2.1788 1.58 2.15926C1.67806 2.05807 1.77236 1.95347 1.86713 1.84921C2.04263 1.65729 2.04263 1.65729 2.08744 1.61249C2.09198 1.55112 2.09417 1.48958 2.09535 1.42806C2.09694 1.3714 2.09694 1.3714 2.09857 1.31359C2.10051 1.23391 2.10217 1.15422 2.10355 1.07452C2.10991 0.866216 2.11605 0.702885 2.23744 0.524988C2.35338 0.467018 2.44722 0.476478 2.57494 0.487488ZM2.37143 2.18959C2.34901 2.21353 2.3266 2.23748 2.3035 2.26215C2.26663 2.30148 2.26663 2.30148 2.22902 2.34161C2.20318 2.36939 2.17734 2.39716 2.15072 2.42577C2.12532 2.45282 2.09991 2.47986 2.07374 2.50773C1.75549 2.83582 1.75549 2.83582 1.67128 3.26996C1.67137 3.31079 1.67146 3.35162 1.67156 3.39369C1.6719 3.44553 1.67224 3.49736 1.67259 3.55077C1.67337 3.71551 1.67414 3.88025 1.67494 4.04999C2.18231 4.04999 2.68969 4.04999 3.21244 4.04999C3.21708 3.88989 3.22172 3.72978 3.2265 3.56483C3.22855 3.51504 3.2306 3.46526 3.23271 3.41396C3.23785 3.04552 3.13902 2.868 2.89823 2.60111C2.87121 2.57573 2.84419 2.55035 2.81634 2.52421C2.71757 2.42926 2.62369 2.33539 2.53744 2.22889C2.51269 2.19873 2.48794 2.16857 2.46244 2.13749C2.41697 2.13313 2.41697 2.13313 2.37143 2.18959ZM17.0386 2.18377C16.971 2.25482 16.9037 2.3261 16.8367 2.39764C16.8137 2.42164 16.7907 2.44565 16.767 2.47037C16.6967 2.5453 16.6292 2.6219 16.5624 2.69999C16.5294 2.73744 16.5294 2.73744 16.4956 2.77566C16.3007 3.02432 16.3108 3.25903 16.3234 3.56483C16.328 3.72493 16.3327 3.88503 16.3374 4.04999C16.8448 4.04999 17.3522 4.04999 17.8749 4.04999C17.878 3.88834 17.8811 3.72669 17.8843 3.56014C17.8864 3.48444 17.8864 3.48444 17.8885 3.40721C17.8915 3.08004 17.8571 2.92159 17.6362 2.67655C17.6051 2.64716 17.5741 2.61777 17.5421 2.58749C17.4279 2.47711 17.3183 2.3672 17.2163 2.2453C17.1862 2.20972 17.156 2.17414 17.1249 2.13749C17.0808 2.13319 17.0808 2.13319 17.0386 2.18377ZM1.67494 4.64999C1.67494 5.78849 1.67494 6.92699 1.67494 8.09999C2.18231 8.09999 2.68969 8.09999 3.21244 8.09999C3.21244 6.96149 3.21244 5.82299 3.21244 4.64999C2.70506 4.64999 2.19769 4.64999 1.67494 4.64999ZM16.3374 4.64999C16.3374 5.78849 16.3374 6.92699 16.3374 8.09999C16.8448 8.09999 17.3522 8.09999 17.8749 8.09999C17.8749 6.96149 17.8749 5.82299 17.8749 4.64999C17.3676 4.64999 16.8602 4.64999 16.3374 4.64999ZM1.67494 8.69999C1.67494 9.73949 1.67494 10.779 1.67494 11.85C1.87294 11.85 2.07094 11.85 2.27494 11.85C2.27803 11.7649 2.28113 11.6798 2.28431 11.5922C2.30178 11.2878 2.35163 11.0336 2.56322 10.8023C2.76953 10.6739 2.97543 10.6224 3.21244 10.575C3.21244 9.95624 3.21244 9.33749 3.21244 8.69999C2.70506 8.69999 2.19769 8.69999 1.67494 8.69999ZM5.68744 8.69999C5.68744 8.89799 5.68744 9.09599 5.68744 9.29999C8.38519 9.29999 11.0829 9.29999 13.8624 9.29999C13.8624 9.10199 13.8624 8.90399 13.8624 8.69999C11.1647 8.69999 8.46694 8.69999 5.68744 8.69999ZM5.08744 9.97499C5.082 10.0779 5.08044 10.1769 5.08275 10.2797C5.08309 10.308 5.08343 10.3362 5.08378 10.3654C5.08466 10.4352 5.08601 10.5051 5.08744 10.575C5.12263 10.5751 5.12263 10.5751 5.15853 10.5753C5.7304 10.5775 6.30227 10.5803 6.87414 10.5838C7.15069 10.5855 7.42725 10.587 7.7038 10.588C7.94496 10.5888 8.18612 10.5901 8.42727 10.5918C8.55486 10.5927 8.68244 10.5934 8.81004 10.5936C8.95277 10.594 9.09548 10.5951 9.23821 10.5963C9.28013 10.5962 9.32204 10.5962 9.36523 10.5961C9.65315 10.5996 9.91027 10.6261 10.1429 10.807C10.4208 11.1643 10.3824 11.3396 10.4124 11.85C11.7489 11.85 13.0854 11.85 14.4624 11.85C14.4624 11.2312 14.4624 10.6125 14.4624 9.97499C14.3732 9.88571 14.3557 9.8906 14.2343 9.89055C14.2021 9.89036 14.1699 9.89016 14.1367 9.88996C14.0832 9.89021 14.0832 9.89021 14.0287 9.89046C13.991 9.89035 13.9533 9.89023 13.9145 9.89011C13.7874 9.88981 13.6604 9.89005 13.5333 9.89028C13.4425 9.89018 13.3517 9.89005 13.261 9.88988C13.0395 9.88958 12.8181 9.88962 12.5966 9.88984C12.4167 9.89001 12.2368 9.89003 12.0569 9.88995C12.0185 9.88994 12.0185 9.88993 11.9794 9.88992C11.9274 9.88989 11.8755 9.88987 11.8236 9.88984C11.3361 9.88963 10.8486 9.88988 10.3611 9.89028C9.94253 9.89061 9.52393 9.89056 9.10532 9.89021C8.61964 9.88981 8.13396 9.88965 7.64827 9.88988C7.59652 9.8899 7.54477 9.88993 7.49301 9.88995C7.46755 9.88996 7.44208 9.88998 7.41584 9.88999C7.23606 9.89005 7.05629 9.88994 6.87651 9.88977C6.63471 9.88953 6.39291 9.8897 6.1511 9.89013C6.06212 9.89023 5.97314 9.8902 5.88416 9.89004C5.76316 9.88984 5.64217 9.89009 5.52117 9.89046C5.48554 9.8903 5.44992 9.89013 5.41322 9.88996C5.36486 9.89025 5.36486 9.89025 5.31553 9.89055C5.28757 9.89056 5.25962 9.89057 5.23082 9.89059C5.15306 9.89426 5.15306 9.89426 5.08744 9.97499ZM2.87494 11.3625C2.8568 11.4635 2.85025 11.5407 2.85239 11.6413C2.85223 11.669 2.85207 11.6967 2.85191 11.7253C2.8516 11.818 2.85263 11.9107 2.85365 12.0034C2.85371 12.0699 2.85368 12.1365 2.85357 12.203C2.85352 12.3835 2.85462 12.564 2.85593 12.7445C2.8571 12.9332 2.85721 13.1219 2.85743 13.3106C2.85801 13.6678 2.85955 14.0251 2.86144 14.3823C2.86353 14.7891 2.86456 15.1958 2.8655 15.6025C2.86746 16.4392 2.8709 17.2758 2.87494 18.1125C3.30806 18.1125 3.74119 18.1125 4.18744 18.1125C4.18818 18.0097 4.18892 17.907 4.18969 17.8011C4.1922 17.4609 4.19512 17.1207 4.19822 16.7805C4.20009 16.5743 4.20183 16.3681 4.20326 16.1619C4.20465 15.9628 4.20639 15.7637 4.20837 15.5645C4.20906 15.4887 4.20963 15.4129 4.21006 15.3371C4.2107 15.2306 4.21179 15.124 4.21298 15.0175C4.21306 14.9865 4.21314 14.9554 4.21323 14.9234C4.21898 14.5178 4.31686 14.1411 4.59628 13.8341C4.68217 13.7559 4.77079 13.6839 4.86244 13.6125C4.90288 13.5806 4.94331 13.5487 4.98373 13.5168C5.05006 13.4646 5.11649 13.4125 5.18319 13.3608C5.34024 13.2387 5.49218 13.1118 5.64291 12.982C5.77845 12.8667 5.91415 12.7521 6.05775 12.6469C6.08163 12.6293 6.10551 12.6117 6.13011 12.5935C6.25836 12.5452 6.34334 12.566 6.47494 12.6C6.56557 12.6583 6.64202 12.7138 6.72338 12.7828C6.74597 12.8012 6.76857 12.8197 6.79186 12.8387C6.86175 12.896 6.93093 12.9541 6.99994 13.0125C7.03117 13.0388 7.03117 13.0388 7.06304 13.0657C7.14335 13.1335 7.2236 13.2014 7.30326 13.27C7.40872 13.3605 7.51562 13.4474 7.62674 13.5308C8.00715 13.8164 8.26966 14.0927 8.37099 14.5752C8.39145 14.7304 8.39405 14.8825 8.39514 15.0388C8.39551 15.0721 8.39588 15.1054 8.39626 15.1397C8.39744 15.2493 8.39837 15.3589 8.3993 15.4684C8.40007 15.5446 8.40086 15.6208 8.40166 15.697C8.40373 15.8971 8.40559 16.0972 8.4074 16.2973C8.40928 16.5017 8.41137 16.7061 8.41344 16.9104C8.41747 17.3111 8.42125 17.7118 8.42494 18.1125C8.88281 18.1125 9.34069 18.1125 9.81244 18.1125C9.81667 17.2301 9.82012 16.3477 9.82215 15.4653C9.82312 15.0556 9.82444 14.6459 9.82658 14.2362C9.82845 13.8792 9.82966 13.5222 9.83008 13.1652C9.83032 12.9761 9.8309 12.787 9.83226 12.5979C9.83353 12.42 9.83393 12.2421 9.83365 12.0642C9.8337 11.9988 9.83407 11.9334 9.83479 11.8681C9.83572 11.7789 9.8355 11.6898 9.83499 11.6007C9.83553 11.5747 9.83608 11.5488 9.83664 11.522C9.83462 11.3922 9.81966 11.3334 9.73418 11.234C9.59862 11.1608 9.50842 11.156 9.35451 11.1557C9.32769 11.1554 9.30086 11.1552 9.27322 11.1549C9.18354 11.1542 9.09389 11.1546 9.00421 11.155C8.93983 11.1547 8.87545 11.1544 8.81108 11.154C8.63636 11.1532 8.46166 11.1533 8.28694 11.1536C8.14109 11.1538 7.99524 11.1535 7.84939 11.1532C7.50536 11.1526 7.16133 11.1527 6.81729 11.1534C6.4623 11.154 6.10732 11.1534 5.75233 11.1522C5.44754 11.1512 5.14277 11.1509 4.83798 11.1512C4.65594 11.1514 4.47392 11.1513 4.29188 11.1506C4.12074 11.1499 3.94962 11.1501 3.77848 11.151C3.71566 11.1512 3.65285 11.1511 3.59004 11.1506C3.50429 11.15 3.41861 11.1506 3.33286 11.1514C3.28488 11.1515 3.23691 11.1515 3.18748 11.1515C3.02485 11.1821 2.9706 11.2284 2.87494 11.3625ZM0.774939 12.45C0.726969 12.4896 0.726969 12.4896 0.732824 12.58C0.732859 12.6214 0.732893 12.6628 0.732929 12.7055C0.732878 12.7529 0.732826 12.8003 0.732773 12.8491C0.732906 12.9021 0.733042 12.9551 0.733181 13.0081C0.733192 13.0635 0.733186 13.119 0.733165 13.1744C0.733154 13.3253 0.733375 13.4762 0.733636 13.6271C0.73387 13.7847 0.733893 13.9422 0.733937 14.0998C0.734054 14.3984 0.734362 14.6969 0.734738 14.9955C0.735157 15.3353 0.735363 15.6751 0.735552 16.0149C0.735944 16.7141 0.736632 17.4133 0.737439 18.1125C1.24481 18.1125 1.75219 18.1125 2.27494 18.1125C2.27494 16.2439 2.27494 14.3752 2.27494 12.45C1.77994 12.45 1.28494 12.45 0.774939 12.45ZM6.01322 13.4367C5.80712 13.6181 5.59685 13.7916 5.37978 13.9596C4.96849 14.2681 4.96849 14.2681 4.78744 14.7375C4.78242 14.8479 4.7827 14.9581 4.78318 15.0686C4.78318 15.1015 4.78317 15.1345 4.78316 15.1684C4.78319 15.277 4.78348 15.3855 4.78378 15.4941C4.78385 15.5695 4.7839 15.6449 4.78394 15.7203C4.78408 15.9185 4.78445 16.1167 4.78486 16.3149C4.78525 16.5172 4.78542 16.7196 4.78561 16.9219C4.78601 17.3188 4.78665 17.7156 4.78744 18.1125C4.94831 18.1125 5.10919 18.1125 5.27494 18.1125C5.27524 18.0705 5.27554 18.0286 5.27586 17.9854C5.27876 17.5903 5.28205 17.1952 5.28572 16.8001C5.28759 16.597 5.28933 16.3939 5.29076 16.1908C5.29214 15.9948 5.29388 15.7988 5.29587 15.6028C5.29656 15.528 5.29713 15.4532 5.29756 15.3784C5.2982 15.2737 5.29928 15.169 5.30048 15.0643C5.30056 15.0333 5.30064 15.0023 5.30073 14.9703C5.30461 14.7051 5.30461 14.7051 5.38744 14.5875C5.46361 14.5178 5.46361 14.5178 5.55619 14.4469C5.65991 14.367 5.76269 14.2873 5.86263 14.2027C5.89454 14.1757 5.92644 14.1488 5.95931 14.1211C5.98812 14.0964 6.01693 14.0717 6.04662 14.0462C6.15939 13.9733 6.22764 13.9512 6.36244 13.95C6.56772 14.0435 6.72856 14.1789 6.89681 14.3273C6.93118 14.3571 6.93118 14.3571 6.96625 14.3875C7.25431 14.6381 7.25431 14.6381 7.29994 14.775C7.30346 14.8505 7.30474 14.9261 7.30479 15.0017C7.30491 15.0483 7.30503 15.095 7.30515 15.1431C7.30508 15.1941 7.305 15.2452 7.30492 15.2962C7.30494 15.3485 7.30498 15.4009 7.30503 15.4533C7.30508 15.563 7.305 15.6728 7.30483 15.7825C7.30461 15.923 7.30474 16.0634 7.30496 16.2038C7.3051 16.312 7.30505 16.4201 7.30496 16.5283C7.30493 16.5801 7.30496 16.6318 7.30505 16.6836C7.30515 16.7561 7.30497 16.8286 7.30479 16.9011C7.30476 16.9423 7.30473 16.9835 7.3047 17.026C7.30026 17.1299 7.28604 17.2239 7.26244 17.325C7.20945 17.3344 7.15628 17.3428 7.10306 17.3508C7.07348 17.3556 7.0439 17.3603 7.01341 17.3653C6.89637 17.3616 6.85767 17.3319 6.77494 17.25C6.75825 17.1519 6.75825 17.1519 6.76101 17.0326C6.7616 16.9879 6.7622 16.9432 6.76281 16.8971C6.76405 16.8487 6.7653 16.8003 6.76659 16.7505C6.76707 16.7002 6.76743 16.6498 6.76767 16.5995C6.7688 16.386 6.7712 16.1726 6.77634 15.9591C6.7794 15.8284 6.78042 15.6978 6.78019 15.567C6.78064 15.4935 6.78332 15.42 6.78604 15.3466C6.78497 15.14 6.78248 15.0138 6.64269 14.8546C6.54017 14.7703 6.43759 14.6951 6.32494 14.625C6.29245 14.6459 6.25997 14.6668 6.2265 14.6883C6.20823 14.7 6.18996 14.7118 6.17113 14.7239C6.14764 14.7407 6.12414 14.7576 6.09994 14.775C6.06187 14.8006 6.02381 14.8262 5.98458 14.8525C5.88063 14.9403 5.87533 14.9604 5.84788 15.1046C5.84723 15.1607 5.84782 15.2169 5.84939 15.2729C5.84936 15.3037 5.84933 15.3344 5.8493 15.3661C5.84945 15.4674 5.8512 15.5686 5.85297 15.6699C5.85338 15.7402 5.85371 15.8106 5.85393 15.8809C5.85479 16.0658 5.857 16.2507 5.85949 16.4356C5.8622 16.6576 5.86323 16.8796 5.86454 17.1015C5.86672 17.4386 5.87103 17.7755 5.87494 18.1125C6.51844 18.1125 7.16194 18.1125 7.82494 18.1125C7.82821 17.5209 7.82821 17.5209 7.83043 16.9293C7.8311 16.6878 7.83189 16.4464 7.83343 16.2049C7.83465 16.0101 7.83532 15.8154 7.83561 15.6206C7.83582 15.5465 7.83622 15.4723 7.83683 15.3982C7.83765 15.294 7.83776 15.1898 7.83771 15.0856C7.83811 15.0553 7.83852 15.0249 7.83894 14.9937C7.83736 14.7005 7.77255 14.4267 7.56244 14.2125C7.48295 14.146 7.40366 14.0826 7.32103 14.0203C7.11365 13.8609 6.91181 13.6965 6.71313 13.5264C6.65886 13.48 6.6044 13.4337 6.54994 13.3875C6.51673 13.3588 6.48352 13.3302 6.4493 13.3006C6.25919 13.1624 6.15804 13.3063 6.01322 13.4367Z" fill="black"/>
<path d="M16.2038 13.6031C16.3901 13.6685 16.4967 13.7773 16.6374 13.9125C16.6745 13.9451 16.7116 13.9776 16.7499 14.0111C16.7897 14.0462 16.8296 14.0813 16.8694 14.1164C16.9063 14.1489 16.9432 14.1813 16.9812 14.2147C17.1923 14.4224 17.2957 14.6158 17.3009 14.9143C17.3006 14.9496 17.3002 14.9848 17.2998 15.0211C17.3 15.0583 17.3002 15.0954 17.3003 15.1337C17.3005 15.2119 17.3001 15.29 17.2993 15.3682C17.2983 15.4872 17.2993 15.6061 17.3005 15.7251C17.3004 15.8014 17.3002 15.8777 17.2998 15.9539C17.3002 15.9892 17.3006 16.0244 17.3009 16.0607C17.2967 16.3029 17.2411 16.4617 17.0874 16.65C16.8181 16.9058 16.5452 16.8876 16.1921 16.8867C16.145 16.8873 16.098 16.888 16.0495 16.8886C15.7052 16.8888 15.471 16.8568 15.2124 16.6125C15.0984 16.4496 15.0584 16.3115 15.0558 16.1147C15.0553 16.0834 15.0548 16.0521 15.0543 16.0199C15.054 15.9863 15.0537 15.9528 15.0535 15.9182C15.0532 15.8833 15.0528 15.8485 15.0525 15.8125C15.052 15.7388 15.0516 15.665 15.0513 15.5913C15.0509 15.5161 15.0501 15.441 15.049 15.3659C15.0474 15.257 15.0468 15.1482 15.0464 15.0393C15.0458 15.006 15.0451 14.9728 15.0444 14.9385C15.0453 14.6736 15.1118 14.485 15.2803 14.2798C15.3144 14.2486 15.3144 14.2486 15.3491 14.2168C15.3745 14.1932 15.3999 14.1696 15.426 14.1454C15.4653 14.1102 15.4653 14.1102 15.5054 14.0742C15.5311 14.0503 15.5568 14.0264 15.5834 14.0018C16.0022 13.6178 16.0022 13.6178 16.2038 13.6031ZM16.1499 14.325C16.1331 14.3422 16.1163 14.3594 16.0991 14.3772C15.9715 14.5066 15.8424 14.6244 15.6999 14.7375C15.6409 14.8554 15.6555 14.9817 15.6548 15.1112C15.6546 15.1408 15.6543 15.1704 15.6541 15.2009C15.6538 15.2635 15.6535 15.3261 15.6534 15.3888C15.653 15.4847 15.6519 15.5805 15.6507 15.6764C15.6504 15.7372 15.6502 15.798 15.6501 15.8589C15.6496 15.8876 15.6492 15.9163 15.6487 15.9459C15.6492 16.0987 15.6492 16.0987 15.7076 16.2369C15.7972 16.2877 15.8609 16.289 15.9637 16.2886C16.0185 16.2886 16.0185 16.2886 16.0744 16.2886C16.1124 16.288 16.1505 16.2874 16.1897 16.2867C16.2279 16.2869 16.2662 16.287 16.3055 16.2871C16.5108 16.299 16.5108 16.299 16.6749 16.2C16.6847 16.0955 16.6899 15.9949 16.6914 15.8902C16.6922 15.8439 16.6922 15.8439 16.693 15.7966C16.6939 15.731 16.6945 15.6655 16.695 15.6C16.696 15.5002 16.6988 15.4007 16.7016 15.301C16.7153 14.9769 16.7153 14.9769 16.6202 14.6751C16.554 14.6079 16.493 14.561 16.4124 14.5125C16.3631 14.4759 16.3139 14.4392 16.2647 14.4024C16.2268 14.3768 16.1889 14.3513 16.1499 14.325Z" fill="black"/>
<path d="M13.0139 13.6055C13.2039 13.6677 13.3074 13.7757 13.4498 13.9125C13.4904 13.9483 13.5312 13.9839 13.572 14.0194C13.6157 14.058 13.6593 14.0966 13.703 14.1352C13.7238 14.1531 13.7446 14.171 13.7661 14.1894C13.9668 14.3704 14.0907 14.5686 14.1068 14.8433C14.1077 14.9096 14.1079 14.9759 14.1073 15.0422C14.1074 15.0777 14.1076 15.1132 14.1077 15.1497C14.1078 15.2244 14.1075 15.299 14.1069 15.3736C14.1061 15.4872 14.1069 15.6007 14.1079 15.7143C14.1078 15.7871 14.1076 15.86 14.1073 15.9328C14.1076 15.9664 14.1079 16 14.1082 16.0346C14.1046 16.2795 14.0546 16.4858 13.8844 16.6697C13.6152 16.9077 13.3459 16.8876 13.0045 16.8867C12.9575 16.8873 12.9105 16.8879 12.862 16.8885C12.5573 16.8887 12.3698 16.8613 12.1116 16.6992C11.9202 16.5079 11.8579 16.3012 11.854 16.0346C11.8543 16.001 11.8546 15.9674 11.8549 15.9328C11.8548 15.8973 11.8546 15.8618 11.8545 15.8253C11.8544 15.7506 11.8547 15.676 11.8553 15.6014C11.8561 15.4878 11.8553 15.3743 11.8543 15.2607C11.8544 15.1879 11.8546 15.115 11.8549 15.0422C11.8546 15.0086 11.8543 14.975 11.854 14.9404C11.858 14.6727 11.9254 14.4823 12.0968 14.2757C12.1213 14.2531 12.1458 14.2305 12.171 14.2072C12.1983 14.1818 12.2256 14.1564 12.2537 14.1302C12.2818 14.1047 12.3099 14.0793 12.3389 14.0531C12.3668 14.0271 12.3946 14.0011 12.4233 13.9743C12.811 13.6167 12.811 13.6167 13.0139 13.6055ZM12.5847 14.6286C12.3698 14.8779 12.42 15.2022 12.4373 15.5109C12.4388 15.5769 12.4401 15.6429 12.4412 15.7088C12.4428 15.7715 12.4447 15.8341 12.4467 15.8968C12.4477 15.9261 12.4486 15.9555 12.4496 15.9858C12.4535 16.0765 12.4535 16.0765 12.4748 16.2C12.5973 16.2817 12.6342 16.2846 12.7762 16.285C12.8309 16.2851 12.8309 16.2851 12.8868 16.2853C12.9249 16.285 12.963 16.2847 13.0022 16.2844C13.0595 16.2848 13.0595 16.2848 13.118 16.2853C13.1727 16.2851 13.1727 16.2851 13.2285 16.285C13.262 16.2849 13.2954 16.2848 13.3299 16.2847C13.4201 16.2827 13.4201 16.2827 13.4873 16.2C13.5115 16.0039 13.5157 15.8077 13.5198 15.6102C13.5216 15.5447 13.5244 15.4791 13.5282 15.4137C13.5586 14.9928 13.5586 14.9928 13.3776 14.6286C13.046 14.2999 12.9163 14.3 12.5847 14.6286Z" fill="black"/>
<path d="M13.3301 10.5656C13.3639 10.5648 13.3978 10.564 13.4327 10.5632C13.6196 10.5621 13.7477 10.5654 13.8996 10.6875C13.969 10.7568 13.948 10.8534 13.9531 10.946C13.9299 11.0606 13.8765 11.1015 13.7871 11.175C13.6386 11.2055 13.4885 11.1976 13.3371 11.1961C13.2961 11.1969 13.2551 11.1978 13.2129 11.1988C12.9149 11.1982 12.9149 11.1982 12.7838 11.0884C12.7201 10.9507 12.7344 10.8696 12.7746 10.725C12.9208 10.5343 13.1095 10.5668 13.3301 10.5656Z" fill="black"/>
<path d="M11.5137 10.5656C11.5456 10.5649 11.5775 10.5641 11.6104 10.5633C11.7912 10.5622 11.9172 10.5667 12.0622 10.6875C12.1184 10.793 12.1184 10.793 12.1372 10.9125C12.0587 11.1205 12.0587 11.1205 11.9497 11.175C11.8015 11.1871 11.653 11.1872 11.5043 11.1891C11.463 11.1905 11.4217 11.1919 11.3791 11.1933C11.0757 11.1966 11.0757 11.1966 10.9461 11.0889C10.8829 10.9509 10.897 10.8697 10.9372 10.725C11.0773 10.5339 11.2999 10.5669 11.5137 10.5656Z" fill="black"/>
<path d="M17.2746 5.99999C17.3715 6.07106 17.3857 6.1083 17.4246 6.22499C17.4291 6.31084 17.4312 6.39683 17.4316 6.4828C17.4321 6.52834 17.4327 6.57387 17.4332 6.62079C17.4248 6.74613 17.4089 6.82751 17.3496 6.93749C17.2101 7.0305 17.1397 7.02987 16.9746 7.01249C16.8926 6.96005 16.8926 6.96005 16.8246 6.86249C16.8013 6.73717 16.8019 6.61464 16.8035 6.48749C16.8026 6.45365 16.8017 6.41981 16.8008 6.38495C16.8013 6.13897 16.8013 6.13897 16.9112 6.01391C17.0488 5.94376 17.1276 5.95916 17.2746 5.99999Z" fill="black"/>
<path d="M2.48086 5.96952C2.61287 6.00017 2.6464 6.00895 2.72461 6.11249C2.74814 6.23557 2.74199 6.36007 2.74102 6.48515C2.74214 6.53616 2.74214 6.53616 2.74329 6.5882C2.7431 6.83593 2.7431 6.83593 2.65679 6.9599C2.53557 7.03748 2.45278 7.03259 2.31211 7.01249C2.20309 6.92929 2.16812 6.88051 2.12461 6.74999C2.11913 6.66417 2.11633 6.57817 2.11523 6.49218C2.11378 6.42388 2.11378 6.42388 2.1123 6.35419C2.12557 6.21494 2.15268 6.14756 2.23711 6.03749C2.34961 5.96249 2.34961 5.96249 2.48086 5.96952Z" fill="black"/>
<path d="M17.2748 9.7875C17.3717 9.85858 17.3859 9.89581 17.4248 10.0125C17.4303 10.0983 17.4331 10.1843 17.4342 10.2703C17.4352 10.3159 17.4361 10.3614 17.4371 10.4083C17.4239 10.5476 17.3967 10.6149 17.3123 10.725C17.1998 10.8 17.1998 10.8 17.0686 10.793C16.9365 10.7623 16.9031 10.7535 16.8248 10.65C16.8004 10.527 16.8057 10.4025 16.8061 10.2773C16.805 10.2433 16.8039 10.2093 16.8028 10.1743C16.8021 9.92594 16.8021 9.92594 16.9112 9.80127C17.049 9.73138 17.1278 9.74668 17.2748 9.7875Z" fill="black"/>
</g>
<defs>
<clipPath id="clip0_598_104">
<rect width="19.2" height="19.2" fill="white" transform="translate(0.174805)"/>
</clipPath>
</defs>
</svg>
