<svg width="20" height="20" viewBox="0 0 20 20" fill="none" xmlns="http://www.w3.org/2000/svg">
<ellipse cx="10.3619" cy="10.0228" rx="9.54211" ry="9.54245" fill="white"/>
<path d="M11.2459 5.16016C11.2683 5.1756 11.2907 5.19104 11.3138 5.20694C11.6029 5.42152 11.8259 5.72936 11.8891 6.08931C11.8958 6.15349 11.9006 6.21677 11.9022 6.28125C11.9379 6.27983 11.9379 6.27983 11.9744 6.27837C12.4353 6.26789 12.7881 6.38963 13.1248 6.70925C13.4359 7.02879 13.5728 7.37328 13.577 7.81421C13.5772 7.83489 13.5775 7.85556 13.5777 7.87686C13.5769 8.01861 13.5544 8.14104 13.5154 8.27735C13.6082 8.25712 13.6488 8.23483 13.7137 8.16455C13.7811 8.09396 13.8497 8.02803 13.9239 7.9646C14.0211 7.88145 14.1086 7.79197 14.1949 7.69757C14.3371 7.57884 14.4738 7.55621 14.6552 7.5584C14.6744 7.55851 14.6935 7.55863 14.7133 7.55875C14.7737 7.55921 14.8341 7.56023 14.8946 7.56128C14.9359 7.56169 14.9771 7.56207 15.0184 7.5624C15.119 7.5633 15.2196 7.56472 15.3201 7.56641C15.3207 7.54723 15.3212 7.52806 15.3218 7.5083C15.3539 7.40996 15.3913 7.36254 15.4721 7.29868C15.6187 7.2261 15.7865 7.2435 15.9466 7.24576C15.9864 7.24579 16.0262 7.24576 16.066 7.24568C16.1491 7.24568 16.2322 7.24625 16.3153 7.24724C16.4216 7.24849 16.5278 7.24851 16.6341 7.24814C16.7162 7.24796 16.7983 7.24833 16.8803 7.24886C16.9195 7.24907 16.9587 7.24914 16.9978 7.24905C17.0527 7.24903 17.1075 7.2498 17.1623 7.25061C17.1934 7.25086 17.2245 7.25111 17.2566 7.25137C17.3867 7.27271 17.4735 7.33488 17.5581 7.4344C17.6032 7.54499 17.6019 7.64616 17.6015 7.76454C17.6017 7.78885 17.6018 7.81315 17.6019 7.83819C17.6021 7.88946 17.6021 7.94073 17.6018 7.99201C17.6016 8.07021 17.6024 8.14836 17.6033 8.22656C17.6033 8.27649 17.6033 8.32643 17.6032 8.37636C17.6035 8.39961 17.6038 8.42286 17.6041 8.44681C17.6024 8.59429 17.5812 8.68186 17.4803 8.79688C17.3738 8.87469 17.2984 8.88933 17.1675 8.88996C17.1149 8.89048 17.1149 8.89048 17.0613 8.89101C17.0233 8.89095 16.9852 8.89087 16.9472 8.89077C16.9079 8.89089 16.8687 8.89104 16.8294 8.8912C16.7472 8.89144 16.6651 8.89138 16.5829 8.89111C16.4779 8.89079 16.3728 8.89134 16.2678 8.89214C16.1868 8.89265 16.1057 8.89264 16.0247 8.89248C15.986 8.89248 15.9472 8.89264 15.9085 8.89298C15.8543 8.89339 15.8001 8.89302 15.7458 8.89263C15.6996 8.89262 15.6996 8.89262 15.6525 8.89261C15.546 8.8757 15.4862 8.83578 15.4022 8.76953C15.3904 8.74994 15.3787 8.73034 15.3666 8.71015C15.2994 8.63791 15.2367 8.63664 15.1406 8.62817C14.9211 8.62147 14.7593 8.64093 14.5854 8.7835C14.3411 9.01855 14.2767 9.25448 14.2275 9.58173C14.1015 10.4175 13.631 11.1832 13.0779 11.8047C13.0514 11.8362 13.0514 11.8362 13.0243 11.8684C12.8325 12.0958 12.5972 12.2741 12.367 12.4609C12.5148 12.8054 12.6733 13.1441 12.8352 13.4822C12.8663 13.5472 12.8973 13.6124 12.9283 13.6775C12.9426 13.7073 12.9426 13.7073 12.9573 13.7378C13.0232 13.8766 13.0232 13.8766 13.0232 13.9375C13.0468 13.9369 13.0704 13.9364 13.0947 13.9358C13.1823 13.9339 13.2699 13.9325 13.3575 13.9315C13.3954 13.9309 13.4333 13.9302 13.4712 13.9293C13.5257 13.9279 13.5802 13.9274 13.6347 13.9268C13.6675 13.9262 13.7003 13.9257 13.7341 13.9251C13.8162 13.9375 13.8162 13.9375 13.8619 13.9826C13.9082 14.0645 13.9076 14.1192 13.9063 14.2131C13.906 14.2448 13.9057 14.2765 13.9055 14.3092C13.9048 14.3422 13.9041 14.3752 13.9034 14.4092C13.903 14.4426 13.9026 14.476 13.9023 14.5104C13.9013 14.5929 13.8999 14.6754 13.8982 14.7578C13.9169 14.7578 13.9356 14.7577 13.9549 14.7577C14.4092 14.7565 14.8636 14.7556 15.3179 14.755C15.5376 14.7547 15.7573 14.7543 15.9771 14.7537C16.1685 14.7531 16.36 14.7528 16.5514 14.7527C16.6528 14.7526 16.7543 14.7524 16.8557 14.752C16.9688 14.7516 17.0818 14.7516 17.1949 14.7516C17.2287 14.7514 17.2625 14.7512 17.2974 14.751C17.328 14.7511 17.3587 14.7512 17.3903 14.7512C17.4305 14.7512 17.4305 14.7512 17.4714 14.7511C17.535 14.7578 17.535 14.7578 17.5897 14.8125C17.6049 14.9804 17.6049 14.9804 17.5596 15.0504C17.4817 15.1037 17.4181 15.0962 17.3244 15.0963C17.2962 15.0964 17.2962 15.0964 17.2674 15.0966C17.2039 15.0969 17.1404 15.0966 17.0768 15.0964C17.031 15.0965 16.9852 15.0966 16.9394 15.0967C16.8132 15.0971 16.687 15.0969 16.5607 15.0967C16.4247 15.0965 16.2888 15.0968 16.1528 15.097C15.8862 15.0974 15.6197 15.0973 15.3531 15.097C15.1365 15.0969 14.92 15.0968 14.7034 15.0969C14.6573 15.0969 14.6573 15.0969 14.6102 15.097C14.5476 15.097 14.4851 15.097 14.4226 15.097C13.8359 15.0973 13.2492 15.097 12.6624 15.0966C12.1586 15.0962 11.6547 15.0963 11.1508 15.0966C10.5663 15.0971 9.9817 15.0972 9.39712 15.097C9.33484 15.097 9.27255 15.0969 9.21026 15.0969C9.17961 15.0969 9.14896 15.0969 9.11738 15.0969C8.90098 15.0968 8.68458 15.0969 8.46819 15.0971C8.20461 15.0974 7.94104 15.0973 7.67746 15.0969C7.54288 15.0966 7.4083 15.0966 7.27372 15.0968C7.15066 15.0971 7.02761 15.0969 6.90456 15.0965C6.8599 15.0964 6.81524 15.0965 6.77058 15.0967C6.71015 15.0969 6.64973 15.0966 6.5893 15.0963C6.55565 15.0963 6.522 15.0962 6.48733 15.0962C6.40606 15.0859 6.40606 15.0859 6.35412 15.0504C6.30399 14.973 6.31592 14.9016 6.32403 14.8125C6.39961 14.7369 6.44469 14.7503 6.55059 14.7491C6.5682 14.7488 6.58581 14.7485 6.60395 14.7483C6.66224 14.7474 6.72053 14.747 6.77883 14.7465C6.81921 14.746 6.8596 14.7454 6.89998 14.7449C7.00634 14.7435 7.11269 14.7424 7.21905 14.7414C7.32756 14.7403 7.43606 14.7389 7.54456 14.7375C7.7575 14.7349 7.97045 14.7326 8.1834 14.7305C8.16302 14.714 8.14263 14.6976 8.12163 14.6807C8.09475 14.6589 8.06786 14.637 8.04017 14.6146C8.01358 14.5931 7.98699 14.5716 7.9596 14.5494C7.55966 14.2116 7.30461 13.6904 7.25371 13.1719C7.25041 13.0982 7.25088 13.0269 7.25371 12.9531C7.23094 12.9464 7.20817 12.9397 7.18471 12.9327C7.07656 12.8937 6.98093 12.8439 6.88115 12.7874C6.86193 12.7765 6.84271 12.7656 6.82291 12.7543C6.6456 12.6518 6.4832 12.5352 6.32403 12.4063C6.30991 12.3949 6.29579 12.3836 6.28125 12.3719C5.267 11.553 4.58531 10.3939 4.42193 9.09189C4.40632 8.94406 4.40493 8.79673 4.40484 8.6482C4.4045 8.62107 4.40417 8.59395 4.40382 8.56601C4.40374 8.52722 4.40374 8.52722 4.40366 8.48766C4.40355 8.46431 4.40344 8.44096 4.40332 8.4169C4.40996 8.35938 4.40996 8.35938 4.46465 8.30469C4.52106 8.29597 4.52106 8.29597 4.58962 8.29337C4.61412 8.29231 4.63861 8.29125 4.66385 8.29016C4.68948 8.28932 4.7151 8.28847 4.74151 8.2876C4.76734 8.28654 4.79318 8.28549 4.8198 8.2844C4.8837 8.28181 4.94761 8.27947 5.01153 8.27735C5.00237 8.26354 4.99321 8.24973 4.98378 8.2355C4.75615 7.88357 4.7029 7.49625 4.77141 7.08651C4.85692 6.709 5.0769 6.36878 5.39434 6.14453C5.65373 5.99384 5.88692 5.89274 6.18878 5.89784C6.40292 5.90269 6.40292 5.90269 6.59105 5.81534C6.64485 5.74524 6.68986 5.67403 6.73418 5.59766C6.95641 5.31503 7.31291 5.14804 7.66387 5.10547C8.14623 5.06783 8.54667 5.20984 8.91741 5.51755C8.97568 5.5697 9.03108 5.62378 9.08574 5.67969C9.09279 5.66436 9.09984 5.64903 9.10711 5.63323C9.2933 5.28173 9.62676 5.06356 9.99973 4.94825C10.4196 4.8493 10.8882 4.91243 11.2459 5.16016ZM9.68731 5.48828C9.65828 5.5089 9.65828 5.5089 9.62867 5.52994C9.41682 5.69601 9.28091 5.93829 9.22246 6.19922C9.21468 6.28029 9.21337 6.36049 9.21392 6.4419C9.21395 6.46362 9.21399 6.48534 9.21403 6.50771C9.21663 6.66636 9.24444 6.78987 9.30449 6.9375C9.31646 7.01612 9.31646 7.01612 9.30449 7.07422C9.26006 7.1272 9.26006 7.1272 9.19512 7.15625C9.11298 7.14055 9.11298 7.14055 9.03106 7.10157C8.99207 7.03022 8.99207 7.03022 8.96782 6.94434C8.95529 6.90225 8.95529 6.90225 8.94251 6.85932C8.90882 6.72041 8.89054 6.59003 8.89092 6.44702C8.89088 6.41837 8.89085 6.38971 8.89081 6.36019C8.89434 6.28125 8.89434 6.28125 8.91997 6.18213C8.92286 6.02643 8.83068 5.92916 8.73028 5.81641C8.48126 5.57802 8.19964 5.43954 7.8525 5.43167C7.49611 5.44613 7.19565 5.58536 6.95379 5.84738C6.72122 6.13021 6.6751 6.42023 6.62481 6.77344C6.58984 6.77513 6.55487 6.77682 6.51885 6.77857C6.48935 6.78 6.48935 6.78 6.45925 6.78145C6.4417 6.77881 6.42414 6.77616 6.40606 6.77344C6.30063 6.61529 6.35242 6.40731 6.37871 6.22657C6.02835 6.20174 5.74398 6.2999 5.47637 6.52735C5.25529 6.72938 5.10916 6.99806 5.08704 7.29981C5.07938 7.68666 5.17336 7.95008 5.42168 8.25C5.47021 8.30977 5.47021 8.30977 5.53225 8.31148C5.55549 8.31146 5.57873 8.31144 5.60267 8.31142C5.64284 8.31158 5.64284 8.31158 5.68382 8.31175C5.72826 8.31151 5.72826 8.31151 5.77361 8.31127C5.80492 8.31131 5.83623 8.31136 5.86849 8.31141C5.95566 8.31148 6.04283 8.31131 6.13 8.31104C6.2239 8.3108 6.31781 8.31088 6.41171 8.31092C6.57449 8.31095 6.73728 8.31078 6.90006 8.31047C7.13541 8.31003 7.37077 8.30989 7.60613 8.30982C7.98795 8.3097 8.36978 8.30933 8.7516 8.30882C9.12257 8.30831 9.49355 8.30793 9.86452 8.30769C9.8988 8.30767 9.8988 8.30767 9.93378 8.30765C10.0484 8.30758 10.1631 8.30751 10.2777 8.30744C11.2294 8.30688 12.181 8.30591 13.1326 8.30469C13.146 8.26978 13.1592 8.23485 13.1725 8.19991C13.1799 8.18046 13.1873 8.16101 13.1949 8.14097C13.2971 7.85595 13.2451 7.56641 13.1326 7.29297C12.9593 6.97097 12.6867 6.74714 12.3397 6.63672C12.2394 6.61197 12.1472 6.60643 12.044 6.60767C12.0173 6.60792 11.9906 6.60816 11.9631 6.60842C11.943 6.60873 11.9229 6.60905 11.9022 6.60938C11.8965 6.63715 11.8908 6.66493 11.885 6.69355C11.8142 7.01757 11.6961 7.29435 11.4647 7.53907C11.3768 7.58301 11.2887 7.56798 11.1912 7.56641C11.1679 7.3803 11.1679 7.3803 11.2281 7.29596C11.2616 7.26089 11.2953 7.22601 11.3292 7.19129C11.5631 6.9181 11.5968 6.60527 11.58 6.2614C11.5513 5.96208 11.3769 5.70707 11.1543 5.51477C10.7065 5.17932 10.1442 5.1518 9.68731 5.48828ZM15.6482 7.59375C15.6476 7.72565 15.6471 7.85755 15.6467 7.98946C15.6466 8.03436 15.6464 8.07927 15.6462 8.12417C15.6459 8.18858 15.6457 8.25299 15.6456 8.3174C15.6454 8.3376 15.6453 8.35779 15.6451 8.3786C15.6451 8.42689 15.6466 8.47518 15.6482 8.52344C15.6952 8.57042 15.7572 8.55427 15.8213 8.55432C15.8524 8.55441 15.8836 8.5545 15.9156 8.55458C15.9495 8.55453 15.9833 8.55447 16.0182 8.55442C16.0527 8.55444 16.0872 8.55447 16.1228 8.5545C16.1959 8.55451 16.269 8.55448 16.3421 8.55435C16.4359 8.55419 16.5298 8.55428 16.6237 8.55445C16.713 8.55457 16.8023 8.55448 16.8915 8.55442C16.9254 8.55447 16.9593 8.55453 16.9942 8.55458C17.0253 8.5545 17.0564 8.55441 17.0884 8.55432C17.116 8.5543 17.1435 8.55428 17.1719 8.55426C17.2333 8.55778 17.2333 8.55778 17.2615 8.52344C17.2643 8.45682 17.2653 8.39098 17.2652 8.32434C17.2652 8.30442 17.2652 8.28449 17.2652 8.26397C17.2653 8.22176 17.2652 8.17956 17.2651 8.13736C17.2649 8.07254 17.2651 8.00773 17.2653 7.94292C17.2652 7.90201 17.2652 7.8611 17.2652 7.82019C17.2652 7.80068 17.2653 7.78117 17.2653 7.76107C17.2729 7.66964 17.2729 7.66964 17.2342 7.59375C17.1847 7.59119 17.1351 7.59054 17.0855 7.59065C17.0537 7.59065 17.022 7.59065 16.9893 7.59066C16.9547 7.5908 16.9202 7.59094 16.8846 7.59108C16.8318 7.59114 16.8318 7.59114 16.778 7.5912C16.6844 7.5913 16.5908 7.59157 16.4971 7.59188C16.4016 7.59215 16.3061 7.59228 16.2107 7.59242C16.0232 7.59271 15.8357 7.59318 15.6482 7.59375ZM14.3084 8.08594C14.1854 8.1919 14.1854 8.1919 14.1298 8.23954C14.1166 8.25201 14.1033 8.26449 14.0897 8.27735C14.0897 8.28637 14.0897 8.29539 14.0897 8.30469C14.1201 8.30751 14.1506 8.31033 14.1819 8.31324C14.231 8.32254 14.231 8.32254 14.2811 8.33203C14.3342 8.41181 14.3481 8.45851 14.3631 8.55078C14.376 8.53958 14.3888 8.52837 14.4021 8.51682C14.4191 8.50208 14.4361 8.48735 14.4537 8.47217C14.4705 8.45758 14.4873 8.44299 14.5046 8.42795C14.6037 8.34603 14.6614 8.32473 14.7881 8.32071C14.8174 8.31965 14.8468 8.3186 14.877 8.31751C14.9076 8.31666 14.9382 8.31582 14.9698 8.31494C15.0162 8.31336 15.0162 8.31336 15.0635 8.31174C15.1399 8.30916 15.2163 8.3069 15.2928 8.30469C15.2928 8.16934 15.2928 8.03399 15.2928 7.89453C15.1697 7.88935 15.0468 7.88557 14.9236 7.88257C14.889 7.88097 14.8543 7.87936 14.8185 7.87771C14.58 7.87336 14.4651 7.90589 14.3084 8.08594ZM4.73809 8.63282C4.73367 8.88746 4.73367 8.88746 4.79278 9.125C4.8447 9.12518 4.8447 9.12518 4.89767 9.12535C5.7187 9.1281 6.53973 9.13099 7.36076 9.13406C7.46173 9.13443 7.5627 9.13481 7.66367 9.13518C7.68377 9.13526 7.70387 9.13533 7.72458 9.13541C8.05043 9.13662 8.37627 9.13773 8.70211 9.1388C9.03625 9.13991 9.37039 9.14111 9.70453 9.14242C9.91084 9.14322 10.1172 9.14394 10.3235 9.14456C10.4815 9.14504 10.6395 9.14567 10.7974 9.14634C10.8624 9.1466 10.9274 9.14681 10.9923 9.14697C11.0807 9.1472 11.169 9.14759 11.2574 9.14802C11.2834 9.14805 11.3094 9.14807 11.3362 9.1481C11.3715 9.14833 11.3715 9.14833 11.4076 9.14856C11.4382 9.14866 11.4382 9.14866 11.4694 9.14878C11.5193 9.15235 11.5193 9.15235 11.574 9.17969C11.6107 9.29267 11.603 9.31322 11.5467 9.42578C8.23057 9.43932 8.23057 9.43932 4.84746 9.45313C5.05486 10.3346 5.43415 11.0355 6.05059 11.6953C6.07135 11.7176 6.09211 11.7398 6.1135 11.7627C6.4495 12.1108 6.84315 12.3916 7.28106 12.5977C7.29628 12.5494 7.29628 12.5494 7.31182 12.5002C7.53198 11.851 7.84909 11.3667 8.48525 11.0527C9.00069 10.8243 9.59224 10.7924 10.1248 10.9844C10.3582 11.0787 10.5622 11.2038 10.7537 11.3672C10.7757 11.3838 10.7978 11.4005 10.8205 11.4176C11.1738 11.7154 11.3469 12.1641 11.4647 12.5977C12.0621 12.3232 12.5945 11.8865 12.9959 11.3672C13.0178 11.3406 13.0397 11.314 13.0622 11.2865C13.4397 10.8232 13.8982 10.0698 13.8982 9.45313C13.3839 9.44411 12.8696 9.43508 12.3397 9.42578C12.285 9.28907 12.285 9.28907 12.2918 9.22754C12.3123 9.17969 12.3123 9.17969 12.367 9.15235C12.4184 9.14907 12.4698 9.1475 12.5213 9.14673C12.5536 9.14619 12.5859 9.14564 12.6192 9.14508C12.6542 9.14462 12.6892 9.14417 12.7252 9.1437C12.761 9.14313 12.7967 9.14256 12.8335 9.14197C12.9285 9.14046 13.0236 9.13911 13.1186 9.13779C13.2156 9.13642 13.3125 9.1349 13.4095 9.13339C13.5997 9.13045 13.79 9.12767 13.9803 9.125C14.0181 8.95501 14.0076 8.81737 14.0076 8.63282C10.9487 8.63282 7.88973 8.63282 4.73809 8.63282ZM7.98687 11.8218C7.68136 12.2244 7.53447 12.7082 7.59893 13.2129C7.69642 13.738 7.95704 14.1523 8.3919 14.4622C8.81339 14.732 9.29863 14.8117 9.786 14.7099C10.2448 14.5901 10.6467 14.3281 10.8924 13.9156C11.1498 13.4604 11.2409 12.9956 11.1047 12.4824C10.9601 11.985 10.6334 11.6058 10.1848 11.3546C9.42486 10.9885 8.534 11.1814 7.98687 11.8218ZM11.856 12.7566C11.8223 12.7762 11.7886 12.7957 11.7549 12.8152C11.7301 12.8298 11.7301 12.8298 11.7049 12.8446C11.6561 12.8711 11.6561 12.8711 11.5633 12.906C11.4817 12.9483 11.4817 12.9483 11.4688 13.0484C11.4663 13.0872 11.4643 13.1261 11.4629 13.165C11.4192 13.7304 11.1466 14.217 10.7264 14.5938C10.6638 14.6415 10.5998 14.6859 10.535 14.7305C10.535 14.7395 10.535 14.7485 10.535 14.7578C11.0403 14.7578 11.5456 14.7578 12.0662 14.7578C12.0752 14.5142 12.0843 14.2705 12.0936 14.0195C12.1579 13.9552 12.1737 13.9572 12.2613 13.9535C12.2943 13.9519 12.2943 13.9519 12.328 13.9503C12.351 13.9495 12.374 13.9486 12.3978 13.9478C12.421 13.9467 12.4442 13.9456 12.4681 13.9446C12.5256 13.942 12.583 13.9397 12.6404 13.9375C12.5998 13.8059 12.5468 13.6847 12.4876 13.5608C12.4734 13.5309 12.4734 13.5309 12.459 13.5003C12.429 13.4369 12.3988 13.3736 12.3687 13.3103C12.3387 13.2471 12.3087 13.1838 12.2787 13.1206C12.2601 13.0814 12.2415 13.0422 12.2228 13.003C12.1679 12.8872 12.116 12.7705 12.0662 12.6523C11.9969 12.6523 11.9164 12.7214 11.856 12.7566ZM12.3943 14.2656C12.3943 14.4281 12.3943 14.5905 12.3943 14.7578C12.7823 14.7578 13.1704 14.7578 13.5701 14.7578C13.5701 14.5954 13.5701 14.433 13.5701 14.2656C13.1821 14.2656 12.7941 14.2656 12.3943 14.2656Z" fill="#00080C"/>
<path d="M10.0331 12.0563C10.2653 12.2334 10.4177 12.464 10.4716 12.7507C10.5174 13.0947 10.4437 13.4088 10.232 13.6873C10.1509 13.7782 10.0642 13.8463 9.96082 13.9102C9.94464 13.9208 9.92846 13.9315 9.91179 13.9424C9.74665 14.0389 9.54891 14.074 9.35925 14.0742C9.23513 14.0158 9.23513 14.0158 9.19519 13.9409C9.19519 13.8548 9.22535 13.8139 9.27722 13.7461C9.35338 13.7206 9.35338 13.7206 9.44299 13.7068C9.67683 13.6597 9.85908 13.5792 10.0018 13.3821C10.1174 13.1866 10.1544 12.9831 10.0975 12.7617C10.0129 12.53 9.8935 12.3921 9.67883 12.2747C9.42191 12.1919 9.21251 12.2046 8.9711 12.3274C8.79947 12.4377 8.71172 12.5984 8.64832 12.7891C8.61578 12.9873 8.64594 13.1486 8.73109 13.329C8.76018 13.3964 8.77776 13.4542 8.78503 13.5274C8.72693 13.606 8.72693 13.606 8.64832 13.6641C8.57825 13.6675 8.57825 13.6675 8.5116 13.6367C8.34149 13.4769 8.27742 13.2302 8.26465 13.0039C8.26804 12.6942 8.35762 12.4085 8.57045 12.1782C8.9919 11.7995 9.55605 11.7499 10.0331 12.0563Z" fill="#00080C"/>
<path d="M5.80103 9.99146C5.9404 10.05 5.98033 10.1719 6.05054 10.3008C6.27781 10.695 6.54987 11.0692 6.90268 11.3615C6.92263 11.3781 6.94258 11.3946 6.96314 11.4116C6.9814 11.4261 6.99966 11.4405 7.01847 11.4554C7.07346 11.5163 7.08259 11.5596 7.0896 11.6406C7.06226 11.7039 7.06226 11.7039 7.00757 11.75C6.91954 11.7619 6.84952 11.7684 6.76954 11.7243C6.72104 11.6873 6.67632 11.648 6.6316 11.6064C6.61504 11.5916 6.59848 11.5767 6.58142 11.5613C6.28448 11.2903 6.04761 10.9947 5.83179 10.6562C5.82044 10.6385 5.80909 10.6208 5.7974 10.6025C5.76547 10.5518 5.73437 10.5008 5.70362 10.4495C5.68603 10.4201 5.66844 10.3907 5.65032 10.3605C5.60739 10.2602 5.6027 10.1901 5.61304 10.082C5.67228 10.0091 5.70823 10.0015 5.80103 9.99146Z" fill="#00080C"/>
<path d="M4.92822 14.746C4.95219 14.7458 4.97616 14.7457 5.00085 14.7455C5.05151 14.7453 5.10216 14.7454 5.15282 14.7456C5.23043 14.7458 5.30799 14.7451 5.38559 14.7442C5.43479 14.7442 5.484 14.7442 5.5332 14.7442C5.56807 14.7438 5.56807 14.7438 5.60364 14.7433C5.7634 14.7452 5.7634 14.7452 5.83409 14.808C5.87046 14.8923 5.85865 14.9446 5.83228 15.0313C5.72742 15.1012 5.64043 15.0948 5.51878 15.0951C5.48475 15.0954 5.48475 15.0954 5.45003 15.0957C5.40207 15.096 5.3541 15.0961 5.30613 15.0961C5.23278 15.0962 5.15948 15.0972 5.08614 15.0982C5.03952 15.0984 4.9929 15.0985 4.94627 15.0985C4.92437 15.0989 4.90246 15.0993 4.87989 15.0997C4.78091 15.0989 4.72309 15.0948 4.64255 15.0348C4.60181 14.9766 4.60181 14.9766 4.58984 14.9065C4.62241 14.725 4.77527 14.7454 4.92822 14.746Z" fill="#00080C"/>
</svg>
