<svg width="33" height="33" viewBox="0 0 33 33" fill="none" xmlns="http://www.w3.org/2000/svg">
<ellipse cx="16.3616" cy="16.3622" rx="16.3616" ry="16.3622" fill="#1E552A"/>
<g clip-path="url(#clip0_40_141)">
<path d="M23.7188 20.5307V12.4693C24.1665 12.3545 24.5759 12.1233 24.9054 11.7991C25.2348 11.4749 25.4726 11.0693 25.5947 10.6235C25.7167 10.1777 25.7186 9.70755 25.6002 9.26077C25.4818 8.81399 25.2472 8.4065 24.9204 8.07967C24.5936 7.75284 24.1861 7.5183 23.7393 7.39988C23.2925 7.28145 22.8224 7.28335 22.3765 7.40538C21.9307 7.52742 21.5252 7.76523 21.201 8.0947C20.8768 8.42416 20.6456 8.83353 20.5308 9.28125H12.4694C12.3546 8.83353 12.1233 8.42416 11.7992 8.0947C11.475 7.76523 11.0694 7.52742 10.6236 7.40538C10.1778 7.28335 9.70761 7.28145 9.26083 7.39988C8.81405 7.5183 8.40656 7.75284 8.07973 8.07967C7.7529 8.4065 7.51837 8.81399 7.39994 9.26077C7.28151 9.70755 7.28341 10.1777 7.40545 10.6235C7.52748 11.0693 7.7653 11.4749 8.09476 11.7991C8.42422 12.1233 8.83359 12.3545 9.28131 12.4693V20.5307C8.83359 20.6455 8.42422 20.8767 8.09476 21.2009C7.7653 21.5251 7.52748 21.9307 7.40545 22.3765C7.28341 22.8223 7.28151 23.2925 7.39994 23.7392C7.51837 24.186 7.7529 24.5935 8.07973 24.9203C8.40656 25.2472 8.81405 25.4817 9.26083 25.6001C9.70761 25.7185 10.1778 25.7167 10.6236 25.5946C11.0694 25.4726 11.475 25.2348 11.7992 24.9053C12.1233 24.5758 12.3546 24.1665 12.4694 23.7188H20.5308C20.6456 24.1665 20.8768 24.5758 21.201 24.9053C21.5252 25.2348 21.9307 25.4726 22.3765 25.5946C22.8224 25.7167 23.2925 25.7185 23.7393 25.6001C24.1861 25.4817 24.5936 25.2472 24.9204 24.9203C25.2472 24.5935 25.4818 24.186 25.6002 23.7392C25.7186 23.2925 25.7167 22.8223 25.5947 22.3765C25.4726 21.9307 25.2348 21.5251 24.9054 21.2009C24.5759 20.8767 24.1665 20.6455 23.7188 20.5307ZM23.0626 8.625C23.3222 8.625 23.5759 8.70198 23.7917 8.8462C24.0076 8.99042 24.1758 9.1954 24.2752 9.43523C24.3745 9.67506 24.4005 9.93896 24.3498 10.1936C24.2992 10.4482 24.1742 10.682 23.9906 10.8656C23.8071 11.0491 23.5732 11.1741 23.3186 11.2248C23.064 11.2754 22.8001 11.2494 22.5603 11.1501C22.3205 11.0508 22.1155 10.8825 21.9713 10.6667C21.827 10.4508 21.7501 10.1971 21.7501 9.9375C21.7505 9.58953 21.8889 9.25592 22.1349 9.00987C22.381 8.76381 22.7146 8.6254 23.0626 8.625ZM8.62506 9.9375C8.62506 9.67791 8.70204 9.42416 8.84626 9.20832C8.99048 8.99248 9.19546 8.82425 9.43529 8.72491C9.67512 8.62557 9.93902 8.59958 10.1936 8.65022C10.4482 8.70086 10.6821 8.82587 10.8656 9.00942C11.0492 9.19298 11.1742 9.42685 11.2248 9.68145C11.2755 9.93605 11.2495 10.1999 11.1502 10.4398C11.0508 10.6796 10.8826 10.8846 10.6667 11.0288C10.4509 11.173 10.1972 11.25 9.93756 11.25C9.58957 11.2497 9.25594 11.1113 9.00987 10.8652C8.7638 10.6191 8.62541 10.2855 8.62506 9.9375ZM9.93756 24.375C9.67797 24.375 9.42422 24.298 9.20838 24.1538C8.99254 24.0096 8.82431 23.8046 8.72497 23.5648C8.62563 23.3249 8.59964 23.061 8.65028 22.8064C8.70093 22.5518 8.82593 22.318 9.00949 22.1344C9.19304 21.9509 9.42691 21.8259 9.68151 21.7752C9.93611 21.7246 10.2 21.7506 10.4398 21.8499C10.6797 21.9492 10.8846 22.1175 11.0289 22.3333C11.1731 22.5492 11.2501 22.8029 11.2501 23.0625C11.2497 23.4105 11.1113 23.7441 10.8652 23.9901C10.6191 24.2362 10.2855 24.3746 9.93756 24.375ZM20.5308 22.4063H12.4694C12.3518 21.9551 12.1161 21.5434 11.7864 21.2137C11.4567 20.884 11.045 20.6482 10.5938 20.5307V12.4693C11.045 12.3517 11.4566 12.1159 11.7863 11.7862C12.116 11.4566 12.3518 11.0449 12.4694 10.5938H20.5308C20.6483 11.0449 20.8841 11.4566 21.2137 11.7863C21.5434 12.116 21.9551 12.3518 22.4063 12.4693V20.5307C21.9551 20.6482 21.5434 20.8839 21.2137 21.2136C20.884 21.5433 20.6482 21.955 20.5308 22.4063ZM23.0626 24.375C22.803 24.375 22.5492 24.298 22.3334 24.1538C22.1175 24.0096 21.9493 23.8046 21.85 23.5648C21.7506 23.3249 21.7246 23.061 21.7753 22.8064C21.8259 22.5518 21.9509 22.318 22.1345 22.1344C22.318 21.9509 22.5519 21.8259 22.8065 21.7752C23.0611 21.7246 23.325 21.7506 23.5648 21.8499C23.8047 21.9492 24.0096 22.1175 24.1539 22.3333C24.2981 22.5492 24.3751 22.8029 24.3751 23.0625C24.3746 23.4105 24.2362 23.744 23.9901 23.9901C23.7441 24.2361 23.4105 24.3745 23.0626 24.375Z" fill="white"/>
</g>
<defs>
<clipPath id="clip0_40_141">
<rect width="21" height="21" fill="white" transform="translate(6 6)"/>
</clipPath>
</defs>
</svg>
