<svg width="20" height="20" viewBox="0 0 20 20" fill="none" xmlns="http://www.w3.org/2000/svg">
<ellipse cx="10.3619" cy="9.70163" rx="9.54211" ry="9.54245" fill="white"/>
<g clip-path="url(#clip0_546_530)">
<path d="M10.2339 1.99148C10.2547 1.99131 10.2754 1.99114 10.2968 1.99097C10.3406 1.99071 10.3845 1.99059 10.4283 1.9906C10.4948 1.99049 10.5613 1.98956 10.6278 1.9886C10.6706 1.98845 10.7133 1.98835 10.756 1.9883C10.7757 1.98794 10.7953 1.98757 10.8156 1.9872C11.0026 1.98874 11.151 2.05587 11.2854 2.18677C11.3099 2.21029 11.3099 2.21029 11.335 2.23429C11.3517 2.25072 11.3684 2.26714 11.3855 2.28406C11.4213 2.31847 11.4571 2.35285 11.493 2.38721C11.51 2.40371 11.5271 2.42021 11.5447 2.4372C11.6032 2.49327 11.663 2.54758 11.7236 2.60145C11.8334 2.69956 11.9418 2.79923 12.0499 2.89925C12.143 2.98535 12.2363 3.07123 12.3298 3.15687C12.3422 3.16829 12.3547 3.1797 12.3675 3.19147C12.3926 3.21446 12.4177 3.23744 12.4428 3.26043C12.5062 3.31845 12.5695 3.37652 12.6329 3.43458C12.6582 3.45785 12.6836 3.48113 12.709 3.5044C12.8614 3.64405 12.8614 3.64405 12.8995 3.67897C12.9248 3.70221 12.9502 3.72544 12.9755 3.74867C13.0397 3.80746 13.1038 3.86627 13.1678 3.92513C13.2847 4.03247 13.4018 4.13955 13.5199 4.24549C13.6461 4.35871 13.7705 4.47367 13.8949 4.58876C13.9739 4.66181 14.0532 4.73459 14.1325 4.80726C14.145 4.81868 14.1574 4.8301 14.1703 4.84186C14.1954 4.86485 14.2205 4.88783 14.2456 4.91082C14.3089 4.96884 14.3723 5.02691 14.4356 5.08497C14.461 5.10824 14.4864 5.13152 14.5118 5.15479C16.1875 6.69093 16.1875 6.69093 16.2257 6.72586C16.251 6.74906 16.2763 6.77225 16.3016 6.79544C16.3664 6.85482 16.4311 6.91426 16.4958 6.97379C16.5089 6.98585 16.522 6.9979 16.5355 7.01032C16.5614 7.03413 16.5873 7.05796 16.6131 7.08182C16.7005 7.16219 16.7901 7.2392 16.8827 7.31349C17.0185 7.45843 17.0109 7.61392 17.0099 7.80082C17.0101 7.84503 17.0101 7.84503 17.0103 7.89012C17.0106 7.9717 17.0106 8.05328 17.0104 8.13486C17.0103 8.22292 17.0106 8.31098 17.0108 8.39905C17.0113 8.57148 17.0113 8.74391 17.0112 8.91634C17.0111 9.05648 17.0111 9.19662 17.0112 9.33676C17.0112 9.35671 17.0113 9.37666 17.0113 9.39721C17.0113 9.43774 17.0114 9.47826 17.0114 9.51879C17.0117 9.89876 17.0116 10.2787 17.0113 10.6587C17.0111 11.0063 17.0114 11.354 17.012 11.7016C17.0126 12.0586 17.0129 12.4156 17.0127 12.7726C17.0126 12.973 17.0127 13.1734 17.0131 13.3738C17.0135 13.5444 17.0135 13.715 17.0131 13.8856C17.0128 13.9726 17.0128 14.0596 17.0132 14.1467C17.0135 14.241 17.0132 14.3353 17.0128 14.4297C17.013 14.4572 17.0133 14.4847 17.0135 14.513C17.012 14.6668 17.0012 14.7561 16.8985 14.8731C16.7681 14.9879 16.6906 15.0037 16.5206 15.0034C16.4891 15.0035 16.4891 15.0035 16.4569 15.0036C16.3857 15.0038 16.3145 15.0038 16.2433 15.0037C16.1921 15.0038 16.1408 15.0039 16.0896 15.004C15.9481 15.0043 15.8067 15.0044 15.6653 15.0044C15.5129 15.0045 15.3606 15.0048 15.2083 15.005C14.8576 15.0055 14.5069 15.0057 14.1562 15.006C13.9829 15.0061 13.8097 15.0062 13.6364 15.0063C13.0436 15.0068 12.4508 15.0072 11.858 15.0074C11.8208 15.0074 11.7835 15.0074 11.7463 15.0074C11.7186 15.0074 11.7186 15.0074 11.6904 15.0074C11.5968 15.0074 11.5033 15.0075 11.4097 15.0075C11.3912 15.0075 11.3726 15.0075 11.3535 15.0075C10.7515 15.0077 10.1494 15.0083 9.54741 15.0091C8.91119 15.01 8.27498 15.0105 7.63876 15.0106C7.56894 15.0106 7.49913 15.0106 7.42932 15.0106C7.40353 15.0106 7.40353 15.0106 7.37722 15.0106C7.10032 15.0107 6.82342 15.0111 6.54652 15.0116C6.2683 15.0121 5.99007 15.0123 5.71185 15.012C5.56106 15.0119 5.41027 15.012 5.25948 15.0125C5.12152 15.0129 4.98358 15.0129 4.84563 15.0125C4.79563 15.0124 4.74564 15.0125 4.69564 15.0128C4.62783 15.0132 4.56005 15.013 4.49225 15.0126C4.4727 15.0128 4.45316 15.0131 4.43302 15.0134C4.30186 15.0117 4.2282 14.9808 4.127 14.8984C4.03682 14.7961 3.99692 14.7378 3.99664 14.6023C3.99652 14.5772 3.99641 14.5521 3.99629 14.5263C3.9963 14.4846 3.9963 14.4846 3.99631 14.442C3.99621 14.4127 3.99612 14.3833 3.99602 14.3531C3.99579 14.2713 3.99568 14.1895 3.99561 14.1078C3.99551 14.0197 3.99527 13.9316 3.99504 13.8435C3.99454 13.6307 3.99429 13.4178 3.99406 13.205C3.99395 13.1048 3.99381 13.0045 3.99368 12.9043C3.99325 12.5713 3.99288 12.2382 3.9927 11.9052C3.99265 11.8187 3.9926 11.7323 3.99255 11.6458C3.99254 11.6243 3.99253 11.6028 3.99251 11.5807C3.9923 11.2326 3.99166 10.8844 3.99083 10.5363C3.98999 10.179 3.98954 9.82171 3.98946 9.46441C3.9894 9.26375 3.98918 9.0631 3.98853 8.86245C3.98798 8.69156 3.98777 8.52067 3.98802 8.34978C3.98814 8.26259 3.98809 8.17541 3.9876 8.08823C3.98715 7.99366 3.98733 7.89912 3.98766 7.80456C3.98738 7.77705 3.9871 7.74955 3.98682 7.72121C3.98839 7.53789 4.01842 7.43034 4.1386 7.28832C4.14996 7.27827 4.16132 7.26821 4.17302 7.25785C4.18601 7.24611 4.19901 7.23438 4.2124 7.22229C4.22611 7.21033 4.23982 7.19837 4.25395 7.18604C4.28354 7.1595 4.31313 7.13295 4.34272 7.1064C4.35761 7.0932 4.37249 7.07999 4.38783 7.06639C4.45447 7.00707 4.52 6.94656 4.58562 6.88612C4.61077 6.86306 4.63593 6.84002 4.66109 6.81699C4.737 6.74749 4.81286 6.67795 4.88872 6.60841C4.91411 6.58513 4.9395 6.56186 4.96489 6.53858C4.97746 6.52706 4.99002 6.51554 5.00297 6.50367C5.44731 6.09636 5.89165 5.68905 6.33598 5.28175C6.35484 5.26446 6.35484 5.26446 6.37408 5.24682C6.39943 5.22359 6.42478 5.20035 6.45013 5.17712C6.51427 5.11834 6.57839 5.05953 6.64245 5.00066C6.75933 4.89333 6.8764 4.78624 6.99455 4.68031C7.12068 4.56709 7.24514 4.45212 7.36956 4.33704C7.48607 4.22929 7.60313 4.12215 7.72018 4.01498C7.78354 3.95695 7.84687 3.89889 7.9102 3.84083C7.93559 3.81755 7.96098 3.79428 7.98637 3.771C8.00523 3.75372 8.00523 3.75372 8.02446 3.73609C8.36723 3.42188 8.71001 3.10767 9.05278 2.79346C9.07163 2.77618 9.07163 2.77618 9.09086 2.75855C9.11625 2.73528 9.14164 2.71203 9.16704 2.68878C9.23071 2.63049 9.29423 2.57204 9.35747 2.51327C9.48594 2.39411 9.61582 2.27685 9.74943 2.16346C9.77349 2.143 9.79755 2.12255 9.82233 2.10147C9.95493 2.00313 10.072 1.99194 10.2339 1.99148ZM9.91923 2.63636C9.88495 2.67002 9.85063 2.70364 9.81628 2.73723C9.79923 2.75405 9.78217 2.77087 9.7646 2.78821C9.69826 2.85202 9.62911 2.9121 9.55946 2.97226C9.47861 3.04289 9.4007 3.11659 9.32255 3.19019C9.19592 3.30894 9.06834 3.42638 8.93892 3.54209C8.84882 3.62323 8.75988 3.70559 8.67087 3.78792C8.54027 3.90872 8.40917 4.02896 8.27796 4.1491C8.21459 4.20712 8.15127 4.26519 8.08793 4.32325C8.06254 4.34652 8.03715 4.3698 8.01176 4.39307C7.99919 4.40459 7.98663 4.41612 7.97368 4.42799C7.15483 5.1786 7.15483 5.1786 6.33598 5.92921C6.31712 5.94649 6.31712 5.94649 6.29788 5.96413C6.27254 5.98737 6.24719 6.0106 6.22184 6.03383C6.15769 6.09262 6.09358 6.15143 6.02951 6.21029C5.57167 6.63077 5.57167 6.63077 5.49089 6.68647C5.39533 6.75774 5.32994 6.80882 5.30198 6.92784C5.29789 7.01705 5.30035 7.10328 5.30607 7.19239C5.30711 7.22296 5.30814 7.25353 5.3092 7.28503C5.31188 7.36005 5.31562 7.43486 5.32036 7.50977C5.40687 7.45928 5.47504 7.4111 5.54411 7.33839C5.62503 7.2535 5.7111 7.17697 5.7996 7.1002C5.8862 7.02404 5.96975 6.94473 6.05351 6.86549C6.18333 6.74319 6.31407 6.6223 6.44717 6.50357C6.53375 6.42524 6.61893 6.34545 6.70415 6.26563C6.82853 6.14913 6.95393 6.03403 7.08104 5.92048C7.16788 5.84181 7.25339 5.76175 7.33891 5.68165C7.4633 5.56514 7.5887 5.45004 7.7158 5.33649C7.80265 5.25782 7.88815 5.17777 7.97368 5.09766C8.09807 4.98116 8.22346 4.86606 8.35057 4.75251C8.43741 4.67384 8.52292 4.59378 8.60844 4.51368C8.73283 4.39717 8.85823 4.28207 8.98533 4.16853C9.07218 4.08985 9.15769 4.0098 9.24321 3.92969C9.36753 3.81325 9.49284 3.6982 9.6199 3.58474C9.67389 3.53582 9.72736 3.4865 9.78058 3.43676C9.79707 3.42136 9.81357 3.40596 9.83056 3.39009C9.86414 3.35852 9.89756 3.32677 9.93079 3.29484C10.0147 3.2148 10.0946 3.15096 10.1938 3.09022C10.2653 3.01454 10.2817 2.96446 10.2835 2.86111C10.2842 2.82483 10.2842 2.82483 10.285 2.78782C10.2839 2.67731 10.2792 2.56728 10.2715 2.45704C10.1022 2.42724 10.0296 2.5248 9.91923 2.63636ZM10.7286 2.45704C10.6801 2.76234 10.6801 2.76234 10.7643 3.04919C10.8583 3.15854 10.9696 3.24666 11.0846 3.33305C11.1476 3.38082 11.2054 3.43314 11.2634 3.48695C11.2925 3.51292 11.2925 3.51292 11.3222 3.53941C11.4088 3.61774 11.4939 3.69753 11.5791 3.77735C11.6841 3.87566 11.7893 3.97353 11.8965 4.06934C12.0208 4.18039 12.1424 4.29431 12.264 4.40825C12.3523 4.49085 12.4411 4.57276 12.5313 4.65333C12.6556 4.76438 12.7771 4.87829 12.8988 4.99223C12.9871 5.07484 13.0759 5.15674 13.1661 5.23731C13.2904 5.34836 13.4119 5.46228 13.5335 5.57622C13.6218 5.65882 13.7106 5.74073 13.8008 5.8213C13.9251 5.93234 14.0466 6.04626 14.1683 6.1602C14.2566 6.24281 14.3454 6.32471 14.4356 6.40528C14.5599 6.51633 14.6814 6.63025 14.8031 6.74419C14.9106 6.84477 15.0193 6.94381 15.1293 7.04173C15.1848 7.09214 15.2395 7.14313 15.2939 7.19467C15.3195 7.21883 15.3195 7.21883 15.3456 7.24347C15.3794 7.27547 15.4131 7.30757 15.4468 7.33977C15.4623 7.35447 15.4778 7.36917 15.4939 7.38431C15.5077 7.39748 15.5215 7.41065 15.5357 7.42422C15.5811 7.46143 15.6264 7.4855 15.6797 7.50977C15.7307 7.13949 15.7307 7.13949 15.6464 6.78714C15.5615 6.6825 15.4573 6.6042 15.3469 6.52799C15.2819 6.48223 15.225 6.4295 15.1672 6.37513C15.1474 6.35742 15.1276 6.33972 15.1072 6.32147C14.997 6.22257 14.8882 6.12221 14.7792 6.02207C14.7155 5.96356 14.6517 5.90513 14.5879 5.84669C14.5625 5.82341 14.5372 5.80014 14.5118 5.77686C14.4992 5.76534 14.4866 5.75382 14.4737 5.74195C11.6172 3.12354 11.6172 3.12354 11.5791 3.08861C11.5538 3.06541 11.5285 3.04222 11.5032 3.01903C11.4251 2.94749 11.3472 2.87584 11.2693 2.80411C11.231 2.76894 11.1925 2.73393 11.1541 2.69894C11.1106 2.65909 11.0675 2.61877 11.0251 2.57774C11.0079 2.56148 10.9907 2.54521 10.9729 2.52845C10.9586 2.51447 10.9443 2.5005 10.9295 2.4861C10.8616 2.44552 10.806 2.45213 10.7286 2.45704ZM10.3361 3.52621C10.2663 3.61176 10.2735 3.69719 10.2767 3.80362C10.2767 3.82618 10.2767 3.84874 10.2767 3.87198C10.2768 3.9462 10.2782 4.02033 10.2796 4.09454C10.2799 4.14612 10.2801 4.19771 10.2803 4.24929C10.281 4.3848 10.2827 4.52027 10.2847 4.65577C10.2865 4.79414 10.2873 4.93251 10.2882 5.07088C10.2901 5.3422 10.2932 5.61348 10.2969 5.88477C10.431 5.88477 10.565 5.88477 10.7032 5.88477C10.7073 5.58615 10.7104 5.28754 10.7124 4.98889C10.7133 4.85021 10.7146 4.71156 10.7166 4.57289C10.7185 4.43904 10.7196 4.30522 10.72 4.17136C10.7204 4.12031 10.721 4.06927 10.722 4.01824C10.7233 3.94668 10.7234 3.87519 10.7233 3.80362C10.724 3.78256 10.7246 3.76151 10.7253 3.73981C10.7242 3.65132 10.7211 3.59624 10.664 3.52621C10.5268 3.40423 10.4733 3.40423 10.3361 3.52621ZM9.73019 4.0861C9.70635 4.11057 9.68262 4.13514 9.65898 4.1598C9.56455 4.25629 9.46889 4.34827 9.36619 4.43602C9.28333 4.5088 9.20307 4.58426 9.1226 4.65968C8.9049 4.86359 8.9049 4.86359 8.80463 4.95531C8.76752 4.9894 8.73082 5.02394 8.69414 5.05849C8.62114 5.12305 8.62114 5.12305 8.54021 5.17889C8.44788 5.24178 8.44788 5.24178 8.34184 5.37696C8.34184 5.54454 8.34184 5.71212 8.34184 5.88477C8.8362 5.88477 9.33055 5.88477 9.83989 5.88477C9.83989 5.27311 9.83989 4.66145 9.83989 4.03126C9.78189 4.02549 9.78189 4.02549 9.73019 4.0861ZM11.1602 4.03126C11.1602 4.64292 11.1602 5.25458 11.1602 5.88477C11.6546 5.88477 12.1489 5.88477 12.6582 5.88477C12.6582 5.71719 12.6582 5.54962 12.6582 5.37696C12.5222 5.23949 12.5222 5.23949 12.3803 5.11095C12.2767 5.02146 12.1769 4.92834 12.0774 4.83424C11.9479 4.71218 11.8175 4.59139 11.6845 4.47311C11.6289 4.42274 11.5743 4.37173 11.5198 4.32017C11.5027 4.30394 11.4855 4.28771 11.4678 4.27099C11.4336 4.23864 11.3995 4.20619 11.3656 4.17363C11.3421 4.15146 11.3421 4.15146 11.3182 4.12885C11.3043 4.11555 11.2903 4.10224 11.276 4.08853C11.234 4.05093 11.234 4.05093 11.1602 4.03126ZM7.80586 5.86057C7.76142 5.90606 7.71699 5.95155 7.67256 5.99705C7.60551 6.06251 7.60551 6.06251 7.5388 6.09878C7.44066 6.20514 7.46151 6.32207 7.46329 6.46161C7.46318 6.49238 7.46308 6.52316 7.46296 6.55487C7.46279 6.64034 7.46319 6.72578 7.46382 6.81125C7.46437 6.9034 7.46419 6.99554 7.46409 7.08769C7.46402 7.24735 7.46442 7.40701 7.46514 7.56667C7.46617 7.79751 7.4665 8.02835 7.46666 8.2592C7.46694 8.63372 7.46778 9.00824 7.46898 9.38275C7.47015 9.74659 7.47105 10.1104 7.47159 10.4743C7.47162 10.4967 7.47165 10.5191 7.47169 10.5422C7.47185 10.6547 7.47201 10.7672 7.47217 10.8797C7.47349 11.813 7.47573 12.7463 7.47856 13.6797C7.61262 13.6797 7.74669 13.6797 7.88481 13.6797C7.88481 11.0822 7.88481 8.48477 7.88481 5.8086C7.85002 5.80565 7.85002 5.80565 7.80586 5.86057ZM13.1153 5.8086C13.1153 8.40606 13.1153 11.0035 13.1153 13.6797C13.2493 13.6797 13.3834 13.6797 13.5215 13.6797C13.5291 12.7274 13.5349 11.7752 13.5384 10.8229C13.5388 10.7104 13.5392 10.5979 13.5397 10.4854C13.5398 10.4518 13.5398 10.4518 13.5399 10.4175C13.5414 10.0552 13.544 9.69289 13.547 9.33057C13.5501 8.95861 13.5519 8.58666 13.5526 8.21469C13.553 7.98527 13.5545 7.7559 13.5571 7.5265C13.5589 7.36905 13.5594 7.21162 13.559 7.05416C13.5588 6.96338 13.5591 6.87268 13.5609 6.78191C13.5849 6.39741 13.5849 6.39741 13.4482 6.05361C13.3706 5.97379 13.2872 5.91576 13.1915 5.85938C13.1663 5.84262 13.1412 5.82587 13.1153 5.8086ZM8.34184 6.3418C8.34184 6.47587 8.34184 6.60993 8.34184 6.74805C9.76626 6.74805 11.1907 6.74805 12.6582 6.74805C12.6582 6.61399 12.6582 6.47993 12.6582 6.3418C11.2338 6.3418 9.80942 6.3418 8.34184 6.3418ZM6.88823 6.71632C6.86522 6.73723 6.84221 6.75814 6.8185 6.77969C6.69689 6.89103 6.57575 7.00288 6.45475 7.11488C6.38506 7.17938 6.3153 7.24381 6.24553 7.30823C6.23185 7.32086 6.21818 7.33349 6.20409 7.3465C6.08802 7.45363 5.97158 7.56035 5.85505 7.66698C5.79964 7.71775 5.74447 7.76877 5.68941 7.81992C5.6747 7.83356 5.65999 7.84721 5.64483 7.86127C5.61663 7.88745 5.58846 7.91367 5.56033 7.93993C5.50219 7.99387 5.44741 8.04291 5.38012 8.08526C5.31095 8.15387 5.30551 8.19358 5.30456 8.2893C5.30525 8.31796 5.30525 8.31796 5.30594 8.34719C5.30593 8.36751 5.30591 8.38784 5.30589 8.40877C5.30598 8.47583 5.30696 8.54285 5.30796 8.6099C5.3082 8.65644 5.30838 8.70297 5.3085 8.7495C5.30899 8.8719 5.31023 8.99428 5.31164 9.11666C5.31317 9.26355 5.31375 9.41045 5.31449 9.55734C5.31572 9.78043 5.31815 10.0035 5.32036 10.2266C5.88174 10.2266 6.44313 10.2266 7.02153 10.2266C7.02153 9.03677 7.02153 7.84696 7.02153 6.6211C6.96983 6.6211 6.92349 6.68424 6.88823 6.71632ZM13.9786 6.6211C13.9786 7.81091 13.9786 9.00071 13.9786 10.2266C14.5399 10.2266 15.1013 10.2266 15.6797 10.2266C15.6871 9.8621 15.6871 9.8621 15.6921 9.49763C15.6936 9.34884 15.6954 9.20008 15.6989 9.05132C15.7017 8.9313 15.7032 8.81132 15.7038 8.69127C15.7043 8.6456 15.7052 8.59993 15.7066 8.55428C15.7202 8.2972 15.7202 8.2972 15.625 8.06742C15.5614 8.00976 15.4975 7.96301 15.4258 7.91602C15.3922 7.88602 15.359 7.85545 15.3266 7.82398C15.3116 7.80986 15.2965 7.79574 15.281 7.78118C15.266 7.76703 15.2509 7.75287 15.2354 7.73829C15.1305 7.63996 15.0253 7.54211 14.918 7.4463C14.8108 7.35049 14.7056 7.2526 14.6006 7.1543C14.3106 6.82798 14.3106 6.82798 13.9786 6.6211ZM8.34184 7.20509C8.34184 8.20218 8.34184 9.19927 8.34184 10.2266C9.76626 10.2266 11.1907 10.2266 12.6582 10.2266C12.6582 9.22948 12.6582 8.23239 12.6582 7.20509C11.2338 7.20509 9.80942 7.20509 8.34184 7.20509ZM4.75561 7.35951C4.73355 7.38239 4.71149 7.40527 4.68877 7.42884C4.56599 7.55583 4.56599 7.55583 4.50466 7.59525C4.45254 7.63253 4.45254 7.63253 4.44446 7.69047C4.4445 7.71142 4.44454 7.73237 4.44458 7.75396C4.44438 7.77816 4.44417 7.80237 4.44397 7.82732C4.44426 7.85397 4.44456 7.88062 4.44486 7.90807C4.44478 7.93634 4.44469 7.96461 4.4446 7.99373C4.44443 8.08894 4.44499 8.18414 4.44555 8.27935C4.44557 8.3474 4.44556 8.41545 4.4455 8.4835C4.44545 8.63027 4.44577 8.77703 4.44634 8.92379C4.44716 9.13598 4.44743 9.34818 4.44755 9.56037C4.44778 9.90463 4.44845 10.2489 4.44941 10.5931C4.45035 10.9276 4.45106 11.262 4.4515 11.5965C4.45152 11.6171 4.45155 11.6377 4.45158 11.6589C4.45171 11.7623 4.45184 11.8657 4.45196 11.9691C4.45302 12.8271 4.45481 13.685 4.45708 14.543C4.59114 14.543 4.7252 14.543 4.86333 14.543C4.86333 12.155 4.86333 9.767 4.86333 7.30665C4.8058 7.30089 4.8058 7.30089 4.75561 7.35951ZM16.1368 7.30665C16.1368 9.69464 16.1368 12.0826 16.1368 14.543C16.2708 14.543 16.4049 14.543 16.543 14.543C16.55 13.6679 16.5554 12.7929 16.5586 11.9178C16.559 11.8144 16.5593 11.711 16.5598 11.6076C16.5598 11.5871 16.5599 11.5665 16.56 11.5453C16.5613 11.2123 16.5637 10.8794 16.5665 10.5464C16.5694 10.2046 16.5711 9.86283 16.5717 9.52101C16.5721 9.31019 16.5734 9.09942 16.5759 8.88861C16.5775 8.74393 16.578 8.59926 16.5776 8.45457C16.5774 8.37114 16.5779 8.28781 16.5793 8.20439C16.601 7.85173 16.601 7.85173 16.4764 7.53553C16.3775 7.43359 16.263 7.36977 16.1368 7.30665ZM5.32036 10.6836C5.32036 10.8177 5.32036 10.9517 5.32036 11.0899C5.88174 11.0899 6.44313 11.0899 7.02153 11.0899C7.02153 10.9558 7.02153 10.8217 7.02153 10.6836C6.46014 10.6836 5.89876 10.6836 5.32036 10.6836ZM8.34184 10.6836C8.34184 10.8177 8.34184 10.9517 8.34184 11.0899C9.76626 11.0899 11.1907 11.0899 12.6582 11.0899C12.6582 10.9558 12.6582 10.8217 12.6582 10.6836C11.2338 10.6836 9.80942 10.6836 8.34184 10.6836ZM13.9786 10.6836C13.9786 10.8177 13.9786 10.9517 13.9786 11.0899C14.5399 11.0899 15.1013 11.0899 15.6797 11.0899C15.6797 10.9558 15.6797 10.8217 15.6797 10.6836C15.1183 10.6836 14.557 10.6836 13.9786 10.6836ZM5.32036 11.5469C5.32036 12.2507 5.32036 12.9545 5.32036 13.6797C5.88174 13.6797 6.44313 13.6797 7.02153 13.6797C7.02153 12.9759 7.02153 12.272 7.02153 11.5469C6.46014 11.5469 5.89876 11.5469 5.32036 11.5469ZM8.34184 11.5469C8.34184 12.2507 8.34184 12.9545 8.34184 13.6797C9.76626 13.6797 11.1907 13.6797 12.6582 13.6797C12.6582 12.9759 12.6582 12.272 12.6582 11.5469C11.2338 11.5469 9.80942 11.5469 8.34184 11.5469ZM13.9786 11.5469C13.9786 12.2507 13.9786 12.9545 13.9786 13.6797C14.5399 13.6797 15.1013 13.6797 15.6797 13.6797C15.6797 12.9759 15.6797 12.272 15.6797 11.5469C15.1183 11.5469 14.557 11.5469 13.9786 11.5469ZM5.32036 14.1367C5.32036 14.2708 5.32036 14.4049 5.32036 14.543C8.73895 14.543 12.1575 14.543 15.6797 14.543C15.6797 14.4089 15.6797 14.2749 15.6797 14.1367C12.2611 14.1367 8.84254 14.1367 5.32036 14.1367Z" fill="#00080C"/>
</g>
<defs>
<clipPath id="clip0_546_530">
<rect width="13" height="13" fill="white" transform="translate(4 2)"/>
</clipPath>
</defs>
</svg>
