<svg width="20" height="20" viewBox="0 0 20 20" fill="none" xmlns="http://www.w3.org/2000/svg">
<ellipse cx="10.3619" cy="9.70163" rx="9.54211" ry="9.54245" fill="#1E552A"/>
<g clip-path="url(#clip0_543_1675)">
<path d="M10.2339 1.99146C10.2547 1.99129 10.2754 1.99112 10.2968 1.99095C10.3406 1.99069 10.3845 1.99057 10.4283 1.99058C10.4948 1.99047 10.5613 1.98955 10.6278 1.98859C10.6706 1.98844 10.7133 1.98834 10.756 1.98829C10.7757 1.98792 10.7953 1.98756 10.8156 1.98718C11.0026 1.98873 11.151 2.05586 11.2854 2.18675C11.3099 2.21028 11.3099 2.21028 11.335 2.23428C11.3517 2.2507 11.3684 2.26713 11.3855 2.28405C11.4213 2.31845 11.4571 2.35283 11.493 2.3872C11.51 2.40369 11.5271 2.42019 11.5447 2.43719C11.6032 2.49326 11.663 2.54756 11.7236 2.60143C11.8334 2.69954 11.9418 2.79921 12.0499 2.89924C12.143 2.98533 12.2363 3.07121 12.3298 3.15685C12.3422 3.16827 12.3547 3.17969 12.3675 3.19145C12.3926 3.21444 12.4177 3.23743 12.4428 3.26041C12.5062 3.31844 12.5695 3.3765 12.6329 3.43456C12.6582 3.45784 12.6836 3.48111 12.709 3.50439C12.8614 3.64403 12.8614 3.64403 12.8995 3.67896C12.9248 3.70219 12.9502 3.72543 12.9755 3.74866C13.0397 3.80744 13.1038 3.86625 13.1678 3.92512C13.2847 4.03245 13.4018 4.13954 13.5199 4.24548C13.6461 4.35869 13.7705 4.47366 13.8949 4.58874C13.9739 4.66179 14.0532 4.73457 14.1325 4.80724C14.145 4.81866 14.1574 4.83008 14.1703 4.84185C14.1954 4.86483 14.2205 4.88782 14.2456 4.9108C14.3089 4.96883 14.3723 5.02689 14.4356 5.08495C14.461 5.10823 14.4864 5.1315 14.5118 5.15478C16.1875 6.69091 16.1875 6.69091 16.2257 6.72585C16.251 6.74904 16.2763 6.77223 16.3016 6.79542C16.3664 6.8548 16.4311 6.91424 16.4958 6.97378C16.5089 6.98583 16.522 6.99789 16.5355 7.01031C16.5614 7.03412 16.5873 7.05795 16.6131 7.08181C16.7005 7.16217 16.7901 7.23919 16.8827 7.31348C17.0185 7.45841 17.0109 7.6139 17.0099 7.80081C17.0101 7.84501 17.0101 7.84501 17.0103 7.89011C17.0106 7.97169 17.0106 8.05326 17.0104 8.13484C17.0103 8.2229 17.0106 8.31097 17.0108 8.39903C17.0113 8.57146 17.0113 8.74389 17.0112 8.91632C17.0111 9.05646 17.0111 9.19661 17.0112 9.33675C17.0112 9.3567 17.0113 9.37664 17.0113 9.3972C17.0113 9.43772 17.0114 9.47825 17.0114 9.51877C17.0117 9.89875 17.0116 10.2787 17.0113 10.6587C17.0111 11.0063 17.0114 11.354 17.012 11.7016C17.0126 12.0586 17.0129 12.4156 17.0127 12.7726C17.0126 12.973 17.0127 13.1734 17.0131 13.3738C17.0135 13.5444 17.0135 13.715 17.0131 13.8856C17.0128 13.9726 17.0128 14.0596 17.0132 14.1466C17.0135 14.241 17.0132 14.3353 17.0128 14.4296C17.013 14.4572 17.0133 14.4847 17.0135 14.513C17.012 14.6668 17.0012 14.7561 16.8985 14.873C16.7681 14.9879 16.6906 15.0037 16.5206 15.0034C16.4891 15.0035 16.4891 15.0035 16.4569 15.0036C16.3857 15.0038 16.3145 15.0037 16.2433 15.0037C16.1921 15.0038 16.1408 15.0039 16.0896 15.004C15.9481 15.0043 15.8067 15.0044 15.6653 15.0044C15.5129 15.0045 15.3606 15.0048 15.2083 15.005C14.8576 15.0055 14.5069 15.0057 14.1562 15.0059C13.9829 15.0061 13.8097 15.0062 13.6364 15.0063C13.0436 15.0068 12.4508 15.0071 11.858 15.0073C11.8208 15.0073 11.7835 15.0074 11.7463 15.0074C11.7186 15.0074 11.7186 15.0074 11.6904 15.0074C11.5968 15.0074 11.5033 15.0075 11.4097 15.0075C11.3912 15.0075 11.3726 15.0075 11.3535 15.0075C10.7515 15.0077 10.1494 15.0083 9.54741 15.0091C8.91119 15.01 8.27498 15.0105 7.63876 15.0106C7.56894 15.0106 7.49913 15.0106 7.42932 15.0106C7.40353 15.0106 7.40353 15.0106 7.37722 15.0106C7.10032 15.0107 6.82342 15.0111 6.54652 15.0116C6.2683 15.0121 5.99007 15.0122 5.71185 15.012C5.56106 15.0119 5.41027 15.0119 5.25948 15.0124C5.12152 15.0129 4.98358 15.0129 4.84563 15.0125C4.79563 15.0124 4.74564 15.0125 4.69564 15.0128C4.62783 15.0132 4.56005 15.013 4.49225 15.0126C4.4727 15.0128 4.45316 15.0131 4.43302 15.0133C4.30186 15.0117 4.2282 14.9808 4.127 14.8984C4.03682 14.7961 3.99692 14.7378 3.99664 14.6023C3.99652 14.5772 3.99641 14.5521 3.99629 14.5262C3.9963 14.4846 3.9963 14.4846 3.99631 14.442C3.99621 14.4127 3.99612 14.3833 3.99602 14.353C3.99579 14.2713 3.99568 14.1895 3.99561 14.1078C3.99551 14.0197 3.99527 13.9316 3.99504 13.8435C3.99454 13.6307 3.99429 13.4178 3.99406 13.2049C3.99395 13.1047 3.99381 13.0045 3.99368 12.9043C3.99325 12.5713 3.99288 12.2382 3.9927 11.9052C3.99265 11.8187 3.9926 11.7322 3.99255 11.6458C3.99254 11.6243 3.99253 11.6028 3.99251 11.5807C3.9923 11.2325 3.99166 10.8844 3.99083 10.5363C3.98999 10.179 3.98954 9.8217 3.98946 9.46439C3.9894 9.26374 3.98918 9.06309 3.98853 8.86243C3.98798 8.69154 3.98777 8.52065 3.98802 8.34976C3.98814 8.26258 3.98809 8.1754 3.9876 8.08821C3.98715 7.99365 3.98733 7.89911 3.98766 7.80454C3.98738 7.77704 3.9871 7.74953 3.98682 7.7212C3.98839 7.53787 4.01842 7.43032 4.1386 7.28831C4.14996 7.27825 4.16132 7.2682 4.17302 7.25783C4.18601 7.2461 4.19901 7.23436 4.2124 7.22227C4.22611 7.21031 4.23982 7.19835 4.25395 7.18603C4.28354 7.15948 4.31313 7.13293 4.34272 7.10638C4.35761 7.09318 4.37249 7.07998 4.38783 7.06638C4.45447 7.00705 4.52 6.94655 4.58562 6.8861C4.61077 6.86305 4.63593 6.84 4.66109 6.81697C4.737 6.74747 4.81286 6.67794 4.88872 6.60839C4.91411 6.58512 4.9395 6.56184 4.96489 6.53857C4.97746 6.52705 4.99002 6.51552 5.00297 6.50365C5.44731 6.09635 5.89165 5.68904 6.33598 5.28173C6.35484 5.26444 6.35484 5.26444 6.37408 5.24681C6.39943 5.22357 6.42478 5.20034 6.45013 5.17711C6.51427 5.11832 6.57839 5.05951 6.64245 5.00065C6.75933 4.89331 6.8764 4.78623 6.99455 4.68029C7.12068 4.56707 7.24514 4.45211 7.36956 4.33702C7.48607 4.22927 7.60313 4.12213 7.72018 4.01496C7.78354 3.95694 7.84687 3.89887 7.9102 3.84081C7.93559 3.81754 7.96098 3.79426 7.98637 3.77099C8.00523 3.75371 8.00523 3.75371 8.02446 3.73608C8.36723 3.42187 8.71001 3.10766 9.05278 2.79345C9.07163 2.77616 9.07163 2.77616 9.09086 2.75853C9.11625 2.73527 9.14164 2.71201 9.16704 2.68877C9.23071 2.63047 9.29423 2.57203 9.35747 2.51326C9.48594 2.3941 9.61582 2.27683 9.74943 2.16344C9.77349 2.14299 9.79755 2.12253 9.82233 2.10146C9.95493 2.00311 10.072 1.99192 10.2339 1.99146ZM9.91923 2.63634C9.88495 2.67 9.85063 2.70362 9.81628 2.73721C9.79923 2.75404 9.78217 2.77086 9.7646 2.78819C9.69826 2.852 9.62911 2.91209 9.55946 2.97224C9.47861 3.04287 9.4007 3.11658 9.32255 3.19018C9.19592 3.30893 9.06834 3.42636 8.93892 3.54208C8.84882 3.62322 8.75988 3.70558 8.67087 3.7879C8.54027 3.9087 8.40917 4.02895 8.27796 4.14908C8.21459 4.20711 8.15127 4.26517 8.08793 4.32323C8.06254 4.34651 8.03715 4.36978 8.01176 4.39306C7.99919 4.40458 7.98663 4.4161 7.97368 4.42797C7.15483 5.17858 7.15483 5.17858 6.33598 5.92919C6.31712 5.94648 6.31712 5.94648 6.29788 5.96412C6.27254 5.98735 6.24719 6.01058 6.22184 6.03382C6.15769 6.0926 6.09358 6.15141 6.02951 6.21027C5.57167 6.63075 5.57167 6.63075 5.49089 6.68646C5.39533 6.75772 5.32994 6.8088 5.30198 6.92782C5.29789 7.01704 5.30035 7.10326 5.30607 7.19237C5.30711 7.22294 5.30814 7.25351 5.3092 7.28501C5.31188 7.36003 5.31562 7.43484 5.32036 7.50976C5.40687 7.45927 5.47504 7.41108 5.54411 7.33837C5.62503 7.25348 5.7111 7.17695 5.7996 7.10018C5.8862 7.02402 5.96975 6.94472 6.05351 6.86547C6.18333 6.74318 6.31407 6.62228 6.44717 6.50355C6.53375 6.42522 6.61893 6.34544 6.70415 6.26562C6.82853 6.14911 6.95393 6.03401 7.08104 5.92046C7.16788 5.84179 7.25339 5.76174 7.33891 5.68163C7.4633 5.56513 7.5887 5.45003 7.7158 5.33648C7.80265 5.25781 7.88815 5.17775 7.97368 5.09765C8.09807 4.98114 8.22346 4.86604 8.35057 4.75249C8.43741 4.67382 8.52292 4.59377 8.60844 4.51366C8.73283 4.39716 8.85823 4.28206 8.98533 4.16851C9.07218 4.08984 9.15769 4.00978 9.24321 3.92968C9.36753 3.81324 9.49284 3.69818 9.6199 3.58472C9.67389 3.53581 9.72736 3.48649 9.78058 3.43674C9.79707 3.42134 9.81357 3.40594 9.83056 3.39007C9.86414 3.3585 9.89756 3.32675 9.93079 3.29482C10.0147 3.21478 10.0946 3.15094 10.1938 3.0902C10.2653 3.01452 10.2817 2.96445 10.2835 2.86109C10.2842 2.82481 10.2842 2.82481 10.285 2.7878C10.2839 2.67729 10.2792 2.56726 10.2715 2.45702C10.1022 2.42722 10.0296 2.52479 9.91923 2.63634ZM10.7286 2.45702C10.6801 2.76232 10.6801 2.76232 10.7643 3.04918C10.8583 3.15853 10.9696 3.24665 11.0846 3.33304C11.1476 3.3808 11.2054 3.43313 11.2634 3.48693C11.2925 3.5129 11.2925 3.5129 11.3222 3.5394C11.4088 3.61773 11.4939 3.69752 11.5791 3.77734C11.6841 3.87564 11.7893 3.97352 11.8965 4.06933C12.0208 4.18038 12.1424 4.29429 12.264 4.40823C12.3523 4.49084 12.4411 4.57274 12.5313 4.65331C12.6556 4.76436 12.7771 4.87828 12.8988 4.99222C12.9871 5.07482 13.0759 5.15673 13.1661 5.2373C13.2904 5.34834 13.4119 5.46226 13.5335 5.5762C13.6218 5.65881 13.7106 5.74071 13.8008 5.82128C13.9251 5.93233 14.0466 6.04625 14.1683 6.16019C14.2566 6.24279 14.3454 6.3247 14.4356 6.40527C14.5599 6.51631 14.6814 6.63023 14.8031 6.74417C14.9106 6.84475 15.0193 6.94379 15.1293 7.04172C15.1848 7.09212 15.2395 7.14312 15.2939 7.19466C15.3195 7.21881 15.3195 7.21881 15.3456 7.24345C15.3794 7.27545 15.4131 7.30755 15.4468 7.33976C15.4623 7.35445 15.4778 7.36915 15.4939 7.38429C15.5077 7.39746 15.5215 7.41064 15.5357 7.42421C15.5811 7.46141 15.6264 7.48549 15.6797 7.50976C15.7307 7.13947 15.7307 7.13947 15.6464 6.78713C15.5615 6.68249 15.4573 6.60419 15.3469 6.52798C15.2819 6.48221 15.225 6.42949 15.1672 6.37511C15.1474 6.35741 15.1276 6.3397 15.1072 6.32146C14.997 6.22256 14.8882 6.1222 14.7792 6.02205C14.7155 5.96354 14.6517 5.90511 14.5879 5.84667C14.5625 5.8234 14.5372 5.80012 14.5118 5.77685C14.4992 5.76533 14.4866 5.75381 14.4737 5.74194C11.6172 3.12353 11.6172 3.12353 11.5791 3.08859C11.5538 3.06539 11.5285 3.0422 11.5032 3.01901C11.4251 2.94748 11.3472 2.87582 11.2693 2.80409C11.231 2.76892 11.1925 2.73391 11.1541 2.69893C11.1106 2.65908 11.0675 2.61875 11.0251 2.57773C11.0079 2.56146 10.9907 2.54519 10.9729 2.52843C10.9586 2.51446 10.9443 2.50048 10.9295 2.48608C10.8616 2.44551 10.806 2.45212 10.7286 2.45702ZM10.3361 3.52619C10.2663 3.61174 10.2735 3.69717 10.2767 3.80361C10.2767 3.82616 10.2767 3.84872 10.2767 3.87197C10.2768 3.94618 10.2782 4.02032 10.2796 4.09452C10.2799 4.1461 10.2801 4.19769 10.2803 4.24928C10.281 4.38478 10.2827 4.52026 10.2847 4.65575C10.2865 4.79412 10.2873 4.93249 10.2882 5.07087C10.2901 5.34218 10.2932 5.61347 10.2969 5.88476C10.431 5.88476 10.565 5.88476 10.7032 5.88476C10.7073 5.58614 10.7104 5.28752 10.7124 4.98888C10.7133 4.8502 10.7146 4.71154 10.7166 4.57288C10.7185 4.43903 10.7196 4.3052 10.72 4.17134C10.7204 4.1203 10.721 4.06926 10.722 4.01822C10.7233 3.94666 10.7234 3.87518 10.7233 3.80361C10.724 3.78255 10.7246 3.76149 10.7253 3.7398C10.7242 3.65131 10.7211 3.59623 10.664 3.52619C10.5268 3.40421 10.4733 3.40421 10.3361 3.52619ZM9.73019 4.08609C9.70635 4.11055 9.68262 4.13512 9.65898 4.15978C9.56455 4.25628 9.46889 4.34825 9.36619 4.436C9.28333 4.50879 9.20307 4.58425 9.1226 4.65966C8.9049 4.86358 8.9049 4.86358 8.80463 4.95529C8.76752 4.98939 8.73082 5.02393 8.69414 5.05847C8.62114 5.12304 8.62114 5.12304 8.54021 5.17888C8.44788 5.24177 8.44788 5.24177 8.34184 5.37695C8.34184 5.54452 8.34184 5.7121 8.34184 5.88476C8.8362 5.88476 9.33055 5.88476 9.83989 5.88476C9.83989 5.2731 9.83989 4.66144 9.83989 4.03124C9.78189 4.02547 9.78189 4.02547 9.73019 4.08609ZM11.1602 4.03124C11.1602 4.6429 11.1602 5.25456 11.1602 5.88476C11.6546 5.88476 12.1489 5.88476 12.6582 5.88476C12.6582 5.71718 12.6582 5.5496 12.6582 5.37695C12.5222 5.23947 12.5222 5.23947 12.3803 5.11094C12.2767 5.02145 12.1769 4.92832 12.0774 4.83422C11.9479 4.71217 11.8175 4.59137 11.6845 4.4731C11.6289 4.42272 11.5743 4.37172 11.5198 4.32016C11.5027 4.30393 11.4855 4.2877 11.4678 4.27097C11.4336 4.23862 11.3995 4.20617 11.3656 4.17361C11.3421 4.15145 11.3421 4.15145 11.3182 4.12884C11.3043 4.11553 11.2903 4.10223 11.276 4.08852C11.234 4.05092 11.234 4.05092 11.1602 4.03124ZM7.80586 5.86056C7.76142 5.90605 7.71699 5.95154 7.67256 5.99703C7.60551 6.06249 7.60551 6.06249 7.5388 6.09877C7.44066 6.20513 7.46151 6.32206 7.46329 6.46159C7.46318 6.49237 7.46308 6.52314 7.46296 6.55485C7.46279 6.64033 7.46319 6.72577 7.46382 6.81124C7.46437 6.90338 7.46419 6.99553 7.46409 7.08767C7.46402 7.24734 7.46442 7.40699 7.46514 7.56666C7.46617 7.7975 7.4665 8.02834 7.46666 8.25918C7.46694 8.6337 7.46778 9.00822 7.46898 9.38274C7.47015 9.74657 7.47105 10.1104 7.47159 10.4742C7.47162 10.4967 7.47165 10.5191 7.47169 10.5422C7.47185 10.6547 7.47201 10.7672 7.47217 10.8796C7.47349 11.813 7.47573 12.7463 7.47856 13.6797C7.61262 13.6797 7.74669 13.6797 7.88481 13.6797C7.88481 11.0822 7.88481 8.48476 7.88481 5.80859C7.85002 5.80564 7.85002 5.80564 7.80586 5.86056ZM13.1153 5.80859C13.1153 8.40605 13.1153 11.0035 13.1153 13.6797C13.2493 13.6797 13.3834 13.6797 13.5215 13.6797C13.5291 12.7274 13.5349 11.7752 13.5384 10.8229C13.5388 10.7104 13.5392 10.5979 13.5397 10.4854C13.5398 10.4518 13.5398 10.4518 13.5399 10.4175C13.5414 10.0552 13.544 9.69288 13.547 9.33056C13.5501 8.9586 13.5519 8.58665 13.5526 8.21467C13.553 7.98525 13.5545 7.75589 13.5571 7.52648C13.5589 7.36903 13.5594 7.2116 13.559 7.05414C13.5588 6.96336 13.5591 6.87266 13.5609 6.7819C13.5849 6.3974 13.5849 6.3974 13.4482 6.0536C13.3706 5.97378 13.2872 5.91575 13.1915 5.85937C13.1663 5.84261 13.1412 5.82585 13.1153 5.80859ZM8.34184 6.34179C8.34184 6.47585 8.34184 6.60991 8.34184 6.74804C9.76626 6.74804 11.1907 6.74804 12.6582 6.74804C12.6582 6.61398 12.6582 6.47991 12.6582 6.34179C11.2338 6.34179 9.80942 6.34179 8.34184 6.34179ZM6.88823 6.7163C6.86522 6.73722 6.84221 6.75813 6.8185 6.77968C6.69689 6.89102 6.57575 7.00286 6.45475 7.11486C6.38506 7.17937 6.3153 7.2438 6.24553 7.30822C6.23185 7.32085 6.21818 7.33347 6.20409 7.34649C6.08802 7.45361 5.97158 7.56033 5.85505 7.66696C5.79964 7.71774 5.74447 7.76875 5.68941 7.8199C5.6747 7.83355 5.65999 7.8472 5.64483 7.86126C5.61663 7.88744 5.58846 7.91365 5.56033 7.93991C5.50219 7.99385 5.44741 8.0429 5.38012 8.08525C5.31095 8.15385 5.30551 8.19356 5.30456 8.28929C5.30525 8.31794 5.30525 8.31794 5.30594 8.34718C5.30593 8.3675 5.30591 8.38782 5.30589 8.40876C5.30598 8.47582 5.30696 8.54283 5.30796 8.60989C5.3082 8.65642 5.30838 8.70295 5.3085 8.74949C5.30899 8.87188 5.31023 8.99426 5.31164 9.11665C5.31317 9.26354 5.31375 9.41043 5.31449 9.55733C5.31572 9.78042 5.31815 10.0035 5.32036 10.2266C5.88174 10.2266 6.44313 10.2266 7.02153 10.2266C7.02153 9.03675 7.02153 7.84694 7.02153 6.62109C6.96983 6.62109 6.92349 6.68422 6.88823 6.7163ZM13.9786 6.62109C13.9786 7.81089 13.9786 9.0007 13.9786 10.2266C14.5399 10.2266 15.1013 10.2266 15.6797 10.2266C15.6871 9.86209 15.6871 9.86209 15.6921 9.49762C15.6936 9.34882 15.6954 9.20007 15.6989 9.0513C15.7017 8.93128 15.7032 8.8113 15.7038 8.69125C15.7043 8.64559 15.7052 8.59992 15.7066 8.55427C15.7202 8.29718 15.7202 8.29718 15.625 8.06741C15.5614 8.00975 15.4975 7.96299 15.4258 7.91601C15.3922 7.886 15.359 7.85543 15.3266 7.82397C15.3116 7.80984 15.2965 7.79572 15.281 7.78117C15.266 7.76701 15.2509 7.75286 15.2354 7.73827C15.1305 7.63995 15.0253 7.54209 14.918 7.44628C14.8108 7.35047 14.7056 7.25259 14.6006 7.15429C14.3106 6.82797 14.3106 6.82797 13.9786 6.62109ZM8.34184 7.20507C8.34184 8.20216 8.34184 9.19925 8.34184 10.2266C9.76626 10.2266 11.1907 10.2266 12.6582 10.2266C12.6582 9.22946 12.6582 8.23237 12.6582 7.20507C11.2338 7.20507 9.80942 7.20507 8.34184 7.20507ZM4.75561 7.3595C4.73355 7.38237 4.71149 7.40525 4.68877 7.42882C4.56599 7.55581 4.56599 7.55581 4.50466 7.59523C4.45254 7.63251 4.45254 7.63251 4.44446 7.69045C4.4445 7.7114 4.44454 7.73236 4.44458 7.75394C4.44438 7.77815 4.44417 7.80236 4.44397 7.8273C4.44426 7.85395 4.44456 7.8806 4.44486 7.90806C4.44478 7.93633 4.44469 7.96459 4.4446 7.99372C4.44443 8.08893 4.44499 8.18412 4.44555 8.27933C4.44557 8.34738 4.44556 8.41543 4.4455 8.48349C4.44545 8.63025 4.44577 8.77701 4.44634 8.92377C4.44716 9.13597 4.44743 9.34816 4.44755 9.56036C4.44778 9.90461 4.44845 10.2489 4.44941 10.5931C4.45035 10.9276 4.45106 11.262 4.4515 11.5965C4.45152 11.6171 4.45155 11.6377 4.45158 11.6589C4.45171 11.7623 4.45184 11.8657 4.45196 11.9691C4.45302 12.827 4.45481 13.685 4.45708 14.543C4.59114 14.543 4.7252 14.543 4.86333 14.543C4.86333 12.155 4.86333 9.76698 4.86333 7.30663C4.8058 7.30087 4.8058 7.30087 4.75561 7.3595ZM16.1368 7.30663C16.1368 9.69462 16.1368 12.0826 16.1368 14.543C16.2708 14.543 16.4049 14.543 16.543 14.543C16.55 13.6679 16.5554 12.7929 16.5586 11.9178C16.559 11.8144 16.5593 11.711 16.5598 11.6076C16.5598 11.5871 16.5599 11.5665 16.56 11.5453C16.5613 11.2123 16.5637 10.8794 16.5665 10.5464C16.5694 10.2046 16.5711 9.86281 16.5717 9.521C16.5721 9.31018 16.5734 9.0994 16.5759 8.8886C16.5775 8.74391 16.578 8.59925 16.5776 8.45455C16.5774 8.37112 16.5779 8.28779 16.5793 8.20438C16.601 7.85172 16.601 7.85172 16.4764 7.53551C16.3775 7.43358 16.263 7.36976 16.1368 7.30663ZM5.32036 10.6836C5.32036 10.8176 5.32036 10.9517 5.32036 11.0898C5.88174 11.0898 6.44313 11.0898 7.02153 11.0898C7.02153 10.9558 7.02153 10.8217 7.02153 10.6836C6.46014 10.6836 5.89876 10.6836 5.32036 10.6836ZM8.34184 10.6836C8.34184 10.8176 8.34184 10.9517 8.34184 11.0898C9.76626 11.0898 11.1907 11.0898 12.6582 11.0898C12.6582 10.9558 12.6582 10.8217 12.6582 10.6836C11.2338 10.6836 9.80942 10.6836 8.34184 10.6836ZM13.9786 10.6836C13.9786 10.8176 13.9786 10.9517 13.9786 11.0898C14.5399 11.0898 15.1013 11.0898 15.6797 11.0898C15.6797 10.9558 15.6797 10.8217 15.6797 10.6836C15.1183 10.6836 14.557 10.6836 13.9786 10.6836ZM5.32036 11.5469C5.32036 12.2507 5.32036 12.9545 5.32036 13.6797C5.88174 13.6797 6.44313 13.6797 7.02153 13.6797C7.02153 12.9759 7.02153 12.272 7.02153 11.5469C6.46014 11.5469 5.89876 11.5469 5.32036 11.5469ZM8.34184 11.5469C8.34184 12.2507 8.34184 12.9545 8.34184 13.6797C9.76626 13.6797 11.1907 13.6797 12.6582 13.6797C12.6582 12.9759 12.6582 12.272 12.6582 11.5469C11.2338 11.5469 9.80942 11.5469 8.34184 11.5469ZM13.9786 11.5469C13.9786 12.2507 13.9786 12.9545 13.9786 13.6797C14.5399 13.6797 15.1013 13.6797 15.6797 13.6797C15.6797 12.9759 15.6797 12.272 15.6797 11.5469C15.1183 11.5469 14.557 11.5469 13.9786 11.5469ZM5.32036 14.1367C5.32036 14.2708 5.32036 14.4048 5.32036 14.543C8.73895 14.543 12.1575 14.543 15.6797 14.543C15.6797 14.4089 15.6797 14.2748 15.6797 14.1367C12.2611 14.1367 8.84254 14.1367 5.32036 14.1367Z" fill="white"/>
</g>
<defs>
<clipPath id="clip0_543_1675">
<rect width="13" height="13" fill="white" transform="translate(4 2)"/>
</clipPath>
</defs>
</svg>
