<svg width="30" height="30" viewBox="0 0 30 30" fill="none" xmlns="http://www.w3.org/2000/svg">
<g filter="url(#filter0_d_440_16)">
<circle cx="15" cy="15" r="13.5" fill="#E9E4E4"/>
</g>
<g clip-path="url(#clip0_440_16)">
<path d="M9.0465 8.54846C9.43983 8.15791 9.44006 7.52183 9.04703 7.13098L8.66598 6.75204C8.27576 6.36399 7.64512 6.36487 7.25598 6.754V6.754C6.86608 7.14391 6.86608 7.77607 7.25598 8.16597L7.63598 8.54597C8.0252 8.93519 8.65591 8.9363 9.0465 8.54846V8.54846ZM7 14.5C7 13.9477 6.55228 13.5 6 13.5H5C4.44772 13.5 4 13.9477 4 14.5V14.5C4 15.0523 4.44772 15.5 5 15.5H6C6.55228 15.5 7 15.0523 7 14.5V14.5ZM16 4.54999C16 3.9977 15.5523 3.54999 15 3.54999V3.54999C14.4477 3.54999 14 3.9977 14 4.54999V5.49999C14 6.05227 14.4477 6.49999 15 6.49999V6.49999C15.5523 6.49999 16 6.05227 16 5.49999V4.54999ZM22.745 8.16499C23.1344 7.77563 23.1344 7.14435 22.745 6.75499V6.75499C22.3556 6.36563 21.7244 6.36563 21.335 6.75499L20.955 7.13499C20.5656 7.52435 20.5656 8.15563 20.955 8.54499V8.54499C21.3444 8.93435 21.9756 8.93435 22.365 8.54499L22.745 8.16499ZM20.94 20.46C20.5531 20.8469 20.5522 21.4739 20.938 21.8619L21.327 22.253C21.7149 22.6431 22.346 22.644 22.735 22.255V22.255C23.124 21.8659 23.1232 21.2349 22.733 20.8469L22.3419 20.458C21.954 20.0722 21.3269 20.0731 20.94 20.46V20.46ZM24 13.5C23.4477 13.5 23 13.9477 23 14.5V14.5C23 15.0523 23.4477 15.5 24 15.5H25C25.5523 15.5 26 15.0523 26 14.5V14.5C26 13.9477 25.5523 13.5 25 13.5H24ZM15 8.49999C11.69 8.49999 9 11.19 9 14.5C9 17.81 11.69 20.5 15 20.5C18.31 20.5 21 17.81 21 14.5C21 11.19 18.31 8.49999 15 8.49999ZM14 24.45C14 25.0023 14.4477 25.45 15 25.45V25.45C15.5523 25.45 16 25.0023 16 24.45V23.5C16 22.9477 15.5523 22.5 15 22.5V22.5C14.4477 22.5 14 22.9477 14 23.5V24.45ZM7.25108 20.835C6.86357 21.2247 6.86444 21.8544 7.25304 22.243V22.243C7.64316 22.6331 8.27595 22.6323 8.66499 22.2411L9.04892 21.855C9.43643 21.4653 9.43556 20.8355 9.04696 20.4469V20.4469C8.65684 20.0568 8.02405 20.0577 7.63501 20.4489L7.25108 20.835Z" fill="#939393"/>
</g>
<defs>
<filter id="filter0_d_440_16" x="0" y="0" width="30" height="30" filterUnits="userSpaceOnUse" color-interpolation-filters="sRGB">
<feFlood flood-opacity="0" result="BackgroundImageFix"/>
<feColorMatrix in="SourceAlpha" type="matrix" values="0 0 0 0 0 0 0 0 0 0 0 0 0 0 0 0 0 0 127 0" result="hardAlpha"/>
<feOffset/>
<feGaussianBlur stdDeviation="0.75"/>
<feComposite in2="hardAlpha" operator="out"/>
<feColorMatrix type="matrix" values="0 0 0 0 0.2 0 0 0 0 0.2 0 0 0 0 0.2 0 0 0 0.25 0"/>
<feBlend mode="normal" in2="BackgroundImageFix" result="effect1_dropShadow_440_16"/>
<feBlend mode="normal" in="SourceGraphic" in2="effect1_dropShadow_440_16" result="shape"/>
</filter>
<clipPath id="clip0_440_16">
<rect width="24" height="24" fill="white" transform="translate(3 3)"/>
</clipPath>
</defs>
</svg>
