<svg width="20" height="20" viewBox="0 0 20 20" fill="none" xmlns="http://www.w3.org/2000/svg">
<ellipse cx="10.3619" cy="10.0228" rx="9.54211" ry="9.54245" fill="white"/>
<path d="M4.63622 5.00596C4.65681 5.00584 4.6774 5.00573 4.69862 5.0056C4.76791 5.0053 4.83718 5.00554 4.90647 5.00578C4.95654 5.00567 5.0066 5.00553 5.05666 5.00536C5.19446 5.00499 5.33225 5.0051 5.47005 5.00529C5.61857 5.00541 5.76709 5.00509 5.91561 5.00483C6.20667 5.00439 6.49771 5.00437 6.78876 5.00451C7.02526 5.00461 7.26176 5.00457 7.49825 5.00444C7.53221 5.00442 7.56618 5.0044 7.60014 5.00438C7.65131 5.00435 7.70249 5.00432 7.75367 5.00429C8.22955 5.00402 8.70542 5.0039 9.1813 5.0041C9.19925 5.00411 9.21719 5.00412 9.23568 5.00412C9.38141 5.00419 9.52713 5.00425 9.67286 5.00432C10.2413 5.00458 10.8098 5.00436 11.3783 5.00377C12.0168 5.00311 12.6553 5.00278 13.2938 5.00297C13.3619 5.00298 13.43 5.003 13.498 5.00302C13.5315 5.00303 13.565 5.00303 13.5995 5.00304C13.8358 5.00307 14.072 5.00286 14.3083 5.00255C14.5962 5.00218 14.884 5.00216 15.1719 5.00261C15.3188 5.00282 15.4657 5.00287 15.6127 5.00249C15.7471 5.00214 15.8815 5.00225 16.0159 5.00275C16.0646 5.00284 16.1134 5.00277 16.1621 5.0025C16.2281 5.00217 16.2942 5.00246 16.3603 5.00291C16.3888 5.00254 16.3888 5.00254 16.4179 5.00217C16.5477 5.00398 16.622 5.03321 16.7205 5.11718C16.801 5.21756 16.8063 5.29705 16.8065 5.42382C16.8066 5.44171 16.8068 5.45959 16.8069 5.47801C16.8073 5.53809 16.8071 5.59816 16.8069 5.65823C16.807 5.70168 16.8072 5.74513 16.8074 5.78857C16.8079 5.90808 16.8079 6.02759 16.8078 6.1471C16.8078 6.27595 16.8082 6.40479 16.8085 6.53363C16.8092 6.78609 16.8094 7.03856 16.8094 7.29102C16.8095 7.49619 16.8096 7.70136 16.8099 7.90653C16.8105 8.48798 16.8109 9.06942 16.8108 9.65087C16.8108 9.68223 16.8108 9.71358 16.8108 9.74589C16.8108 9.77728 16.8108 9.80868 16.8108 9.84102C16.8108 10.35 16.8115 10.8589 16.8126 11.3678C16.8137 11.8902 16.8142 12.4125 16.8141 12.9349C16.8141 13.2282 16.8143 13.5216 16.8151 13.8149C16.8158 14.0646 16.816 14.3144 16.8155 14.5641C16.8152 14.6916 16.8152 14.819 16.8159 14.9465C16.8165 15.0631 16.8164 15.1797 16.8157 15.2964C16.8156 15.3386 16.8157 15.3808 16.8162 15.4231C16.8195 15.7777 16.8195 15.7777 16.7289 15.8932C16.6233 15.998 16.4871 16.0155 16.3435 16.0166C16.3247 16.0164 16.306 16.0163 16.2866 16.0162C16.2663 16.0163 16.2459 16.0164 16.2249 16.0165C16.1566 16.0167 16.0883 16.0165 16.0199 16.0164C15.9705 16.0165 15.9211 16.0166 15.8716 16.0167C15.7357 16.0169 15.5997 16.0169 15.4638 16.0168C15.3172 16.0167 15.1706 16.0169 15.024 16.0171C14.7368 16.0175 14.4496 16.0175 14.1624 16.0174C13.929 16.0174 13.6956 16.0174 13.4622 16.0175C13.4125 16.0176 13.4125 16.0176 13.3617 16.0176C13.2943 16.0176 13.2268 16.0177 13.1594 16.0177C12.7066 16.0179 12.2538 16.018 11.801 16.0179C11.7833 16.0179 11.7656 16.0179 11.7474 16.0179C11.6576 16.0178 11.5678 16.0178 11.4781 16.0178C11.4603 16.0178 11.4424 16.0178 11.4241 16.0178C11.388 16.0178 11.352 16.0178 11.3159 16.0178C10.7549 16.0176 10.194 16.0178 9.63296 16.0183C9.00277 16.0188 8.37257 16.0191 7.74237 16.019C7.40866 16.0189 7.07495 16.019 6.74124 16.0194C6.45717 16.0197 6.1731 16.0197 5.88903 16.0194C5.74405 16.0192 5.59907 16.0192 5.45408 16.0195C5.32141 16.0198 5.18874 16.0197 5.05607 16.0194C5.00803 16.0193 4.95998 16.0194 4.91194 16.0196C4.8467 16.0198 4.78149 16.0196 4.71626 16.0193C4.69754 16.0195 4.67882 16.0196 4.65954 16.0198C4.52968 16.0185 4.44318 15.9927 4.32991 15.9336C4.21886 15.8138 4.19978 15.7472 4.19955 15.5859C4.19949 15.5681 4.19943 15.5503 4.19937 15.532C4.1992 15.4719 4.19921 15.4118 4.19922 15.3517C4.19914 15.3084 4.19905 15.2651 4.19894 15.2218C4.19869 15.1024 4.19859 14.9829 4.19852 14.8635C4.19843 14.7349 4.19818 14.6062 4.19796 14.4776C4.19746 14.1667 4.1972 13.8558 4.19698 13.5449C4.19687 13.3987 4.19673 13.2524 4.1966 13.1061C4.19617 12.62 4.1958 12.134 4.19561 11.6479C4.19556 11.5217 4.19552 11.3955 4.19547 11.2693C4.19545 11.2222 4.19545 11.2222 4.19543 11.1742C4.19522 10.6659 4.19457 10.1575 4.19375 9.64908C4.19291 9.12752 4.19245 8.60596 4.19237 8.0844C4.19232 7.79141 4.19209 7.49841 4.19145 7.20542C4.1909 6.95594 4.19069 6.70646 4.19094 6.45699C4.19105 6.32964 4.191 6.2023 4.19051 6.07496C4.19007 5.95843 4.19009 5.84191 4.19048 5.72539C4.19054 5.68318 4.19043 5.64098 4.19013 5.59877C4.18975 5.54147 4.18999 5.4842 4.19039 5.4269C4.19037 5.39506 4.19034 5.36321 4.19032 5.3304C4.20911 5.20215 4.26237 5.12654 4.36155 5.04479C4.45365 5.00637 4.5381 5.00508 4.63622 5.00596ZM4.6346 5.42187C4.6346 5.98326 4.6346 6.54464 4.6346 7.12304C5.79089 7.12304 6.94718 7.12304 8.13851 7.12304C8.13851 6.56165 8.13851 6.00027 8.13851 5.42187C6.98222 5.42187 5.82593 5.42187 4.6346 5.42187ZM8.57015 5.42187C8.57015 5.98326 8.57015 6.54464 8.57015 7.12304C9.84374 7.12304 11.1173 7.12304 12.4295 7.12304C12.4295 6.56165 12.4295 6.00027 12.4295 5.42187C11.1559 5.42187 9.88234 5.42187 8.57015 5.42187ZM12.8612 5.42187C12.8612 5.98326 12.8612 6.54464 12.8612 7.12304C14.0258 7.12304 15.1905 7.12304 16.3905 7.12304C16.3905 6.56165 16.3905 6.00027 16.3905 5.42187C15.2258 5.42187 14.0611 5.42187 12.8612 5.42187ZM4.6346 7.55468C4.6346 8.10769 4.6346 8.6607 4.6346 9.23046C5.08706 9.23046 5.53952 9.23046 6.0057 9.23046C6.0057 8.67745 6.0057 8.12445 6.0057 7.55468C5.55323 7.55468 5.10077 7.55468 4.6346 7.55468ZM6.43734 7.55468C6.43734 8.10769 6.43734 8.6607 6.43734 9.23046C7.70255 9.23046 8.96776 9.23046 10.2713 9.23046C10.2713 8.67745 10.2713 8.12445 10.2713 7.55468C9.0061 7.55468 7.74089 7.55468 6.43734 7.55468ZM10.703 7.55468C10.703 8.10769 10.703 8.6607 10.703 9.23046C11.9766 9.23046 13.2501 9.23046 14.5623 9.23046C14.5623 8.67745 14.5623 8.12445 14.5623 7.55468C13.2887 7.55468 12.0151 7.55468 10.703 7.55468ZM14.994 7.55468C14.994 8.10769 14.994 8.6607 14.994 9.23046C15.4548 9.23046 15.9157 9.23046 16.3905 9.23046C16.3905 8.67745 16.3905 8.12445 16.3905 7.55468C15.9296 7.55468 15.4688 7.55468 14.994 7.55468ZM4.6346 9.6621C4.6346 10.2151 4.6346 10.7681 4.6346 11.3379C5.79089 11.3379 6.94718 11.3379 8.13851 11.3379C8.13851 10.7849 8.13851 10.2319 8.13851 9.6621C6.98222 9.6621 5.82593 9.6621 4.6346 9.6621ZM8.57015 9.6621C8.57015 10.2151 8.57015 10.7681 8.57015 11.3379C9.84374 11.3379 11.1173 11.3379 12.4295 11.3379C12.4295 10.7849 12.4295 10.2319 12.4295 9.6621C11.1559 9.6621 9.88234 9.6621 8.57015 9.6621ZM12.8612 9.6621C12.8612 10.2151 12.8612 10.7681 12.8612 11.3379C14.0258 11.3379 15.1905 11.3379 16.3905 11.3379C16.3905 10.7849 16.3905 10.2319 16.3905 9.6621C15.2258 9.6621 14.0611 9.6621 12.8612 9.6621ZM4.6346 11.7695C4.6346 12.3225 4.6346 12.8755 4.6346 13.4453C5.08706 13.4453 5.53952 13.4453 6.0057 13.4453C6.0057 12.8923 6.0057 12.3393 6.0057 11.7695C5.55323 11.7695 5.10077 11.7695 4.6346 11.7695ZM6.43734 11.7695C6.43734 12.3225 6.43734 12.8755 6.43734 13.4453C7.70255 13.4453 8.96776 13.4453 10.2713 13.4453C10.2713 12.8923 10.2713 12.3393 10.2713 11.7695C9.0061 11.7695 7.74089 11.7695 6.43734 11.7695ZM10.703 11.7695C10.703 12.3225 10.703 12.8755 10.703 13.4453C11.9766 13.4453 13.2501 13.4453 14.5623 13.4453C14.5623 12.8923 14.5623 12.3393 14.5623 11.7695C13.2887 11.7695 12.0151 11.7695 10.703 11.7695ZM14.994 11.7695C14.994 12.3225 14.994 12.8755 14.994 13.4453C15.4548 13.4453 15.9157 13.4453 16.3905 13.4453C16.3905 12.8923 16.3905 12.3393 16.3905 11.7695C15.9296 11.7695 15.4688 11.7695 14.994 11.7695ZM4.6346 13.8769C4.6346 14.4383 4.6346 14.9997 4.6346 15.5781C5.79089 15.5781 6.94718 15.5781 8.13851 15.5781C8.13851 15.0167 8.13851 14.4553 8.13851 13.8769C6.98222 13.8769 5.82593 13.8769 4.6346 13.8769ZM8.57015 13.8769C8.57015 14.4383 8.57015 14.9997 8.57015 15.5781C9.84374 15.5781 11.1173 15.5781 12.4295 15.5781C12.4295 15.0167 12.4295 14.4553 12.4295 13.8769C11.1559 13.8769 9.88234 13.8769 8.57015 13.8769ZM12.8612 13.8769C12.8612 14.4383 12.8612 14.9997 12.8612 15.5781C14.0258 15.5781 15.1905 15.5781 16.3905 15.5781C16.3905 15.0167 16.3905 14.4553 16.3905 13.8769C15.2258 13.8769 14.0611 13.8769 12.8612 13.8769Z" fill="#00080C"/>
</svg>
