<svg width="20" height="20" viewBox="0 0 20 20" fill="none" xmlns="http://www.w3.org/2000/svg">
<ellipse cx="10.3619" cy="10.0228" rx="9.54211" ry="9.54245" fill="white"/>
<g clip-path="url(#clip0_546_549)">
<path d="M14.1817 6.65625C14.4649 6.65389 14.7481 6.65209 15.0313 6.65099C15.1628 6.65046 15.2943 6.64975 15.4258 6.64859C15.5529 6.64748 15.68 6.64688 15.8071 6.64662C15.8554 6.64643 15.9038 6.64607 15.9521 6.64552C16.2465 6.64229 16.5183 6.63946 16.7668 6.82129C16.9458 6.99876 17.017 7.22066 17.0213 7.46747C17.021 7.49802 17.0208 7.52858 17.0206 7.56006C17.0209 7.59313 17.0213 7.6262 17.0216 7.66027C17.0225 7.75004 17.0225 7.83977 17.0222 7.92954C17.022 8.00482 17.0224 8.08009 17.0227 8.15536C17.0234 8.33304 17.0233 8.5107 17.0227 8.68837C17.0221 8.87104 17.0228 9.05367 17.0242 9.23633C17.0253 9.39386 17.0257 9.55138 17.0254 9.70891C17.0252 9.8027 17.0253 9.89646 17.0262 9.99025C17.0271 10.0948 17.0264 10.1993 17.0255 10.3039C17.0263 10.3499 17.0263 10.3499 17.027 10.3968C17.0231 10.6228 16.9524 10.7365 16.7969 10.8965C16.7706 10.9272 16.7444 10.9581 16.7185 10.9892C16.6944 11.0171 16.6703 11.0449 16.6462 11.0726C16.5553 11.1779 16.4656 11.2837 16.378 11.3916C16.2781 11.5146 16.1753 11.6349 16.0718 11.7549C15.9949 11.8444 15.9192 11.9347 15.8448 12.0264C15.7576 12.1337 15.6684 12.239 15.5782 12.3438C15.4685 12.4711 15.361 12.6 15.255 12.7305C15.1327 12.8797 15.007 13.0262 14.8821 13.1732C14.7623 13.3142 14.6428 13.4554 14.5261 13.599C14.4256 13.7225 14.3222 13.8433 14.2183 13.9639C14.1413 14.0534 14.0657 14.1437 13.9913 14.2354C13.8915 14.3582 13.7889 14.4785 13.6854 14.5982C13.6251 14.6681 13.5655 14.7382 13.5084 14.8107C13.3638 14.9936 13.2443 15.1224 13.0137 15.1875C12.9396 15.194 12.9396 15.194 12.8609 15.1941C12.8308 15.1943 12.8008 15.1945 12.7698 15.1947C12.7372 15.1946 12.7046 15.1945 12.671 15.1945C12.6361 15.1946 12.6011 15.1947 12.5661 15.1949C12.4714 15.1952 12.3767 15.1952 12.2821 15.1952C12.2029 15.1951 12.1237 15.1953 12.0445 15.1954C11.8576 15.1957 11.6707 15.1957 11.4838 15.1955C11.2913 15.1954 11.0989 15.1957 10.9064 15.1962C10.7408 15.1967 10.5753 15.1968 10.4097 15.1967C10.311 15.1967 10.2122 15.1968 10.1135 15.1971C10.0206 15.1974 9.92768 15.1974 9.83477 15.197C9.78466 15.197 9.73454 15.1972 9.68443 15.1975C9.46108 15.1962 9.28493 15.1744 9.11151 15.0209C9.09361 15.0057 9.07571 14.9904 9.05726 14.9748C8.89235 14.7761 8.8566 14.5894 8.86065 14.3365C8.86063 14.3057 8.86061 14.275 8.86059 14.2433C8.86067 14.1598 8.8613 14.0763 8.86219 13.9928C8.86299 13.9052 8.86306 13.8177 8.86321 13.7301C8.8636 13.5647 8.86464 13.3992 8.86592 13.2338C8.86734 13.0452 8.86804 12.8567 8.86867 12.6682C8.87 12.2808 8.87225 11.8933 8.87506 11.5059C9.00912 11.5059 9.14319 11.5059 9.28131 11.5059C9.28154 11.56 9.28154 11.56 9.28176 11.6152C9.28322 11.9555 9.28506 12.2958 9.2873 12.6362C9.28844 12.8111 9.28944 12.9861 9.29011 13.161C9.29076 13.3299 9.2918 13.4988 9.29307 13.6678C9.2935 13.7321 9.29379 13.7965 9.29395 13.8609C9.29419 13.9512 9.2949 14.0415 9.29572 14.1318C9.29567 14.1715 9.29567 14.1715 9.29561 14.2121C9.29761 14.3683 9.31199 14.5126 9.38287 14.6543C9.49237 14.7441 9.60396 14.7589 9.74217 14.7599C9.76853 14.7601 9.79489 14.7604 9.82205 14.7606C9.86539 14.7609 9.86539 14.7609 9.90961 14.7611C9.94057 14.7613 9.97154 14.7616 10.0034 14.7618C10.0701 14.7624 10.1368 14.7629 10.2035 14.7633C10.2991 14.7639 10.3946 14.7646 10.4902 14.7653C10.7199 14.7671 10.9496 14.7686 11.1793 14.7701C11.9491 14.7756 11.9491 14.7756 12.7344 14.7813C12.7344 13.6417 12.7344 12.5022 12.7344 11.3281C11.8463 11.3281 10.9581 11.3281 10.043 11.3281C10.1469 11.2502 10.2534 11.1887 10.3664 11.1253C10.4456 11.0816 10.4456 11.0816 10.4847 11.0362C10.5995 10.9217 10.714 10.9083 10.8707 10.9079C10.9366 10.9085 11.0023 10.9099 11.0682 10.9119C11.1394 10.914 11.2106 10.9149 11.2819 10.9154C11.4844 10.9172 11.6869 10.9205 11.8893 10.9258C12.0135 10.929 12.1377 10.9304 12.2619 10.9307C12.3089 10.9312 12.3559 10.9323 12.4029 10.9341C12.6902 10.948 12.6902 10.948 12.9367 10.8193C13.0095 10.7459 13.0734 10.6672 13.1344 10.5838C13.1779 10.5251 13.2264 10.4713 13.2756 10.4172C13.2984 10.3908 13.3212 10.3644 13.3438 10.3379C13.3123 10.3375 13.3123 10.3375 13.2802 10.3372C13.185 10.3358 13.0898 10.3337 12.9947 10.3315C12.9616 10.3312 12.9286 10.3308 12.8945 10.3305C12.8628 10.3296 12.831 10.3288 12.7983 10.328C12.7691 10.3274 12.7398 10.3269 12.7097 10.3264C12.618 10.3098 12.5878 10.2835 12.5313 10.2109C12.5178 10.1602 12.5178 10.1602 12.5186 10.1094C12.5182 10.0842 12.5182 10.0842 12.5178 10.0586C12.5386 9.98024 12.5672 9.95449 12.6329 9.90625C12.714 9.89423 12.7938 9.89941 12.8756 9.90328C12.9247 9.90415 12.9737 9.90494 13.0228 9.90566C13.0998 9.90727 13.1765 9.9094 13.2534 9.91295C13.5752 9.93479 13.5752 9.93479 13.8562 9.80349C13.9292 9.73026 13.9918 9.65137 14.051 9.56672C14.0878 9.5146 14.1292 9.46771 14.1722 9.42066C14.1853 9.40541 14.1985 9.39015 14.2121 9.37444C14.2728 9.30528 14.3352 9.23763 14.3975 9.16993C14.4747 9.08613 14.5514 9.00211 14.626 8.91602C14.7125 8.81621 14.802 8.71919 14.8915 8.62204C14.9563 8.55154 15.0204 8.48058 15.0831 8.40821C15.1696 8.3084 15.259 8.21138 15.3485 8.11423C15.4133 8.04373 15.4774 7.97276 15.5401 7.9004C15.6147 7.81431 15.6915 7.73029 15.7686 7.64649C15.9292 7.47198 16.084 7.29335 16.2383 7.11329C15.1323 7.10072 15.1323 7.10072 14.004 7.0879C14.0393 6.98191 14.0749 6.88682 14.1214 6.78638C14.1384 6.74956 14.1384 6.74956 14.1557 6.712C14.1643 6.6936 14.1729 6.67521 14.1817 6.65625ZM16.5079 7.4751C16.4144 7.56906 16.3253 7.66541 16.2387 7.76581C16.1763 7.83712 16.1122 7.90686 16.0479 7.97657C15.9708 8.06036 15.894 8.14439 15.8194 8.23047C15.7329 8.33028 15.6434 8.4273 15.554 8.52445C15.4892 8.59495 15.4251 8.66592 15.3624 8.73829C15.2759 8.83809 15.1864 8.93511 15.097 9.03226C15.0321 9.10277 14.9681 9.17373 14.9053 9.2461C14.8188 9.34591 14.7294 9.44293 14.6399 9.54007C14.5751 9.61058 14.511 9.68154 14.4483 9.75391C14.3618 9.85372 14.2723 9.95074 14.1829 10.0479C14.1181 10.1184 14.054 10.1894 13.9913 10.2617C13.9048 10.3615 13.8153 10.4586 13.7259 10.5557C13.647 10.6415 13.5698 10.7284 13.4936 10.8165C13.4167 10.9035 13.3377 10.9885 13.2586 11.0733C13.1642 11.1753 13.1375 11.2203 13.1378 11.3582C13.1378 11.3856 13.1378 11.4131 13.1378 11.4414C13.1379 11.4711 13.1381 11.5008 13.1382 11.5315C13.1383 11.577 13.1383 11.577 13.1383 11.6235C13.1385 11.7207 13.1388 11.818 13.1391 11.9153C13.1392 11.9811 13.1393 12.0469 13.1394 12.1128C13.1397 12.2744 13.1402 12.436 13.1407 12.5977C13.1707 12.5676 13.1707 12.5676 13.2013 12.5369C13.2383 12.5 13.2754 12.4631 13.3127 12.4266C13.4036 12.3372 13.4889 12.2446 13.5721 12.1481C13.6335 12.0779 13.6965 12.0093 13.7596 11.9407C13.8843 11.8051 14.0079 11.6684 14.1309 11.5313C14.2539 11.3941 14.3775 11.2575 14.5023 11.1218C14.5779 11.0396 14.6529 10.9571 14.726 10.8727C14.818 10.7665 14.9138 10.6638 15.0094 10.5608C15.0773 10.4874 15.1446 10.4136 15.21 10.3379C15.3015 10.2321 15.3967 10.13 15.4918 10.0276C15.5598 9.95415 15.627 9.88038 15.6924 9.80469C15.7839 9.69892 15.8792 9.59684 15.9742 9.49435C16.0555 9.4065 16.1366 9.31868 16.212 9.22569C16.2637 9.16993 16.2637 9.16993 16.3384 9.11308C16.4581 9.01625 16.5512 8.91935 16.5846 8.76503C16.6068 8.55062 16.5962 8.33591 16.5875 8.12098C16.5859 8.05521 16.5845 7.98943 16.5833 7.92365C16.58 7.76348 16.5749 7.60344 16.5684 7.44336C16.5383 7.44053 16.5383 7.44053 16.5079 7.4751ZM16.5684 9.44922C16.5349 9.48449 16.5023 9.52066 16.47 9.55713C16.3799 9.65846 16.289 9.75892 16.1971 9.85865C16.1215 9.94083 16.0464 10.0233 15.9733 10.1078C15.8813 10.214 15.7855 10.3167 15.69 10.4197C15.622 10.4931 15.5547 10.5669 15.4893 10.6426C15.3979 10.7484 15.3026 10.8504 15.2075 10.9529C15.1396 11.0263 15.0723 11.1001 15.0069 11.1758C14.9155 11.2816 14.8202 11.3836 14.7251 11.4861C14.6572 11.5595 14.5899 11.6333 14.5245 11.709C14.433 11.8148 14.3378 11.9168 14.2427 12.0193C14.1747 12.0927 14.1075 12.1665 14.0421 12.2422C13.9506 12.348 13.8553 12.45 13.7603 12.5525C13.6785 12.6409 13.5984 12.7304 13.5198 12.8216C13.4375 12.9145 13.3525 13.005 13.2676 13.0956C13.1718 13.1983 13.1375 13.2432 13.1378 13.3825C13.1378 13.4084 13.1378 13.4343 13.1378 13.461C13.1379 13.4891 13.1381 13.5171 13.1382 13.546C13.1382 13.5747 13.1383 13.6034 13.1383 13.6329C13.1385 13.7248 13.1388 13.8166 13.1391 13.9085C13.1392 13.9706 13.1393 14.0328 13.1394 14.0949C13.1397 14.2475 13.1402 14.4001 13.1407 14.5527C13.2312 14.4631 13.3162 14.3712 13.3978 14.2734C13.4224 14.2441 13.447 14.2149 13.4716 14.1856C13.484 14.1707 13.4965 14.1558 13.5093 14.1405C13.5458 14.0971 13.5824 14.0538 13.6191 14.0106C13.7269 13.8838 13.834 13.7567 13.9389 13.6276C14.0394 13.5041 14.1427 13.3833 14.2466 13.2627C14.343 13.1506 14.4371 13.0367 14.5303 12.9219C14.6526 12.7727 14.7783 12.6262 14.9032 12.4792C15.023 12.3382 15.1425 12.197 15.2592 12.0533C15.3597 11.9299 15.4631 11.8091 15.567 11.6885C15.6439 11.599 15.7196 11.5086 15.794 11.417C15.8938 11.2941 15.9965 11.174 16.0998 11.0541C16.1976 10.9404 16.2931 10.8252 16.3873 10.7085C16.4415 10.6426 16.4415 10.6426 16.4796 10.6057C16.5799 10.5039 16.6112 10.4325 16.6111 10.2899C16.6103 10.2686 16.6095 10.2473 16.6087 10.2253C16.6085 10.203 16.6083 10.1807 16.608 10.1578C16.6072 10.0871 16.6053 10.0166 16.6033 9.94593C16.6026 9.89781 16.6019 9.84969 16.6013 9.80157C16.5996 9.68409 16.597 9.56667 16.5938 9.44922C16.5854 9.44922 16.5771 9.44922 16.5684 9.44922Z" fill="#00080C"/>
<path d="M13.1686 4.17314C13.5884 4.50435 13.8702 4.95584 13.953 5.48829C13.9987 6.09076 13.9053 6.65469 13.5026 7.1246C13.4836 7.14601 13.4647 7.16741 13.4452 7.18947C13.4209 7.21791 13.3968 7.24641 13.3727 7.27496C13.2577 7.41076 13.1412 7.54498 13.0215 7.67665C12.9445 7.76132 12.8712 7.84792 12.7993 7.9369C12.7012 8.05815 12.5977 8.17301 12.4921 8.28771C12.4314 8.35537 12.3739 8.42468 12.3169 8.4955C12.224 8.61068 12.1262 8.71947 12.0254 8.82771C11.95 8.90924 11.8786 8.99286 11.8091 9.07948C11.7115 9.20081 11.6077 9.31445 11.5013 9.428C11.4222 9.51299 11.347 9.5998 11.2743 9.69044C11.1642 9.82754 11.0459 9.95553 10.926 10.084C10.8702 10.1439 10.8154 10.2046 10.7617 10.2665C10.7481 10.2821 10.7345 10.2977 10.7204 10.3137C10.6889 10.3502 10.6578 10.387 10.6268 10.424C10.2927 10.8129 9.82901 11.0894 9.31173 11.1307C8.73808 11.1605 8.20706 11.051 7.76194 10.6678C7.74377 10.6511 7.72561 10.6344 7.70689 10.6172C7.68899 10.601 7.67108 10.5849 7.65264 10.5682C7.25714 10.193 7.04952 9.69275 7.03478 9.15383C7.03023 8.61716 7.16669 8.13025 7.52916 7.72267C7.54546 7.70395 7.56176 7.68523 7.57855 7.66594C7.70899 7.51865 7.84417 7.37561 7.97859 7.23196C8.09445 7.10814 8.20928 6.98344 8.32371 6.8583C8.43489 6.73672 8.54682 6.61582 8.65863 6.49481C8.72227 6.42592 8.78587 6.35701 8.84947 6.2881C8.87486 6.26059 8.90025 6.23308 8.92564 6.20558C8.93821 6.19196 8.95078 6.17835 8.96373 6.16432C9.3065 5.79298 9.64927 5.42164 9.99205 5.05031C10.0046 5.03669 10.0172 5.02307 10.0301 5.00903C10.0555 4.98156 10.0809 4.9541 10.1062 4.92664C10.1702 4.8574 10.2341 4.78804 10.2976 4.71844C10.3609 4.64929 10.4245 4.58053 10.4885 4.51208C10.5126 4.48626 10.5366 4.46036 10.5604 4.43435C11.2448 3.69212 12.3512 3.59325 13.1686 4.17314ZM11.4139 4.34572C11.3904 4.35589 11.3668 4.36607 11.3425 4.37656C11.0367 4.52643 10.8098 4.79236 10.5862 5.04246C10.5248 5.11077 10.4623 5.17809 10.3999 5.2455C10.3743 5.27323 10.3486 5.30097 10.323 5.32871C10.3103 5.34248 10.2976 5.35626 10.2844 5.37045C10.2208 5.43933 10.1572 5.50825 10.0936 5.57716C10.0172 5.65999 9.9407 5.74282 9.8642 5.82561C9.73001 5.97088 9.59606 6.11636 9.46251 6.26222C9.37688 6.35569 9.29096 6.44889 9.20494 6.542C9.17968 6.56938 9.15442 6.59675 9.12916 6.62413C9.07662 6.68107 9.02396 6.73792 8.97127 6.79472C8.94548 6.82262 8.91969 6.85052 8.8939 6.87843C8.88176 6.89147 8.86962 6.90452 8.85711 6.91795C8.79866 6.96973 8.79866 6.96973 8.7733 7.03712C8.80341 7.03624 8.83352 7.03535 8.86455 7.03444C9.26869 7.02617 9.7125 7.0497 10.0584 7.28547C10.116 7.32346 10.116 7.32346 10.1709 7.30233C10.2293 7.25917 10.2792 7.2128 10.3301 7.1609C10.3574 7.13331 10.3574 7.13331 10.3853 7.10516C10.4361 7.05098 10.4852 6.99614 10.5339 6.94012C10.6238 6.83675 10.7168 6.73675 10.8109 6.63722C10.9481 6.49152 11.0842 6.34499 11.2191 6.19725C11.2918 6.11782 11.3647 6.03867 11.4377 5.95961C11.4504 5.9459 11.463 5.9322 11.4761 5.91809C11.5275 5.86245 11.5789 5.80683 11.6303 5.7512C11.7658 5.60455 11.9012 5.45781 12.036 5.31056C12.1199 5.21894 12.2039 5.12744 12.2882 5.03615C12.3135 5.00872 12.3388 4.98128 12.3641 4.95382C12.4315 4.88075 12.4992 4.80803 12.5673 4.7357C12.5885 4.71309 12.5885 4.71309 12.6101 4.69002C12.6374 4.66095 12.6647 4.63197 12.6922 4.6031C12.7629 4.53641 12.7629 4.53641 12.785 4.44728C12.3593 4.21363 11.8699 4.14809 11.4139 4.34572ZM13.1151 4.75197C13.0693 4.79949 13.0246 4.84753 12.9802 4.89637C12.9523 4.92689 12.9243 4.95741 12.8964 4.98792C12.8821 5.00361 12.8678 5.0193 12.853 5.03546C12.7883 5.10625 12.7232 5.17666 12.6581 5.24708C12.6327 5.27459 12.6073 5.30209 12.5819 5.3296C11.2108 6.81495 11.2108 6.81495 11.1727 6.85624C11.1474 6.88364 11.1221 6.91105 11.0968 6.93845C11.0318 7.00888 10.9668 7.07924 10.9016 7.14949C10.7655 7.29639 10.6303 7.4437 10.4999 7.59572C10.5203 7.61771 10.5407 7.6397 10.5617 7.66237C10.9387 8.1045 11.0879 8.59689 11.1092 9.16993C11.2004 9.10132 11.2707 9.03114 11.3409 8.94142C11.4253 8.83605 11.5124 8.73535 11.6044 8.63673C11.692 8.54258 11.7761 8.44668 11.8567 8.34633C11.9543 8.22499 12.0581 8.11136 12.1644 7.99781C12.2436 7.91282 12.3187 7.82601 12.3915 7.73536C12.4763 7.62957 12.5654 7.52959 12.6581 7.43068C12.7728 7.30816 12.8809 7.18222 12.9859 7.05111C13.037 6.98871 13.0904 6.92965 13.1452 6.8705C13.4549 6.52157 13.5492 6.12851 13.532 5.67168C13.5099 5.32903 13.3778 5.00288 13.1405 4.75197C13.1321 4.75197 13.1237 4.75197 13.1151 4.75197ZM7.81371 8.05275C7.70412 8.20171 7.6269 8.36557 7.55455 8.53517C7.54479 8.55778 7.53504 8.5804 7.52499 8.6037C7.40951 8.93882 7.44085 9.38266 7.57994 9.70314C7.59012 9.7285 7.6003 9.75387 7.61078 9.78C7.77219 10.1435 8.08526 10.4314 8.44798 10.5886C8.8778 10.7531 9.31279 10.7562 9.73814 10.5664C10.1572 10.3763 10.4365 10.0516 10.6014 9.62697C10.6096 9.60684 10.6177 9.58671 10.6261 9.56597C10.7571 9.18031 10.7013 8.71664 10.5332 8.35426C10.3024 7.91875 9.93901 7.64907 9.47789 7.49415C8.84979 7.34782 8.23169 7.57254 7.81371 8.05275Z" fill="#00080C"/>
<path d="M6.64039 9.42383C6.65715 9.42383 6.6739 9.42383 6.69117 9.42383C6.70891 9.49359 6.72632 9.56341 6.74354 9.6333C6.74859 9.65304 6.75365 9.67277 6.75886 9.69311C6.76353 9.71225 6.76819 9.7314 6.77299 9.75113C6.77738 9.76868 6.78177 9.78623 6.78629 9.80432C6.79605 9.88184 6.78205 9.93652 6.73669 9.99978C6.72324 10.0145 6.70979 10.0292 6.69593 10.0443C6.68006 10.0618 6.66418 10.0793 6.64783 10.0974C6.62861 10.1181 6.6094 10.1388 6.58961 10.1602C6.56517 10.1866 6.54074 10.2131 6.51631 10.2396C6.4765 10.2827 6.43667 10.3258 6.39677 10.3689C6.31488 10.4573 6.23473 10.5469 6.15608 10.6382C6.11488 10.6847 6.07299 10.7302 6.03052 10.7755C6.01677 10.7902 6.00302 10.8049 5.98886 10.82C5.96142 10.8493 5.93389 10.8784 5.90624 10.9075C5.8414 10.9767 5.79141 11.0391 5.75172 11.125C5.76882 11.1245 5.78592 11.1239 5.80354 11.1234C6.2561 11.1112 6.63346 11.1199 7.03513 11.3516C7.1077 11.3834 7.12633 11.3797 7.19898 11.3535C7.25408 11.3045 7.3051 11.2557 7.35609 11.2028C7.36995 11.1888 7.38381 11.1748 7.39809 11.1604C7.4726 11.086 7.4726 11.086 7.52906 10.998C7.63251 11.0139 7.70414 11.0683 7.78931 11.1266C7.81668 11.1452 7.84404 11.1638 7.87223 11.183C7.89305 11.1974 7.91386 11.2118 7.93531 11.2266C7.8037 11.3824 7.66675 11.5331 7.52906 11.6836C7.55053 11.7077 7.572 11.7318 7.59412 11.7566C7.95469 12.1799 8.10495 12.6355 8.16383 13.1816C8.18369 13.1578 8.20356 13.134 8.22403 13.1094C8.24998 13.0785 8.27593 13.0475 8.30189 13.0166C8.315 13.0009 8.3281 12.9851 8.34161 12.9689C8.37489 12.9293 8.40895 12.8904 8.44312 12.8516C8.4515 12.8516 8.45988 12.8516 8.46851 12.8516C8.51086 13.5075 8.51086 13.5075 8.37489 13.6688C8.33062 13.7103 8.28558 13.751 8.24 13.791C8.18485 13.8514 8.13249 13.9142 8.07972 13.9767C8.05144 14.0092 8.02311 14.0417 7.99472 14.0742C7.92572 14.1534 7.85767 14.2334 7.78985 14.3136C7.48331 14.6749 7.17318 14.9567 6.71656 15.1113C6.69375 15.1194 6.67093 15.1275 6.64743 15.1358C6.10361 15.2947 5.49658 15.2036 5.00597 14.9371C4.87885 14.8644 4.76773 14.7786 4.65992 14.6797C4.64074 14.6628 4.62156 14.646 4.6018 14.6286C4.24753 14.2993 4.00861 13.81 3.98875 13.3256C3.98815 13.2707 3.98813 13.2159 3.98865 13.161C3.98888 13.1321 3.98911 13.1031 3.98935 13.0733C3.99971 12.5677 4.1921 12.1308 4.53297 11.7598C4.5525 11.7385 4.5525 11.7385 4.57243 11.7167C4.64347 11.6394 4.71498 11.5625 4.78687 11.4859C4.8581 11.4099 4.92693 11.3322 4.99496 11.2533C5.0557 11.1842 5.11807 11.1165 5.18043 11.0488C5.25709 10.9656 5.33333 10.8821 5.40736 10.7965C5.49937 10.6903 5.59512 10.5877 5.69066 10.4846C5.77326 10.3954 5.85414 10.305 5.93372 10.213C5.99375 10.1448 6.05519 10.0779 6.11671 10.011C6.3504 9.75777 6.3504 9.75777 6.57532 9.49683C6.5968 9.47274 6.61827 9.44865 6.64039 9.42383ZM5.04078 11.8867C5.02281 11.8997 5.00484 11.9126 4.98633 11.926C4.69268 12.16 4.49725 12.5369 4.4314 12.9023C4.40396 13.1994 4.41462 13.4888 4.53297 13.7656C4.54632 13.7986 4.54632 13.7986 4.55994 13.8322C4.74537 14.2449 5.09239 14.5064 5.49781 14.6797C5.94096 14.8436 6.38692 14.7874 6.81058 14.5983C7.18783 14.4113 7.46301 14.0888 7.61634 13.699C7.75995 13.2531 7.73113 12.8086 7.51714 12.391C7.2993 11.9972 6.93437 11.724 6.50659 11.5893C6.44971 11.5752 6.39368 11.5651 6.3357 11.5566C6.30178 11.5515 6.30178 11.5515 6.26717 11.5463C5.81455 11.4931 5.40635 11.6227 5.04078 11.8867Z" fill="#00080C"/>
<path d="M10.3544 12.1275C10.3866 12.1272 10.4187 12.1269 10.4519 12.1265C10.487 12.1267 10.522 12.1269 10.5571 12.1271C10.5931 12.1271 10.6292 12.127 10.6652 12.1269C10.7407 12.1267 10.8161 12.1269 10.8916 12.1274C10.9883 12.128 11.0849 12.1276 11.1816 12.127C11.256 12.1267 11.3304 12.1268 11.4048 12.127C11.4404 12.1271 11.4761 12.127 11.5117 12.1268C11.5615 12.1265 11.6113 12.127 11.6612 12.1275C11.6895 12.1276 11.7178 12.1277 11.747 12.1277C11.8203 12.1406 11.8203 12.1406 11.8802 12.1823C11.9341 12.2598 11.9347 12.3072 11.935 12.4013C11.9353 12.4335 11.9356 12.4657 11.9359 12.4989C11.9358 12.5339 11.9355 12.569 11.9353 12.604C11.9354 12.6401 11.9355 12.6761 11.9356 12.7121C11.9358 12.7876 11.9355 12.8631 11.9351 12.9386C11.9345 13.0352 11.9348 13.1318 11.9354 13.2285C11.9358 13.3029 11.9357 13.3773 11.9354 13.4517C11.9353 13.4874 11.9354 13.523 11.9357 13.5586C11.9359 13.6085 11.9355 13.6583 11.935 13.7081C11.9349 13.7364 11.9348 13.7648 11.9347 13.794C11.9218 13.8672 11.9218 13.8672 11.8802 13.9271C11.8027 13.981 11.7552 13.9816 11.6612 13.9819C11.6129 13.9824 11.6129 13.9824 11.5636 13.9829C11.5286 13.9827 11.4935 13.9825 11.4584 13.9823C11.4224 13.9823 11.3864 13.9824 11.3503 13.9825C11.2748 13.9827 11.1994 13.9825 11.1239 13.982C11.0272 13.9814 10.9306 13.9818 10.834 13.9824C10.7596 13.9827 10.6852 13.9826 10.6107 13.9824C10.5751 13.9823 10.5395 13.9824 10.5038 13.9826C10.454 13.9829 10.4042 13.9824 10.3544 13.9819C10.326 13.9818 10.2977 13.9817 10.2685 13.9817C10.1953 13.9688 10.1953 13.9688 10.1354 13.9271C10.0815 13.8496 10.0808 13.8022 10.0806 13.7081C10.0802 13.6759 10.0799 13.6437 10.0796 13.6105C10.0798 13.5755 10.08 13.5404 10.0802 13.5054C10.0801 13.4693 10.08 13.4333 10.0799 13.3973C10.0798 13.3218 10.08 13.2463 10.0805 13.1708C10.081 13.0742 10.0807 12.9776 10.0801 12.8809C10.0797 12.8065 10.0798 12.7321 10.0801 12.6577C10.0802 12.622 10.0801 12.5864 10.0799 12.5508C10.0796 12.5009 10.0801 12.4511 10.0806 12.4013C10.0806 12.373 10.0807 12.3446 10.0808 12.3154C10.0937 12.2422 10.0937 12.2422 10.1354 12.1823C10.2129 12.1284 10.2603 12.1278 10.3544 12.1275ZM10.5253 12.5469C10.5253 12.882 10.5253 13.2172 10.5253 13.5625C10.8437 13.5625 11.1621 13.5625 11.4902 13.5625C11.4902 13.2274 11.4902 12.8922 11.4902 12.5469C11.1718 12.5469 10.8534 12.5469 10.5253 12.5469Z" fill="#00080C"/>
<path d="M6.52526 12.3301C6.74514 12.4629 6.90552 12.6494 6.98031 12.8992C7.03315 13.1733 6.99954 13.4363 6.85633 13.6779C6.71353 13.8761 6.51991 14.0049 6.28524 14.0703C6.20976 14.0808 6.13603 14.0825 6.0599 14.0814C6.02983 14.0811 6.02983 14.0811 5.99916 14.0809C5.8409 14.0764 5.71184 14.0508 5.5743 13.9688C5.5471 13.9526 5.5471 13.9526 5.51935 13.9361C5.31489 13.7987 5.19438 13.5841 5.1252 13.3515C5.09141 13.0608 5.14041 12.8077 5.3204 12.5723C5.60849 12.2186 6.11978 12.1296 6.52526 12.3301ZM5.62667 12.8817C5.54667 13.0065 5.53391 13.1441 5.55843 13.2885C5.6064 13.4453 5.71382 13.5333 5.85003 13.6169C5.97505 13.6671 6.13652 13.6617 6.26401 13.6212C6.39284 13.5531 6.47754 13.4503 6.54708 13.3245C6.58883 13.165 6.57585 13.0423 6.49709 12.8997C6.4225 12.7945 6.3315 12.7147 6.20907 12.6738C5.95844 12.6478 5.79057 12.6852 5.62667 12.8817Z" fill="#00080C"/>
<path d="M9.64124 8.3241C9.81481 8.46394 9.95668 8.64134 9.99194 8.86523C10.0218 9.18653 9.98938 9.44987 9.78078 9.70788C9.61455 9.88685 9.41192 9.99036 9.16853 10.0175C8.88641 10.0268 8.66075 9.96102 8.44321 9.7789C8.24262 9.58025 8.15717 9.36129 8.1543 9.08264C8.15727 8.79437 8.23006 8.59854 8.43459 8.39065C8.77764 8.07814 9.26409 8.0662 9.64124 8.3241ZM8.66032 8.7838C8.57992 8.92015 8.57285 9.06637 8.59546 9.2207C8.64825 9.37877 8.76688 9.47857 8.90808 9.55871C9.05468 9.59622 9.17951 9.60055 9.31274 9.52222C9.42589 9.44272 9.51578 9.35427 9.5603 9.2207C9.57329 9.06156 9.57778 8.92469 9.48413 8.78906C9.38567 8.67463 9.29302 8.59965 9.14106 8.57602C8.93649 8.56346 8.79023 8.62265 8.66032 8.7838Z" fill="#00080C"/>
</g>
<defs>
<clipPath id="clip0_546_549">
<rect width="13" height="13" fill="white" transform="translate(4 3)"/>
</clipPath>
</defs>
</svg>
