<svg width="40" height="43" viewBox="0 0 40 43" fill="none" xmlns="http://www.w3.org/2000/svg">
<ellipse cx="20.3616" cy="21.9561" rx="19.5" ry="21" fill="#218456"/>
<path d="M28.1922 21.9733C28.1922 22.5539 27.7854 23.0087 27.3245 23.0087H26.4568L26.4758 28.1761C26.4758 28.2632 26.4703 28.3502 26.4622 28.4373V28.9566C26.4622 29.6695 25.9768 30.2469 25.3776 30.2469H24.9437C24.9139 30.2469 24.8841 30.2469 24.8543 30.2436C24.8163 30.2469 24.7783 30.2469 24.7404 30.2469H23.8591H23.2083C22.6091 30.2469 22.1237 29.6695 22.1237 28.9566V28.1825V26.1182C22.1237 25.5472 21.736 25.086 21.256 25.086H19.5206C19.0407 25.086 18.653 25.5472 18.653 26.1182V28.1825V28.9566C18.653 29.6695 18.1676 30.2469 17.5683 30.2469H16.9176H16.0526C16.0119 30.2469 15.9712 30.2436 15.9306 30.2404C15.898 30.2436 15.8655 30.2469 15.833 30.2469H15.3991C14.7999 30.2469 14.3145 29.6695 14.3145 28.9566V25.344C14.3145 25.315 14.3145 25.2827 14.3172 25.2537V23.0087H13.4468C12.9587 23.0087 12.5791 22.5572 12.5791 21.9733C12.5791 21.683 12.6604 21.425 12.8503 21.1992L19.8026 13.9901C19.9925 13.7643 20.2094 13.7321 20.3992 13.7321C20.589 13.7321 20.8059 13.7966 20.9686 13.9578L27.8939 21.1992C28.1108 21.425 28.2193 21.683 28.1922 21.9733Z" fill="white"/>
</svg>
