<svg width="40" height="42" viewBox="0 0 40 42" fill="none" xmlns="http://www.w3.org/2000/svg">
<ellipse cx="20.3616" cy="21.4561" rx="20.5" ry="19.5" transform="rotate(90 20.3616 21.4561)" fill="#218456"/>
<path d="M20.5106 32.415C22.8633 32.415 25.1197 31.4267 26.7833 29.6675C28.447 27.9082 29.3816 25.5221 29.3816 23.0342C29.3816 20.5462 28.447 18.1602 26.7833 16.4009C25.1197 14.6417 22.8633 13.6533 20.5106 13.6533C18.1579 13.6533 15.9015 14.6417 14.2379 16.4009C12.5743 18.1602 11.6396 20.5462 11.6396 23.0342C11.6396 25.5221 12.5743 27.9082 14.2379 29.6675C15.9015 31.4267 18.1579 32.415 20.5106 32.415ZM19.1245 25.9657H19.9562V23.6205H19.1245C18.6637 23.6205 18.2929 23.2284 18.2929 22.741C18.2929 22.2537 18.6637 21.8616 19.1245 21.8616H20.7878C21.2487 21.8616 21.6195 22.2537 21.6195 22.741V25.9657H21.8967C22.3576 25.9657 22.7284 26.3578 22.7284 26.8452C22.7284 27.3325 22.3576 27.7246 21.8967 27.7246H19.1245C18.6637 27.7246 18.2929 27.3325 18.2929 26.8452C18.2929 26.3578 18.6637 25.9657 19.1245 25.9657ZM20.5106 18.3438C20.8047 18.3438 21.0868 18.4673 21.2947 18.6872C21.5027 18.9071 21.6195 19.2054 21.6195 19.5164C21.6195 19.8274 21.5027 20.1256 21.2947 20.3455C21.0868 20.5654 20.8047 20.689 20.5106 20.689C20.2165 20.689 19.9345 20.5654 19.7265 20.3455C19.5186 20.1256 19.4017 19.8274 19.4017 19.5164C19.4017 19.2054 19.5186 18.9071 19.7265 18.6872C19.9345 18.4673 20.2165 18.3438 20.5106 18.3438Z" fill="white"/>
</svg>
