<svg width="40" height="42" viewBox="0 0 40 42" fill="none" xmlns="http://www.w3.org/2000/svg">
<ellipse cx="20.3616" cy="21.4561" rx="20.5" ry="19.5" transform="rotate(90 20.3616 21.4561)" fill="#218456"/>
<path d="M19.8677 12.9541C20.3582 12.7139 20.9244 12.7139 21.4149 12.9541L28.6111 16.4704C28.8909 16.6062 29.0687 16.9021 29.0687 17.2294C29.0687 17.5567 28.8909 17.8526 28.6111 17.9884L21.4149 21.5047C20.9244 21.7449 20.3582 21.7449 19.8677 21.5047L12.6714 17.9884C12.3916 17.8491 12.2139 17.5532 12.2139 17.2294C12.2139 16.9056 12.3916 16.6062 12.6714 16.4704L19.8677 12.9541ZM26.8598 20.0703L28.6111 20.9268C28.8909 21.0626 29.0687 21.3585 29.0687 21.6857C29.0687 22.013 28.8909 22.3089 28.6111 22.4447L21.4149 25.9611C20.9244 26.2013 20.3582 26.2013 19.8677 25.9611L12.6714 22.4447C12.3916 22.3055 12.2139 22.0095 12.2139 21.6857C12.2139 21.362 12.3916 21.0626 12.6714 20.9268L14.4228 20.0703L19.4266 22.5143C20.1969 22.8904 21.0857 22.8904 21.856 22.5143L26.8598 20.0703ZM21.856 26.9707L26.8598 24.5267L28.6111 25.3831C28.8909 25.5189 29.0687 25.8148 29.0687 26.1421C29.0687 26.4694 28.8909 26.7653 28.6111 26.9011L21.4149 30.4174C20.9244 30.6576 20.3582 30.6576 19.8677 30.4174L12.6714 26.9011C12.3916 26.7618 12.2139 26.4659 12.2139 26.1421C12.2139 25.8183 12.3916 25.5189 12.6714 25.3831L14.4228 24.5267L19.4266 26.9707C20.1969 27.3467 21.0857 27.3467 21.856 26.9707Z" fill="white"/>
</svg>
