<svg width="41" height="42" viewBox="0 0 41 42" fill="none" xmlns="http://www.w3.org/2000/svg">
<ellipse cx="20.5052" cy="20.6435" rx="20.6435" ry="19.5214" transform="rotate(90 20.5052 20.6435)" fill="#218456"/>
<g clip-path="url(#clip0_1227_201)">
<path fill-rule="evenodd" clip-rule="evenodd" d="M11.9989 10.2206C11.9965 10.2207 11.9941 10.2209 11.9917 10.2211C11.9054 10.2225 11.8209 10.2462 11.7465 10.2899C11.672 10.3337 11.6102 10.3959 11.5669 10.4707L9.06663 14.8015C9.02279 14.8775 8.99972 14.9637 8.99976 15.0515C8.99979 15.1393 9.02291 15.2255 9.06681 15.3015C9.11071 15.3775 9.17383 15.4406 9.24984 15.4845C9.32584 15.5283 9.41206 15.5514 9.49983 15.5515H14.5C14.5877 15.5514 14.6739 15.5282 14.7498 15.4843C14.8257 15.4404 14.8888 15.3772 14.9326 15.3013C14.9765 15.2253 14.9996 15.1391 14.9996 15.0514C14.9996 14.9636 14.9765 14.8775 14.9327 14.8015L12.4331 10.4709C12.3892 10.3947 12.3259 10.3314 12.2496 10.2874C12.1734 10.2435 12.0869 10.2204 11.9989 10.2206ZM18.5999 12.4766V14.1566H22.1999V12.4766H18.5999ZM23.8799 12.4766V14.1566H32.9999V12.4766H23.8799ZM9.50007 18.5212C9.43438 18.5212 9.36935 18.5342 9.30866 18.5593C9.24798 18.5844 9.19284 18.6213 9.1464 18.6677C9.09996 18.7142 9.06311 18.7693 9.03798 18.83C9.01284 18.8907 8.99991 18.9557 8.99991 19.0214V23.0212C8.99991 23.1539 9.0526 23.2811 9.1464 23.3749C9.2402 23.4687 9.36742 23.5214 9.50007 23.5214H14.4997C14.6324 23.5214 14.7596 23.4687 14.8534 23.3749C14.9472 23.2811 14.9999 23.1539 14.9999 23.0212V19.0214C14.9999 18.9557 14.987 18.8907 14.9618 18.83C14.9367 18.7693 14.8999 18.7142 14.8534 18.6677C14.807 18.6213 14.7518 18.5844 14.6911 18.5593C14.6305 18.5342 14.5654 18.5212 14.4997 18.5212H9.50007ZM18.5999 20.4811V22.1611H25.0799V20.4811H18.5999ZM26.7599 20.4811V22.1611H32.9999V20.4811H26.7599ZM11.9999 25.7793C10.3489 25.7793 8.99991 27.1283 8.99991 28.7793C8.99991 30.4303 10.3489 31.7793 11.9999 31.7793C13.6509 31.7793 14.9999 30.4303 14.9999 28.7793C14.9999 27.1283 13.6509 25.7793 11.9999 25.7793ZM18.5999 28.4855V30.1655H22.1999V28.4855H18.5999ZM23.8799 28.4855V30.1655H32.9999V28.4855H23.8799Z" fill="white"/>
</g>
<defs>
<clipPath id="clip0_1227_201">
<rect width="24" height="24" fill="white" transform="translate(9 9)"/>
</clipPath>
</defs>
</svg>
