<svg width="40" height="42" viewBox="0 0 40 42" fill="none" xmlns="http://www.w3.org/2000/svg">
<ellipse cx="20.3616" cy="21.4561" rx="19.5" ry="20.5" fill="#218456"/>
<path d="M22.6405 27.535C22.9302 27.691 23.266 27.6171 23.4964 27.3462L28.2368 21.7634C28.3949 21.5787 28.4837 21.3201 28.4837 21.0491C28.4837 20.7782 28.3949 20.5196 28.2368 20.3349L23.4964 14.7521C23.266 14.4812 22.9302 14.4073 22.6405 14.5633C22.3508 14.7193 22.1632 15.0764 22.1632 15.4664V18.422H12.6823C12.0997 18.422 11.6289 19.009 11.6289 19.7356V22.3627C11.6289 23.0893 12.0997 23.6763 12.6823 23.6763H22.1632V26.6319C22.1632 27.026 22.3508 27.379 22.6405 27.535Z" fill="white"/>
</svg>
