<svg width="39" height="41" viewBox="0 0 39 41" fill="none" xmlns="http://www.w3.org/2000/svg">
<ellipse cx="19.5" cy="20.5" rx="20.5" ry="19.5" transform="rotate(90 19.5 20.5)" fill="#218456"/>
<path d="M11 9H23.7447L30.5 15.729V31.5C30.5 32.3287 29.828 33 29 33H11C10.172 33 9.5 32.3287 9.5 31.5V10.5C9.5 9.67126 10.172 9 11 9Z" fill="white"/>
<path d="M30.4782 15.7499H25.25C24.422 15.7499 23.75 15.0779 23.75 14.2499V9.01489L30.4782 15.7499Z" fill="#D9D9D9"/>
<path d="M24.8736 20.3723C25.1248 20.3723 25.2478 20.1533 25.2478 19.941C25.2478 19.7213 25.1196 19.509 24.8736 19.509H23.4426C23.1628 19.509 23.0068 19.7408 23.0068 19.9965V23.5133C23.0068 23.8268 23.1853 24.0008 23.4268 24.0008C23.6668 24.0008 23.8461 23.8268 23.8461 23.5133V22.548H24.7116C24.9801 22.548 25.1144 22.3283 25.1144 22.11C25.1144 21.8963 24.9801 21.684 24.7116 21.684H23.8461V20.3723H24.8736ZM20.0368 19.509H18.9898C18.7055 19.509 18.5038 19.704 18.5038 19.9935V23.5163C18.5038 23.8755 18.794 23.988 19.0017 23.988H20.1005C21.401 23.988 22.2597 23.1323 22.2597 21.8115C22.259 20.415 21.4506 19.509 20.0368 19.509ZM20.0871 23.1196H19.4488V20.3776H20.0241C20.8949 20.3776 21.2736 20.9618 21.2736 21.7681C21.2736 22.5226 20.9015 23.1196 20.0871 23.1196ZM16.2516 19.509H15.2143C14.9211 19.509 14.7576 19.7025 14.7576 19.9965V23.5133C14.7576 23.8268 14.9451 24.0008 15.197 24.0008C15.449 24.0008 15.6365 23.8268 15.6365 23.5133V22.4865H16.2867C17.0892 22.4865 17.7515 21.918 17.7515 21.0037C17.7516 20.1091 17.1126 19.509 16.2516 19.509ZM16.2344 21.6616H15.6366V20.3348H16.2344C16.6034 20.3348 16.8381 20.6228 16.8381 20.9985C16.8373 21.3736 16.6034 21.6616 16.2344 21.6616Z" fill="#00080C"/>
</svg>
