<svg width="40" height="42" viewBox="0 0 40 42" fill="none" xmlns="http://www.w3.org/2000/svg">
<ellipse cx="20.3616" cy="21.4561" rx="19.5" ry="20.5" fill="#218456"/>
<path d="M17.4718 28.064C17.1821 28.22 16.8463 28.1461 16.6159 27.8751L11.8755 22.2923C11.7174 22.1076 11.6286 21.849 11.6286 21.5781C11.6286 21.3071 11.7174 21.0485 11.8755 20.8638L16.6159 15.281C16.8463 15.0101 17.1821 14.9362 17.4718 15.0922C17.7615 15.2482 17.9491 15.6053 17.9491 15.9953V18.9509H27.43C28.0126 18.9509 28.4834 19.5379 28.4834 20.2645V22.8917C28.4834 23.6183 28.0126 24.2053 27.43 24.2053H17.9491V27.1609C17.9491 27.5549 17.7615 27.908 17.4718 28.064Z" fill="white"/>
</svg>
