<svg width="40" height="42" viewBox="0 0 40 42" fill="none" xmlns="http://www.w3.org/2000/svg">
<ellipse cx="20.3616" cy="21.4561" rx="19.5" ry="20.5" fill="#218456"/>
<path d="M26.0449 20.2441C26.0449 21.9258 25.5286 23.4793 24.6588 24.7397L29.046 29.3818C29.4791 29.8398 29.4791 30.5835 29.046 31.0415C28.6128 31.4995 27.9093 31.4995 27.4761 31.0415L23.089 26.3994C21.8969 27.3227 20.4275 27.865 18.8369 27.865C14.8552 27.865 11.6289 24.4539 11.6289 20.2441C11.6289 16.0343 14.8552 12.6233 18.8369 12.6233C22.8187 12.6233 26.0449 16.0343 26.0449 20.2441ZM18.0052 23.4683C18.0052 23.9556 18.376 24.3477 18.8369 24.3477C19.2978 24.3477 19.6686 23.9556 19.6686 23.4683V21.1235H21.8865C22.3474 21.1235 22.7182 20.7314 22.7182 20.2441C22.7182 19.7568 22.3474 19.3648 21.8865 19.3648H19.6686V17.0199C19.6686 16.5326 19.2978 16.1406 18.8369 16.1406C18.376 16.1406 18.0052 16.5326 18.0052 17.0199V19.3648H15.7874C15.3265 19.3648 14.9557 19.7568 14.9557 20.2441C14.9557 20.7314 15.3265 21.1235 15.7874 21.1235H18.0052V23.4683Z" fill="white"/>
</svg>
