<svg width="40" height="42" viewBox="0 0 40 42" fill="none" xmlns="http://www.w3.org/2000/svg">
<ellipse cx="20.3616" cy="21.4561" rx="19.5" ry="20.5" fill="#218456"/>
<path d="M26.0449 19.6529C26.0449 21.3347 25.5286 22.8881 24.6588 24.1485L29.046 28.7906C29.4791 29.2486 29.4791 29.9924 29.046 30.4503C28.6128 30.9083 27.9093 30.9083 27.4761 30.4503L23.089 25.8082C21.8969 26.7315 20.4275 27.2738 18.8369 27.2738C14.8552 27.2738 11.6289 23.8627 11.6289 19.6529C11.6289 15.4432 14.8552 12.0321 18.8369 12.0321C22.8187 12.0321 26.0449 15.4432 26.0449 19.6529ZM16.3418 18.7736C15.8809 18.7736 15.5101 19.1656 15.5101 19.6529C15.5101 20.1402 15.8809 20.5323 16.3418 20.5323H21.332C21.7929 20.5323 22.1637 20.1402 22.1637 19.6529C22.1637 19.1656 21.7929 18.7736 21.332 18.7736H16.3418Z" fill="white"/>
</svg>
